G04 #@! TF.FileFunction,Other,Fab,Top*
%FSLAX46Y46*%
G04 Gerber Fmt 4.6, Leading zero omitted, Abs format (unit mm)*
G04 Created by KiCad (PCBNEW 4.0.7-e2-6376~61~ubuntu18.04.1) date Thu Jan  3 16:44:15 2019*
%MOMM*%
%LPD*%
G01*
G04 APERTURE LIST*
%ADD10C,0.100000*%
%ADD11C,0.150000*%
%ADD12C,0.075000*%
G04 APERTURE END LIST*
D10*
X165870000Y-118360000D02*
X165870000Y-117860000D01*
X166870000Y-118360000D02*
X165870000Y-118360000D01*
X166870000Y-117860000D02*
X166870000Y-118360000D01*
X165870000Y-117860000D02*
X166870000Y-117860000D01*
X134890000Y-120000000D02*
X134890000Y-118760000D01*
X136890000Y-120000000D02*
X134890000Y-120000000D01*
X136890000Y-118760000D02*
X136890000Y-120000000D01*
X134890000Y-118760000D02*
X136890000Y-118760000D01*
X154140000Y-123590000D02*
X154140000Y-122790000D01*
X155740000Y-123590000D02*
X154140000Y-123590000D01*
X155740000Y-122790000D02*
X155740000Y-123590000D01*
X154140000Y-122790000D02*
X155740000Y-122790000D01*
X160790000Y-123440000D02*
X160790000Y-122940000D01*
X161790000Y-123440000D02*
X160790000Y-123440000D01*
X161790000Y-122940000D02*
X161790000Y-123440000D01*
X160790000Y-122940000D02*
X161790000Y-122940000D01*
X123150000Y-104470000D02*
X123150000Y-100670000D01*
X123150000Y-100670000D02*
X115650000Y-100670000D01*
X115650000Y-100670000D02*
X115650000Y-104470000D01*
X115650000Y-104470000D02*
X123150000Y-104470000D01*
X123600000Y-102720000D02*
X123600000Y-100220000D01*
X123600000Y-100220000D02*
X121100000Y-100220000D01*
X145320000Y-103410000D02*
X145320000Y-107410000D01*
X145320000Y-107410000D02*
X149320000Y-107410000D01*
X149320000Y-107410000D02*
X149320000Y-103410000D01*
X149320000Y-103410000D02*
X145320000Y-103410000D01*
X145550000Y-127250000D02*
X145550000Y-126750000D01*
X146550000Y-127250000D02*
X145550000Y-127250000D01*
X146550000Y-126750000D02*
X146550000Y-127250000D01*
X145550000Y-126750000D02*
X146550000Y-126750000D01*
X154440000Y-115820000D02*
X154440000Y-115320000D01*
X155440000Y-115820000D02*
X154440000Y-115820000D01*
X155440000Y-115320000D02*
X155440000Y-115820000D01*
X154440000Y-115320000D02*
X155440000Y-115320000D01*
X153170000Y-127250000D02*
X153170000Y-126750000D01*
X154170000Y-127250000D02*
X153170000Y-127250000D01*
X154170000Y-126750000D02*
X154170000Y-127250000D01*
X153170000Y-126750000D02*
X154170000Y-126750000D01*
X143140000Y-107580000D02*
X142490000Y-108230000D01*
X141340000Y-108230000D02*
X142490000Y-108230000D01*
X143140000Y-107580000D02*
X143140000Y-105130000D01*
X141340000Y-105130000D02*
X143140000Y-105130000D01*
X141340000Y-108230000D02*
X141340000Y-105130000D01*
D11*
X166203334Y-119812381D02*
X165631905Y-119812381D01*
X165917619Y-119812381D02*
X165917619Y-118812381D01*
X165822381Y-118955238D01*
X165727143Y-119050476D01*
X165631905Y-119098095D01*
X167060477Y-119145714D02*
X167060477Y-119812381D01*
X166631905Y-119145714D02*
X166631905Y-119669524D01*
X166679524Y-119764762D01*
X166774762Y-119812381D01*
X166917620Y-119812381D01*
X167012858Y-119764762D01*
X167060477Y-119717143D01*
X166203334Y-117267143D02*
X166155715Y-117314762D01*
X166012858Y-117362381D01*
X165917620Y-117362381D01*
X165774762Y-117314762D01*
X165679524Y-117219524D01*
X165631905Y-117124286D01*
X165584286Y-116933810D01*
X165584286Y-116790952D01*
X165631905Y-116600476D01*
X165679524Y-116505238D01*
X165774762Y-116410000D01*
X165917620Y-116362381D01*
X166012858Y-116362381D01*
X166155715Y-116410000D01*
X166203334Y-116457619D01*
X167155715Y-117362381D02*
X166584286Y-117362381D01*
X166870000Y-117362381D02*
X166870000Y-116362381D01*
X166774762Y-116505238D01*
X166679524Y-116600476D01*
X166584286Y-116648095D01*
X131509048Y-121582381D02*
X130937619Y-121582381D01*
X131223333Y-121582381D02*
X131223333Y-120582381D01*
X131128095Y-120725238D01*
X131032857Y-120820476D01*
X130937619Y-120868095D01*
X132128095Y-120582381D02*
X132223334Y-120582381D01*
X132318572Y-120630000D01*
X132366191Y-120677619D01*
X132413810Y-120772857D01*
X132461429Y-120963333D01*
X132461429Y-121201429D01*
X132413810Y-121391905D01*
X132366191Y-121487143D01*
X132318572Y-121534762D01*
X132223334Y-121582381D01*
X132128095Y-121582381D01*
X132032857Y-121534762D01*
X131985238Y-121487143D01*
X131937619Y-121391905D01*
X131890000Y-121201429D01*
X131890000Y-120963333D01*
X131937619Y-120772857D01*
X131985238Y-120677619D01*
X132032857Y-120630000D01*
X132128095Y-120582381D01*
X133318572Y-120915714D02*
X133318572Y-121582381D01*
X132890000Y-120915714D02*
X132890000Y-121439524D01*
X132937619Y-121534762D01*
X133032857Y-121582381D01*
X133175715Y-121582381D01*
X133270953Y-121534762D01*
X133318572Y-121487143D01*
X134128096Y-121058571D02*
X133794762Y-121058571D01*
X133794762Y-121582381D02*
X133794762Y-120582381D01*
X134270953Y-120582381D01*
X134699524Y-121534762D02*
X134699524Y-121582381D01*
X134651905Y-121677619D01*
X134604286Y-121725238D01*
X135651905Y-121582381D02*
X135080476Y-121582381D01*
X135366190Y-121582381D02*
X135366190Y-120582381D01*
X135270952Y-120725238D01*
X135175714Y-120820476D01*
X135080476Y-120868095D01*
X136270952Y-120582381D02*
X136366191Y-120582381D01*
X136461429Y-120630000D01*
X136509048Y-120677619D01*
X136556667Y-120772857D01*
X136604286Y-120963333D01*
X136604286Y-121201429D01*
X136556667Y-121391905D01*
X136509048Y-121487143D01*
X136461429Y-121534762D01*
X136366191Y-121582381D01*
X136270952Y-121582381D01*
X136175714Y-121534762D01*
X136128095Y-121487143D01*
X136080476Y-121391905D01*
X136032857Y-121201429D01*
X136032857Y-120963333D01*
X136080476Y-120772857D01*
X136128095Y-120677619D01*
X136175714Y-120630000D01*
X136270952Y-120582381D01*
X136890000Y-120582381D02*
X137223333Y-121582381D01*
X137556667Y-120582381D01*
X137937619Y-121534762D02*
X137937619Y-121582381D01*
X137890000Y-121677619D01*
X137842381Y-121725238D01*
X138270952Y-120582381D02*
X138937619Y-121582381D01*
X138937619Y-120582381D02*
X138270952Y-121582381D01*
X139794762Y-120582381D02*
X139318571Y-120582381D01*
X139270952Y-121058571D01*
X139318571Y-121010952D01*
X139413809Y-120963333D01*
X139651905Y-120963333D01*
X139747143Y-121010952D01*
X139794762Y-121058571D01*
X139842381Y-121153810D01*
X139842381Y-121391905D01*
X139794762Y-121487143D01*
X139747143Y-121534762D01*
X139651905Y-121582381D01*
X139413809Y-121582381D01*
X139318571Y-121534762D01*
X139270952Y-121487143D01*
X140842381Y-121582381D02*
X140509047Y-121106190D01*
X140270952Y-121582381D02*
X140270952Y-120582381D01*
X140651905Y-120582381D01*
X140747143Y-120630000D01*
X140794762Y-120677619D01*
X140842381Y-120772857D01*
X140842381Y-120915714D01*
X140794762Y-121010952D01*
X140747143Y-121058571D01*
X140651905Y-121106190D01*
X140270952Y-121106190D01*
X134294762Y-118237143D02*
X134247143Y-118284762D01*
X134104286Y-118332381D01*
X134009048Y-118332381D01*
X133866190Y-118284762D01*
X133770952Y-118189524D01*
X133723333Y-118094286D01*
X133675714Y-117903810D01*
X133675714Y-117760952D01*
X133723333Y-117570476D01*
X133770952Y-117475238D01*
X133866190Y-117380000D01*
X134009048Y-117332381D01*
X134104286Y-117332381D01*
X134247143Y-117380000D01*
X134294762Y-117427619D01*
X134675714Y-117427619D02*
X134723333Y-117380000D01*
X134818571Y-117332381D01*
X135056667Y-117332381D01*
X135151905Y-117380000D01*
X135199524Y-117427619D01*
X135247143Y-117522857D01*
X135247143Y-117618095D01*
X135199524Y-117760952D01*
X134628095Y-118332381D01*
X135247143Y-118332381D01*
X135628095Y-117427619D02*
X135675714Y-117380000D01*
X135770952Y-117332381D01*
X136009048Y-117332381D01*
X136104286Y-117380000D01*
X136151905Y-117427619D01*
X136199524Y-117522857D01*
X136199524Y-117618095D01*
X136151905Y-117760952D01*
X135580476Y-118332381D01*
X136199524Y-118332381D01*
X136818571Y-117332381D02*
X136913810Y-117332381D01*
X137009048Y-117380000D01*
X137056667Y-117427619D01*
X137104286Y-117522857D01*
X137151905Y-117713333D01*
X137151905Y-117951429D01*
X137104286Y-118141905D01*
X137056667Y-118237143D01*
X137009048Y-118284762D01*
X136913810Y-118332381D01*
X136818571Y-118332381D01*
X136723333Y-118284762D01*
X136675714Y-118237143D01*
X136628095Y-118141905D01*
X136580476Y-117951429D01*
X136580476Y-117713333D01*
X136628095Y-117522857D01*
X136675714Y-117427619D01*
X136723333Y-117380000D01*
X136818571Y-117332381D01*
X137770952Y-117332381D02*
X137866191Y-117332381D01*
X137961429Y-117380000D01*
X138009048Y-117427619D01*
X138056667Y-117522857D01*
X138104286Y-117713333D01*
X138104286Y-117951429D01*
X138056667Y-118141905D01*
X138009048Y-118237143D01*
X137961429Y-118284762D01*
X137866191Y-118332381D01*
X137770952Y-118332381D01*
X137675714Y-118284762D01*
X137628095Y-118237143D01*
X137580476Y-118141905D01*
X137532857Y-117951429D01*
X137532857Y-117713333D01*
X137580476Y-117522857D01*
X137628095Y-117427619D01*
X137675714Y-117380000D01*
X137770952Y-117332381D01*
X153725714Y-124237619D02*
X153773333Y-124190000D01*
X153868571Y-124142381D01*
X154106667Y-124142381D01*
X154201905Y-124190000D01*
X154249524Y-124237619D01*
X154297143Y-124332857D01*
X154297143Y-124428095D01*
X154249524Y-124570952D01*
X153678095Y-125142381D01*
X154297143Y-125142381D01*
X154678095Y-124237619D02*
X154725714Y-124190000D01*
X154820952Y-124142381D01*
X155059048Y-124142381D01*
X155154286Y-124190000D01*
X155201905Y-124237619D01*
X155249524Y-124332857D01*
X155249524Y-124428095D01*
X155201905Y-124570952D01*
X154630476Y-125142381D01*
X155249524Y-125142381D01*
X156106667Y-124475714D02*
X156106667Y-125142381D01*
X155678095Y-124475714D02*
X155678095Y-124999524D01*
X155725714Y-125094762D01*
X155820952Y-125142381D01*
X155963810Y-125142381D01*
X156059048Y-125094762D01*
X156106667Y-125047143D01*
D12*
X154301906Y-123332857D02*
X154282858Y-123351905D01*
X154225715Y-123370952D01*
X154187620Y-123370952D01*
X154130477Y-123351905D01*
X154092382Y-123313810D01*
X154073334Y-123275714D01*
X154054286Y-123199524D01*
X154054286Y-123142381D01*
X154073334Y-123066190D01*
X154092382Y-123028095D01*
X154130477Y-122990000D01*
X154187620Y-122970952D01*
X154225715Y-122970952D01*
X154282858Y-122990000D01*
X154301906Y-123009048D01*
X154454286Y-123009048D02*
X154473334Y-122990000D01*
X154511429Y-122970952D01*
X154606667Y-122970952D01*
X154644763Y-122990000D01*
X154663810Y-123009048D01*
X154682858Y-123047143D01*
X154682858Y-123085238D01*
X154663810Y-123142381D01*
X154435239Y-123370952D01*
X154682858Y-123370952D01*
X154835238Y-123009048D02*
X154854286Y-122990000D01*
X154892381Y-122970952D01*
X154987619Y-122970952D01*
X155025715Y-122990000D01*
X155044762Y-123009048D01*
X155063810Y-123047143D01*
X155063810Y-123085238D01*
X155044762Y-123142381D01*
X154816191Y-123370952D01*
X155063810Y-123370952D01*
X155311429Y-122970952D02*
X155349524Y-122970952D01*
X155387619Y-122990000D01*
X155406667Y-123009048D01*
X155425714Y-123047143D01*
X155444762Y-123123333D01*
X155444762Y-123218571D01*
X155425714Y-123294762D01*
X155406667Y-123332857D01*
X155387619Y-123351905D01*
X155349524Y-123370952D01*
X155311429Y-123370952D01*
X155273333Y-123351905D01*
X155254286Y-123332857D01*
X155235238Y-123294762D01*
X155216190Y-123218571D01*
X155216190Y-123123333D01*
X155235238Y-123047143D01*
X155254286Y-123009048D01*
X155273333Y-122990000D01*
X155311429Y-122970952D01*
X155825714Y-123370952D02*
X155597142Y-123370952D01*
X155711428Y-123370952D02*
X155711428Y-122970952D01*
X155673333Y-123028095D01*
X155635238Y-123066190D01*
X155597142Y-123085238D01*
D11*
X160075714Y-123892381D02*
X160170953Y-123892381D01*
X160266191Y-123940000D01*
X160313810Y-123987619D01*
X160361429Y-124082857D01*
X160409048Y-124273333D01*
X160409048Y-124511429D01*
X160361429Y-124701905D01*
X160313810Y-124797143D01*
X160266191Y-124844762D01*
X160170953Y-124892381D01*
X160075714Y-124892381D01*
X159980476Y-124844762D01*
X159932857Y-124797143D01*
X159885238Y-124701905D01*
X159837619Y-124511429D01*
X159837619Y-124273333D01*
X159885238Y-124082857D01*
X159932857Y-123987619D01*
X159980476Y-123940000D01*
X160075714Y-123892381D01*
X160837619Y-124797143D02*
X160885238Y-124844762D01*
X160837619Y-124892381D01*
X160790000Y-124844762D01*
X160837619Y-124797143D01*
X160837619Y-124892381D01*
X161837619Y-124892381D02*
X161266190Y-124892381D01*
X161551904Y-124892381D02*
X161551904Y-123892381D01*
X161456666Y-124035238D01*
X161361428Y-124130476D01*
X161266190Y-124178095D01*
X162694762Y-124225714D02*
X162694762Y-124892381D01*
X162266190Y-124225714D02*
X162266190Y-124749524D01*
X162313809Y-124844762D01*
X162409047Y-124892381D01*
X162551905Y-124892381D01*
X162647143Y-124844762D01*
X162694762Y-124797143D01*
X159694762Y-122347143D02*
X159647143Y-122394762D01*
X159504286Y-122442381D01*
X159409048Y-122442381D01*
X159266190Y-122394762D01*
X159170952Y-122299524D01*
X159123333Y-122204286D01*
X159075714Y-122013810D01*
X159075714Y-121870952D01*
X159123333Y-121680476D01*
X159170952Y-121585238D01*
X159266190Y-121490000D01*
X159409048Y-121442381D01*
X159504286Y-121442381D01*
X159647143Y-121490000D01*
X159694762Y-121537619D01*
X160075714Y-121537619D02*
X160123333Y-121490000D01*
X160218571Y-121442381D01*
X160456667Y-121442381D01*
X160551905Y-121490000D01*
X160599524Y-121537619D01*
X160647143Y-121632857D01*
X160647143Y-121728095D01*
X160599524Y-121870952D01*
X160028095Y-122442381D01*
X160647143Y-122442381D01*
X161028095Y-121537619D02*
X161075714Y-121490000D01*
X161170952Y-121442381D01*
X161409048Y-121442381D01*
X161504286Y-121490000D01*
X161551905Y-121537619D01*
X161599524Y-121632857D01*
X161599524Y-121728095D01*
X161551905Y-121870952D01*
X160980476Y-122442381D01*
X161599524Y-122442381D01*
X162218571Y-121442381D02*
X162313810Y-121442381D01*
X162409048Y-121490000D01*
X162456667Y-121537619D01*
X162504286Y-121632857D01*
X162551905Y-121823333D01*
X162551905Y-122061429D01*
X162504286Y-122251905D01*
X162456667Y-122347143D01*
X162409048Y-122394762D01*
X162313810Y-122442381D01*
X162218571Y-122442381D01*
X162123333Y-122394762D01*
X162075714Y-122347143D01*
X162028095Y-122251905D01*
X161980476Y-122061429D01*
X161980476Y-121823333D01*
X162028095Y-121632857D01*
X162075714Y-121537619D01*
X162123333Y-121490000D01*
X162218571Y-121442381D01*
X162932857Y-121537619D02*
X162980476Y-121490000D01*
X163075714Y-121442381D01*
X163313810Y-121442381D01*
X163409048Y-121490000D01*
X163456667Y-121537619D01*
X163504286Y-121632857D01*
X163504286Y-121728095D01*
X163456667Y-121870952D01*
X162885238Y-122442381D01*
X163504286Y-122442381D01*
X115661905Y-99727143D02*
X115614286Y-99774762D01*
X115471429Y-99822381D01*
X115376191Y-99822381D01*
X115233333Y-99774762D01*
X115138095Y-99679524D01*
X115090476Y-99584286D01*
X115042857Y-99393810D01*
X115042857Y-99250952D01*
X115090476Y-99060476D01*
X115138095Y-98965238D01*
X115233333Y-98870000D01*
X115376191Y-98822381D01*
X115471429Y-98822381D01*
X115614286Y-98870000D01*
X115661905Y-98917619D01*
X116233333Y-99822381D02*
X116138095Y-99774762D01*
X116090476Y-99727143D01*
X116042857Y-99631905D01*
X116042857Y-99346190D01*
X116090476Y-99250952D01*
X116138095Y-99203333D01*
X116233333Y-99155714D01*
X116376191Y-99155714D01*
X116471429Y-99203333D01*
X116519048Y-99250952D01*
X116566667Y-99346190D01*
X116566667Y-99631905D01*
X116519048Y-99727143D01*
X116471429Y-99774762D01*
X116376191Y-99822381D01*
X116233333Y-99822381D01*
X116995238Y-99155714D02*
X116995238Y-99822381D01*
X116995238Y-99250952D02*
X117042857Y-99203333D01*
X117138095Y-99155714D01*
X117280953Y-99155714D01*
X117376191Y-99203333D01*
X117423810Y-99298571D01*
X117423810Y-99822381D01*
X117900000Y-99155714D02*
X117900000Y-99822381D01*
X117900000Y-99250952D02*
X117947619Y-99203333D01*
X118042857Y-99155714D01*
X118185715Y-99155714D01*
X118280953Y-99203333D01*
X118328572Y-99298571D01*
X118328572Y-99822381D01*
X118566667Y-99917619D02*
X119328572Y-99917619D01*
X119757143Y-98822381D02*
X119852382Y-98822381D01*
X119947620Y-98870000D01*
X119995239Y-98917619D01*
X120042858Y-99012857D01*
X120090477Y-99203333D01*
X120090477Y-99441429D01*
X120042858Y-99631905D01*
X119995239Y-99727143D01*
X119947620Y-99774762D01*
X119852382Y-99822381D01*
X119757143Y-99822381D01*
X119661905Y-99774762D01*
X119614286Y-99727143D01*
X119566667Y-99631905D01*
X119519048Y-99441429D01*
X119519048Y-99203333D01*
X119566667Y-99012857D01*
X119614286Y-98917619D01*
X119661905Y-98870000D01*
X119757143Y-98822381D01*
X121042858Y-99822381D02*
X120471429Y-99822381D01*
X120757143Y-99822381D02*
X120757143Y-98822381D01*
X120661905Y-98965238D01*
X120566667Y-99060476D01*
X120471429Y-99108095D01*
X121376191Y-99822381D02*
X121900001Y-99155714D01*
X121376191Y-99155714D02*
X121900001Y-99822381D01*
X122471429Y-98822381D02*
X122566668Y-98822381D01*
X122661906Y-98870000D01*
X122709525Y-98917619D01*
X122757144Y-99012857D01*
X122804763Y-99203333D01*
X122804763Y-99441429D01*
X122757144Y-99631905D01*
X122709525Y-99727143D01*
X122661906Y-99774762D01*
X122566668Y-99822381D01*
X122471429Y-99822381D01*
X122376191Y-99774762D01*
X122328572Y-99727143D01*
X122280953Y-99631905D01*
X122233334Y-99441429D01*
X122233334Y-99203333D01*
X122280953Y-99012857D01*
X122328572Y-98917619D01*
X122376191Y-98870000D01*
X122471429Y-98822381D01*
X123185715Y-98917619D02*
X123233334Y-98870000D01*
X123328572Y-98822381D01*
X123566668Y-98822381D01*
X123661906Y-98870000D01*
X123709525Y-98917619D01*
X123757144Y-99012857D01*
X123757144Y-99108095D01*
X123709525Y-99250952D01*
X123138096Y-99822381D01*
X123757144Y-99822381D01*
X119066667Y-105322381D02*
X119066667Y-106036667D01*
X119019047Y-106179524D01*
X118923809Y-106274762D01*
X118780952Y-106322381D01*
X118685714Y-106322381D01*
X120066667Y-106322381D02*
X119495238Y-106322381D01*
X119780952Y-106322381D02*
X119780952Y-105322381D01*
X119685714Y-105465238D01*
X119590476Y-105560476D01*
X119495238Y-105608095D01*
X145581905Y-108457619D02*
X145629524Y-108410000D01*
X145724762Y-108362381D01*
X145962858Y-108362381D01*
X146058096Y-108410000D01*
X146105715Y-108457619D01*
X146153334Y-108552857D01*
X146153334Y-108648095D01*
X146105715Y-108790952D01*
X145534286Y-109362381D01*
X146153334Y-109362381D01*
X146534286Y-108457619D02*
X146581905Y-108410000D01*
X146677143Y-108362381D01*
X146915239Y-108362381D01*
X147010477Y-108410000D01*
X147058096Y-108457619D01*
X147105715Y-108552857D01*
X147105715Y-108648095D01*
X147058096Y-108790952D01*
X146486667Y-109362381D01*
X147105715Y-109362381D01*
X147962858Y-108695714D02*
X147962858Y-109362381D01*
X147534286Y-108695714D02*
X147534286Y-109219524D01*
X147581905Y-109314762D01*
X147677143Y-109362381D01*
X147820001Y-109362381D01*
X147915239Y-109314762D01*
X147962858Y-109267143D01*
X148439048Y-109362381D02*
X148439048Y-108362381D01*
X148439048Y-108838571D02*
X149010477Y-108838571D01*
X149010477Y-109362381D02*
X149010477Y-108362381D01*
X147153334Y-105862381D02*
X146677143Y-105862381D01*
X146677143Y-104862381D01*
X148010477Y-105862381D02*
X147439048Y-105862381D01*
X147724762Y-105862381D02*
X147724762Y-104862381D01*
X147629524Y-105005238D01*
X147534286Y-105100476D01*
X147439048Y-105148095D01*
X144097620Y-128702381D02*
X143526191Y-128702381D01*
X143811905Y-128702381D02*
X143811905Y-127702381D01*
X143716667Y-127845238D01*
X143621429Y-127940476D01*
X143526191Y-127988095D01*
X144716667Y-127702381D02*
X144811906Y-127702381D01*
X144907144Y-127750000D01*
X144954763Y-127797619D01*
X145002382Y-127892857D01*
X145050001Y-128083333D01*
X145050001Y-128321429D01*
X145002382Y-128511905D01*
X144954763Y-128607143D01*
X144907144Y-128654762D01*
X144811906Y-128702381D01*
X144716667Y-128702381D01*
X144621429Y-128654762D01*
X144573810Y-128607143D01*
X144526191Y-128511905D01*
X144478572Y-128321429D01*
X144478572Y-128083333D01*
X144526191Y-127892857D01*
X144573810Y-127797619D01*
X144621429Y-127750000D01*
X144716667Y-127702381D01*
X145669048Y-127702381D02*
X145764287Y-127702381D01*
X145859525Y-127750000D01*
X145907144Y-127797619D01*
X145954763Y-127892857D01*
X146002382Y-128083333D01*
X146002382Y-128321429D01*
X145954763Y-128511905D01*
X145907144Y-128607143D01*
X145859525Y-128654762D01*
X145764287Y-128702381D01*
X145669048Y-128702381D01*
X145573810Y-128654762D01*
X145526191Y-128607143D01*
X145478572Y-128511905D01*
X145430953Y-128321429D01*
X145430953Y-128083333D01*
X145478572Y-127892857D01*
X145526191Y-127797619D01*
X145573810Y-127750000D01*
X145669048Y-127702381D01*
X146478572Y-128654762D02*
X146478572Y-128702381D01*
X146430953Y-128797619D01*
X146383334Y-128845238D01*
X147383334Y-127702381D02*
X146907143Y-127702381D01*
X146859524Y-128178571D01*
X146907143Y-128130952D01*
X147002381Y-128083333D01*
X147240477Y-128083333D01*
X147335715Y-128130952D01*
X147383334Y-128178571D01*
X147430953Y-128273810D01*
X147430953Y-128511905D01*
X147383334Y-128607143D01*
X147335715Y-128654762D01*
X147240477Y-128702381D01*
X147002381Y-128702381D01*
X146907143Y-128654762D01*
X146859524Y-128607143D01*
X147811905Y-128702381D02*
X148573810Y-127702381D01*
X147954762Y-127702381D02*
X148050000Y-127750000D01*
X148097619Y-127845238D01*
X148050000Y-127940476D01*
X147954762Y-127988095D01*
X147859524Y-127940476D01*
X147811905Y-127845238D01*
X147859524Y-127750000D01*
X147954762Y-127702381D01*
X148526191Y-128654762D02*
X148573810Y-128559524D01*
X148526191Y-128464286D01*
X148430953Y-128416667D01*
X148335715Y-128464286D01*
X148288096Y-128559524D01*
X148335715Y-128654762D01*
X148430953Y-128702381D01*
X148526191Y-128654762D01*
X144930953Y-126252381D02*
X144597619Y-125776190D01*
X144359524Y-126252381D02*
X144359524Y-125252381D01*
X144740477Y-125252381D01*
X144835715Y-125300000D01*
X144883334Y-125347619D01*
X144930953Y-125442857D01*
X144930953Y-125585714D01*
X144883334Y-125680952D01*
X144835715Y-125728571D01*
X144740477Y-125776190D01*
X144359524Y-125776190D01*
X145883334Y-126252381D02*
X145311905Y-126252381D01*
X145597619Y-126252381D02*
X145597619Y-125252381D01*
X145502381Y-125395238D01*
X145407143Y-125490476D01*
X145311905Y-125538095D01*
X146835715Y-126252381D02*
X146264286Y-126252381D01*
X146550000Y-126252381D02*
X146550000Y-125252381D01*
X146454762Y-125395238D01*
X146359524Y-125490476D01*
X146264286Y-125538095D01*
X147788096Y-126252381D02*
X147216667Y-126252381D01*
X147502381Y-126252381D02*
X147502381Y-125252381D01*
X147407143Y-125395238D01*
X147311905Y-125490476D01*
X147216667Y-125538095D01*
X154749524Y-117272381D02*
X154178095Y-117272381D01*
X154463809Y-117272381D02*
X154463809Y-116272381D01*
X154368571Y-116415238D01*
X154273333Y-116510476D01*
X154178095Y-116558095D01*
X155368571Y-116272381D02*
X155463810Y-116272381D01*
X155559048Y-116320000D01*
X155606667Y-116367619D01*
X155654286Y-116462857D01*
X155701905Y-116653333D01*
X155701905Y-116891429D01*
X155654286Y-117081905D01*
X155606667Y-117177143D01*
X155559048Y-117224762D01*
X155463810Y-117272381D01*
X155368571Y-117272381D01*
X155273333Y-117224762D01*
X155225714Y-117177143D01*
X155178095Y-117081905D01*
X155130476Y-116891429D01*
X155130476Y-116653333D01*
X155178095Y-116462857D01*
X155225714Y-116367619D01*
X155273333Y-116320000D01*
X155368571Y-116272381D01*
X153820953Y-114822381D02*
X153487619Y-114346190D01*
X153249524Y-114822381D02*
X153249524Y-113822381D01*
X153630477Y-113822381D01*
X153725715Y-113870000D01*
X153773334Y-113917619D01*
X153820953Y-114012857D01*
X153820953Y-114155714D01*
X153773334Y-114250952D01*
X153725715Y-114298571D01*
X153630477Y-114346190D01*
X153249524Y-114346190D01*
X154773334Y-114822381D02*
X154201905Y-114822381D01*
X154487619Y-114822381D02*
X154487619Y-113822381D01*
X154392381Y-113965238D01*
X154297143Y-114060476D01*
X154201905Y-114108095D01*
X155725715Y-114822381D02*
X155154286Y-114822381D01*
X155440000Y-114822381D02*
X155440000Y-113822381D01*
X155344762Y-113965238D01*
X155249524Y-114060476D01*
X155154286Y-114108095D01*
X156106667Y-113917619D02*
X156154286Y-113870000D01*
X156249524Y-113822381D01*
X156487620Y-113822381D01*
X156582858Y-113870000D01*
X156630477Y-113917619D01*
X156678096Y-114012857D01*
X156678096Y-114108095D01*
X156630477Y-114250952D01*
X156059048Y-114822381D01*
X156678096Y-114822381D01*
X153074762Y-128702381D02*
X152503333Y-128702381D01*
X152789047Y-128702381D02*
X152789047Y-127702381D01*
X152693809Y-127845238D01*
X152598571Y-127940476D01*
X152503333Y-127988095D01*
X153693809Y-127702381D02*
X153789048Y-127702381D01*
X153884286Y-127750000D01*
X153931905Y-127797619D01*
X153979524Y-127892857D01*
X154027143Y-128083333D01*
X154027143Y-128321429D01*
X153979524Y-128511905D01*
X153931905Y-128607143D01*
X153884286Y-128654762D01*
X153789048Y-128702381D01*
X153693809Y-128702381D01*
X153598571Y-128654762D01*
X153550952Y-128607143D01*
X153503333Y-128511905D01*
X153455714Y-128321429D01*
X153455714Y-128083333D01*
X153503333Y-127892857D01*
X153550952Y-127797619D01*
X153598571Y-127750000D01*
X153693809Y-127702381D01*
X154455714Y-128702381D02*
X154455714Y-127702381D01*
X154550952Y-128321429D02*
X154836667Y-128702381D01*
X154836667Y-128035714D02*
X154455714Y-128416667D01*
X152074762Y-126252381D02*
X151741428Y-125776190D01*
X151503333Y-126252381D02*
X151503333Y-125252381D01*
X151884286Y-125252381D01*
X151979524Y-125300000D01*
X152027143Y-125347619D01*
X152074762Y-125442857D01*
X152074762Y-125585714D01*
X152027143Y-125680952D01*
X151979524Y-125728571D01*
X151884286Y-125776190D01*
X151503333Y-125776190D01*
X152455714Y-125347619D02*
X152503333Y-125300000D01*
X152598571Y-125252381D01*
X152836667Y-125252381D01*
X152931905Y-125300000D01*
X152979524Y-125347619D01*
X153027143Y-125442857D01*
X153027143Y-125538095D01*
X152979524Y-125680952D01*
X152408095Y-126252381D01*
X153027143Y-126252381D01*
X153408095Y-125347619D02*
X153455714Y-125300000D01*
X153550952Y-125252381D01*
X153789048Y-125252381D01*
X153884286Y-125300000D01*
X153931905Y-125347619D01*
X153979524Y-125442857D01*
X153979524Y-125538095D01*
X153931905Y-125680952D01*
X153360476Y-126252381D01*
X153979524Y-126252381D01*
X154598571Y-125252381D02*
X154693810Y-125252381D01*
X154789048Y-125300000D01*
X154836667Y-125347619D01*
X154884286Y-125442857D01*
X154931905Y-125633333D01*
X154931905Y-125871429D01*
X154884286Y-126061905D01*
X154836667Y-126157143D01*
X154789048Y-126204762D01*
X154693810Y-126252381D01*
X154598571Y-126252381D01*
X154503333Y-126204762D01*
X154455714Y-126157143D01*
X154408095Y-126061905D01*
X154360476Y-125871429D01*
X154360476Y-125633333D01*
X154408095Y-125442857D01*
X154455714Y-125347619D01*
X154503333Y-125300000D01*
X154598571Y-125252381D01*
X155550952Y-125252381D02*
X155646191Y-125252381D01*
X155741429Y-125300000D01*
X155789048Y-125347619D01*
X155836667Y-125442857D01*
X155884286Y-125633333D01*
X155884286Y-125871429D01*
X155836667Y-126061905D01*
X155789048Y-126157143D01*
X155741429Y-126204762D01*
X155646191Y-126252381D01*
X155550952Y-126252381D01*
X155455714Y-126204762D01*
X155408095Y-126157143D01*
X155360476Y-126061905D01*
X155312857Y-125871429D01*
X155312857Y-125633333D01*
X155360476Y-125442857D01*
X155408095Y-125347619D01*
X155455714Y-125300000D01*
X155550952Y-125252381D01*
X138263809Y-104184762D02*
X138406666Y-104232381D01*
X138644762Y-104232381D01*
X138740000Y-104184762D01*
X138787619Y-104137143D01*
X138835238Y-104041905D01*
X138835238Y-103946667D01*
X138787619Y-103851429D01*
X138740000Y-103803810D01*
X138644762Y-103756190D01*
X138454285Y-103708571D01*
X138359047Y-103660952D01*
X138311428Y-103613333D01*
X138263809Y-103518095D01*
X138263809Y-103422857D01*
X138311428Y-103327619D01*
X138359047Y-103280000D01*
X138454285Y-103232381D01*
X138692381Y-103232381D01*
X138835238Y-103280000D01*
X139454285Y-103756190D02*
X139454285Y-104232381D01*
X139120952Y-103232381D02*
X139454285Y-103756190D01*
X139787619Y-103232381D01*
X140263809Y-103660952D02*
X140168571Y-103613333D01*
X140120952Y-103565714D01*
X140073333Y-103470476D01*
X140073333Y-103422857D01*
X140120952Y-103327619D01*
X140168571Y-103280000D01*
X140263809Y-103232381D01*
X140454286Y-103232381D01*
X140549524Y-103280000D01*
X140597143Y-103327619D01*
X140644762Y-103422857D01*
X140644762Y-103470476D01*
X140597143Y-103565714D01*
X140549524Y-103613333D01*
X140454286Y-103660952D01*
X140263809Y-103660952D01*
X140168571Y-103708571D01*
X140120952Y-103756190D01*
X140073333Y-103851429D01*
X140073333Y-104041905D01*
X140120952Y-104137143D01*
X140168571Y-104184762D01*
X140263809Y-104232381D01*
X140454286Y-104232381D01*
X140549524Y-104184762D01*
X140597143Y-104137143D01*
X140644762Y-104041905D01*
X140644762Y-103851429D01*
X140597143Y-103756190D01*
X140549524Y-103708571D01*
X140454286Y-103660952D01*
X141263809Y-103232381D02*
X141359048Y-103232381D01*
X141454286Y-103280000D01*
X141501905Y-103327619D01*
X141549524Y-103422857D01*
X141597143Y-103613333D01*
X141597143Y-103851429D01*
X141549524Y-104041905D01*
X141501905Y-104137143D01*
X141454286Y-104184762D01*
X141359048Y-104232381D01*
X141263809Y-104232381D01*
X141168571Y-104184762D01*
X141120952Y-104137143D01*
X141073333Y-104041905D01*
X141025714Y-103851429D01*
X141025714Y-103613333D01*
X141073333Y-103422857D01*
X141120952Y-103327619D01*
X141168571Y-103280000D01*
X141263809Y-103232381D01*
X142168571Y-103660952D02*
X142073333Y-103613333D01*
X142025714Y-103565714D01*
X141978095Y-103470476D01*
X141978095Y-103422857D01*
X142025714Y-103327619D01*
X142073333Y-103280000D01*
X142168571Y-103232381D01*
X142359048Y-103232381D01*
X142454286Y-103280000D01*
X142501905Y-103327619D01*
X142549524Y-103422857D01*
X142549524Y-103470476D01*
X142501905Y-103565714D01*
X142454286Y-103613333D01*
X142359048Y-103660952D01*
X142168571Y-103660952D01*
X142073333Y-103708571D01*
X142025714Y-103756190D01*
X141978095Y-103851429D01*
X141978095Y-104041905D01*
X142025714Y-104137143D01*
X142073333Y-104184762D01*
X142168571Y-104232381D01*
X142359048Y-104232381D01*
X142454286Y-104184762D01*
X142501905Y-104137143D01*
X142549524Y-104041905D01*
X142549524Y-103851429D01*
X142501905Y-103756190D01*
X142454286Y-103708571D01*
X142359048Y-103660952D01*
X143120952Y-103660952D02*
X143025714Y-103613333D01*
X142978095Y-103565714D01*
X142930476Y-103470476D01*
X142930476Y-103422857D01*
X142978095Y-103327619D01*
X143025714Y-103280000D01*
X143120952Y-103232381D01*
X143311429Y-103232381D01*
X143406667Y-103280000D01*
X143454286Y-103327619D01*
X143501905Y-103422857D01*
X143501905Y-103470476D01*
X143454286Y-103565714D01*
X143406667Y-103613333D01*
X143311429Y-103660952D01*
X143120952Y-103660952D01*
X143025714Y-103708571D01*
X142978095Y-103756190D01*
X142930476Y-103851429D01*
X142930476Y-104041905D01*
X142978095Y-104137143D01*
X143025714Y-104184762D01*
X143120952Y-104232381D01*
X143311429Y-104232381D01*
X143406667Y-104184762D01*
X143454286Y-104137143D01*
X143501905Y-104041905D01*
X143501905Y-103851429D01*
X143454286Y-103756190D01*
X143406667Y-103708571D01*
X143311429Y-103660952D01*
X143882857Y-103946667D02*
X144359048Y-103946667D01*
X143787619Y-104232381D02*
X144120952Y-103232381D01*
X144454286Y-104232381D01*
X144740000Y-103946667D02*
X145216191Y-103946667D01*
X144644762Y-104232381D02*
X144978095Y-103232381D01*
X145311429Y-104232381D01*
X146216191Y-104137143D02*
X146168572Y-104184762D01*
X146025715Y-104232381D01*
X145930477Y-104232381D01*
X145787619Y-104184762D01*
X145692381Y-104089524D01*
X145644762Y-103994286D01*
X145597143Y-103803810D01*
X145597143Y-103660952D01*
X145644762Y-103470476D01*
X145692381Y-103375238D01*
X145787619Y-103280000D01*
X145930477Y-103232381D01*
X146025715Y-103232381D01*
X146168572Y-103280000D01*
X146216191Y-103327619D01*
D12*
X141966190Y-107060952D02*
X142370952Y-107060952D01*
X142418571Y-107037143D01*
X142442381Y-107013333D01*
X142466190Y-106965714D01*
X142466190Y-106870476D01*
X142442381Y-106822857D01*
X142418571Y-106799048D01*
X142370952Y-106775238D01*
X141966190Y-106775238D01*
X142466190Y-106275238D02*
X142466190Y-106560952D01*
X142466190Y-106418095D02*
X141966190Y-106418095D01*
X142037619Y-106465714D01*
X142085238Y-106513333D01*
X142109048Y-106560952D01*
M02*
