G04 #@! TF.FileFunction,Other,Fab,Bot*
%FSLAX46Y46*%
G04 Gerber Fmt 4.6, Leading zero omitted, Abs format (unit mm)*
G04 Created by KiCad (PCBNEW 4.0.7-e2-6376~61~ubuntu18.04.1) date Thu Jan  3 16:44:15 2019*
%MOMM*%
%LPD*%
G01*
G04 APERTURE LIST*
%ADD10C,0.100000*%
%ADD11C,0.150000*%
G04 APERTURE END LIST*
D10*
X159520000Y-110240000D02*
X159520000Y-110740000D01*
X160520000Y-110240000D02*
X159520000Y-110240000D01*
X160520000Y-110740000D02*
X160520000Y-110240000D01*
X159520000Y-110740000D02*
X160520000Y-110740000D01*
D11*
X160186666Y-109672381D02*
X160758095Y-109672381D01*
X160472381Y-109672381D02*
X160472381Y-108672381D01*
X160567619Y-108815238D01*
X160662857Y-108910476D01*
X160758095Y-108958095D01*
X159329523Y-109005714D02*
X159329523Y-109672381D01*
X159758095Y-109005714D02*
X159758095Y-109529524D01*
X159710476Y-109624762D01*
X159615238Y-109672381D01*
X159472380Y-109672381D01*
X159377142Y-109624762D01*
X159329523Y-109577143D01*
X160186666Y-112117143D02*
X160234285Y-112164762D01*
X160377142Y-112212381D01*
X160472380Y-112212381D01*
X160615238Y-112164762D01*
X160710476Y-112069524D01*
X160758095Y-111974286D01*
X160805714Y-111783810D01*
X160805714Y-111640952D01*
X160758095Y-111450476D01*
X160710476Y-111355238D01*
X160615238Y-111260000D01*
X160472380Y-111212381D01*
X160377142Y-111212381D01*
X160234285Y-111260000D01*
X160186666Y-111307619D01*
X159805714Y-111307619D02*
X159758095Y-111260000D01*
X159662857Y-111212381D01*
X159424761Y-111212381D01*
X159329523Y-111260000D01*
X159281904Y-111307619D01*
X159234285Y-111402857D01*
X159234285Y-111498095D01*
X159281904Y-111640952D01*
X159853333Y-112212381D01*
X159234285Y-112212381D01*
M02*
