G04 #@! TF.GenerationSoftware,KiCad,Pcbnew,5.0.2-bee76a0~70~ubuntu18.04.1*
G04 #@! TF.CreationDate,2019-02-19T22:04:26+08:00*
G04 #@! TF.ProjectId,require,72657175-6972-4652-9e6b-696361645f70,rev?*
G04 #@! TF.SameCoordinates,Original*
G04 #@! TF.FileFunction,Other,Fab,Top*
%FSLAX46Y46*%
G04 Gerber Fmt 4.6, Leading zero omitted, Abs format (unit mm)*
G04 Created by KiCad (PCBNEW 5.0.2-bee76a0~70~ubuntu18.04.1) date 2019年02月19日 星期二 22时04分26秒*
%MOMM*%
%LPD*%
G01*
G04 APERTURE LIST*
%ADD10C,0.100000*%
%ADD11C,0.150000*%
%ADD12C,0.030000*%
%ADD13C,0.075000*%
G04 APERTURE END LIST*
D10*
G04 #@! TO.C,C17*
X89450000Y-64750000D02*
X90450000Y-64750000D01*
X90450000Y-64750000D02*
X90450000Y-65250000D01*
X90450000Y-65250000D02*
X89450000Y-65250000D01*
X89450000Y-65250000D02*
X89450000Y-64750000D01*
D11*
G04 #@! TO.C,L10*
X91750000Y-58500000D02*
X89250000Y-58500000D01*
X91750000Y-60500000D02*
X91750000Y-58500000D01*
X89250000Y-60500000D02*
X91750000Y-60500000D01*
X89250000Y-58500000D02*
X89250000Y-60500000D01*
D10*
G04 #@! TO.C,L1*
X38050000Y-61150000D02*
X38050000Y-61650000D01*
X37050000Y-61150000D02*
X38050000Y-61150000D01*
X37050000Y-61650000D02*
X37050000Y-61150000D01*
X38050000Y-61650000D02*
X37050000Y-61650000D01*
G04 #@! TO.C,U6*
X92050000Y-63650000D02*
X88950000Y-63650000D01*
X88950000Y-63650000D02*
X88950000Y-61850000D01*
X91400000Y-61850000D02*
X88950000Y-61850000D01*
X92050000Y-63650000D02*
X92050000Y-62500000D01*
X91400000Y-61850000D02*
X92050000Y-62500000D01*
D11*
G04 #@! TO.C,Y1*
X40650000Y-73275000D02*
X38650000Y-73275000D01*
X38650000Y-73275000D02*
X38650000Y-71675000D01*
X38650000Y-71675000D02*
X40650000Y-71675000D01*
X40650000Y-71675000D02*
X40650000Y-73275000D01*
G04 #@! TO.C,ANT1*
X32000000Y-65400000D02*
G75*
G03X32000000Y-65400000I-500000J0D01*
G01*
X34000000Y-60900000D02*
X34500000Y-60900000D01*
X34000000Y-61900000D02*
X34000000Y-60900000D01*
X34500000Y-61900000D02*
X34000000Y-61900000D01*
X34500000Y-66400000D02*
X30500000Y-66400000D01*
X34500000Y-56400000D02*
X34500000Y-66400000D01*
X30500000Y-56400000D02*
X34500000Y-56400000D01*
X30500000Y-66400000D02*
X30500000Y-56400000D01*
D10*
G04 #@! TO.C,C1*
X36500000Y-61350000D02*
X36000000Y-61350000D01*
X36500000Y-60350000D02*
X36500000Y-61350000D01*
X36000000Y-60350000D02*
X36500000Y-60350000D01*
X36000000Y-61350000D02*
X36000000Y-60350000D01*
G04 #@! TO.C,C2*
X38600000Y-61350000D02*
X38600000Y-60350000D01*
X38600000Y-60350000D02*
X39100000Y-60350000D01*
X39100000Y-60350000D02*
X39100000Y-61350000D01*
X39100000Y-61350000D02*
X38600000Y-61350000D01*
G04 #@! TO.C,C4*
X39750000Y-67650000D02*
X39750000Y-66650000D01*
X39750000Y-66650000D02*
X40250000Y-66650000D01*
X40250000Y-66650000D02*
X40250000Y-67650000D01*
X40250000Y-67650000D02*
X39750000Y-67650000D01*
G04 #@! TO.C,C905*
X41187500Y-71975000D02*
X41687500Y-71975000D01*
X41187500Y-72975000D02*
X41187500Y-71975000D01*
X41687500Y-72975000D02*
X41187500Y-72975000D01*
X41687500Y-71975000D02*
X41687500Y-72975000D01*
G04 #@! TO.C,C906*
X39150000Y-73850000D02*
X40150000Y-73850000D01*
X40150000Y-73850000D02*
X40150000Y-74350000D01*
X40150000Y-74350000D02*
X39150000Y-74350000D01*
X39150000Y-74350000D02*
X39150000Y-73850000D01*
G04 #@! TO.C,C16*
X92750000Y-61500000D02*
X93250000Y-61500000D01*
X92750000Y-62500000D02*
X92750000Y-61500000D01*
X93250000Y-62500000D02*
X92750000Y-62500000D01*
X93250000Y-61500000D02*
X93250000Y-62500000D01*
G04 #@! TO.C,C5*
X56500000Y-59000000D02*
X56500000Y-59500000D01*
X55500000Y-59000000D02*
X56500000Y-59000000D01*
X55500000Y-59500000D02*
X55500000Y-59000000D01*
X56500000Y-59500000D02*
X55500000Y-59500000D01*
G04 #@! TO.C,R5*
X94000000Y-61500000D02*
X94500000Y-61500000D01*
X94000000Y-62500000D02*
X94000000Y-61500000D01*
X94500000Y-62500000D02*
X94000000Y-62500000D01*
X94500000Y-61500000D02*
X94500000Y-62500000D01*
G04 #@! TO.C,R6*
X95250000Y-62500000D02*
X95250000Y-61500000D01*
X95250000Y-61500000D02*
X95750000Y-61500000D01*
X95750000Y-61500000D02*
X95750000Y-62500000D01*
X95750000Y-62500000D02*
X95250000Y-62500000D01*
G04 #@! TO.C,C3*
X38400000Y-67750000D02*
X38400000Y-66150000D01*
X38400000Y-66150000D02*
X39200000Y-66150000D01*
X39200000Y-66150000D02*
X39200000Y-67750000D01*
X39200000Y-67750000D02*
X38400000Y-67750000D01*
G04 #@! TO.C,C10*
X56600000Y-65050000D02*
X56600000Y-63450000D01*
X56600000Y-63450000D02*
X57400000Y-63450000D01*
X57400000Y-63450000D02*
X57400000Y-65050000D01*
X57400000Y-65050000D02*
X56600000Y-65050000D01*
G04 #@! TO.C,C11*
X55500000Y-65000000D02*
X55000000Y-65000000D01*
X55500000Y-64000000D02*
X55500000Y-65000000D01*
X55000000Y-64000000D02*
X55500000Y-64000000D01*
X55000000Y-65000000D02*
X55000000Y-64000000D01*
G04 #@! TO.C,C12*
X55750000Y-65000000D02*
X55750000Y-64000000D01*
X55750000Y-64000000D02*
X56250000Y-64000000D01*
X56250000Y-64000000D02*
X56250000Y-65000000D01*
X56250000Y-65000000D02*
X55750000Y-65000000D01*
G04 #@! TO.C,C7*
X55500000Y-61500000D02*
X55500000Y-61000000D01*
X56500000Y-61500000D02*
X55500000Y-61500000D01*
X56500000Y-61000000D02*
X56500000Y-61500000D01*
X55500000Y-61000000D02*
X56500000Y-61000000D01*
D11*
G04 #@! TO.C,D2*
X92000000Y-67900000D02*
X92000000Y-67300000D01*
X92000000Y-67300000D02*
X91000000Y-67300000D01*
X91000000Y-67300000D02*
X91000000Y-67900000D01*
X91000000Y-67900000D02*
X92000000Y-67900000D01*
X92000000Y-67500000D02*
X91800000Y-67500000D01*
X91800000Y-67500000D02*
X91800000Y-67300000D01*
G04 #@! TO.C,U2*
X55150000Y-66700000D02*
X55350000Y-66700000D01*
X56530000Y-66930000D02*
X54970000Y-66930000D01*
X56530000Y-66070000D02*
X56530000Y-66930000D01*
X54970000Y-66070000D02*
X56530000Y-66070000D01*
X54970000Y-66930000D02*
X54970000Y-66070000D01*
D10*
G04 #@! TO.C,C6*
X55450000Y-62650000D02*
X55450000Y-61850000D01*
X57050000Y-62650000D02*
X55450000Y-62650000D01*
X57050000Y-61850000D02*
X57050000Y-62650000D01*
X55450000Y-61850000D02*
X57050000Y-61850000D01*
G04 #@! TO.C,C8*
X55500000Y-60000000D02*
X56500000Y-60000000D01*
X56500000Y-60000000D02*
X56500000Y-60500000D01*
X56500000Y-60500000D02*
X55500000Y-60500000D01*
X55500000Y-60500000D02*
X55500000Y-60000000D01*
G04 #@! TO.C,R7*
X90000000Y-67350000D02*
X89000000Y-67350000D01*
X89000000Y-67350000D02*
X89000000Y-66850000D01*
X89000000Y-66850000D02*
X90000000Y-66850000D01*
X90000000Y-66850000D02*
X90000000Y-67350000D01*
G04 #@! TO.C,R8*
X90000000Y-67750000D02*
X90000000Y-68250000D01*
X89000000Y-67750000D02*
X90000000Y-67750000D01*
X89000000Y-68250000D02*
X89000000Y-67750000D01*
X90000000Y-68250000D02*
X89000000Y-68250000D01*
G04 #@! TO.C,C188*
X90750000Y-69000000D02*
X90750000Y-70000000D01*
X90750000Y-70000000D02*
X90250000Y-70000000D01*
X90250000Y-70000000D02*
X90250000Y-69000000D01*
X90250000Y-69000000D02*
X90750000Y-69000000D01*
G04 #@! TO.C,C189*
X90000000Y-71450000D02*
X90000000Y-71950000D01*
X89000000Y-71450000D02*
X90000000Y-71450000D01*
X89000000Y-71950000D02*
X89000000Y-71450000D01*
X90000000Y-71950000D02*
X89000000Y-71950000D01*
G04 #@! TO.C,C190*
X90000000Y-71150000D02*
X89000000Y-71150000D01*
X89000000Y-71150000D02*
X89000000Y-70650000D01*
X89000000Y-70650000D02*
X90000000Y-70650000D01*
X90000000Y-70650000D02*
X90000000Y-71150000D01*
G04 #@! TO.C,L191*
X91900000Y-69300000D02*
X91900000Y-70900000D01*
X91900000Y-70900000D02*
X91100000Y-70900000D01*
X91100000Y-70900000D02*
X91100000Y-69300000D01*
X91100000Y-69300000D02*
X91900000Y-69300000D01*
D11*
G04 #@! TO.C,U187*
X89000000Y-68900000D02*
X89800000Y-68900000D01*
X89800000Y-68900000D02*
X89800000Y-70100000D01*
X89800000Y-70100000D02*
X89000000Y-70100000D01*
X89000000Y-70100000D02*
X89000000Y-68900000D01*
D10*
G04 #@! TO.C,C15*
X92600000Y-60300000D02*
X92600000Y-58700000D01*
X92600000Y-58700000D02*
X93400000Y-58700000D01*
X93400000Y-58700000D02*
X93400000Y-60300000D01*
X93400000Y-60300000D02*
X92600000Y-60300000D01*
G04 #@! TO.C,C268*
X89700000Y-66400000D02*
X89700000Y-65600000D01*
X91300000Y-66400000D02*
X89700000Y-66400000D01*
X91300000Y-65600000D02*
X91300000Y-66400000D01*
X89700000Y-65600000D02*
X91300000Y-65600000D01*
G04 #@! TO.C,J1*
X97500000Y-70750000D02*
X97500000Y-64250000D01*
X98200000Y-71250000D02*
X93200000Y-71250000D01*
X93200000Y-71250000D02*
X93200000Y-63750000D01*
X93200000Y-63750000D02*
X98200000Y-63750000D01*
X98200000Y-63750000D02*
X98200000Y-71250000D01*
D11*
G04 #@! TO.C,SW1*
X91300000Y-78500000D02*
X91300000Y-77850000D01*
X89700000Y-78500000D02*
X91300000Y-78500000D01*
X89700000Y-77850000D02*
X89700000Y-78500000D01*
X88750000Y-77850000D02*
X88750000Y-74950000D01*
X92250000Y-77850000D02*
X88750000Y-77850000D01*
X92250000Y-74950000D02*
X92250000Y-77850000D01*
X88750000Y-74950000D02*
X92250000Y-74950000D01*
D10*
G04 #@! TO.C,R201*
X94500000Y-59000000D02*
X94500000Y-60000000D01*
X94500000Y-60000000D02*
X94000000Y-60000000D01*
X94000000Y-60000000D02*
X94000000Y-59000000D01*
X94000000Y-59000000D02*
X94500000Y-59000000D01*
G04 #@! TO.C,C191*
X91400000Y-71450000D02*
X92400000Y-71450000D01*
X92400000Y-71450000D02*
X92400000Y-71950000D01*
X92400000Y-71950000D02*
X91400000Y-71950000D01*
X91400000Y-71950000D02*
X91400000Y-71450000D01*
G04 #@! TO.C,D200*
X95250000Y-59000000D02*
X95750000Y-59000000D01*
X95750000Y-59000000D02*
X95750000Y-60000000D01*
X95750000Y-60000000D02*
X95250000Y-60000000D01*
X95250000Y-60000000D02*
X95250000Y-59000000D01*
X95700000Y-59650000D02*
X95300000Y-59650000D01*
X95300000Y-59650000D02*
X95500000Y-59350000D01*
X95500000Y-59350000D02*
X95700000Y-59650000D01*
X95700000Y-59350000D02*
X95300000Y-59350000D01*
G04 #@! TD*
G04 #@! TO.C,RP3*
D11*
X48261904Y-51563333D02*
X47880952Y-51830000D01*
X48261904Y-52020476D02*
X47461904Y-52020476D01*
X47461904Y-51715714D01*
X47500000Y-51639523D01*
X47538095Y-51601428D01*
X47614285Y-51563333D01*
X47728571Y-51563333D01*
X47804761Y-51601428D01*
X47842857Y-51639523D01*
X47880952Y-51715714D01*
X47880952Y-52020476D01*
X48261904Y-51220476D02*
X47461904Y-51220476D01*
X47461904Y-50915714D01*
X47500000Y-50839523D01*
X47538095Y-50801428D01*
X47614285Y-50763333D01*
X47728571Y-50763333D01*
X47804761Y-50801428D01*
X47842857Y-50839523D01*
X47880952Y-50915714D01*
X47880952Y-51220476D01*
X47461904Y-50496666D02*
X47461904Y-50001428D01*
X47766666Y-50268095D01*
X47766666Y-50153809D01*
X47804761Y-50077619D01*
X47842857Y-50039523D01*
X47919047Y-50001428D01*
X48109523Y-50001428D01*
X48185714Y-50039523D01*
X48223809Y-50077619D01*
X48261904Y-50153809D01*
X48261904Y-50382380D01*
X48223809Y-50458571D01*
X48185714Y-50496666D01*
G04 #@! TO.C,C17*
X87116666Y-65722380D02*
X87211904Y-65722380D01*
X87307142Y-65770000D01*
X87354761Y-65817619D01*
X87402380Y-65912857D01*
X87450000Y-66103333D01*
X87450000Y-66341428D01*
X87402380Y-66531904D01*
X87354761Y-66627142D01*
X87307142Y-66674761D01*
X87211904Y-66722380D01*
X87116666Y-66722380D01*
X87021428Y-66674761D01*
X86973809Y-66627142D01*
X86926190Y-66531904D01*
X86878571Y-66341428D01*
X86878571Y-66103333D01*
X86926190Y-65912857D01*
X86973809Y-65817619D01*
X87021428Y-65770000D01*
X87116666Y-65722380D01*
X87878571Y-66627142D02*
X87926190Y-66674761D01*
X87878571Y-66722380D01*
X87830952Y-66674761D01*
X87878571Y-66627142D01*
X87878571Y-66722380D01*
X88878571Y-66722380D02*
X88307142Y-66722380D01*
X88592857Y-66722380D02*
X88592857Y-65722380D01*
X88497619Y-65865238D01*
X88402380Y-65960476D01*
X88307142Y-66008095D01*
X89735714Y-66055714D02*
X89735714Y-66722380D01*
X89307142Y-66055714D02*
X89307142Y-66579523D01*
X89354761Y-66674761D01*
X89450000Y-66722380D01*
X89592857Y-66722380D01*
X89688095Y-66674761D01*
X89735714Y-66627142D01*
X90259523Y-66674761D02*
X90259523Y-66722380D01*
X90211904Y-66817619D01*
X90164285Y-66865238D01*
X91211904Y-66722380D02*
X90640476Y-66722380D01*
X90926190Y-66722380D02*
X90926190Y-65722380D01*
X90830952Y-65865238D01*
X90735714Y-65960476D01*
X90640476Y-66008095D01*
X91830952Y-65722380D02*
X91926190Y-65722380D01*
X92021428Y-65770000D01*
X92069047Y-65817619D01*
X92116666Y-65912857D01*
X92164285Y-66103333D01*
X92164285Y-66341428D01*
X92116666Y-66531904D01*
X92069047Y-66627142D01*
X92021428Y-66674761D01*
X91926190Y-66722380D01*
X91830952Y-66722380D01*
X91735714Y-66674761D01*
X91688095Y-66627142D01*
X91640476Y-66531904D01*
X91592857Y-66341428D01*
X91592857Y-66103333D01*
X91640476Y-65912857D01*
X91688095Y-65817619D01*
X91735714Y-65770000D01*
X91830952Y-65722380D01*
X92450000Y-65722380D02*
X92783333Y-66722380D01*
X93116666Y-65722380D01*
X89307142Y-64087142D02*
X89259523Y-64134761D01*
X89116666Y-64182380D01*
X89021428Y-64182380D01*
X88878571Y-64134761D01*
X88783333Y-64039523D01*
X88735714Y-63944285D01*
X88688095Y-63753809D01*
X88688095Y-63610952D01*
X88735714Y-63420476D01*
X88783333Y-63325238D01*
X88878571Y-63230000D01*
X89021428Y-63182380D01*
X89116666Y-63182380D01*
X89259523Y-63230000D01*
X89307142Y-63277619D01*
X90259523Y-64182380D02*
X89688095Y-64182380D01*
X89973809Y-64182380D02*
X89973809Y-63182380D01*
X89878571Y-63325238D01*
X89783333Y-63420476D01*
X89688095Y-63468095D01*
X90592857Y-63182380D02*
X91259523Y-63182380D01*
X90830952Y-64182380D01*
G04 #@! TO.C,L10*
X89047619Y-60847619D02*
X89095238Y-60800000D01*
X89190476Y-60752380D01*
X89428571Y-60752380D01*
X89523809Y-60800000D01*
X89571428Y-60847619D01*
X89619047Y-60942857D01*
X89619047Y-61038095D01*
X89571428Y-61180952D01*
X89000000Y-61752380D01*
X89619047Y-61752380D01*
X90047619Y-61657142D02*
X90095238Y-61704761D01*
X90047619Y-61752380D01*
X90000000Y-61704761D01*
X90047619Y-61657142D01*
X90047619Y-61752380D01*
X90476190Y-60847619D02*
X90523809Y-60800000D01*
X90619047Y-60752380D01*
X90857142Y-60752380D01*
X90952380Y-60800000D01*
X91000000Y-60847619D01*
X91047619Y-60942857D01*
X91047619Y-61038095D01*
X91000000Y-61180952D01*
X90428571Y-61752380D01*
X91047619Y-61752380D01*
X91904761Y-61085714D02*
X91904761Y-61752380D01*
X91476190Y-61085714D02*
X91476190Y-61609523D01*
X91523809Y-61704761D01*
X91619047Y-61752380D01*
X91761904Y-61752380D01*
X91857142Y-61704761D01*
X91904761Y-61657142D01*
G04 #@! TO.C,RP1*
X43181904Y-51563333D02*
X42800952Y-51830000D01*
X43181904Y-52020476D02*
X42381904Y-52020476D01*
X42381904Y-51715714D01*
X42420000Y-51639523D01*
X42458095Y-51601428D01*
X42534285Y-51563333D01*
X42648571Y-51563333D01*
X42724761Y-51601428D01*
X42762857Y-51639523D01*
X42800952Y-51715714D01*
X42800952Y-52020476D01*
X43181904Y-51220476D02*
X42381904Y-51220476D01*
X42381904Y-50915714D01*
X42420000Y-50839523D01*
X42458095Y-50801428D01*
X42534285Y-50763333D01*
X42648571Y-50763333D01*
X42724761Y-50801428D01*
X42762857Y-50839523D01*
X42800952Y-50915714D01*
X42800952Y-51220476D01*
X43181904Y-50001428D02*
X43181904Y-50458571D01*
X43181904Y-50230000D02*
X42381904Y-50230000D01*
X42496190Y-50306190D01*
X42572380Y-50382380D01*
X42610476Y-50458571D01*
G04 #@! TO.C,RP20*
X88901904Y-51944285D02*
X88520952Y-52210952D01*
X88901904Y-52401428D02*
X88101904Y-52401428D01*
X88101904Y-52096666D01*
X88140000Y-52020476D01*
X88178095Y-51982380D01*
X88254285Y-51944285D01*
X88368571Y-51944285D01*
X88444761Y-51982380D01*
X88482857Y-52020476D01*
X88520952Y-52096666D01*
X88520952Y-52401428D01*
X88901904Y-51601428D02*
X88101904Y-51601428D01*
X88101904Y-51296666D01*
X88140000Y-51220476D01*
X88178095Y-51182380D01*
X88254285Y-51144285D01*
X88368571Y-51144285D01*
X88444761Y-51182380D01*
X88482857Y-51220476D01*
X88520952Y-51296666D01*
X88520952Y-51601428D01*
X88178095Y-50839523D02*
X88140000Y-50801428D01*
X88101904Y-50725238D01*
X88101904Y-50534761D01*
X88140000Y-50458571D01*
X88178095Y-50420476D01*
X88254285Y-50382380D01*
X88330476Y-50382380D01*
X88444761Y-50420476D01*
X88901904Y-50877619D01*
X88901904Y-50382380D01*
X88101904Y-49887142D02*
X88101904Y-49810952D01*
X88140000Y-49734761D01*
X88178095Y-49696666D01*
X88254285Y-49658571D01*
X88406666Y-49620476D01*
X88597142Y-49620476D01*
X88749523Y-49658571D01*
X88825714Y-49696666D01*
X88863809Y-49734761D01*
X88901904Y-49810952D01*
X88901904Y-49887142D01*
X88863809Y-49963333D01*
X88825714Y-50001428D01*
X88749523Y-50039523D01*
X88597142Y-50077619D01*
X88406666Y-50077619D01*
X88254285Y-50039523D01*
X88178095Y-50001428D01*
X88140000Y-49963333D01*
X88101904Y-49887142D01*
G04 #@! TO.C,LP7*
X81281904Y-74423333D02*
X81281904Y-74804285D01*
X80481904Y-74804285D01*
X81281904Y-74156666D02*
X80481904Y-74156666D01*
X80481904Y-73851904D01*
X80520000Y-73775714D01*
X80558095Y-73737619D01*
X80634285Y-73699523D01*
X80748571Y-73699523D01*
X80824761Y-73737619D01*
X80862857Y-73775714D01*
X80900952Y-73851904D01*
X80900952Y-74156666D01*
X80481904Y-73432857D02*
X80481904Y-72899523D01*
X81281904Y-73242380D01*
G04 #@! TO.C,LP1*
X43181904Y-74423333D02*
X43181904Y-74804285D01*
X42381904Y-74804285D01*
X43181904Y-74156666D02*
X42381904Y-74156666D01*
X42381904Y-73851904D01*
X42420000Y-73775714D01*
X42458095Y-73737619D01*
X42534285Y-73699523D01*
X42648571Y-73699523D01*
X42724761Y-73737619D01*
X42762857Y-73775714D01*
X42800952Y-73851904D01*
X42800952Y-74156666D01*
X43181904Y-72937619D02*
X43181904Y-73394761D01*
X43181904Y-73166190D02*
X42381904Y-73166190D01*
X42496190Y-73242380D01*
X42572380Y-73318571D01*
X42610476Y-73394761D01*
G04 #@! TO.C,LP13*
X83821904Y-51944285D02*
X83821904Y-52325238D01*
X83021904Y-52325238D01*
X83821904Y-51677619D02*
X83021904Y-51677619D01*
X83021904Y-51372857D01*
X83060000Y-51296666D01*
X83098095Y-51258571D01*
X83174285Y-51220476D01*
X83288571Y-51220476D01*
X83364761Y-51258571D01*
X83402857Y-51296666D01*
X83440952Y-51372857D01*
X83440952Y-51677619D01*
X83821904Y-50458571D02*
X83821904Y-50915714D01*
X83821904Y-50687142D02*
X83021904Y-50687142D01*
X83136190Y-50763333D01*
X83212380Y-50839523D01*
X83250476Y-50915714D01*
X83021904Y-50191904D02*
X83021904Y-49696666D01*
X83326666Y-49963333D01*
X83326666Y-49849047D01*
X83364761Y-49772857D01*
X83402857Y-49734761D01*
X83479047Y-49696666D01*
X83669523Y-49696666D01*
X83745714Y-49734761D01*
X83783809Y-49772857D01*
X83821904Y-49849047D01*
X83821904Y-50077619D01*
X83783809Y-50153809D01*
X83745714Y-50191904D01*
G04 #@! TO.C,LP14*
X40641904Y-74804285D02*
X40641904Y-75185238D01*
X39841904Y-75185238D01*
X40641904Y-74537619D02*
X39841904Y-74537619D01*
X39841904Y-74232857D01*
X39880000Y-74156666D01*
X39918095Y-74118571D01*
X39994285Y-74080476D01*
X40108571Y-74080476D01*
X40184761Y-74118571D01*
X40222857Y-74156666D01*
X40260952Y-74232857D01*
X40260952Y-74537619D01*
X40641904Y-73318571D02*
X40641904Y-73775714D01*
X40641904Y-73547142D02*
X39841904Y-73547142D01*
X39956190Y-73623333D01*
X40032380Y-73699523D01*
X40070476Y-73775714D01*
X40108571Y-72632857D02*
X40641904Y-72632857D01*
X39803809Y-72823333D02*
X40375238Y-73013809D01*
X40375238Y-72518571D01*
G04 #@! TO.C,LP15*
X83821904Y-74804285D02*
X83821904Y-75185238D01*
X83021904Y-75185238D01*
X83821904Y-74537619D02*
X83021904Y-74537619D01*
X83021904Y-74232857D01*
X83060000Y-74156666D01*
X83098095Y-74118571D01*
X83174285Y-74080476D01*
X83288571Y-74080476D01*
X83364761Y-74118571D01*
X83402857Y-74156666D01*
X83440952Y-74232857D01*
X83440952Y-74537619D01*
X83821904Y-73318571D02*
X83821904Y-73775714D01*
X83821904Y-73547142D02*
X83021904Y-73547142D01*
X83136190Y-73623333D01*
X83212380Y-73699523D01*
X83250476Y-73775714D01*
X83021904Y-72594761D02*
X83021904Y-72975714D01*
X83402857Y-73013809D01*
X83364761Y-72975714D01*
X83326666Y-72899523D01*
X83326666Y-72709047D01*
X83364761Y-72632857D01*
X83402857Y-72594761D01*
X83479047Y-72556666D01*
X83669523Y-72556666D01*
X83745714Y-72594761D01*
X83783809Y-72632857D01*
X83821904Y-72709047D01*
X83821904Y-72899523D01*
X83783809Y-72975714D01*
X83745714Y-73013809D01*
G04 #@! TO.C,LP16*
X86361904Y-74804285D02*
X86361904Y-75185238D01*
X85561904Y-75185238D01*
X86361904Y-74537619D02*
X85561904Y-74537619D01*
X85561904Y-74232857D01*
X85600000Y-74156666D01*
X85638095Y-74118571D01*
X85714285Y-74080476D01*
X85828571Y-74080476D01*
X85904761Y-74118571D01*
X85942857Y-74156666D01*
X85980952Y-74232857D01*
X85980952Y-74537619D01*
X86361904Y-73318571D02*
X86361904Y-73775714D01*
X86361904Y-73547142D02*
X85561904Y-73547142D01*
X85676190Y-73623333D01*
X85752380Y-73699523D01*
X85790476Y-73775714D01*
X85561904Y-72632857D02*
X85561904Y-72785238D01*
X85600000Y-72861428D01*
X85638095Y-72899523D01*
X85752380Y-72975714D01*
X85904761Y-73013809D01*
X86209523Y-73013809D01*
X86285714Y-72975714D01*
X86323809Y-72937619D01*
X86361904Y-72861428D01*
X86361904Y-72709047D01*
X86323809Y-72632857D01*
X86285714Y-72594761D01*
X86209523Y-72556666D01*
X86019047Y-72556666D01*
X85942857Y-72594761D01*
X85904761Y-72632857D01*
X85866666Y-72709047D01*
X85866666Y-72861428D01*
X85904761Y-72937619D01*
X85942857Y-72975714D01*
X86019047Y-73013809D01*
G04 #@! TO.C,LP17*
X71121904Y-74804285D02*
X71121904Y-75185238D01*
X70321904Y-75185238D01*
X71121904Y-74537619D02*
X70321904Y-74537619D01*
X70321904Y-74232857D01*
X70360000Y-74156666D01*
X70398095Y-74118571D01*
X70474285Y-74080476D01*
X70588571Y-74080476D01*
X70664761Y-74118571D01*
X70702857Y-74156666D01*
X70740952Y-74232857D01*
X70740952Y-74537619D01*
X71121904Y-73318571D02*
X71121904Y-73775714D01*
X71121904Y-73547142D02*
X70321904Y-73547142D01*
X70436190Y-73623333D01*
X70512380Y-73699523D01*
X70550476Y-73775714D01*
X70321904Y-73051904D02*
X70321904Y-72518571D01*
X71121904Y-72861428D01*
G04 #@! TO.C,LP18*
X78741904Y-74804285D02*
X78741904Y-75185238D01*
X77941904Y-75185238D01*
X78741904Y-74537619D02*
X77941904Y-74537619D01*
X77941904Y-74232857D01*
X77980000Y-74156666D01*
X78018095Y-74118571D01*
X78094285Y-74080476D01*
X78208571Y-74080476D01*
X78284761Y-74118571D01*
X78322857Y-74156666D01*
X78360952Y-74232857D01*
X78360952Y-74537619D01*
X78741904Y-73318571D02*
X78741904Y-73775714D01*
X78741904Y-73547142D02*
X77941904Y-73547142D01*
X78056190Y-73623333D01*
X78132380Y-73699523D01*
X78170476Y-73775714D01*
X78284761Y-72861428D02*
X78246666Y-72937619D01*
X78208571Y-72975714D01*
X78132380Y-73013809D01*
X78094285Y-73013809D01*
X78018095Y-72975714D01*
X77980000Y-72937619D01*
X77941904Y-72861428D01*
X77941904Y-72709047D01*
X77980000Y-72632857D01*
X78018095Y-72594761D01*
X78094285Y-72556666D01*
X78132380Y-72556666D01*
X78208571Y-72594761D01*
X78246666Y-72632857D01*
X78284761Y-72709047D01*
X78284761Y-72861428D01*
X78322857Y-72937619D01*
X78360952Y-72975714D01*
X78437142Y-73013809D01*
X78589523Y-73013809D01*
X78665714Y-72975714D01*
X78703809Y-72937619D01*
X78741904Y-72861428D01*
X78741904Y-72709047D01*
X78703809Y-72632857D01*
X78665714Y-72594761D01*
X78589523Y-72556666D01*
X78437142Y-72556666D01*
X78360952Y-72594761D01*
X78322857Y-72632857D01*
X78284761Y-72709047D01*
G04 #@! TO.C,RP12*
X71121904Y-51944285D02*
X70740952Y-52210952D01*
X71121904Y-52401428D02*
X70321904Y-52401428D01*
X70321904Y-52096666D01*
X70360000Y-52020476D01*
X70398095Y-51982380D01*
X70474285Y-51944285D01*
X70588571Y-51944285D01*
X70664761Y-51982380D01*
X70702857Y-52020476D01*
X70740952Y-52096666D01*
X70740952Y-52401428D01*
X71121904Y-51601428D02*
X70321904Y-51601428D01*
X70321904Y-51296666D01*
X70360000Y-51220476D01*
X70398095Y-51182380D01*
X70474285Y-51144285D01*
X70588571Y-51144285D01*
X70664761Y-51182380D01*
X70702857Y-51220476D01*
X70740952Y-51296666D01*
X70740952Y-51601428D01*
X71121904Y-50382380D02*
X71121904Y-50839523D01*
X71121904Y-50610952D02*
X70321904Y-50610952D01*
X70436190Y-50687142D01*
X70512380Y-50763333D01*
X70550476Y-50839523D01*
X70398095Y-50077619D02*
X70360000Y-50039523D01*
X70321904Y-49963333D01*
X70321904Y-49772857D01*
X70360000Y-49696666D01*
X70398095Y-49658571D01*
X70474285Y-49620476D01*
X70550476Y-49620476D01*
X70664761Y-49658571D01*
X71121904Y-50115714D01*
X71121904Y-49620476D01*
G04 #@! TO.C,RP13*
X73661904Y-51944285D02*
X73280952Y-52210952D01*
X73661904Y-52401428D02*
X72861904Y-52401428D01*
X72861904Y-52096666D01*
X72900000Y-52020476D01*
X72938095Y-51982380D01*
X73014285Y-51944285D01*
X73128571Y-51944285D01*
X73204761Y-51982380D01*
X73242857Y-52020476D01*
X73280952Y-52096666D01*
X73280952Y-52401428D01*
X73661904Y-51601428D02*
X72861904Y-51601428D01*
X72861904Y-51296666D01*
X72900000Y-51220476D01*
X72938095Y-51182380D01*
X73014285Y-51144285D01*
X73128571Y-51144285D01*
X73204761Y-51182380D01*
X73242857Y-51220476D01*
X73280952Y-51296666D01*
X73280952Y-51601428D01*
X73661904Y-50382380D02*
X73661904Y-50839523D01*
X73661904Y-50610952D02*
X72861904Y-50610952D01*
X72976190Y-50687142D01*
X73052380Y-50763333D01*
X73090476Y-50839523D01*
X72861904Y-50115714D02*
X72861904Y-49620476D01*
X73166666Y-49887142D01*
X73166666Y-49772857D01*
X73204761Y-49696666D01*
X73242857Y-49658571D01*
X73319047Y-49620476D01*
X73509523Y-49620476D01*
X73585714Y-49658571D01*
X73623809Y-49696666D01*
X73661904Y-49772857D01*
X73661904Y-50001428D01*
X73623809Y-50077619D01*
X73585714Y-50115714D01*
G04 #@! TO.C,RP14*
X76201904Y-51944285D02*
X75820952Y-52210952D01*
X76201904Y-52401428D02*
X75401904Y-52401428D01*
X75401904Y-52096666D01*
X75440000Y-52020476D01*
X75478095Y-51982380D01*
X75554285Y-51944285D01*
X75668571Y-51944285D01*
X75744761Y-51982380D01*
X75782857Y-52020476D01*
X75820952Y-52096666D01*
X75820952Y-52401428D01*
X76201904Y-51601428D02*
X75401904Y-51601428D01*
X75401904Y-51296666D01*
X75440000Y-51220476D01*
X75478095Y-51182380D01*
X75554285Y-51144285D01*
X75668571Y-51144285D01*
X75744761Y-51182380D01*
X75782857Y-51220476D01*
X75820952Y-51296666D01*
X75820952Y-51601428D01*
X76201904Y-50382380D02*
X76201904Y-50839523D01*
X76201904Y-50610952D02*
X75401904Y-50610952D01*
X75516190Y-50687142D01*
X75592380Y-50763333D01*
X75630476Y-50839523D01*
X75668571Y-49696666D02*
X76201904Y-49696666D01*
X75363809Y-49887142D02*
X75935238Y-50077619D01*
X75935238Y-49582380D01*
G04 #@! TO.C,RP15*
X78741904Y-51944285D02*
X78360952Y-52210952D01*
X78741904Y-52401428D02*
X77941904Y-52401428D01*
X77941904Y-52096666D01*
X77980000Y-52020476D01*
X78018095Y-51982380D01*
X78094285Y-51944285D01*
X78208571Y-51944285D01*
X78284761Y-51982380D01*
X78322857Y-52020476D01*
X78360952Y-52096666D01*
X78360952Y-52401428D01*
X78741904Y-51601428D02*
X77941904Y-51601428D01*
X77941904Y-51296666D01*
X77980000Y-51220476D01*
X78018095Y-51182380D01*
X78094285Y-51144285D01*
X78208571Y-51144285D01*
X78284761Y-51182380D01*
X78322857Y-51220476D01*
X78360952Y-51296666D01*
X78360952Y-51601428D01*
X78741904Y-50382380D02*
X78741904Y-50839523D01*
X78741904Y-50610952D02*
X77941904Y-50610952D01*
X78056190Y-50687142D01*
X78132380Y-50763333D01*
X78170476Y-50839523D01*
X77941904Y-49658571D02*
X77941904Y-50039523D01*
X78322857Y-50077619D01*
X78284761Y-50039523D01*
X78246666Y-49963333D01*
X78246666Y-49772857D01*
X78284761Y-49696666D01*
X78322857Y-49658571D01*
X78399047Y-49620476D01*
X78589523Y-49620476D01*
X78665714Y-49658571D01*
X78703809Y-49696666D01*
X78741904Y-49772857D01*
X78741904Y-49963333D01*
X78703809Y-50039523D01*
X78665714Y-50077619D01*
G04 #@! TO.C,RP16*
X81281904Y-51944285D02*
X80900952Y-52210952D01*
X81281904Y-52401428D02*
X80481904Y-52401428D01*
X80481904Y-52096666D01*
X80520000Y-52020476D01*
X80558095Y-51982380D01*
X80634285Y-51944285D01*
X80748571Y-51944285D01*
X80824761Y-51982380D01*
X80862857Y-52020476D01*
X80900952Y-52096666D01*
X80900952Y-52401428D01*
X81281904Y-51601428D02*
X80481904Y-51601428D01*
X80481904Y-51296666D01*
X80520000Y-51220476D01*
X80558095Y-51182380D01*
X80634285Y-51144285D01*
X80748571Y-51144285D01*
X80824761Y-51182380D01*
X80862857Y-51220476D01*
X80900952Y-51296666D01*
X80900952Y-51601428D01*
X81281904Y-50382380D02*
X81281904Y-50839523D01*
X81281904Y-50610952D02*
X80481904Y-50610952D01*
X80596190Y-50687142D01*
X80672380Y-50763333D01*
X80710476Y-50839523D01*
X80481904Y-49696666D02*
X80481904Y-49849047D01*
X80520000Y-49925238D01*
X80558095Y-49963333D01*
X80672380Y-50039523D01*
X80824761Y-50077619D01*
X81129523Y-50077619D01*
X81205714Y-50039523D01*
X81243809Y-50001428D01*
X81281904Y-49925238D01*
X81281904Y-49772857D01*
X81243809Y-49696666D01*
X81205714Y-49658571D01*
X81129523Y-49620476D01*
X80939047Y-49620476D01*
X80862857Y-49658571D01*
X80824761Y-49696666D01*
X80786666Y-49772857D01*
X80786666Y-49925238D01*
X80824761Y-50001428D01*
X80862857Y-50039523D01*
X80939047Y-50077619D01*
G04 #@! TO.C,RP17*
X86361904Y-51944285D02*
X85980952Y-52210952D01*
X86361904Y-52401428D02*
X85561904Y-52401428D01*
X85561904Y-52096666D01*
X85600000Y-52020476D01*
X85638095Y-51982380D01*
X85714285Y-51944285D01*
X85828571Y-51944285D01*
X85904761Y-51982380D01*
X85942857Y-52020476D01*
X85980952Y-52096666D01*
X85980952Y-52401428D01*
X86361904Y-51601428D02*
X85561904Y-51601428D01*
X85561904Y-51296666D01*
X85600000Y-51220476D01*
X85638095Y-51182380D01*
X85714285Y-51144285D01*
X85828571Y-51144285D01*
X85904761Y-51182380D01*
X85942857Y-51220476D01*
X85980952Y-51296666D01*
X85980952Y-51601428D01*
X86361904Y-50382380D02*
X86361904Y-50839523D01*
X86361904Y-50610952D02*
X85561904Y-50610952D01*
X85676190Y-50687142D01*
X85752380Y-50763333D01*
X85790476Y-50839523D01*
X85561904Y-50115714D02*
X85561904Y-49582380D01*
X86361904Y-49925238D01*
G04 #@! TO.C,LP10*
X58421904Y-74804285D02*
X58421904Y-75185238D01*
X57621904Y-75185238D01*
X58421904Y-74537619D02*
X57621904Y-74537619D01*
X57621904Y-74232857D01*
X57660000Y-74156666D01*
X57698095Y-74118571D01*
X57774285Y-74080476D01*
X57888571Y-74080476D01*
X57964761Y-74118571D01*
X58002857Y-74156666D01*
X58040952Y-74232857D01*
X58040952Y-74537619D01*
X58421904Y-73318571D02*
X58421904Y-73775714D01*
X58421904Y-73547142D02*
X57621904Y-73547142D01*
X57736190Y-73623333D01*
X57812380Y-73699523D01*
X57850476Y-73775714D01*
X57621904Y-72823333D02*
X57621904Y-72747142D01*
X57660000Y-72670952D01*
X57698095Y-72632857D01*
X57774285Y-72594761D01*
X57926666Y-72556666D01*
X58117142Y-72556666D01*
X58269523Y-72594761D01*
X58345714Y-72632857D01*
X58383809Y-72670952D01*
X58421904Y-72747142D01*
X58421904Y-72823333D01*
X58383809Y-72899523D01*
X58345714Y-72937619D01*
X58269523Y-72975714D01*
X58117142Y-73013809D01*
X57926666Y-73013809D01*
X57774285Y-72975714D01*
X57698095Y-72937619D01*
X57660000Y-72899523D01*
X57621904Y-72823333D01*
G04 #@! TO.C,LP11*
X60961904Y-74804285D02*
X60961904Y-75185238D01*
X60161904Y-75185238D01*
X60961904Y-74537619D02*
X60161904Y-74537619D01*
X60161904Y-74232857D01*
X60200000Y-74156666D01*
X60238095Y-74118571D01*
X60314285Y-74080476D01*
X60428571Y-74080476D01*
X60504761Y-74118571D01*
X60542857Y-74156666D01*
X60580952Y-74232857D01*
X60580952Y-74537619D01*
X60961904Y-73318571D02*
X60961904Y-73775714D01*
X60961904Y-73547142D02*
X60161904Y-73547142D01*
X60276190Y-73623333D01*
X60352380Y-73699523D01*
X60390476Y-73775714D01*
X60961904Y-72556666D02*
X60961904Y-73013809D01*
X60961904Y-72785238D02*
X60161904Y-72785238D01*
X60276190Y-72861428D01*
X60352380Y-72937619D01*
X60390476Y-73013809D01*
G04 #@! TO.C,RP2*
X45721904Y-51563333D02*
X45340952Y-51830000D01*
X45721904Y-52020476D02*
X44921904Y-52020476D01*
X44921904Y-51715714D01*
X44960000Y-51639523D01*
X44998095Y-51601428D01*
X45074285Y-51563333D01*
X45188571Y-51563333D01*
X45264761Y-51601428D01*
X45302857Y-51639523D01*
X45340952Y-51715714D01*
X45340952Y-52020476D01*
X45721904Y-51220476D02*
X44921904Y-51220476D01*
X44921904Y-50915714D01*
X44960000Y-50839523D01*
X44998095Y-50801428D01*
X45074285Y-50763333D01*
X45188571Y-50763333D01*
X45264761Y-50801428D01*
X45302857Y-50839523D01*
X45340952Y-50915714D01*
X45340952Y-51220476D01*
X44998095Y-50458571D02*
X44960000Y-50420476D01*
X44921904Y-50344285D01*
X44921904Y-50153809D01*
X44960000Y-50077619D01*
X44998095Y-50039523D01*
X45074285Y-50001428D01*
X45150476Y-50001428D01*
X45264761Y-50039523D01*
X45721904Y-50496666D01*
X45721904Y-50001428D01*
G04 #@! TO.C,RP4*
X50801904Y-51563333D02*
X50420952Y-51830000D01*
X50801904Y-52020476D02*
X50001904Y-52020476D01*
X50001904Y-51715714D01*
X50040000Y-51639523D01*
X50078095Y-51601428D01*
X50154285Y-51563333D01*
X50268571Y-51563333D01*
X50344761Y-51601428D01*
X50382857Y-51639523D01*
X50420952Y-51715714D01*
X50420952Y-52020476D01*
X50801904Y-51220476D02*
X50001904Y-51220476D01*
X50001904Y-50915714D01*
X50040000Y-50839523D01*
X50078095Y-50801428D01*
X50154285Y-50763333D01*
X50268571Y-50763333D01*
X50344761Y-50801428D01*
X50382857Y-50839523D01*
X50420952Y-50915714D01*
X50420952Y-51220476D01*
X50268571Y-50077619D02*
X50801904Y-50077619D01*
X49963809Y-50268095D02*
X50535238Y-50458571D01*
X50535238Y-49963333D01*
G04 #@! TO.C,RP5*
X53341904Y-51563333D02*
X52960952Y-51830000D01*
X53341904Y-52020476D02*
X52541904Y-52020476D01*
X52541904Y-51715714D01*
X52580000Y-51639523D01*
X52618095Y-51601428D01*
X52694285Y-51563333D01*
X52808571Y-51563333D01*
X52884761Y-51601428D01*
X52922857Y-51639523D01*
X52960952Y-51715714D01*
X52960952Y-52020476D01*
X53341904Y-51220476D02*
X52541904Y-51220476D01*
X52541904Y-50915714D01*
X52580000Y-50839523D01*
X52618095Y-50801428D01*
X52694285Y-50763333D01*
X52808571Y-50763333D01*
X52884761Y-50801428D01*
X52922857Y-50839523D01*
X52960952Y-50915714D01*
X52960952Y-51220476D01*
X52541904Y-50039523D02*
X52541904Y-50420476D01*
X52922857Y-50458571D01*
X52884761Y-50420476D01*
X52846666Y-50344285D01*
X52846666Y-50153809D01*
X52884761Y-50077619D01*
X52922857Y-50039523D01*
X52999047Y-50001428D01*
X53189523Y-50001428D01*
X53265714Y-50039523D01*
X53303809Y-50077619D01*
X53341904Y-50153809D01*
X53341904Y-50344285D01*
X53303809Y-50420476D01*
X53265714Y-50458571D01*
G04 #@! TO.C,RP6*
X55881904Y-51563333D02*
X55500952Y-51830000D01*
X55881904Y-52020476D02*
X55081904Y-52020476D01*
X55081904Y-51715714D01*
X55120000Y-51639523D01*
X55158095Y-51601428D01*
X55234285Y-51563333D01*
X55348571Y-51563333D01*
X55424761Y-51601428D01*
X55462857Y-51639523D01*
X55500952Y-51715714D01*
X55500952Y-52020476D01*
X55881904Y-51220476D02*
X55081904Y-51220476D01*
X55081904Y-50915714D01*
X55120000Y-50839523D01*
X55158095Y-50801428D01*
X55234285Y-50763333D01*
X55348571Y-50763333D01*
X55424761Y-50801428D01*
X55462857Y-50839523D01*
X55500952Y-50915714D01*
X55500952Y-51220476D01*
X55081904Y-50077619D02*
X55081904Y-50230000D01*
X55120000Y-50306190D01*
X55158095Y-50344285D01*
X55272380Y-50420476D01*
X55424761Y-50458571D01*
X55729523Y-50458571D01*
X55805714Y-50420476D01*
X55843809Y-50382380D01*
X55881904Y-50306190D01*
X55881904Y-50153809D01*
X55843809Y-50077619D01*
X55805714Y-50039523D01*
X55729523Y-50001428D01*
X55539047Y-50001428D01*
X55462857Y-50039523D01*
X55424761Y-50077619D01*
X55386666Y-50153809D01*
X55386666Y-50306190D01*
X55424761Y-50382380D01*
X55462857Y-50420476D01*
X55539047Y-50458571D01*
G04 #@! TO.C,RP7*
X58471904Y-51563333D02*
X58090952Y-51830000D01*
X58471904Y-52020476D02*
X57671904Y-52020476D01*
X57671904Y-51715714D01*
X57710000Y-51639523D01*
X57748095Y-51601428D01*
X57824285Y-51563333D01*
X57938571Y-51563333D01*
X58014761Y-51601428D01*
X58052857Y-51639523D01*
X58090952Y-51715714D01*
X58090952Y-52020476D01*
X58471904Y-51220476D02*
X57671904Y-51220476D01*
X57671904Y-50915714D01*
X57710000Y-50839523D01*
X57748095Y-50801428D01*
X57824285Y-50763333D01*
X57938571Y-50763333D01*
X58014761Y-50801428D01*
X58052857Y-50839523D01*
X58090952Y-50915714D01*
X58090952Y-51220476D01*
X57671904Y-50496666D02*
X57671904Y-49963333D01*
X58471904Y-50306190D01*
G04 #@! TO.C,RP8*
X60961904Y-51563333D02*
X60580952Y-51830000D01*
X60961904Y-52020476D02*
X60161904Y-52020476D01*
X60161904Y-51715714D01*
X60200000Y-51639523D01*
X60238095Y-51601428D01*
X60314285Y-51563333D01*
X60428571Y-51563333D01*
X60504761Y-51601428D01*
X60542857Y-51639523D01*
X60580952Y-51715714D01*
X60580952Y-52020476D01*
X60961904Y-51220476D02*
X60161904Y-51220476D01*
X60161904Y-50915714D01*
X60200000Y-50839523D01*
X60238095Y-50801428D01*
X60314285Y-50763333D01*
X60428571Y-50763333D01*
X60504761Y-50801428D01*
X60542857Y-50839523D01*
X60580952Y-50915714D01*
X60580952Y-51220476D01*
X60504761Y-50306190D02*
X60466666Y-50382380D01*
X60428571Y-50420476D01*
X60352380Y-50458571D01*
X60314285Y-50458571D01*
X60238095Y-50420476D01*
X60200000Y-50382380D01*
X60161904Y-50306190D01*
X60161904Y-50153809D01*
X60200000Y-50077619D01*
X60238095Y-50039523D01*
X60314285Y-50001428D01*
X60352380Y-50001428D01*
X60428571Y-50039523D01*
X60466666Y-50077619D01*
X60504761Y-50153809D01*
X60504761Y-50306190D01*
X60542857Y-50382380D01*
X60580952Y-50420476D01*
X60657142Y-50458571D01*
X60809523Y-50458571D01*
X60885714Y-50420476D01*
X60923809Y-50382380D01*
X60961904Y-50306190D01*
X60961904Y-50153809D01*
X60923809Y-50077619D01*
X60885714Y-50039523D01*
X60809523Y-50001428D01*
X60657142Y-50001428D01*
X60580952Y-50039523D01*
X60542857Y-50077619D01*
X60504761Y-50153809D01*
G04 #@! TO.C,RP9*
X63501904Y-51563333D02*
X63120952Y-51830000D01*
X63501904Y-52020476D02*
X62701904Y-52020476D01*
X62701904Y-51715714D01*
X62740000Y-51639523D01*
X62778095Y-51601428D01*
X62854285Y-51563333D01*
X62968571Y-51563333D01*
X63044761Y-51601428D01*
X63082857Y-51639523D01*
X63120952Y-51715714D01*
X63120952Y-52020476D01*
X63501904Y-51220476D02*
X62701904Y-51220476D01*
X62701904Y-50915714D01*
X62740000Y-50839523D01*
X62778095Y-50801428D01*
X62854285Y-50763333D01*
X62968571Y-50763333D01*
X63044761Y-50801428D01*
X63082857Y-50839523D01*
X63120952Y-50915714D01*
X63120952Y-51220476D01*
X63501904Y-50382380D02*
X63501904Y-50230000D01*
X63463809Y-50153809D01*
X63425714Y-50115714D01*
X63311428Y-50039523D01*
X63159047Y-50001428D01*
X62854285Y-50001428D01*
X62778095Y-50039523D01*
X62740000Y-50077619D01*
X62701904Y-50153809D01*
X62701904Y-50306190D01*
X62740000Y-50382380D01*
X62778095Y-50420476D01*
X62854285Y-50458571D01*
X63044761Y-50458571D01*
X63120952Y-50420476D01*
X63159047Y-50382380D01*
X63197142Y-50306190D01*
X63197142Y-50153809D01*
X63159047Y-50077619D01*
X63120952Y-50039523D01*
X63044761Y-50001428D01*
G04 #@! TO.C,RP10*
X66041904Y-51944285D02*
X65660952Y-52210952D01*
X66041904Y-52401428D02*
X65241904Y-52401428D01*
X65241904Y-52096666D01*
X65280000Y-52020476D01*
X65318095Y-51982380D01*
X65394285Y-51944285D01*
X65508571Y-51944285D01*
X65584761Y-51982380D01*
X65622857Y-52020476D01*
X65660952Y-52096666D01*
X65660952Y-52401428D01*
X66041904Y-51601428D02*
X65241904Y-51601428D01*
X65241904Y-51296666D01*
X65280000Y-51220476D01*
X65318095Y-51182380D01*
X65394285Y-51144285D01*
X65508571Y-51144285D01*
X65584761Y-51182380D01*
X65622857Y-51220476D01*
X65660952Y-51296666D01*
X65660952Y-51601428D01*
X66041904Y-50382380D02*
X66041904Y-50839523D01*
X66041904Y-50610952D02*
X65241904Y-50610952D01*
X65356190Y-50687142D01*
X65432380Y-50763333D01*
X65470476Y-50839523D01*
X65241904Y-49887142D02*
X65241904Y-49810952D01*
X65280000Y-49734761D01*
X65318095Y-49696666D01*
X65394285Y-49658571D01*
X65546666Y-49620476D01*
X65737142Y-49620476D01*
X65889523Y-49658571D01*
X65965714Y-49696666D01*
X66003809Y-49734761D01*
X66041904Y-49810952D01*
X66041904Y-49887142D01*
X66003809Y-49963333D01*
X65965714Y-50001428D01*
X65889523Y-50039523D01*
X65737142Y-50077619D01*
X65546666Y-50077619D01*
X65394285Y-50039523D01*
X65318095Y-50001428D01*
X65280000Y-49963333D01*
X65241904Y-49887142D01*
G04 #@! TO.C,RP11*
X68581904Y-51944285D02*
X68200952Y-52210952D01*
X68581904Y-52401428D02*
X67781904Y-52401428D01*
X67781904Y-52096666D01*
X67820000Y-52020476D01*
X67858095Y-51982380D01*
X67934285Y-51944285D01*
X68048571Y-51944285D01*
X68124761Y-51982380D01*
X68162857Y-52020476D01*
X68200952Y-52096666D01*
X68200952Y-52401428D01*
X68581904Y-51601428D02*
X67781904Y-51601428D01*
X67781904Y-51296666D01*
X67820000Y-51220476D01*
X67858095Y-51182380D01*
X67934285Y-51144285D01*
X68048571Y-51144285D01*
X68124761Y-51182380D01*
X68162857Y-51220476D01*
X68200952Y-51296666D01*
X68200952Y-51601428D01*
X68581904Y-50382380D02*
X68581904Y-50839523D01*
X68581904Y-50610952D02*
X67781904Y-50610952D01*
X67896190Y-50687142D01*
X67972380Y-50763333D01*
X68010476Y-50839523D01*
X68581904Y-49620476D02*
X68581904Y-50077619D01*
X68581904Y-49849047D02*
X67781904Y-49849047D01*
X67896190Y-49925238D01*
X67972380Y-50001428D01*
X68010476Y-50077619D01*
G04 #@! TO.C,LP12*
X73661904Y-74804285D02*
X73661904Y-75185238D01*
X72861904Y-75185238D01*
X73661904Y-74537619D02*
X72861904Y-74537619D01*
X72861904Y-74232857D01*
X72900000Y-74156666D01*
X72938095Y-74118571D01*
X73014285Y-74080476D01*
X73128571Y-74080476D01*
X73204761Y-74118571D01*
X73242857Y-74156666D01*
X73280952Y-74232857D01*
X73280952Y-74537619D01*
X73661904Y-73318571D02*
X73661904Y-73775714D01*
X73661904Y-73547142D02*
X72861904Y-73547142D01*
X72976190Y-73623333D01*
X73052380Y-73699523D01*
X73090476Y-73775714D01*
X72938095Y-73013809D02*
X72900000Y-72975714D01*
X72861904Y-72899523D01*
X72861904Y-72709047D01*
X72900000Y-72632857D01*
X72938095Y-72594761D01*
X73014285Y-72556666D01*
X73090476Y-72556666D01*
X73204761Y-72594761D01*
X73661904Y-73051904D01*
X73661904Y-72556666D01*
G04 #@! TO.C,U1000*
X62485714Y-57492857D02*
X62085714Y-56921428D01*
X61800000Y-57492857D02*
X61800000Y-56292857D01*
X62257142Y-56292857D01*
X62371428Y-56350000D01*
X62428571Y-56407142D01*
X62485714Y-56521428D01*
X62485714Y-56692857D01*
X62428571Y-56807142D01*
X62371428Y-56864285D01*
X62257142Y-56921428D01*
X61800000Y-56921428D01*
X63000000Y-57492857D02*
X63000000Y-56292857D01*
X63685714Y-57492857D02*
X63171428Y-56807142D01*
X63685714Y-56292857D02*
X63000000Y-56978571D01*
X64085714Y-56292857D02*
X64828571Y-56292857D01*
X64428571Y-56750000D01*
X64600000Y-56750000D01*
X64714285Y-56807142D01*
X64771428Y-56864285D01*
X64828571Y-56978571D01*
X64828571Y-57264285D01*
X64771428Y-57378571D01*
X64714285Y-57435714D01*
X64600000Y-57492857D01*
X64257142Y-57492857D01*
X64142857Y-57435714D01*
X64085714Y-57378571D01*
X65228571Y-56292857D02*
X65971428Y-56292857D01*
X65571428Y-56750000D01*
X65742857Y-56750000D01*
X65857142Y-56807142D01*
X65914285Y-56864285D01*
X65971428Y-56978571D01*
X65971428Y-57264285D01*
X65914285Y-57378571D01*
X65857142Y-57435714D01*
X65742857Y-57492857D01*
X65400000Y-57492857D01*
X65285714Y-57435714D01*
X65228571Y-57378571D01*
X66714285Y-56292857D02*
X66828571Y-56292857D01*
X66942857Y-56350000D01*
X67000000Y-56407142D01*
X67057142Y-56521428D01*
X67114285Y-56750000D01*
X67114285Y-57035714D01*
X67057142Y-57264285D01*
X67000000Y-57378571D01*
X66942857Y-57435714D01*
X66828571Y-57492857D01*
X66714285Y-57492857D01*
X66600000Y-57435714D01*
X66542857Y-57378571D01*
X66485714Y-57264285D01*
X66428571Y-57035714D01*
X66428571Y-56750000D01*
X66485714Y-56521428D01*
X66542857Y-56407142D01*
X66600000Y-56350000D01*
X66714285Y-56292857D01*
X67800000Y-56807142D02*
X67685714Y-56750000D01*
X67628571Y-56692857D01*
X67571428Y-56578571D01*
X67571428Y-56521428D01*
X67628571Y-56407142D01*
X67685714Y-56350000D01*
X67800000Y-56292857D01*
X68028571Y-56292857D01*
X68142857Y-56350000D01*
X68200000Y-56407142D01*
X68257142Y-56521428D01*
X68257142Y-56578571D01*
X68200000Y-56692857D01*
X68142857Y-56750000D01*
X68028571Y-56807142D01*
X67800000Y-56807142D01*
X67685714Y-56864285D01*
X67628571Y-56921428D01*
X67571428Y-57035714D01*
X67571428Y-57264285D01*
X67628571Y-57378571D01*
X67685714Y-57435714D01*
X67800000Y-57492857D01*
X68028571Y-57492857D01*
X68142857Y-57435714D01*
X68200000Y-57378571D01*
X68257142Y-57264285D01*
X68257142Y-57035714D01*
X68200000Y-56921428D01*
X68142857Y-56864285D01*
X68028571Y-56807142D01*
G04 #@! TO.C,U1*
X44928571Y-72992857D02*
X44928571Y-72364285D01*
X44871428Y-72250000D01*
X44757142Y-72192857D01*
X44528571Y-72192857D01*
X44414285Y-72250000D01*
X44928571Y-72935714D02*
X44814285Y-72992857D01*
X44528571Y-72992857D01*
X44414285Y-72935714D01*
X44357142Y-72821428D01*
X44357142Y-72707142D01*
X44414285Y-72592857D01*
X44528571Y-72535714D01*
X44814285Y-72535714D01*
X44928571Y-72478571D01*
X45500000Y-72192857D02*
X45500000Y-73392857D01*
X45500000Y-72250000D02*
X45614285Y-72192857D01*
X45842857Y-72192857D01*
X45957142Y-72250000D01*
X46014285Y-72307142D01*
X46071428Y-72421428D01*
X46071428Y-72764285D01*
X46014285Y-72878571D01*
X45957142Y-72935714D01*
X45842857Y-72992857D01*
X45614285Y-72992857D01*
X45500000Y-72935714D01*
X47100000Y-71792857D02*
X46871428Y-71792857D01*
X46757142Y-71850000D01*
X46700000Y-71907142D01*
X46585714Y-72078571D01*
X46528571Y-72307142D01*
X46528571Y-72764285D01*
X46585714Y-72878571D01*
X46642857Y-72935714D01*
X46757142Y-72992857D01*
X46985714Y-72992857D01*
X47100000Y-72935714D01*
X47157142Y-72878571D01*
X47214285Y-72764285D01*
X47214285Y-72478571D01*
X47157142Y-72364285D01*
X47100000Y-72307142D01*
X46985714Y-72250000D01*
X46757142Y-72250000D01*
X46642857Y-72307142D01*
X46585714Y-72364285D01*
X46528571Y-72478571D01*
X47671428Y-71907142D02*
X47728571Y-71850000D01*
X47842857Y-71792857D01*
X48128571Y-71792857D01*
X48242857Y-71850000D01*
X48300000Y-71907142D01*
X48357142Y-72021428D01*
X48357142Y-72135714D01*
X48300000Y-72307142D01*
X47614285Y-72992857D01*
X48357142Y-72992857D01*
X49442857Y-71792857D02*
X48871428Y-71792857D01*
X48814285Y-72364285D01*
X48871428Y-72307142D01*
X48985714Y-72250000D01*
X49271428Y-72250000D01*
X49385714Y-72307142D01*
X49442857Y-72364285D01*
X49500000Y-72478571D01*
X49500000Y-72764285D01*
X49442857Y-72878571D01*
X49385714Y-72935714D01*
X49271428Y-72992857D01*
X48985714Y-72992857D01*
X48871428Y-72935714D01*
X48814285Y-72878571D01*
X50585714Y-71792857D02*
X50014285Y-71792857D01*
X49957142Y-72364285D01*
X50014285Y-72307142D01*
X50128571Y-72250000D01*
X50414285Y-72250000D01*
X50528571Y-72307142D01*
X50585714Y-72364285D01*
X50642857Y-72478571D01*
X50642857Y-72764285D01*
X50585714Y-72878571D01*
X50528571Y-72935714D01*
X50414285Y-72992857D01*
X50128571Y-72992857D01*
X50014285Y-72935714D01*
X49957142Y-72878571D01*
G04 #@! TO.C,U4*
X75085714Y-73392857D02*
X75085714Y-72192857D01*
X75371428Y-72192857D01*
X75542857Y-72250000D01*
X75657142Y-72364285D01*
X75714285Y-72478571D01*
X75771428Y-72707142D01*
X75771428Y-72878571D01*
X75714285Y-73107142D01*
X75657142Y-73221428D01*
X75542857Y-73335714D01*
X75371428Y-73392857D01*
X75085714Y-73392857D01*
X76285714Y-73392857D02*
X76285714Y-72192857D01*
X76571428Y-72192857D01*
X76742857Y-72250000D01*
X76857142Y-72364285D01*
X76914285Y-72478571D01*
X76971428Y-72707142D01*
X76971428Y-72878571D01*
X76914285Y-73107142D01*
X76857142Y-73221428D01*
X76742857Y-73335714D01*
X76571428Y-73392857D01*
X76285714Y-73392857D01*
X78171428Y-73392857D02*
X77771428Y-72821428D01*
X77485714Y-73392857D02*
X77485714Y-72192857D01*
X77942857Y-72192857D01*
X78057142Y-72250000D01*
X78114285Y-72307142D01*
X78171428Y-72421428D01*
X78171428Y-72592857D01*
X78114285Y-72707142D01*
X78057142Y-72764285D01*
X77942857Y-72821428D01*
X77485714Y-72821428D01*
X78571428Y-72192857D02*
X79314285Y-72192857D01*
X78914285Y-72650000D01*
X79085714Y-72650000D01*
X79200000Y-72707142D01*
X79257142Y-72764285D01*
X79314285Y-72878571D01*
X79314285Y-73164285D01*
X79257142Y-73278571D01*
X79200000Y-73335714D01*
X79085714Y-73392857D01*
X78742857Y-73392857D01*
X78628571Y-73335714D01*
X78571428Y-73278571D01*
X79542857Y-73507142D02*
X80457142Y-73507142D01*
X81142857Y-72764285D02*
X80742857Y-72764285D01*
X80742857Y-73392857D02*
X80742857Y-72192857D01*
X81314285Y-72192857D01*
X82171428Y-72764285D02*
X82342857Y-72821428D01*
X82400000Y-72878571D01*
X82457142Y-72992857D01*
X82457142Y-73164285D01*
X82400000Y-73278571D01*
X82342857Y-73335714D01*
X82228571Y-73392857D01*
X81771428Y-73392857D01*
X81771428Y-72192857D01*
X82171428Y-72192857D01*
X82285714Y-72250000D01*
X82342857Y-72307142D01*
X82400000Y-72421428D01*
X82400000Y-72535714D01*
X82342857Y-72650000D01*
X82285714Y-72707142D01*
X82171428Y-72764285D01*
X81771428Y-72764285D01*
X83600000Y-72250000D02*
X83485714Y-72192857D01*
X83314285Y-72192857D01*
X83142857Y-72250000D01*
X83028571Y-72364285D01*
X82971428Y-72478571D01*
X82914285Y-72707142D01*
X82914285Y-72878571D01*
X82971428Y-73107142D01*
X83028571Y-73221428D01*
X83142857Y-73335714D01*
X83314285Y-73392857D01*
X83428571Y-73392857D01*
X83600000Y-73335714D01*
X83657142Y-73278571D01*
X83657142Y-72878571D01*
X83428571Y-72878571D01*
X84114285Y-73050000D02*
X84685714Y-73050000D01*
X84000000Y-73392857D02*
X84400000Y-72192857D01*
X84800000Y-73392857D01*
X85257142Y-73392857D02*
X85485714Y-73392857D01*
X85600000Y-73335714D01*
X85657142Y-73278571D01*
X85771428Y-73107142D01*
X85828571Y-72878571D01*
X85828571Y-72421428D01*
X85771428Y-72307142D01*
X85714285Y-72250000D01*
X85600000Y-72192857D01*
X85371428Y-72192857D01*
X85257142Y-72250000D01*
X85200000Y-72307142D01*
X85142857Y-72421428D01*
X85142857Y-72707142D01*
X85200000Y-72821428D01*
X85257142Y-72878571D01*
X85371428Y-72935714D01*
X85600000Y-72935714D01*
X85714285Y-72878571D01*
X85771428Y-72821428D01*
X85828571Y-72707142D01*
X86857142Y-72192857D02*
X86628571Y-72192857D01*
X86514285Y-72250000D01*
X86457142Y-72307142D01*
X86342857Y-72478571D01*
X86285714Y-72707142D01*
X86285714Y-73164285D01*
X86342857Y-73278571D01*
X86400000Y-73335714D01*
X86514285Y-73392857D01*
X86742857Y-73392857D01*
X86857142Y-73335714D01*
X86914285Y-73278571D01*
X86971428Y-73164285D01*
X86971428Y-72878571D01*
X86914285Y-72764285D01*
X86857142Y-72707142D01*
X86742857Y-72650000D01*
X86514285Y-72650000D01*
X86400000Y-72707142D01*
X86342857Y-72764285D01*
X86285714Y-72878571D01*
G04 #@! TO.C,L1*
X37859523Y-60052380D02*
X37383333Y-60052380D01*
X37383333Y-59052380D01*
D12*
X37516666Y-61490476D02*
X37421428Y-61490476D01*
X37421428Y-61290476D01*
X37688095Y-61490476D02*
X37573809Y-61490476D01*
X37630952Y-61490476D02*
X37630952Y-61290476D01*
X37611904Y-61319047D01*
X37592857Y-61338095D01*
X37573809Y-61347619D01*
G04 #@! TO.C,U6*
D11*
X88004761Y-66726190D02*
X88052380Y-66583333D01*
X88052380Y-66345238D01*
X88004761Y-66250000D01*
X87957142Y-66202380D01*
X87861904Y-66154761D01*
X87766666Y-66154761D01*
X87671428Y-66202380D01*
X87623809Y-66250000D01*
X87576190Y-66345238D01*
X87528571Y-66535714D01*
X87480952Y-66630952D01*
X87433333Y-66678571D01*
X87338095Y-66726190D01*
X87242857Y-66726190D01*
X87147619Y-66678571D01*
X87100000Y-66630952D01*
X87052380Y-66535714D01*
X87052380Y-66297619D01*
X87100000Y-66154761D01*
X87576190Y-65535714D02*
X88052380Y-65535714D01*
X87052380Y-65869047D02*
X87576190Y-65535714D01*
X87052380Y-65202380D01*
X87480952Y-64726190D02*
X87433333Y-64821428D01*
X87385714Y-64869047D01*
X87290476Y-64916666D01*
X87242857Y-64916666D01*
X87147619Y-64869047D01*
X87100000Y-64821428D01*
X87052380Y-64726190D01*
X87052380Y-64535714D01*
X87100000Y-64440476D01*
X87147619Y-64392857D01*
X87242857Y-64345238D01*
X87290476Y-64345238D01*
X87385714Y-64392857D01*
X87433333Y-64440476D01*
X87480952Y-64535714D01*
X87480952Y-64726190D01*
X87528571Y-64821428D01*
X87576190Y-64869047D01*
X87671428Y-64916666D01*
X87861904Y-64916666D01*
X87957142Y-64869047D01*
X88004761Y-64821428D01*
X88052380Y-64726190D01*
X88052380Y-64535714D01*
X88004761Y-64440476D01*
X87957142Y-64392857D01*
X87861904Y-64345238D01*
X87671428Y-64345238D01*
X87576190Y-64392857D01*
X87528571Y-64440476D01*
X87480952Y-64535714D01*
X87052380Y-63726190D02*
X87052380Y-63630952D01*
X87100000Y-63535714D01*
X87147619Y-63488095D01*
X87242857Y-63440476D01*
X87433333Y-63392857D01*
X87671428Y-63392857D01*
X87861904Y-63440476D01*
X87957142Y-63488095D01*
X88004761Y-63535714D01*
X88052380Y-63630952D01*
X88052380Y-63726190D01*
X88004761Y-63821428D01*
X87957142Y-63869047D01*
X87861904Y-63916666D01*
X87671428Y-63964285D01*
X87433333Y-63964285D01*
X87242857Y-63916666D01*
X87147619Y-63869047D01*
X87100000Y-63821428D01*
X87052380Y-63726190D01*
X87480952Y-62821428D02*
X87433333Y-62916666D01*
X87385714Y-62964285D01*
X87290476Y-63011904D01*
X87242857Y-63011904D01*
X87147619Y-62964285D01*
X87100000Y-62916666D01*
X87052380Y-62821428D01*
X87052380Y-62630952D01*
X87100000Y-62535714D01*
X87147619Y-62488095D01*
X87242857Y-62440476D01*
X87290476Y-62440476D01*
X87385714Y-62488095D01*
X87433333Y-62535714D01*
X87480952Y-62630952D01*
X87480952Y-62821428D01*
X87528571Y-62916666D01*
X87576190Y-62964285D01*
X87671428Y-63011904D01*
X87861904Y-63011904D01*
X87957142Y-62964285D01*
X88004761Y-62916666D01*
X88052380Y-62821428D01*
X88052380Y-62630952D01*
X88004761Y-62535714D01*
X87957142Y-62488095D01*
X87861904Y-62440476D01*
X87671428Y-62440476D01*
X87576190Y-62488095D01*
X87528571Y-62535714D01*
X87480952Y-62630952D01*
X88052380Y-61964285D02*
X88052380Y-61773809D01*
X88004761Y-61678571D01*
X87957142Y-61630952D01*
X87814285Y-61535714D01*
X87623809Y-61488095D01*
X87242857Y-61488095D01*
X87147619Y-61535714D01*
X87100000Y-61583333D01*
X87052380Y-61678571D01*
X87052380Y-61869047D01*
X87100000Y-61964285D01*
X87147619Y-62011904D01*
X87242857Y-62059523D01*
X87480952Y-62059523D01*
X87576190Y-62011904D01*
X87623809Y-61964285D01*
X87671428Y-61869047D01*
X87671428Y-61678571D01*
X87623809Y-61583333D01*
X87576190Y-61535714D01*
X87480952Y-61488095D01*
X87766666Y-61107142D02*
X87766666Y-60630952D01*
X88052380Y-61202380D02*
X87052380Y-60869047D01*
X88052380Y-60535714D01*
X87766666Y-60250000D02*
X87766666Y-59773809D01*
X88052380Y-60345238D02*
X87052380Y-60011904D01*
X88052380Y-59678571D01*
X87957142Y-58773809D02*
X88004761Y-58821428D01*
X88052380Y-58964285D01*
X88052380Y-59059523D01*
X88004761Y-59202380D01*
X87909523Y-59297619D01*
X87814285Y-59345238D01*
X87623809Y-59392857D01*
X87480952Y-59392857D01*
X87290476Y-59345238D01*
X87195238Y-59297619D01*
X87100000Y-59202380D01*
X87052380Y-59059523D01*
X87052380Y-58964285D01*
X87100000Y-58821428D01*
X87147619Y-58773809D01*
D13*
X90119047Y-62476190D02*
X90119047Y-62880952D01*
X90142857Y-62928571D01*
X90166666Y-62952380D01*
X90214285Y-62976190D01*
X90309523Y-62976190D01*
X90357142Y-62952380D01*
X90380952Y-62928571D01*
X90404761Y-62880952D01*
X90404761Y-62476190D01*
X90857142Y-62476190D02*
X90761904Y-62476190D01*
X90714285Y-62500000D01*
X90690476Y-62523809D01*
X90642857Y-62595238D01*
X90619047Y-62690476D01*
X90619047Y-62880952D01*
X90642857Y-62928571D01*
X90666666Y-62952380D01*
X90714285Y-62976190D01*
X90809523Y-62976190D01*
X90857142Y-62952380D01*
X90880952Y-62928571D01*
X90904761Y-62880952D01*
X90904761Y-62761904D01*
X90880952Y-62714285D01*
X90857142Y-62690476D01*
X90809523Y-62666666D01*
X90714285Y-62666666D01*
X90666666Y-62690476D01*
X90642857Y-62714285D01*
X90619047Y-62761904D01*
G04 #@! TO.C,Y1*
D11*
X35007142Y-73332142D02*
X34959523Y-73379761D01*
X34816666Y-73427380D01*
X34721428Y-73427380D01*
X34578571Y-73379761D01*
X34483333Y-73284523D01*
X34435714Y-73189285D01*
X34388095Y-72998809D01*
X34388095Y-72855952D01*
X34435714Y-72665476D01*
X34483333Y-72570238D01*
X34578571Y-72475000D01*
X34721428Y-72427380D01*
X34816666Y-72427380D01*
X34959523Y-72475000D01*
X35007142Y-72522619D01*
X35435714Y-73427380D02*
X35435714Y-72760714D01*
X35435714Y-72951190D02*
X35483333Y-72855952D01*
X35530952Y-72808333D01*
X35626190Y-72760714D01*
X35721428Y-72760714D01*
X35959523Y-72760714D02*
X36197619Y-73427380D01*
X36435714Y-72760714D02*
X36197619Y-73427380D01*
X36102380Y-73665476D01*
X36054761Y-73713095D01*
X35959523Y-73760714D01*
X36769047Y-73379761D02*
X36864285Y-73427380D01*
X37054761Y-73427380D01*
X37150000Y-73379761D01*
X37197619Y-73284523D01*
X37197619Y-73236904D01*
X37150000Y-73141666D01*
X37054761Y-73094047D01*
X36911904Y-73094047D01*
X36816666Y-73046428D01*
X36769047Y-72951190D01*
X36769047Y-72903571D01*
X36816666Y-72808333D01*
X36911904Y-72760714D01*
X37054761Y-72760714D01*
X37150000Y-72808333D01*
X37483333Y-72760714D02*
X37864285Y-72760714D01*
X37626190Y-72427380D02*
X37626190Y-73284523D01*
X37673809Y-73379761D01*
X37769047Y-73427380D01*
X37864285Y-73427380D01*
X38626190Y-73427380D02*
X38626190Y-72903571D01*
X38578571Y-72808333D01*
X38483333Y-72760714D01*
X38292857Y-72760714D01*
X38197619Y-72808333D01*
X38626190Y-73379761D02*
X38530952Y-73427380D01*
X38292857Y-73427380D01*
X38197619Y-73379761D01*
X38150000Y-73284523D01*
X38150000Y-73189285D01*
X38197619Y-73094047D01*
X38292857Y-73046428D01*
X38530952Y-73046428D01*
X38626190Y-72998809D01*
X39245238Y-73427380D02*
X39150000Y-73379761D01*
X39102380Y-73284523D01*
X39102380Y-72427380D01*
X39388095Y-73522619D02*
X40150000Y-73522619D01*
X40911904Y-72475000D02*
X40816666Y-72427380D01*
X40673809Y-72427380D01*
X40530952Y-72475000D01*
X40435714Y-72570238D01*
X40388095Y-72665476D01*
X40340476Y-72855952D01*
X40340476Y-72998809D01*
X40388095Y-73189285D01*
X40435714Y-73284523D01*
X40530952Y-73379761D01*
X40673809Y-73427380D01*
X40769047Y-73427380D01*
X40911904Y-73379761D01*
X40959523Y-73332142D01*
X40959523Y-72998809D01*
X40769047Y-72998809D01*
X41388095Y-73427380D02*
X41388095Y-72427380D01*
X41959523Y-73427380D01*
X41959523Y-72427380D01*
X42435714Y-73427380D02*
X42435714Y-72427380D01*
X42673809Y-72427380D01*
X42816666Y-72475000D01*
X42911904Y-72570238D01*
X42959523Y-72665476D01*
X43007142Y-72855952D01*
X43007142Y-72998809D01*
X42959523Y-73189285D01*
X42911904Y-73284523D01*
X42816666Y-73379761D01*
X42673809Y-73427380D01*
X42435714Y-73427380D01*
X43388095Y-72522619D02*
X43435714Y-72475000D01*
X43530952Y-72427380D01*
X43769047Y-72427380D01*
X43864285Y-72475000D01*
X43911904Y-72522619D01*
X43959523Y-72617857D01*
X43959523Y-72713095D01*
X43911904Y-72855952D01*
X43340476Y-73427380D01*
X43959523Y-73427380D01*
X44816666Y-72760714D02*
X44816666Y-73427380D01*
X44578571Y-72379761D02*
X44340476Y-73094047D01*
X44959523Y-73094047D01*
G04 #@! TO.C,ANT1*
X36666666Y-63495238D02*
X36666666Y-63019047D01*
X36952380Y-63590476D02*
X35952380Y-63257142D01*
X36952380Y-62923809D01*
X36952380Y-62590476D02*
X35952380Y-62590476D01*
X36952380Y-62019047D01*
X35952380Y-62019047D01*
X35952380Y-61685714D02*
X35952380Y-61114285D01*
X36952380Y-61400000D02*
X35952380Y-61400000D01*
X36952380Y-60257142D02*
X36952380Y-60828571D01*
X36952380Y-60542857D02*
X35952380Y-60542857D01*
X36095238Y-60638095D01*
X36190476Y-60733333D01*
X36238095Y-60828571D01*
X36047619Y-59876190D02*
X36000000Y-59828571D01*
X35952380Y-59733333D01*
X35952380Y-59495238D01*
X36000000Y-59400000D01*
X36047619Y-59352380D01*
X36142857Y-59304761D01*
X36238095Y-59304761D01*
X36380952Y-59352380D01*
X36952380Y-59923809D01*
X36952380Y-59304761D01*
G04 #@! TO.C,C1*
X37877142Y-60540476D02*
X37924761Y-60588095D01*
X37972380Y-60730952D01*
X37972380Y-60826190D01*
X37924761Y-60969047D01*
X37829523Y-61064285D01*
X37734285Y-61111904D01*
X37543809Y-61159523D01*
X37400952Y-61159523D01*
X37210476Y-61111904D01*
X37115238Y-61064285D01*
X37020000Y-60969047D01*
X36972380Y-60826190D01*
X36972380Y-60730952D01*
X37020000Y-60588095D01*
X37067619Y-60540476D01*
X35337142Y-61016666D02*
X35384761Y-61064285D01*
X35432380Y-61207142D01*
X35432380Y-61302380D01*
X35384761Y-61445238D01*
X35289523Y-61540476D01*
X35194285Y-61588095D01*
X35003809Y-61635714D01*
X34860952Y-61635714D01*
X34670476Y-61588095D01*
X34575238Y-61540476D01*
X34480000Y-61445238D01*
X34432380Y-61302380D01*
X34432380Y-61207142D01*
X34480000Y-61064285D01*
X34527619Y-61016666D01*
X35432380Y-60064285D02*
X35432380Y-60635714D01*
X35432380Y-60350000D02*
X34432380Y-60350000D01*
X34575238Y-60445238D01*
X34670476Y-60540476D01*
X34718095Y-60635714D01*
G04 #@! TO.C,C2*
X40477142Y-60540476D02*
X40524761Y-60588095D01*
X40572380Y-60730952D01*
X40572380Y-60826190D01*
X40524761Y-60969047D01*
X40429523Y-61064285D01*
X40334285Y-61111904D01*
X40143809Y-61159523D01*
X40000952Y-61159523D01*
X39810476Y-61111904D01*
X39715238Y-61064285D01*
X39620000Y-60969047D01*
X39572380Y-60826190D01*
X39572380Y-60730952D01*
X39620000Y-60588095D01*
X39667619Y-60540476D01*
X37937142Y-61016666D02*
X37984761Y-61064285D01*
X38032380Y-61207142D01*
X38032380Y-61302380D01*
X37984761Y-61445238D01*
X37889523Y-61540476D01*
X37794285Y-61588095D01*
X37603809Y-61635714D01*
X37460952Y-61635714D01*
X37270476Y-61588095D01*
X37175238Y-61540476D01*
X37080000Y-61445238D01*
X37032380Y-61302380D01*
X37032380Y-61207142D01*
X37080000Y-61064285D01*
X37127619Y-61016666D01*
X37127619Y-60635714D02*
X37080000Y-60588095D01*
X37032380Y-60492857D01*
X37032380Y-60254761D01*
X37080000Y-60159523D01*
X37127619Y-60111904D01*
X37222857Y-60064285D01*
X37318095Y-60064285D01*
X37460952Y-60111904D01*
X38032380Y-60683333D01*
X38032380Y-60064285D01*
G04 #@! TO.C,C4*
X40722380Y-68364285D02*
X40722380Y-68269047D01*
X40770000Y-68173809D01*
X40817619Y-68126190D01*
X40912857Y-68078571D01*
X41103333Y-68030952D01*
X41341428Y-68030952D01*
X41531904Y-68078571D01*
X41627142Y-68126190D01*
X41674761Y-68173809D01*
X41722380Y-68269047D01*
X41722380Y-68364285D01*
X41674761Y-68459523D01*
X41627142Y-68507142D01*
X41531904Y-68554761D01*
X41341428Y-68602380D01*
X41103333Y-68602380D01*
X40912857Y-68554761D01*
X40817619Y-68507142D01*
X40770000Y-68459523D01*
X40722380Y-68364285D01*
X41627142Y-67602380D02*
X41674761Y-67554761D01*
X41722380Y-67602380D01*
X41674761Y-67650000D01*
X41627142Y-67602380D01*
X41722380Y-67602380D01*
X41722380Y-66602380D02*
X41722380Y-67173809D01*
X41722380Y-66888095D02*
X40722380Y-66888095D01*
X40865238Y-66983333D01*
X40960476Y-67078571D01*
X41008095Y-67173809D01*
X41055714Y-65745238D02*
X41722380Y-65745238D01*
X41055714Y-66173809D02*
X41579523Y-66173809D01*
X41674761Y-66126190D01*
X41722380Y-66030952D01*
X41722380Y-65888095D01*
X41674761Y-65792857D01*
X41627142Y-65745238D01*
X39087142Y-67316666D02*
X39134761Y-67364285D01*
X39182380Y-67507142D01*
X39182380Y-67602380D01*
X39134761Y-67745238D01*
X39039523Y-67840476D01*
X38944285Y-67888095D01*
X38753809Y-67935714D01*
X38610952Y-67935714D01*
X38420476Y-67888095D01*
X38325238Y-67840476D01*
X38230000Y-67745238D01*
X38182380Y-67602380D01*
X38182380Y-67507142D01*
X38230000Y-67364285D01*
X38277619Y-67316666D01*
X38515714Y-66459523D02*
X39182380Y-66459523D01*
X38134761Y-66697619D02*
X38849047Y-66935714D01*
X38849047Y-66316666D01*
G04 #@! TO.C,C905*
X39715119Y-73689285D02*
X39667500Y-73641666D01*
X39619880Y-73546428D01*
X39619880Y-73308333D01*
X39667500Y-73213095D01*
X39715119Y-73165476D01*
X39810357Y-73117857D01*
X39905595Y-73117857D01*
X40048452Y-73165476D01*
X40619880Y-73736904D01*
X40619880Y-73117857D01*
X39715119Y-72736904D02*
X39667500Y-72689285D01*
X39619880Y-72594047D01*
X39619880Y-72355952D01*
X39667500Y-72260714D01*
X39715119Y-72213095D01*
X39810357Y-72165476D01*
X39905595Y-72165476D01*
X40048452Y-72213095D01*
X40619880Y-72784523D01*
X40619880Y-72165476D01*
X39953214Y-71736904D02*
X40953214Y-71736904D01*
X40000833Y-71736904D02*
X39953214Y-71641666D01*
X39953214Y-71451190D01*
X40000833Y-71355952D01*
X40048452Y-71308333D01*
X40143690Y-71260714D01*
X40429404Y-71260714D01*
X40524642Y-71308333D01*
X40572261Y-71355952D01*
X40619880Y-71451190D01*
X40619880Y-71641666D01*
X40572261Y-71736904D01*
X43064642Y-73594047D02*
X43112261Y-73641666D01*
X43159880Y-73784523D01*
X43159880Y-73879761D01*
X43112261Y-74022619D01*
X43017023Y-74117857D01*
X42921785Y-74165476D01*
X42731309Y-74213095D01*
X42588452Y-74213095D01*
X42397976Y-74165476D01*
X42302738Y-74117857D01*
X42207500Y-74022619D01*
X42159880Y-73879761D01*
X42159880Y-73784523D01*
X42207500Y-73641666D01*
X42255119Y-73594047D01*
X43159880Y-73117857D02*
X43159880Y-72927380D01*
X43112261Y-72832142D01*
X43064642Y-72784523D01*
X42921785Y-72689285D01*
X42731309Y-72641666D01*
X42350357Y-72641666D01*
X42255119Y-72689285D01*
X42207500Y-72736904D01*
X42159880Y-72832142D01*
X42159880Y-73022619D01*
X42207500Y-73117857D01*
X42255119Y-73165476D01*
X42350357Y-73213095D01*
X42588452Y-73213095D01*
X42683690Y-73165476D01*
X42731309Y-73117857D01*
X42778928Y-73022619D01*
X42778928Y-72832142D01*
X42731309Y-72736904D01*
X42683690Y-72689285D01*
X42588452Y-72641666D01*
X42159880Y-72022619D02*
X42159880Y-71927380D01*
X42207500Y-71832142D01*
X42255119Y-71784523D01*
X42350357Y-71736904D01*
X42540833Y-71689285D01*
X42778928Y-71689285D01*
X42969404Y-71736904D01*
X43064642Y-71784523D01*
X43112261Y-71832142D01*
X43159880Y-71927380D01*
X43159880Y-72022619D01*
X43112261Y-72117857D01*
X43064642Y-72165476D01*
X42969404Y-72213095D01*
X42778928Y-72260714D01*
X42540833Y-72260714D01*
X42350357Y-72213095D01*
X42255119Y-72165476D01*
X42207500Y-72117857D01*
X42159880Y-72022619D01*
X42159880Y-70784523D02*
X42159880Y-71260714D01*
X42636071Y-71308333D01*
X42588452Y-71260714D01*
X42540833Y-71165476D01*
X42540833Y-70927380D01*
X42588452Y-70832142D01*
X42636071Y-70784523D01*
X42731309Y-70736904D01*
X42969404Y-70736904D01*
X43064642Y-70784523D01*
X43112261Y-70832142D01*
X43159880Y-70927380D01*
X43159880Y-71165476D01*
X43112261Y-71260714D01*
X43064642Y-71308333D01*
G04 #@! TO.C,C906*
X38435714Y-74917619D02*
X38483333Y-74870000D01*
X38578571Y-74822380D01*
X38816666Y-74822380D01*
X38911904Y-74870000D01*
X38959523Y-74917619D01*
X39007142Y-75012857D01*
X39007142Y-75108095D01*
X38959523Y-75250952D01*
X38388095Y-75822380D01*
X39007142Y-75822380D01*
X39388095Y-74917619D02*
X39435714Y-74870000D01*
X39530952Y-74822380D01*
X39769047Y-74822380D01*
X39864285Y-74870000D01*
X39911904Y-74917619D01*
X39959523Y-75012857D01*
X39959523Y-75108095D01*
X39911904Y-75250952D01*
X39340476Y-75822380D01*
X39959523Y-75822380D01*
X40388095Y-75155714D02*
X40388095Y-76155714D01*
X40388095Y-75203333D02*
X40483333Y-75155714D01*
X40673809Y-75155714D01*
X40769047Y-75203333D01*
X40816666Y-75250952D01*
X40864285Y-75346190D01*
X40864285Y-75631904D01*
X40816666Y-75727142D01*
X40769047Y-75774761D01*
X40673809Y-75822380D01*
X40483333Y-75822380D01*
X40388095Y-75774761D01*
X38530952Y-73187142D02*
X38483333Y-73234761D01*
X38340476Y-73282380D01*
X38245238Y-73282380D01*
X38102380Y-73234761D01*
X38007142Y-73139523D01*
X37959523Y-73044285D01*
X37911904Y-72853809D01*
X37911904Y-72710952D01*
X37959523Y-72520476D01*
X38007142Y-72425238D01*
X38102380Y-72330000D01*
X38245238Y-72282380D01*
X38340476Y-72282380D01*
X38483333Y-72330000D01*
X38530952Y-72377619D01*
X39007142Y-73282380D02*
X39197619Y-73282380D01*
X39292857Y-73234761D01*
X39340476Y-73187142D01*
X39435714Y-73044285D01*
X39483333Y-72853809D01*
X39483333Y-72472857D01*
X39435714Y-72377619D01*
X39388095Y-72330000D01*
X39292857Y-72282380D01*
X39102380Y-72282380D01*
X39007142Y-72330000D01*
X38959523Y-72377619D01*
X38911904Y-72472857D01*
X38911904Y-72710952D01*
X38959523Y-72806190D01*
X39007142Y-72853809D01*
X39102380Y-72901428D01*
X39292857Y-72901428D01*
X39388095Y-72853809D01*
X39435714Y-72806190D01*
X39483333Y-72710952D01*
X40102380Y-72282380D02*
X40197619Y-72282380D01*
X40292857Y-72330000D01*
X40340476Y-72377619D01*
X40388095Y-72472857D01*
X40435714Y-72663333D01*
X40435714Y-72901428D01*
X40388095Y-73091904D01*
X40340476Y-73187142D01*
X40292857Y-73234761D01*
X40197619Y-73282380D01*
X40102380Y-73282380D01*
X40007142Y-73234761D01*
X39959523Y-73187142D01*
X39911904Y-73091904D01*
X39864285Y-72901428D01*
X39864285Y-72663333D01*
X39911904Y-72472857D01*
X39959523Y-72377619D01*
X40007142Y-72330000D01*
X40102380Y-72282380D01*
X41292857Y-72282380D02*
X41102380Y-72282380D01*
X41007142Y-72330000D01*
X40959523Y-72377619D01*
X40864285Y-72520476D01*
X40816666Y-72710952D01*
X40816666Y-73091904D01*
X40864285Y-73187142D01*
X40911904Y-73234761D01*
X41007142Y-73282380D01*
X41197619Y-73282380D01*
X41292857Y-73234761D01*
X41340476Y-73187142D01*
X41388095Y-73091904D01*
X41388095Y-72853809D01*
X41340476Y-72758571D01*
X41292857Y-72710952D01*
X41197619Y-72663333D01*
X41007142Y-72663333D01*
X40911904Y-72710952D01*
X40864285Y-72758571D01*
X40816666Y-72853809D01*
G04 #@! TO.C,C16*
X91277619Y-63214285D02*
X91230000Y-63166666D01*
X91182380Y-63071428D01*
X91182380Y-62833333D01*
X91230000Y-62738095D01*
X91277619Y-62690476D01*
X91372857Y-62642857D01*
X91468095Y-62642857D01*
X91610952Y-62690476D01*
X92182380Y-63261904D01*
X92182380Y-62642857D01*
X91277619Y-62261904D02*
X91230000Y-62214285D01*
X91182380Y-62119047D01*
X91182380Y-61880952D01*
X91230000Y-61785714D01*
X91277619Y-61738095D01*
X91372857Y-61690476D01*
X91468095Y-61690476D01*
X91610952Y-61738095D01*
X92182380Y-62309523D01*
X92182380Y-61690476D01*
X91515714Y-61261904D02*
X92515714Y-61261904D01*
X91563333Y-61261904D02*
X91515714Y-61166666D01*
X91515714Y-60976190D01*
X91563333Y-60880952D01*
X91610952Y-60833333D01*
X91706190Y-60785714D01*
X91991904Y-60785714D01*
X92087142Y-60833333D01*
X92134761Y-60880952D01*
X92182380Y-60976190D01*
X92182380Y-61166666D01*
X92134761Y-61261904D01*
X94627142Y-62642857D02*
X94674761Y-62690476D01*
X94722380Y-62833333D01*
X94722380Y-62928571D01*
X94674761Y-63071428D01*
X94579523Y-63166666D01*
X94484285Y-63214285D01*
X94293809Y-63261904D01*
X94150952Y-63261904D01*
X93960476Y-63214285D01*
X93865238Y-63166666D01*
X93770000Y-63071428D01*
X93722380Y-62928571D01*
X93722380Y-62833333D01*
X93770000Y-62690476D01*
X93817619Y-62642857D01*
X94722380Y-61690476D02*
X94722380Y-62261904D01*
X94722380Y-61976190D02*
X93722380Y-61976190D01*
X93865238Y-62071428D01*
X93960476Y-62166666D01*
X94008095Y-62261904D01*
X93722380Y-60833333D02*
X93722380Y-61023809D01*
X93770000Y-61119047D01*
X93817619Y-61166666D01*
X93960476Y-61261904D01*
X94150952Y-61309523D01*
X94531904Y-61309523D01*
X94627142Y-61261904D01*
X94674761Y-61214285D01*
X94722380Y-61119047D01*
X94722380Y-60928571D01*
X94674761Y-60833333D01*
X94627142Y-60785714D01*
X94531904Y-60738095D01*
X94293809Y-60738095D01*
X94198571Y-60785714D01*
X94150952Y-60833333D01*
X94103333Y-60928571D01*
X94103333Y-61119047D01*
X94150952Y-61214285D01*
X94198571Y-61261904D01*
X94293809Y-61309523D01*
G04 #@! TO.C,C5*
X56309523Y-58337142D02*
X56261904Y-58384761D01*
X56119047Y-58432380D01*
X56023809Y-58432380D01*
X55880952Y-58384761D01*
X55785714Y-58289523D01*
X55738095Y-58194285D01*
X55690476Y-58003809D01*
X55690476Y-57860952D01*
X55738095Y-57670476D01*
X55785714Y-57575238D01*
X55880952Y-57480000D01*
X56023809Y-57432380D01*
X56119047Y-57432380D01*
X56261904Y-57480000D01*
X56309523Y-57527619D01*
X55833333Y-60877142D02*
X55785714Y-60924761D01*
X55642857Y-60972380D01*
X55547619Y-60972380D01*
X55404761Y-60924761D01*
X55309523Y-60829523D01*
X55261904Y-60734285D01*
X55214285Y-60543809D01*
X55214285Y-60400952D01*
X55261904Y-60210476D01*
X55309523Y-60115238D01*
X55404761Y-60020000D01*
X55547619Y-59972380D01*
X55642857Y-59972380D01*
X55785714Y-60020000D01*
X55833333Y-60067619D01*
X56738095Y-59972380D02*
X56261904Y-59972380D01*
X56214285Y-60448571D01*
X56261904Y-60400952D01*
X56357142Y-60353333D01*
X56595238Y-60353333D01*
X56690476Y-60400952D01*
X56738095Y-60448571D01*
X56785714Y-60543809D01*
X56785714Y-60781904D01*
X56738095Y-60877142D01*
X56690476Y-60924761D01*
X56595238Y-60972380D01*
X56357142Y-60972380D01*
X56261904Y-60924761D01*
X56214285Y-60877142D01*
G04 #@! TO.C,R5*
X93252380Y-64357142D02*
X93252380Y-64928571D01*
X93252380Y-64642857D02*
X92252380Y-64642857D01*
X92395238Y-64738095D01*
X92490476Y-64833333D01*
X92538095Y-64928571D01*
X93252380Y-63404761D02*
X93252380Y-63976190D01*
X93252380Y-63690476D02*
X92252380Y-63690476D01*
X92395238Y-63785714D01*
X92490476Y-63880952D01*
X92538095Y-63976190D01*
X92252380Y-62785714D02*
X92252380Y-62690476D01*
X92300000Y-62595238D01*
X92347619Y-62547619D01*
X92442857Y-62500000D01*
X92633333Y-62452380D01*
X92871428Y-62452380D01*
X93061904Y-62500000D01*
X93157142Y-62547619D01*
X93204761Y-62595238D01*
X93252380Y-62690476D01*
X93252380Y-62785714D01*
X93204761Y-62880952D01*
X93157142Y-62928571D01*
X93061904Y-62976190D01*
X92871428Y-63023809D01*
X92633333Y-63023809D01*
X92442857Y-62976190D01*
X92347619Y-62928571D01*
X92300000Y-62880952D01*
X92252380Y-62785714D01*
X93252380Y-62023809D02*
X92252380Y-62023809D01*
X92871428Y-61928571D02*
X93252380Y-61642857D01*
X92585714Y-61642857D02*
X92966666Y-62023809D01*
X93204761Y-61166666D02*
X93252380Y-61166666D01*
X93347619Y-61214285D01*
X93395238Y-61261904D01*
X93252380Y-60214285D02*
X93252380Y-60785714D01*
X93252380Y-60500000D02*
X92252380Y-60500000D01*
X92395238Y-60595238D01*
X92490476Y-60690476D01*
X92538095Y-60785714D01*
X93252380Y-59833333D02*
X92252380Y-59071428D01*
X92252380Y-59690476D02*
X92300000Y-59595238D01*
X92395238Y-59547619D01*
X92490476Y-59595238D01*
X92538095Y-59690476D01*
X92490476Y-59785714D01*
X92395238Y-59833333D01*
X92300000Y-59785714D01*
X92252380Y-59690476D01*
X93204761Y-59119047D02*
X93109523Y-59071428D01*
X93014285Y-59119047D01*
X92966666Y-59214285D01*
X93014285Y-59309523D01*
X93109523Y-59357142D01*
X93204761Y-59309523D01*
X93252380Y-59214285D01*
X93204761Y-59119047D01*
X96052380Y-62166666D02*
X95576190Y-62500000D01*
X96052380Y-62738095D02*
X95052380Y-62738095D01*
X95052380Y-62357142D01*
X95100000Y-62261904D01*
X95147619Y-62214285D01*
X95242857Y-62166666D01*
X95385714Y-62166666D01*
X95480952Y-62214285D01*
X95528571Y-62261904D01*
X95576190Y-62357142D01*
X95576190Y-62738095D01*
X95052380Y-61261904D02*
X95052380Y-61738095D01*
X95528571Y-61785714D01*
X95480952Y-61738095D01*
X95433333Y-61642857D01*
X95433333Y-61404761D01*
X95480952Y-61309523D01*
X95528571Y-61261904D01*
X95623809Y-61214285D01*
X95861904Y-61214285D01*
X95957142Y-61261904D01*
X96004761Y-61309523D01*
X96052380Y-61404761D01*
X96052380Y-61642857D01*
X96004761Y-61738095D01*
X95957142Y-61785714D01*
G04 #@! TO.C,R6*
X97402380Y-64357142D02*
X97402380Y-64928571D01*
X97402380Y-64642857D02*
X96402380Y-64642857D01*
X96545238Y-64738095D01*
X96640476Y-64833333D01*
X96688095Y-64928571D01*
X96402380Y-63452380D02*
X96402380Y-63928571D01*
X96878571Y-63976190D01*
X96830952Y-63928571D01*
X96783333Y-63833333D01*
X96783333Y-63595238D01*
X96830952Y-63500000D01*
X96878571Y-63452380D01*
X96973809Y-63404761D01*
X97211904Y-63404761D01*
X97307142Y-63452380D01*
X97354761Y-63500000D01*
X97402380Y-63595238D01*
X97402380Y-63833333D01*
X97354761Y-63928571D01*
X97307142Y-63976190D01*
X96402380Y-62785714D02*
X96402380Y-62690476D01*
X96450000Y-62595238D01*
X96497619Y-62547619D01*
X96592857Y-62500000D01*
X96783333Y-62452380D01*
X97021428Y-62452380D01*
X97211904Y-62500000D01*
X97307142Y-62547619D01*
X97354761Y-62595238D01*
X97402380Y-62690476D01*
X97402380Y-62785714D01*
X97354761Y-62880952D01*
X97307142Y-62928571D01*
X97211904Y-62976190D01*
X97021428Y-63023809D01*
X96783333Y-63023809D01*
X96592857Y-62976190D01*
X96497619Y-62928571D01*
X96450000Y-62880952D01*
X96402380Y-62785714D01*
X97402380Y-62023809D02*
X96402380Y-62023809D01*
X97021428Y-61928571D02*
X97402380Y-61642857D01*
X96735714Y-61642857D02*
X97116666Y-62023809D01*
X97354761Y-61166666D02*
X97402380Y-61166666D01*
X97497619Y-61214285D01*
X97545238Y-61261904D01*
X97402380Y-60214285D02*
X97402380Y-60785714D01*
X97402380Y-60500000D02*
X96402380Y-60500000D01*
X96545238Y-60595238D01*
X96640476Y-60690476D01*
X96688095Y-60785714D01*
X97402380Y-59833333D02*
X96402380Y-59071428D01*
X96402380Y-59690476D02*
X96450000Y-59595238D01*
X96545238Y-59547619D01*
X96640476Y-59595238D01*
X96688095Y-59690476D01*
X96640476Y-59785714D01*
X96545238Y-59833333D01*
X96450000Y-59785714D01*
X96402380Y-59690476D01*
X97354761Y-59119047D02*
X97259523Y-59071428D01*
X97164285Y-59119047D01*
X97116666Y-59214285D01*
X97164285Y-59309523D01*
X97259523Y-59357142D01*
X97354761Y-59309523D01*
X97402380Y-59214285D01*
X97354761Y-59119047D01*
X94602380Y-62166666D02*
X94126190Y-62500000D01*
X94602380Y-62738095D02*
X93602380Y-62738095D01*
X93602380Y-62357142D01*
X93650000Y-62261904D01*
X93697619Y-62214285D01*
X93792857Y-62166666D01*
X93935714Y-62166666D01*
X94030952Y-62214285D01*
X94078571Y-62261904D01*
X94126190Y-62357142D01*
X94126190Y-62738095D01*
X93602380Y-61309523D02*
X93602380Y-61500000D01*
X93650000Y-61595238D01*
X93697619Y-61642857D01*
X93840476Y-61738095D01*
X94030952Y-61785714D01*
X94411904Y-61785714D01*
X94507142Y-61738095D01*
X94554761Y-61690476D01*
X94602380Y-61595238D01*
X94602380Y-61404761D01*
X94554761Y-61309523D01*
X94507142Y-61261904D01*
X94411904Y-61214285D01*
X94173809Y-61214285D01*
X94078571Y-61261904D01*
X94030952Y-61309523D01*
X93983333Y-61404761D01*
X93983333Y-61595238D01*
X94030952Y-61690476D01*
X94078571Y-61738095D01*
X94173809Y-61785714D01*
G04 #@! TO.C,C3*
X40752380Y-67592857D02*
X40752380Y-68164285D01*
X40752380Y-67878571D02*
X39752380Y-67878571D01*
X39895238Y-67973809D01*
X39990476Y-68069047D01*
X40038095Y-68164285D01*
X39752380Y-66973809D02*
X39752380Y-66878571D01*
X39800000Y-66783333D01*
X39847619Y-66735714D01*
X39942857Y-66688095D01*
X40133333Y-66640476D01*
X40371428Y-66640476D01*
X40561904Y-66688095D01*
X40657142Y-66735714D01*
X40704761Y-66783333D01*
X40752380Y-66878571D01*
X40752380Y-66973809D01*
X40704761Y-67069047D01*
X40657142Y-67116666D01*
X40561904Y-67164285D01*
X40371428Y-67211904D01*
X40133333Y-67211904D01*
X39942857Y-67164285D01*
X39847619Y-67116666D01*
X39800000Y-67069047D01*
X39752380Y-66973809D01*
X40085714Y-65783333D02*
X40752380Y-65783333D01*
X40085714Y-66211904D02*
X40609523Y-66211904D01*
X40704761Y-66164285D01*
X40752380Y-66069047D01*
X40752380Y-65926190D01*
X40704761Y-65830952D01*
X40657142Y-65783333D01*
D13*
X38907142Y-67000000D02*
X38921428Y-67014285D01*
X38935714Y-67057142D01*
X38935714Y-67085714D01*
X38921428Y-67128571D01*
X38892857Y-67157142D01*
X38864285Y-67171428D01*
X38807142Y-67185714D01*
X38764285Y-67185714D01*
X38707142Y-67171428D01*
X38678571Y-67157142D01*
X38650000Y-67128571D01*
X38635714Y-67085714D01*
X38635714Y-67057142D01*
X38650000Y-67014285D01*
X38664285Y-67000000D01*
X38635714Y-66900000D02*
X38635714Y-66714285D01*
X38750000Y-66814285D01*
X38750000Y-66771428D01*
X38764285Y-66742857D01*
X38778571Y-66728571D01*
X38807142Y-66714285D01*
X38878571Y-66714285D01*
X38907142Y-66728571D01*
X38921428Y-66742857D01*
X38935714Y-66771428D01*
X38935714Y-66857142D01*
X38921428Y-66885714D01*
X38907142Y-66900000D01*
G04 #@! TO.C,C10*
D11*
X58857142Y-63940476D02*
X58904761Y-63988095D01*
X58952380Y-64130952D01*
X58952380Y-64226190D01*
X58904761Y-64369047D01*
X58809523Y-64464285D01*
X58714285Y-64511904D01*
X58523809Y-64559523D01*
X58380952Y-64559523D01*
X58190476Y-64511904D01*
X58095238Y-64464285D01*
X58000000Y-64369047D01*
X57952380Y-64226190D01*
X57952380Y-64130952D01*
X58000000Y-63988095D01*
X58047619Y-63940476D01*
D13*
X57107142Y-64442857D02*
X57121428Y-64457142D01*
X57135714Y-64500000D01*
X57135714Y-64528571D01*
X57121428Y-64571428D01*
X57092857Y-64600000D01*
X57064285Y-64614285D01*
X57007142Y-64628571D01*
X56964285Y-64628571D01*
X56907142Y-64614285D01*
X56878571Y-64600000D01*
X56850000Y-64571428D01*
X56835714Y-64528571D01*
X56835714Y-64500000D01*
X56850000Y-64457142D01*
X56864285Y-64442857D01*
X57135714Y-64157142D02*
X57135714Y-64328571D01*
X57135714Y-64242857D02*
X56835714Y-64242857D01*
X56878571Y-64271428D01*
X56907142Y-64300000D01*
X56921428Y-64328571D01*
X56835714Y-63971428D02*
X56835714Y-63942857D01*
X56850000Y-63914285D01*
X56864285Y-63900000D01*
X56892857Y-63885714D01*
X56950000Y-63871428D01*
X57021428Y-63871428D01*
X57078571Y-63885714D01*
X57107142Y-63900000D01*
X57121428Y-63914285D01*
X57135714Y-63942857D01*
X57135714Y-63971428D01*
X57121428Y-64000000D01*
X57107142Y-64014285D01*
X57078571Y-64028571D01*
X57021428Y-64042857D01*
X56950000Y-64042857D01*
X56892857Y-64028571D01*
X56864285Y-64014285D01*
X56850000Y-64000000D01*
X56835714Y-63971428D01*
G04 #@! TO.C,C11*
D11*
X56877142Y-64190476D02*
X56924761Y-64238095D01*
X56972380Y-64380952D01*
X56972380Y-64476190D01*
X56924761Y-64619047D01*
X56829523Y-64714285D01*
X56734285Y-64761904D01*
X56543809Y-64809523D01*
X56400952Y-64809523D01*
X56210476Y-64761904D01*
X56115238Y-64714285D01*
X56020000Y-64619047D01*
X55972380Y-64476190D01*
X55972380Y-64380952D01*
X56020000Y-64238095D01*
X56067619Y-64190476D01*
X54337142Y-65142857D02*
X54384761Y-65190476D01*
X54432380Y-65333333D01*
X54432380Y-65428571D01*
X54384761Y-65571428D01*
X54289523Y-65666666D01*
X54194285Y-65714285D01*
X54003809Y-65761904D01*
X53860952Y-65761904D01*
X53670476Y-65714285D01*
X53575238Y-65666666D01*
X53480000Y-65571428D01*
X53432380Y-65428571D01*
X53432380Y-65333333D01*
X53480000Y-65190476D01*
X53527619Y-65142857D01*
X54432380Y-64190476D02*
X54432380Y-64761904D01*
X54432380Y-64476190D02*
X53432380Y-64476190D01*
X53575238Y-64571428D01*
X53670476Y-64666666D01*
X53718095Y-64761904D01*
X54432380Y-63238095D02*
X54432380Y-63809523D01*
X54432380Y-63523809D02*
X53432380Y-63523809D01*
X53575238Y-63619047D01*
X53670476Y-63714285D01*
X53718095Y-63809523D01*
G04 #@! TO.C,C12*
X57627142Y-64190476D02*
X57674761Y-64238095D01*
X57722380Y-64380952D01*
X57722380Y-64476190D01*
X57674761Y-64619047D01*
X57579523Y-64714285D01*
X57484285Y-64761904D01*
X57293809Y-64809523D01*
X57150952Y-64809523D01*
X56960476Y-64761904D01*
X56865238Y-64714285D01*
X56770000Y-64619047D01*
X56722380Y-64476190D01*
X56722380Y-64380952D01*
X56770000Y-64238095D01*
X56817619Y-64190476D01*
X55087142Y-65142857D02*
X55134761Y-65190476D01*
X55182380Y-65333333D01*
X55182380Y-65428571D01*
X55134761Y-65571428D01*
X55039523Y-65666666D01*
X54944285Y-65714285D01*
X54753809Y-65761904D01*
X54610952Y-65761904D01*
X54420476Y-65714285D01*
X54325238Y-65666666D01*
X54230000Y-65571428D01*
X54182380Y-65428571D01*
X54182380Y-65333333D01*
X54230000Y-65190476D01*
X54277619Y-65142857D01*
X55182380Y-64190476D02*
X55182380Y-64761904D01*
X55182380Y-64476190D02*
X54182380Y-64476190D01*
X54325238Y-64571428D01*
X54420476Y-64666666D01*
X54468095Y-64761904D01*
X54277619Y-63809523D02*
X54230000Y-63761904D01*
X54182380Y-63666666D01*
X54182380Y-63428571D01*
X54230000Y-63333333D01*
X54277619Y-63285714D01*
X54372857Y-63238095D01*
X54468095Y-63238095D01*
X54610952Y-63285714D01*
X55182380Y-63857142D01*
X55182380Y-63238095D01*
G04 #@! TO.C,C7*
X56309523Y-62877142D02*
X56261904Y-62924761D01*
X56119047Y-62972380D01*
X56023809Y-62972380D01*
X55880952Y-62924761D01*
X55785714Y-62829523D01*
X55738095Y-62734285D01*
X55690476Y-62543809D01*
X55690476Y-62400952D01*
X55738095Y-62210476D01*
X55785714Y-62115238D01*
X55880952Y-62020000D01*
X56023809Y-61972380D01*
X56119047Y-61972380D01*
X56261904Y-62020000D01*
X56309523Y-62067619D01*
X55833333Y-60337142D02*
X55785714Y-60384761D01*
X55642857Y-60432380D01*
X55547619Y-60432380D01*
X55404761Y-60384761D01*
X55309523Y-60289523D01*
X55261904Y-60194285D01*
X55214285Y-60003809D01*
X55214285Y-59860952D01*
X55261904Y-59670476D01*
X55309523Y-59575238D01*
X55404761Y-59480000D01*
X55547619Y-59432380D01*
X55642857Y-59432380D01*
X55785714Y-59480000D01*
X55833333Y-59527619D01*
X56166666Y-59432380D02*
X56833333Y-59432380D01*
X56404761Y-60432380D01*
G04 #@! TO.C,D2*
X87976190Y-72528571D02*
X88309523Y-72528571D01*
X88452380Y-73052380D02*
X87976190Y-73052380D01*
X87976190Y-72052380D01*
X88452380Y-72052380D01*
X88833333Y-73004761D02*
X88976190Y-73052380D01*
X89214285Y-73052380D01*
X89309523Y-73004761D01*
X89357142Y-72957142D01*
X89404761Y-72861904D01*
X89404761Y-72766666D01*
X89357142Y-72671428D01*
X89309523Y-72623809D01*
X89214285Y-72576190D01*
X89023809Y-72528571D01*
X88928571Y-72480952D01*
X88880952Y-72433333D01*
X88833333Y-72338095D01*
X88833333Y-72242857D01*
X88880952Y-72147619D01*
X88928571Y-72100000D01*
X89023809Y-72052380D01*
X89261904Y-72052380D01*
X89404761Y-72100000D01*
X89833333Y-73052380D02*
X89833333Y-72052380D01*
X90071428Y-72052380D01*
X90214285Y-72100000D01*
X90309523Y-72195238D01*
X90357142Y-72290476D01*
X90404761Y-72480952D01*
X90404761Y-72623809D01*
X90357142Y-72814285D01*
X90309523Y-72909523D01*
X90214285Y-73004761D01*
X90071428Y-73052380D01*
X89833333Y-73052380D01*
X91309523Y-72052380D02*
X90833333Y-72052380D01*
X90785714Y-72528571D01*
X90833333Y-72480952D01*
X90928571Y-72433333D01*
X91166666Y-72433333D01*
X91261904Y-72480952D01*
X91309523Y-72528571D01*
X91357142Y-72623809D01*
X91357142Y-72861904D01*
X91309523Y-72957142D01*
X91261904Y-73004761D01*
X91166666Y-73052380D01*
X90928571Y-73052380D01*
X90833333Y-73004761D01*
X90785714Y-72957142D01*
X91690476Y-72052380D02*
X92309523Y-72052380D01*
X91976190Y-72433333D01*
X92119047Y-72433333D01*
X92214285Y-72480952D01*
X92261904Y-72528571D01*
X92309523Y-72623809D01*
X92309523Y-72861904D01*
X92261904Y-72957142D01*
X92214285Y-73004761D01*
X92119047Y-73052380D01*
X91833333Y-73052380D01*
X91738095Y-73004761D01*
X91690476Y-72957142D01*
X92928571Y-72052380D02*
X93023809Y-72052380D01*
X93119047Y-72100000D01*
X93166666Y-72147619D01*
X93214285Y-72242857D01*
X93261904Y-72433333D01*
X93261904Y-72671428D01*
X93214285Y-72861904D01*
X93166666Y-72957142D01*
X93119047Y-73004761D01*
X93023809Y-73052380D01*
X92928571Y-73052380D01*
X92833333Y-73004761D01*
X92785714Y-72957142D01*
X92738095Y-72861904D01*
X92690476Y-72671428D01*
X92690476Y-72433333D01*
X92738095Y-72242857D01*
X92785714Y-72147619D01*
X92833333Y-72100000D01*
X92928571Y-72052380D01*
X93642857Y-72147619D02*
X93690476Y-72100000D01*
X93785714Y-72052380D01*
X94023809Y-72052380D01*
X94119047Y-72100000D01*
X94166666Y-72147619D01*
X94214285Y-72242857D01*
X94214285Y-72338095D01*
X94166666Y-72480952D01*
X93595238Y-73052380D01*
X94214285Y-73052380D01*
X94976190Y-72528571D02*
X94642857Y-72528571D01*
X94642857Y-73052380D02*
X94642857Y-72052380D01*
X95119047Y-72052380D01*
G04 #@! TO.C,U2*
X52154761Y-69309523D02*
X52202380Y-69166666D01*
X52202380Y-68928571D01*
X52154761Y-68833333D01*
X52107142Y-68785714D01*
X52011904Y-68738095D01*
X51916666Y-68738095D01*
X51821428Y-68785714D01*
X51773809Y-68833333D01*
X51726190Y-68928571D01*
X51678571Y-69119047D01*
X51630952Y-69214285D01*
X51583333Y-69261904D01*
X51488095Y-69309523D01*
X51392857Y-69309523D01*
X51297619Y-69261904D01*
X51250000Y-69214285D01*
X51202380Y-69119047D01*
X51202380Y-68880952D01*
X51250000Y-68738095D01*
X52202380Y-68309523D02*
X51202380Y-68309523D01*
X51202380Y-67976190D02*
X51202380Y-67404761D01*
X52202380Y-67690476D02*
X51202380Y-67690476D01*
X52202380Y-66547619D02*
X52202380Y-67119047D01*
X52202380Y-66833333D02*
X51202380Y-66833333D01*
X51345238Y-66928571D01*
X51440476Y-67023809D01*
X51488095Y-67119047D01*
X51202380Y-65642857D02*
X51202380Y-66119047D01*
X51678571Y-66166666D01*
X51630952Y-66119047D01*
X51583333Y-66023809D01*
X51583333Y-65785714D01*
X51630952Y-65690476D01*
X51678571Y-65642857D01*
X51773809Y-65595238D01*
X52011904Y-65595238D01*
X52107142Y-65642857D01*
X52154761Y-65690476D01*
X52202380Y-65785714D01*
X52202380Y-66023809D01*
X52154761Y-66119047D01*
X52107142Y-66166666D01*
X51202380Y-65261904D02*
X51202380Y-64642857D01*
X51583333Y-64976190D01*
X51583333Y-64833333D01*
X51630952Y-64738095D01*
X51678571Y-64690476D01*
X51773809Y-64642857D01*
X52011904Y-64642857D01*
X52107142Y-64690476D01*
X52154761Y-64738095D01*
X52202380Y-64833333D01*
X52202380Y-65119047D01*
X52154761Y-65214285D01*
X52107142Y-65261904D01*
X51297619Y-64261904D02*
X51250000Y-64214285D01*
X51202380Y-64119047D01*
X51202380Y-63880952D01*
X51250000Y-63785714D01*
X51297619Y-63738095D01*
X51392857Y-63690476D01*
X51488095Y-63690476D01*
X51630952Y-63738095D01*
X52202380Y-64309523D01*
X52202380Y-63690476D01*
G04 #@! TO.C,C6*
X56559523Y-64107142D02*
X56511904Y-64154761D01*
X56369047Y-64202380D01*
X56273809Y-64202380D01*
X56130952Y-64154761D01*
X56035714Y-64059523D01*
X55988095Y-63964285D01*
X55940476Y-63773809D01*
X55940476Y-63630952D01*
X55988095Y-63440476D01*
X56035714Y-63345238D01*
X56130952Y-63250000D01*
X56273809Y-63202380D01*
X56369047Y-63202380D01*
X56511904Y-63250000D01*
X56559523Y-63297619D01*
D13*
X56200000Y-62357142D02*
X56185714Y-62371428D01*
X56142857Y-62385714D01*
X56114285Y-62385714D01*
X56071428Y-62371428D01*
X56042857Y-62342857D01*
X56028571Y-62314285D01*
X56014285Y-62257142D01*
X56014285Y-62214285D01*
X56028571Y-62157142D01*
X56042857Y-62128571D01*
X56071428Y-62100000D01*
X56114285Y-62085714D01*
X56142857Y-62085714D01*
X56185714Y-62100000D01*
X56200000Y-62114285D01*
X56457142Y-62085714D02*
X56400000Y-62085714D01*
X56371428Y-62100000D01*
X56357142Y-62114285D01*
X56328571Y-62157142D01*
X56314285Y-62214285D01*
X56314285Y-62328571D01*
X56328571Y-62357142D01*
X56342857Y-62371428D01*
X56371428Y-62385714D01*
X56428571Y-62385714D01*
X56457142Y-62371428D01*
X56471428Y-62357142D01*
X56485714Y-62328571D01*
X56485714Y-62257142D01*
X56471428Y-62228571D01*
X56457142Y-62214285D01*
X56428571Y-62200000D01*
X56371428Y-62200000D01*
X56342857Y-62214285D01*
X56328571Y-62228571D01*
X56314285Y-62257142D01*
G04 #@! TO.C,C8*
D11*
X56309523Y-61877142D02*
X56261904Y-61924761D01*
X56119047Y-61972380D01*
X56023809Y-61972380D01*
X55880952Y-61924761D01*
X55785714Y-61829523D01*
X55738095Y-61734285D01*
X55690476Y-61543809D01*
X55690476Y-61400952D01*
X55738095Y-61210476D01*
X55785714Y-61115238D01*
X55880952Y-61020000D01*
X56023809Y-60972380D01*
X56119047Y-60972380D01*
X56261904Y-61020000D01*
X56309523Y-61067619D01*
X55833333Y-59337142D02*
X55785714Y-59384761D01*
X55642857Y-59432380D01*
X55547619Y-59432380D01*
X55404761Y-59384761D01*
X55309523Y-59289523D01*
X55261904Y-59194285D01*
X55214285Y-59003809D01*
X55214285Y-58860952D01*
X55261904Y-58670476D01*
X55309523Y-58575238D01*
X55404761Y-58480000D01*
X55547619Y-58432380D01*
X55642857Y-58432380D01*
X55785714Y-58480000D01*
X55833333Y-58527619D01*
X56404761Y-58860952D02*
X56309523Y-58813333D01*
X56261904Y-58765714D01*
X56214285Y-58670476D01*
X56214285Y-58622857D01*
X56261904Y-58527619D01*
X56309523Y-58480000D01*
X56404761Y-58432380D01*
X56595238Y-58432380D01*
X56690476Y-58480000D01*
X56738095Y-58527619D01*
X56785714Y-58622857D01*
X56785714Y-58670476D01*
X56738095Y-58765714D01*
X56690476Y-58813333D01*
X56595238Y-58860952D01*
X56404761Y-58860952D01*
X56309523Y-58908571D01*
X56261904Y-58956190D01*
X56214285Y-59051428D01*
X56214285Y-59241904D01*
X56261904Y-59337142D01*
X56309523Y-59384761D01*
X56404761Y-59432380D01*
X56595238Y-59432380D01*
X56690476Y-59384761D01*
X56738095Y-59337142D01*
X56785714Y-59241904D01*
X56785714Y-59051428D01*
X56738095Y-58956190D01*
X56690476Y-58908571D01*
X56595238Y-58860952D01*
G04 #@! TO.C,R7*
X88000000Y-65197619D02*
X88047619Y-65150000D01*
X88142857Y-65102380D01*
X88380952Y-65102380D01*
X88476190Y-65150000D01*
X88523809Y-65197619D01*
X88571428Y-65292857D01*
X88571428Y-65388095D01*
X88523809Y-65530952D01*
X87952380Y-66102380D01*
X88571428Y-66102380D01*
X89000000Y-66007142D02*
X89047619Y-66054761D01*
X89000000Y-66102380D01*
X88952380Y-66054761D01*
X89000000Y-66007142D01*
X89000000Y-66102380D01*
X89428571Y-65197619D02*
X89476190Y-65150000D01*
X89571428Y-65102380D01*
X89809523Y-65102380D01*
X89904761Y-65150000D01*
X89952380Y-65197619D01*
X90000000Y-65292857D01*
X90000000Y-65388095D01*
X89952380Y-65530952D01*
X89380952Y-66102380D01*
X90000000Y-66102380D01*
X91000000Y-66102380D02*
X90666666Y-65626190D01*
X90428571Y-66102380D02*
X90428571Y-65102380D01*
X90809523Y-65102380D01*
X90904761Y-65150000D01*
X90952380Y-65197619D01*
X91000000Y-65292857D01*
X91000000Y-65435714D01*
X90952380Y-65530952D01*
X90904761Y-65578571D01*
X90809523Y-65626190D01*
X90428571Y-65626190D01*
X89333333Y-68902380D02*
X89000000Y-68426190D01*
X88761904Y-68902380D02*
X88761904Y-67902380D01*
X89142857Y-67902380D01*
X89238095Y-67950000D01*
X89285714Y-67997619D01*
X89333333Y-68092857D01*
X89333333Y-68235714D01*
X89285714Y-68330952D01*
X89238095Y-68378571D01*
X89142857Y-68426190D01*
X88761904Y-68426190D01*
X89666666Y-67902380D02*
X90333333Y-67902380D01*
X89904761Y-68902380D01*
G04 #@! TO.C,R8*
X88000000Y-66097619D02*
X88047619Y-66050000D01*
X88142857Y-66002380D01*
X88380952Y-66002380D01*
X88476190Y-66050000D01*
X88523809Y-66097619D01*
X88571428Y-66192857D01*
X88571428Y-66288095D01*
X88523809Y-66430952D01*
X87952380Y-67002380D01*
X88571428Y-67002380D01*
X89000000Y-66907142D02*
X89047619Y-66954761D01*
X89000000Y-67002380D01*
X88952380Y-66954761D01*
X89000000Y-66907142D01*
X89000000Y-67002380D01*
X89428571Y-66097619D02*
X89476190Y-66050000D01*
X89571428Y-66002380D01*
X89809523Y-66002380D01*
X89904761Y-66050000D01*
X89952380Y-66097619D01*
X90000000Y-66192857D01*
X90000000Y-66288095D01*
X89952380Y-66430952D01*
X89380952Y-67002380D01*
X90000000Y-67002380D01*
X91000000Y-67002380D02*
X90666666Y-66526190D01*
X90428571Y-67002380D02*
X90428571Y-66002380D01*
X90809523Y-66002380D01*
X90904761Y-66050000D01*
X90952380Y-66097619D01*
X91000000Y-66192857D01*
X91000000Y-66335714D01*
X90952380Y-66430952D01*
X90904761Y-66478571D01*
X90809523Y-66526190D01*
X90428571Y-66526190D01*
X89333333Y-69802380D02*
X89000000Y-69326190D01*
X88761904Y-69802380D02*
X88761904Y-68802380D01*
X89142857Y-68802380D01*
X89238095Y-68850000D01*
X89285714Y-68897619D01*
X89333333Y-68992857D01*
X89333333Y-69135714D01*
X89285714Y-69230952D01*
X89238095Y-69278571D01*
X89142857Y-69326190D01*
X88761904Y-69326190D01*
X89904761Y-69230952D02*
X89809523Y-69183333D01*
X89761904Y-69135714D01*
X89714285Y-69040476D01*
X89714285Y-68992857D01*
X89761904Y-68897619D01*
X89809523Y-68850000D01*
X89904761Y-68802380D01*
X90095238Y-68802380D01*
X90190476Y-68850000D01*
X90238095Y-68897619D01*
X90285714Y-68992857D01*
X90285714Y-69040476D01*
X90238095Y-69135714D01*
X90190476Y-69183333D01*
X90095238Y-69230952D01*
X89904761Y-69230952D01*
X89809523Y-69278571D01*
X89761904Y-69326190D01*
X89714285Y-69421428D01*
X89714285Y-69611904D01*
X89761904Y-69707142D01*
X89809523Y-69754761D01*
X89904761Y-69802380D01*
X90095238Y-69802380D01*
X90190476Y-69754761D01*
X90238095Y-69707142D01*
X90285714Y-69611904D01*
X90285714Y-69421428D01*
X90238095Y-69326190D01*
X90190476Y-69278571D01*
X90095238Y-69230952D01*
G04 #@! TO.C,C188*
X88777619Y-70714285D02*
X88730000Y-70666666D01*
X88682380Y-70571428D01*
X88682380Y-70333333D01*
X88730000Y-70238095D01*
X88777619Y-70190476D01*
X88872857Y-70142857D01*
X88968095Y-70142857D01*
X89110952Y-70190476D01*
X89682380Y-70761904D01*
X89682380Y-70142857D01*
X88777619Y-69761904D02*
X88730000Y-69714285D01*
X88682380Y-69619047D01*
X88682380Y-69380952D01*
X88730000Y-69285714D01*
X88777619Y-69238095D01*
X88872857Y-69190476D01*
X88968095Y-69190476D01*
X89110952Y-69238095D01*
X89682380Y-69809523D01*
X89682380Y-69190476D01*
X89015714Y-68761904D02*
X90015714Y-68761904D01*
X89063333Y-68761904D02*
X89015714Y-68666666D01*
X89015714Y-68476190D01*
X89063333Y-68380952D01*
X89110952Y-68333333D01*
X89206190Y-68285714D01*
X89491904Y-68285714D01*
X89587142Y-68333333D01*
X89634761Y-68380952D01*
X89682380Y-68476190D01*
X89682380Y-68666666D01*
X89634761Y-68761904D01*
X92127142Y-70619047D02*
X92174761Y-70666666D01*
X92222380Y-70809523D01*
X92222380Y-70904761D01*
X92174761Y-71047619D01*
X92079523Y-71142857D01*
X91984285Y-71190476D01*
X91793809Y-71238095D01*
X91650952Y-71238095D01*
X91460476Y-71190476D01*
X91365238Y-71142857D01*
X91270000Y-71047619D01*
X91222380Y-70904761D01*
X91222380Y-70809523D01*
X91270000Y-70666666D01*
X91317619Y-70619047D01*
X92222380Y-69666666D02*
X92222380Y-70238095D01*
X92222380Y-69952380D02*
X91222380Y-69952380D01*
X91365238Y-70047619D01*
X91460476Y-70142857D01*
X91508095Y-70238095D01*
X91650952Y-69095238D02*
X91603333Y-69190476D01*
X91555714Y-69238095D01*
X91460476Y-69285714D01*
X91412857Y-69285714D01*
X91317619Y-69238095D01*
X91270000Y-69190476D01*
X91222380Y-69095238D01*
X91222380Y-68904761D01*
X91270000Y-68809523D01*
X91317619Y-68761904D01*
X91412857Y-68714285D01*
X91460476Y-68714285D01*
X91555714Y-68761904D01*
X91603333Y-68809523D01*
X91650952Y-68904761D01*
X91650952Y-69095238D01*
X91698571Y-69190476D01*
X91746190Y-69238095D01*
X91841428Y-69285714D01*
X92031904Y-69285714D01*
X92127142Y-69238095D01*
X92174761Y-69190476D01*
X92222380Y-69095238D01*
X92222380Y-68904761D01*
X92174761Y-68809523D01*
X92127142Y-68761904D01*
X92031904Y-68714285D01*
X91841428Y-68714285D01*
X91746190Y-68761904D01*
X91698571Y-68809523D01*
X91650952Y-68904761D01*
X91650952Y-68142857D02*
X91603333Y-68238095D01*
X91555714Y-68285714D01*
X91460476Y-68333333D01*
X91412857Y-68333333D01*
X91317619Y-68285714D01*
X91270000Y-68238095D01*
X91222380Y-68142857D01*
X91222380Y-67952380D01*
X91270000Y-67857142D01*
X91317619Y-67809523D01*
X91412857Y-67761904D01*
X91460476Y-67761904D01*
X91555714Y-67809523D01*
X91603333Y-67857142D01*
X91650952Y-67952380D01*
X91650952Y-68142857D01*
X91698571Y-68238095D01*
X91746190Y-68285714D01*
X91841428Y-68333333D01*
X92031904Y-68333333D01*
X92127142Y-68285714D01*
X92174761Y-68238095D01*
X92222380Y-68142857D01*
X92222380Y-67952380D01*
X92174761Y-67857142D01*
X92127142Y-67809523D01*
X92031904Y-67761904D01*
X91841428Y-67761904D01*
X91746190Y-67809523D01*
X91698571Y-67857142D01*
X91650952Y-67952380D01*
G04 #@! TO.C,C189*
X88285714Y-69977619D02*
X88333333Y-69930000D01*
X88428571Y-69882380D01*
X88666666Y-69882380D01*
X88761904Y-69930000D01*
X88809523Y-69977619D01*
X88857142Y-70072857D01*
X88857142Y-70168095D01*
X88809523Y-70310952D01*
X88238095Y-70882380D01*
X88857142Y-70882380D01*
X89238095Y-69977619D02*
X89285714Y-69930000D01*
X89380952Y-69882380D01*
X89619047Y-69882380D01*
X89714285Y-69930000D01*
X89761904Y-69977619D01*
X89809523Y-70072857D01*
X89809523Y-70168095D01*
X89761904Y-70310952D01*
X89190476Y-70882380D01*
X89809523Y-70882380D01*
X90238095Y-70215714D02*
X90238095Y-71215714D01*
X90238095Y-70263333D02*
X90333333Y-70215714D01*
X90523809Y-70215714D01*
X90619047Y-70263333D01*
X90666666Y-70310952D01*
X90714285Y-70406190D01*
X90714285Y-70691904D01*
X90666666Y-70787142D01*
X90619047Y-70834761D01*
X90523809Y-70882380D01*
X90333333Y-70882380D01*
X90238095Y-70834761D01*
X88380952Y-73327142D02*
X88333333Y-73374761D01*
X88190476Y-73422380D01*
X88095238Y-73422380D01*
X87952380Y-73374761D01*
X87857142Y-73279523D01*
X87809523Y-73184285D01*
X87761904Y-72993809D01*
X87761904Y-72850952D01*
X87809523Y-72660476D01*
X87857142Y-72565238D01*
X87952380Y-72470000D01*
X88095238Y-72422380D01*
X88190476Y-72422380D01*
X88333333Y-72470000D01*
X88380952Y-72517619D01*
X89333333Y-73422380D02*
X88761904Y-73422380D01*
X89047619Y-73422380D02*
X89047619Y-72422380D01*
X88952380Y-72565238D01*
X88857142Y-72660476D01*
X88761904Y-72708095D01*
X89904761Y-72850952D02*
X89809523Y-72803333D01*
X89761904Y-72755714D01*
X89714285Y-72660476D01*
X89714285Y-72612857D01*
X89761904Y-72517619D01*
X89809523Y-72470000D01*
X89904761Y-72422380D01*
X90095238Y-72422380D01*
X90190476Y-72470000D01*
X90238095Y-72517619D01*
X90285714Y-72612857D01*
X90285714Y-72660476D01*
X90238095Y-72755714D01*
X90190476Y-72803333D01*
X90095238Y-72850952D01*
X89904761Y-72850952D01*
X89809523Y-72898571D01*
X89761904Y-72946190D01*
X89714285Y-73041428D01*
X89714285Y-73231904D01*
X89761904Y-73327142D01*
X89809523Y-73374761D01*
X89904761Y-73422380D01*
X90095238Y-73422380D01*
X90190476Y-73374761D01*
X90238095Y-73327142D01*
X90285714Y-73231904D01*
X90285714Y-73041428D01*
X90238095Y-72946190D01*
X90190476Y-72898571D01*
X90095238Y-72850952D01*
X90761904Y-73422380D02*
X90952380Y-73422380D01*
X91047619Y-73374761D01*
X91095238Y-73327142D01*
X91190476Y-73184285D01*
X91238095Y-72993809D01*
X91238095Y-72612857D01*
X91190476Y-72517619D01*
X91142857Y-72470000D01*
X91047619Y-72422380D01*
X90857142Y-72422380D01*
X90761904Y-72470000D01*
X90714285Y-72517619D01*
X90666666Y-72612857D01*
X90666666Y-72850952D01*
X90714285Y-72946190D01*
X90761904Y-72993809D01*
X90857142Y-73041428D01*
X91047619Y-73041428D01*
X91142857Y-72993809D01*
X91190476Y-72946190D01*
X91238095Y-72850952D01*
G04 #@! TO.C,C190*
X88285714Y-69177619D02*
X88333333Y-69130000D01*
X88428571Y-69082380D01*
X88666666Y-69082380D01*
X88761904Y-69130000D01*
X88809523Y-69177619D01*
X88857142Y-69272857D01*
X88857142Y-69368095D01*
X88809523Y-69510952D01*
X88238095Y-70082380D01*
X88857142Y-70082380D01*
X89238095Y-69177619D02*
X89285714Y-69130000D01*
X89380952Y-69082380D01*
X89619047Y-69082380D01*
X89714285Y-69130000D01*
X89761904Y-69177619D01*
X89809523Y-69272857D01*
X89809523Y-69368095D01*
X89761904Y-69510952D01*
X89190476Y-70082380D01*
X89809523Y-70082380D01*
X90238095Y-69415714D02*
X90238095Y-70415714D01*
X90238095Y-69463333D02*
X90333333Y-69415714D01*
X90523809Y-69415714D01*
X90619047Y-69463333D01*
X90666666Y-69510952D01*
X90714285Y-69606190D01*
X90714285Y-69891904D01*
X90666666Y-69987142D01*
X90619047Y-70034761D01*
X90523809Y-70082380D01*
X90333333Y-70082380D01*
X90238095Y-70034761D01*
X88380952Y-72527142D02*
X88333333Y-72574761D01*
X88190476Y-72622380D01*
X88095238Y-72622380D01*
X87952380Y-72574761D01*
X87857142Y-72479523D01*
X87809523Y-72384285D01*
X87761904Y-72193809D01*
X87761904Y-72050952D01*
X87809523Y-71860476D01*
X87857142Y-71765238D01*
X87952380Y-71670000D01*
X88095238Y-71622380D01*
X88190476Y-71622380D01*
X88333333Y-71670000D01*
X88380952Y-71717619D01*
X89333333Y-72622380D02*
X88761904Y-72622380D01*
X89047619Y-72622380D02*
X89047619Y-71622380D01*
X88952380Y-71765238D01*
X88857142Y-71860476D01*
X88761904Y-71908095D01*
X89809523Y-72622380D02*
X90000000Y-72622380D01*
X90095238Y-72574761D01*
X90142857Y-72527142D01*
X90238095Y-72384285D01*
X90285714Y-72193809D01*
X90285714Y-71812857D01*
X90238095Y-71717619D01*
X90190476Y-71670000D01*
X90095238Y-71622380D01*
X89904761Y-71622380D01*
X89809523Y-71670000D01*
X89761904Y-71717619D01*
X89714285Y-71812857D01*
X89714285Y-72050952D01*
X89761904Y-72146190D01*
X89809523Y-72193809D01*
X89904761Y-72241428D01*
X90095238Y-72241428D01*
X90190476Y-72193809D01*
X90238095Y-72146190D01*
X90285714Y-72050952D01*
X90904761Y-71622380D02*
X91000000Y-71622380D01*
X91095238Y-71670000D01*
X91142857Y-71717619D01*
X91190476Y-71812857D01*
X91238095Y-72003333D01*
X91238095Y-72241428D01*
X91190476Y-72431904D01*
X91142857Y-72527142D01*
X91095238Y-72574761D01*
X91000000Y-72622380D01*
X90904761Y-72622380D01*
X90809523Y-72574761D01*
X90761904Y-72527142D01*
X90714285Y-72431904D01*
X90666666Y-72241428D01*
X90666666Y-72003333D01*
X90714285Y-71812857D01*
X90761904Y-71717619D01*
X90809523Y-71670000D01*
X90904761Y-71622380D01*
G04 #@! TO.C,L191*
X89147619Y-71552380D02*
X89100000Y-71504761D01*
X89052380Y-71409523D01*
X89052380Y-71171428D01*
X89100000Y-71076190D01*
X89147619Y-71028571D01*
X89242857Y-70980952D01*
X89338095Y-70980952D01*
X89480952Y-71028571D01*
X90052380Y-71600000D01*
X90052380Y-70980952D01*
X89957142Y-70552380D02*
X90004761Y-70504761D01*
X90052380Y-70552380D01*
X90004761Y-70600000D01*
X89957142Y-70552380D01*
X90052380Y-70552380D01*
X89147619Y-70123809D02*
X89100000Y-70076190D01*
X89052380Y-69980952D01*
X89052380Y-69742857D01*
X89100000Y-69647619D01*
X89147619Y-69600000D01*
X89242857Y-69552380D01*
X89338095Y-69552380D01*
X89480952Y-69600000D01*
X90052380Y-70171428D01*
X90052380Y-69552380D01*
X89385714Y-68695238D02*
X90052380Y-68695238D01*
X89385714Y-69123809D02*
X89909523Y-69123809D01*
X90004761Y-69076190D01*
X90052380Y-68980952D01*
X90052380Y-68838095D01*
X90004761Y-68742857D01*
X89957142Y-68695238D01*
D13*
X91680952Y-70547619D02*
X91680952Y-70738095D01*
X91280952Y-70738095D01*
X91680952Y-70204761D02*
X91680952Y-70433333D01*
X91680952Y-70319047D02*
X91280952Y-70319047D01*
X91338095Y-70357142D01*
X91376190Y-70395238D01*
X91395238Y-70433333D01*
X91680952Y-70014285D02*
X91680952Y-69938095D01*
X91661904Y-69900000D01*
X91642857Y-69880952D01*
X91585714Y-69842857D01*
X91509523Y-69823809D01*
X91357142Y-69823809D01*
X91319047Y-69842857D01*
X91300000Y-69861904D01*
X91280952Y-69900000D01*
X91280952Y-69976190D01*
X91300000Y-70014285D01*
X91319047Y-70033333D01*
X91357142Y-70052380D01*
X91452380Y-70052380D01*
X91490476Y-70033333D01*
X91509523Y-70014285D01*
X91528571Y-69976190D01*
X91528571Y-69900000D01*
X91509523Y-69861904D01*
X91490476Y-69842857D01*
X91452380Y-69823809D01*
X91680952Y-69442857D02*
X91680952Y-69671428D01*
X91680952Y-69557142D02*
X91280952Y-69557142D01*
X91338095Y-69595238D01*
X91376190Y-69633333D01*
X91395238Y-69671428D01*
G04 #@! TO.C,U187*
D11*
X83280952Y-70952380D02*
X83852380Y-70952380D01*
X83566666Y-71952380D02*
X83566666Y-70952380D01*
X84185714Y-71952380D02*
X84185714Y-70952380D01*
X84566666Y-70952380D01*
X84661904Y-71000000D01*
X84709523Y-71047619D01*
X84757142Y-71142857D01*
X84757142Y-71285714D01*
X84709523Y-71380952D01*
X84661904Y-71428571D01*
X84566666Y-71476190D01*
X84185714Y-71476190D01*
X85138095Y-71904761D02*
X85280952Y-71952380D01*
X85519047Y-71952380D01*
X85614285Y-71904761D01*
X85661904Y-71857142D01*
X85709523Y-71761904D01*
X85709523Y-71666666D01*
X85661904Y-71571428D01*
X85614285Y-71523809D01*
X85519047Y-71476190D01*
X85328571Y-71428571D01*
X85233333Y-71380952D01*
X85185714Y-71333333D01*
X85138095Y-71238095D01*
X85138095Y-71142857D01*
X85185714Y-71047619D01*
X85233333Y-71000000D01*
X85328571Y-70952380D01*
X85566666Y-70952380D01*
X85709523Y-71000000D01*
X86566666Y-70952380D02*
X86376190Y-70952380D01*
X86280952Y-71000000D01*
X86233333Y-71047619D01*
X86138095Y-71190476D01*
X86090476Y-71380952D01*
X86090476Y-71761904D01*
X86138095Y-71857142D01*
X86185714Y-71904761D01*
X86280952Y-71952380D01*
X86471428Y-71952380D01*
X86566666Y-71904761D01*
X86614285Y-71857142D01*
X86661904Y-71761904D01*
X86661904Y-71523809D01*
X86614285Y-71428571D01*
X86566666Y-71380952D01*
X86471428Y-71333333D01*
X86280952Y-71333333D01*
X86185714Y-71380952D01*
X86138095Y-71428571D01*
X86090476Y-71523809D01*
X87042857Y-71047619D02*
X87090476Y-71000000D01*
X87185714Y-70952380D01*
X87423809Y-70952380D01*
X87519047Y-71000000D01*
X87566666Y-71047619D01*
X87614285Y-71142857D01*
X87614285Y-71238095D01*
X87566666Y-71380952D01*
X86995238Y-71952380D01*
X87614285Y-71952380D01*
X88233333Y-70952380D02*
X88328571Y-70952380D01*
X88423809Y-71000000D01*
X88471428Y-71047619D01*
X88519047Y-71142857D01*
X88566666Y-71333333D01*
X88566666Y-71571428D01*
X88519047Y-71761904D01*
X88471428Y-71857142D01*
X88423809Y-71904761D01*
X88328571Y-71952380D01*
X88233333Y-71952380D01*
X88138095Y-71904761D01*
X88090476Y-71857142D01*
X88042857Y-71761904D01*
X87995238Y-71571428D01*
X87995238Y-71333333D01*
X88042857Y-71142857D01*
X88090476Y-71047619D01*
X88138095Y-71000000D01*
X88233333Y-70952380D01*
X89138095Y-71380952D02*
X89042857Y-71333333D01*
X88995238Y-71285714D01*
X88947619Y-71190476D01*
X88947619Y-71142857D01*
X88995238Y-71047619D01*
X89042857Y-71000000D01*
X89138095Y-70952380D01*
X89328571Y-70952380D01*
X89423809Y-71000000D01*
X89471428Y-71047619D01*
X89519047Y-71142857D01*
X89519047Y-71190476D01*
X89471428Y-71285714D01*
X89423809Y-71333333D01*
X89328571Y-71380952D01*
X89138095Y-71380952D01*
X89042857Y-71428571D01*
X88995238Y-71476190D01*
X88947619Y-71571428D01*
X88947619Y-71761904D01*
X88995238Y-71857142D01*
X89042857Y-71904761D01*
X89138095Y-71952380D01*
X89328571Y-71952380D01*
X89423809Y-71904761D01*
X89471428Y-71857142D01*
X89519047Y-71761904D01*
X89519047Y-71571428D01*
X89471428Y-71476190D01*
X89423809Y-71428571D01*
X89328571Y-71380952D01*
X90090476Y-71380952D02*
X89995238Y-71333333D01*
X89947619Y-71285714D01*
X89900000Y-71190476D01*
X89900000Y-71142857D01*
X89947619Y-71047619D01*
X89995238Y-71000000D01*
X90090476Y-70952380D01*
X90280952Y-70952380D01*
X90376190Y-71000000D01*
X90423809Y-71047619D01*
X90471428Y-71142857D01*
X90471428Y-71190476D01*
X90423809Y-71285714D01*
X90376190Y-71333333D01*
X90280952Y-71380952D01*
X90090476Y-71380952D01*
X89995238Y-71428571D01*
X89947619Y-71476190D01*
X89900000Y-71571428D01*
X89900000Y-71761904D01*
X89947619Y-71857142D01*
X89995238Y-71904761D01*
X90090476Y-71952380D01*
X90280952Y-71952380D01*
X90376190Y-71904761D01*
X90423809Y-71857142D01*
X90471428Y-71761904D01*
X90471428Y-71571428D01*
X90423809Y-71476190D01*
X90376190Y-71428571D01*
X90280952Y-71380952D01*
X90661904Y-72047619D02*
X91423809Y-72047619D01*
X91995238Y-71428571D02*
X91661904Y-71428571D01*
X91661904Y-71952380D02*
X91661904Y-70952380D01*
X92138095Y-70952380D01*
X92519047Y-71952380D02*
X92519047Y-70952380D01*
X92900000Y-70952380D02*
X93566666Y-71952380D01*
X93566666Y-70952380D02*
X92900000Y-71952380D01*
X93947619Y-71428571D02*
X94280952Y-71428571D01*
X94423809Y-71952380D02*
X93947619Y-71952380D01*
X93947619Y-70952380D01*
X94423809Y-70952380D01*
X94852380Y-71952380D02*
X94852380Y-70952380D01*
X95090476Y-70952380D01*
X95233333Y-71000000D01*
X95328571Y-71095238D01*
X95376190Y-71190476D01*
X95423809Y-71380952D01*
X95423809Y-71523809D01*
X95376190Y-71714285D01*
X95328571Y-71809523D01*
X95233333Y-71904761D01*
X95090476Y-71952380D01*
X94852380Y-71952380D01*
G04 #@! TO.C,C15*
X94047619Y-60714285D02*
X94000000Y-60666666D01*
X93952380Y-60571428D01*
X93952380Y-60333333D01*
X94000000Y-60238095D01*
X94047619Y-60190476D01*
X94142857Y-60142857D01*
X94238095Y-60142857D01*
X94380952Y-60190476D01*
X94952380Y-60761904D01*
X94952380Y-60142857D01*
X94047619Y-59761904D02*
X94000000Y-59714285D01*
X93952380Y-59619047D01*
X93952380Y-59380952D01*
X94000000Y-59285714D01*
X94047619Y-59238095D01*
X94142857Y-59190476D01*
X94238095Y-59190476D01*
X94380952Y-59238095D01*
X94952380Y-59809523D01*
X94952380Y-59190476D01*
X94285714Y-58333333D02*
X94952380Y-58333333D01*
X94285714Y-58761904D02*
X94809523Y-58761904D01*
X94904761Y-58714285D01*
X94952380Y-58619047D01*
X94952380Y-58476190D01*
X94904761Y-58380952D01*
X94857142Y-58333333D01*
D13*
X93107142Y-59692857D02*
X93121428Y-59707142D01*
X93135714Y-59750000D01*
X93135714Y-59778571D01*
X93121428Y-59821428D01*
X93092857Y-59850000D01*
X93064285Y-59864285D01*
X93007142Y-59878571D01*
X92964285Y-59878571D01*
X92907142Y-59864285D01*
X92878571Y-59850000D01*
X92850000Y-59821428D01*
X92835714Y-59778571D01*
X92835714Y-59750000D01*
X92850000Y-59707142D01*
X92864285Y-59692857D01*
X93135714Y-59407142D02*
X93135714Y-59578571D01*
X93135714Y-59492857D02*
X92835714Y-59492857D01*
X92878571Y-59521428D01*
X92907142Y-59550000D01*
X92921428Y-59578571D01*
X92835714Y-59135714D02*
X92835714Y-59278571D01*
X92978571Y-59292857D01*
X92964285Y-59278571D01*
X92950000Y-59250000D01*
X92950000Y-59178571D01*
X92964285Y-59150000D01*
X92978571Y-59135714D01*
X93007142Y-59121428D01*
X93078571Y-59121428D01*
X93107142Y-59135714D01*
X93121428Y-59150000D01*
X93135714Y-59178571D01*
X93135714Y-59250000D01*
X93121428Y-59278571D01*
X93107142Y-59292857D01*
G04 #@! TO.C,C268*
D11*
X88238095Y-67952380D02*
X87666666Y-67952380D01*
X87952380Y-67952380D02*
X87952380Y-66952380D01*
X87857142Y-67095238D01*
X87761904Y-67190476D01*
X87666666Y-67238095D01*
X88857142Y-66952380D02*
X88952380Y-66952380D01*
X89047619Y-67000000D01*
X89095238Y-67047619D01*
X89142857Y-67142857D01*
X89190476Y-67333333D01*
X89190476Y-67571428D01*
X89142857Y-67761904D01*
X89095238Y-67857142D01*
X89047619Y-67904761D01*
X88952380Y-67952380D01*
X88857142Y-67952380D01*
X88761904Y-67904761D01*
X88714285Y-67857142D01*
X88666666Y-67761904D01*
X88619047Y-67571428D01*
X88619047Y-67333333D01*
X88666666Y-67142857D01*
X88714285Y-67047619D01*
X88761904Y-67000000D01*
X88857142Y-66952380D01*
X90047619Y-67285714D02*
X90047619Y-67952380D01*
X89619047Y-67285714D02*
X89619047Y-67809523D01*
X89666666Y-67904761D01*
X89761904Y-67952380D01*
X89904761Y-67952380D01*
X90000000Y-67904761D01*
X90047619Y-67857142D01*
X90571428Y-67904761D02*
X90571428Y-67952380D01*
X90523809Y-68047619D01*
X90476190Y-68095238D01*
X91523809Y-67952380D02*
X90952380Y-67952380D01*
X91238095Y-67952380D02*
X91238095Y-66952380D01*
X91142857Y-67095238D01*
X91047619Y-67190476D01*
X90952380Y-67238095D01*
X92142857Y-66952380D02*
X92238095Y-66952380D01*
X92333333Y-67000000D01*
X92380952Y-67047619D01*
X92428571Y-67142857D01*
X92476190Y-67333333D01*
X92476190Y-67571428D01*
X92428571Y-67761904D01*
X92380952Y-67857142D01*
X92333333Y-67904761D01*
X92238095Y-67952380D01*
X92142857Y-67952380D01*
X92047619Y-67904761D01*
X92000000Y-67857142D01*
X91952380Y-67761904D01*
X91904761Y-67571428D01*
X91904761Y-67333333D01*
X91952380Y-67142857D01*
X92000000Y-67047619D01*
X92047619Y-67000000D01*
X92142857Y-66952380D01*
X92761904Y-66952380D02*
X93095238Y-67952380D01*
X93428571Y-66952380D01*
D13*
X90164285Y-66107142D02*
X90150000Y-66121428D01*
X90107142Y-66135714D01*
X90078571Y-66135714D01*
X90035714Y-66121428D01*
X90007142Y-66092857D01*
X89992857Y-66064285D01*
X89978571Y-66007142D01*
X89978571Y-65964285D01*
X89992857Y-65907142D01*
X90007142Y-65878571D01*
X90035714Y-65850000D01*
X90078571Y-65835714D01*
X90107142Y-65835714D01*
X90150000Y-65850000D01*
X90164285Y-65864285D01*
X90278571Y-65864285D02*
X90292857Y-65850000D01*
X90321428Y-65835714D01*
X90392857Y-65835714D01*
X90421428Y-65850000D01*
X90435714Y-65864285D01*
X90450000Y-65892857D01*
X90450000Y-65921428D01*
X90435714Y-65964285D01*
X90264285Y-66135714D01*
X90450000Y-66135714D01*
X90707142Y-65835714D02*
X90650000Y-65835714D01*
X90621428Y-65850000D01*
X90607142Y-65864285D01*
X90578571Y-65907142D01*
X90564285Y-65964285D01*
X90564285Y-66078571D01*
X90578571Y-66107142D01*
X90592857Y-66121428D01*
X90621428Y-66135714D01*
X90678571Y-66135714D01*
X90707142Y-66121428D01*
X90721428Y-66107142D01*
X90735714Y-66078571D01*
X90735714Y-66007142D01*
X90721428Y-65978571D01*
X90707142Y-65964285D01*
X90678571Y-65950000D01*
X90621428Y-65950000D01*
X90592857Y-65964285D01*
X90578571Y-65978571D01*
X90564285Y-66007142D01*
X90907142Y-65964285D02*
X90878571Y-65950000D01*
X90864285Y-65935714D01*
X90850000Y-65907142D01*
X90850000Y-65892857D01*
X90864285Y-65864285D01*
X90878571Y-65850000D01*
X90907142Y-65835714D01*
X90964285Y-65835714D01*
X90992857Y-65850000D01*
X91007142Y-65864285D01*
X91021428Y-65892857D01*
X91021428Y-65907142D01*
X91007142Y-65935714D01*
X90992857Y-65950000D01*
X90964285Y-65964285D01*
X90907142Y-65964285D01*
X90878571Y-65978571D01*
X90864285Y-65992857D01*
X90850000Y-66021428D01*
X90850000Y-66078571D01*
X90864285Y-66107142D01*
X90878571Y-66121428D01*
X90907142Y-66135714D01*
X90964285Y-66135714D01*
X90992857Y-66121428D01*
X91007142Y-66107142D01*
X91021428Y-66078571D01*
X91021428Y-66021428D01*
X91007142Y-65992857D01*
X90992857Y-65978571D01*
X90964285Y-65964285D01*
G04 #@! TO.C,J1*
D11*
X98902380Y-72023809D02*
X99711904Y-72023809D01*
X99807142Y-71976190D01*
X99854761Y-71928571D01*
X99902380Y-71833333D01*
X99902380Y-71642857D01*
X99854761Y-71547619D01*
X99807142Y-71500000D01*
X99711904Y-71452380D01*
X98902380Y-71452380D01*
X99854761Y-71023809D02*
X99902380Y-70880952D01*
X99902380Y-70642857D01*
X99854761Y-70547619D01*
X99807142Y-70500000D01*
X99711904Y-70452380D01*
X99616666Y-70452380D01*
X99521428Y-70500000D01*
X99473809Y-70547619D01*
X99426190Y-70642857D01*
X99378571Y-70833333D01*
X99330952Y-70928571D01*
X99283333Y-70976190D01*
X99188095Y-71023809D01*
X99092857Y-71023809D01*
X98997619Y-70976190D01*
X98950000Y-70928571D01*
X98902380Y-70833333D01*
X98902380Y-70595238D01*
X98950000Y-70452380D01*
X99378571Y-69690476D02*
X99426190Y-69547619D01*
X99473809Y-69500000D01*
X99569047Y-69452380D01*
X99711904Y-69452380D01*
X99807142Y-69500000D01*
X99854761Y-69547619D01*
X99902380Y-69642857D01*
X99902380Y-70023809D01*
X98902380Y-70023809D01*
X98902380Y-69690476D01*
X98950000Y-69595238D01*
X98997619Y-69547619D01*
X99092857Y-69500000D01*
X99188095Y-69500000D01*
X99283333Y-69547619D01*
X99330952Y-69595238D01*
X99378571Y-69690476D01*
X99378571Y-70023809D01*
X99997619Y-69261904D02*
X99997619Y-68500000D01*
X99378571Y-67928571D02*
X99426190Y-67785714D01*
X99473809Y-67738095D01*
X99569047Y-67690476D01*
X99711904Y-67690476D01*
X99807142Y-67738095D01*
X99854761Y-67785714D01*
X99902380Y-67880952D01*
X99902380Y-68261904D01*
X98902380Y-68261904D01*
X98902380Y-67928571D01*
X98950000Y-67833333D01*
X98997619Y-67785714D01*
X99092857Y-67738095D01*
X99188095Y-67738095D01*
X99283333Y-67785714D01*
X99330952Y-67833333D01*
X99378571Y-67928571D01*
X99378571Y-68261904D01*
X99997619Y-67500000D02*
X99997619Y-66738095D01*
X99902380Y-66500000D02*
X98902380Y-66500000D01*
X99616666Y-66166666D01*
X98902380Y-65833333D01*
X99902380Y-65833333D01*
X99902380Y-65357142D02*
X99235714Y-65357142D01*
X98902380Y-65357142D02*
X98950000Y-65404761D01*
X98997619Y-65357142D01*
X98950000Y-65309523D01*
X98902380Y-65357142D01*
X98997619Y-65357142D01*
X99854761Y-64452380D02*
X99902380Y-64547619D01*
X99902380Y-64738095D01*
X99854761Y-64833333D01*
X99807142Y-64880952D01*
X99711904Y-64928571D01*
X99426190Y-64928571D01*
X99330952Y-64880952D01*
X99283333Y-64833333D01*
X99235714Y-64738095D01*
X99235714Y-64547619D01*
X99283333Y-64452380D01*
X99902380Y-64023809D02*
X99235714Y-64023809D01*
X99426190Y-64023809D02*
X99330952Y-63976190D01*
X99283333Y-63928571D01*
X99235714Y-63833333D01*
X99235714Y-63738095D01*
X99902380Y-63261904D02*
X99854761Y-63357142D01*
X99807142Y-63404761D01*
X99711904Y-63452380D01*
X99426190Y-63452380D01*
X99330952Y-63404761D01*
X99283333Y-63357142D01*
X99235714Y-63261904D01*
X99235714Y-63119047D01*
X99283333Y-63023809D01*
X99330952Y-62976190D01*
X99426190Y-62928571D01*
X99711904Y-62928571D01*
X99807142Y-62976190D01*
X99854761Y-63023809D01*
X99902380Y-63119047D01*
X99902380Y-63261904D01*
X95502380Y-67833333D02*
X96216666Y-67833333D01*
X96359523Y-67880952D01*
X96454761Y-67976190D01*
X96502380Y-68119047D01*
X96502380Y-68214285D01*
X96502380Y-66833333D02*
X96502380Y-67404761D01*
X96502380Y-67119047D02*
X95502380Y-67119047D01*
X95645238Y-67214285D01*
X95740476Y-67309523D01*
X95788095Y-67404761D01*
G04 #@! TO.C,SW1*
X85190476Y-81304761D02*
X85333333Y-81352380D01*
X85571428Y-81352380D01*
X85666666Y-81304761D01*
X85714285Y-81257142D01*
X85761904Y-81161904D01*
X85761904Y-81066666D01*
X85714285Y-80971428D01*
X85666666Y-80923809D01*
X85571428Y-80876190D01*
X85380952Y-80828571D01*
X85285714Y-80780952D01*
X85238095Y-80733333D01*
X85190476Y-80638095D01*
X85190476Y-80542857D01*
X85238095Y-80447619D01*
X85285714Y-80400000D01*
X85380952Y-80352380D01*
X85619047Y-80352380D01*
X85761904Y-80400000D01*
X86095238Y-80352380D02*
X86333333Y-81352380D01*
X86523809Y-80638095D01*
X86714285Y-81352380D01*
X86952380Y-80352380D01*
X87095238Y-81447619D02*
X87857142Y-81447619D01*
X88047619Y-81304761D02*
X88190476Y-81352380D01*
X88428571Y-81352380D01*
X88523809Y-81304761D01*
X88571428Y-81257142D01*
X88619047Y-81161904D01*
X88619047Y-81066666D01*
X88571428Y-80971428D01*
X88523809Y-80923809D01*
X88428571Y-80876190D01*
X88238095Y-80828571D01*
X88142857Y-80780952D01*
X88095238Y-80733333D01*
X88047619Y-80638095D01*
X88047619Y-80542857D01*
X88095238Y-80447619D01*
X88142857Y-80400000D01*
X88238095Y-80352380D01*
X88476190Y-80352380D01*
X88619047Y-80400000D01*
X89047619Y-81352380D02*
X89047619Y-80352380D01*
X89619047Y-81352380D02*
X89190476Y-80780952D01*
X89619047Y-80352380D02*
X89047619Y-80923809D01*
X90000000Y-81304761D02*
X90142857Y-81352380D01*
X90380952Y-81352380D01*
X90476190Y-81304761D01*
X90523809Y-81257142D01*
X90571428Y-81161904D01*
X90571428Y-81066666D01*
X90523809Y-80971428D01*
X90476190Y-80923809D01*
X90380952Y-80876190D01*
X90190476Y-80828571D01*
X90095238Y-80780952D01*
X90047619Y-80733333D01*
X90000000Y-80638095D01*
X90000000Y-80542857D01*
X90047619Y-80447619D01*
X90095238Y-80400000D01*
X90190476Y-80352380D01*
X90428571Y-80352380D01*
X90571428Y-80400000D01*
X91571428Y-81257142D02*
X91523809Y-81304761D01*
X91380952Y-81352380D01*
X91285714Y-81352380D01*
X91142857Y-81304761D01*
X91047619Y-81209523D01*
X91000000Y-81114285D01*
X90952380Y-80923809D01*
X90952380Y-80780952D01*
X91000000Y-80590476D01*
X91047619Y-80495238D01*
X91142857Y-80400000D01*
X91285714Y-80352380D01*
X91380952Y-80352380D01*
X91523809Y-80400000D01*
X91571428Y-80447619D01*
X91761904Y-81447619D02*
X92523809Y-81447619D01*
X93190476Y-80685714D02*
X93190476Y-81352380D01*
X92952380Y-80304761D02*
X92714285Y-81019047D01*
X93333333Y-81019047D01*
X93714285Y-81352380D02*
X93714285Y-80352380D01*
X94095238Y-80352380D01*
X94190476Y-80400000D01*
X94238095Y-80447619D01*
X94285714Y-80542857D01*
X94285714Y-80685714D01*
X94238095Y-80780952D01*
X94190476Y-80828571D01*
X94095238Y-80876190D01*
X93714285Y-80876190D01*
X94714285Y-81352380D02*
X94714285Y-80352380D01*
X95190476Y-81352380D02*
X95190476Y-80352380D01*
X95761904Y-81352380D01*
X95761904Y-80352380D01*
G04 #@! TO.C,R201*
X93252380Y-59190476D02*
X92776190Y-59523809D01*
X93252380Y-59761904D02*
X92252380Y-59761904D01*
X92252380Y-59380952D01*
X92300000Y-59285714D01*
X92347619Y-59238095D01*
X92442857Y-59190476D01*
X92585714Y-59190476D01*
X92680952Y-59238095D01*
X92728571Y-59285714D01*
X92776190Y-59380952D01*
X92776190Y-59761904D01*
X96052380Y-60619047D02*
X95576190Y-60952380D01*
X96052380Y-61190476D02*
X95052380Y-61190476D01*
X95052380Y-60809523D01*
X95100000Y-60714285D01*
X95147619Y-60666666D01*
X95242857Y-60619047D01*
X95385714Y-60619047D01*
X95480952Y-60666666D01*
X95528571Y-60714285D01*
X95576190Y-60809523D01*
X95576190Y-61190476D01*
X95147619Y-60238095D02*
X95100000Y-60190476D01*
X95052380Y-60095238D01*
X95052380Y-59857142D01*
X95100000Y-59761904D01*
X95147619Y-59714285D01*
X95242857Y-59666666D01*
X95338095Y-59666666D01*
X95480952Y-59714285D01*
X96052380Y-60285714D01*
X96052380Y-59666666D01*
X95052380Y-59047619D02*
X95052380Y-58952380D01*
X95100000Y-58857142D01*
X95147619Y-58809523D01*
X95242857Y-58761904D01*
X95433333Y-58714285D01*
X95671428Y-58714285D01*
X95861904Y-58761904D01*
X95957142Y-58809523D01*
X96004761Y-58857142D01*
X96052380Y-58952380D01*
X96052380Y-59047619D01*
X96004761Y-59142857D01*
X95957142Y-59190476D01*
X95861904Y-59238095D01*
X95671428Y-59285714D01*
X95433333Y-59285714D01*
X95242857Y-59238095D01*
X95147619Y-59190476D01*
X95100000Y-59142857D01*
X95052380Y-59047619D01*
X96052380Y-57761904D02*
X96052380Y-58333333D01*
X96052380Y-58047619D02*
X95052380Y-58047619D01*
X95195238Y-58142857D01*
X95290476Y-58238095D01*
X95338095Y-58333333D01*
G04 #@! TO.C,C191*
X90685714Y-72517619D02*
X90733333Y-72470000D01*
X90828571Y-72422380D01*
X91066666Y-72422380D01*
X91161904Y-72470000D01*
X91209523Y-72517619D01*
X91257142Y-72612857D01*
X91257142Y-72708095D01*
X91209523Y-72850952D01*
X90638095Y-73422380D01*
X91257142Y-73422380D01*
X91638095Y-72517619D02*
X91685714Y-72470000D01*
X91780952Y-72422380D01*
X92019047Y-72422380D01*
X92114285Y-72470000D01*
X92161904Y-72517619D01*
X92209523Y-72612857D01*
X92209523Y-72708095D01*
X92161904Y-72850952D01*
X91590476Y-73422380D01*
X92209523Y-73422380D01*
X92638095Y-72755714D02*
X92638095Y-73755714D01*
X92638095Y-72803333D02*
X92733333Y-72755714D01*
X92923809Y-72755714D01*
X93019047Y-72803333D01*
X93066666Y-72850952D01*
X93114285Y-72946190D01*
X93114285Y-73231904D01*
X93066666Y-73327142D01*
X93019047Y-73374761D01*
X92923809Y-73422380D01*
X92733333Y-73422380D01*
X92638095Y-73374761D01*
X90780952Y-70787142D02*
X90733333Y-70834761D01*
X90590476Y-70882380D01*
X90495238Y-70882380D01*
X90352380Y-70834761D01*
X90257142Y-70739523D01*
X90209523Y-70644285D01*
X90161904Y-70453809D01*
X90161904Y-70310952D01*
X90209523Y-70120476D01*
X90257142Y-70025238D01*
X90352380Y-69930000D01*
X90495238Y-69882380D01*
X90590476Y-69882380D01*
X90733333Y-69930000D01*
X90780952Y-69977619D01*
X91733333Y-70882380D02*
X91161904Y-70882380D01*
X91447619Y-70882380D02*
X91447619Y-69882380D01*
X91352380Y-70025238D01*
X91257142Y-70120476D01*
X91161904Y-70168095D01*
X92209523Y-70882380D02*
X92400000Y-70882380D01*
X92495238Y-70834761D01*
X92542857Y-70787142D01*
X92638095Y-70644285D01*
X92685714Y-70453809D01*
X92685714Y-70072857D01*
X92638095Y-69977619D01*
X92590476Y-69930000D01*
X92495238Y-69882380D01*
X92304761Y-69882380D01*
X92209523Y-69930000D01*
X92161904Y-69977619D01*
X92114285Y-70072857D01*
X92114285Y-70310952D01*
X92161904Y-70406190D01*
X92209523Y-70453809D01*
X92304761Y-70501428D01*
X92495238Y-70501428D01*
X92590476Y-70453809D01*
X92638095Y-70406190D01*
X92685714Y-70310952D01*
X93638095Y-70882380D02*
X93066666Y-70882380D01*
X93352380Y-70882380D02*
X93352380Y-69882380D01*
X93257142Y-70025238D01*
X93161904Y-70120476D01*
X93066666Y-70168095D01*
G04 #@! TO.C,D200*
X94552380Y-60142857D02*
X94552380Y-60619047D01*
X93552380Y-60619047D01*
X94028571Y-59809523D02*
X94028571Y-59476190D01*
X94552380Y-59333333D02*
X94552380Y-59809523D01*
X93552380Y-59809523D01*
X93552380Y-59333333D01*
X94552380Y-58904761D02*
X93552380Y-58904761D01*
X93552380Y-58666666D01*
X93600000Y-58523809D01*
X93695238Y-58428571D01*
X93790476Y-58380952D01*
X93980952Y-58333333D01*
X94123809Y-58333333D01*
X94314285Y-58380952D01*
X94409523Y-58428571D01*
X94504761Y-58523809D01*
X94552380Y-58666666D01*
X94552380Y-58904761D01*
G04 #@! TO.C,RP0*
X40641904Y-51563333D02*
X40260952Y-51830000D01*
X40641904Y-52020476D02*
X39841904Y-52020476D01*
X39841904Y-51715714D01*
X39880000Y-51639523D01*
X39918095Y-51601428D01*
X39994285Y-51563333D01*
X40108571Y-51563333D01*
X40184761Y-51601428D01*
X40222857Y-51639523D01*
X40260952Y-51715714D01*
X40260952Y-52020476D01*
X40641904Y-51220476D02*
X39841904Y-51220476D01*
X39841904Y-50915714D01*
X39880000Y-50839523D01*
X39918095Y-50801428D01*
X39994285Y-50763333D01*
X40108571Y-50763333D01*
X40184761Y-50801428D01*
X40222857Y-50839523D01*
X40260952Y-50915714D01*
X40260952Y-51220476D01*
X39841904Y-50268095D02*
X39841904Y-50191904D01*
X39880000Y-50115714D01*
X39918095Y-50077619D01*
X39994285Y-50039523D01*
X40146666Y-50001428D01*
X40337142Y-50001428D01*
X40489523Y-50039523D01*
X40565714Y-50077619D01*
X40603809Y-50115714D01*
X40641904Y-50191904D01*
X40641904Y-50268095D01*
X40603809Y-50344285D01*
X40565714Y-50382380D01*
X40489523Y-50420476D01*
X40337142Y-50458571D01*
X40146666Y-50458571D01*
X39994285Y-50420476D01*
X39918095Y-50382380D01*
X39880000Y-50344285D01*
X39841904Y-50268095D01*
G04 #@! TD*
M02*
