G04 #@! TF.GenerationSoftware,KiCad,Pcbnew,5.0.2-bee76a0~70~ubuntu18.04.1*
G04 #@! TF.CreationDate,2019-05-16T13:37:02+08:00*
G04 #@! TF.ProjectId,require,72657175-6972-4652-9e6b-696361645f70,rev?*
G04 #@! TF.SameCoordinates,Original*
G04 #@! TF.FileFunction,Other,Fab,Bot*
%FSLAX46Y46*%
G04 Gerber Fmt 4.6, Leading zero omitted, Abs format (unit mm)*
G04 Created by KiCad (PCBNEW 5.0.2-bee76a0~70~ubuntu18.04.1) date 2019年05月16日 星期四 13时37分02秒*
%MOMM*%
%LPD*%
G01*
G04 APERTURE LIST*
%ADD10C,0.100000*%
%ADD11C,0.150000*%
%ADD12C,0.050000*%
%ADD13C,0.080000*%
%ADD14C,0.030000*%
%ADD15C,0.075000*%
G04 APERTURE END LIST*
D10*
G04 #@! TO.C,U830*
X71100000Y-54950000D02*
G75*
G03X71100000Y-54950000I-150000J0D01*
G01*
D11*
X70600000Y-57600000D02*
X70600000Y-54600000D01*
X72600000Y-57600000D02*
X70600000Y-57600000D01*
X72600000Y-54600000D02*
X72600000Y-57600000D01*
X70600000Y-54600000D02*
X72600000Y-54600000D01*
D10*
G04 #@! TO.C,U260*
X61250000Y-65500000D02*
X62250000Y-65500000D01*
X62250000Y-65500000D02*
X62250000Y-64500000D01*
X62250000Y-64500000D02*
X61250000Y-64500000D01*
X61250000Y-64500000D02*
X61250000Y-65500000D01*
X62150000Y-65300000D02*
G75*
G03X62150000Y-65300000I-100000J0D01*
G01*
G04 #@! TO.C,U220*
X65550000Y-72900000D02*
G75*
G03X65550000Y-72900000I-200000J0D01*
G01*
X65750000Y-74500000D02*
X65750000Y-72500000D01*
X63750000Y-74500000D02*
X65750000Y-74500000D01*
X63750000Y-72500000D02*
X63750000Y-74500000D01*
X65750000Y-72500000D02*
X63750000Y-72500000D01*
G04 #@! TO.C,U230*
X81350000Y-57100000D02*
G75*
G03X81350000Y-57100000I-200000J0D01*
G01*
X80750000Y-55500000D02*
X80750000Y-57500000D01*
X82750000Y-55500000D02*
X80750000Y-55500000D01*
X82750000Y-57500000D02*
X82750000Y-55500000D01*
X80750000Y-57500000D02*
X82750000Y-57500000D01*
G04 #@! TO.C,F229*
X64037500Y-68500000D02*
X64037500Y-68000000D01*
X63037500Y-68500000D02*
X64037500Y-68500000D01*
X63037500Y-68000000D02*
X63037500Y-68500000D01*
X64037500Y-68000000D02*
X63037500Y-68000000D01*
G04 #@! TO.C,F269*
X61250000Y-68000000D02*
X61250000Y-68500000D01*
X62250000Y-68000000D02*
X61250000Y-68000000D01*
X62250000Y-68500000D02*
X62250000Y-68000000D01*
X61250000Y-68500000D02*
X62250000Y-68500000D01*
G04 #@! TO.C,Y520*
X45450000Y-69250000D02*
X44950000Y-68750000D01*
X46450000Y-69250000D02*
X46550000Y-69150000D01*
X45050000Y-69250000D02*
X46450000Y-69250000D01*
X44950000Y-69150000D02*
X45050000Y-69250000D01*
X44950000Y-67350000D02*
X44950000Y-69150000D01*
X45050000Y-67250000D02*
X44950000Y-67350000D01*
X46450000Y-67250000D02*
X45050000Y-67250000D01*
X46550000Y-67350000D02*
X46450000Y-67250000D01*
X46550000Y-69150000D02*
X46550000Y-67350000D01*
G04 #@! TO.C,L220*
X63000000Y-74450000D02*
X61000000Y-74450000D01*
X61000000Y-74450000D02*
X61000000Y-76050000D01*
X61000000Y-76050000D02*
X63000000Y-76050000D01*
X63000000Y-76050000D02*
X63000000Y-74450000D01*
G04 #@! TO.C,U200*
X67400000Y-58300000D02*
X67400000Y-55200000D01*
X67400000Y-55200000D02*
X65600000Y-55200000D01*
X65600000Y-57650000D02*
X65600000Y-55200000D01*
X67400000Y-58300000D02*
X66250000Y-58300000D01*
X65600000Y-57650000D02*
X66250000Y-58300000D01*
G04 #@! TO.C,C251*
X39880000Y-59500000D02*
X39880000Y-61500000D01*
X39880000Y-61500000D02*
X41120000Y-61500000D01*
X41120000Y-61500000D02*
X41120000Y-59500000D01*
X41120000Y-59500000D02*
X39880000Y-59500000D01*
G04 #@! TO.C,C253*
X45370000Y-65250000D02*
X45370000Y-63250000D01*
X45370000Y-63250000D02*
X44130000Y-63250000D01*
X44130000Y-63250000D02*
X44130000Y-65250000D01*
X44130000Y-65250000D02*
X45370000Y-65250000D01*
G04 #@! TO.C,C201*
X67500000Y-53880000D02*
X65500000Y-53880000D01*
X65500000Y-53880000D02*
X65500000Y-55120000D01*
X65500000Y-55120000D02*
X67500000Y-55120000D01*
X67500000Y-55120000D02*
X67500000Y-53880000D01*
G04 #@! TO.C,C231*
X80500000Y-55120000D02*
X82500000Y-55120000D01*
X82500000Y-55120000D02*
X82500000Y-53880000D01*
X82500000Y-53880000D02*
X80500000Y-53880000D01*
X80500000Y-53880000D02*
X80500000Y-55120000D01*
G04 #@! TO.C,C510*
X49450000Y-68350000D02*
X49450000Y-69150000D01*
X51050000Y-68350000D02*
X49450000Y-68350000D01*
X51050000Y-69150000D02*
X51050000Y-68350000D01*
X49450000Y-69150000D02*
X51050000Y-69150000D01*
G04 #@! TO.C,C205*
X68662500Y-61412500D02*
X69462500Y-61412500D01*
X68662500Y-59812500D02*
X68662500Y-61412500D01*
X69462500Y-59812500D02*
X68662500Y-59812500D01*
X69462500Y-61412500D02*
X69462500Y-59812500D01*
G04 #@! TO.C,C225*
X64356250Y-66062500D02*
X65156250Y-66062500D01*
X64356250Y-64462500D02*
X64356250Y-66062500D01*
X65156250Y-64462500D02*
X64356250Y-64462500D01*
X65156250Y-66062500D02*
X65156250Y-64462500D01*
G04 #@! TO.C,C350*
X65493750Y-66062500D02*
X66293750Y-66062500D01*
X65493750Y-64462500D02*
X65493750Y-66062500D01*
X66293750Y-64462500D02*
X65493750Y-64462500D01*
X66293750Y-66062500D02*
X66293750Y-64462500D01*
G04 #@! TO.C,C203*
X61950000Y-56350000D02*
X61950000Y-57150000D01*
X63550000Y-56350000D02*
X61950000Y-56350000D01*
X63550000Y-57150000D02*
X63550000Y-56350000D01*
X61950000Y-57150000D02*
X63550000Y-57150000D01*
G04 #@! TO.C,C204*
X61950000Y-57350000D02*
X61950000Y-58150000D01*
X63550000Y-57350000D02*
X61950000Y-57350000D01*
X63550000Y-58150000D02*
X63550000Y-57350000D01*
X61950000Y-58150000D02*
X63550000Y-58150000D01*
G04 #@! TO.C,C233*
X85300000Y-56900000D02*
X85300000Y-56100000D01*
X83700000Y-56900000D02*
X85300000Y-56900000D01*
X83700000Y-56100000D02*
X83700000Y-56900000D01*
X85300000Y-56100000D02*
X83700000Y-56100000D01*
G04 #@! TO.C,C223*
X61200000Y-73100000D02*
X61200000Y-73900000D01*
X62800000Y-73100000D02*
X61200000Y-73100000D01*
X62800000Y-73900000D02*
X62800000Y-73100000D01*
X61200000Y-73900000D02*
X62800000Y-73900000D01*
G04 #@! TO.C,C300*
X83700000Y-71600000D02*
X83700000Y-72400000D01*
X85300000Y-71600000D02*
X83700000Y-71600000D01*
X85300000Y-72400000D02*
X85300000Y-71600000D01*
X83700000Y-72400000D02*
X85300000Y-72400000D01*
G04 #@! TO.C,C301*
X83700000Y-72600000D02*
X83700000Y-73400000D01*
X85300000Y-72600000D02*
X83700000Y-72600000D01*
X85300000Y-73400000D02*
X85300000Y-72600000D01*
X83700000Y-73400000D02*
X85300000Y-73400000D01*
G04 #@! TO.C,C511*
X49450000Y-69350000D02*
X49450000Y-70150000D01*
X51050000Y-69350000D02*
X49450000Y-69350000D01*
X51050000Y-70150000D02*
X51050000Y-69350000D01*
X49450000Y-70150000D02*
X51050000Y-70150000D01*
G04 #@! TO.C,C302*
X75300000Y-57200000D02*
X75300000Y-56400000D01*
X73700000Y-57200000D02*
X75300000Y-57200000D01*
X73700000Y-56400000D02*
X73700000Y-57200000D01*
X75300000Y-56400000D02*
X73700000Y-56400000D01*
G04 #@! TO.C,C520*
X44500000Y-68750000D02*
X44500000Y-67750000D01*
X44500000Y-67750000D02*
X44000000Y-67750000D01*
X44000000Y-67750000D02*
X44000000Y-68750000D01*
X44000000Y-68750000D02*
X44500000Y-68750000D01*
G04 #@! TO.C,C521*
X46250000Y-66250000D02*
X45250000Y-66250000D01*
X45250000Y-66250000D02*
X45250000Y-66750000D01*
X45250000Y-66750000D02*
X46250000Y-66750000D01*
X46250000Y-66750000D02*
X46250000Y-66250000D01*
G04 #@! TO.C,C310*
X84000000Y-59650000D02*
X85000000Y-59650000D01*
X85000000Y-59650000D02*
X85000000Y-59150000D01*
X85000000Y-59150000D02*
X84000000Y-59150000D01*
X84000000Y-59150000D02*
X84000000Y-59650000D01*
G04 #@! TO.C,C311*
X84000000Y-60450000D02*
X85000000Y-60450000D01*
X85000000Y-60450000D02*
X85000000Y-59950000D01*
X85000000Y-59950000D02*
X84000000Y-59950000D01*
X84000000Y-59950000D02*
X84000000Y-60450000D01*
G04 #@! TO.C,C312*
X84000000Y-62850000D02*
X85000000Y-62850000D01*
X85000000Y-62850000D02*
X85000000Y-62350000D01*
X85000000Y-62350000D02*
X84000000Y-62350000D01*
X84000000Y-62350000D02*
X84000000Y-62850000D01*
G04 #@! TO.C,C313*
X84000000Y-64450000D02*
X85000000Y-64450000D01*
X85000000Y-64450000D02*
X85000000Y-63950000D01*
X85000000Y-63950000D02*
X84000000Y-63950000D01*
X84000000Y-63950000D02*
X84000000Y-64450000D01*
G04 #@! TO.C,C314*
X84000000Y-66050000D02*
X85000000Y-66050000D01*
X85000000Y-66050000D02*
X85000000Y-65550000D01*
X85000000Y-65550000D02*
X84000000Y-65550000D01*
X84000000Y-65550000D02*
X84000000Y-66050000D01*
G04 #@! TO.C,C315*
X84000000Y-69250000D02*
X85000000Y-69250000D01*
X85000000Y-69250000D02*
X85000000Y-68750000D01*
X85000000Y-68750000D02*
X84000000Y-68750000D01*
X84000000Y-68750000D02*
X84000000Y-69250000D01*
G04 #@! TO.C,C316*
X84000000Y-70850000D02*
X85000000Y-70850000D01*
X85000000Y-70850000D02*
X85000000Y-70350000D01*
X85000000Y-70350000D02*
X84000000Y-70350000D01*
X84000000Y-70350000D02*
X84000000Y-70850000D01*
G04 #@! TO.C,C317*
X75000000Y-58350000D02*
X74000000Y-58350000D01*
X74000000Y-58350000D02*
X74000000Y-58850000D01*
X74000000Y-58850000D02*
X75000000Y-58850000D01*
X75000000Y-58850000D02*
X75000000Y-58350000D01*
G04 #@! TO.C,C318*
X75000000Y-59950000D02*
X74000000Y-59950000D01*
X74000000Y-59950000D02*
X74000000Y-60450000D01*
X74000000Y-60450000D02*
X75000000Y-60450000D01*
X75000000Y-60450000D02*
X75000000Y-59950000D01*
G04 #@! TO.C,C319*
X75000000Y-62350000D02*
X74000000Y-62350000D01*
X74000000Y-62350000D02*
X74000000Y-62850000D01*
X74000000Y-62850000D02*
X75000000Y-62850000D01*
X75000000Y-62850000D02*
X75000000Y-62350000D01*
G04 #@! TO.C,C320*
X75000000Y-64350000D02*
X74000000Y-64350000D01*
X74000000Y-64350000D02*
X74000000Y-64850000D01*
X74000000Y-64850000D02*
X75000000Y-64850000D01*
X75000000Y-64850000D02*
X75000000Y-64350000D01*
G04 #@! TO.C,C321*
X75000000Y-65150000D02*
X74000000Y-65150000D01*
X74000000Y-65150000D02*
X74000000Y-65650000D01*
X74000000Y-65650000D02*
X75000000Y-65650000D01*
X75000000Y-65650000D02*
X75000000Y-65150000D01*
G04 #@! TO.C,C322*
X75000000Y-67950000D02*
X74000000Y-67950000D01*
X74000000Y-67950000D02*
X74000000Y-68450000D01*
X74000000Y-68450000D02*
X75000000Y-68450000D01*
X75000000Y-68450000D02*
X75000000Y-67950000D01*
G04 #@! TO.C,C323*
X75000000Y-70350000D02*
X74000000Y-70350000D01*
X74000000Y-70350000D02*
X74000000Y-70850000D01*
X74000000Y-70850000D02*
X75000000Y-70850000D01*
X75000000Y-70850000D02*
X75000000Y-70350000D01*
G04 #@! TO.C,C330*
X79100000Y-60950000D02*
X80100000Y-60950000D01*
X80100000Y-60950000D02*
X80100000Y-60450000D01*
X80100000Y-60450000D02*
X79100000Y-60450000D01*
X79100000Y-60450000D02*
X79100000Y-60950000D01*
G04 #@! TO.C,C332*
X75000000Y-63550000D02*
X74000000Y-63550000D01*
X74000000Y-63550000D02*
X74000000Y-64050000D01*
X74000000Y-64050000D02*
X75000000Y-64050000D01*
X75000000Y-64050000D02*
X75000000Y-63550000D01*
G04 #@! TO.C,C340*
X79100000Y-64750000D02*
X80100000Y-64750000D01*
X80100000Y-64750000D02*
X80100000Y-64250000D01*
X80100000Y-64250000D02*
X79100000Y-64250000D01*
X79100000Y-64250000D02*
X79100000Y-64750000D01*
G04 #@! TO.C,C206*
X68337500Y-61112500D02*
X68337500Y-60112500D01*
X68337500Y-60112500D02*
X67837500Y-60112500D01*
X67837500Y-60112500D02*
X67837500Y-61112500D01*
X67837500Y-61112500D02*
X68337500Y-61112500D01*
G04 #@! TO.C,C207*
X67525000Y-61112500D02*
X67525000Y-60112500D01*
X67525000Y-60112500D02*
X67025000Y-60112500D01*
X67025000Y-60112500D02*
X67025000Y-61112500D01*
X67025000Y-61112500D02*
X67525000Y-61112500D01*
G04 #@! TO.C,C208*
X66712500Y-61112500D02*
X66712500Y-60112500D01*
X66712500Y-60112500D02*
X66212500Y-60112500D01*
X66212500Y-60112500D02*
X66212500Y-61112500D01*
X66212500Y-61112500D02*
X66712500Y-61112500D01*
G04 #@! TO.C,C255*
X68800000Y-63450000D02*
X67800000Y-63450000D01*
X67800000Y-63450000D02*
X67800000Y-63950000D01*
X67800000Y-63950000D02*
X68800000Y-63950000D01*
X68800000Y-63950000D02*
X68800000Y-63450000D01*
G04 #@! TO.C,C256*
X64500000Y-62650000D02*
X65500000Y-62650000D01*
X65500000Y-62650000D02*
X65500000Y-62150000D01*
X65500000Y-62150000D02*
X64500000Y-62150000D01*
X64500000Y-62150000D02*
X64500000Y-62650000D01*
G04 #@! TO.C,C257*
X63218750Y-65562500D02*
X63218750Y-64562500D01*
X63218750Y-64562500D02*
X62718750Y-64562500D01*
X62718750Y-64562500D02*
X62718750Y-65562500D01*
X62718750Y-65562500D02*
X63218750Y-65562500D01*
G04 #@! TO.C,C226*
X64031250Y-65562500D02*
X64031250Y-64562500D01*
X64031250Y-64562500D02*
X63531250Y-64562500D01*
X63531250Y-64562500D02*
X63531250Y-65562500D01*
X63531250Y-65562500D02*
X64031250Y-65562500D01*
G04 #@! TO.C,C351*
X67118750Y-65562500D02*
X67118750Y-64562500D01*
X67118750Y-64562500D02*
X66618750Y-64562500D01*
X66618750Y-64562500D02*
X66618750Y-65562500D01*
X66618750Y-65562500D02*
X67118750Y-65562500D01*
G04 #@! TO.C,C352*
X67931250Y-65562500D02*
X67931250Y-64562500D01*
X67931250Y-64562500D02*
X67431250Y-64562500D01*
X67431250Y-64562500D02*
X67431250Y-65562500D01*
X67431250Y-65562500D02*
X67931250Y-65562500D01*
G04 #@! TO.C,C265*
X60300000Y-68000000D02*
X59300000Y-68000000D01*
X59300000Y-68000000D02*
X59300000Y-68500000D01*
X59300000Y-68500000D02*
X60300000Y-68500000D01*
X60300000Y-68500000D02*
X60300000Y-68000000D01*
G04 #@! TO.C,C269*
X60850000Y-69618750D02*
X60850000Y-70618750D01*
X60850000Y-70618750D02*
X61350000Y-70618750D01*
X61350000Y-70618750D02*
X61350000Y-69618750D01*
X61350000Y-69618750D02*
X60850000Y-69618750D01*
G04 #@! TO.C,C229*
X63037500Y-69312500D02*
X64037500Y-69312500D01*
X64037500Y-69312500D02*
X64037500Y-68812500D01*
X64037500Y-68812500D02*
X63037500Y-68812500D01*
X63037500Y-68812500D02*
X63037500Y-69312500D01*
G04 #@! TO.C,C258*
X63037500Y-70125000D02*
X64037500Y-70125000D01*
X64037500Y-70125000D02*
X64037500Y-69625000D01*
X64037500Y-69625000D02*
X63037500Y-69625000D01*
X63037500Y-69625000D02*
X63037500Y-70125000D01*
G04 #@! TO.C,C110*
X59237500Y-70293750D02*
X59237500Y-69293750D01*
X59237500Y-69293750D02*
X58737500Y-69293750D01*
X58737500Y-69293750D02*
X58737500Y-70293750D01*
X58737500Y-70293750D02*
X59237500Y-70293750D01*
G04 #@! TO.C,C331*
X84000000Y-68250000D02*
X85000000Y-68250000D01*
X85000000Y-68250000D02*
X85000000Y-67750000D01*
X85000000Y-67750000D02*
X84000000Y-67750000D01*
X84000000Y-67750000D02*
X84000000Y-68250000D01*
G04 #@! TO.C,C830*
X70250000Y-57500000D02*
X70250000Y-56500000D01*
X70250000Y-56500000D02*
X69750000Y-56500000D01*
X69750000Y-56500000D02*
X69750000Y-57500000D01*
X69750000Y-57500000D02*
X70250000Y-57500000D01*
G04 #@! TO.C,C200*
X68500000Y-55800000D02*
X68500000Y-56800000D01*
X68500000Y-56800000D02*
X69000000Y-56800000D01*
X69000000Y-56800000D02*
X69000000Y-55800000D01*
X69000000Y-55800000D02*
X68500000Y-55800000D01*
G04 #@! TO.C,C260*
X61250000Y-63950000D02*
X62250000Y-63950000D01*
X62250000Y-63950000D02*
X62250000Y-63450000D01*
X62250000Y-63450000D02*
X61250000Y-63450000D01*
X61250000Y-63450000D02*
X61250000Y-63950000D01*
G04 #@! TO.C,C261*
X62200000Y-66050000D02*
X61200000Y-66050000D01*
X61200000Y-66050000D02*
X61200000Y-66550000D01*
X61200000Y-66550000D02*
X62200000Y-66550000D01*
X62200000Y-66550000D02*
X62200000Y-66050000D01*
G04 #@! TO.C,C252*
X45750000Y-60250000D02*
X44750000Y-60250000D01*
X44750000Y-60250000D02*
X44750000Y-60750000D01*
X44750000Y-60750000D02*
X45750000Y-60750000D01*
X45750000Y-60750000D02*
X45750000Y-60250000D01*
G04 #@! TO.C,C324*
X84000000Y-61250000D02*
X85000000Y-61250000D01*
X85000000Y-61250000D02*
X85000000Y-60750000D01*
X85000000Y-60750000D02*
X84000000Y-60750000D01*
X84000000Y-60750000D02*
X84000000Y-61250000D01*
G04 #@! TO.C,C325*
X75000000Y-61000000D02*
X74000000Y-61000000D01*
X74000000Y-61000000D02*
X74000000Y-61500000D01*
X74000000Y-61500000D02*
X75000000Y-61500000D01*
X75000000Y-61500000D02*
X75000000Y-61000000D01*
G04 #@! TO.C,C326*
X80100000Y-63050000D02*
X79100000Y-63050000D01*
X79100000Y-63050000D02*
X79100000Y-63550000D01*
X79100000Y-63550000D02*
X80100000Y-63550000D01*
X80100000Y-63550000D02*
X80100000Y-63050000D01*
G04 #@! TO.C,R830*
X70675000Y-60200000D02*
X70675000Y-60700000D01*
X71675000Y-60200000D02*
X70675000Y-60200000D01*
X71675000Y-60700000D02*
X71675000Y-60200000D01*
X70675000Y-60700000D02*
X71675000Y-60700000D01*
G04 #@! TO.C,R110*
X60050000Y-69618750D02*
X59550000Y-69618750D01*
X60050000Y-70618750D02*
X60050000Y-69618750D01*
X59550000Y-70618750D02*
X60050000Y-70618750D01*
X59550000Y-69618750D02*
X59550000Y-70618750D01*
G04 #@! TO.C,R50*
X84000000Y-66750000D02*
X84000000Y-67250000D01*
X85000000Y-66750000D02*
X84000000Y-66750000D01*
X85000000Y-67250000D02*
X85000000Y-66750000D01*
X84000000Y-67250000D02*
X85000000Y-67250000D01*
G04 #@! TO.C,R330*
X80100000Y-62550000D02*
X80100000Y-62050000D01*
X79100000Y-62550000D02*
X80100000Y-62550000D01*
X79100000Y-62050000D02*
X79100000Y-62550000D01*
X80100000Y-62050000D02*
X79100000Y-62050000D01*
G04 #@! TO.C,R331*
X79100000Y-61250000D02*
X79100000Y-61750000D01*
X80100000Y-61250000D02*
X79100000Y-61250000D01*
X80100000Y-61750000D02*
X80100000Y-61250000D01*
X79100000Y-61750000D02*
X80100000Y-61750000D01*
G04 #@! TO.C,R340*
X79100000Y-65950000D02*
X79100000Y-66450000D01*
X80100000Y-65950000D02*
X79100000Y-65950000D01*
X80100000Y-66450000D02*
X80100000Y-65950000D01*
X79100000Y-66450000D02*
X80100000Y-66450000D01*
G04 #@! TO.C,R341*
X79100000Y-65150000D02*
X79100000Y-65650000D01*
X80100000Y-65150000D02*
X79100000Y-65150000D01*
X80100000Y-65650000D02*
X80100000Y-65150000D01*
X79100000Y-65650000D02*
X80100000Y-65650000D01*
G04 #@! TO.C,R831*
X70675000Y-61175000D02*
X70675000Y-61675000D01*
X71675000Y-61175000D02*
X70675000Y-61175000D01*
X71675000Y-61675000D02*
X71675000Y-61175000D01*
X70675000Y-61675000D02*
X71675000Y-61675000D01*
G04 #@! TO.C,R410*
X70675000Y-62150000D02*
X70675000Y-62650000D01*
X71675000Y-62150000D02*
X70675000Y-62150000D01*
X71675000Y-62650000D02*
X71675000Y-62150000D01*
X70675000Y-62650000D02*
X71675000Y-62650000D01*
G04 #@! TO.C,R805*
X62243750Y-70025000D02*
X61743750Y-70025000D01*
X62243750Y-71025000D02*
X62243750Y-70025000D01*
X61743750Y-71025000D02*
X62243750Y-71025000D01*
X61743750Y-70025000D02*
X61743750Y-71025000D01*
G04 #@! TO.C,R400*
X61250000Y-61500000D02*
X61250000Y-62000000D01*
X62250000Y-61500000D02*
X61250000Y-61500000D01*
X62250000Y-62000000D02*
X62250000Y-61500000D01*
X61250000Y-62000000D02*
X62250000Y-62000000D01*
G04 #@! TO.C,R700*
X58425000Y-69293750D02*
X57925000Y-69293750D01*
X58425000Y-70293750D02*
X58425000Y-69293750D01*
X57925000Y-70293750D02*
X58425000Y-70293750D01*
X57925000Y-69293750D02*
X57925000Y-70293750D01*
G04 #@! TO.C,R701*
X57112500Y-70293750D02*
X57612500Y-70293750D01*
X57112500Y-69293750D02*
X57112500Y-70293750D01*
X57612500Y-69293750D02*
X57112500Y-69293750D01*
X57612500Y-70293750D02*
X57612500Y-69293750D01*
G04 #@! TO.C,R252*
X45750000Y-61750000D02*
X45750000Y-61250000D01*
X44750000Y-61750000D02*
X45750000Y-61750000D01*
X44750000Y-61250000D02*
X44750000Y-61750000D01*
X45750000Y-61250000D02*
X44750000Y-61250000D01*
G04 #@! TO.C,R253*
X44750000Y-59250000D02*
X44750000Y-59750000D01*
X45750000Y-59250000D02*
X44750000Y-59250000D01*
X45750000Y-59750000D02*
X45750000Y-59250000D01*
X44750000Y-59750000D02*
X45750000Y-59750000D01*
D11*
G04 #@! TO.C,U400*
X48250000Y-54000000D02*
X58750000Y-54000000D01*
X48250000Y-67000000D02*
X48250000Y-54000000D01*
X59750000Y-67000000D02*
X48250000Y-67000000D01*
X59750000Y-55000000D02*
X59750000Y-67000000D01*
X58750000Y-54000000D02*
X59750000Y-55000000D01*
D10*
G04 #@! TO.C,L230*
X83500000Y-55550000D02*
X85500000Y-55550000D01*
X85500000Y-55550000D02*
X85500000Y-53950000D01*
X85500000Y-53950000D02*
X83500000Y-53950000D01*
X83500000Y-53950000D02*
X83500000Y-55550000D01*
D11*
G04 #@! TO.C,L200*
X64000000Y-54000000D02*
X64000000Y-56000000D01*
X64000000Y-56000000D02*
X61500000Y-56000000D01*
X61500000Y-56000000D02*
X61500000Y-54000000D01*
X61500000Y-54000000D02*
X64000000Y-54000000D01*
D10*
G04 #@! TO.C,U250*
X43650000Y-61400000D02*
X44300000Y-60750000D01*
X44300000Y-59600000D02*
X44300000Y-60750000D01*
X43650000Y-61400000D02*
X41200000Y-61400000D01*
X41200000Y-59600000D02*
X41200000Y-61400000D01*
X44300000Y-59600000D02*
X41200000Y-59600000D01*
D11*
G04 #@! TO.C,L250*
X39750000Y-65500000D02*
X39750000Y-63000000D01*
X41750000Y-65500000D02*
X39750000Y-65500000D01*
X41750000Y-63000000D02*
X41750000Y-65500000D01*
X39750000Y-63000000D02*
X41750000Y-63000000D01*
D10*
G04 #@! TO.C,C254*
X42380000Y-65250000D02*
X43620000Y-65250000D01*
X42380000Y-63250000D02*
X42380000Y-65250000D01*
X43620000Y-63250000D02*
X42380000Y-63250000D01*
X43620000Y-65250000D02*
X43620000Y-63250000D01*
G04 #@! TO.C,C221*
X66000000Y-76120000D02*
X66000000Y-74880000D01*
X64000000Y-76120000D02*
X66000000Y-76120000D01*
X64000000Y-74880000D02*
X64000000Y-76120000D01*
X66000000Y-74880000D02*
X64000000Y-74880000D01*
G04 #@! TO.C,R812*
X73310000Y-75000000D02*
X72810000Y-75000000D01*
X73310000Y-76000000D02*
X73310000Y-75000000D01*
X72810000Y-76000000D02*
X73310000Y-76000000D01*
X72810000Y-75000000D02*
X72810000Y-76000000D01*
G04 #@! TO.C,R813*
X72010000Y-75000000D02*
X72010000Y-76000000D01*
X72010000Y-76000000D02*
X72510000Y-76000000D01*
X72510000Y-76000000D02*
X72510000Y-75000000D01*
X72510000Y-75000000D02*
X72010000Y-75000000D01*
G04 #@! TD*
G04 #@! TO.C,U830*
X71326190Y-55242857D02*
X71730952Y-55242857D01*
X71778571Y-55266666D01*
X71802380Y-55290476D01*
X71826190Y-55338095D01*
X71826190Y-55433333D01*
X71802380Y-55480952D01*
X71778571Y-55504761D01*
X71730952Y-55528571D01*
X71326190Y-55528571D01*
X71540476Y-55838095D02*
X71516666Y-55790476D01*
X71492857Y-55766666D01*
X71445238Y-55742857D01*
X71421428Y-55742857D01*
X71373809Y-55766666D01*
X71350000Y-55790476D01*
X71326190Y-55838095D01*
X71326190Y-55933333D01*
X71350000Y-55980952D01*
X71373809Y-56004761D01*
X71421428Y-56028571D01*
X71445238Y-56028571D01*
X71492857Y-56004761D01*
X71516666Y-55980952D01*
X71540476Y-55933333D01*
X71540476Y-55838095D01*
X71564285Y-55790476D01*
X71588095Y-55766666D01*
X71635714Y-55742857D01*
X71730952Y-55742857D01*
X71778571Y-55766666D01*
X71802380Y-55790476D01*
X71826190Y-55838095D01*
X71826190Y-55933333D01*
X71802380Y-55980952D01*
X71778571Y-56004761D01*
X71730952Y-56028571D01*
X71635714Y-56028571D01*
X71588095Y-56004761D01*
X71564285Y-55980952D01*
X71540476Y-55933333D01*
X71326190Y-56195238D02*
X71326190Y-56504761D01*
X71516666Y-56338095D01*
X71516666Y-56409523D01*
X71540476Y-56457142D01*
X71564285Y-56480952D01*
X71611904Y-56504761D01*
X71730952Y-56504761D01*
X71778571Y-56480952D01*
X71802380Y-56457142D01*
X71826190Y-56409523D01*
X71826190Y-56266666D01*
X71802380Y-56219047D01*
X71778571Y-56195238D01*
X71326190Y-56814285D02*
X71326190Y-56861904D01*
X71350000Y-56909523D01*
X71373809Y-56933333D01*
X71421428Y-56957142D01*
X71516666Y-56980952D01*
X71635714Y-56980952D01*
X71730952Y-56957142D01*
X71778571Y-56933333D01*
X71802380Y-56909523D01*
X71826190Y-56861904D01*
X71826190Y-56814285D01*
X71802380Y-56766666D01*
X71778571Y-56742857D01*
X71730952Y-56719047D01*
X71635714Y-56695238D01*
X71516666Y-56695238D01*
X71421428Y-56719047D01*
X71373809Y-56742857D01*
X71350000Y-56766666D01*
X71326190Y-56814285D01*
G04 #@! TO.C,U260*
D12*
X61640476Y-64657142D02*
X61802380Y-64657142D01*
X61821428Y-64666666D01*
X61830952Y-64676190D01*
X61840476Y-64695238D01*
X61840476Y-64733333D01*
X61830952Y-64752380D01*
X61821428Y-64761904D01*
X61802380Y-64771428D01*
X61640476Y-64771428D01*
X61659523Y-64857142D02*
X61650000Y-64866666D01*
X61640476Y-64885714D01*
X61640476Y-64933333D01*
X61650000Y-64952380D01*
X61659523Y-64961904D01*
X61678571Y-64971428D01*
X61697619Y-64971428D01*
X61726190Y-64961904D01*
X61840476Y-64847619D01*
X61840476Y-64971428D01*
X61640476Y-65142857D02*
X61640476Y-65104761D01*
X61650000Y-65085714D01*
X61659523Y-65076190D01*
X61688095Y-65057142D01*
X61726190Y-65047619D01*
X61802380Y-65047619D01*
X61821428Y-65057142D01*
X61830952Y-65066666D01*
X61840476Y-65085714D01*
X61840476Y-65123809D01*
X61830952Y-65142857D01*
X61821428Y-65152380D01*
X61802380Y-65161904D01*
X61754761Y-65161904D01*
X61735714Y-65152380D01*
X61726190Y-65142857D01*
X61716666Y-65123809D01*
X61716666Y-65085714D01*
X61726190Y-65066666D01*
X61735714Y-65057142D01*
X61754761Y-65047619D01*
X61640476Y-65285714D02*
X61640476Y-65304761D01*
X61650000Y-65323809D01*
X61659523Y-65333333D01*
X61678571Y-65342857D01*
X61716666Y-65352380D01*
X61764285Y-65352380D01*
X61802380Y-65342857D01*
X61821428Y-65333333D01*
X61830952Y-65323809D01*
X61840476Y-65304761D01*
X61840476Y-65285714D01*
X61830952Y-65266666D01*
X61821428Y-65257142D01*
X61802380Y-65247619D01*
X61764285Y-65238095D01*
X61716666Y-65238095D01*
X61678571Y-65247619D01*
X61659523Y-65257142D01*
X61650000Y-65266666D01*
X61640476Y-65285714D01*
G04 #@! TO.C,U220*
D13*
X65435714Y-73280952D02*
X65435714Y-73604761D01*
X65416666Y-73642857D01*
X65397619Y-73661904D01*
X65359523Y-73680952D01*
X65283333Y-73680952D01*
X65245238Y-73661904D01*
X65226190Y-73642857D01*
X65207142Y-73604761D01*
X65207142Y-73280952D01*
X65035714Y-73319047D02*
X65016666Y-73300000D01*
X64978571Y-73280952D01*
X64883333Y-73280952D01*
X64845238Y-73300000D01*
X64826190Y-73319047D01*
X64807142Y-73357142D01*
X64807142Y-73395238D01*
X64826190Y-73452380D01*
X65054761Y-73680952D01*
X64807142Y-73680952D01*
X64654761Y-73319047D02*
X64635714Y-73300000D01*
X64597619Y-73280952D01*
X64502380Y-73280952D01*
X64464285Y-73300000D01*
X64445238Y-73319047D01*
X64426190Y-73357142D01*
X64426190Y-73395238D01*
X64445238Y-73452380D01*
X64673809Y-73680952D01*
X64426190Y-73680952D01*
X64178571Y-73280952D02*
X64140476Y-73280952D01*
X64102380Y-73300000D01*
X64083333Y-73319047D01*
X64064285Y-73357142D01*
X64045238Y-73433333D01*
X64045238Y-73528571D01*
X64064285Y-73604761D01*
X64083333Y-73642857D01*
X64102380Y-73661904D01*
X64140476Y-73680952D01*
X64178571Y-73680952D01*
X64216666Y-73661904D01*
X64235714Y-73642857D01*
X64254761Y-73604761D01*
X64273809Y-73528571D01*
X64273809Y-73433333D01*
X64254761Y-73357142D01*
X64235714Y-73319047D01*
X64216666Y-73300000D01*
X64178571Y-73280952D01*
G04 #@! TO.C,U230*
X82435714Y-56280952D02*
X82435714Y-56604761D01*
X82416666Y-56642857D01*
X82397619Y-56661904D01*
X82359523Y-56680952D01*
X82283333Y-56680952D01*
X82245238Y-56661904D01*
X82226190Y-56642857D01*
X82207142Y-56604761D01*
X82207142Y-56280952D01*
X82035714Y-56319047D02*
X82016666Y-56300000D01*
X81978571Y-56280952D01*
X81883333Y-56280952D01*
X81845238Y-56300000D01*
X81826190Y-56319047D01*
X81807142Y-56357142D01*
X81807142Y-56395238D01*
X81826190Y-56452380D01*
X82054761Y-56680952D01*
X81807142Y-56680952D01*
X81654761Y-56319047D02*
X81635714Y-56300000D01*
X81597619Y-56280952D01*
X81502380Y-56280952D01*
X81464285Y-56300000D01*
X81445238Y-56319047D01*
X81426190Y-56357142D01*
X81426190Y-56395238D01*
X81445238Y-56452380D01*
X81673809Y-56680952D01*
X81426190Y-56680952D01*
X81178571Y-56280952D02*
X81140476Y-56280952D01*
X81102380Y-56300000D01*
X81083333Y-56319047D01*
X81064285Y-56357142D01*
X81045238Y-56433333D01*
X81045238Y-56528571D01*
X81064285Y-56604761D01*
X81083333Y-56642857D01*
X81102380Y-56661904D01*
X81140476Y-56680952D01*
X81178571Y-56680952D01*
X81216666Y-56661904D01*
X81235714Y-56642857D01*
X81254761Y-56604761D01*
X81273809Y-56528571D01*
X81273809Y-56433333D01*
X81254761Y-56357142D01*
X81235714Y-56319047D01*
X81216666Y-56300000D01*
X81178571Y-56280952D01*
G04 #@! TO.C,F229*
D14*
X63794642Y-68235714D02*
X63861309Y-68235714D01*
X63861309Y-68340476D02*
X63861309Y-68140476D01*
X63766071Y-68140476D01*
X63699404Y-68159523D02*
X63689880Y-68150000D01*
X63670833Y-68140476D01*
X63623214Y-68140476D01*
X63604166Y-68150000D01*
X63594642Y-68159523D01*
X63585119Y-68178571D01*
X63585119Y-68197619D01*
X63594642Y-68226190D01*
X63708928Y-68340476D01*
X63585119Y-68340476D01*
X63508928Y-68159523D02*
X63499404Y-68150000D01*
X63480357Y-68140476D01*
X63432738Y-68140476D01*
X63413690Y-68150000D01*
X63404166Y-68159523D01*
X63394642Y-68178571D01*
X63394642Y-68197619D01*
X63404166Y-68226190D01*
X63518452Y-68340476D01*
X63394642Y-68340476D01*
X63299404Y-68340476D02*
X63261309Y-68340476D01*
X63242261Y-68330952D01*
X63232738Y-68321428D01*
X63213690Y-68292857D01*
X63204166Y-68254761D01*
X63204166Y-68178571D01*
X63213690Y-68159523D01*
X63223214Y-68150000D01*
X63242261Y-68140476D01*
X63280357Y-68140476D01*
X63299404Y-68150000D01*
X63308928Y-68159523D01*
X63318452Y-68178571D01*
X63318452Y-68226190D01*
X63308928Y-68245238D01*
X63299404Y-68254761D01*
X63280357Y-68264285D01*
X63242261Y-68264285D01*
X63223214Y-68254761D01*
X63213690Y-68245238D01*
X63204166Y-68226190D01*
G04 #@! TO.C,F269*
X62007142Y-68235714D02*
X62073809Y-68235714D01*
X62073809Y-68340476D02*
X62073809Y-68140476D01*
X61978571Y-68140476D01*
X61911904Y-68159523D02*
X61902380Y-68150000D01*
X61883333Y-68140476D01*
X61835714Y-68140476D01*
X61816666Y-68150000D01*
X61807142Y-68159523D01*
X61797619Y-68178571D01*
X61797619Y-68197619D01*
X61807142Y-68226190D01*
X61921428Y-68340476D01*
X61797619Y-68340476D01*
X61626190Y-68140476D02*
X61664285Y-68140476D01*
X61683333Y-68150000D01*
X61692857Y-68159523D01*
X61711904Y-68188095D01*
X61721428Y-68226190D01*
X61721428Y-68302380D01*
X61711904Y-68321428D01*
X61702380Y-68330952D01*
X61683333Y-68340476D01*
X61645238Y-68340476D01*
X61626190Y-68330952D01*
X61616666Y-68321428D01*
X61607142Y-68302380D01*
X61607142Y-68254761D01*
X61616666Y-68235714D01*
X61626190Y-68226190D01*
X61645238Y-68216666D01*
X61683333Y-68216666D01*
X61702380Y-68226190D01*
X61711904Y-68235714D01*
X61721428Y-68254761D01*
X61511904Y-68340476D02*
X61473809Y-68340476D01*
X61454761Y-68330952D01*
X61445238Y-68321428D01*
X61426190Y-68292857D01*
X61416666Y-68254761D01*
X61416666Y-68178571D01*
X61426190Y-68159523D01*
X61435714Y-68150000D01*
X61454761Y-68140476D01*
X61492857Y-68140476D01*
X61511904Y-68150000D01*
X61521428Y-68159523D01*
X61530952Y-68178571D01*
X61530952Y-68226190D01*
X61521428Y-68245238D01*
X61511904Y-68254761D01*
X61492857Y-68264285D01*
X61454761Y-68264285D01*
X61435714Y-68254761D01*
X61426190Y-68245238D01*
X61416666Y-68226190D01*
G04 #@! TO.C,Y520*
D15*
X45738095Y-67535714D02*
X45976190Y-67535714D01*
X45476190Y-67369047D02*
X45738095Y-67535714D01*
X45476190Y-67702380D01*
X45476190Y-68107142D02*
X45476190Y-67869047D01*
X45714285Y-67845238D01*
X45690476Y-67869047D01*
X45666666Y-67916666D01*
X45666666Y-68035714D01*
X45690476Y-68083333D01*
X45714285Y-68107142D01*
X45761904Y-68130952D01*
X45880952Y-68130952D01*
X45928571Y-68107142D01*
X45952380Y-68083333D01*
X45976190Y-68035714D01*
X45976190Y-67916666D01*
X45952380Y-67869047D01*
X45928571Y-67845238D01*
X45523809Y-68321428D02*
X45500000Y-68345238D01*
X45476190Y-68392857D01*
X45476190Y-68511904D01*
X45500000Y-68559523D01*
X45523809Y-68583333D01*
X45571428Y-68607142D01*
X45619047Y-68607142D01*
X45690476Y-68583333D01*
X45976190Y-68297619D01*
X45976190Y-68607142D01*
X45476190Y-68916666D02*
X45476190Y-68964285D01*
X45500000Y-69011904D01*
X45523809Y-69035714D01*
X45571428Y-69059523D01*
X45666666Y-69083333D01*
X45785714Y-69083333D01*
X45880952Y-69059523D01*
X45928571Y-69035714D01*
X45952380Y-69011904D01*
X45976190Y-68964285D01*
X45976190Y-68916666D01*
X45952380Y-68869047D01*
X45928571Y-68845238D01*
X45880952Y-68821428D01*
X45785714Y-68797619D01*
X45666666Y-68797619D01*
X45571428Y-68821428D01*
X45523809Y-68845238D01*
X45500000Y-68869047D01*
X45476190Y-68916666D01*
G04 #@! TO.C,L220*
D13*
X62447619Y-75430952D02*
X62638095Y-75430952D01*
X62638095Y-75030952D01*
X62333333Y-75069047D02*
X62314285Y-75050000D01*
X62276190Y-75030952D01*
X62180952Y-75030952D01*
X62142857Y-75050000D01*
X62123809Y-75069047D01*
X62104761Y-75107142D01*
X62104761Y-75145238D01*
X62123809Y-75202380D01*
X62352380Y-75430952D01*
X62104761Y-75430952D01*
X61952380Y-75069047D02*
X61933333Y-75050000D01*
X61895238Y-75030952D01*
X61800000Y-75030952D01*
X61761904Y-75050000D01*
X61742857Y-75069047D01*
X61723809Y-75107142D01*
X61723809Y-75145238D01*
X61742857Y-75202380D01*
X61971428Y-75430952D01*
X61723809Y-75430952D01*
X61476190Y-75030952D02*
X61438095Y-75030952D01*
X61400000Y-75050000D01*
X61380952Y-75069047D01*
X61361904Y-75107142D01*
X61342857Y-75183333D01*
X61342857Y-75278571D01*
X61361904Y-75354761D01*
X61380952Y-75392857D01*
X61400000Y-75411904D01*
X61438095Y-75430952D01*
X61476190Y-75430952D01*
X61514285Y-75411904D01*
X61533333Y-75392857D01*
X61552380Y-75354761D01*
X61571428Y-75278571D01*
X61571428Y-75183333D01*
X61552380Y-75107142D01*
X61533333Y-75069047D01*
X61514285Y-75050000D01*
X61476190Y-75030952D01*
G04 #@! TO.C,U200*
D15*
X66773809Y-57607142D02*
X66369047Y-57607142D01*
X66321428Y-57583333D01*
X66297619Y-57559523D01*
X66273809Y-57511904D01*
X66273809Y-57416666D01*
X66297619Y-57369047D01*
X66321428Y-57345238D01*
X66369047Y-57321428D01*
X66773809Y-57321428D01*
X66726190Y-57107142D02*
X66750000Y-57083333D01*
X66773809Y-57035714D01*
X66773809Y-56916666D01*
X66750000Y-56869047D01*
X66726190Y-56845238D01*
X66678571Y-56821428D01*
X66630952Y-56821428D01*
X66559523Y-56845238D01*
X66273809Y-57130952D01*
X66273809Y-56821428D01*
X66773809Y-56511904D02*
X66773809Y-56464285D01*
X66750000Y-56416666D01*
X66726190Y-56392857D01*
X66678571Y-56369047D01*
X66583333Y-56345238D01*
X66464285Y-56345238D01*
X66369047Y-56369047D01*
X66321428Y-56392857D01*
X66297619Y-56416666D01*
X66273809Y-56464285D01*
X66273809Y-56511904D01*
X66297619Y-56559523D01*
X66321428Y-56583333D01*
X66369047Y-56607142D01*
X66464285Y-56630952D01*
X66583333Y-56630952D01*
X66678571Y-56607142D01*
X66726190Y-56583333D01*
X66750000Y-56559523D01*
X66773809Y-56511904D01*
X66773809Y-56035714D02*
X66773809Y-55988095D01*
X66750000Y-55940476D01*
X66726190Y-55916666D01*
X66678571Y-55892857D01*
X66583333Y-55869047D01*
X66464285Y-55869047D01*
X66369047Y-55892857D01*
X66321428Y-55916666D01*
X66297619Y-55940476D01*
X66273809Y-55988095D01*
X66273809Y-56035714D01*
X66297619Y-56083333D01*
X66321428Y-56107142D01*
X66369047Y-56130952D01*
X66464285Y-56154761D01*
X66583333Y-56154761D01*
X66678571Y-56130952D01*
X66726190Y-56107142D01*
X66750000Y-56083333D01*
X66773809Y-56035714D01*
G04 #@! TO.C,C251*
D10*
X40642857Y-60052380D02*
X40661904Y-60033333D01*
X40680952Y-59976190D01*
X40680952Y-59938095D01*
X40661904Y-59880952D01*
X40623809Y-59842857D01*
X40585714Y-59823809D01*
X40509523Y-59804761D01*
X40452380Y-59804761D01*
X40376190Y-59823809D01*
X40338095Y-59842857D01*
X40300000Y-59880952D01*
X40280952Y-59938095D01*
X40280952Y-59976190D01*
X40300000Y-60033333D01*
X40319047Y-60052380D01*
X40319047Y-60204761D02*
X40300000Y-60223809D01*
X40280952Y-60261904D01*
X40280952Y-60357142D01*
X40300000Y-60395238D01*
X40319047Y-60414285D01*
X40357142Y-60433333D01*
X40395238Y-60433333D01*
X40452380Y-60414285D01*
X40680952Y-60185714D01*
X40680952Y-60433333D01*
X40280952Y-60795238D02*
X40280952Y-60604761D01*
X40471428Y-60585714D01*
X40452380Y-60604761D01*
X40433333Y-60642857D01*
X40433333Y-60738095D01*
X40452380Y-60776190D01*
X40471428Y-60795238D01*
X40509523Y-60814285D01*
X40604761Y-60814285D01*
X40642857Y-60795238D01*
X40661904Y-60776190D01*
X40680952Y-60738095D01*
X40680952Y-60642857D01*
X40661904Y-60604761D01*
X40642857Y-60585714D01*
X40680952Y-61195238D02*
X40680952Y-60966666D01*
X40680952Y-61080952D02*
X40280952Y-61080952D01*
X40338095Y-61042857D01*
X40376190Y-61004761D01*
X40395238Y-60966666D01*
G04 #@! TO.C,C253*
X44892857Y-63802380D02*
X44911904Y-63783333D01*
X44930952Y-63726190D01*
X44930952Y-63688095D01*
X44911904Y-63630952D01*
X44873809Y-63592857D01*
X44835714Y-63573809D01*
X44759523Y-63554761D01*
X44702380Y-63554761D01*
X44626190Y-63573809D01*
X44588095Y-63592857D01*
X44550000Y-63630952D01*
X44530952Y-63688095D01*
X44530952Y-63726190D01*
X44550000Y-63783333D01*
X44569047Y-63802380D01*
X44569047Y-63954761D02*
X44550000Y-63973809D01*
X44530952Y-64011904D01*
X44530952Y-64107142D01*
X44550000Y-64145238D01*
X44569047Y-64164285D01*
X44607142Y-64183333D01*
X44645238Y-64183333D01*
X44702380Y-64164285D01*
X44930952Y-63935714D01*
X44930952Y-64183333D01*
X44530952Y-64545238D02*
X44530952Y-64354761D01*
X44721428Y-64335714D01*
X44702380Y-64354761D01*
X44683333Y-64392857D01*
X44683333Y-64488095D01*
X44702380Y-64526190D01*
X44721428Y-64545238D01*
X44759523Y-64564285D01*
X44854761Y-64564285D01*
X44892857Y-64545238D01*
X44911904Y-64526190D01*
X44930952Y-64488095D01*
X44930952Y-64392857D01*
X44911904Y-64354761D01*
X44892857Y-64335714D01*
X44530952Y-64697619D02*
X44530952Y-64945238D01*
X44683333Y-64811904D01*
X44683333Y-64869047D01*
X44702380Y-64907142D01*
X44721428Y-64926190D01*
X44759523Y-64945238D01*
X44854761Y-64945238D01*
X44892857Y-64926190D01*
X44911904Y-64907142D01*
X44930952Y-64869047D01*
X44930952Y-64754761D01*
X44911904Y-64716666D01*
X44892857Y-64697619D01*
G04 #@! TO.C,C201*
X66947619Y-54642857D02*
X66966666Y-54661904D01*
X67023809Y-54680952D01*
X67061904Y-54680952D01*
X67119047Y-54661904D01*
X67157142Y-54623809D01*
X67176190Y-54585714D01*
X67195238Y-54509523D01*
X67195238Y-54452380D01*
X67176190Y-54376190D01*
X67157142Y-54338095D01*
X67119047Y-54300000D01*
X67061904Y-54280952D01*
X67023809Y-54280952D01*
X66966666Y-54300000D01*
X66947619Y-54319047D01*
X66795238Y-54319047D02*
X66776190Y-54300000D01*
X66738095Y-54280952D01*
X66642857Y-54280952D01*
X66604761Y-54300000D01*
X66585714Y-54319047D01*
X66566666Y-54357142D01*
X66566666Y-54395238D01*
X66585714Y-54452380D01*
X66814285Y-54680952D01*
X66566666Y-54680952D01*
X66319047Y-54280952D02*
X66280952Y-54280952D01*
X66242857Y-54300000D01*
X66223809Y-54319047D01*
X66204761Y-54357142D01*
X66185714Y-54433333D01*
X66185714Y-54528571D01*
X66204761Y-54604761D01*
X66223809Y-54642857D01*
X66242857Y-54661904D01*
X66280952Y-54680952D01*
X66319047Y-54680952D01*
X66357142Y-54661904D01*
X66376190Y-54642857D01*
X66395238Y-54604761D01*
X66414285Y-54528571D01*
X66414285Y-54433333D01*
X66395238Y-54357142D01*
X66376190Y-54319047D01*
X66357142Y-54300000D01*
X66319047Y-54280952D01*
X65804761Y-54680952D02*
X66033333Y-54680952D01*
X65919047Y-54680952D02*
X65919047Y-54280952D01*
X65957142Y-54338095D01*
X65995238Y-54376190D01*
X66033333Y-54395238D01*
G04 #@! TO.C,C231*
X81947619Y-54642857D02*
X81966666Y-54661904D01*
X82023809Y-54680952D01*
X82061904Y-54680952D01*
X82119047Y-54661904D01*
X82157142Y-54623809D01*
X82176190Y-54585714D01*
X82195238Y-54509523D01*
X82195238Y-54452380D01*
X82176190Y-54376190D01*
X82157142Y-54338095D01*
X82119047Y-54300000D01*
X82061904Y-54280952D01*
X82023809Y-54280952D01*
X81966666Y-54300000D01*
X81947619Y-54319047D01*
X81795238Y-54319047D02*
X81776190Y-54300000D01*
X81738095Y-54280952D01*
X81642857Y-54280952D01*
X81604761Y-54300000D01*
X81585714Y-54319047D01*
X81566666Y-54357142D01*
X81566666Y-54395238D01*
X81585714Y-54452380D01*
X81814285Y-54680952D01*
X81566666Y-54680952D01*
X81433333Y-54280952D02*
X81185714Y-54280952D01*
X81319047Y-54433333D01*
X81261904Y-54433333D01*
X81223809Y-54452380D01*
X81204761Y-54471428D01*
X81185714Y-54509523D01*
X81185714Y-54604761D01*
X81204761Y-54642857D01*
X81223809Y-54661904D01*
X81261904Y-54680952D01*
X81376190Y-54680952D01*
X81414285Y-54661904D01*
X81433333Y-54642857D01*
X80804761Y-54680952D02*
X81033333Y-54680952D01*
X80919047Y-54680952D02*
X80919047Y-54280952D01*
X80957142Y-54338095D01*
X80995238Y-54376190D01*
X81033333Y-54395238D01*
G04 #@! TO.C,C510*
D15*
X50585714Y-68857142D02*
X50600000Y-68871428D01*
X50642857Y-68885714D01*
X50671428Y-68885714D01*
X50714285Y-68871428D01*
X50742857Y-68842857D01*
X50757142Y-68814285D01*
X50771428Y-68757142D01*
X50771428Y-68714285D01*
X50757142Y-68657142D01*
X50742857Y-68628571D01*
X50714285Y-68600000D01*
X50671428Y-68585714D01*
X50642857Y-68585714D01*
X50600000Y-68600000D01*
X50585714Y-68614285D01*
X50314285Y-68585714D02*
X50457142Y-68585714D01*
X50471428Y-68728571D01*
X50457142Y-68714285D01*
X50428571Y-68700000D01*
X50357142Y-68700000D01*
X50328571Y-68714285D01*
X50314285Y-68728571D01*
X50300000Y-68757142D01*
X50300000Y-68828571D01*
X50314285Y-68857142D01*
X50328571Y-68871428D01*
X50357142Y-68885714D01*
X50428571Y-68885714D01*
X50457142Y-68871428D01*
X50471428Y-68857142D01*
X50014285Y-68885714D02*
X50185714Y-68885714D01*
X50100000Y-68885714D02*
X50100000Y-68585714D01*
X50128571Y-68628571D01*
X50157142Y-68657142D01*
X50185714Y-68671428D01*
X49828571Y-68585714D02*
X49800000Y-68585714D01*
X49771428Y-68600000D01*
X49757142Y-68614285D01*
X49742857Y-68642857D01*
X49728571Y-68700000D01*
X49728571Y-68771428D01*
X49742857Y-68828571D01*
X49757142Y-68857142D01*
X49771428Y-68871428D01*
X49800000Y-68885714D01*
X49828571Y-68885714D01*
X49857142Y-68871428D01*
X49871428Y-68857142D01*
X49885714Y-68828571D01*
X49900000Y-68771428D01*
X49900000Y-68700000D01*
X49885714Y-68642857D01*
X49871428Y-68614285D01*
X49857142Y-68600000D01*
X49828571Y-68585714D01*
G04 #@! TO.C,C205*
X69169642Y-60276785D02*
X69183928Y-60262500D01*
X69198214Y-60219642D01*
X69198214Y-60191071D01*
X69183928Y-60148214D01*
X69155357Y-60119642D01*
X69126785Y-60105357D01*
X69069642Y-60091071D01*
X69026785Y-60091071D01*
X68969642Y-60105357D01*
X68941071Y-60119642D01*
X68912500Y-60148214D01*
X68898214Y-60191071D01*
X68898214Y-60219642D01*
X68912500Y-60262500D01*
X68926785Y-60276785D01*
X68926785Y-60391071D02*
X68912500Y-60405357D01*
X68898214Y-60433928D01*
X68898214Y-60505357D01*
X68912500Y-60533928D01*
X68926785Y-60548214D01*
X68955357Y-60562500D01*
X68983928Y-60562500D01*
X69026785Y-60548214D01*
X69198214Y-60376785D01*
X69198214Y-60562500D01*
X68898214Y-60748214D02*
X68898214Y-60776785D01*
X68912500Y-60805357D01*
X68926785Y-60819642D01*
X68955357Y-60833928D01*
X69012500Y-60848214D01*
X69083928Y-60848214D01*
X69141071Y-60833928D01*
X69169642Y-60819642D01*
X69183928Y-60805357D01*
X69198214Y-60776785D01*
X69198214Y-60748214D01*
X69183928Y-60719642D01*
X69169642Y-60705357D01*
X69141071Y-60691071D01*
X69083928Y-60676785D01*
X69012500Y-60676785D01*
X68955357Y-60691071D01*
X68926785Y-60705357D01*
X68912500Y-60719642D01*
X68898214Y-60748214D01*
X68898214Y-61119642D02*
X68898214Y-60976785D01*
X69041071Y-60962500D01*
X69026785Y-60976785D01*
X69012500Y-61005357D01*
X69012500Y-61076785D01*
X69026785Y-61105357D01*
X69041071Y-61119642D01*
X69069642Y-61133928D01*
X69141071Y-61133928D01*
X69169642Y-61119642D01*
X69183928Y-61105357D01*
X69198214Y-61076785D01*
X69198214Y-61005357D01*
X69183928Y-60976785D01*
X69169642Y-60962500D01*
G04 #@! TO.C,C225*
X64863392Y-64926785D02*
X64877678Y-64912500D01*
X64891964Y-64869642D01*
X64891964Y-64841071D01*
X64877678Y-64798214D01*
X64849107Y-64769642D01*
X64820535Y-64755357D01*
X64763392Y-64741071D01*
X64720535Y-64741071D01*
X64663392Y-64755357D01*
X64634821Y-64769642D01*
X64606250Y-64798214D01*
X64591964Y-64841071D01*
X64591964Y-64869642D01*
X64606250Y-64912500D01*
X64620535Y-64926785D01*
X64620535Y-65041071D02*
X64606250Y-65055357D01*
X64591964Y-65083928D01*
X64591964Y-65155357D01*
X64606250Y-65183928D01*
X64620535Y-65198214D01*
X64649107Y-65212500D01*
X64677678Y-65212500D01*
X64720535Y-65198214D01*
X64891964Y-65026785D01*
X64891964Y-65212500D01*
X64620535Y-65326785D02*
X64606250Y-65341071D01*
X64591964Y-65369642D01*
X64591964Y-65441071D01*
X64606250Y-65469642D01*
X64620535Y-65483928D01*
X64649107Y-65498214D01*
X64677678Y-65498214D01*
X64720535Y-65483928D01*
X64891964Y-65312500D01*
X64891964Y-65498214D01*
X64591964Y-65769642D02*
X64591964Y-65626785D01*
X64734821Y-65612500D01*
X64720535Y-65626785D01*
X64706250Y-65655357D01*
X64706250Y-65726785D01*
X64720535Y-65755357D01*
X64734821Y-65769642D01*
X64763392Y-65783928D01*
X64834821Y-65783928D01*
X64863392Y-65769642D01*
X64877678Y-65755357D01*
X64891964Y-65726785D01*
X64891964Y-65655357D01*
X64877678Y-65626785D01*
X64863392Y-65612500D01*
G04 #@! TO.C,C350*
X66000892Y-64926785D02*
X66015178Y-64912500D01*
X66029464Y-64869642D01*
X66029464Y-64841071D01*
X66015178Y-64798214D01*
X65986607Y-64769642D01*
X65958035Y-64755357D01*
X65900892Y-64741071D01*
X65858035Y-64741071D01*
X65800892Y-64755357D01*
X65772321Y-64769642D01*
X65743750Y-64798214D01*
X65729464Y-64841071D01*
X65729464Y-64869642D01*
X65743750Y-64912500D01*
X65758035Y-64926785D01*
X65729464Y-65026785D02*
X65729464Y-65212500D01*
X65843750Y-65112500D01*
X65843750Y-65155357D01*
X65858035Y-65183928D01*
X65872321Y-65198214D01*
X65900892Y-65212500D01*
X65972321Y-65212500D01*
X66000892Y-65198214D01*
X66015178Y-65183928D01*
X66029464Y-65155357D01*
X66029464Y-65069642D01*
X66015178Y-65041071D01*
X66000892Y-65026785D01*
X65729464Y-65483928D02*
X65729464Y-65341071D01*
X65872321Y-65326785D01*
X65858035Y-65341071D01*
X65843750Y-65369642D01*
X65843750Y-65441071D01*
X65858035Y-65469642D01*
X65872321Y-65483928D01*
X65900892Y-65498214D01*
X65972321Y-65498214D01*
X66000892Y-65483928D01*
X66015178Y-65469642D01*
X66029464Y-65441071D01*
X66029464Y-65369642D01*
X66015178Y-65341071D01*
X66000892Y-65326785D01*
X65729464Y-65683928D02*
X65729464Y-65712500D01*
X65743750Y-65741071D01*
X65758035Y-65755357D01*
X65786607Y-65769642D01*
X65843750Y-65783928D01*
X65915178Y-65783928D01*
X65972321Y-65769642D01*
X66000892Y-65755357D01*
X66015178Y-65741071D01*
X66029464Y-65712500D01*
X66029464Y-65683928D01*
X66015178Y-65655357D01*
X66000892Y-65641071D01*
X65972321Y-65626785D01*
X65915178Y-65612500D01*
X65843750Y-65612500D01*
X65786607Y-65626785D01*
X65758035Y-65641071D01*
X65743750Y-65655357D01*
X65729464Y-65683928D01*
G04 #@! TO.C,C203*
X63085714Y-56857142D02*
X63100000Y-56871428D01*
X63142857Y-56885714D01*
X63171428Y-56885714D01*
X63214285Y-56871428D01*
X63242857Y-56842857D01*
X63257142Y-56814285D01*
X63271428Y-56757142D01*
X63271428Y-56714285D01*
X63257142Y-56657142D01*
X63242857Y-56628571D01*
X63214285Y-56600000D01*
X63171428Y-56585714D01*
X63142857Y-56585714D01*
X63100000Y-56600000D01*
X63085714Y-56614285D01*
X62971428Y-56614285D02*
X62957142Y-56600000D01*
X62928571Y-56585714D01*
X62857142Y-56585714D01*
X62828571Y-56600000D01*
X62814285Y-56614285D01*
X62800000Y-56642857D01*
X62800000Y-56671428D01*
X62814285Y-56714285D01*
X62985714Y-56885714D01*
X62800000Y-56885714D01*
X62614285Y-56585714D02*
X62585714Y-56585714D01*
X62557142Y-56600000D01*
X62542857Y-56614285D01*
X62528571Y-56642857D01*
X62514285Y-56700000D01*
X62514285Y-56771428D01*
X62528571Y-56828571D01*
X62542857Y-56857142D01*
X62557142Y-56871428D01*
X62585714Y-56885714D01*
X62614285Y-56885714D01*
X62642857Y-56871428D01*
X62657142Y-56857142D01*
X62671428Y-56828571D01*
X62685714Y-56771428D01*
X62685714Y-56700000D01*
X62671428Y-56642857D01*
X62657142Y-56614285D01*
X62642857Y-56600000D01*
X62614285Y-56585714D01*
X62414285Y-56585714D02*
X62228571Y-56585714D01*
X62328571Y-56700000D01*
X62285714Y-56700000D01*
X62257142Y-56714285D01*
X62242857Y-56728571D01*
X62228571Y-56757142D01*
X62228571Y-56828571D01*
X62242857Y-56857142D01*
X62257142Y-56871428D01*
X62285714Y-56885714D01*
X62371428Y-56885714D01*
X62400000Y-56871428D01*
X62414285Y-56857142D01*
G04 #@! TO.C,C204*
X63085714Y-57857142D02*
X63100000Y-57871428D01*
X63142857Y-57885714D01*
X63171428Y-57885714D01*
X63214285Y-57871428D01*
X63242857Y-57842857D01*
X63257142Y-57814285D01*
X63271428Y-57757142D01*
X63271428Y-57714285D01*
X63257142Y-57657142D01*
X63242857Y-57628571D01*
X63214285Y-57600000D01*
X63171428Y-57585714D01*
X63142857Y-57585714D01*
X63100000Y-57600000D01*
X63085714Y-57614285D01*
X62971428Y-57614285D02*
X62957142Y-57600000D01*
X62928571Y-57585714D01*
X62857142Y-57585714D01*
X62828571Y-57600000D01*
X62814285Y-57614285D01*
X62800000Y-57642857D01*
X62800000Y-57671428D01*
X62814285Y-57714285D01*
X62985714Y-57885714D01*
X62800000Y-57885714D01*
X62614285Y-57585714D02*
X62585714Y-57585714D01*
X62557142Y-57600000D01*
X62542857Y-57614285D01*
X62528571Y-57642857D01*
X62514285Y-57700000D01*
X62514285Y-57771428D01*
X62528571Y-57828571D01*
X62542857Y-57857142D01*
X62557142Y-57871428D01*
X62585714Y-57885714D01*
X62614285Y-57885714D01*
X62642857Y-57871428D01*
X62657142Y-57857142D01*
X62671428Y-57828571D01*
X62685714Y-57771428D01*
X62685714Y-57700000D01*
X62671428Y-57642857D01*
X62657142Y-57614285D01*
X62642857Y-57600000D01*
X62614285Y-57585714D01*
X62257142Y-57685714D02*
X62257142Y-57885714D01*
X62328571Y-57571428D02*
X62400000Y-57785714D01*
X62214285Y-57785714D01*
G04 #@! TO.C,C233*
X84835714Y-56607142D02*
X84850000Y-56621428D01*
X84892857Y-56635714D01*
X84921428Y-56635714D01*
X84964285Y-56621428D01*
X84992857Y-56592857D01*
X85007142Y-56564285D01*
X85021428Y-56507142D01*
X85021428Y-56464285D01*
X85007142Y-56407142D01*
X84992857Y-56378571D01*
X84964285Y-56350000D01*
X84921428Y-56335714D01*
X84892857Y-56335714D01*
X84850000Y-56350000D01*
X84835714Y-56364285D01*
X84721428Y-56364285D02*
X84707142Y-56350000D01*
X84678571Y-56335714D01*
X84607142Y-56335714D01*
X84578571Y-56350000D01*
X84564285Y-56364285D01*
X84550000Y-56392857D01*
X84550000Y-56421428D01*
X84564285Y-56464285D01*
X84735714Y-56635714D01*
X84550000Y-56635714D01*
X84450000Y-56335714D02*
X84264285Y-56335714D01*
X84364285Y-56450000D01*
X84321428Y-56450000D01*
X84292857Y-56464285D01*
X84278571Y-56478571D01*
X84264285Y-56507142D01*
X84264285Y-56578571D01*
X84278571Y-56607142D01*
X84292857Y-56621428D01*
X84321428Y-56635714D01*
X84407142Y-56635714D01*
X84435714Y-56621428D01*
X84450000Y-56607142D01*
X84164285Y-56335714D02*
X83978571Y-56335714D01*
X84078571Y-56450000D01*
X84035714Y-56450000D01*
X84007142Y-56464285D01*
X83992857Y-56478571D01*
X83978571Y-56507142D01*
X83978571Y-56578571D01*
X83992857Y-56607142D01*
X84007142Y-56621428D01*
X84035714Y-56635714D01*
X84121428Y-56635714D01*
X84150000Y-56621428D01*
X84164285Y-56607142D01*
G04 #@! TO.C,C223*
X62335714Y-73607142D02*
X62350000Y-73621428D01*
X62392857Y-73635714D01*
X62421428Y-73635714D01*
X62464285Y-73621428D01*
X62492857Y-73592857D01*
X62507142Y-73564285D01*
X62521428Y-73507142D01*
X62521428Y-73464285D01*
X62507142Y-73407142D01*
X62492857Y-73378571D01*
X62464285Y-73350000D01*
X62421428Y-73335714D01*
X62392857Y-73335714D01*
X62350000Y-73350000D01*
X62335714Y-73364285D01*
X62221428Y-73364285D02*
X62207142Y-73350000D01*
X62178571Y-73335714D01*
X62107142Y-73335714D01*
X62078571Y-73350000D01*
X62064285Y-73364285D01*
X62050000Y-73392857D01*
X62050000Y-73421428D01*
X62064285Y-73464285D01*
X62235714Y-73635714D01*
X62050000Y-73635714D01*
X61935714Y-73364285D02*
X61921428Y-73350000D01*
X61892857Y-73335714D01*
X61821428Y-73335714D01*
X61792857Y-73350000D01*
X61778571Y-73364285D01*
X61764285Y-73392857D01*
X61764285Y-73421428D01*
X61778571Y-73464285D01*
X61950000Y-73635714D01*
X61764285Y-73635714D01*
X61664285Y-73335714D02*
X61478571Y-73335714D01*
X61578571Y-73450000D01*
X61535714Y-73450000D01*
X61507142Y-73464285D01*
X61492857Y-73478571D01*
X61478571Y-73507142D01*
X61478571Y-73578571D01*
X61492857Y-73607142D01*
X61507142Y-73621428D01*
X61535714Y-73635714D01*
X61621428Y-73635714D01*
X61650000Y-73621428D01*
X61664285Y-73607142D01*
G04 #@! TO.C,C300*
X84835714Y-72107142D02*
X84850000Y-72121428D01*
X84892857Y-72135714D01*
X84921428Y-72135714D01*
X84964285Y-72121428D01*
X84992857Y-72092857D01*
X85007142Y-72064285D01*
X85021428Y-72007142D01*
X85021428Y-71964285D01*
X85007142Y-71907142D01*
X84992857Y-71878571D01*
X84964285Y-71850000D01*
X84921428Y-71835714D01*
X84892857Y-71835714D01*
X84850000Y-71850000D01*
X84835714Y-71864285D01*
X84735714Y-71835714D02*
X84550000Y-71835714D01*
X84650000Y-71950000D01*
X84607142Y-71950000D01*
X84578571Y-71964285D01*
X84564285Y-71978571D01*
X84550000Y-72007142D01*
X84550000Y-72078571D01*
X84564285Y-72107142D01*
X84578571Y-72121428D01*
X84607142Y-72135714D01*
X84692857Y-72135714D01*
X84721428Y-72121428D01*
X84735714Y-72107142D01*
X84364285Y-71835714D02*
X84335714Y-71835714D01*
X84307142Y-71850000D01*
X84292857Y-71864285D01*
X84278571Y-71892857D01*
X84264285Y-71950000D01*
X84264285Y-72021428D01*
X84278571Y-72078571D01*
X84292857Y-72107142D01*
X84307142Y-72121428D01*
X84335714Y-72135714D01*
X84364285Y-72135714D01*
X84392857Y-72121428D01*
X84407142Y-72107142D01*
X84421428Y-72078571D01*
X84435714Y-72021428D01*
X84435714Y-71950000D01*
X84421428Y-71892857D01*
X84407142Y-71864285D01*
X84392857Y-71850000D01*
X84364285Y-71835714D01*
X84078571Y-71835714D02*
X84050000Y-71835714D01*
X84021428Y-71850000D01*
X84007142Y-71864285D01*
X83992857Y-71892857D01*
X83978571Y-71950000D01*
X83978571Y-72021428D01*
X83992857Y-72078571D01*
X84007142Y-72107142D01*
X84021428Y-72121428D01*
X84050000Y-72135714D01*
X84078571Y-72135714D01*
X84107142Y-72121428D01*
X84121428Y-72107142D01*
X84135714Y-72078571D01*
X84150000Y-72021428D01*
X84150000Y-71950000D01*
X84135714Y-71892857D01*
X84121428Y-71864285D01*
X84107142Y-71850000D01*
X84078571Y-71835714D01*
G04 #@! TO.C,C301*
X84835714Y-73107142D02*
X84850000Y-73121428D01*
X84892857Y-73135714D01*
X84921428Y-73135714D01*
X84964285Y-73121428D01*
X84992857Y-73092857D01*
X85007142Y-73064285D01*
X85021428Y-73007142D01*
X85021428Y-72964285D01*
X85007142Y-72907142D01*
X84992857Y-72878571D01*
X84964285Y-72850000D01*
X84921428Y-72835714D01*
X84892857Y-72835714D01*
X84850000Y-72850000D01*
X84835714Y-72864285D01*
X84735714Y-72835714D02*
X84550000Y-72835714D01*
X84650000Y-72950000D01*
X84607142Y-72950000D01*
X84578571Y-72964285D01*
X84564285Y-72978571D01*
X84550000Y-73007142D01*
X84550000Y-73078571D01*
X84564285Y-73107142D01*
X84578571Y-73121428D01*
X84607142Y-73135714D01*
X84692857Y-73135714D01*
X84721428Y-73121428D01*
X84735714Y-73107142D01*
X84364285Y-72835714D02*
X84335714Y-72835714D01*
X84307142Y-72850000D01*
X84292857Y-72864285D01*
X84278571Y-72892857D01*
X84264285Y-72950000D01*
X84264285Y-73021428D01*
X84278571Y-73078571D01*
X84292857Y-73107142D01*
X84307142Y-73121428D01*
X84335714Y-73135714D01*
X84364285Y-73135714D01*
X84392857Y-73121428D01*
X84407142Y-73107142D01*
X84421428Y-73078571D01*
X84435714Y-73021428D01*
X84435714Y-72950000D01*
X84421428Y-72892857D01*
X84407142Y-72864285D01*
X84392857Y-72850000D01*
X84364285Y-72835714D01*
X83978571Y-73135714D02*
X84150000Y-73135714D01*
X84064285Y-73135714D02*
X84064285Y-72835714D01*
X84092857Y-72878571D01*
X84121428Y-72907142D01*
X84150000Y-72921428D01*
G04 #@! TO.C,C511*
X50585714Y-69857142D02*
X50600000Y-69871428D01*
X50642857Y-69885714D01*
X50671428Y-69885714D01*
X50714285Y-69871428D01*
X50742857Y-69842857D01*
X50757142Y-69814285D01*
X50771428Y-69757142D01*
X50771428Y-69714285D01*
X50757142Y-69657142D01*
X50742857Y-69628571D01*
X50714285Y-69600000D01*
X50671428Y-69585714D01*
X50642857Y-69585714D01*
X50600000Y-69600000D01*
X50585714Y-69614285D01*
X50314285Y-69585714D02*
X50457142Y-69585714D01*
X50471428Y-69728571D01*
X50457142Y-69714285D01*
X50428571Y-69700000D01*
X50357142Y-69700000D01*
X50328571Y-69714285D01*
X50314285Y-69728571D01*
X50300000Y-69757142D01*
X50300000Y-69828571D01*
X50314285Y-69857142D01*
X50328571Y-69871428D01*
X50357142Y-69885714D01*
X50428571Y-69885714D01*
X50457142Y-69871428D01*
X50471428Y-69857142D01*
X50014285Y-69885714D02*
X50185714Y-69885714D01*
X50100000Y-69885714D02*
X50100000Y-69585714D01*
X50128571Y-69628571D01*
X50157142Y-69657142D01*
X50185714Y-69671428D01*
X49728571Y-69885714D02*
X49900000Y-69885714D01*
X49814285Y-69885714D02*
X49814285Y-69585714D01*
X49842857Y-69628571D01*
X49871428Y-69657142D01*
X49900000Y-69671428D01*
G04 #@! TO.C,C302*
X74835714Y-56907142D02*
X74850000Y-56921428D01*
X74892857Y-56935714D01*
X74921428Y-56935714D01*
X74964285Y-56921428D01*
X74992857Y-56892857D01*
X75007142Y-56864285D01*
X75021428Y-56807142D01*
X75021428Y-56764285D01*
X75007142Y-56707142D01*
X74992857Y-56678571D01*
X74964285Y-56650000D01*
X74921428Y-56635714D01*
X74892857Y-56635714D01*
X74850000Y-56650000D01*
X74835714Y-56664285D01*
X74735714Y-56635714D02*
X74550000Y-56635714D01*
X74650000Y-56750000D01*
X74607142Y-56750000D01*
X74578571Y-56764285D01*
X74564285Y-56778571D01*
X74550000Y-56807142D01*
X74550000Y-56878571D01*
X74564285Y-56907142D01*
X74578571Y-56921428D01*
X74607142Y-56935714D01*
X74692857Y-56935714D01*
X74721428Y-56921428D01*
X74735714Y-56907142D01*
X74364285Y-56635714D02*
X74335714Y-56635714D01*
X74307142Y-56650000D01*
X74292857Y-56664285D01*
X74278571Y-56692857D01*
X74264285Y-56750000D01*
X74264285Y-56821428D01*
X74278571Y-56878571D01*
X74292857Y-56907142D01*
X74307142Y-56921428D01*
X74335714Y-56935714D01*
X74364285Y-56935714D01*
X74392857Y-56921428D01*
X74407142Y-56907142D01*
X74421428Y-56878571D01*
X74435714Y-56821428D01*
X74435714Y-56750000D01*
X74421428Y-56692857D01*
X74407142Y-56664285D01*
X74392857Y-56650000D01*
X74364285Y-56635714D01*
X74150000Y-56664285D02*
X74135714Y-56650000D01*
X74107142Y-56635714D01*
X74035714Y-56635714D01*
X74007142Y-56650000D01*
X73992857Y-56664285D01*
X73978571Y-56692857D01*
X73978571Y-56721428D01*
X73992857Y-56764285D01*
X74164285Y-56935714D01*
X73978571Y-56935714D01*
G04 #@! TO.C,C520*
D12*
X44321428Y-68026190D02*
X44330952Y-68016666D01*
X44340476Y-67988095D01*
X44340476Y-67969047D01*
X44330952Y-67940476D01*
X44311904Y-67921428D01*
X44292857Y-67911904D01*
X44254761Y-67902380D01*
X44226190Y-67902380D01*
X44188095Y-67911904D01*
X44169047Y-67921428D01*
X44150000Y-67940476D01*
X44140476Y-67969047D01*
X44140476Y-67988095D01*
X44150000Y-68016666D01*
X44159523Y-68026190D01*
X44140476Y-68207142D02*
X44140476Y-68111904D01*
X44235714Y-68102380D01*
X44226190Y-68111904D01*
X44216666Y-68130952D01*
X44216666Y-68178571D01*
X44226190Y-68197619D01*
X44235714Y-68207142D01*
X44254761Y-68216666D01*
X44302380Y-68216666D01*
X44321428Y-68207142D01*
X44330952Y-68197619D01*
X44340476Y-68178571D01*
X44340476Y-68130952D01*
X44330952Y-68111904D01*
X44321428Y-68102380D01*
X44159523Y-68292857D02*
X44150000Y-68302380D01*
X44140476Y-68321428D01*
X44140476Y-68369047D01*
X44150000Y-68388095D01*
X44159523Y-68397619D01*
X44178571Y-68407142D01*
X44197619Y-68407142D01*
X44226190Y-68397619D01*
X44340476Y-68283333D01*
X44340476Y-68407142D01*
X44140476Y-68530952D02*
X44140476Y-68550000D01*
X44150000Y-68569047D01*
X44159523Y-68578571D01*
X44178571Y-68588095D01*
X44216666Y-68597619D01*
X44264285Y-68597619D01*
X44302380Y-68588095D01*
X44321428Y-68578571D01*
X44330952Y-68569047D01*
X44340476Y-68550000D01*
X44340476Y-68530952D01*
X44330952Y-68511904D01*
X44321428Y-68502380D01*
X44302380Y-68492857D01*
X44264285Y-68483333D01*
X44216666Y-68483333D01*
X44178571Y-68492857D01*
X44159523Y-68502380D01*
X44150000Y-68511904D01*
X44140476Y-68530952D01*
G04 #@! TO.C,C521*
X45973809Y-66571428D02*
X45983333Y-66580952D01*
X46011904Y-66590476D01*
X46030952Y-66590476D01*
X46059523Y-66580952D01*
X46078571Y-66561904D01*
X46088095Y-66542857D01*
X46097619Y-66504761D01*
X46097619Y-66476190D01*
X46088095Y-66438095D01*
X46078571Y-66419047D01*
X46059523Y-66400000D01*
X46030952Y-66390476D01*
X46011904Y-66390476D01*
X45983333Y-66400000D01*
X45973809Y-66409523D01*
X45792857Y-66390476D02*
X45888095Y-66390476D01*
X45897619Y-66485714D01*
X45888095Y-66476190D01*
X45869047Y-66466666D01*
X45821428Y-66466666D01*
X45802380Y-66476190D01*
X45792857Y-66485714D01*
X45783333Y-66504761D01*
X45783333Y-66552380D01*
X45792857Y-66571428D01*
X45802380Y-66580952D01*
X45821428Y-66590476D01*
X45869047Y-66590476D01*
X45888095Y-66580952D01*
X45897619Y-66571428D01*
X45707142Y-66409523D02*
X45697619Y-66400000D01*
X45678571Y-66390476D01*
X45630952Y-66390476D01*
X45611904Y-66400000D01*
X45602380Y-66409523D01*
X45592857Y-66428571D01*
X45592857Y-66447619D01*
X45602380Y-66476190D01*
X45716666Y-66590476D01*
X45592857Y-66590476D01*
X45402380Y-66590476D02*
X45516666Y-66590476D01*
X45459523Y-66590476D02*
X45459523Y-66390476D01*
X45478571Y-66419047D01*
X45497619Y-66438095D01*
X45516666Y-66447619D01*
G04 #@! TO.C,C310*
X84723809Y-59471428D02*
X84733333Y-59480952D01*
X84761904Y-59490476D01*
X84780952Y-59490476D01*
X84809523Y-59480952D01*
X84828571Y-59461904D01*
X84838095Y-59442857D01*
X84847619Y-59404761D01*
X84847619Y-59376190D01*
X84838095Y-59338095D01*
X84828571Y-59319047D01*
X84809523Y-59300000D01*
X84780952Y-59290476D01*
X84761904Y-59290476D01*
X84733333Y-59300000D01*
X84723809Y-59309523D01*
X84657142Y-59290476D02*
X84533333Y-59290476D01*
X84600000Y-59366666D01*
X84571428Y-59366666D01*
X84552380Y-59376190D01*
X84542857Y-59385714D01*
X84533333Y-59404761D01*
X84533333Y-59452380D01*
X84542857Y-59471428D01*
X84552380Y-59480952D01*
X84571428Y-59490476D01*
X84628571Y-59490476D01*
X84647619Y-59480952D01*
X84657142Y-59471428D01*
X84342857Y-59490476D02*
X84457142Y-59490476D01*
X84400000Y-59490476D02*
X84400000Y-59290476D01*
X84419047Y-59319047D01*
X84438095Y-59338095D01*
X84457142Y-59347619D01*
X84219047Y-59290476D02*
X84200000Y-59290476D01*
X84180952Y-59300000D01*
X84171428Y-59309523D01*
X84161904Y-59328571D01*
X84152380Y-59366666D01*
X84152380Y-59414285D01*
X84161904Y-59452380D01*
X84171428Y-59471428D01*
X84180952Y-59480952D01*
X84200000Y-59490476D01*
X84219047Y-59490476D01*
X84238095Y-59480952D01*
X84247619Y-59471428D01*
X84257142Y-59452380D01*
X84266666Y-59414285D01*
X84266666Y-59366666D01*
X84257142Y-59328571D01*
X84247619Y-59309523D01*
X84238095Y-59300000D01*
X84219047Y-59290476D01*
G04 #@! TO.C,C311*
X84723809Y-60271428D02*
X84733333Y-60280952D01*
X84761904Y-60290476D01*
X84780952Y-60290476D01*
X84809523Y-60280952D01*
X84828571Y-60261904D01*
X84838095Y-60242857D01*
X84847619Y-60204761D01*
X84847619Y-60176190D01*
X84838095Y-60138095D01*
X84828571Y-60119047D01*
X84809523Y-60100000D01*
X84780952Y-60090476D01*
X84761904Y-60090476D01*
X84733333Y-60100000D01*
X84723809Y-60109523D01*
X84657142Y-60090476D02*
X84533333Y-60090476D01*
X84600000Y-60166666D01*
X84571428Y-60166666D01*
X84552380Y-60176190D01*
X84542857Y-60185714D01*
X84533333Y-60204761D01*
X84533333Y-60252380D01*
X84542857Y-60271428D01*
X84552380Y-60280952D01*
X84571428Y-60290476D01*
X84628571Y-60290476D01*
X84647619Y-60280952D01*
X84657142Y-60271428D01*
X84342857Y-60290476D02*
X84457142Y-60290476D01*
X84400000Y-60290476D02*
X84400000Y-60090476D01*
X84419047Y-60119047D01*
X84438095Y-60138095D01*
X84457142Y-60147619D01*
X84152380Y-60290476D02*
X84266666Y-60290476D01*
X84209523Y-60290476D02*
X84209523Y-60090476D01*
X84228571Y-60119047D01*
X84247619Y-60138095D01*
X84266666Y-60147619D01*
G04 #@! TO.C,C312*
X84723809Y-62671428D02*
X84733333Y-62680952D01*
X84761904Y-62690476D01*
X84780952Y-62690476D01*
X84809523Y-62680952D01*
X84828571Y-62661904D01*
X84838095Y-62642857D01*
X84847619Y-62604761D01*
X84847619Y-62576190D01*
X84838095Y-62538095D01*
X84828571Y-62519047D01*
X84809523Y-62500000D01*
X84780952Y-62490476D01*
X84761904Y-62490476D01*
X84733333Y-62500000D01*
X84723809Y-62509523D01*
X84657142Y-62490476D02*
X84533333Y-62490476D01*
X84600000Y-62566666D01*
X84571428Y-62566666D01*
X84552380Y-62576190D01*
X84542857Y-62585714D01*
X84533333Y-62604761D01*
X84533333Y-62652380D01*
X84542857Y-62671428D01*
X84552380Y-62680952D01*
X84571428Y-62690476D01*
X84628571Y-62690476D01*
X84647619Y-62680952D01*
X84657142Y-62671428D01*
X84342857Y-62690476D02*
X84457142Y-62690476D01*
X84400000Y-62690476D02*
X84400000Y-62490476D01*
X84419047Y-62519047D01*
X84438095Y-62538095D01*
X84457142Y-62547619D01*
X84266666Y-62509523D02*
X84257142Y-62500000D01*
X84238095Y-62490476D01*
X84190476Y-62490476D01*
X84171428Y-62500000D01*
X84161904Y-62509523D01*
X84152380Y-62528571D01*
X84152380Y-62547619D01*
X84161904Y-62576190D01*
X84276190Y-62690476D01*
X84152380Y-62690476D01*
G04 #@! TO.C,C313*
X84723809Y-64271428D02*
X84733333Y-64280952D01*
X84761904Y-64290476D01*
X84780952Y-64290476D01*
X84809523Y-64280952D01*
X84828571Y-64261904D01*
X84838095Y-64242857D01*
X84847619Y-64204761D01*
X84847619Y-64176190D01*
X84838095Y-64138095D01*
X84828571Y-64119047D01*
X84809523Y-64100000D01*
X84780952Y-64090476D01*
X84761904Y-64090476D01*
X84733333Y-64100000D01*
X84723809Y-64109523D01*
X84657142Y-64090476D02*
X84533333Y-64090476D01*
X84600000Y-64166666D01*
X84571428Y-64166666D01*
X84552380Y-64176190D01*
X84542857Y-64185714D01*
X84533333Y-64204761D01*
X84533333Y-64252380D01*
X84542857Y-64271428D01*
X84552380Y-64280952D01*
X84571428Y-64290476D01*
X84628571Y-64290476D01*
X84647619Y-64280952D01*
X84657142Y-64271428D01*
X84342857Y-64290476D02*
X84457142Y-64290476D01*
X84400000Y-64290476D02*
X84400000Y-64090476D01*
X84419047Y-64119047D01*
X84438095Y-64138095D01*
X84457142Y-64147619D01*
X84276190Y-64090476D02*
X84152380Y-64090476D01*
X84219047Y-64166666D01*
X84190476Y-64166666D01*
X84171428Y-64176190D01*
X84161904Y-64185714D01*
X84152380Y-64204761D01*
X84152380Y-64252380D01*
X84161904Y-64271428D01*
X84171428Y-64280952D01*
X84190476Y-64290476D01*
X84247619Y-64290476D01*
X84266666Y-64280952D01*
X84276190Y-64271428D01*
G04 #@! TO.C,C314*
X84723809Y-65871428D02*
X84733333Y-65880952D01*
X84761904Y-65890476D01*
X84780952Y-65890476D01*
X84809523Y-65880952D01*
X84828571Y-65861904D01*
X84838095Y-65842857D01*
X84847619Y-65804761D01*
X84847619Y-65776190D01*
X84838095Y-65738095D01*
X84828571Y-65719047D01*
X84809523Y-65700000D01*
X84780952Y-65690476D01*
X84761904Y-65690476D01*
X84733333Y-65700000D01*
X84723809Y-65709523D01*
X84657142Y-65690476D02*
X84533333Y-65690476D01*
X84600000Y-65766666D01*
X84571428Y-65766666D01*
X84552380Y-65776190D01*
X84542857Y-65785714D01*
X84533333Y-65804761D01*
X84533333Y-65852380D01*
X84542857Y-65871428D01*
X84552380Y-65880952D01*
X84571428Y-65890476D01*
X84628571Y-65890476D01*
X84647619Y-65880952D01*
X84657142Y-65871428D01*
X84342857Y-65890476D02*
X84457142Y-65890476D01*
X84400000Y-65890476D02*
X84400000Y-65690476D01*
X84419047Y-65719047D01*
X84438095Y-65738095D01*
X84457142Y-65747619D01*
X84171428Y-65757142D02*
X84171428Y-65890476D01*
X84219047Y-65680952D02*
X84266666Y-65823809D01*
X84142857Y-65823809D01*
G04 #@! TO.C,C315*
X84723809Y-69071428D02*
X84733333Y-69080952D01*
X84761904Y-69090476D01*
X84780952Y-69090476D01*
X84809523Y-69080952D01*
X84828571Y-69061904D01*
X84838095Y-69042857D01*
X84847619Y-69004761D01*
X84847619Y-68976190D01*
X84838095Y-68938095D01*
X84828571Y-68919047D01*
X84809523Y-68900000D01*
X84780952Y-68890476D01*
X84761904Y-68890476D01*
X84733333Y-68900000D01*
X84723809Y-68909523D01*
X84657142Y-68890476D02*
X84533333Y-68890476D01*
X84600000Y-68966666D01*
X84571428Y-68966666D01*
X84552380Y-68976190D01*
X84542857Y-68985714D01*
X84533333Y-69004761D01*
X84533333Y-69052380D01*
X84542857Y-69071428D01*
X84552380Y-69080952D01*
X84571428Y-69090476D01*
X84628571Y-69090476D01*
X84647619Y-69080952D01*
X84657142Y-69071428D01*
X84342857Y-69090476D02*
X84457142Y-69090476D01*
X84400000Y-69090476D02*
X84400000Y-68890476D01*
X84419047Y-68919047D01*
X84438095Y-68938095D01*
X84457142Y-68947619D01*
X84161904Y-68890476D02*
X84257142Y-68890476D01*
X84266666Y-68985714D01*
X84257142Y-68976190D01*
X84238095Y-68966666D01*
X84190476Y-68966666D01*
X84171428Y-68976190D01*
X84161904Y-68985714D01*
X84152380Y-69004761D01*
X84152380Y-69052380D01*
X84161904Y-69071428D01*
X84171428Y-69080952D01*
X84190476Y-69090476D01*
X84238095Y-69090476D01*
X84257142Y-69080952D01*
X84266666Y-69071428D01*
G04 #@! TO.C,C316*
X84723809Y-70671428D02*
X84733333Y-70680952D01*
X84761904Y-70690476D01*
X84780952Y-70690476D01*
X84809523Y-70680952D01*
X84828571Y-70661904D01*
X84838095Y-70642857D01*
X84847619Y-70604761D01*
X84847619Y-70576190D01*
X84838095Y-70538095D01*
X84828571Y-70519047D01*
X84809523Y-70500000D01*
X84780952Y-70490476D01*
X84761904Y-70490476D01*
X84733333Y-70500000D01*
X84723809Y-70509523D01*
X84657142Y-70490476D02*
X84533333Y-70490476D01*
X84600000Y-70566666D01*
X84571428Y-70566666D01*
X84552380Y-70576190D01*
X84542857Y-70585714D01*
X84533333Y-70604761D01*
X84533333Y-70652380D01*
X84542857Y-70671428D01*
X84552380Y-70680952D01*
X84571428Y-70690476D01*
X84628571Y-70690476D01*
X84647619Y-70680952D01*
X84657142Y-70671428D01*
X84342857Y-70690476D02*
X84457142Y-70690476D01*
X84400000Y-70690476D02*
X84400000Y-70490476D01*
X84419047Y-70519047D01*
X84438095Y-70538095D01*
X84457142Y-70547619D01*
X84171428Y-70490476D02*
X84209523Y-70490476D01*
X84228571Y-70500000D01*
X84238095Y-70509523D01*
X84257142Y-70538095D01*
X84266666Y-70576190D01*
X84266666Y-70652380D01*
X84257142Y-70671428D01*
X84247619Y-70680952D01*
X84228571Y-70690476D01*
X84190476Y-70690476D01*
X84171428Y-70680952D01*
X84161904Y-70671428D01*
X84152380Y-70652380D01*
X84152380Y-70604761D01*
X84161904Y-70585714D01*
X84171428Y-70576190D01*
X84190476Y-70566666D01*
X84228571Y-70566666D01*
X84247619Y-70576190D01*
X84257142Y-70585714D01*
X84266666Y-70604761D01*
G04 #@! TO.C,C317*
X74723809Y-58671428D02*
X74733333Y-58680952D01*
X74761904Y-58690476D01*
X74780952Y-58690476D01*
X74809523Y-58680952D01*
X74828571Y-58661904D01*
X74838095Y-58642857D01*
X74847619Y-58604761D01*
X74847619Y-58576190D01*
X74838095Y-58538095D01*
X74828571Y-58519047D01*
X74809523Y-58500000D01*
X74780952Y-58490476D01*
X74761904Y-58490476D01*
X74733333Y-58500000D01*
X74723809Y-58509523D01*
X74657142Y-58490476D02*
X74533333Y-58490476D01*
X74600000Y-58566666D01*
X74571428Y-58566666D01*
X74552380Y-58576190D01*
X74542857Y-58585714D01*
X74533333Y-58604761D01*
X74533333Y-58652380D01*
X74542857Y-58671428D01*
X74552380Y-58680952D01*
X74571428Y-58690476D01*
X74628571Y-58690476D01*
X74647619Y-58680952D01*
X74657142Y-58671428D01*
X74342857Y-58690476D02*
X74457142Y-58690476D01*
X74400000Y-58690476D02*
X74400000Y-58490476D01*
X74419047Y-58519047D01*
X74438095Y-58538095D01*
X74457142Y-58547619D01*
X74276190Y-58490476D02*
X74142857Y-58490476D01*
X74228571Y-58690476D01*
G04 #@! TO.C,C318*
X74723809Y-60271428D02*
X74733333Y-60280952D01*
X74761904Y-60290476D01*
X74780952Y-60290476D01*
X74809523Y-60280952D01*
X74828571Y-60261904D01*
X74838095Y-60242857D01*
X74847619Y-60204761D01*
X74847619Y-60176190D01*
X74838095Y-60138095D01*
X74828571Y-60119047D01*
X74809523Y-60100000D01*
X74780952Y-60090476D01*
X74761904Y-60090476D01*
X74733333Y-60100000D01*
X74723809Y-60109523D01*
X74657142Y-60090476D02*
X74533333Y-60090476D01*
X74600000Y-60166666D01*
X74571428Y-60166666D01*
X74552380Y-60176190D01*
X74542857Y-60185714D01*
X74533333Y-60204761D01*
X74533333Y-60252380D01*
X74542857Y-60271428D01*
X74552380Y-60280952D01*
X74571428Y-60290476D01*
X74628571Y-60290476D01*
X74647619Y-60280952D01*
X74657142Y-60271428D01*
X74342857Y-60290476D02*
X74457142Y-60290476D01*
X74400000Y-60290476D02*
X74400000Y-60090476D01*
X74419047Y-60119047D01*
X74438095Y-60138095D01*
X74457142Y-60147619D01*
X74228571Y-60176190D02*
X74247619Y-60166666D01*
X74257142Y-60157142D01*
X74266666Y-60138095D01*
X74266666Y-60128571D01*
X74257142Y-60109523D01*
X74247619Y-60100000D01*
X74228571Y-60090476D01*
X74190476Y-60090476D01*
X74171428Y-60100000D01*
X74161904Y-60109523D01*
X74152380Y-60128571D01*
X74152380Y-60138095D01*
X74161904Y-60157142D01*
X74171428Y-60166666D01*
X74190476Y-60176190D01*
X74228571Y-60176190D01*
X74247619Y-60185714D01*
X74257142Y-60195238D01*
X74266666Y-60214285D01*
X74266666Y-60252380D01*
X74257142Y-60271428D01*
X74247619Y-60280952D01*
X74228571Y-60290476D01*
X74190476Y-60290476D01*
X74171428Y-60280952D01*
X74161904Y-60271428D01*
X74152380Y-60252380D01*
X74152380Y-60214285D01*
X74161904Y-60195238D01*
X74171428Y-60185714D01*
X74190476Y-60176190D01*
G04 #@! TO.C,C319*
X74723809Y-62671428D02*
X74733333Y-62680952D01*
X74761904Y-62690476D01*
X74780952Y-62690476D01*
X74809523Y-62680952D01*
X74828571Y-62661904D01*
X74838095Y-62642857D01*
X74847619Y-62604761D01*
X74847619Y-62576190D01*
X74838095Y-62538095D01*
X74828571Y-62519047D01*
X74809523Y-62500000D01*
X74780952Y-62490476D01*
X74761904Y-62490476D01*
X74733333Y-62500000D01*
X74723809Y-62509523D01*
X74657142Y-62490476D02*
X74533333Y-62490476D01*
X74600000Y-62566666D01*
X74571428Y-62566666D01*
X74552380Y-62576190D01*
X74542857Y-62585714D01*
X74533333Y-62604761D01*
X74533333Y-62652380D01*
X74542857Y-62671428D01*
X74552380Y-62680952D01*
X74571428Y-62690476D01*
X74628571Y-62690476D01*
X74647619Y-62680952D01*
X74657142Y-62671428D01*
X74342857Y-62690476D02*
X74457142Y-62690476D01*
X74400000Y-62690476D02*
X74400000Y-62490476D01*
X74419047Y-62519047D01*
X74438095Y-62538095D01*
X74457142Y-62547619D01*
X74247619Y-62690476D02*
X74209523Y-62690476D01*
X74190476Y-62680952D01*
X74180952Y-62671428D01*
X74161904Y-62642857D01*
X74152380Y-62604761D01*
X74152380Y-62528571D01*
X74161904Y-62509523D01*
X74171428Y-62500000D01*
X74190476Y-62490476D01*
X74228571Y-62490476D01*
X74247619Y-62500000D01*
X74257142Y-62509523D01*
X74266666Y-62528571D01*
X74266666Y-62576190D01*
X74257142Y-62595238D01*
X74247619Y-62604761D01*
X74228571Y-62614285D01*
X74190476Y-62614285D01*
X74171428Y-62604761D01*
X74161904Y-62595238D01*
X74152380Y-62576190D01*
G04 #@! TO.C,C320*
X74723809Y-64671428D02*
X74733333Y-64680952D01*
X74761904Y-64690476D01*
X74780952Y-64690476D01*
X74809523Y-64680952D01*
X74828571Y-64661904D01*
X74838095Y-64642857D01*
X74847619Y-64604761D01*
X74847619Y-64576190D01*
X74838095Y-64538095D01*
X74828571Y-64519047D01*
X74809523Y-64500000D01*
X74780952Y-64490476D01*
X74761904Y-64490476D01*
X74733333Y-64500000D01*
X74723809Y-64509523D01*
X74657142Y-64490476D02*
X74533333Y-64490476D01*
X74600000Y-64566666D01*
X74571428Y-64566666D01*
X74552380Y-64576190D01*
X74542857Y-64585714D01*
X74533333Y-64604761D01*
X74533333Y-64652380D01*
X74542857Y-64671428D01*
X74552380Y-64680952D01*
X74571428Y-64690476D01*
X74628571Y-64690476D01*
X74647619Y-64680952D01*
X74657142Y-64671428D01*
X74457142Y-64509523D02*
X74447619Y-64500000D01*
X74428571Y-64490476D01*
X74380952Y-64490476D01*
X74361904Y-64500000D01*
X74352380Y-64509523D01*
X74342857Y-64528571D01*
X74342857Y-64547619D01*
X74352380Y-64576190D01*
X74466666Y-64690476D01*
X74342857Y-64690476D01*
X74219047Y-64490476D02*
X74200000Y-64490476D01*
X74180952Y-64500000D01*
X74171428Y-64509523D01*
X74161904Y-64528571D01*
X74152380Y-64566666D01*
X74152380Y-64614285D01*
X74161904Y-64652380D01*
X74171428Y-64671428D01*
X74180952Y-64680952D01*
X74200000Y-64690476D01*
X74219047Y-64690476D01*
X74238095Y-64680952D01*
X74247619Y-64671428D01*
X74257142Y-64652380D01*
X74266666Y-64614285D01*
X74266666Y-64566666D01*
X74257142Y-64528571D01*
X74247619Y-64509523D01*
X74238095Y-64500000D01*
X74219047Y-64490476D01*
G04 #@! TO.C,C321*
X74723809Y-65471428D02*
X74733333Y-65480952D01*
X74761904Y-65490476D01*
X74780952Y-65490476D01*
X74809523Y-65480952D01*
X74828571Y-65461904D01*
X74838095Y-65442857D01*
X74847619Y-65404761D01*
X74847619Y-65376190D01*
X74838095Y-65338095D01*
X74828571Y-65319047D01*
X74809523Y-65300000D01*
X74780952Y-65290476D01*
X74761904Y-65290476D01*
X74733333Y-65300000D01*
X74723809Y-65309523D01*
X74657142Y-65290476D02*
X74533333Y-65290476D01*
X74600000Y-65366666D01*
X74571428Y-65366666D01*
X74552380Y-65376190D01*
X74542857Y-65385714D01*
X74533333Y-65404761D01*
X74533333Y-65452380D01*
X74542857Y-65471428D01*
X74552380Y-65480952D01*
X74571428Y-65490476D01*
X74628571Y-65490476D01*
X74647619Y-65480952D01*
X74657142Y-65471428D01*
X74457142Y-65309523D02*
X74447619Y-65300000D01*
X74428571Y-65290476D01*
X74380952Y-65290476D01*
X74361904Y-65300000D01*
X74352380Y-65309523D01*
X74342857Y-65328571D01*
X74342857Y-65347619D01*
X74352380Y-65376190D01*
X74466666Y-65490476D01*
X74342857Y-65490476D01*
X74152380Y-65490476D02*
X74266666Y-65490476D01*
X74209523Y-65490476D02*
X74209523Y-65290476D01*
X74228571Y-65319047D01*
X74247619Y-65338095D01*
X74266666Y-65347619D01*
G04 #@! TO.C,C322*
X74723809Y-68271428D02*
X74733333Y-68280952D01*
X74761904Y-68290476D01*
X74780952Y-68290476D01*
X74809523Y-68280952D01*
X74828571Y-68261904D01*
X74838095Y-68242857D01*
X74847619Y-68204761D01*
X74847619Y-68176190D01*
X74838095Y-68138095D01*
X74828571Y-68119047D01*
X74809523Y-68100000D01*
X74780952Y-68090476D01*
X74761904Y-68090476D01*
X74733333Y-68100000D01*
X74723809Y-68109523D01*
X74657142Y-68090476D02*
X74533333Y-68090476D01*
X74600000Y-68166666D01*
X74571428Y-68166666D01*
X74552380Y-68176190D01*
X74542857Y-68185714D01*
X74533333Y-68204761D01*
X74533333Y-68252380D01*
X74542857Y-68271428D01*
X74552380Y-68280952D01*
X74571428Y-68290476D01*
X74628571Y-68290476D01*
X74647619Y-68280952D01*
X74657142Y-68271428D01*
X74457142Y-68109523D02*
X74447619Y-68100000D01*
X74428571Y-68090476D01*
X74380952Y-68090476D01*
X74361904Y-68100000D01*
X74352380Y-68109523D01*
X74342857Y-68128571D01*
X74342857Y-68147619D01*
X74352380Y-68176190D01*
X74466666Y-68290476D01*
X74342857Y-68290476D01*
X74266666Y-68109523D02*
X74257142Y-68100000D01*
X74238095Y-68090476D01*
X74190476Y-68090476D01*
X74171428Y-68100000D01*
X74161904Y-68109523D01*
X74152380Y-68128571D01*
X74152380Y-68147619D01*
X74161904Y-68176190D01*
X74276190Y-68290476D01*
X74152380Y-68290476D01*
G04 #@! TO.C,C323*
X74723809Y-70671428D02*
X74733333Y-70680952D01*
X74761904Y-70690476D01*
X74780952Y-70690476D01*
X74809523Y-70680952D01*
X74828571Y-70661904D01*
X74838095Y-70642857D01*
X74847619Y-70604761D01*
X74847619Y-70576190D01*
X74838095Y-70538095D01*
X74828571Y-70519047D01*
X74809523Y-70500000D01*
X74780952Y-70490476D01*
X74761904Y-70490476D01*
X74733333Y-70500000D01*
X74723809Y-70509523D01*
X74657142Y-70490476D02*
X74533333Y-70490476D01*
X74600000Y-70566666D01*
X74571428Y-70566666D01*
X74552380Y-70576190D01*
X74542857Y-70585714D01*
X74533333Y-70604761D01*
X74533333Y-70652380D01*
X74542857Y-70671428D01*
X74552380Y-70680952D01*
X74571428Y-70690476D01*
X74628571Y-70690476D01*
X74647619Y-70680952D01*
X74657142Y-70671428D01*
X74457142Y-70509523D02*
X74447619Y-70500000D01*
X74428571Y-70490476D01*
X74380952Y-70490476D01*
X74361904Y-70500000D01*
X74352380Y-70509523D01*
X74342857Y-70528571D01*
X74342857Y-70547619D01*
X74352380Y-70576190D01*
X74466666Y-70690476D01*
X74342857Y-70690476D01*
X74276190Y-70490476D02*
X74152380Y-70490476D01*
X74219047Y-70566666D01*
X74190476Y-70566666D01*
X74171428Y-70576190D01*
X74161904Y-70585714D01*
X74152380Y-70604761D01*
X74152380Y-70652380D01*
X74161904Y-70671428D01*
X74171428Y-70680952D01*
X74190476Y-70690476D01*
X74247619Y-70690476D01*
X74266666Y-70680952D01*
X74276190Y-70671428D01*
G04 #@! TO.C,C330*
X79823809Y-60771428D02*
X79833333Y-60780952D01*
X79861904Y-60790476D01*
X79880952Y-60790476D01*
X79909523Y-60780952D01*
X79928571Y-60761904D01*
X79938095Y-60742857D01*
X79947619Y-60704761D01*
X79947619Y-60676190D01*
X79938095Y-60638095D01*
X79928571Y-60619047D01*
X79909523Y-60600000D01*
X79880952Y-60590476D01*
X79861904Y-60590476D01*
X79833333Y-60600000D01*
X79823809Y-60609523D01*
X79757142Y-60590476D02*
X79633333Y-60590476D01*
X79700000Y-60666666D01*
X79671428Y-60666666D01*
X79652380Y-60676190D01*
X79642857Y-60685714D01*
X79633333Y-60704761D01*
X79633333Y-60752380D01*
X79642857Y-60771428D01*
X79652380Y-60780952D01*
X79671428Y-60790476D01*
X79728571Y-60790476D01*
X79747619Y-60780952D01*
X79757142Y-60771428D01*
X79566666Y-60590476D02*
X79442857Y-60590476D01*
X79509523Y-60666666D01*
X79480952Y-60666666D01*
X79461904Y-60676190D01*
X79452380Y-60685714D01*
X79442857Y-60704761D01*
X79442857Y-60752380D01*
X79452380Y-60771428D01*
X79461904Y-60780952D01*
X79480952Y-60790476D01*
X79538095Y-60790476D01*
X79557142Y-60780952D01*
X79566666Y-60771428D01*
X79319047Y-60590476D02*
X79300000Y-60590476D01*
X79280952Y-60600000D01*
X79271428Y-60609523D01*
X79261904Y-60628571D01*
X79252380Y-60666666D01*
X79252380Y-60714285D01*
X79261904Y-60752380D01*
X79271428Y-60771428D01*
X79280952Y-60780952D01*
X79300000Y-60790476D01*
X79319047Y-60790476D01*
X79338095Y-60780952D01*
X79347619Y-60771428D01*
X79357142Y-60752380D01*
X79366666Y-60714285D01*
X79366666Y-60666666D01*
X79357142Y-60628571D01*
X79347619Y-60609523D01*
X79338095Y-60600000D01*
X79319047Y-60590476D01*
G04 #@! TO.C,C332*
X74723809Y-63871428D02*
X74733333Y-63880952D01*
X74761904Y-63890476D01*
X74780952Y-63890476D01*
X74809523Y-63880952D01*
X74828571Y-63861904D01*
X74838095Y-63842857D01*
X74847619Y-63804761D01*
X74847619Y-63776190D01*
X74838095Y-63738095D01*
X74828571Y-63719047D01*
X74809523Y-63700000D01*
X74780952Y-63690476D01*
X74761904Y-63690476D01*
X74733333Y-63700000D01*
X74723809Y-63709523D01*
X74657142Y-63690476D02*
X74533333Y-63690476D01*
X74600000Y-63766666D01*
X74571428Y-63766666D01*
X74552380Y-63776190D01*
X74542857Y-63785714D01*
X74533333Y-63804761D01*
X74533333Y-63852380D01*
X74542857Y-63871428D01*
X74552380Y-63880952D01*
X74571428Y-63890476D01*
X74628571Y-63890476D01*
X74647619Y-63880952D01*
X74657142Y-63871428D01*
X74466666Y-63690476D02*
X74342857Y-63690476D01*
X74409523Y-63766666D01*
X74380952Y-63766666D01*
X74361904Y-63776190D01*
X74352380Y-63785714D01*
X74342857Y-63804761D01*
X74342857Y-63852380D01*
X74352380Y-63871428D01*
X74361904Y-63880952D01*
X74380952Y-63890476D01*
X74438095Y-63890476D01*
X74457142Y-63880952D01*
X74466666Y-63871428D01*
X74266666Y-63709523D02*
X74257142Y-63700000D01*
X74238095Y-63690476D01*
X74190476Y-63690476D01*
X74171428Y-63700000D01*
X74161904Y-63709523D01*
X74152380Y-63728571D01*
X74152380Y-63747619D01*
X74161904Y-63776190D01*
X74276190Y-63890476D01*
X74152380Y-63890476D01*
G04 #@! TO.C,C340*
X79823809Y-64571428D02*
X79833333Y-64580952D01*
X79861904Y-64590476D01*
X79880952Y-64590476D01*
X79909523Y-64580952D01*
X79928571Y-64561904D01*
X79938095Y-64542857D01*
X79947619Y-64504761D01*
X79947619Y-64476190D01*
X79938095Y-64438095D01*
X79928571Y-64419047D01*
X79909523Y-64400000D01*
X79880952Y-64390476D01*
X79861904Y-64390476D01*
X79833333Y-64400000D01*
X79823809Y-64409523D01*
X79757142Y-64390476D02*
X79633333Y-64390476D01*
X79700000Y-64466666D01*
X79671428Y-64466666D01*
X79652380Y-64476190D01*
X79642857Y-64485714D01*
X79633333Y-64504761D01*
X79633333Y-64552380D01*
X79642857Y-64571428D01*
X79652380Y-64580952D01*
X79671428Y-64590476D01*
X79728571Y-64590476D01*
X79747619Y-64580952D01*
X79757142Y-64571428D01*
X79461904Y-64457142D02*
X79461904Y-64590476D01*
X79509523Y-64380952D02*
X79557142Y-64523809D01*
X79433333Y-64523809D01*
X79319047Y-64390476D02*
X79300000Y-64390476D01*
X79280952Y-64400000D01*
X79271428Y-64409523D01*
X79261904Y-64428571D01*
X79252380Y-64466666D01*
X79252380Y-64514285D01*
X79261904Y-64552380D01*
X79271428Y-64571428D01*
X79280952Y-64580952D01*
X79300000Y-64590476D01*
X79319047Y-64590476D01*
X79338095Y-64580952D01*
X79347619Y-64571428D01*
X79357142Y-64552380D01*
X79366666Y-64514285D01*
X79366666Y-64466666D01*
X79357142Y-64428571D01*
X79347619Y-64409523D01*
X79338095Y-64400000D01*
X79319047Y-64390476D01*
G04 #@! TO.C,C206*
X68158928Y-60388690D02*
X68168452Y-60379166D01*
X68177976Y-60350595D01*
X68177976Y-60331547D01*
X68168452Y-60302976D01*
X68149404Y-60283928D01*
X68130357Y-60274404D01*
X68092261Y-60264880D01*
X68063690Y-60264880D01*
X68025595Y-60274404D01*
X68006547Y-60283928D01*
X67987500Y-60302976D01*
X67977976Y-60331547D01*
X67977976Y-60350595D01*
X67987500Y-60379166D01*
X67997023Y-60388690D01*
X67997023Y-60464880D02*
X67987500Y-60474404D01*
X67977976Y-60493452D01*
X67977976Y-60541071D01*
X67987500Y-60560119D01*
X67997023Y-60569642D01*
X68016071Y-60579166D01*
X68035119Y-60579166D01*
X68063690Y-60569642D01*
X68177976Y-60455357D01*
X68177976Y-60579166D01*
X67977976Y-60702976D02*
X67977976Y-60722023D01*
X67987500Y-60741071D01*
X67997023Y-60750595D01*
X68016071Y-60760119D01*
X68054166Y-60769642D01*
X68101785Y-60769642D01*
X68139880Y-60760119D01*
X68158928Y-60750595D01*
X68168452Y-60741071D01*
X68177976Y-60722023D01*
X68177976Y-60702976D01*
X68168452Y-60683928D01*
X68158928Y-60674404D01*
X68139880Y-60664880D01*
X68101785Y-60655357D01*
X68054166Y-60655357D01*
X68016071Y-60664880D01*
X67997023Y-60674404D01*
X67987500Y-60683928D01*
X67977976Y-60702976D01*
X67977976Y-60941071D02*
X67977976Y-60902976D01*
X67987500Y-60883928D01*
X67997023Y-60874404D01*
X68025595Y-60855357D01*
X68063690Y-60845833D01*
X68139880Y-60845833D01*
X68158928Y-60855357D01*
X68168452Y-60864880D01*
X68177976Y-60883928D01*
X68177976Y-60922023D01*
X68168452Y-60941071D01*
X68158928Y-60950595D01*
X68139880Y-60960119D01*
X68092261Y-60960119D01*
X68073214Y-60950595D01*
X68063690Y-60941071D01*
X68054166Y-60922023D01*
X68054166Y-60883928D01*
X68063690Y-60864880D01*
X68073214Y-60855357D01*
X68092261Y-60845833D01*
G04 #@! TO.C,C207*
X67346428Y-60388690D02*
X67355952Y-60379166D01*
X67365476Y-60350595D01*
X67365476Y-60331547D01*
X67355952Y-60302976D01*
X67336904Y-60283928D01*
X67317857Y-60274404D01*
X67279761Y-60264880D01*
X67251190Y-60264880D01*
X67213095Y-60274404D01*
X67194047Y-60283928D01*
X67175000Y-60302976D01*
X67165476Y-60331547D01*
X67165476Y-60350595D01*
X67175000Y-60379166D01*
X67184523Y-60388690D01*
X67184523Y-60464880D02*
X67175000Y-60474404D01*
X67165476Y-60493452D01*
X67165476Y-60541071D01*
X67175000Y-60560119D01*
X67184523Y-60569642D01*
X67203571Y-60579166D01*
X67222619Y-60579166D01*
X67251190Y-60569642D01*
X67365476Y-60455357D01*
X67365476Y-60579166D01*
X67165476Y-60702976D02*
X67165476Y-60722023D01*
X67175000Y-60741071D01*
X67184523Y-60750595D01*
X67203571Y-60760119D01*
X67241666Y-60769642D01*
X67289285Y-60769642D01*
X67327380Y-60760119D01*
X67346428Y-60750595D01*
X67355952Y-60741071D01*
X67365476Y-60722023D01*
X67365476Y-60702976D01*
X67355952Y-60683928D01*
X67346428Y-60674404D01*
X67327380Y-60664880D01*
X67289285Y-60655357D01*
X67241666Y-60655357D01*
X67203571Y-60664880D01*
X67184523Y-60674404D01*
X67175000Y-60683928D01*
X67165476Y-60702976D01*
X67165476Y-60836309D02*
X67165476Y-60969642D01*
X67365476Y-60883928D01*
G04 #@! TO.C,C208*
X66533928Y-60388690D02*
X66543452Y-60379166D01*
X66552976Y-60350595D01*
X66552976Y-60331547D01*
X66543452Y-60302976D01*
X66524404Y-60283928D01*
X66505357Y-60274404D01*
X66467261Y-60264880D01*
X66438690Y-60264880D01*
X66400595Y-60274404D01*
X66381547Y-60283928D01*
X66362500Y-60302976D01*
X66352976Y-60331547D01*
X66352976Y-60350595D01*
X66362500Y-60379166D01*
X66372023Y-60388690D01*
X66372023Y-60464880D02*
X66362500Y-60474404D01*
X66352976Y-60493452D01*
X66352976Y-60541071D01*
X66362500Y-60560119D01*
X66372023Y-60569642D01*
X66391071Y-60579166D01*
X66410119Y-60579166D01*
X66438690Y-60569642D01*
X66552976Y-60455357D01*
X66552976Y-60579166D01*
X66352976Y-60702976D02*
X66352976Y-60722023D01*
X66362500Y-60741071D01*
X66372023Y-60750595D01*
X66391071Y-60760119D01*
X66429166Y-60769642D01*
X66476785Y-60769642D01*
X66514880Y-60760119D01*
X66533928Y-60750595D01*
X66543452Y-60741071D01*
X66552976Y-60722023D01*
X66552976Y-60702976D01*
X66543452Y-60683928D01*
X66533928Y-60674404D01*
X66514880Y-60664880D01*
X66476785Y-60655357D01*
X66429166Y-60655357D01*
X66391071Y-60664880D01*
X66372023Y-60674404D01*
X66362500Y-60683928D01*
X66352976Y-60702976D01*
X66438690Y-60883928D02*
X66429166Y-60864880D01*
X66419642Y-60855357D01*
X66400595Y-60845833D01*
X66391071Y-60845833D01*
X66372023Y-60855357D01*
X66362500Y-60864880D01*
X66352976Y-60883928D01*
X66352976Y-60922023D01*
X66362500Y-60941071D01*
X66372023Y-60950595D01*
X66391071Y-60960119D01*
X66400595Y-60960119D01*
X66419642Y-60950595D01*
X66429166Y-60941071D01*
X66438690Y-60922023D01*
X66438690Y-60883928D01*
X66448214Y-60864880D01*
X66457738Y-60855357D01*
X66476785Y-60845833D01*
X66514880Y-60845833D01*
X66533928Y-60855357D01*
X66543452Y-60864880D01*
X66552976Y-60883928D01*
X66552976Y-60922023D01*
X66543452Y-60941071D01*
X66533928Y-60950595D01*
X66514880Y-60960119D01*
X66476785Y-60960119D01*
X66457738Y-60950595D01*
X66448214Y-60941071D01*
X66438690Y-60922023D01*
G04 #@! TO.C,C255*
X68523809Y-63771428D02*
X68533333Y-63780952D01*
X68561904Y-63790476D01*
X68580952Y-63790476D01*
X68609523Y-63780952D01*
X68628571Y-63761904D01*
X68638095Y-63742857D01*
X68647619Y-63704761D01*
X68647619Y-63676190D01*
X68638095Y-63638095D01*
X68628571Y-63619047D01*
X68609523Y-63600000D01*
X68580952Y-63590476D01*
X68561904Y-63590476D01*
X68533333Y-63600000D01*
X68523809Y-63609523D01*
X68447619Y-63609523D02*
X68438095Y-63600000D01*
X68419047Y-63590476D01*
X68371428Y-63590476D01*
X68352380Y-63600000D01*
X68342857Y-63609523D01*
X68333333Y-63628571D01*
X68333333Y-63647619D01*
X68342857Y-63676190D01*
X68457142Y-63790476D01*
X68333333Y-63790476D01*
X68152380Y-63590476D02*
X68247619Y-63590476D01*
X68257142Y-63685714D01*
X68247619Y-63676190D01*
X68228571Y-63666666D01*
X68180952Y-63666666D01*
X68161904Y-63676190D01*
X68152380Y-63685714D01*
X68142857Y-63704761D01*
X68142857Y-63752380D01*
X68152380Y-63771428D01*
X68161904Y-63780952D01*
X68180952Y-63790476D01*
X68228571Y-63790476D01*
X68247619Y-63780952D01*
X68257142Y-63771428D01*
X67961904Y-63590476D02*
X68057142Y-63590476D01*
X68066666Y-63685714D01*
X68057142Y-63676190D01*
X68038095Y-63666666D01*
X67990476Y-63666666D01*
X67971428Y-63676190D01*
X67961904Y-63685714D01*
X67952380Y-63704761D01*
X67952380Y-63752380D01*
X67961904Y-63771428D01*
X67971428Y-63780952D01*
X67990476Y-63790476D01*
X68038095Y-63790476D01*
X68057142Y-63780952D01*
X68066666Y-63771428D01*
G04 #@! TO.C,C256*
X65223809Y-62471428D02*
X65233333Y-62480952D01*
X65261904Y-62490476D01*
X65280952Y-62490476D01*
X65309523Y-62480952D01*
X65328571Y-62461904D01*
X65338095Y-62442857D01*
X65347619Y-62404761D01*
X65347619Y-62376190D01*
X65338095Y-62338095D01*
X65328571Y-62319047D01*
X65309523Y-62300000D01*
X65280952Y-62290476D01*
X65261904Y-62290476D01*
X65233333Y-62300000D01*
X65223809Y-62309523D01*
X65147619Y-62309523D02*
X65138095Y-62300000D01*
X65119047Y-62290476D01*
X65071428Y-62290476D01*
X65052380Y-62300000D01*
X65042857Y-62309523D01*
X65033333Y-62328571D01*
X65033333Y-62347619D01*
X65042857Y-62376190D01*
X65157142Y-62490476D01*
X65033333Y-62490476D01*
X64852380Y-62290476D02*
X64947619Y-62290476D01*
X64957142Y-62385714D01*
X64947619Y-62376190D01*
X64928571Y-62366666D01*
X64880952Y-62366666D01*
X64861904Y-62376190D01*
X64852380Y-62385714D01*
X64842857Y-62404761D01*
X64842857Y-62452380D01*
X64852380Y-62471428D01*
X64861904Y-62480952D01*
X64880952Y-62490476D01*
X64928571Y-62490476D01*
X64947619Y-62480952D01*
X64957142Y-62471428D01*
X64671428Y-62290476D02*
X64709523Y-62290476D01*
X64728571Y-62300000D01*
X64738095Y-62309523D01*
X64757142Y-62338095D01*
X64766666Y-62376190D01*
X64766666Y-62452380D01*
X64757142Y-62471428D01*
X64747619Y-62480952D01*
X64728571Y-62490476D01*
X64690476Y-62490476D01*
X64671428Y-62480952D01*
X64661904Y-62471428D01*
X64652380Y-62452380D01*
X64652380Y-62404761D01*
X64661904Y-62385714D01*
X64671428Y-62376190D01*
X64690476Y-62366666D01*
X64728571Y-62366666D01*
X64747619Y-62376190D01*
X64757142Y-62385714D01*
X64766666Y-62404761D01*
G04 #@! TO.C,C257*
X63040178Y-64838690D02*
X63049702Y-64829166D01*
X63059226Y-64800595D01*
X63059226Y-64781547D01*
X63049702Y-64752976D01*
X63030654Y-64733928D01*
X63011607Y-64724404D01*
X62973511Y-64714880D01*
X62944940Y-64714880D01*
X62906845Y-64724404D01*
X62887797Y-64733928D01*
X62868750Y-64752976D01*
X62859226Y-64781547D01*
X62859226Y-64800595D01*
X62868750Y-64829166D01*
X62878273Y-64838690D01*
X62878273Y-64914880D02*
X62868750Y-64924404D01*
X62859226Y-64943452D01*
X62859226Y-64991071D01*
X62868750Y-65010119D01*
X62878273Y-65019642D01*
X62897321Y-65029166D01*
X62916369Y-65029166D01*
X62944940Y-65019642D01*
X63059226Y-64905357D01*
X63059226Y-65029166D01*
X62859226Y-65210119D02*
X62859226Y-65114880D01*
X62954464Y-65105357D01*
X62944940Y-65114880D01*
X62935416Y-65133928D01*
X62935416Y-65181547D01*
X62944940Y-65200595D01*
X62954464Y-65210119D01*
X62973511Y-65219642D01*
X63021130Y-65219642D01*
X63040178Y-65210119D01*
X63049702Y-65200595D01*
X63059226Y-65181547D01*
X63059226Y-65133928D01*
X63049702Y-65114880D01*
X63040178Y-65105357D01*
X62859226Y-65286309D02*
X62859226Y-65419642D01*
X63059226Y-65333928D01*
G04 #@! TO.C,C226*
X63852678Y-64838690D02*
X63862202Y-64829166D01*
X63871726Y-64800595D01*
X63871726Y-64781547D01*
X63862202Y-64752976D01*
X63843154Y-64733928D01*
X63824107Y-64724404D01*
X63786011Y-64714880D01*
X63757440Y-64714880D01*
X63719345Y-64724404D01*
X63700297Y-64733928D01*
X63681250Y-64752976D01*
X63671726Y-64781547D01*
X63671726Y-64800595D01*
X63681250Y-64829166D01*
X63690773Y-64838690D01*
X63690773Y-64914880D02*
X63681250Y-64924404D01*
X63671726Y-64943452D01*
X63671726Y-64991071D01*
X63681250Y-65010119D01*
X63690773Y-65019642D01*
X63709821Y-65029166D01*
X63728869Y-65029166D01*
X63757440Y-65019642D01*
X63871726Y-64905357D01*
X63871726Y-65029166D01*
X63690773Y-65105357D02*
X63681250Y-65114880D01*
X63671726Y-65133928D01*
X63671726Y-65181547D01*
X63681250Y-65200595D01*
X63690773Y-65210119D01*
X63709821Y-65219642D01*
X63728869Y-65219642D01*
X63757440Y-65210119D01*
X63871726Y-65095833D01*
X63871726Y-65219642D01*
X63671726Y-65391071D02*
X63671726Y-65352976D01*
X63681250Y-65333928D01*
X63690773Y-65324404D01*
X63719345Y-65305357D01*
X63757440Y-65295833D01*
X63833630Y-65295833D01*
X63852678Y-65305357D01*
X63862202Y-65314880D01*
X63871726Y-65333928D01*
X63871726Y-65372023D01*
X63862202Y-65391071D01*
X63852678Y-65400595D01*
X63833630Y-65410119D01*
X63786011Y-65410119D01*
X63766964Y-65400595D01*
X63757440Y-65391071D01*
X63747916Y-65372023D01*
X63747916Y-65333928D01*
X63757440Y-65314880D01*
X63766964Y-65305357D01*
X63786011Y-65295833D01*
G04 #@! TO.C,C351*
X66940178Y-64838690D02*
X66949702Y-64829166D01*
X66959226Y-64800595D01*
X66959226Y-64781547D01*
X66949702Y-64752976D01*
X66930654Y-64733928D01*
X66911607Y-64724404D01*
X66873511Y-64714880D01*
X66844940Y-64714880D01*
X66806845Y-64724404D01*
X66787797Y-64733928D01*
X66768750Y-64752976D01*
X66759226Y-64781547D01*
X66759226Y-64800595D01*
X66768750Y-64829166D01*
X66778273Y-64838690D01*
X66759226Y-64905357D02*
X66759226Y-65029166D01*
X66835416Y-64962500D01*
X66835416Y-64991071D01*
X66844940Y-65010119D01*
X66854464Y-65019642D01*
X66873511Y-65029166D01*
X66921130Y-65029166D01*
X66940178Y-65019642D01*
X66949702Y-65010119D01*
X66959226Y-64991071D01*
X66959226Y-64933928D01*
X66949702Y-64914880D01*
X66940178Y-64905357D01*
X66759226Y-65210119D02*
X66759226Y-65114880D01*
X66854464Y-65105357D01*
X66844940Y-65114880D01*
X66835416Y-65133928D01*
X66835416Y-65181547D01*
X66844940Y-65200595D01*
X66854464Y-65210119D01*
X66873511Y-65219642D01*
X66921130Y-65219642D01*
X66940178Y-65210119D01*
X66949702Y-65200595D01*
X66959226Y-65181547D01*
X66959226Y-65133928D01*
X66949702Y-65114880D01*
X66940178Y-65105357D01*
X66959226Y-65410119D02*
X66959226Y-65295833D01*
X66959226Y-65352976D02*
X66759226Y-65352976D01*
X66787797Y-65333928D01*
X66806845Y-65314880D01*
X66816369Y-65295833D01*
G04 #@! TO.C,C352*
X67752678Y-64838690D02*
X67762202Y-64829166D01*
X67771726Y-64800595D01*
X67771726Y-64781547D01*
X67762202Y-64752976D01*
X67743154Y-64733928D01*
X67724107Y-64724404D01*
X67686011Y-64714880D01*
X67657440Y-64714880D01*
X67619345Y-64724404D01*
X67600297Y-64733928D01*
X67581250Y-64752976D01*
X67571726Y-64781547D01*
X67571726Y-64800595D01*
X67581250Y-64829166D01*
X67590773Y-64838690D01*
X67571726Y-64905357D02*
X67571726Y-65029166D01*
X67647916Y-64962500D01*
X67647916Y-64991071D01*
X67657440Y-65010119D01*
X67666964Y-65019642D01*
X67686011Y-65029166D01*
X67733630Y-65029166D01*
X67752678Y-65019642D01*
X67762202Y-65010119D01*
X67771726Y-64991071D01*
X67771726Y-64933928D01*
X67762202Y-64914880D01*
X67752678Y-64905357D01*
X67571726Y-65210119D02*
X67571726Y-65114880D01*
X67666964Y-65105357D01*
X67657440Y-65114880D01*
X67647916Y-65133928D01*
X67647916Y-65181547D01*
X67657440Y-65200595D01*
X67666964Y-65210119D01*
X67686011Y-65219642D01*
X67733630Y-65219642D01*
X67752678Y-65210119D01*
X67762202Y-65200595D01*
X67771726Y-65181547D01*
X67771726Y-65133928D01*
X67762202Y-65114880D01*
X67752678Y-65105357D01*
X67590773Y-65295833D02*
X67581250Y-65305357D01*
X67571726Y-65324404D01*
X67571726Y-65372023D01*
X67581250Y-65391071D01*
X67590773Y-65400595D01*
X67609821Y-65410119D01*
X67628869Y-65410119D01*
X67657440Y-65400595D01*
X67771726Y-65286309D01*
X67771726Y-65410119D01*
G04 #@! TO.C,C265*
X60023809Y-68321428D02*
X60033333Y-68330952D01*
X60061904Y-68340476D01*
X60080952Y-68340476D01*
X60109523Y-68330952D01*
X60128571Y-68311904D01*
X60138095Y-68292857D01*
X60147619Y-68254761D01*
X60147619Y-68226190D01*
X60138095Y-68188095D01*
X60128571Y-68169047D01*
X60109523Y-68150000D01*
X60080952Y-68140476D01*
X60061904Y-68140476D01*
X60033333Y-68150000D01*
X60023809Y-68159523D01*
X59947619Y-68159523D02*
X59938095Y-68150000D01*
X59919047Y-68140476D01*
X59871428Y-68140476D01*
X59852380Y-68150000D01*
X59842857Y-68159523D01*
X59833333Y-68178571D01*
X59833333Y-68197619D01*
X59842857Y-68226190D01*
X59957142Y-68340476D01*
X59833333Y-68340476D01*
X59661904Y-68140476D02*
X59700000Y-68140476D01*
X59719047Y-68150000D01*
X59728571Y-68159523D01*
X59747619Y-68188095D01*
X59757142Y-68226190D01*
X59757142Y-68302380D01*
X59747619Y-68321428D01*
X59738095Y-68330952D01*
X59719047Y-68340476D01*
X59680952Y-68340476D01*
X59661904Y-68330952D01*
X59652380Y-68321428D01*
X59642857Y-68302380D01*
X59642857Y-68254761D01*
X59652380Y-68235714D01*
X59661904Y-68226190D01*
X59680952Y-68216666D01*
X59719047Y-68216666D01*
X59738095Y-68226190D01*
X59747619Y-68235714D01*
X59757142Y-68254761D01*
X59461904Y-68140476D02*
X59557142Y-68140476D01*
X59566666Y-68235714D01*
X59557142Y-68226190D01*
X59538095Y-68216666D01*
X59490476Y-68216666D01*
X59471428Y-68226190D01*
X59461904Y-68235714D01*
X59452380Y-68254761D01*
X59452380Y-68302380D01*
X59461904Y-68321428D01*
X59471428Y-68330952D01*
X59490476Y-68340476D01*
X59538095Y-68340476D01*
X59557142Y-68330952D01*
X59566666Y-68321428D01*
G04 #@! TO.C,C269*
X61171428Y-69894940D02*
X61180952Y-69885416D01*
X61190476Y-69856845D01*
X61190476Y-69837797D01*
X61180952Y-69809226D01*
X61161904Y-69790178D01*
X61142857Y-69780654D01*
X61104761Y-69771130D01*
X61076190Y-69771130D01*
X61038095Y-69780654D01*
X61019047Y-69790178D01*
X61000000Y-69809226D01*
X60990476Y-69837797D01*
X60990476Y-69856845D01*
X61000000Y-69885416D01*
X61009523Y-69894940D01*
X61009523Y-69971130D02*
X61000000Y-69980654D01*
X60990476Y-69999702D01*
X60990476Y-70047321D01*
X61000000Y-70066369D01*
X61009523Y-70075892D01*
X61028571Y-70085416D01*
X61047619Y-70085416D01*
X61076190Y-70075892D01*
X61190476Y-69961607D01*
X61190476Y-70085416D01*
X60990476Y-70256845D02*
X60990476Y-70218750D01*
X61000000Y-70199702D01*
X61009523Y-70190178D01*
X61038095Y-70171130D01*
X61076190Y-70161607D01*
X61152380Y-70161607D01*
X61171428Y-70171130D01*
X61180952Y-70180654D01*
X61190476Y-70199702D01*
X61190476Y-70237797D01*
X61180952Y-70256845D01*
X61171428Y-70266369D01*
X61152380Y-70275892D01*
X61104761Y-70275892D01*
X61085714Y-70266369D01*
X61076190Y-70256845D01*
X61066666Y-70237797D01*
X61066666Y-70199702D01*
X61076190Y-70180654D01*
X61085714Y-70171130D01*
X61104761Y-70161607D01*
X61190476Y-70371130D02*
X61190476Y-70409226D01*
X61180952Y-70428273D01*
X61171428Y-70437797D01*
X61142857Y-70456845D01*
X61104761Y-70466369D01*
X61028571Y-70466369D01*
X61009523Y-70456845D01*
X61000000Y-70447321D01*
X60990476Y-70428273D01*
X60990476Y-70390178D01*
X61000000Y-70371130D01*
X61009523Y-70361607D01*
X61028571Y-70352083D01*
X61076190Y-70352083D01*
X61095238Y-70361607D01*
X61104761Y-70371130D01*
X61114285Y-70390178D01*
X61114285Y-70428273D01*
X61104761Y-70447321D01*
X61095238Y-70456845D01*
X61076190Y-70466369D01*
G04 #@! TO.C,C229*
X63761309Y-69133928D02*
X63770833Y-69143452D01*
X63799404Y-69152976D01*
X63818452Y-69152976D01*
X63847023Y-69143452D01*
X63866071Y-69124404D01*
X63875595Y-69105357D01*
X63885119Y-69067261D01*
X63885119Y-69038690D01*
X63875595Y-69000595D01*
X63866071Y-68981547D01*
X63847023Y-68962500D01*
X63818452Y-68952976D01*
X63799404Y-68952976D01*
X63770833Y-68962500D01*
X63761309Y-68972023D01*
X63685119Y-68972023D02*
X63675595Y-68962500D01*
X63656547Y-68952976D01*
X63608928Y-68952976D01*
X63589880Y-68962500D01*
X63580357Y-68972023D01*
X63570833Y-68991071D01*
X63570833Y-69010119D01*
X63580357Y-69038690D01*
X63694642Y-69152976D01*
X63570833Y-69152976D01*
X63494642Y-68972023D02*
X63485119Y-68962500D01*
X63466071Y-68952976D01*
X63418452Y-68952976D01*
X63399404Y-68962500D01*
X63389880Y-68972023D01*
X63380357Y-68991071D01*
X63380357Y-69010119D01*
X63389880Y-69038690D01*
X63504166Y-69152976D01*
X63380357Y-69152976D01*
X63285119Y-69152976D02*
X63247023Y-69152976D01*
X63227976Y-69143452D01*
X63218452Y-69133928D01*
X63199404Y-69105357D01*
X63189880Y-69067261D01*
X63189880Y-68991071D01*
X63199404Y-68972023D01*
X63208928Y-68962500D01*
X63227976Y-68952976D01*
X63266071Y-68952976D01*
X63285119Y-68962500D01*
X63294642Y-68972023D01*
X63304166Y-68991071D01*
X63304166Y-69038690D01*
X63294642Y-69057738D01*
X63285119Y-69067261D01*
X63266071Y-69076785D01*
X63227976Y-69076785D01*
X63208928Y-69067261D01*
X63199404Y-69057738D01*
X63189880Y-69038690D01*
G04 #@! TO.C,C258*
X63761309Y-69946428D02*
X63770833Y-69955952D01*
X63799404Y-69965476D01*
X63818452Y-69965476D01*
X63847023Y-69955952D01*
X63866071Y-69936904D01*
X63875595Y-69917857D01*
X63885119Y-69879761D01*
X63885119Y-69851190D01*
X63875595Y-69813095D01*
X63866071Y-69794047D01*
X63847023Y-69775000D01*
X63818452Y-69765476D01*
X63799404Y-69765476D01*
X63770833Y-69775000D01*
X63761309Y-69784523D01*
X63685119Y-69784523D02*
X63675595Y-69775000D01*
X63656547Y-69765476D01*
X63608928Y-69765476D01*
X63589880Y-69775000D01*
X63580357Y-69784523D01*
X63570833Y-69803571D01*
X63570833Y-69822619D01*
X63580357Y-69851190D01*
X63694642Y-69965476D01*
X63570833Y-69965476D01*
X63389880Y-69765476D02*
X63485119Y-69765476D01*
X63494642Y-69860714D01*
X63485119Y-69851190D01*
X63466071Y-69841666D01*
X63418452Y-69841666D01*
X63399404Y-69851190D01*
X63389880Y-69860714D01*
X63380357Y-69879761D01*
X63380357Y-69927380D01*
X63389880Y-69946428D01*
X63399404Y-69955952D01*
X63418452Y-69965476D01*
X63466071Y-69965476D01*
X63485119Y-69955952D01*
X63494642Y-69946428D01*
X63266071Y-69851190D02*
X63285119Y-69841666D01*
X63294642Y-69832142D01*
X63304166Y-69813095D01*
X63304166Y-69803571D01*
X63294642Y-69784523D01*
X63285119Y-69775000D01*
X63266071Y-69765476D01*
X63227976Y-69765476D01*
X63208928Y-69775000D01*
X63199404Y-69784523D01*
X63189880Y-69803571D01*
X63189880Y-69813095D01*
X63199404Y-69832142D01*
X63208928Y-69841666D01*
X63227976Y-69851190D01*
X63266071Y-69851190D01*
X63285119Y-69860714D01*
X63294642Y-69870238D01*
X63304166Y-69889285D01*
X63304166Y-69927380D01*
X63294642Y-69946428D01*
X63285119Y-69955952D01*
X63266071Y-69965476D01*
X63227976Y-69965476D01*
X63208928Y-69955952D01*
X63199404Y-69946428D01*
X63189880Y-69927380D01*
X63189880Y-69889285D01*
X63199404Y-69870238D01*
X63208928Y-69860714D01*
X63227976Y-69851190D01*
G04 #@! TO.C,C110*
X59058928Y-69569940D02*
X59068452Y-69560416D01*
X59077976Y-69531845D01*
X59077976Y-69512797D01*
X59068452Y-69484226D01*
X59049404Y-69465178D01*
X59030357Y-69455654D01*
X58992261Y-69446130D01*
X58963690Y-69446130D01*
X58925595Y-69455654D01*
X58906547Y-69465178D01*
X58887500Y-69484226D01*
X58877976Y-69512797D01*
X58877976Y-69531845D01*
X58887500Y-69560416D01*
X58897023Y-69569940D01*
X59077976Y-69760416D02*
X59077976Y-69646130D01*
X59077976Y-69703273D02*
X58877976Y-69703273D01*
X58906547Y-69684226D01*
X58925595Y-69665178D01*
X58935119Y-69646130D01*
X59077976Y-69950892D02*
X59077976Y-69836607D01*
X59077976Y-69893750D02*
X58877976Y-69893750D01*
X58906547Y-69874702D01*
X58925595Y-69855654D01*
X58935119Y-69836607D01*
X58877976Y-70074702D02*
X58877976Y-70093750D01*
X58887500Y-70112797D01*
X58897023Y-70122321D01*
X58916071Y-70131845D01*
X58954166Y-70141369D01*
X59001785Y-70141369D01*
X59039880Y-70131845D01*
X59058928Y-70122321D01*
X59068452Y-70112797D01*
X59077976Y-70093750D01*
X59077976Y-70074702D01*
X59068452Y-70055654D01*
X59058928Y-70046130D01*
X59039880Y-70036607D01*
X59001785Y-70027083D01*
X58954166Y-70027083D01*
X58916071Y-70036607D01*
X58897023Y-70046130D01*
X58887500Y-70055654D01*
X58877976Y-70074702D01*
G04 #@! TO.C,C331*
X84723809Y-68071428D02*
X84733333Y-68080952D01*
X84761904Y-68090476D01*
X84780952Y-68090476D01*
X84809523Y-68080952D01*
X84828571Y-68061904D01*
X84838095Y-68042857D01*
X84847619Y-68004761D01*
X84847619Y-67976190D01*
X84838095Y-67938095D01*
X84828571Y-67919047D01*
X84809523Y-67900000D01*
X84780952Y-67890476D01*
X84761904Y-67890476D01*
X84733333Y-67900000D01*
X84723809Y-67909523D01*
X84657142Y-67890476D02*
X84533333Y-67890476D01*
X84600000Y-67966666D01*
X84571428Y-67966666D01*
X84552380Y-67976190D01*
X84542857Y-67985714D01*
X84533333Y-68004761D01*
X84533333Y-68052380D01*
X84542857Y-68071428D01*
X84552380Y-68080952D01*
X84571428Y-68090476D01*
X84628571Y-68090476D01*
X84647619Y-68080952D01*
X84657142Y-68071428D01*
X84466666Y-67890476D02*
X84342857Y-67890476D01*
X84409523Y-67966666D01*
X84380952Y-67966666D01*
X84361904Y-67976190D01*
X84352380Y-67985714D01*
X84342857Y-68004761D01*
X84342857Y-68052380D01*
X84352380Y-68071428D01*
X84361904Y-68080952D01*
X84380952Y-68090476D01*
X84438095Y-68090476D01*
X84457142Y-68080952D01*
X84466666Y-68071428D01*
X84152380Y-68090476D02*
X84266666Y-68090476D01*
X84209523Y-68090476D02*
X84209523Y-67890476D01*
X84228571Y-67919047D01*
X84247619Y-67938095D01*
X84266666Y-67947619D01*
G04 #@! TO.C,C830*
X70071428Y-56776190D02*
X70080952Y-56766666D01*
X70090476Y-56738095D01*
X70090476Y-56719047D01*
X70080952Y-56690476D01*
X70061904Y-56671428D01*
X70042857Y-56661904D01*
X70004761Y-56652380D01*
X69976190Y-56652380D01*
X69938095Y-56661904D01*
X69919047Y-56671428D01*
X69900000Y-56690476D01*
X69890476Y-56719047D01*
X69890476Y-56738095D01*
X69900000Y-56766666D01*
X69909523Y-56776190D01*
X69976190Y-56890476D02*
X69966666Y-56871428D01*
X69957142Y-56861904D01*
X69938095Y-56852380D01*
X69928571Y-56852380D01*
X69909523Y-56861904D01*
X69900000Y-56871428D01*
X69890476Y-56890476D01*
X69890476Y-56928571D01*
X69900000Y-56947619D01*
X69909523Y-56957142D01*
X69928571Y-56966666D01*
X69938095Y-56966666D01*
X69957142Y-56957142D01*
X69966666Y-56947619D01*
X69976190Y-56928571D01*
X69976190Y-56890476D01*
X69985714Y-56871428D01*
X69995238Y-56861904D01*
X70014285Y-56852380D01*
X70052380Y-56852380D01*
X70071428Y-56861904D01*
X70080952Y-56871428D01*
X70090476Y-56890476D01*
X70090476Y-56928571D01*
X70080952Y-56947619D01*
X70071428Y-56957142D01*
X70052380Y-56966666D01*
X70014285Y-56966666D01*
X69995238Y-56957142D01*
X69985714Y-56947619D01*
X69976190Y-56928571D01*
X69890476Y-57033333D02*
X69890476Y-57157142D01*
X69966666Y-57090476D01*
X69966666Y-57119047D01*
X69976190Y-57138095D01*
X69985714Y-57147619D01*
X70004761Y-57157142D01*
X70052380Y-57157142D01*
X70071428Y-57147619D01*
X70080952Y-57138095D01*
X70090476Y-57119047D01*
X70090476Y-57061904D01*
X70080952Y-57042857D01*
X70071428Y-57033333D01*
X69890476Y-57280952D02*
X69890476Y-57300000D01*
X69900000Y-57319047D01*
X69909523Y-57328571D01*
X69928571Y-57338095D01*
X69966666Y-57347619D01*
X70014285Y-57347619D01*
X70052380Y-57338095D01*
X70071428Y-57328571D01*
X70080952Y-57319047D01*
X70090476Y-57300000D01*
X70090476Y-57280952D01*
X70080952Y-57261904D01*
X70071428Y-57252380D01*
X70052380Y-57242857D01*
X70014285Y-57233333D01*
X69966666Y-57233333D01*
X69928571Y-57242857D01*
X69909523Y-57252380D01*
X69900000Y-57261904D01*
X69890476Y-57280952D01*
G04 #@! TO.C,C200*
X68821428Y-56076190D02*
X68830952Y-56066666D01*
X68840476Y-56038095D01*
X68840476Y-56019047D01*
X68830952Y-55990476D01*
X68811904Y-55971428D01*
X68792857Y-55961904D01*
X68754761Y-55952380D01*
X68726190Y-55952380D01*
X68688095Y-55961904D01*
X68669047Y-55971428D01*
X68650000Y-55990476D01*
X68640476Y-56019047D01*
X68640476Y-56038095D01*
X68650000Y-56066666D01*
X68659523Y-56076190D01*
X68659523Y-56152380D02*
X68650000Y-56161904D01*
X68640476Y-56180952D01*
X68640476Y-56228571D01*
X68650000Y-56247619D01*
X68659523Y-56257142D01*
X68678571Y-56266666D01*
X68697619Y-56266666D01*
X68726190Y-56257142D01*
X68840476Y-56142857D01*
X68840476Y-56266666D01*
X68640476Y-56390476D02*
X68640476Y-56409523D01*
X68650000Y-56428571D01*
X68659523Y-56438095D01*
X68678571Y-56447619D01*
X68716666Y-56457142D01*
X68764285Y-56457142D01*
X68802380Y-56447619D01*
X68821428Y-56438095D01*
X68830952Y-56428571D01*
X68840476Y-56409523D01*
X68840476Y-56390476D01*
X68830952Y-56371428D01*
X68821428Y-56361904D01*
X68802380Y-56352380D01*
X68764285Y-56342857D01*
X68716666Y-56342857D01*
X68678571Y-56352380D01*
X68659523Y-56361904D01*
X68650000Y-56371428D01*
X68640476Y-56390476D01*
X68640476Y-56580952D02*
X68640476Y-56600000D01*
X68650000Y-56619047D01*
X68659523Y-56628571D01*
X68678571Y-56638095D01*
X68716666Y-56647619D01*
X68764285Y-56647619D01*
X68802380Y-56638095D01*
X68821428Y-56628571D01*
X68830952Y-56619047D01*
X68840476Y-56600000D01*
X68840476Y-56580952D01*
X68830952Y-56561904D01*
X68821428Y-56552380D01*
X68802380Y-56542857D01*
X68764285Y-56533333D01*
X68716666Y-56533333D01*
X68678571Y-56542857D01*
X68659523Y-56552380D01*
X68650000Y-56561904D01*
X68640476Y-56580952D01*
G04 #@! TO.C,C260*
X61973809Y-63771428D02*
X61983333Y-63780952D01*
X62011904Y-63790476D01*
X62030952Y-63790476D01*
X62059523Y-63780952D01*
X62078571Y-63761904D01*
X62088095Y-63742857D01*
X62097619Y-63704761D01*
X62097619Y-63676190D01*
X62088095Y-63638095D01*
X62078571Y-63619047D01*
X62059523Y-63600000D01*
X62030952Y-63590476D01*
X62011904Y-63590476D01*
X61983333Y-63600000D01*
X61973809Y-63609523D01*
X61897619Y-63609523D02*
X61888095Y-63600000D01*
X61869047Y-63590476D01*
X61821428Y-63590476D01*
X61802380Y-63600000D01*
X61792857Y-63609523D01*
X61783333Y-63628571D01*
X61783333Y-63647619D01*
X61792857Y-63676190D01*
X61907142Y-63790476D01*
X61783333Y-63790476D01*
X61611904Y-63590476D02*
X61650000Y-63590476D01*
X61669047Y-63600000D01*
X61678571Y-63609523D01*
X61697619Y-63638095D01*
X61707142Y-63676190D01*
X61707142Y-63752380D01*
X61697619Y-63771428D01*
X61688095Y-63780952D01*
X61669047Y-63790476D01*
X61630952Y-63790476D01*
X61611904Y-63780952D01*
X61602380Y-63771428D01*
X61592857Y-63752380D01*
X61592857Y-63704761D01*
X61602380Y-63685714D01*
X61611904Y-63676190D01*
X61630952Y-63666666D01*
X61669047Y-63666666D01*
X61688095Y-63676190D01*
X61697619Y-63685714D01*
X61707142Y-63704761D01*
X61469047Y-63590476D02*
X61450000Y-63590476D01*
X61430952Y-63600000D01*
X61421428Y-63609523D01*
X61411904Y-63628571D01*
X61402380Y-63666666D01*
X61402380Y-63714285D01*
X61411904Y-63752380D01*
X61421428Y-63771428D01*
X61430952Y-63780952D01*
X61450000Y-63790476D01*
X61469047Y-63790476D01*
X61488095Y-63780952D01*
X61497619Y-63771428D01*
X61507142Y-63752380D01*
X61516666Y-63714285D01*
X61516666Y-63666666D01*
X61507142Y-63628571D01*
X61497619Y-63609523D01*
X61488095Y-63600000D01*
X61469047Y-63590476D01*
G04 #@! TO.C,C261*
X61923809Y-66371428D02*
X61933333Y-66380952D01*
X61961904Y-66390476D01*
X61980952Y-66390476D01*
X62009523Y-66380952D01*
X62028571Y-66361904D01*
X62038095Y-66342857D01*
X62047619Y-66304761D01*
X62047619Y-66276190D01*
X62038095Y-66238095D01*
X62028571Y-66219047D01*
X62009523Y-66200000D01*
X61980952Y-66190476D01*
X61961904Y-66190476D01*
X61933333Y-66200000D01*
X61923809Y-66209523D01*
X61847619Y-66209523D02*
X61838095Y-66200000D01*
X61819047Y-66190476D01*
X61771428Y-66190476D01*
X61752380Y-66200000D01*
X61742857Y-66209523D01*
X61733333Y-66228571D01*
X61733333Y-66247619D01*
X61742857Y-66276190D01*
X61857142Y-66390476D01*
X61733333Y-66390476D01*
X61561904Y-66190476D02*
X61600000Y-66190476D01*
X61619047Y-66200000D01*
X61628571Y-66209523D01*
X61647619Y-66238095D01*
X61657142Y-66276190D01*
X61657142Y-66352380D01*
X61647619Y-66371428D01*
X61638095Y-66380952D01*
X61619047Y-66390476D01*
X61580952Y-66390476D01*
X61561904Y-66380952D01*
X61552380Y-66371428D01*
X61542857Y-66352380D01*
X61542857Y-66304761D01*
X61552380Y-66285714D01*
X61561904Y-66276190D01*
X61580952Y-66266666D01*
X61619047Y-66266666D01*
X61638095Y-66276190D01*
X61647619Y-66285714D01*
X61657142Y-66304761D01*
X61352380Y-66390476D02*
X61466666Y-66390476D01*
X61409523Y-66390476D02*
X61409523Y-66190476D01*
X61428571Y-66219047D01*
X61447619Y-66238095D01*
X61466666Y-66247619D01*
G04 #@! TO.C,C252*
X45473809Y-60571428D02*
X45483333Y-60580952D01*
X45511904Y-60590476D01*
X45530952Y-60590476D01*
X45559523Y-60580952D01*
X45578571Y-60561904D01*
X45588095Y-60542857D01*
X45597619Y-60504761D01*
X45597619Y-60476190D01*
X45588095Y-60438095D01*
X45578571Y-60419047D01*
X45559523Y-60400000D01*
X45530952Y-60390476D01*
X45511904Y-60390476D01*
X45483333Y-60400000D01*
X45473809Y-60409523D01*
X45397619Y-60409523D02*
X45388095Y-60400000D01*
X45369047Y-60390476D01*
X45321428Y-60390476D01*
X45302380Y-60400000D01*
X45292857Y-60409523D01*
X45283333Y-60428571D01*
X45283333Y-60447619D01*
X45292857Y-60476190D01*
X45407142Y-60590476D01*
X45283333Y-60590476D01*
X45102380Y-60390476D02*
X45197619Y-60390476D01*
X45207142Y-60485714D01*
X45197619Y-60476190D01*
X45178571Y-60466666D01*
X45130952Y-60466666D01*
X45111904Y-60476190D01*
X45102380Y-60485714D01*
X45092857Y-60504761D01*
X45092857Y-60552380D01*
X45102380Y-60571428D01*
X45111904Y-60580952D01*
X45130952Y-60590476D01*
X45178571Y-60590476D01*
X45197619Y-60580952D01*
X45207142Y-60571428D01*
X45016666Y-60409523D02*
X45007142Y-60400000D01*
X44988095Y-60390476D01*
X44940476Y-60390476D01*
X44921428Y-60400000D01*
X44911904Y-60409523D01*
X44902380Y-60428571D01*
X44902380Y-60447619D01*
X44911904Y-60476190D01*
X45026190Y-60590476D01*
X44902380Y-60590476D01*
G04 #@! TO.C,C324*
X84723809Y-61071428D02*
X84733333Y-61080952D01*
X84761904Y-61090476D01*
X84780952Y-61090476D01*
X84809523Y-61080952D01*
X84828571Y-61061904D01*
X84838095Y-61042857D01*
X84847619Y-61004761D01*
X84847619Y-60976190D01*
X84838095Y-60938095D01*
X84828571Y-60919047D01*
X84809523Y-60900000D01*
X84780952Y-60890476D01*
X84761904Y-60890476D01*
X84733333Y-60900000D01*
X84723809Y-60909523D01*
X84657142Y-60890476D02*
X84533333Y-60890476D01*
X84600000Y-60966666D01*
X84571428Y-60966666D01*
X84552380Y-60976190D01*
X84542857Y-60985714D01*
X84533333Y-61004761D01*
X84533333Y-61052380D01*
X84542857Y-61071428D01*
X84552380Y-61080952D01*
X84571428Y-61090476D01*
X84628571Y-61090476D01*
X84647619Y-61080952D01*
X84657142Y-61071428D01*
X84457142Y-60909523D02*
X84447619Y-60900000D01*
X84428571Y-60890476D01*
X84380952Y-60890476D01*
X84361904Y-60900000D01*
X84352380Y-60909523D01*
X84342857Y-60928571D01*
X84342857Y-60947619D01*
X84352380Y-60976190D01*
X84466666Y-61090476D01*
X84342857Y-61090476D01*
X84171428Y-60957142D02*
X84171428Y-61090476D01*
X84219047Y-60880952D02*
X84266666Y-61023809D01*
X84142857Y-61023809D01*
G04 #@! TO.C,C325*
X74723809Y-61321428D02*
X74733333Y-61330952D01*
X74761904Y-61340476D01*
X74780952Y-61340476D01*
X74809523Y-61330952D01*
X74828571Y-61311904D01*
X74838095Y-61292857D01*
X74847619Y-61254761D01*
X74847619Y-61226190D01*
X74838095Y-61188095D01*
X74828571Y-61169047D01*
X74809523Y-61150000D01*
X74780952Y-61140476D01*
X74761904Y-61140476D01*
X74733333Y-61150000D01*
X74723809Y-61159523D01*
X74657142Y-61140476D02*
X74533333Y-61140476D01*
X74600000Y-61216666D01*
X74571428Y-61216666D01*
X74552380Y-61226190D01*
X74542857Y-61235714D01*
X74533333Y-61254761D01*
X74533333Y-61302380D01*
X74542857Y-61321428D01*
X74552380Y-61330952D01*
X74571428Y-61340476D01*
X74628571Y-61340476D01*
X74647619Y-61330952D01*
X74657142Y-61321428D01*
X74457142Y-61159523D02*
X74447619Y-61150000D01*
X74428571Y-61140476D01*
X74380952Y-61140476D01*
X74361904Y-61150000D01*
X74352380Y-61159523D01*
X74342857Y-61178571D01*
X74342857Y-61197619D01*
X74352380Y-61226190D01*
X74466666Y-61340476D01*
X74342857Y-61340476D01*
X74161904Y-61140476D02*
X74257142Y-61140476D01*
X74266666Y-61235714D01*
X74257142Y-61226190D01*
X74238095Y-61216666D01*
X74190476Y-61216666D01*
X74171428Y-61226190D01*
X74161904Y-61235714D01*
X74152380Y-61254761D01*
X74152380Y-61302380D01*
X74161904Y-61321428D01*
X74171428Y-61330952D01*
X74190476Y-61340476D01*
X74238095Y-61340476D01*
X74257142Y-61330952D01*
X74266666Y-61321428D01*
G04 #@! TO.C,C326*
X79823809Y-63371428D02*
X79833333Y-63380952D01*
X79861904Y-63390476D01*
X79880952Y-63390476D01*
X79909523Y-63380952D01*
X79928571Y-63361904D01*
X79938095Y-63342857D01*
X79947619Y-63304761D01*
X79947619Y-63276190D01*
X79938095Y-63238095D01*
X79928571Y-63219047D01*
X79909523Y-63200000D01*
X79880952Y-63190476D01*
X79861904Y-63190476D01*
X79833333Y-63200000D01*
X79823809Y-63209523D01*
X79757142Y-63190476D02*
X79633333Y-63190476D01*
X79700000Y-63266666D01*
X79671428Y-63266666D01*
X79652380Y-63276190D01*
X79642857Y-63285714D01*
X79633333Y-63304761D01*
X79633333Y-63352380D01*
X79642857Y-63371428D01*
X79652380Y-63380952D01*
X79671428Y-63390476D01*
X79728571Y-63390476D01*
X79747619Y-63380952D01*
X79757142Y-63371428D01*
X79557142Y-63209523D02*
X79547619Y-63200000D01*
X79528571Y-63190476D01*
X79480952Y-63190476D01*
X79461904Y-63200000D01*
X79452380Y-63209523D01*
X79442857Y-63228571D01*
X79442857Y-63247619D01*
X79452380Y-63276190D01*
X79566666Y-63390476D01*
X79442857Y-63390476D01*
X79271428Y-63190476D02*
X79309523Y-63190476D01*
X79328571Y-63200000D01*
X79338095Y-63209523D01*
X79357142Y-63238095D01*
X79366666Y-63276190D01*
X79366666Y-63352380D01*
X79357142Y-63371428D01*
X79347619Y-63380952D01*
X79328571Y-63390476D01*
X79290476Y-63390476D01*
X79271428Y-63380952D01*
X79261904Y-63371428D01*
X79252380Y-63352380D01*
X79252380Y-63304761D01*
X79261904Y-63285714D01*
X79271428Y-63276190D01*
X79290476Y-63266666D01*
X79328571Y-63266666D01*
X79347619Y-63276190D01*
X79357142Y-63285714D01*
X79366666Y-63304761D01*
G04 #@! TO.C,R830*
X71398809Y-60540476D02*
X71465476Y-60445238D01*
X71513095Y-60540476D02*
X71513095Y-60340476D01*
X71436904Y-60340476D01*
X71417857Y-60350000D01*
X71408333Y-60359523D01*
X71398809Y-60378571D01*
X71398809Y-60407142D01*
X71408333Y-60426190D01*
X71417857Y-60435714D01*
X71436904Y-60445238D01*
X71513095Y-60445238D01*
X71284523Y-60426190D02*
X71303571Y-60416666D01*
X71313095Y-60407142D01*
X71322619Y-60388095D01*
X71322619Y-60378571D01*
X71313095Y-60359523D01*
X71303571Y-60350000D01*
X71284523Y-60340476D01*
X71246428Y-60340476D01*
X71227380Y-60350000D01*
X71217857Y-60359523D01*
X71208333Y-60378571D01*
X71208333Y-60388095D01*
X71217857Y-60407142D01*
X71227380Y-60416666D01*
X71246428Y-60426190D01*
X71284523Y-60426190D01*
X71303571Y-60435714D01*
X71313095Y-60445238D01*
X71322619Y-60464285D01*
X71322619Y-60502380D01*
X71313095Y-60521428D01*
X71303571Y-60530952D01*
X71284523Y-60540476D01*
X71246428Y-60540476D01*
X71227380Y-60530952D01*
X71217857Y-60521428D01*
X71208333Y-60502380D01*
X71208333Y-60464285D01*
X71217857Y-60445238D01*
X71227380Y-60435714D01*
X71246428Y-60426190D01*
X71141666Y-60340476D02*
X71017857Y-60340476D01*
X71084523Y-60416666D01*
X71055952Y-60416666D01*
X71036904Y-60426190D01*
X71027380Y-60435714D01*
X71017857Y-60454761D01*
X71017857Y-60502380D01*
X71027380Y-60521428D01*
X71036904Y-60530952D01*
X71055952Y-60540476D01*
X71113095Y-60540476D01*
X71132142Y-60530952D01*
X71141666Y-60521428D01*
X70894047Y-60340476D02*
X70875000Y-60340476D01*
X70855952Y-60350000D01*
X70846428Y-60359523D01*
X70836904Y-60378571D01*
X70827380Y-60416666D01*
X70827380Y-60464285D01*
X70836904Y-60502380D01*
X70846428Y-60521428D01*
X70855952Y-60530952D01*
X70875000Y-60540476D01*
X70894047Y-60540476D01*
X70913095Y-60530952D01*
X70922619Y-60521428D01*
X70932142Y-60502380D01*
X70941666Y-60464285D01*
X70941666Y-60416666D01*
X70932142Y-60378571D01*
X70922619Y-60359523D01*
X70913095Y-60350000D01*
X70894047Y-60340476D01*
G04 #@! TO.C,R110*
X59890476Y-69894940D02*
X59795238Y-69828273D01*
X59890476Y-69780654D02*
X59690476Y-69780654D01*
X59690476Y-69856845D01*
X59700000Y-69875892D01*
X59709523Y-69885416D01*
X59728571Y-69894940D01*
X59757142Y-69894940D01*
X59776190Y-69885416D01*
X59785714Y-69875892D01*
X59795238Y-69856845D01*
X59795238Y-69780654D01*
X59890476Y-70085416D02*
X59890476Y-69971130D01*
X59890476Y-70028273D02*
X59690476Y-70028273D01*
X59719047Y-70009226D01*
X59738095Y-69990178D01*
X59747619Y-69971130D01*
X59890476Y-70275892D02*
X59890476Y-70161607D01*
X59890476Y-70218750D02*
X59690476Y-70218750D01*
X59719047Y-70199702D01*
X59738095Y-70180654D01*
X59747619Y-70161607D01*
X59690476Y-70399702D02*
X59690476Y-70418750D01*
X59700000Y-70437797D01*
X59709523Y-70447321D01*
X59728571Y-70456845D01*
X59766666Y-70466369D01*
X59814285Y-70466369D01*
X59852380Y-70456845D01*
X59871428Y-70447321D01*
X59880952Y-70437797D01*
X59890476Y-70418750D01*
X59890476Y-70399702D01*
X59880952Y-70380654D01*
X59871428Y-70371130D01*
X59852380Y-70361607D01*
X59814285Y-70352083D01*
X59766666Y-70352083D01*
X59728571Y-70361607D01*
X59709523Y-70371130D01*
X59700000Y-70380654D01*
X59690476Y-70399702D01*
G04 #@! TO.C,R50*
X84628571Y-67090476D02*
X84695238Y-66995238D01*
X84742857Y-67090476D02*
X84742857Y-66890476D01*
X84666666Y-66890476D01*
X84647619Y-66900000D01*
X84638095Y-66909523D01*
X84628571Y-66928571D01*
X84628571Y-66957142D01*
X84638095Y-66976190D01*
X84647619Y-66985714D01*
X84666666Y-66995238D01*
X84742857Y-66995238D01*
X84447619Y-66890476D02*
X84542857Y-66890476D01*
X84552380Y-66985714D01*
X84542857Y-66976190D01*
X84523809Y-66966666D01*
X84476190Y-66966666D01*
X84457142Y-66976190D01*
X84447619Y-66985714D01*
X84438095Y-67004761D01*
X84438095Y-67052380D01*
X84447619Y-67071428D01*
X84457142Y-67080952D01*
X84476190Y-67090476D01*
X84523809Y-67090476D01*
X84542857Y-67080952D01*
X84552380Y-67071428D01*
X84314285Y-66890476D02*
X84295238Y-66890476D01*
X84276190Y-66900000D01*
X84266666Y-66909523D01*
X84257142Y-66928571D01*
X84247619Y-66966666D01*
X84247619Y-67014285D01*
X84257142Y-67052380D01*
X84266666Y-67071428D01*
X84276190Y-67080952D01*
X84295238Y-67090476D01*
X84314285Y-67090476D01*
X84333333Y-67080952D01*
X84342857Y-67071428D01*
X84352380Y-67052380D01*
X84361904Y-67014285D01*
X84361904Y-66966666D01*
X84352380Y-66928571D01*
X84342857Y-66909523D01*
X84333333Y-66900000D01*
X84314285Y-66890476D01*
G04 #@! TO.C,R330*
X79823809Y-62390476D02*
X79890476Y-62295238D01*
X79938095Y-62390476D02*
X79938095Y-62190476D01*
X79861904Y-62190476D01*
X79842857Y-62200000D01*
X79833333Y-62209523D01*
X79823809Y-62228571D01*
X79823809Y-62257142D01*
X79833333Y-62276190D01*
X79842857Y-62285714D01*
X79861904Y-62295238D01*
X79938095Y-62295238D01*
X79757142Y-62190476D02*
X79633333Y-62190476D01*
X79700000Y-62266666D01*
X79671428Y-62266666D01*
X79652380Y-62276190D01*
X79642857Y-62285714D01*
X79633333Y-62304761D01*
X79633333Y-62352380D01*
X79642857Y-62371428D01*
X79652380Y-62380952D01*
X79671428Y-62390476D01*
X79728571Y-62390476D01*
X79747619Y-62380952D01*
X79757142Y-62371428D01*
X79566666Y-62190476D02*
X79442857Y-62190476D01*
X79509523Y-62266666D01*
X79480952Y-62266666D01*
X79461904Y-62276190D01*
X79452380Y-62285714D01*
X79442857Y-62304761D01*
X79442857Y-62352380D01*
X79452380Y-62371428D01*
X79461904Y-62380952D01*
X79480952Y-62390476D01*
X79538095Y-62390476D01*
X79557142Y-62380952D01*
X79566666Y-62371428D01*
X79319047Y-62190476D02*
X79300000Y-62190476D01*
X79280952Y-62200000D01*
X79271428Y-62209523D01*
X79261904Y-62228571D01*
X79252380Y-62266666D01*
X79252380Y-62314285D01*
X79261904Y-62352380D01*
X79271428Y-62371428D01*
X79280952Y-62380952D01*
X79300000Y-62390476D01*
X79319047Y-62390476D01*
X79338095Y-62380952D01*
X79347619Y-62371428D01*
X79357142Y-62352380D01*
X79366666Y-62314285D01*
X79366666Y-62266666D01*
X79357142Y-62228571D01*
X79347619Y-62209523D01*
X79338095Y-62200000D01*
X79319047Y-62190476D01*
G04 #@! TO.C,R331*
X79823809Y-61590476D02*
X79890476Y-61495238D01*
X79938095Y-61590476D02*
X79938095Y-61390476D01*
X79861904Y-61390476D01*
X79842857Y-61400000D01*
X79833333Y-61409523D01*
X79823809Y-61428571D01*
X79823809Y-61457142D01*
X79833333Y-61476190D01*
X79842857Y-61485714D01*
X79861904Y-61495238D01*
X79938095Y-61495238D01*
X79757142Y-61390476D02*
X79633333Y-61390476D01*
X79700000Y-61466666D01*
X79671428Y-61466666D01*
X79652380Y-61476190D01*
X79642857Y-61485714D01*
X79633333Y-61504761D01*
X79633333Y-61552380D01*
X79642857Y-61571428D01*
X79652380Y-61580952D01*
X79671428Y-61590476D01*
X79728571Y-61590476D01*
X79747619Y-61580952D01*
X79757142Y-61571428D01*
X79566666Y-61390476D02*
X79442857Y-61390476D01*
X79509523Y-61466666D01*
X79480952Y-61466666D01*
X79461904Y-61476190D01*
X79452380Y-61485714D01*
X79442857Y-61504761D01*
X79442857Y-61552380D01*
X79452380Y-61571428D01*
X79461904Y-61580952D01*
X79480952Y-61590476D01*
X79538095Y-61590476D01*
X79557142Y-61580952D01*
X79566666Y-61571428D01*
X79252380Y-61590476D02*
X79366666Y-61590476D01*
X79309523Y-61590476D02*
X79309523Y-61390476D01*
X79328571Y-61419047D01*
X79347619Y-61438095D01*
X79366666Y-61447619D01*
G04 #@! TO.C,R340*
X79823809Y-66290476D02*
X79890476Y-66195238D01*
X79938095Y-66290476D02*
X79938095Y-66090476D01*
X79861904Y-66090476D01*
X79842857Y-66100000D01*
X79833333Y-66109523D01*
X79823809Y-66128571D01*
X79823809Y-66157142D01*
X79833333Y-66176190D01*
X79842857Y-66185714D01*
X79861904Y-66195238D01*
X79938095Y-66195238D01*
X79757142Y-66090476D02*
X79633333Y-66090476D01*
X79700000Y-66166666D01*
X79671428Y-66166666D01*
X79652380Y-66176190D01*
X79642857Y-66185714D01*
X79633333Y-66204761D01*
X79633333Y-66252380D01*
X79642857Y-66271428D01*
X79652380Y-66280952D01*
X79671428Y-66290476D01*
X79728571Y-66290476D01*
X79747619Y-66280952D01*
X79757142Y-66271428D01*
X79461904Y-66157142D02*
X79461904Y-66290476D01*
X79509523Y-66080952D02*
X79557142Y-66223809D01*
X79433333Y-66223809D01*
X79319047Y-66090476D02*
X79300000Y-66090476D01*
X79280952Y-66100000D01*
X79271428Y-66109523D01*
X79261904Y-66128571D01*
X79252380Y-66166666D01*
X79252380Y-66214285D01*
X79261904Y-66252380D01*
X79271428Y-66271428D01*
X79280952Y-66280952D01*
X79300000Y-66290476D01*
X79319047Y-66290476D01*
X79338095Y-66280952D01*
X79347619Y-66271428D01*
X79357142Y-66252380D01*
X79366666Y-66214285D01*
X79366666Y-66166666D01*
X79357142Y-66128571D01*
X79347619Y-66109523D01*
X79338095Y-66100000D01*
X79319047Y-66090476D01*
G04 #@! TO.C,R341*
X79823809Y-65490476D02*
X79890476Y-65395238D01*
X79938095Y-65490476D02*
X79938095Y-65290476D01*
X79861904Y-65290476D01*
X79842857Y-65300000D01*
X79833333Y-65309523D01*
X79823809Y-65328571D01*
X79823809Y-65357142D01*
X79833333Y-65376190D01*
X79842857Y-65385714D01*
X79861904Y-65395238D01*
X79938095Y-65395238D01*
X79757142Y-65290476D02*
X79633333Y-65290476D01*
X79700000Y-65366666D01*
X79671428Y-65366666D01*
X79652380Y-65376190D01*
X79642857Y-65385714D01*
X79633333Y-65404761D01*
X79633333Y-65452380D01*
X79642857Y-65471428D01*
X79652380Y-65480952D01*
X79671428Y-65490476D01*
X79728571Y-65490476D01*
X79747619Y-65480952D01*
X79757142Y-65471428D01*
X79461904Y-65357142D02*
X79461904Y-65490476D01*
X79509523Y-65280952D02*
X79557142Y-65423809D01*
X79433333Y-65423809D01*
X79252380Y-65490476D02*
X79366666Y-65490476D01*
X79309523Y-65490476D02*
X79309523Y-65290476D01*
X79328571Y-65319047D01*
X79347619Y-65338095D01*
X79366666Y-65347619D01*
G04 #@! TO.C,R831*
X71398809Y-61515476D02*
X71465476Y-61420238D01*
X71513095Y-61515476D02*
X71513095Y-61315476D01*
X71436904Y-61315476D01*
X71417857Y-61325000D01*
X71408333Y-61334523D01*
X71398809Y-61353571D01*
X71398809Y-61382142D01*
X71408333Y-61401190D01*
X71417857Y-61410714D01*
X71436904Y-61420238D01*
X71513095Y-61420238D01*
X71284523Y-61401190D02*
X71303571Y-61391666D01*
X71313095Y-61382142D01*
X71322619Y-61363095D01*
X71322619Y-61353571D01*
X71313095Y-61334523D01*
X71303571Y-61325000D01*
X71284523Y-61315476D01*
X71246428Y-61315476D01*
X71227380Y-61325000D01*
X71217857Y-61334523D01*
X71208333Y-61353571D01*
X71208333Y-61363095D01*
X71217857Y-61382142D01*
X71227380Y-61391666D01*
X71246428Y-61401190D01*
X71284523Y-61401190D01*
X71303571Y-61410714D01*
X71313095Y-61420238D01*
X71322619Y-61439285D01*
X71322619Y-61477380D01*
X71313095Y-61496428D01*
X71303571Y-61505952D01*
X71284523Y-61515476D01*
X71246428Y-61515476D01*
X71227380Y-61505952D01*
X71217857Y-61496428D01*
X71208333Y-61477380D01*
X71208333Y-61439285D01*
X71217857Y-61420238D01*
X71227380Y-61410714D01*
X71246428Y-61401190D01*
X71141666Y-61315476D02*
X71017857Y-61315476D01*
X71084523Y-61391666D01*
X71055952Y-61391666D01*
X71036904Y-61401190D01*
X71027380Y-61410714D01*
X71017857Y-61429761D01*
X71017857Y-61477380D01*
X71027380Y-61496428D01*
X71036904Y-61505952D01*
X71055952Y-61515476D01*
X71113095Y-61515476D01*
X71132142Y-61505952D01*
X71141666Y-61496428D01*
X70827380Y-61515476D02*
X70941666Y-61515476D01*
X70884523Y-61515476D02*
X70884523Y-61315476D01*
X70903571Y-61344047D01*
X70922619Y-61363095D01*
X70941666Y-61372619D01*
G04 #@! TO.C,R410*
X71398809Y-62490476D02*
X71465476Y-62395238D01*
X71513095Y-62490476D02*
X71513095Y-62290476D01*
X71436904Y-62290476D01*
X71417857Y-62300000D01*
X71408333Y-62309523D01*
X71398809Y-62328571D01*
X71398809Y-62357142D01*
X71408333Y-62376190D01*
X71417857Y-62385714D01*
X71436904Y-62395238D01*
X71513095Y-62395238D01*
X71227380Y-62357142D02*
X71227380Y-62490476D01*
X71275000Y-62280952D02*
X71322619Y-62423809D01*
X71198809Y-62423809D01*
X71017857Y-62490476D02*
X71132142Y-62490476D01*
X71075000Y-62490476D02*
X71075000Y-62290476D01*
X71094047Y-62319047D01*
X71113095Y-62338095D01*
X71132142Y-62347619D01*
X70894047Y-62290476D02*
X70875000Y-62290476D01*
X70855952Y-62300000D01*
X70846428Y-62309523D01*
X70836904Y-62328571D01*
X70827380Y-62366666D01*
X70827380Y-62414285D01*
X70836904Y-62452380D01*
X70846428Y-62471428D01*
X70855952Y-62480952D01*
X70875000Y-62490476D01*
X70894047Y-62490476D01*
X70913095Y-62480952D01*
X70922619Y-62471428D01*
X70932142Y-62452380D01*
X70941666Y-62414285D01*
X70941666Y-62366666D01*
X70932142Y-62328571D01*
X70922619Y-62309523D01*
X70913095Y-62300000D01*
X70894047Y-62290476D01*
G04 #@! TO.C,R805*
X62084226Y-70301190D02*
X61988988Y-70234523D01*
X62084226Y-70186904D02*
X61884226Y-70186904D01*
X61884226Y-70263095D01*
X61893750Y-70282142D01*
X61903273Y-70291666D01*
X61922321Y-70301190D01*
X61950892Y-70301190D01*
X61969940Y-70291666D01*
X61979464Y-70282142D01*
X61988988Y-70263095D01*
X61988988Y-70186904D01*
X61969940Y-70415476D02*
X61960416Y-70396428D01*
X61950892Y-70386904D01*
X61931845Y-70377380D01*
X61922321Y-70377380D01*
X61903273Y-70386904D01*
X61893750Y-70396428D01*
X61884226Y-70415476D01*
X61884226Y-70453571D01*
X61893750Y-70472619D01*
X61903273Y-70482142D01*
X61922321Y-70491666D01*
X61931845Y-70491666D01*
X61950892Y-70482142D01*
X61960416Y-70472619D01*
X61969940Y-70453571D01*
X61969940Y-70415476D01*
X61979464Y-70396428D01*
X61988988Y-70386904D01*
X62008035Y-70377380D01*
X62046130Y-70377380D01*
X62065178Y-70386904D01*
X62074702Y-70396428D01*
X62084226Y-70415476D01*
X62084226Y-70453571D01*
X62074702Y-70472619D01*
X62065178Y-70482142D01*
X62046130Y-70491666D01*
X62008035Y-70491666D01*
X61988988Y-70482142D01*
X61979464Y-70472619D01*
X61969940Y-70453571D01*
X61884226Y-70615476D02*
X61884226Y-70634523D01*
X61893750Y-70653571D01*
X61903273Y-70663095D01*
X61922321Y-70672619D01*
X61960416Y-70682142D01*
X62008035Y-70682142D01*
X62046130Y-70672619D01*
X62065178Y-70663095D01*
X62074702Y-70653571D01*
X62084226Y-70634523D01*
X62084226Y-70615476D01*
X62074702Y-70596428D01*
X62065178Y-70586904D01*
X62046130Y-70577380D01*
X62008035Y-70567857D01*
X61960416Y-70567857D01*
X61922321Y-70577380D01*
X61903273Y-70586904D01*
X61893750Y-70596428D01*
X61884226Y-70615476D01*
X61884226Y-70863095D02*
X61884226Y-70767857D01*
X61979464Y-70758333D01*
X61969940Y-70767857D01*
X61960416Y-70786904D01*
X61960416Y-70834523D01*
X61969940Y-70853571D01*
X61979464Y-70863095D01*
X61998511Y-70872619D01*
X62046130Y-70872619D01*
X62065178Y-70863095D01*
X62074702Y-70853571D01*
X62084226Y-70834523D01*
X62084226Y-70786904D01*
X62074702Y-70767857D01*
X62065178Y-70758333D01*
G04 #@! TO.C,R400*
X61973809Y-61840476D02*
X62040476Y-61745238D01*
X62088095Y-61840476D02*
X62088095Y-61640476D01*
X62011904Y-61640476D01*
X61992857Y-61650000D01*
X61983333Y-61659523D01*
X61973809Y-61678571D01*
X61973809Y-61707142D01*
X61983333Y-61726190D01*
X61992857Y-61735714D01*
X62011904Y-61745238D01*
X62088095Y-61745238D01*
X61802380Y-61707142D02*
X61802380Y-61840476D01*
X61850000Y-61630952D02*
X61897619Y-61773809D01*
X61773809Y-61773809D01*
X61659523Y-61640476D02*
X61640476Y-61640476D01*
X61621428Y-61650000D01*
X61611904Y-61659523D01*
X61602380Y-61678571D01*
X61592857Y-61716666D01*
X61592857Y-61764285D01*
X61602380Y-61802380D01*
X61611904Y-61821428D01*
X61621428Y-61830952D01*
X61640476Y-61840476D01*
X61659523Y-61840476D01*
X61678571Y-61830952D01*
X61688095Y-61821428D01*
X61697619Y-61802380D01*
X61707142Y-61764285D01*
X61707142Y-61716666D01*
X61697619Y-61678571D01*
X61688095Y-61659523D01*
X61678571Y-61650000D01*
X61659523Y-61640476D01*
X61469047Y-61640476D02*
X61450000Y-61640476D01*
X61430952Y-61650000D01*
X61421428Y-61659523D01*
X61411904Y-61678571D01*
X61402380Y-61716666D01*
X61402380Y-61764285D01*
X61411904Y-61802380D01*
X61421428Y-61821428D01*
X61430952Y-61830952D01*
X61450000Y-61840476D01*
X61469047Y-61840476D01*
X61488095Y-61830952D01*
X61497619Y-61821428D01*
X61507142Y-61802380D01*
X61516666Y-61764285D01*
X61516666Y-61716666D01*
X61507142Y-61678571D01*
X61497619Y-61659523D01*
X61488095Y-61650000D01*
X61469047Y-61640476D01*
G04 #@! TO.C,R700*
X58265476Y-69569940D02*
X58170238Y-69503273D01*
X58265476Y-69455654D02*
X58065476Y-69455654D01*
X58065476Y-69531845D01*
X58075000Y-69550892D01*
X58084523Y-69560416D01*
X58103571Y-69569940D01*
X58132142Y-69569940D01*
X58151190Y-69560416D01*
X58160714Y-69550892D01*
X58170238Y-69531845D01*
X58170238Y-69455654D01*
X58065476Y-69636607D02*
X58065476Y-69769940D01*
X58265476Y-69684226D01*
X58065476Y-69884226D02*
X58065476Y-69903273D01*
X58075000Y-69922321D01*
X58084523Y-69931845D01*
X58103571Y-69941369D01*
X58141666Y-69950892D01*
X58189285Y-69950892D01*
X58227380Y-69941369D01*
X58246428Y-69931845D01*
X58255952Y-69922321D01*
X58265476Y-69903273D01*
X58265476Y-69884226D01*
X58255952Y-69865178D01*
X58246428Y-69855654D01*
X58227380Y-69846130D01*
X58189285Y-69836607D01*
X58141666Y-69836607D01*
X58103571Y-69846130D01*
X58084523Y-69855654D01*
X58075000Y-69865178D01*
X58065476Y-69884226D01*
X58065476Y-70074702D02*
X58065476Y-70093750D01*
X58075000Y-70112797D01*
X58084523Y-70122321D01*
X58103571Y-70131845D01*
X58141666Y-70141369D01*
X58189285Y-70141369D01*
X58227380Y-70131845D01*
X58246428Y-70122321D01*
X58255952Y-70112797D01*
X58265476Y-70093750D01*
X58265476Y-70074702D01*
X58255952Y-70055654D01*
X58246428Y-70046130D01*
X58227380Y-70036607D01*
X58189285Y-70027083D01*
X58141666Y-70027083D01*
X58103571Y-70036607D01*
X58084523Y-70046130D01*
X58075000Y-70055654D01*
X58065476Y-70074702D01*
G04 #@! TO.C,R701*
X57452976Y-69569940D02*
X57357738Y-69503273D01*
X57452976Y-69455654D02*
X57252976Y-69455654D01*
X57252976Y-69531845D01*
X57262500Y-69550892D01*
X57272023Y-69560416D01*
X57291071Y-69569940D01*
X57319642Y-69569940D01*
X57338690Y-69560416D01*
X57348214Y-69550892D01*
X57357738Y-69531845D01*
X57357738Y-69455654D01*
X57252976Y-69636607D02*
X57252976Y-69769940D01*
X57452976Y-69684226D01*
X57252976Y-69884226D02*
X57252976Y-69903273D01*
X57262500Y-69922321D01*
X57272023Y-69931845D01*
X57291071Y-69941369D01*
X57329166Y-69950892D01*
X57376785Y-69950892D01*
X57414880Y-69941369D01*
X57433928Y-69931845D01*
X57443452Y-69922321D01*
X57452976Y-69903273D01*
X57452976Y-69884226D01*
X57443452Y-69865178D01*
X57433928Y-69855654D01*
X57414880Y-69846130D01*
X57376785Y-69836607D01*
X57329166Y-69836607D01*
X57291071Y-69846130D01*
X57272023Y-69855654D01*
X57262500Y-69865178D01*
X57252976Y-69884226D01*
X57452976Y-70141369D02*
X57452976Y-70027083D01*
X57452976Y-70084226D02*
X57252976Y-70084226D01*
X57281547Y-70065178D01*
X57300595Y-70046130D01*
X57310119Y-70027083D01*
G04 #@! TO.C,R252*
X45473809Y-61590476D02*
X45540476Y-61495238D01*
X45588095Y-61590476D02*
X45588095Y-61390476D01*
X45511904Y-61390476D01*
X45492857Y-61400000D01*
X45483333Y-61409523D01*
X45473809Y-61428571D01*
X45473809Y-61457142D01*
X45483333Y-61476190D01*
X45492857Y-61485714D01*
X45511904Y-61495238D01*
X45588095Y-61495238D01*
X45397619Y-61409523D02*
X45388095Y-61400000D01*
X45369047Y-61390476D01*
X45321428Y-61390476D01*
X45302380Y-61400000D01*
X45292857Y-61409523D01*
X45283333Y-61428571D01*
X45283333Y-61447619D01*
X45292857Y-61476190D01*
X45407142Y-61590476D01*
X45283333Y-61590476D01*
X45102380Y-61390476D02*
X45197619Y-61390476D01*
X45207142Y-61485714D01*
X45197619Y-61476190D01*
X45178571Y-61466666D01*
X45130952Y-61466666D01*
X45111904Y-61476190D01*
X45102380Y-61485714D01*
X45092857Y-61504761D01*
X45092857Y-61552380D01*
X45102380Y-61571428D01*
X45111904Y-61580952D01*
X45130952Y-61590476D01*
X45178571Y-61590476D01*
X45197619Y-61580952D01*
X45207142Y-61571428D01*
X45016666Y-61409523D02*
X45007142Y-61400000D01*
X44988095Y-61390476D01*
X44940476Y-61390476D01*
X44921428Y-61400000D01*
X44911904Y-61409523D01*
X44902380Y-61428571D01*
X44902380Y-61447619D01*
X44911904Y-61476190D01*
X45026190Y-61590476D01*
X44902380Y-61590476D01*
G04 #@! TO.C,R253*
X45473809Y-59590476D02*
X45540476Y-59495238D01*
X45588095Y-59590476D02*
X45588095Y-59390476D01*
X45511904Y-59390476D01*
X45492857Y-59400000D01*
X45483333Y-59409523D01*
X45473809Y-59428571D01*
X45473809Y-59457142D01*
X45483333Y-59476190D01*
X45492857Y-59485714D01*
X45511904Y-59495238D01*
X45588095Y-59495238D01*
X45397619Y-59409523D02*
X45388095Y-59400000D01*
X45369047Y-59390476D01*
X45321428Y-59390476D01*
X45302380Y-59400000D01*
X45292857Y-59409523D01*
X45283333Y-59428571D01*
X45283333Y-59447619D01*
X45292857Y-59476190D01*
X45407142Y-59590476D01*
X45283333Y-59590476D01*
X45102380Y-59390476D02*
X45197619Y-59390476D01*
X45207142Y-59485714D01*
X45197619Y-59476190D01*
X45178571Y-59466666D01*
X45130952Y-59466666D01*
X45111904Y-59476190D01*
X45102380Y-59485714D01*
X45092857Y-59504761D01*
X45092857Y-59552380D01*
X45102380Y-59571428D01*
X45111904Y-59580952D01*
X45130952Y-59590476D01*
X45178571Y-59590476D01*
X45197619Y-59580952D01*
X45207142Y-59571428D01*
X45026190Y-59390476D02*
X44902380Y-59390476D01*
X44969047Y-59466666D01*
X44940476Y-59466666D01*
X44921428Y-59476190D01*
X44911904Y-59485714D01*
X44902380Y-59504761D01*
X44902380Y-59552380D01*
X44911904Y-59571428D01*
X44921428Y-59580952D01*
X44940476Y-59590476D01*
X44997619Y-59590476D01*
X45016666Y-59580952D01*
X45026190Y-59571428D01*
G04 #@! TO.C,L230*
D13*
X84947619Y-54930952D02*
X85138095Y-54930952D01*
X85138095Y-54530952D01*
X84833333Y-54569047D02*
X84814285Y-54550000D01*
X84776190Y-54530952D01*
X84680952Y-54530952D01*
X84642857Y-54550000D01*
X84623809Y-54569047D01*
X84604761Y-54607142D01*
X84604761Y-54645238D01*
X84623809Y-54702380D01*
X84852380Y-54930952D01*
X84604761Y-54930952D01*
X84471428Y-54530952D02*
X84223809Y-54530952D01*
X84357142Y-54683333D01*
X84300000Y-54683333D01*
X84261904Y-54702380D01*
X84242857Y-54721428D01*
X84223809Y-54759523D01*
X84223809Y-54854761D01*
X84242857Y-54892857D01*
X84261904Y-54911904D01*
X84300000Y-54930952D01*
X84414285Y-54930952D01*
X84452380Y-54911904D01*
X84471428Y-54892857D01*
X83976190Y-54530952D02*
X83938095Y-54530952D01*
X83900000Y-54550000D01*
X83880952Y-54569047D01*
X83861904Y-54607142D01*
X83842857Y-54683333D01*
X83842857Y-54778571D01*
X83861904Y-54854761D01*
X83880952Y-54892857D01*
X83900000Y-54911904D01*
X83938095Y-54930952D01*
X83976190Y-54930952D01*
X84014285Y-54911904D01*
X84033333Y-54892857D01*
X84052380Y-54854761D01*
X84071428Y-54778571D01*
X84071428Y-54683333D01*
X84052380Y-54607142D01*
X84033333Y-54569047D01*
X84014285Y-54550000D01*
X83976190Y-54530952D01*
G04 #@! TO.C,L200*
D10*
X63309523Y-55226190D02*
X63547619Y-55226190D01*
X63547619Y-54726190D01*
X63166666Y-54773809D02*
X63142857Y-54750000D01*
X63095238Y-54726190D01*
X62976190Y-54726190D01*
X62928571Y-54750000D01*
X62904761Y-54773809D01*
X62880952Y-54821428D01*
X62880952Y-54869047D01*
X62904761Y-54940476D01*
X63190476Y-55226190D01*
X62880952Y-55226190D01*
X62571428Y-54726190D02*
X62523809Y-54726190D01*
X62476190Y-54750000D01*
X62452380Y-54773809D01*
X62428571Y-54821428D01*
X62404761Y-54916666D01*
X62404761Y-55035714D01*
X62428571Y-55130952D01*
X62452380Y-55178571D01*
X62476190Y-55202380D01*
X62523809Y-55226190D01*
X62571428Y-55226190D01*
X62619047Y-55202380D01*
X62642857Y-55178571D01*
X62666666Y-55130952D01*
X62690476Y-55035714D01*
X62690476Y-54916666D01*
X62666666Y-54821428D01*
X62642857Y-54773809D01*
X62619047Y-54750000D01*
X62571428Y-54726190D01*
X62095238Y-54726190D02*
X62047619Y-54726190D01*
X62000000Y-54750000D01*
X61976190Y-54773809D01*
X61952380Y-54821428D01*
X61928571Y-54916666D01*
X61928571Y-55035714D01*
X61952380Y-55130952D01*
X61976190Y-55178571D01*
X62000000Y-55202380D01*
X62047619Y-55226190D01*
X62095238Y-55226190D01*
X62142857Y-55202380D01*
X62166666Y-55178571D01*
X62190476Y-55130952D01*
X62214285Y-55035714D01*
X62214285Y-54916666D01*
X62190476Y-54821428D01*
X62166666Y-54773809D01*
X62142857Y-54750000D01*
X62095238Y-54726190D01*
G04 #@! TO.C,U250*
D15*
X43607142Y-60226190D02*
X43607142Y-60630952D01*
X43583333Y-60678571D01*
X43559523Y-60702380D01*
X43511904Y-60726190D01*
X43416666Y-60726190D01*
X43369047Y-60702380D01*
X43345238Y-60678571D01*
X43321428Y-60630952D01*
X43321428Y-60226190D01*
X43107142Y-60273809D02*
X43083333Y-60250000D01*
X43035714Y-60226190D01*
X42916666Y-60226190D01*
X42869047Y-60250000D01*
X42845238Y-60273809D01*
X42821428Y-60321428D01*
X42821428Y-60369047D01*
X42845238Y-60440476D01*
X43130952Y-60726190D01*
X42821428Y-60726190D01*
X42369047Y-60226190D02*
X42607142Y-60226190D01*
X42630952Y-60464285D01*
X42607142Y-60440476D01*
X42559523Y-60416666D01*
X42440476Y-60416666D01*
X42392857Y-60440476D01*
X42369047Y-60464285D01*
X42345238Y-60511904D01*
X42345238Y-60630952D01*
X42369047Y-60678571D01*
X42392857Y-60702380D01*
X42440476Y-60726190D01*
X42559523Y-60726190D01*
X42607142Y-60702380D01*
X42630952Y-60678571D01*
X42035714Y-60226190D02*
X41988095Y-60226190D01*
X41940476Y-60250000D01*
X41916666Y-60273809D01*
X41892857Y-60321428D01*
X41869047Y-60416666D01*
X41869047Y-60535714D01*
X41892857Y-60630952D01*
X41916666Y-60678571D01*
X41940476Y-60702380D01*
X41988095Y-60726190D01*
X42035714Y-60726190D01*
X42083333Y-60702380D01*
X42107142Y-60678571D01*
X42130952Y-60630952D01*
X42154761Y-60535714D01*
X42154761Y-60416666D01*
X42130952Y-60321428D01*
X42107142Y-60273809D01*
X42083333Y-60250000D01*
X42035714Y-60226190D01*
G04 #@! TO.C,L250*
D10*
X40976190Y-63690476D02*
X40976190Y-63452380D01*
X40476190Y-63452380D01*
X40523809Y-63833333D02*
X40500000Y-63857142D01*
X40476190Y-63904761D01*
X40476190Y-64023809D01*
X40500000Y-64071428D01*
X40523809Y-64095238D01*
X40571428Y-64119047D01*
X40619047Y-64119047D01*
X40690476Y-64095238D01*
X40976190Y-63809523D01*
X40976190Y-64119047D01*
X40476190Y-64571428D02*
X40476190Y-64333333D01*
X40714285Y-64309523D01*
X40690476Y-64333333D01*
X40666666Y-64380952D01*
X40666666Y-64500000D01*
X40690476Y-64547619D01*
X40714285Y-64571428D01*
X40761904Y-64595238D01*
X40880952Y-64595238D01*
X40928571Y-64571428D01*
X40952380Y-64547619D01*
X40976190Y-64500000D01*
X40976190Y-64380952D01*
X40952380Y-64333333D01*
X40928571Y-64309523D01*
X40476190Y-64904761D02*
X40476190Y-64952380D01*
X40500000Y-65000000D01*
X40523809Y-65023809D01*
X40571428Y-65047619D01*
X40666666Y-65071428D01*
X40785714Y-65071428D01*
X40880952Y-65047619D01*
X40928571Y-65023809D01*
X40952380Y-65000000D01*
X40976190Y-64952380D01*
X40976190Y-64904761D01*
X40952380Y-64857142D01*
X40928571Y-64833333D01*
X40880952Y-64809523D01*
X40785714Y-64785714D01*
X40666666Y-64785714D01*
X40571428Y-64809523D01*
X40523809Y-64833333D01*
X40500000Y-64857142D01*
X40476190Y-64904761D01*
G04 #@! TO.C,C254*
X43142857Y-63802380D02*
X43161904Y-63783333D01*
X43180952Y-63726190D01*
X43180952Y-63688095D01*
X43161904Y-63630952D01*
X43123809Y-63592857D01*
X43085714Y-63573809D01*
X43009523Y-63554761D01*
X42952380Y-63554761D01*
X42876190Y-63573809D01*
X42838095Y-63592857D01*
X42800000Y-63630952D01*
X42780952Y-63688095D01*
X42780952Y-63726190D01*
X42800000Y-63783333D01*
X42819047Y-63802380D01*
X42819047Y-63954761D02*
X42800000Y-63973809D01*
X42780952Y-64011904D01*
X42780952Y-64107142D01*
X42800000Y-64145238D01*
X42819047Y-64164285D01*
X42857142Y-64183333D01*
X42895238Y-64183333D01*
X42952380Y-64164285D01*
X43180952Y-63935714D01*
X43180952Y-64183333D01*
X42780952Y-64545238D02*
X42780952Y-64354761D01*
X42971428Y-64335714D01*
X42952380Y-64354761D01*
X42933333Y-64392857D01*
X42933333Y-64488095D01*
X42952380Y-64526190D01*
X42971428Y-64545238D01*
X43009523Y-64564285D01*
X43104761Y-64564285D01*
X43142857Y-64545238D01*
X43161904Y-64526190D01*
X43180952Y-64488095D01*
X43180952Y-64392857D01*
X43161904Y-64354761D01*
X43142857Y-64335714D01*
X42914285Y-64907142D02*
X43180952Y-64907142D01*
X42761904Y-64811904D02*
X43047619Y-64716666D01*
X43047619Y-64964285D01*
G04 #@! TO.C,C221*
X65447619Y-75642857D02*
X65466666Y-75661904D01*
X65523809Y-75680952D01*
X65561904Y-75680952D01*
X65619047Y-75661904D01*
X65657142Y-75623809D01*
X65676190Y-75585714D01*
X65695238Y-75509523D01*
X65695238Y-75452380D01*
X65676190Y-75376190D01*
X65657142Y-75338095D01*
X65619047Y-75300000D01*
X65561904Y-75280952D01*
X65523809Y-75280952D01*
X65466666Y-75300000D01*
X65447619Y-75319047D01*
X65295238Y-75319047D02*
X65276190Y-75300000D01*
X65238095Y-75280952D01*
X65142857Y-75280952D01*
X65104761Y-75300000D01*
X65085714Y-75319047D01*
X65066666Y-75357142D01*
X65066666Y-75395238D01*
X65085714Y-75452380D01*
X65314285Y-75680952D01*
X65066666Y-75680952D01*
X64914285Y-75319047D02*
X64895238Y-75300000D01*
X64857142Y-75280952D01*
X64761904Y-75280952D01*
X64723809Y-75300000D01*
X64704761Y-75319047D01*
X64685714Y-75357142D01*
X64685714Y-75395238D01*
X64704761Y-75452380D01*
X64933333Y-75680952D01*
X64685714Y-75680952D01*
X64304761Y-75680952D02*
X64533333Y-75680952D01*
X64419047Y-75680952D02*
X64419047Y-75280952D01*
X64457142Y-75338095D01*
X64495238Y-75376190D01*
X64533333Y-75395238D01*
G04 #@! TO.C,R812*
D12*
X73150476Y-75276190D02*
X73055238Y-75209523D01*
X73150476Y-75161904D02*
X72950476Y-75161904D01*
X72950476Y-75238095D01*
X72960000Y-75257142D01*
X72969523Y-75266666D01*
X72988571Y-75276190D01*
X73017142Y-75276190D01*
X73036190Y-75266666D01*
X73045714Y-75257142D01*
X73055238Y-75238095D01*
X73055238Y-75161904D01*
X73036190Y-75390476D02*
X73026666Y-75371428D01*
X73017142Y-75361904D01*
X72998095Y-75352380D01*
X72988571Y-75352380D01*
X72969523Y-75361904D01*
X72960000Y-75371428D01*
X72950476Y-75390476D01*
X72950476Y-75428571D01*
X72960000Y-75447619D01*
X72969523Y-75457142D01*
X72988571Y-75466666D01*
X72998095Y-75466666D01*
X73017142Y-75457142D01*
X73026666Y-75447619D01*
X73036190Y-75428571D01*
X73036190Y-75390476D01*
X73045714Y-75371428D01*
X73055238Y-75361904D01*
X73074285Y-75352380D01*
X73112380Y-75352380D01*
X73131428Y-75361904D01*
X73140952Y-75371428D01*
X73150476Y-75390476D01*
X73150476Y-75428571D01*
X73140952Y-75447619D01*
X73131428Y-75457142D01*
X73112380Y-75466666D01*
X73074285Y-75466666D01*
X73055238Y-75457142D01*
X73045714Y-75447619D01*
X73036190Y-75428571D01*
X73150476Y-75657142D02*
X73150476Y-75542857D01*
X73150476Y-75600000D02*
X72950476Y-75600000D01*
X72979047Y-75580952D01*
X72998095Y-75561904D01*
X73007619Y-75542857D01*
X72969523Y-75733333D02*
X72960000Y-75742857D01*
X72950476Y-75761904D01*
X72950476Y-75809523D01*
X72960000Y-75828571D01*
X72969523Y-75838095D01*
X72988571Y-75847619D01*
X73007619Y-75847619D01*
X73036190Y-75838095D01*
X73150476Y-75723809D01*
X73150476Y-75847619D01*
G04 #@! TO.C,R813*
X72350476Y-75276190D02*
X72255238Y-75209523D01*
X72350476Y-75161904D02*
X72150476Y-75161904D01*
X72150476Y-75238095D01*
X72160000Y-75257142D01*
X72169523Y-75266666D01*
X72188571Y-75276190D01*
X72217142Y-75276190D01*
X72236190Y-75266666D01*
X72245714Y-75257142D01*
X72255238Y-75238095D01*
X72255238Y-75161904D01*
X72236190Y-75390476D02*
X72226666Y-75371428D01*
X72217142Y-75361904D01*
X72198095Y-75352380D01*
X72188571Y-75352380D01*
X72169523Y-75361904D01*
X72160000Y-75371428D01*
X72150476Y-75390476D01*
X72150476Y-75428571D01*
X72160000Y-75447619D01*
X72169523Y-75457142D01*
X72188571Y-75466666D01*
X72198095Y-75466666D01*
X72217142Y-75457142D01*
X72226666Y-75447619D01*
X72236190Y-75428571D01*
X72236190Y-75390476D01*
X72245714Y-75371428D01*
X72255238Y-75361904D01*
X72274285Y-75352380D01*
X72312380Y-75352380D01*
X72331428Y-75361904D01*
X72340952Y-75371428D01*
X72350476Y-75390476D01*
X72350476Y-75428571D01*
X72340952Y-75447619D01*
X72331428Y-75457142D01*
X72312380Y-75466666D01*
X72274285Y-75466666D01*
X72255238Y-75457142D01*
X72245714Y-75447619D01*
X72236190Y-75428571D01*
X72350476Y-75657142D02*
X72350476Y-75542857D01*
X72350476Y-75600000D02*
X72150476Y-75600000D01*
X72179047Y-75580952D01*
X72198095Y-75561904D01*
X72207619Y-75542857D01*
X72150476Y-75723809D02*
X72150476Y-75847619D01*
X72226666Y-75780952D01*
X72226666Y-75809523D01*
X72236190Y-75828571D01*
X72245714Y-75838095D01*
X72264761Y-75847619D01*
X72312380Y-75847619D01*
X72331428Y-75838095D01*
X72340952Y-75828571D01*
X72350476Y-75809523D01*
X72350476Y-75752380D01*
X72340952Y-75733333D01*
X72331428Y-75723809D01*
G04 #@! TD*
M02*
