G04 #@! TF.GenerationSoftware,KiCad,Pcbnew,5.0.2-bee76a0~70~ubuntu18.04.1*
G04 #@! TF.CreationDate,2019-05-20T11:18:47+08:00*
G04 #@! TF.ProjectId,require,72657175-6972-4652-9e6b-696361645f70,rev?*
G04 #@! TF.SameCoordinates,Original*
G04 #@! TF.FileFunction,Legend,Top*
G04 #@! TF.FilePolarity,Positive*
%FSLAX46Y46*%
G04 Gerber Fmt 4.6, Leading zero omitted, Abs format (unit mm)*
G04 Created by KiCad (PCBNEW 5.0.2-bee76a0~70~ubuntu18.04.1) date 2019年05月20日 星期一 11时18分47秒*
%MOMM*%
%LPD*%
G01*
G04 APERTURE LIST*
%ADD10C,0.200000*%
%ADD11C,0.150000*%
G04 APERTURE END LIST*
D10*
G04 #@! TO.C,U300*
X74850000Y-58250000D02*
G75*
G03X74850000Y-58250000I-100000J0D01*
G01*
D11*
X74750000Y-59250000D02*
X74750000Y-61500000D01*
X75750000Y-58250000D02*
X74750000Y-59250000D01*
X75750000Y-58250000D02*
X77000000Y-58250000D01*
X74750000Y-71750000D02*
X74750000Y-68500000D01*
X74750000Y-71750000D02*
X77000000Y-71750000D01*
X84250000Y-71750000D02*
X82000000Y-71750000D01*
X84250000Y-71750000D02*
X84250000Y-68500000D01*
X84250000Y-58250000D02*
X84250000Y-61500000D01*
X84250000Y-58250000D02*
X82000000Y-58250000D01*
G04 #@! TO.C,U100*
X71000000Y-72000000D02*
X72000000Y-71000000D01*
D10*
X72100000Y-72000000D02*
G75*
G03X72100000Y-72000000I-100000J0D01*
G01*
D11*
X58000000Y-72000000D02*
X61500000Y-72000000D01*
X58000000Y-72000000D02*
X58000000Y-68500000D01*
X58000000Y-58000000D02*
X58000000Y-61500000D01*
X58000000Y-58000000D02*
X61500000Y-58000000D01*
X72000000Y-58000000D02*
X68500000Y-58000000D01*
X72000000Y-58000000D02*
X72000000Y-61500000D01*
X72000000Y-71000000D02*
X72000000Y-68500000D01*
X71000000Y-72000000D02*
X68500000Y-72000000D01*
G04 #@! TO.C,U500*
X39500000Y-58500000D02*
X39500000Y-61500000D01*
X39500000Y-58500000D02*
X42500000Y-58500000D01*
X52500000Y-58500000D02*
X49500000Y-58500000D01*
X52500000Y-58500000D02*
X52500000Y-61500000D01*
X52500000Y-71500000D02*
X52500000Y-68500000D01*
X52500000Y-71500000D02*
X49500000Y-71500000D01*
X39500000Y-68500000D02*
X39500000Y-70000000D01*
X39500000Y-70000000D02*
X41000000Y-71500000D01*
X41000000Y-71500000D02*
X42500000Y-71500000D01*
D10*
X39600000Y-71500000D02*
G75*
G03X39600000Y-71500000I-100000J0D01*
G01*
G04 #@! TD*
M02*
