M48
;DRILL file {KiCad 5.0.2-bee76a0~70~ubuntu18.04.1} date 2019年05月16日 星期四 13时36分56秒
;FORMAT={-:-/ absolute / metric / decimal}
FMAT,2
METRIC,TZ
T1C0.200
T2C0.300
T3C0.600
T4C1.020
%
G90
G05
T1
X39.Y-71.75
X39.Y-72.75
X39.Y-73.75
X39.Y-74.75
X39.Y-75.75
X39.Y-76.75
X39.Y-77.75
X39.Y-78.75
X39.25Y-62.25
X39.375Y-60.5
X39.5Y-54.75
X39.5Y-56.25
X40.Y-78.75
X40.5Y-58.5
X41.Y-71.75
X41.Y-76.25
X41.1Y-75.3
X41.2Y-66.8
X41.2Y-67.7
X41.2Y-68.6
X41.2Y-69.5
X41.5Y-72.
X41.5Y-73.
X41.5Y-74.
X41.75Y-78.75
X42.Y-74.7
X42.25Y-76.75
X42.25Y-77.75
X42.75Y-78.75
X43.Y-76.
X43.25Y-58.25
X43.25Y-71.75
X43.25Y-72.5
X43.7Y-73.2
X43.75Y-75.25
X44.25Y-72.25
X44.25Y-76.25
X44.25Y-78.75
X44.5Y-62.25
X44.5Y-73.2
X44.75Y-58.25
X44.75Y-75.25
X45.2Y-69.8
X45.25Y-71.75
X45.25Y-72.5
X45.25Y-73.2
X45.25Y-76.
X45.25Y-77.
X45.25Y-78.
X45.25Y-78.75
X46.Y-69.8
X46.2Y-61.5
X46.25Y-71.75
X46.838Y-57.987
X46.9Y-69.8
X47.2Y-67.9
X47.25Y-71.75
X47.262Y-57.563
X48.25Y-71.75
X48.75Y-62.
X49.1Y-55.4
X49.25Y-63.5
X49.25Y-71.75
X49.6Y-60.5
X50.25Y-64.75
X50.25Y-71.75
X51.25Y-71.75
X51.5Y-54.25
X51.7Y-70.1
X52.2Y-70.1
X52.25Y-71.75
X52.25Y-72.75
X52.25Y-73.75
X52.25Y-74.75
X52.25Y-75.75
X52.25Y-76.75
X52.25Y-77.75
X52.25Y-78.75
X52.34Y-51.665
X52.6Y-68.6
X52.6Y-69.5
X52.75Y-62.25
X53.25Y-60.75
X53.25Y-61.25
X53.25Y-62.25
X53.25Y-71.75
X53.25Y-72.75
X53.25Y-73.75
X53.25Y-74.75
X53.25Y-75.75
X53.25Y-76.75
X53.25Y-77.75
X53.25Y-78.75
X53.412Y-59.75
X53.75Y-62.25
X54.25Y-58.75
X54.25Y-71.75
X54.25Y-72.75
X54.25Y-73.75
X54.25Y-74.75
X54.25Y-75.75
X54.25Y-76.75
X54.25Y-77.75
X54.25Y-78.75
X54.744Y-64.25
X54.75Y-56.75
X54.75Y-58.75
X54.75Y-59.75
X54.75Y-60.25
X54.75Y-60.75
X54.75Y-61.25
X54.88Y-51.665
X55.Y-54.25
X55.Y-55.25
X55.244Y-64.25
X55.25Y-56.75
X55.25Y-72.75
X55.25Y-73.75
X55.25Y-76.75
X55.25Y-78.75
X55.744Y-64.25
X55.75Y-56.75
X56.244Y-64.25
X56.25Y-56.75
X56.5Y-73.
X56.631Y-68.656
X56.744Y-64.244
X56.75Y-56.75
X56.75Y-71.
X57.Y-55.25
X57.42Y-51.665
X57.42Y-78.335
X57.74Y-58.24
X57.75Y-58.75
X57.75Y-59.75
X57.75Y-60.25
X57.75Y-60.75
X57.75Y-62.75
X58.25Y-62.25
X58.5Y-70.85
X58.75Y-73.75
X59.15Y-59.15
X59.15Y-64.35
X59.15Y-65.
X59.8Y-64.35
X59.8Y-65.
X59.8Y-67.625
X59.8Y-68.9
X59.96Y-51.665
X59.96Y-74.525
X59.96Y-75.795
X59.96Y-77.065
X59.96Y-78.335
X60.25Y-55.5
X60.25Y-57.
X60.45Y-60.45
X60.45Y-62.4
X60.45Y-64.35
X60.45Y-66.3
X60.45Y-67.6
X60.45Y-70.2
X60.45Y-70.85
X61.1Y-64.35
X61.1Y-65.65
X61.1Y-66.95
X61.1Y-67.6
X61.1Y-68.9
X61.75Y-60.45
X61.75Y-66.95
X61.75Y-68.9
X61.75Y-69.55
X62.Y-72.25
X62.4Y-60.45
X62.4Y-67.6
X62.4Y-68.9
X62.4Y-69.55
X62.5Y-51.665
X62.5Y-78.335
X62.8Y-72.6
X63.05Y-59.15
X63.05Y-60.45
X63.05Y-61.75
X63.05Y-62.4
X63.05Y-63.7
X63.05Y-66.3
X63.05Y-67.6
X63.05Y-70.85
X63.05Y-71.5
X63.7Y-59.15
X63.7Y-60.45
X63.7Y-61.75
X63.7Y-62.4
X63.7Y-63.7
X63.7Y-66.95
X63.7Y-67.6
X63.7Y-70.85
X63.7Y-71.5
X63.944Y-72.231
X64.35Y-58.5
X64.35Y-59.15
X64.35Y-60.45
X64.35Y-61.75
X64.35Y-63.05
X64.35Y-63.7
X64.35Y-66.95
X64.35Y-67.6
X64.75Y-73.25
X64.75Y-73.75
X64.837Y-70.2
X64.919Y-70.931
X64.919Y-71.581
X65.Y-59.15
X65.Y-59.8
X65.Y-60.45
X65.Y-61.1
X65.Y-61.75
X65.Y-63.7
X65.Y-66.95
X65.Y-67.6
X65.Y-68.9
X65.Y-69.55
X65.Y-75.5
X65.04Y-51.665
X65.04Y-78.335
X65.5Y-72.2
X65.65Y-58.5
X65.65Y-59.15
X65.65Y-61.1
X65.65Y-61.75
X65.65Y-63.05
X65.65Y-63.7
X65.65Y-66.95
X65.65Y-67.6
X65.65Y-68.25
X65.65Y-68.9
X65.65Y-69.55
X65.65Y-70.2
X66.3Y-62.4
X66.3Y-63.05
X66.3Y-63.7
X66.3Y-66.95
X66.3Y-67.6
X66.3Y-68.9
X66.3Y-70.2
X66.3Y-70.85
X66.3Y-73.
X66.95Y-68.25
X66.95Y-63.05
X66.95Y-63.7
X66.95Y-66.3
X66.95Y-66.95
X66.95Y-68.9
X66.95Y-70.2
X66.95Y-70.85
X67.1Y-73.8
X67.112Y-71.662
X67.58Y-51.665
X67.58Y-78.335
X67.6Y-58.5
X67.6Y-59.15
X67.6Y-61.75
X67.6Y-63.05
X67.6Y-66.3
X67.6Y-68.25
X67.6Y-70.2
X67.75Y-53.25
X67.75Y-76.
X67.763Y-71.662
X67.9Y-73.8
X68.25Y-58.5
X68.25Y-59.15
X68.25Y-63.05
X68.25Y-65.
X68.25Y-65.65
X68.25Y-66.3
X68.25Y-68.25
X68.25Y-68.9
X68.25Y-70.2
X68.25Y-61.75
X68.412Y-71.662
X68.55Y-53.9
X68.7Y-73.8
X68.9Y-63.05
X68.9Y-64.35
X68.9Y-65.
X68.9Y-66.3
X68.9Y-67.6
X68.9Y-68.9
X68.9Y-70.2
X69.5Y-73.8
X69.55Y-62.4
X69.55Y-63.7
X69.55Y-64.35
X69.55Y-65.
X69.55Y-66.3
X69.55Y-67.6
X69.55Y-68.9
X69.55Y-70.2
X70.12Y-51.665
X70.12Y-78.335
X70.2Y-58.5
X70.2Y-59.15
X70.2Y-59.8
X70.2Y-60.45
X70.2Y-61.75
X70.2Y-63.7
X70.2Y-65.
X70.2Y-66.3
X70.2Y-67.6
X70.2Y-68.9
X70.2Y-70.2
X70.2Y-71.5
X70.3Y-73.8
X70.5Y-53.5
X70.85Y-58.5
X70.85Y-59.15
X70.85Y-59.8
X70.85Y-63.7
X70.85Y-65.
X70.85Y-66.3
X70.85Y-67.6
X70.85Y-68.9
X70.85Y-70.2
X70.85Y-71.5
X71.1Y-73.8
X71.5Y-71.5
X71.5Y-59.15
X71.5Y-59.8
X71.5Y-63.05
X71.5Y-63.7
X71.5Y-65.
X71.5Y-67.6
X71.9Y-73.8
X72.Y-76.5
X72.15Y-67.6
X72.66Y-51.665
X72.66Y-78.335
X72.7Y-73.8
X73.1Y-57.8
X73.1Y-58.6
X73.1Y-59.4
X73.1Y-60.2
X73.1Y-62.6
X73.1Y-65.4
X73.1Y-68.2
X73.1Y-69.8
X73.1Y-70.6
X73.25Y-76.5
X73.5Y-73.8
X74.3Y-73.8
X74.3Y-75.
X75.1Y-73.8
X75.1Y-75.
X75.2Y-51.665
X75.9Y-60.2
X75.9Y-59.4
X75.9Y-61.8
X75.9Y-62.6
X75.9Y-63.4
X75.9Y-64.2
X75.9Y-65.8
X75.9Y-68.2
X75.9Y-69.
X75.9Y-70.6
X75.9Y-71.4
X75.9Y-73.8
X75.9Y-75.
X76.1Y-57.2
X76.7Y-59.4
X76.7Y-60.2
X76.7Y-61.8
X76.7Y-62.6
X76.7Y-63.4
X76.7Y-64.2
X76.7Y-65.8
X76.7Y-68.2
X76.7Y-69.
X76.7Y-70.6
X76.7Y-73.8
X76.7Y-75.
X76.9Y-57.2
X77.5Y-59.4
X77.5Y-60.2
X77.5Y-62.6
X77.5Y-63.4
X77.5Y-64.2
X77.5Y-65.8
X77.5Y-66.6
X77.5Y-67.4
X77.5Y-68.2
X77.5Y-70.6
X77.5Y-71.4
X77.5Y-73.8
X77.7Y-57.2
X77.74Y-51.665
X78.3Y-59.4
X78.3Y-60.2
X78.3Y-61.8
X78.3Y-63.4
X78.3Y-69.8
X78.3Y-70.6
X78.3Y-73.8
X78.5Y-57.2
X79.1Y-73.8
X79.3Y-57.2
X79.6Y-62.8
X79.6Y-63.8
X79.9Y-73.8
X80.1Y-57.2
X80.1Y-60.2
X80.28Y-51.665
X80.5Y-76.1
X80.7Y-61.8
X80.7Y-62.6
X80.7Y-65.
X80.7Y-65.8
X80.7Y-66.6
X80.7Y-69.
X80.7Y-69.8
X80.7Y-70.6
X80.7Y-73.8
X80.7Y-67.4
X81.15Y-76.1
X81.5Y-54.5
X81.5Y-58.6
X81.5Y-59.4
X81.5Y-61.8
X81.5Y-62.6
X81.5Y-63.4
X81.5Y-65.
X81.5Y-65.8
X81.5Y-69.
X81.5Y-69.8
X81.5Y-70.6
X81.75Y-56.
X81.75Y-57.
X81.75Y-57.75
X81.8Y-73.4
X82.3Y-59.4
X82.3Y-60.2
X82.3Y-61.
X82.3Y-61.8
X82.3Y-63.4
X82.3Y-65.
X82.3Y-65.8
X82.3Y-67.4
X82.3Y-68.2
X82.82Y-51.665
X82.9Y-57.6
X83.1Y-58.6
X83.1Y-60.2
X83.1Y-61.
X83.1Y-62.6
X83.1Y-63.4
X83.1Y-64.2
X83.1Y-67.4
X83.1Y-68.2
X83.1Y-69.
X83.1Y-69.8
X83.1Y-70.6
X83.1Y-71.4
X83.1Y-72.
X83.1Y-73.
X83.75Y-58.
X84.5Y-54.25
X84.5Y-55.25
X85.9Y-59.4
X85.9Y-60.2
X85.9Y-61.
X85.9Y-62.6
X85.9Y-64.2
X85.9Y-65.8
X85.9Y-67.
X85.9Y-68.
X85.9Y-69.
X85.9Y-70.6
X85.9Y-72.
X85.9Y-73.
T2
X42.Y-60.5
X42.7Y-56.25
X42.75Y-60.5
X43.2Y-56.25
X43.5Y-60.5
X44.175Y-56.15
X45.75Y-56.
X46.Y-62.5
X46.Y-63.25
X46.Y-64.
X46.Y-65.25
X46.25Y-56.
X46.75Y-65.25
X48.7Y-68.75
X48.7Y-69.75
X49.25Y-58.
X50.2Y-60.5
X50.3Y-55.
X61.2Y-72.6
X61.25Y-56.75
X61.25Y-57.75
X62.Y-75.25
X66.5Y-56.
X66.5Y-56.75
X66.5Y-57.5
X67.Y-75.5
X68.25Y-54.5
X71.4Y-75.1
X73.75Y-57.75
X75.25Y-57.75
X79.Y-76.5
X79.5Y-54.5
X79.5Y-76.5
X81.8Y-74.15
X82.3Y-74.15
X85.25Y-57.5
X85.25Y-58.25
T4
X61.23Y-52.3
X56.15Y-52.3
X58.69Y-52.3
X51.07Y-52.3
X63.77Y-77.7
X58.69Y-75.16
X71.39Y-77.7
X76.47Y-52.3
X79.01Y-52.3
X81.55Y-52.3
X56.15Y-75.16
X61.23Y-77.7
X58.69Y-77.7
X40.91Y-77.7
X56.15Y-77.7
X53.61Y-52.3
X66.31Y-77.7
X73.93Y-52.3
X84.09Y-52.3
X43.45Y-77.7
X68.85Y-52.3
X73.93Y-77.7
X68.85Y-77.7
X63.77Y-52.3
X71.39Y-52.3
X66.31Y-52.3
T3
X76.55Y-77.5G85X76.55Y-78.2
G05
X84.45Y-77.5G85X84.45Y-78.2
G05
X40.55Y-52.5G85X40.55Y-51.8
G05
X48.45Y-52.5G85X48.45Y-51.8
G05
T0
M30
