G04 #@! TF.GenerationSoftware,KiCad,Pcbnew,5.0.2-bee76a0~70~ubuntu18.04.1*
G04 #@! TF.CreationDate,2019-05-16T13:37:02+08:00*
G04 #@! TF.ProjectId,require,72657175-6972-4652-9e6b-696361645f70,rev?*
G04 #@! TF.SameCoordinates,Original*
G04 #@! TF.FileFunction,Other,Fab,Top*
%FSLAX46Y46*%
G04 Gerber Fmt 4.6, Leading zero omitted, Abs format (unit mm)*
G04 Created by KiCad (PCBNEW 5.0.2-bee76a0~70~ubuntu18.04.1) date 2019年05月16日 星期四 13时37分02秒*
%MOMM*%
%LPD*%
G01*
G04 APERTURE LIST*
%ADD10C,0.150000*%
%ADD11C,0.100000*%
%ADD12C,0.050000*%
%ADD13C,0.030000*%
%ADD14C,0.075000*%
G04 APERTURE END LIST*
D10*
G04 #@! TO.C,ANT1*
X46300000Y-78890000D02*
X46300000Y-76390000D01*
X52300000Y-78890000D02*
X46300000Y-78890000D01*
X52300000Y-76390000D02*
X52300000Y-78890000D01*
X46300000Y-76390000D02*
X52300000Y-76390000D01*
D11*
G04 #@! TO.C,R210*
X69350000Y-55250000D02*
X68850000Y-55250000D01*
X69350000Y-54250000D02*
X69350000Y-55250000D01*
X68850000Y-54250000D02*
X69350000Y-54250000D01*
X68850000Y-55250000D02*
X68850000Y-54250000D01*
D10*
G04 #@! TO.C,U300*
X74750000Y-59250000D02*
X75750000Y-58250000D01*
X74750000Y-71750000D02*
X74750000Y-59250000D01*
X84250000Y-71750000D02*
X74750000Y-71750000D01*
X84250000Y-58250000D02*
X84250000Y-71750000D01*
X75750000Y-58250000D02*
X84250000Y-58250000D01*
G04 #@! TO.C,U100*
X72000000Y-71000000D02*
X71000000Y-72000000D01*
X72000000Y-58000000D02*
X72000000Y-71000000D01*
X58000000Y-58000000D02*
X72000000Y-58000000D01*
X58000000Y-72000000D02*
X58000000Y-58000000D01*
X71000000Y-72000000D02*
X58000000Y-72000000D01*
D11*
G04 #@! TO.C,L500*
X43650000Y-74450000D02*
X43650000Y-73950000D01*
X44650000Y-74450000D02*
X43650000Y-74450000D01*
X44650000Y-73950000D02*
X44650000Y-74450000D01*
X43650000Y-73950000D02*
X44650000Y-73950000D01*
G04 #@! TO.C,Y100*
X54950000Y-68250000D02*
X54450000Y-68750000D01*
X55950000Y-68250000D02*
X56050000Y-68350000D01*
X54550000Y-68250000D02*
X55950000Y-68250000D01*
X54450000Y-68350000D02*
X54550000Y-68250000D01*
X54450000Y-70150000D02*
X54450000Y-68350000D01*
X54550000Y-70250000D02*
X54450000Y-70150000D01*
X55950000Y-70250000D02*
X54550000Y-70250000D01*
X56050000Y-70150000D02*
X55950000Y-70250000D01*
X56050000Y-68350000D02*
X56050000Y-70150000D01*
G04 #@! TO.C,U500*
X41500000Y-71000000D02*
X40000000Y-69500000D01*
X40000000Y-69500000D02*
X40000000Y-59000000D01*
X40000000Y-59000000D02*
X52000000Y-59000000D01*
X52000000Y-59000000D02*
X52000000Y-71000000D01*
X52000000Y-71000000D02*
X41500000Y-71000000D01*
G04 #@! TO.C,D810*
X70000000Y-74800000D02*
X71000000Y-74800000D01*
X71000000Y-74800000D02*
X71000000Y-75400000D01*
X71000000Y-75400000D02*
X70000000Y-75400000D01*
X70000000Y-75400000D02*
X70000000Y-74800000D01*
X69850000Y-74800000D02*
X69850000Y-74950000D01*
X69850000Y-75400000D02*
X69850000Y-75250000D01*
X71150000Y-74800000D02*
X71150000Y-75400000D01*
G04 #@! TO.C,D820*
X62500000Y-76100000D02*
X62500000Y-75100000D01*
X62500000Y-75100000D02*
X63100000Y-75100000D01*
X63100000Y-75100000D02*
X63100000Y-76100000D01*
X63100000Y-76100000D02*
X62500000Y-76100000D01*
X62500000Y-76250000D02*
X62650000Y-76250000D01*
X63100000Y-76250000D02*
X62950000Y-76250000D01*
X62500000Y-74950000D02*
X63100000Y-74950000D01*
G04 #@! TO.C,D800*
X44841421Y-57365685D02*
X44134315Y-56658579D01*
X44134315Y-56658579D02*
X44558579Y-56234315D01*
X44558579Y-56234315D02*
X45265685Y-56941421D01*
X45265685Y-56941421D02*
X44841421Y-57365685D01*
X44947487Y-57471751D02*
X45053553Y-57365685D01*
X45371751Y-57047487D02*
X45265685Y-57153553D01*
X44028249Y-56552513D02*
X44452513Y-56128249D01*
G04 #@! TO.C,C540*
X50700000Y-57400000D02*
X49900000Y-57400000D01*
X50700000Y-55800000D02*
X50700000Y-57400000D01*
X49900000Y-55800000D02*
X50700000Y-55800000D01*
X49900000Y-57400000D02*
X49900000Y-55800000D01*
G04 #@! TO.C,C400*
X57400000Y-63550000D02*
X56600000Y-63550000D01*
X57400000Y-61950000D02*
X57400000Y-63550000D01*
X56600000Y-61950000D02*
X57400000Y-61950000D01*
X56600000Y-63550000D02*
X56600000Y-61950000D01*
G04 #@! TO.C,C410*
X55450000Y-61150000D02*
X55450000Y-60350000D01*
X57050000Y-61150000D02*
X55450000Y-61150000D01*
X57050000Y-60350000D02*
X57050000Y-61150000D01*
X55450000Y-60350000D02*
X57050000Y-60350000D01*
G04 #@! TO.C,C500*
X45500000Y-74250000D02*
X45500000Y-75250000D01*
X45500000Y-75250000D02*
X45000000Y-75250000D01*
X45000000Y-75250000D02*
X45000000Y-74250000D01*
X45000000Y-74250000D02*
X45500000Y-74250000D01*
G04 #@! TO.C,C501*
X43300000Y-74250000D02*
X43300000Y-75250000D01*
X43300000Y-75250000D02*
X42800000Y-75250000D01*
X42800000Y-75250000D02*
X42800000Y-74250000D01*
X42800000Y-74250000D02*
X43300000Y-74250000D01*
G04 #@! TO.C,C232*
X83450000Y-57100000D02*
X83450000Y-56100000D01*
X83450000Y-56100000D02*
X83950000Y-56100000D01*
X83950000Y-56100000D02*
X83950000Y-57100000D01*
X83950000Y-57100000D02*
X83450000Y-57100000D01*
G04 #@! TO.C,C202*
X68050000Y-57100000D02*
X68050000Y-56100000D01*
X68050000Y-56100000D02*
X68550000Y-56100000D01*
X68550000Y-56100000D02*
X68550000Y-57100000D01*
X68550000Y-57100000D02*
X68050000Y-57100000D01*
G04 #@! TO.C,C210*
X69650000Y-55250000D02*
X69650000Y-54250000D01*
X69650000Y-54250000D02*
X70150000Y-54250000D01*
X70150000Y-54250000D02*
X70150000Y-55250000D01*
X70150000Y-55250000D02*
X69650000Y-55250000D01*
G04 #@! TO.C,C222*
X62250000Y-73100000D02*
X62250000Y-74100000D01*
X62250000Y-74100000D02*
X61750000Y-74100000D01*
X61750000Y-74100000D02*
X61750000Y-73100000D01*
X61750000Y-73100000D02*
X62250000Y-73100000D01*
G04 #@! TO.C,C101*
X55750000Y-71250000D02*
X54750000Y-71250000D01*
X54750000Y-71250000D02*
X54750000Y-70750000D01*
X54750000Y-70750000D02*
X55750000Y-70750000D01*
X55750000Y-70750000D02*
X55750000Y-71250000D01*
G04 #@! TO.C,C100*
X54000000Y-68750000D02*
X54000000Y-69750000D01*
X54000000Y-69750000D02*
X53500000Y-69750000D01*
X53500000Y-69750000D02*
X53500000Y-68750000D01*
X53500000Y-68750000D02*
X54000000Y-68750000D01*
G04 #@! TO.C,C420*
X56500000Y-57750000D02*
X55500000Y-57750000D01*
X55500000Y-57750000D02*
X55500000Y-57250000D01*
X55500000Y-57250000D02*
X56500000Y-57250000D01*
X56500000Y-57250000D02*
X56500000Y-57750000D01*
G04 #@! TO.C,C402*
X54950000Y-63500000D02*
X54950000Y-62500000D01*
X54950000Y-62500000D02*
X55450000Y-62500000D01*
X55450000Y-62500000D02*
X55450000Y-63500000D01*
X55450000Y-63500000D02*
X54950000Y-63500000D01*
G04 #@! TO.C,C401*
X55750000Y-63500000D02*
X55750000Y-62500000D01*
X55750000Y-62500000D02*
X56250000Y-62500000D01*
X56250000Y-62500000D02*
X56250000Y-63500000D01*
X56250000Y-63500000D02*
X55750000Y-63500000D01*
G04 #@! TO.C,C411*
X55500000Y-59500000D02*
X56500000Y-59500000D01*
X56500000Y-59500000D02*
X56500000Y-60000000D01*
X56500000Y-60000000D02*
X55500000Y-60000000D01*
X55500000Y-60000000D02*
X55500000Y-59500000D01*
G04 #@! TO.C,C406*
X55500000Y-58750000D02*
X56500000Y-58750000D01*
X56500000Y-58750000D02*
X56500000Y-59250000D01*
X56500000Y-59250000D02*
X55500000Y-59250000D01*
X55500000Y-59250000D02*
X55500000Y-58750000D01*
G04 #@! TO.C,R232*
X84750000Y-57100000D02*
X84250000Y-57100000D01*
X84750000Y-56100000D02*
X84750000Y-57100000D01*
X84250000Y-56100000D02*
X84750000Y-56100000D01*
X84250000Y-57100000D02*
X84250000Y-56100000D01*
G04 #@! TO.C,R233*
X83150000Y-57100000D02*
X82650000Y-57100000D01*
X83150000Y-56100000D02*
X83150000Y-57100000D01*
X82650000Y-56100000D02*
X83150000Y-56100000D01*
X82650000Y-57100000D02*
X82650000Y-56100000D01*
G04 #@! TO.C,R202*
X69350000Y-57100000D02*
X68850000Y-57100000D01*
X69350000Y-56100000D02*
X69350000Y-57100000D01*
X68850000Y-56100000D02*
X69350000Y-56100000D01*
X68850000Y-57100000D02*
X68850000Y-56100000D01*
G04 #@! TO.C,R203*
X67750000Y-57100000D02*
X67250000Y-57100000D01*
X67750000Y-56100000D02*
X67750000Y-57100000D01*
X67250000Y-56100000D02*
X67750000Y-56100000D01*
X67250000Y-57100000D02*
X67250000Y-56100000D01*
G04 #@! TO.C,R211*
X70950000Y-55250000D02*
X70450000Y-55250000D01*
X70950000Y-54250000D02*
X70950000Y-55250000D01*
X70450000Y-54250000D02*
X70950000Y-54250000D01*
X70450000Y-55250000D02*
X70450000Y-54250000D01*
G04 #@! TO.C,R212*
X69650000Y-56100000D02*
X70150000Y-56100000D01*
X69650000Y-57100000D02*
X69650000Y-56100000D01*
X70150000Y-57100000D02*
X69650000Y-57100000D01*
X70150000Y-56100000D02*
X70150000Y-57100000D01*
G04 #@! TO.C,R213*
X70950000Y-57100000D02*
X70450000Y-57100000D01*
X70950000Y-56100000D02*
X70950000Y-57100000D01*
X70450000Y-56100000D02*
X70950000Y-56100000D01*
X70450000Y-57100000D02*
X70450000Y-56100000D01*
G04 #@! TO.C,R100*
X54750000Y-67750000D02*
X54750000Y-67250000D01*
X55750000Y-67750000D02*
X54750000Y-67750000D01*
X55750000Y-67250000D02*
X55750000Y-67750000D01*
X54750000Y-67250000D02*
X55750000Y-67250000D01*
G04 #@! TO.C,R811*
X69600000Y-74450000D02*
X69600000Y-74950000D01*
X68600000Y-74450000D02*
X69600000Y-74450000D01*
X68600000Y-74950000D02*
X68600000Y-74450000D01*
X69600000Y-74950000D02*
X68600000Y-74950000D01*
G04 #@! TO.C,R810*
X69600000Y-75250000D02*
X69600000Y-75750000D01*
X68600000Y-75250000D02*
X69600000Y-75250000D01*
X68600000Y-75750000D02*
X68600000Y-75250000D01*
X69600000Y-75750000D02*
X68600000Y-75750000D01*
G04 #@! TO.C,R800*
X45700000Y-57150000D02*
X45700000Y-56650000D01*
X46700000Y-57150000D02*
X45700000Y-57150000D01*
X46700000Y-56650000D02*
X46700000Y-57150000D01*
X45700000Y-56650000D02*
X46700000Y-56650000D01*
G04 #@! TO.C,R801*
X45300000Y-57950000D02*
X45300000Y-57450000D01*
X46300000Y-57950000D02*
X45300000Y-57950000D01*
X46300000Y-57450000D02*
X46300000Y-57950000D01*
X45300000Y-57450000D02*
X46300000Y-57450000D01*
G04 #@! TO.C,R222*
X60950000Y-73100000D02*
X61450000Y-73100000D01*
X60950000Y-74100000D02*
X60950000Y-73100000D01*
X61450000Y-74100000D02*
X60950000Y-74100000D01*
X61450000Y-73100000D02*
X61450000Y-74100000D01*
G04 #@! TO.C,R223*
X62550000Y-73100000D02*
X63050000Y-73100000D01*
X62550000Y-74100000D02*
X62550000Y-73100000D01*
X63050000Y-74100000D02*
X62550000Y-74100000D01*
X63050000Y-73100000D02*
X63050000Y-74100000D01*
D10*
G04 #@! TO.C,L540*
X53750000Y-57600000D02*
X53750000Y-55600000D01*
X53750000Y-55600000D02*
X51250000Y-55600000D01*
X51250000Y-55600000D02*
X51250000Y-57600000D01*
X51250000Y-57600000D02*
X53750000Y-57600000D01*
D11*
G04 #@! TO.C,C405*
X55500000Y-58500000D02*
X55500000Y-58000000D01*
X56500000Y-58500000D02*
X55500000Y-58500000D01*
X56500000Y-58000000D02*
X56500000Y-58500000D01*
X55500000Y-58000000D02*
X56500000Y-58000000D01*
G04 #@! TO.C,C530*
X49350000Y-57100000D02*
X48850000Y-57100000D01*
X49350000Y-56100000D02*
X49350000Y-57100000D01*
X48850000Y-56100000D02*
X49350000Y-56100000D01*
X48850000Y-57100000D02*
X48850000Y-56100000D01*
G04 #@! TO.C,R820*
X60650000Y-74100000D02*
X60150000Y-74100000D01*
X60650000Y-73100000D02*
X60650000Y-74100000D01*
X60150000Y-73100000D02*
X60650000Y-73100000D01*
X60150000Y-74100000D02*
X60150000Y-73100000D01*
G04 #@! TO.C,R821*
X63350000Y-74100000D02*
X63350000Y-73100000D01*
X63350000Y-73100000D02*
X63850000Y-73100000D01*
X63850000Y-73100000D02*
X63850000Y-74100000D01*
X63850000Y-74100000D02*
X63350000Y-74100000D01*
G04 #@! TO.C,R840*
X56500000Y-54000000D02*
X56500000Y-54500000D01*
X55500000Y-54000000D02*
X56500000Y-54000000D01*
X55500000Y-54500000D02*
X55500000Y-54000000D01*
X56500000Y-54500000D02*
X55500000Y-54500000D01*
G04 #@! TO.C,R841*
X56500000Y-55500000D02*
X55500000Y-55500000D01*
X55500000Y-55500000D02*
X55500000Y-55000000D01*
X55500000Y-55000000D02*
X56500000Y-55000000D01*
X56500000Y-55000000D02*
X56500000Y-55500000D01*
G04 #@! TD*
G04 #@! TO.C,ANT1*
D10*
X47680952Y-77806666D02*
X48157142Y-77806666D01*
X47585714Y-78092380D02*
X47919047Y-77092380D01*
X48252380Y-78092380D01*
X48585714Y-78092380D02*
X48585714Y-77092380D01*
X49157142Y-78092380D01*
X49157142Y-77092380D01*
X49490476Y-77092380D02*
X50061904Y-77092380D01*
X49776190Y-78092380D02*
X49776190Y-77092380D01*
X50919047Y-78092380D02*
X50347619Y-78092380D01*
X50633333Y-78092380D02*
X50633333Y-77092380D01*
X50538095Y-77235238D01*
X50442857Y-77330476D01*
X50347619Y-77378095D01*
G04 #@! TO.C,R210*
D12*
X69190476Y-54973809D02*
X69095238Y-55040476D01*
X69190476Y-55088095D02*
X68990476Y-55088095D01*
X68990476Y-55011904D01*
X69000000Y-54992857D01*
X69009523Y-54983333D01*
X69028571Y-54973809D01*
X69057142Y-54973809D01*
X69076190Y-54983333D01*
X69085714Y-54992857D01*
X69095238Y-55011904D01*
X69095238Y-55088095D01*
X69009523Y-54897619D02*
X69000000Y-54888095D01*
X68990476Y-54869047D01*
X68990476Y-54821428D01*
X69000000Y-54802380D01*
X69009523Y-54792857D01*
X69028571Y-54783333D01*
X69047619Y-54783333D01*
X69076190Y-54792857D01*
X69190476Y-54907142D01*
X69190476Y-54783333D01*
X69190476Y-54592857D02*
X69190476Y-54707142D01*
X69190476Y-54650000D02*
X68990476Y-54650000D01*
X69019047Y-54669047D01*
X69038095Y-54688095D01*
X69047619Y-54707142D01*
X68990476Y-54469047D02*
X68990476Y-54450000D01*
X69000000Y-54430952D01*
X69009523Y-54421428D01*
X69028571Y-54411904D01*
X69066666Y-54402380D01*
X69114285Y-54402380D01*
X69152380Y-54411904D01*
X69171428Y-54421428D01*
X69180952Y-54430952D01*
X69190476Y-54450000D01*
X69190476Y-54469047D01*
X69180952Y-54488095D01*
X69171428Y-54497619D01*
X69152380Y-54507142D01*
X69114285Y-54516666D01*
X69066666Y-54516666D01*
X69028571Y-54507142D01*
X69009523Y-54497619D01*
X69000000Y-54488095D01*
X68990476Y-54469047D01*
G04 #@! TO.C,U300*
D10*
X77785714Y-64452380D02*
X77785714Y-65261904D01*
X77833333Y-65357142D01*
X77880952Y-65404761D01*
X77976190Y-65452380D01*
X78166666Y-65452380D01*
X78261904Y-65404761D01*
X78309523Y-65357142D01*
X78357142Y-65261904D01*
X78357142Y-64452380D01*
X78738095Y-64452380D02*
X79357142Y-64452380D01*
X79023809Y-64833333D01*
X79166666Y-64833333D01*
X79261904Y-64880952D01*
X79309523Y-64928571D01*
X79357142Y-65023809D01*
X79357142Y-65261904D01*
X79309523Y-65357142D01*
X79261904Y-65404761D01*
X79166666Y-65452380D01*
X78880952Y-65452380D01*
X78785714Y-65404761D01*
X78738095Y-65357142D01*
X79976190Y-64452380D02*
X80071428Y-64452380D01*
X80166666Y-64500000D01*
X80214285Y-64547619D01*
X80261904Y-64642857D01*
X80309523Y-64833333D01*
X80309523Y-65071428D01*
X80261904Y-65261904D01*
X80214285Y-65357142D01*
X80166666Y-65404761D01*
X80071428Y-65452380D01*
X79976190Y-65452380D01*
X79880952Y-65404761D01*
X79833333Y-65357142D01*
X79785714Y-65261904D01*
X79738095Y-65071428D01*
X79738095Y-64833333D01*
X79785714Y-64642857D01*
X79833333Y-64547619D01*
X79880952Y-64500000D01*
X79976190Y-64452380D01*
X80928571Y-64452380D02*
X81023809Y-64452380D01*
X81119047Y-64500000D01*
X81166666Y-64547619D01*
X81214285Y-64642857D01*
X81261904Y-64833333D01*
X81261904Y-65071428D01*
X81214285Y-65261904D01*
X81166666Y-65357142D01*
X81119047Y-65404761D01*
X81023809Y-65452380D01*
X80928571Y-65452380D01*
X80833333Y-65404761D01*
X80785714Y-65357142D01*
X80738095Y-65261904D01*
X80690476Y-65071428D01*
X80690476Y-64833333D01*
X80738095Y-64642857D01*
X80785714Y-64547619D01*
X80833333Y-64500000D01*
X80928571Y-64452380D01*
G04 #@! TO.C,U100*
X63285714Y-64452380D02*
X63285714Y-65261904D01*
X63333333Y-65357142D01*
X63380952Y-65404761D01*
X63476190Y-65452380D01*
X63666666Y-65452380D01*
X63761904Y-65404761D01*
X63809523Y-65357142D01*
X63857142Y-65261904D01*
X63857142Y-64452380D01*
X64857142Y-65452380D02*
X64285714Y-65452380D01*
X64571428Y-65452380D02*
X64571428Y-64452380D01*
X64476190Y-64595238D01*
X64380952Y-64690476D01*
X64285714Y-64738095D01*
X65476190Y-64452380D02*
X65571428Y-64452380D01*
X65666666Y-64500000D01*
X65714285Y-64547619D01*
X65761904Y-64642857D01*
X65809523Y-64833333D01*
X65809523Y-65071428D01*
X65761904Y-65261904D01*
X65714285Y-65357142D01*
X65666666Y-65404761D01*
X65571428Y-65452380D01*
X65476190Y-65452380D01*
X65380952Y-65404761D01*
X65333333Y-65357142D01*
X65285714Y-65261904D01*
X65238095Y-65071428D01*
X65238095Y-64833333D01*
X65285714Y-64642857D01*
X65333333Y-64547619D01*
X65380952Y-64500000D01*
X65476190Y-64452380D01*
X66428571Y-64452380D02*
X66523809Y-64452380D01*
X66619047Y-64500000D01*
X66666666Y-64547619D01*
X66714285Y-64642857D01*
X66761904Y-64833333D01*
X66761904Y-65071428D01*
X66714285Y-65261904D01*
X66666666Y-65357142D01*
X66619047Y-65404761D01*
X66523809Y-65452380D01*
X66428571Y-65452380D01*
X66333333Y-65404761D01*
X66285714Y-65357142D01*
X66238095Y-65261904D01*
X66190476Y-65071428D01*
X66190476Y-64833333D01*
X66238095Y-64642857D01*
X66285714Y-64547619D01*
X66333333Y-64500000D01*
X66428571Y-64452380D01*
G04 #@! TO.C,L500*
D13*
X43926190Y-74290476D02*
X43830952Y-74290476D01*
X43830952Y-74090476D01*
X44088095Y-74090476D02*
X43992857Y-74090476D01*
X43983333Y-74185714D01*
X43992857Y-74176190D01*
X44011904Y-74166666D01*
X44059523Y-74166666D01*
X44078571Y-74176190D01*
X44088095Y-74185714D01*
X44097619Y-74204761D01*
X44097619Y-74252380D01*
X44088095Y-74271428D01*
X44078571Y-74280952D01*
X44059523Y-74290476D01*
X44011904Y-74290476D01*
X43992857Y-74280952D01*
X43983333Y-74271428D01*
X44221428Y-74090476D02*
X44240476Y-74090476D01*
X44259523Y-74100000D01*
X44269047Y-74109523D01*
X44278571Y-74128571D01*
X44288095Y-74166666D01*
X44288095Y-74214285D01*
X44278571Y-74252380D01*
X44269047Y-74271428D01*
X44259523Y-74280952D01*
X44240476Y-74290476D01*
X44221428Y-74290476D01*
X44202380Y-74280952D01*
X44192857Y-74271428D01*
X44183333Y-74252380D01*
X44173809Y-74214285D01*
X44173809Y-74166666D01*
X44183333Y-74128571D01*
X44192857Y-74109523D01*
X44202380Y-74100000D01*
X44221428Y-74090476D01*
X44411904Y-74090476D02*
X44430952Y-74090476D01*
X44450000Y-74100000D01*
X44459523Y-74109523D01*
X44469047Y-74128571D01*
X44478571Y-74166666D01*
X44478571Y-74214285D01*
X44469047Y-74252380D01*
X44459523Y-74271428D01*
X44450000Y-74280952D01*
X44430952Y-74290476D01*
X44411904Y-74290476D01*
X44392857Y-74280952D01*
X44383333Y-74271428D01*
X44373809Y-74252380D01*
X44364285Y-74214285D01*
X44364285Y-74166666D01*
X44373809Y-74128571D01*
X44383333Y-74109523D01*
X44392857Y-74100000D01*
X44411904Y-74090476D01*
G04 #@! TO.C,Y100*
D14*
X55238095Y-69964285D02*
X55476190Y-69964285D01*
X54976190Y-70130952D02*
X55238095Y-69964285D01*
X54976190Y-69797619D01*
X55476190Y-69369047D02*
X55476190Y-69654761D01*
X55476190Y-69511904D02*
X54976190Y-69511904D01*
X55047619Y-69559523D01*
X55095238Y-69607142D01*
X55119047Y-69654761D01*
X54976190Y-69059523D02*
X54976190Y-69011904D01*
X55000000Y-68964285D01*
X55023809Y-68940476D01*
X55071428Y-68916666D01*
X55166666Y-68892857D01*
X55285714Y-68892857D01*
X55380952Y-68916666D01*
X55428571Y-68940476D01*
X55452380Y-68964285D01*
X55476190Y-69011904D01*
X55476190Y-69059523D01*
X55452380Y-69107142D01*
X55428571Y-69130952D01*
X55380952Y-69154761D01*
X55285714Y-69178571D01*
X55166666Y-69178571D01*
X55071428Y-69154761D01*
X55023809Y-69130952D01*
X55000000Y-69107142D01*
X54976190Y-69059523D01*
X54976190Y-68583333D02*
X54976190Y-68535714D01*
X55000000Y-68488095D01*
X55023809Y-68464285D01*
X55071428Y-68440476D01*
X55166666Y-68416666D01*
X55285714Y-68416666D01*
X55380952Y-68440476D01*
X55428571Y-68464285D01*
X55452380Y-68488095D01*
X55476190Y-68535714D01*
X55476190Y-68583333D01*
X55452380Y-68630952D01*
X55428571Y-68654761D01*
X55380952Y-68678571D01*
X55285714Y-68702380D01*
X55166666Y-68702380D01*
X55071428Y-68678571D01*
X55023809Y-68654761D01*
X55000000Y-68630952D01*
X54976190Y-68583333D01*
G04 #@! TO.C,U500*
D10*
X45452380Y-66714285D02*
X46261904Y-66714285D01*
X46357142Y-66666666D01*
X46404761Y-66619047D01*
X46452380Y-66523809D01*
X46452380Y-66333333D01*
X46404761Y-66238095D01*
X46357142Y-66190476D01*
X46261904Y-66142857D01*
X45452380Y-66142857D01*
X45452380Y-65190476D02*
X45452380Y-65666666D01*
X45928571Y-65714285D01*
X45880952Y-65666666D01*
X45833333Y-65571428D01*
X45833333Y-65333333D01*
X45880952Y-65238095D01*
X45928571Y-65190476D01*
X46023809Y-65142857D01*
X46261904Y-65142857D01*
X46357142Y-65190476D01*
X46404761Y-65238095D01*
X46452380Y-65333333D01*
X46452380Y-65571428D01*
X46404761Y-65666666D01*
X46357142Y-65714285D01*
X45452380Y-64523809D02*
X45452380Y-64428571D01*
X45500000Y-64333333D01*
X45547619Y-64285714D01*
X45642857Y-64238095D01*
X45833333Y-64190476D01*
X46071428Y-64190476D01*
X46261904Y-64238095D01*
X46357142Y-64285714D01*
X46404761Y-64333333D01*
X46452380Y-64428571D01*
X46452380Y-64523809D01*
X46404761Y-64619047D01*
X46357142Y-64666666D01*
X46261904Y-64714285D01*
X46071428Y-64761904D01*
X45833333Y-64761904D01*
X45642857Y-64714285D01*
X45547619Y-64666666D01*
X45500000Y-64619047D01*
X45452380Y-64523809D01*
X45452380Y-63571428D02*
X45452380Y-63476190D01*
X45500000Y-63380952D01*
X45547619Y-63333333D01*
X45642857Y-63285714D01*
X45833333Y-63238095D01*
X46071428Y-63238095D01*
X46261904Y-63285714D01*
X46357142Y-63333333D01*
X46404761Y-63380952D01*
X46452380Y-63476190D01*
X46452380Y-63571428D01*
X46404761Y-63666666D01*
X46357142Y-63714285D01*
X46261904Y-63761904D01*
X46071428Y-63809523D01*
X45833333Y-63809523D01*
X45642857Y-63761904D01*
X45547619Y-63714285D01*
X45500000Y-63666666D01*
X45452380Y-63571428D01*
G04 #@! TO.C,D810*
D12*
X70161904Y-75190476D02*
X70161904Y-74990476D01*
X70209523Y-74990476D01*
X70238095Y-75000000D01*
X70257142Y-75019047D01*
X70266666Y-75038095D01*
X70276190Y-75076190D01*
X70276190Y-75104761D01*
X70266666Y-75142857D01*
X70257142Y-75161904D01*
X70238095Y-75180952D01*
X70209523Y-75190476D01*
X70161904Y-75190476D01*
X70390476Y-75076190D02*
X70371428Y-75066666D01*
X70361904Y-75057142D01*
X70352380Y-75038095D01*
X70352380Y-75028571D01*
X70361904Y-75009523D01*
X70371428Y-75000000D01*
X70390476Y-74990476D01*
X70428571Y-74990476D01*
X70447619Y-75000000D01*
X70457142Y-75009523D01*
X70466666Y-75028571D01*
X70466666Y-75038095D01*
X70457142Y-75057142D01*
X70447619Y-75066666D01*
X70428571Y-75076190D01*
X70390476Y-75076190D01*
X70371428Y-75085714D01*
X70361904Y-75095238D01*
X70352380Y-75114285D01*
X70352380Y-75152380D01*
X70361904Y-75171428D01*
X70371428Y-75180952D01*
X70390476Y-75190476D01*
X70428571Y-75190476D01*
X70447619Y-75180952D01*
X70457142Y-75171428D01*
X70466666Y-75152380D01*
X70466666Y-75114285D01*
X70457142Y-75095238D01*
X70447619Y-75085714D01*
X70428571Y-75076190D01*
X70657142Y-75190476D02*
X70542857Y-75190476D01*
X70600000Y-75190476D02*
X70600000Y-74990476D01*
X70580952Y-75019047D01*
X70561904Y-75038095D01*
X70542857Y-75047619D01*
X70780952Y-74990476D02*
X70800000Y-74990476D01*
X70819047Y-75000000D01*
X70828571Y-75009523D01*
X70838095Y-75028571D01*
X70847619Y-75066666D01*
X70847619Y-75114285D01*
X70838095Y-75152380D01*
X70828571Y-75171428D01*
X70819047Y-75180952D01*
X70800000Y-75190476D01*
X70780952Y-75190476D01*
X70761904Y-75180952D01*
X70752380Y-75171428D01*
X70742857Y-75152380D01*
X70733333Y-75114285D01*
X70733333Y-75066666D01*
X70742857Y-75028571D01*
X70752380Y-75009523D01*
X70761904Y-75000000D01*
X70780952Y-74990476D01*
G04 #@! TO.C,D820*
X62890476Y-75938095D02*
X62690476Y-75938095D01*
X62690476Y-75890476D01*
X62700000Y-75861904D01*
X62719047Y-75842857D01*
X62738095Y-75833333D01*
X62776190Y-75823809D01*
X62804761Y-75823809D01*
X62842857Y-75833333D01*
X62861904Y-75842857D01*
X62880952Y-75861904D01*
X62890476Y-75890476D01*
X62890476Y-75938095D01*
X62776190Y-75709523D02*
X62766666Y-75728571D01*
X62757142Y-75738095D01*
X62738095Y-75747619D01*
X62728571Y-75747619D01*
X62709523Y-75738095D01*
X62700000Y-75728571D01*
X62690476Y-75709523D01*
X62690476Y-75671428D01*
X62700000Y-75652380D01*
X62709523Y-75642857D01*
X62728571Y-75633333D01*
X62738095Y-75633333D01*
X62757142Y-75642857D01*
X62766666Y-75652380D01*
X62776190Y-75671428D01*
X62776190Y-75709523D01*
X62785714Y-75728571D01*
X62795238Y-75738095D01*
X62814285Y-75747619D01*
X62852380Y-75747619D01*
X62871428Y-75738095D01*
X62880952Y-75728571D01*
X62890476Y-75709523D01*
X62890476Y-75671428D01*
X62880952Y-75652380D01*
X62871428Y-75642857D01*
X62852380Y-75633333D01*
X62814285Y-75633333D01*
X62795238Y-75642857D01*
X62785714Y-75652380D01*
X62776190Y-75671428D01*
X62709523Y-75557142D02*
X62700000Y-75547619D01*
X62690476Y-75528571D01*
X62690476Y-75480952D01*
X62700000Y-75461904D01*
X62709523Y-75452380D01*
X62728571Y-75442857D01*
X62747619Y-75442857D01*
X62776190Y-75452380D01*
X62890476Y-75566666D01*
X62890476Y-75442857D01*
X62690476Y-75319047D02*
X62690476Y-75300000D01*
X62700000Y-75280952D01*
X62709523Y-75271428D01*
X62728571Y-75261904D01*
X62766666Y-75252380D01*
X62814285Y-75252380D01*
X62852380Y-75261904D01*
X62871428Y-75271428D01*
X62880952Y-75280952D01*
X62890476Y-75300000D01*
X62890476Y-75319047D01*
X62880952Y-75338095D01*
X62871428Y-75347619D01*
X62852380Y-75357142D01*
X62814285Y-75366666D01*
X62766666Y-75366666D01*
X62728571Y-75357142D01*
X62709523Y-75347619D01*
X62700000Y-75338095D01*
X62690476Y-75319047D01*
G04 #@! TO.C,D800*
X44396954Y-56624906D02*
X44538375Y-56483485D01*
X44572047Y-56517157D01*
X44585516Y-56544094D01*
X44585516Y-56571032D01*
X44578781Y-56591235D01*
X44558578Y-56624906D01*
X44538375Y-56645109D01*
X44504703Y-56665312D01*
X44484500Y-56672047D01*
X44457563Y-56672047D01*
X44430625Y-56658578D01*
X44396954Y-56624906D01*
X44639390Y-56705719D02*
X44632656Y-56685516D01*
X44632656Y-56672047D01*
X44639390Y-56651844D01*
X44646125Y-56645109D01*
X44666328Y-56638375D01*
X44679796Y-56638375D01*
X44700000Y-56645109D01*
X44726937Y-56672047D01*
X44733671Y-56692250D01*
X44733671Y-56705719D01*
X44726937Y-56725922D01*
X44720203Y-56732656D01*
X44700000Y-56739390D01*
X44686531Y-56739390D01*
X44666328Y-56732656D01*
X44639390Y-56705719D01*
X44619187Y-56698984D01*
X44605719Y-56698984D01*
X44585516Y-56705719D01*
X44558578Y-56732656D01*
X44551844Y-56752859D01*
X44551844Y-56766328D01*
X44558578Y-56786531D01*
X44585516Y-56813468D01*
X44605719Y-56820203D01*
X44619187Y-56820203D01*
X44639390Y-56813468D01*
X44666328Y-56786531D01*
X44673062Y-56766328D01*
X44673062Y-56752859D01*
X44666328Y-56732656D01*
X44841421Y-56786531D02*
X44854890Y-56800000D01*
X44861624Y-56820203D01*
X44861624Y-56833671D01*
X44854890Y-56853874D01*
X44834687Y-56887546D01*
X44801015Y-56921218D01*
X44767343Y-56941421D01*
X44747140Y-56948155D01*
X44733671Y-56948155D01*
X44713468Y-56941421D01*
X44700000Y-56927952D01*
X44693265Y-56907749D01*
X44693265Y-56894280D01*
X44700000Y-56874077D01*
X44720203Y-56840406D01*
X44753874Y-56806734D01*
X44787546Y-56786531D01*
X44807749Y-56779796D01*
X44821218Y-56779796D01*
X44841421Y-56786531D01*
X44976108Y-56921218D02*
X44989577Y-56934687D01*
X44996311Y-56954890D01*
X44996311Y-56968358D01*
X44989577Y-56988561D01*
X44969374Y-57022233D01*
X44935702Y-57055905D01*
X44902030Y-57076108D01*
X44881827Y-57082842D01*
X44868358Y-57082842D01*
X44848155Y-57076108D01*
X44834687Y-57062639D01*
X44827952Y-57042436D01*
X44827952Y-57028967D01*
X44834687Y-57008764D01*
X44854890Y-56975093D01*
X44888561Y-56941421D01*
X44922233Y-56921218D01*
X44942436Y-56914483D01*
X44955905Y-56914483D01*
X44976108Y-56921218D01*
G04 #@! TO.C,C540*
D14*
X50407142Y-56935714D02*
X50421428Y-56950000D01*
X50435714Y-56992857D01*
X50435714Y-57021428D01*
X50421428Y-57064285D01*
X50392857Y-57092857D01*
X50364285Y-57107142D01*
X50307142Y-57121428D01*
X50264285Y-57121428D01*
X50207142Y-57107142D01*
X50178571Y-57092857D01*
X50150000Y-57064285D01*
X50135714Y-57021428D01*
X50135714Y-56992857D01*
X50150000Y-56950000D01*
X50164285Y-56935714D01*
X50135714Y-56664285D02*
X50135714Y-56807142D01*
X50278571Y-56821428D01*
X50264285Y-56807142D01*
X50250000Y-56778571D01*
X50250000Y-56707142D01*
X50264285Y-56678571D01*
X50278571Y-56664285D01*
X50307142Y-56650000D01*
X50378571Y-56650000D01*
X50407142Y-56664285D01*
X50421428Y-56678571D01*
X50435714Y-56707142D01*
X50435714Y-56778571D01*
X50421428Y-56807142D01*
X50407142Y-56821428D01*
X50235714Y-56392857D02*
X50435714Y-56392857D01*
X50121428Y-56464285D02*
X50335714Y-56535714D01*
X50335714Y-56350000D01*
X50135714Y-56178571D02*
X50135714Y-56150000D01*
X50150000Y-56121428D01*
X50164285Y-56107142D01*
X50192857Y-56092857D01*
X50250000Y-56078571D01*
X50321428Y-56078571D01*
X50378571Y-56092857D01*
X50407142Y-56107142D01*
X50421428Y-56121428D01*
X50435714Y-56150000D01*
X50435714Y-56178571D01*
X50421428Y-56207142D01*
X50407142Y-56221428D01*
X50378571Y-56235714D01*
X50321428Y-56250000D01*
X50250000Y-56250000D01*
X50192857Y-56235714D01*
X50164285Y-56221428D01*
X50150000Y-56207142D01*
X50135714Y-56178571D01*
G04 #@! TO.C,C400*
X57107142Y-63085714D02*
X57121428Y-63100000D01*
X57135714Y-63142857D01*
X57135714Y-63171428D01*
X57121428Y-63214285D01*
X57092857Y-63242857D01*
X57064285Y-63257142D01*
X57007142Y-63271428D01*
X56964285Y-63271428D01*
X56907142Y-63257142D01*
X56878571Y-63242857D01*
X56850000Y-63214285D01*
X56835714Y-63171428D01*
X56835714Y-63142857D01*
X56850000Y-63100000D01*
X56864285Y-63085714D01*
X56935714Y-62828571D02*
X57135714Y-62828571D01*
X56821428Y-62900000D02*
X57035714Y-62971428D01*
X57035714Y-62785714D01*
X56835714Y-62614285D02*
X56835714Y-62585714D01*
X56850000Y-62557142D01*
X56864285Y-62542857D01*
X56892857Y-62528571D01*
X56950000Y-62514285D01*
X57021428Y-62514285D01*
X57078571Y-62528571D01*
X57107142Y-62542857D01*
X57121428Y-62557142D01*
X57135714Y-62585714D01*
X57135714Y-62614285D01*
X57121428Y-62642857D01*
X57107142Y-62657142D01*
X57078571Y-62671428D01*
X57021428Y-62685714D01*
X56950000Y-62685714D01*
X56892857Y-62671428D01*
X56864285Y-62657142D01*
X56850000Y-62642857D01*
X56835714Y-62614285D01*
X56835714Y-62328571D02*
X56835714Y-62300000D01*
X56850000Y-62271428D01*
X56864285Y-62257142D01*
X56892857Y-62242857D01*
X56950000Y-62228571D01*
X57021428Y-62228571D01*
X57078571Y-62242857D01*
X57107142Y-62257142D01*
X57121428Y-62271428D01*
X57135714Y-62300000D01*
X57135714Y-62328571D01*
X57121428Y-62357142D01*
X57107142Y-62371428D01*
X57078571Y-62385714D01*
X57021428Y-62400000D01*
X56950000Y-62400000D01*
X56892857Y-62385714D01*
X56864285Y-62371428D01*
X56850000Y-62357142D01*
X56835714Y-62328571D01*
G04 #@! TO.C,C410*
X55914285Y-60857142D02*
X55900000Y-60871428D01*
X55857142Y-60885714D01*
X55828571Y-60885714D01*
X55785714Y-60871428D01*
X55757142Y-60842857D01*
X55742857Y-60814285D01*
X55728571Y-60757142D01*
X55728571Y-60714285D01*
X55742857Y-60657142D01*
X55757142Y-60628571D01*
X55785714Y-60600000D01*
X55828571Y-60585714D01*
X55857142Y-60585714D01*
X55900000Y-60600000D01*
X55914285Y-60614285D01*
X56171428Y-60685714D02*
X56171428Y-60885714D01*
X56100000Y-60571428D02*
X56028571Y-60785714D01*
X56214285Y-60785714D01*
X56485714Y-60885714D02*
X56314285Y-60885714D01*
X56400000Y-60885714D02*
X56400000Y-60585714D01*
X56371428Y-60628571D01*
X56342857Y-60657142D01*
X56314285Y-60671428D01*
X56671428Y-60585714D02*
X56700000Y-60585714D01*
X56728571Y-60600000D01*
X56742857Y-60614285D01*
X56757142Y-60642857D01*
X56771428Y-60700000D01*
X56771428Y-60771428D01*
X56757142Y-60828571D01*
X56742857Y-60857142D01*
X56728571Y-60871428D01*
X56700000Y-60885714D01*
X56671428Y-60885714D01*
X56642857Y-60871428D01*
X56628571Y-60857142D01*
X56614285Y-60828571D01*
X56600000Y-60771428D01*
X56600000Y-60700000D01*
X56614285Y-60642857D01*
X56628571Y-60614285D01*
X56642857Y-60600000D01*
X56671428Y-60585714D01*
G04 #@! TO.C,C500*
D12*
X45321428Y-74973809D02*
X45330952Y-74983333D01*
X45340476Y-75011904D01*
X45340476Y-75030952D01*
X45330952Y-75059523D01*
X45311904Y-75078571D01*
X45292857Y-75088095D01*
X45254761Y-75097619D01*
X45226190Y-75097619D01*
X45188095Y-75088095D01*
X45169047Y-75078571D01*
X45150000Y-75059523D01*
X45140476Y-75030952D01*
X45140476Y-75011904D01*
X45150000Y-74983333D01*
X45159523Y-74973809D01*
X45140476Y-74792857D02*
X45140476Y-74888095D01*
X45235714Y-74897619D01*
X45226190Y-74888095D01*
X45216666Y-74869047D01*
X45216666Y-74821428D01*
X45226190Y-74802380D01*
X45235714Y-74792857D01*
X45254761Y-74783333D01*
X45302380Y-74783333D01*
X45321428Y-74792857D01*
X45330952Y-74802380D01*
X45340476Y-74821428D01*
X45340476Y-74869047D01*
X45330952Y-74888095D01*
X45321428Y-74897619D01*
X45140476Y-74659523D02*
X45140476Y-74640476D01*
X45150000Y-74621428D01*
X45159523Y-74611904D01*
X45178571Y-74602380D01*
X45216666Y-74592857D01*
X45264285Y-74592857D01*
X45302380Y-74602380D01*
X45321428Y-74611904D01*
X45330952Y-74621428D01*
X45340476Y-74640476D01*
X45340476Y-74659523D01*
X45330952Y-74678571D01*
X45321428Y-74688095D01*
X45302380Y-74697619D01*
X45264285Y-74707142D01*
X45216666Y-74707142D01*
X45178571Y-74697619D01*
X45159523Y-74688095D01*
X45150000Y-74678571D01*
X45140476Y-74659523D01*
X45140476Y-74469047D02*
X45140476Y-74450000D01*
X45150000Y-74430952D01*
X45159523Y-74421428D01*
X45178571Y-74411904D01*
X45216666Y-74402380D01*
X45264285Y-74402380D01*
X45302380Y-74411904D01*
X45321428Y-74421428D01*
X45330952Y-74430952D01*
X45340476Y-74450000D01*
X45340476Y-74469047D01*
X45330952Y-74488095D01*
X45321428Y-74497619D01*
X45302380Y-74507142D01*
X45264285Y-74516666D01*
X45216666Y-74516666D01*
X45178571Y-74507142D01*
X45159523Y-74497619D01*
X45150000Y-74488095D01*
X45140476Y-74469047D01*
G04 #@! TO.C,C501*
X43121428Y-74973809D02*
X43130952Y-74983333D01*
X43140476Y-75011904D01*
X43140476Y-75030952D01*
X43130952Y-75059523D01*
X43111904Y-75078571D01*
X43092857Y-75088095D01*
X43054761Y-75097619D01*
X43026190Y-75097619D01*
X42988095Y-75088095D01*
X42969047Y-75078571D01*
X42950000Y-75059523D01*
X42940476Y-75030952D01*
X42940476Y-75011904D01*
X42950000Y-74983333D01*
X42959523Y-74973809D01*
X42940476Y-74792857D02*
X42940476Y-74888095D01*
X43035714Y-74897619D01*
X43026190Y-74888095D01*
X43016666Y-74869047D01*
X43016666Y-74821428D01*
X43026190Y-74802380D01*
X43035714Y-74792857D01*
X43054761Y-74783333D01*
X43102380Y-74783333D01*
X43121428Y-74792857D01*
X43130952Y-74802380D01*
X43140476Y-74821428D01*
X43140476Y-74869047D01*
X43130952Y-74888095D01*
X43121428Y-74897619D01*
X42940476Y-74659523D02*
X42940476Y-74640476D01*
X42950000Y-74621428D01*
X42959523Y-74611904D01*
X42978571Y-74602380D01*
X43016666Y-74592857D01*
X43064285Y-74592857D01*
X43102380Y-74602380D01*
X43121428Y-74611904D01*
X43130952Y-74621428D01*
X43140476Y-74640476D01*
X43140476Y-74659523D01*
X43130952Y-74678571D01*
X43121428Y-74688095D01*
X43102380Y-74697619D01*
X43064285Y-74707142D01*
X43016666Y-74707142D01*
X42978571Y-74697619D01*
X42959523Y-74688095D01*
X42950000Y-74678571D01*
X42940476Y-74659523D01*
X43140476Y-74402380D02*
X43140476Y-74516666D01*
X43140476Y-74459523D02*
X42940476Y-74459523D01*
X42969047Y-74478571D01*
X42988095Y-74497619D01*
X42997619Y-74516666D01*
G04 #@! TO.C,C232*
X83771428Y-56823809D02*
X83780952Y-56833333D01*
X83790476Y-56861904D01*
X83790476Y-56880952D01*
X83780952Y-56909523D01*
X83761904Y-56928571D01*
X83742857Y-56938095D01*
X83704761Y-56947619D01*
X83676190Y-56947619D01*
X83638095Y-56938095D01*
X83619047Y-56928571D01*
X83600000Y-56909523D01*
X83590476Y-56880952D01*
X83590476Y-56861904D01*
X83600000Y-56833333D01*
X83609523Y-56823809D01*
X83609523Y-56747619D02*
X83600000Y-56738095D01*
X83590476Y-56719047D01*
X83590476Y-56671428D01*
X83600000Y-56652380D01*
X83609523Y-56642857D01*
X83628571Y-56633333D01*
X83647619Y-56633333D01*
X83676190Y-56642857D01*
X83790476Y-56757142D01*
X83790476Y-56633333D01*
X83590476Y-56566666D02*
X83590476Y-56442857D01*
X83666666Y-56509523D01*
X83666666Y-56480952D01*
X83676190Y-56461904D01*
X83685714Y-56452380D01*
X83704761Y-56442857D01*
X83752380Y-56442857D01*
X83771428Y-56452380D01*
X83780952Y-56461904D01*
X83790476Y-56480952D01*
X83790476Y-56538095D01*
X83780952Y-56557142D01*
X83771428Y-56566666D01*
X83609523Y-56366666D02*
X83600000Y-56357142D01*
X83590476Y-56338095D01*
X83590476Y-56290476D01*
X83600000Y-56271428D01*
X83609523Y-56261904D01*
X83628571Y-56252380D01*
X83647619Y-56252380D01*
X83676190Y-56261904D01*
X83790476Y-56376190D01*
X83790476Y-56252380D01*
G04 #@! TO.C,C202*
X68371428Y-56823809D02*
X68380952Y-56833333D01*
X68390476Y-56861904D01*
X68390476Y-56880952D01*
X68380952Y-56909523D01*
X68361904Y-56928571D01*
X68342857Y-56938095D01*
X68304761Y-56947619D01*
X68276190Y-56947619D01*
X68238095Y-56938095D01*
X68219047Y-56928571D01*
X68200000Y-56909523D01*
X68190476Y-56880952D01*
X68190476Y-56861904D01*
X68200000Y-56833333D01*
X68209523Y-56823809D01*
X68209523Y-56747619D02*
X68200000Y-56738095D01*
X68190476Y-56719047D01*
X68190476Y-56671428D01*
X68200000Y-56652380D01*
X68209523Y-56642857D01*
X68228571Y-56633333D01*
X68247619Y-56633333D01*
X68276190Y-56642857D01*
X68390476Y-56757142D01*
X68390476Y-56633333D01*
X68190476Y-56509523D02*
X68190476Y-56490476D01*
X68200000Y-56471428D01*
X68209523Y-56461904D01*
X68228571Y-56452380D01*
X68266666Y-56442857D01*
X68314285Y-56442857D01*
X68352380Y-56452380D01*
X68371428Y-56461904D01*
X68380952Y-56471428D01*
X68390476Y-56490476D01*
X68390476Y-56509523D01*
X68380952Y-56528571D01*
X68371428Y-56538095D01*
X68352380Y-56547619D01*
X68314285Y-56557142D01*
X68266666Y-56557142D01*
X68228571Y-56547619D01*
X68209523Y-56538095D01*
X68200000Y-56528571D01*
X68190476Y-56509523D01*
X68209523Y-56366666D02*
X68200000Y-56357142D01*
X68190476Y-56338095D01*
X68190476Y-56290476D01*
X68200000Y-56271428D01*
X68209523Y-56261904D01*
X68228571Y-56252380D01*
X68247619Y-56252380D01*
X68276190Y-56261904D01*
X68390476Y-56376190D01*
X68390476Y-56252380D01*
G04 #@! TO.C,C210*
X69971428Y-54973809D02*
X69980952Y-54983333D01*
X69990476Y-55011904D01*
X69990476Y-55030952D01*
X69980952Y-55059523D01*
X69961904Y-55078571D01*
X69942857Y-55088095D01*
X69904761Y-55097619D01*
X69876190Y-55097619D01*
X69838095Y-55088095D01*
X69819047Y-55078571D01*
X69800000Y-55059523D01*
X69790476Y-55030952D01*
X69790476Y-55011904D01*
X69800000Y-54983333D01*
X69809523Y-54973809D01*
X69809523Y-54897619D02*
X69800000Y-54888095D01*
X69790476Y-54869047D01*
X69790476Y-54821428D01*
X69800000Y-54802380D01*
X69809523Y-54792857D01*
X69828571Y-54783333D01*
X69847619Y-54783333D01*
X69876190Y-54792857D01*
X69990476Y-54907142D01*
X69990476Y-54783333D01*
X69990476Y-54592857D02*
X69990476Y-54707142D01*
X69990476Y-54650000D02*
X69790476Y-54650000D01*
X69819047Y-54669047D01*
X69838095Y-54688095D01*
X69847619Y-54707142D01*
X69790476Y-54469047D02*
X69790476Y-54450000D01*
X69800000Y-54430952D01*
X69809523Y-54421428D01*
X69828571Y-54411904D01*
X69866666Y-54402380D01*
X69914285Y-54402380D01*
X69952380Y-54411904D01*
X69971428Y-54421428D01*
X69980952Y-54430952D01*
X69990476Y-54450000D01*
X69990476Y-54469047D01*
X69980952Y-54488095D01*
X69971428Y-54497619D01*
X69952380Y-54507142D01*
X69914285Y-54516666D01*
X69866666Y-54516666D01*
X69828571Y-54507142D01*
X69809523Y-54497619D01*
X69800000Y-54488095D01*
X69790476Y-54469047D01*
G04 #@! TO.C,C222*
X62071428Y-73823809D02*
X62080952Y-73833333D01*
X62090476Y-73861904D01*
X62090476Y-73880952D01*
X62080952Y-73909523D01*
X62061904Y-73928571D01*
X62042857Y-73938095D01*
X62004761Y-73947619D01*
X61976190Y-73947619D01*
X61938095Y-73938095D01*
X61919047Y-73928571D01*
X61900000Y-73909523D01*
X61890476Y-73880952D01*
X61890476Y-73861904D01*
X61900000Y-73833333D01*
X61909523Y-73823809D01*
X61909523Y-73747619D02*
X61900000Y-73738095D01*
X61890476Y-73719047D01*
X61890476Y-73671428D01*
X61900000Y-73652380D01*
X61909523Y-73642857D01*
X61928571Y-73633333D01*
X61947619Y-73633333D01*
X61976190Y-73642857D01*
X62090476Y-73757142D01*
X62090476Y-73633333D01*
X61909523Y-73557142D02*
X61900000Y-73547619D01*
X61890476Y-73528571D01*
X61890476Y-73480952D01*
X61900000Y-73461904D01*
X61909523Y-73452380D01*
X61928571Y-73442857D01*
X61947619Y-73442857D01*
X61976190Y-73452380D01*
X62090476Y-73566666D01*
X62090476Y-73442857D01*
X61909523Y-73366666D02*
X61900000Y-73357142D01*
X61890476Y-73338095D01*
X61890476Y-73290476D01*
X61900000Y-73271428D01*
X61909523Y-73261904D01*
X61928571Y-73252380D01*
X61947619Y-73252380D01*
X61976190Y-73261904D01*
X62090476Y-73376190D01*
X62090476Y-73252380D01*
G04 #@! TO.C,C101*
X55026190Y-71071428D02*
X55016666Y-71080952D01*
X54988095Y-71090476D01*
X54969047Y-71090476D01*
X54940476Y-71080952D01*
X54921428Y-71061904D01*
X54911904Y-71042857D01*
X54902380Y-71004761D01*
X54902380Y-70976190D01*
X54911904Y-70938095D01*
X54921428Y-70919047D01*
X54940476Y-70900000D01*
X54969047Y-70890476D01*
X54988095Y-70890476D01*
X55016666Y-70900000D01*
X55026190Y-70909523D01*
X55216666Y-71090476D02*
X55102380Y-71090476D01*
X55159523Y-71090476D02*
X55159523Y-70890476D01*
X55140476Y-70919047D01*
X55121428Y-70938095D01*
X55102380Y-70947619D01*
X55340476Y-70890476D02*
X55359523Y-70890476D01*
X55378571Y-70900000D01*
X55388095Y-70909523D01*
X55397619Y-70928571D01*
X55407142Y-70966666D01*
X55407142Y-71014285D01*
X55397619Y-71052380D01*
X55388095Y-71071428D01*
X55378571Y-71080952D01*
X55359523Y-71090476D01*
X55340476Y-71090476D01*
X55321428Y-71080952D01*
X55311904Y-71071428D01*
X55302380Y-71052380D01*
X55292857Y-71014285D01*
X55292857Y-70966666D01*
X55302380Y-70928571D01*
X55311904Y-70909523D01*
X55321428Y-70900000D01*
X55340476Y-70890476D01*
X55597619Y-71090476D02*
X55483333Y-71090476D01*
X55540476Y-71090476D02*
X55540476Y-70890476D01*
X55521428Y-70919047D01*
X55502380Y-70938095D01*
X55483333Y-70947619D01*
G04 #@! TO.C,C100*
X53821428Y-69473809D02*
X53830952Y-69483333D01*
X53840476Y-69511904D01*
X53840476Y-69530952D01*
X53830952Y-69559523D01*
X53811904Y-69578571D01*
X53792857Y-69588095D01*
X53754761Y-69597619D01*
X53726190Y-69597619D01*
X53688095Y-69588095D01*
X53669047Y-69578571D01*
X53650000Y-69559523D01*
X53640476Y-69530952D01*
X53640476Y-69511904D01*
X53650000Y-69483333D01*
X53659523Y-69473809D01*
X53840476Y-69283333D02*
X53840476Y-69397619D01*
X53840476Y-69340476D02*
X53640476Y-69340476D01*
X53669047Y-69359523D01*
X53688095Y-69378571D01*
X53697619Y-69397619D01*
X53640476Y-69159523D02*
X53640476Y-69140476D01*
X53650000Y-69121428D01*
X53659523Y-69111904D01*
X53678571Y-69102380D01*
X53716666Y-69092857D01*
X53764285Y-69092857D01*
X53802380Y-69102380D01*
X53821428Y-69111904D01*
X53830952Y-69121428D01*
X53840476Y-69140476D01*
X53840476Y-69159523D01*
X53830952Y-69178571D01*
X53821428Y-69188095D01*
X53802380Y-69197619D01*
X53764285Y-69207142D01*
X53716666Y-69207142D01*
X53678571Y-69197619D01*
X53659523Y-69188095D01*
X53650000Y-69178571D01*
X53640476Y-69159523D01*
X53640476Y-68969047D02*
X53640476Y-68950000D01*
X53650000Y-68930952D01*
X53659523Y-68921428D01*
X53678571Y-68911904D01*
X53716666Y-68902380D01*
X53764285Y-68902380D01*
X53802380Y-68911904D01*
X53821428Y-68921428D01*
X53830952Y-68930952D01*
X53840476Y-68950000D01*
X53840476Y-68969047D01*
X53830952Y-68988095D01*
X53821428Y-68997619D01*
X53802380Y-69007142D01*
X53764285Y-69016666D01*
X53716666Y-69016666D01*
X53678571Y-69007142D01*
X53659523Y-68997619D01*
X53650000Y-68988095D01*
X53640476Y-68969047D01*
G04 #@! TO.C,C420*
X55776190Y-57571428D02*
X55766666Y-57580952D01*
X55738095Y-57590476D01*
X55719047Y-57590476D01*
X55690476Y-57580952D01*
X55671428Y-57561904D01*
X55661904Y-57542857D01*
X55652380Y-57504761D01*
X55652380Y-57476190D01*
X55661904Y-57438095D01*
X55671428Y-57419047D01*
X55690476Y-57400000D01*
X55719047Y-57390476D01*
X55738095Y-57390476D01*
X55766666Y-57400000D01*
X55776190Y-57409523D01*
X55947619Y-57457142D02*
X55947619Y-57590476D01*
X55900000Y-57380952D02*
X55852380Y-57523809D01*
X55976190Y-57523809D01*
X56042857Y-57409523D02*
X56052380Y-57400000D01*
X56071428Y-57390476D01*
X56119047Y-57390476D01*
X56138095Y-57400000D01*
X56147619Y-57409523D01*
X56157142Y-57428571D01*
X56157142Y-57447619D01*
X56147619Y-57476190D01*
X56033333Y-57590476D01*
X56157142Y-57590476D01*
X56280952Y-57390476D02*
X56300000Y-57390476D01*
X56319047Y-57400000D01*
X56328571Y-57409523D01*
X56338095Y-57428571D01*
X56347619Y-57466666D01*
X56347619Y-57514285D01*
X56338095Y-57552380D01*
X56328571Y-57571428D01*
X56319047Y-57580952D01*
X56300000Y-57590476D01*
X56280952Y-57590476D01*
X56261904Y-57580952D01*
X56252380Y-57571428D01*
X56242857Y-57552380D01*
X56233333Y-57514285D01*
X56233333Y-57466666D01*
X56242857Y-57428571D01*
X56252380Y-57409523D01*
X56261904Y-57400000D01*
X56280952Y-57390476D01*
G04 #@! TO.C,C402*
X55271428Y-63223809D02*
X55280952Y-63233333D01*
X55290476Y-63261904D01*
X55290476Y-63280952D01*
X55280952Y-63309523D01*
X55261904Y-63328571D01*
X55242857Y-63338095D01*
X55204761Y-63347619D01*
X55176190Y-63347619D01*
X55138095Y-63338095D01*
X55119047Y-63328571D01*
X55100000Y-63309523D01*
X55090476Y-63280952D01*
X55090476Y-63261904D01*
X55100000Y-63233333D01*
X55109523Y-63223809D01*
X55157142Y-63052380D02*
X55290476Y-63052380D01*
X55080952Y-63100000D02*
X55223809Y-63147619D01*
X55223809Y-63023809D01*
X55090476Y-62909523D02*
X55090476Y-62890476D01*
X55100000Y-62871428D01*
X55109523Y-62861904D01*
X55128571Y-62852380D01*
X55166666Y-62842857D01*
X55214285Y-62842857D01*
X55252380Y-62852380D01*
X55271428Y-62861904D01*
X55280952Y-62871428D01*
X55290476Y-62890476D01*
X55290476Y-62909523D01*
X55280952Y-62928571D01*
X55271428Y-62938095D01*
X55252380Y-62947619D01*
X55214285Y-62957142D01*
X55166666Y-62957142D01*
X55128571Y-62947619D01*
X55109523Y-62938095D01*
X55100000Y-62928571D01*
X55090476Y-62909523D01*
X55109523Y-62766666D02*
X55100000Y-62757142D01*
X55090476Y-62738095D01*
X55090476Y-62690476D01*
X55100000Y-62671428D01*
X55109523Y-62661904D01*
X55128571Y-62652380D01*
X55147619Y-62652380D01*
X55176190Y-62661904D01*
X55290476Y-62776190D01*
X55290476Y-62652380D01*
G04 #@! TO.C,C401*
X56071428Y-63223809D02*
X56080952Y-63233333D01*
X56090476Y-63261904D01*
X56090476Y-63280952D01*
X56080952Y-63309523D01*
X56061904Y-63328571D01*
X56042857Y-63338095D01*
X56004761Y-63347619D01*
X55976190Y-63347619D01*
X55938095Y-63338095D01*
X55919047Y-63328571D01*
X55900000Y-63309523D01*
X55890476Y-63280952D01*
X55890476Y-63261904D01*
X55900000Y-63233333D01*
X55909523Y-63223809D01*
X55957142Y-63052380D02*
X56090476Y-63052380D01*
X55880952Y-63100000D02*
X56023809Y-63147619D01*
X56023809Y-63023809D01*
X55890476Y-62909523D02*
X55890476Y-62890476D01*
X55900000Y-62871428D01*
X55909523Y-62861904D01*
X55928571Y-62852380D01*
X55966666Y-62842857D01*
X56014285Y-62842857D01*
X56052380Y-62852380D01*
X56071428Y-62861904D01*
X56080952Y-62871428D01*
X56090476Y-62890476D01*
X56090476Y-62909523D01*
X56080952Y-62928571D01*
X56071428Y-62938095D01*
X56052380Y-62947619D01*
X56014285Y-62957142D01*
X55966666Y-62957142D01*
X55928571Y-62947619D01*
X55909523Y-62938095D01*
X55900000Y-62928571D01*
X55890476Y-62909523D01*
X56090476Y-62652380D02*
X56090476Y-62766666D01*
X56090476Y-62709523D02*
X55890476Y-62709523D01*
X55919047Y-62728571D01*
X55938095Y-62747619D01*
X55947619Y-62766666D01*
G04 #@! TO.C,C411*
X55776190Y-59821428D02*
X55766666Y-59830952D01*
X55738095Y-59840476D01*
X55719047Y-59840476D01*
X55690476Y-59830952D01*
X55671428Y-59811904D01*
X55661904Y-59792857D01*
X55652380Y-59754761D01*
X55652380Y-59726190D01*
X55661904Y-59688095D01*
X55671428Y-59669047D01*
X55690476Y-59650000D01*
X55719047Y-59640476D01*
X55738095Y-59640476D01*
X55766666Y-59650000D01*
X55776190Y-59659523D01*
X55947619Y-59707142D02*
X55947619Y-59840476D01*
X55900000Y-59630952D02*
X55852380Y-59773809D01*
X55976190Y-59773809D01*
X56157142Y-59840476D02*
X56042857Y-59840476D01*
X56100000Y-59840476D02*
X56100000Y-59640476D01*
X56080952Y-59669047D01*
X56061904Y-59688095D01*
X56042857Y-59697619D01*
X56347619Y-59840476D02*
X56233333Y-59840476D01*
X56290476Y-59840476D02*
X56290476Y-59640476D01*
X56271428Y-59669047D01*
X56252380Y-59688095D01*
X56233333Y-59697619D01*
G04 #@! TO.C,C406*
X55776190Y-59071428D02*
X55766666Y-59080952D01*
X55738095Y-59090476D01*
X55719047Y-59090476D01*
X55690476Y-59080952D01*
X55671428Y-59061904D01*
X55661904Y-59042857D01*
X55652380Y-59004761D01*
X55652380Y-58976190D01*
X55661904Y-58938095D01*
X55671428Y-58919047D01*
X55690476Y-58900000D01*
X55719047Y-58890476D01*
X55738095Y-58890476D01*
X55766666Y-58900000D01*
X55776190Y-58909523D01*
X55947619Y-58957142D02*
X55947619Y-59090476D01*
X55900000Y-58880952D02*
X55852380Y-59023809D01*
X55976190Y-59023809D01*
X56090476Y-58890476D02*
X56109523Y-58890476D01*
X56128571Y-58900000D01*
X56138095Y-58909523D01*
X56147619Y-58928571D01*
X56157142Y-58966666D01*
X56157142Y-59014285D01*
X56147619Y-59052380D01*
X56138095Y-59071428D01*
X56128571Y-59080952D01*
X56109523Y-59090476D01*
X56090476Y-59090476D01*
X56071428Y-59080952D01*
X56061904Y-59071428D01*
X56052380Y-59052380D01*
X56042857Y-59014285D01*
X56042857Y-58966666D01*
X56052380Y-58928571D01*
X56061904Y-58909523D01*
X56071428Y-58900000D01*
X56090476Y-58890476D01*
X56328571Y-58890476D02*
X56290476Y-58890476D01*
X56271428Y-58900000D01*
X56261904Y-58909523D01*
X56242857Y-58938095D01*
X56233333Y-58976190D01*
X56233333Y-59052380D01*
X56242857Y-59071428D01*
X56252380Y-59080952D01*
X56271428Y-59090476D01*
X56309523Y-59090476D01*
X56328571Y-59080952D01*
X56338095Y-59071428D01*
X56347619Y-59052380D01*
X56347619Y-59004761D01*
X56338095Y-58985714D01*
X56328571Y-58976190D01*
X56309523Y-58966666D01*
X56271428Y-58966666D01*
X56252380Y-58976190D01*
X56242857Y-58985714D01*
X56233333Y-59004761D01*
G04 #@! TO.C,R232*
X84590476Y-56823809D02*
X84495238Y-56890476D01*
X84590476Y-56938095D02*
X84390476Y-56938095D01*
X84390476Y-56861904D01*
X84400000Y-56842857D01*
X84409523Y-56833333D01*
X84428571Y-56823809D01*
X84457142Y-56823809D01*
X84476190Y-56833333D01*
X84485714Y-56842857D01*
X84495238Y-56861904D01*
X84495238Y-56938095D01*
X84409523Y-56747619D02*
X84400000Y-56738095D01*
X84390476Y-56719047D01*
X84390476Y-56671428D01*
X84400000Y-56652380D01*
X84409523Y-56642857D01*
X84428571Y-56633333D01*
X84447619Y-56633333D01*
X84476190Y-56642857D01*
X84590476Y-56757142D01*
X84590476Y-56633333D01*
X84390476Y-56566666D02*
X84390476Y-56442857D01*
X84466666Y-56509523D01*
X84466666Y-56480952D01*
X84476190Y-56461904D01*
X84485714Y-56452380D01*
X84504761Y-56442857D01*
X84552380Y-56442857D01*
X84571428Y-56452380D01*
X84580952Y-56461904D01*
X84590476Y-56480952D01*
X84590476Y-56538095D01*
X84580952Y-56557142D01*
X84571428Y-56566666D01*
X84409523Y-56366666D02*
X84400000Y-56357142D01*
X84390476Y-56338095D01*
X84390476Y-56290476D01*
X84400000Y-56271428D01*
X84409523Y-56261904D01*
X84428571Y-56252380D01*
X84447619Y-56252380D01*
X84476190Y-56261904D01*
X84590476Y-56376190D01*
X84590476Y-56252380D01*
G04 #@! TO.C,R233*
X82990476Y-56823809D02*
X82895238Y-56890476D01*
X82990476Y-56938095D02*
X82790476Y-56938095D01*
X82790476Y-56861904D01*
X82800000Y-56842857D01*
X82809523Y-56833333D01*
X82828571Y-56823809D01*
X82857142Y-56823809D01*
X82876190Y-56833333D01*
X82885714Y-56842857D01*
X82895238Y-56861904D01*
X82895238Y-56938095D01*
X82809523Y-56747619D02*
X82800000Y-56738095D01*
X82790476Y-56719047D01*
X82790476Y-56671428D01*
X82800000Y-56652380D01*
X82809523Y-56642857D01*
X82828571Y-56633333D01*
X82847619Y-56633333D01*
X82876190Y-56642857D01*
X82990476Y-56757142D01*
X82990476Y-56633333D01*
X82790476Y-56566666D02*
X82790476Y-56442857D01*
X82866666Y-56509523D01*
X82866666Y-56480952D01*
X82876190Y-56461904D01*
X82885714Y-56452380D01*
X82904761Y-56442857D01*
X82952380Y-56442857D01*
X82971428Y-56452380D01*
X82980952Y-56461904D01*
X82990476Y-56480952D01*
X82990476Y-56538095D01*
X82980952Y-56557142D01*
X82971428Y-56566666D01*
X82790476Y-56376190D02*
X82790476Y-56252380D01*
X82866666Y-56319047D01*
X82866666Y-56290476D01*
X82876190Y-56271428D01*
X82885714Y-56261904D01*
X82904761Y-56252380D01*
X82952380Y-56252380D01*
X82971428Y-56261904D01*
X82980952Y-56271428D01*
X82990476Y-56290476D01*
X82990476Y-56347619D01*
X82980952Y-56366666D01*
X82971428Y-56376190D01*
G04 #@! TO.C,R202*
X69190476Y-56823809D02*
X69095238Y-56890476D01*
X69190476Y-56938095D02*
X68990476Y-56938095D01*
X68990476Y-56861904D01*
X69000000Y-56842857D01*
X69009523Y-56833333D01*
X69028571Y-56823809D01*
X69057142Y-56823809D01*
X69076190Y-56833333D01*
X69085714Y-56842857D01*
X69095238Y-56861904D01*
X69095238Y-56938095D01*
X69009523Y-56747619D02*
X69000000Y-56738095D01*
X68990476Y-56719047D01*
X68990476Y-56671428D01*
X69000000Y-56652380D01*
X69009523Y-56642857D01*
X69028571Y-56633333D01*
X69047619Y-56633333D01*
X69076190Y-56642857D01*
X69190476Y-56757142D01*
X69190476Y-56633333D01*
X68990476Y-56509523D02*
X68990476Y-56490476D01*
X69000000Y-56471428D01*
X69009523Y-56461904D01*
X69028571Y-56452380D01*
X69066666Y-56442857D01*
X69114285Y-56442857D01*
X69152380Y-56452380D01*
X69171428Y-56461904D01*
X69180952Y-56471428D01*
X69190476Y-56490476D01*
X69190476Y-56509523D01*
X69180952Y-56528571D01*
X69171428Y-56538095D01*
X69152380Y-56547619D01*
X69114285Y-56557142D01*
X69066666Y-56557142D01*
X69028571Y-56547619D01*
X69009523Y-56538095D01*
X69000000Y-56528571D01*
X68990476Y-56509523D01*
X69009523Y-56366666D02*
X69000000Y-56357142D01*
X68990476Y-56338095D01*
X68990476Y-56290476D01*
X69000000Y-56271428D01*
X69009523Y-56261904D01*
X69028571Y-56252380D01*
X69047619Y-56252380D01*
X69076190Y-56261904D01*
X69190476Y-56376190D01*
X69190476Y-56252380D01*
G04 #@! TO.C,R203*
X67590476Y-56823809D02*
X67495238Y-56890476D01*
X67590476Y-56938095D02*
X67390476Y-56938095D01*
X67390476Y-56861904D01*
X67400000Y-56842857D01*
X67409523Y-56833333D01*
X67428571Y-56823809D01*
X67457142Y-56823809D01*
X67476190Y-56833333D01*
X67485714Y-56842857D01*
X67495238Y-56861904D01*
X67495238Y-56938095D01*
X67409523Y-56747619D02*
X67400000Y-56738095D01*
X67390476Y-56719047D01*
X67390476Y-56671428D01*
X67400000Y-56652380D01*
X67409523Y-56642857D01*
X67428571Y-56633333D01*
X67447619Y-56633333D01*
X67476190Y-56642857D01*
X67590476Y-56757142D01*
X67590476Y-56633333D01*
X67390476Y-56509523D02*
X67390476Y-56490476D01*
X67400000Y-56471428D01*
X67409523Y-56461904D01*
X67428571Y-56452380D01*
X67466666Y-56442857D01*
X67514285Y-56442857D01*
X67552380Y-56452380D01*
X67571428Y-56461904D01*
X67580952Y-56471428D01*
X67590476Y-56490476D01*
X67590476Y-56509523D01*
X67580952Y-56528571D01*
X67571428Y-56538095D01*
X67552380Y-56547619D01*
X67514285Y-56557142D01*
X67466666Y-56557142D01*
X67428571Y-56547619D01*
X67409523Y-56538095D01*
X67400000Y-56528571D01*
X67390476Y-56509523D01*
X67390476Y-56376190D02*
X67390476Y-56252380D01*
X67466666Y-56319047D01*
X67466666Y-56290476D01*
X67476190Y-56271428D01*
X67485714Y-56261904D01*
X67504761Y-56252380D01*
X67552380Y-56252380D01*
X67571428Y-56261904D01*
X67580952Y-56271428D01*
X67590476Y-56290476D01*
X67590476Y-56347619D01*
X67580952Y-56366666D01*
X67571428Y-56376190D01*
G04 #@! TO.C,R211*
X70790476Y-54973809D02*
X70695238Y-55040476D01*
X70790476Y-55088095D02*
X70590476Y-55088095D01*
X70590476Y-55011904D01*
X70600000Y-54992857D01*
X70609523Y-54983333D01*
X70628571Y-54973809D01*
X70657142Y-54973809D01*
X70676190Y-54983333D01*
X70685714Y-54992857D01*
X70695238Y-55011904D01*
X70695238Y-55088095D01*
X70609523Y-54897619D02*
X70600000Y-54888095D01*
X70590476Y-54869047D01*
X70590476Y-54821428D01*
X70600000Y-54802380D01*
X70609523Y-54792857D01*
X70628571Y-54783333D01*
X70647619Y-54783333D01*
X70676190Y-54792857D01*
X70790476Y-54907142D01*
X70790476Y-54783333D01*
X70790476Y-54592857D02*
X70790476Y-54707142D01*
X70790476Y-54650000D02*
X70590476Y-54650000D01*
X70619047Y-54669047D01*
X70638095Y-54688095D01*
X70647619Y-54707142D01*
X70790476Y-54402380D02*
X70790476Y-54516666D01*
X70790476Y-54459523D02*
X70590476Y-54459523D01*
X70619047Y-54478571D01*
X70638095Y-54497619D01*
X70647619Y-54516666D01*
G04 #@! TO.C,R212*
X69990476Y-56823809D02*
X69895238Y-56890476D01*
X69990476Y-56938095D02*
X69790476Y-56938095D01*
X69790476Y-56861904D01*
X69800000Y-56842857D01*
X69809523Y-56833333D01*
X69828571Y-56823809D01*
X69857142Y-56823809D01*
X69876190Y-56833333D01*
X69885714Y-56842857D01*
X69895238Y-56861904D01*
X69895238Y-56938095D01*
X69809523Y-56747619D02*
X69800000Y-56738095D01*
X69790476Y-56719047D01*
X69790476Y-56671428D01*
X69800000Y-56652380D01*
X69809523Y-56642857D01*
X69828571Y-56633333D01*
X69847619Y-56633333D01*
X69876190Y-56642857D01*
X69990476Y-56757142D01*
X69990476Y-56633333D01*
X69990476Y-56442857D02*
X69990476Y-56557142D01*
X69990476Y-56500000D02*
X69790476Y-56500000D01*
X69819047Y-56519047D01*
X69838095Y-56538095D01*
X69847619Y-56557142D01*
X69809523Y-56366666D02*
X69800000Y-56357142D01*
X69790476Y-56338095D01*
X69790476Y-56290476D01*
X69800000Y-56271428D01*
X69809523Y-56261904D01*
X69828571Y-56252380D01*
X69847619Y-56252380D01*
X69876190Y-56261904D01*
X69990476Y-56376190D01*
X69990476Y-56252380D01*
G04 #@! TO.C,R213*
X70790476Y-56823809D02*
X70695238Y-56890476D01*
X70790476Y-56938095D02*
X70590476Y-56938095D01*
X70590476Y-56861904D01*
X70600000Y-56842857D01*
X70609523Y-56833333D01*
X70628571Y-56823809D01*
X70657142Y-56823809D01*
X70676190Y-56833333D01*
X70685714Y-56842857D01*
X70695238Y-56861904D01*
X70695238Y-56938095D01*
X70609523Y-56747619D02*
X70600000Y-56738095D01*
X70590476Y-56719047D01*
X70590476Y-56671428D01*
X70600000Y-56652380D01*
X70609523Y-56642857D01*
X70628571Y-56633333D01*
X70647619Y-56633333D01*
X70676190Y-56642857D01*
X70790476Y-56757142D01*
X70790476Y-56633333D01*
X70790476Y-56442857D02*
X70790476Y-56557142D01*
X70790476Y-56500000D02*
X70590476Y-56500000D01*
X70619047Y-56519047D01*
X70638095Y-56538095D01*
X70647619Y-56557142D01*
X70590476Y-56376190D02*
X70590476Y-56252380D01*
X70666666Y-56319047D01*
X70666666Y-56290476D01*
X70676190Y-56271428D01*
X70685714Y-56261904D01*
X70704761Y-56252380D01*
X70752380Y-56252380D01*
X70771428Y-56261904D01*
X70780952Y-56271428D01*
X70790476Y-56290476D01*
X70790476Y-56347619D01*
X70780952Y-56366666D01*
X70771428Y-56376190D01*
G04 #@! TO.C,R100*
X55026190Y-67590476D02*
X54959523Y-67495238D01*
X54911904Y-67590476D02*
X54911904Y-67390476D01*
X54988095Y-67390476D01*
X55007142Y-67400000D01*
X55016666Y-67409523D01*
X55026190Y-67428571D01*
X55026190Y-67457142D01*
X55016666Y-67476190D01*
X55007142Y-67485714D01*
X54988095Y-67495238D01*
X54911904Y-67495238D01*
X55216666Y-67590476D02*
X55102380Y-67590476D01*
X55159523Y-67590476D02*
X55159523Y-67390476D01*
X55140476Y-67419047D01*
X55121428Y-67438095D01*
X55102380Y-67447619D01*
X55340476Y-67390476D02*
X55359523Y-67390476D01*
X55378571Y-67400000D01*
X55388095Y-67409523D01*
X55397619Y-67428571D01*
X55407142Y-67466666D01*
X55407142Y-67514285D01*
X55397619Y-67552380D01*
X55388095Y-67571428D01*
X55378571Y-67580952D01*
X55359523Y-67590476D01*
X55340476Y-67590476D01*
X55321428Y-67580952D01*
X55311904Y-67571428D01*
X55302380Y-67552380D01*
X55292857Y-67514285D01*
X55292857Y-67466666D01*
X55302380Y-67428571D01*
X55311904Y-67409523D01*
X55321428Y-67400000D01*
X55340476Y-67390476D01*
X55530952Y-67390476D02*
X55550000Y-67390476D01*
X55569047Y-67400000D01*
X55578571Y-67409523D01*
X55588095Y-67428571D01*
X55597619Y-67466666D01*
X55597619Y-67514285D01*
X55588095Y-67552380D01*
X55578571Y-67571428D01*
X55569047Y-67580952D01*
X55550000Y-67590476D01*
X55530952Y-67590476D01*
X55511904Y-67580952D01*
X55502380Y-67571428D01*
X55492857Y-67552380D01*
X55483333Y-67514285D01*
X55483333Y-67466666D01*
X55492857Y-67428571D01*
X55502380Y-67409523D01*
X55511904Y-67400000D01*
X55530952Y-67390476D01*
G04 #@! TO.C,R811*
X68876190Y-74790476D02*
X68809523Y-74695238D01*
X68761904Y-74790476D02*
X68761904Y-74590476D01*
X68838095Y-74590476D01*
X68857142Y-74600000D01*
X68866666Y-74609523D01*
X68876190Y-74628571D01*
X68876190Y-74657142D01*
X68866666Y-74676190D01*
X68857142Y-74685714D01*
X68838095Y-74695238D01*
X68761904Y-74695238D01*
X68990476Y-74676190D02*
X68971428Y-74666666D01*
X68961904Y-74657142D01*
X68952380Y-74638095D01*
X68952380Y-74628571D01*
X68961904Y-74609523D01*
X68971428Y-74600000D01*
X68990476Y-74590476D01*
X69028571Y-74590476D01*
X69047619Y-74600000D01*
X69057142Y-74609523D01*
X69066666Y-74628571D01*
X69066666Y-74638095D01*
X69057142Y-74657142D01*
X69047619Y-74666666D01*
X69028571Y-74676190D01*
X68990476Y-74676190D01*
X68971428Y-74685714D01*
X68961904Y-74695238D01*
X68952380Y-74714285D01*
X68952380Y-74752380D01*
X68961904Y-74771428D01*
X68971428Y-74780952D01*
X68990476Y-74790476D01*
X69028571Y-74790476D01*
X69047619Y-74780952D01*
X69057142Y-74771428D01*
X69066666Y-74752380D01*
X69066666Y-74714285D01*
X69057142Y-74695238D01*
X69047619Y-74685714D01*
X69028571Y-74676190D01*
X69257142Y-74790476D02*
X69142857Y-74790476D01*
X69200000Y-74790476D02*
X69200000Y-74590476D01*
X69180952Y-74619047D01*
X69161904Y-74638095D01*
X69142857Y-74647619D01*
X69447619Y-74790476D02*
X69333333Y-74790476D01*
X69390476Y-74790476D02*
X69390476Y-74590476D01*
X69371428Y-74619047D01*
X69352380Y-74638095D01*
X69333333Y-74647619D01*
G04 #@! TO.C,R810*
X68876190Y-75590476D02*
X68809523Y-75495238D01*
X68761904Y-75590476D02*
X68761904Y-75390476D01*
X68838095Y-75390476D01*
X68857142Y-75400000D01*
X68866666Y-75409523D01*
X68876190Y-75428571D01*
X68876190Y-75457142D01*
X68866666Y-75476190D01*
X68857142Y-75485714D01*
X68838095Y-75495238D01*
X68761904Y-75495238D01*
X68990476Y-75476190D02*
X68971428Y-75466666D01*
X68961904Y-75457142D01*
X68952380Y-75438095D01*
X68952380Y-75428571D01*
X68961904Y-75409523D01*
X68971428Y-75400000D01*
X68990476Y-75390476D01*
X69028571Y-75390476D01*
X69047619Y-75400000D01*
X69057142Y-75409523D01*
X69066666Y-75428571D01*
X69066666Y-75438095D01*
X69057142Y-75457142D01*
X69047619Y-75466666D01*
X69028571Y-75476190D01*
X68990476Y-75476190D01*
X68971428Y-75485714D01*
X68961904Y-75495238D01*
X68952380Y-75514285D01*
X68952380Y-75552380D01*
X68961904Y-75571428D01*
X68971428Y-75580952D01*
X68990476Y-75590476D01*
X69028571Y-75590476D01*
X69047619Y-75580952D01*
X69057142Y-75571428D01*
X69066666Y-75552380D01*
X69066666Y-75514285D01*
X69057142Y-75495238D01*
X69047619Y-75485714D01*
X69028571Y-75476190D01*
X69257142Y-75590476D02*
X69142857Y-75590476D01*
X69200000Y-75590476D02*
X69200000Y-75390476D01*
X69180952Y-75419047D01*
X69161904Y-75438095D01*
X69142857Y-75447619D01*
X69380952Y-75390476D02*
X69400000Y-75390476D01*
X69419047Y-75400000D01*
X69428571Y-75409523D01*
X69438095Y-75428571D01*
X69447619Y-75466666D01*
X69447619Y-75514285D01*
X69438095Y-75552380D01*
X69428571Y-75571428D01*
X69419047Y-75580952D01*
X69400000Y-75590476D01*
X69380952Y-75590476D01*
X69361904Y-75580952D01*
X69352380Y-75571428D01*
X69342857Y-75552380D01*
X69333333Y-75514285D01*
X69333333Y-75466666D01*
X69342857Y-75428571D01*
X69352380Y-75409523D01*
X69361904Y-75400000D01*
X69380952Y-75390476D01*
G04 #@! TO.C,R800*
X45976190Y-56990476D02*
X45909523Y-56895238D01*
X45861904Y-56990476D02*
X45861904Y-56790476D01*
X45938095Y-56790476D01*
X45957142Y-56800000D01*
X45966666Y-56809523D01*
X45976190Y-56828571D01*
X45976190Y-56857142D01*
X45966666Y-56876190D01*
X45957142Y-56885714D01*
X45938095Y-56895238D01*
X45861904Y-56895238D01*
X46090476Y-56876190D02*
X46071428Y-56866666D01*
X46061904Y-56857142D01*
X46052380Y-56838095D01*
X46052380Y-56828571D01*
X46061904Y-56809523D01*
X46071428Y-56800000D01*
X46090476Y-56790476D01*
X46128571Y-56790476D01*
X46147619Y-56800000D01*
X46157142Y-56809523D01*
X46166666Y-56828571D01*
X46166666Y-56838095D01*
X46157142Y-56857142D01*
X46147619Y-56866666D01*
X46128571Y-56876190D01*
X46090476Y-56876190D01*
X46071428Y-56885714D01*
X46061904Y-56895238D01*
X46052380Y-56914285D01*
X46052380Y-56952380D01*
X46061904Y-56971428D01*
X46071428Y-56980952D01*
X46090476Y-56990476D01*
X46128571Y-56990476D01*
X46147619Y-56980952D01*
X46157142Y-56971428D01*
X46166666Y-56952380D01*
X46166666Y-56914285D01*
X46157142Y-56895238D01*
X46147619Y-56885714D01*
X46128571Y-56876190D01*
X46290476Y-56790476D02*
X46309523Y-56790476D01*
X46328571Y-56800000D01*
X46338095Y-56809523D01*
X46347619Y-56828571D01*
X46357142Y-56866666D01*
X46357142Y-56914285D01*
X46347619Y-56952380D01*
X46338095Y-56971428D01*
X46328571Y-56980952D01*
X46309523Y-56990476D01*
X46290476Y-56990476D01*
X46271428Y-56980952D01*
X46261904Y-56971428D01*
X46252380Y-56952380D01*
X46242857Y-56914285D01*
X46242857Y-56866666D01*
X46252380Y-56828571D01*
X46261904Y-56809523D01*
X46271428Y-56800000D01*
X46290476Y-56790476D01*
X46480952Y-56790476D02*
X46500000Y-56790476D01*
X46519047Y-56800000D01*
X46528571Y-56809523D01*
X46538095Y-56828571D01*
X46547619Y-56866666D01*
X46547619Y-56914285D01*
X46538095Y-56952380D01*
X46528571Y-56971428D01*
X46519047Y-56980952D01*
X46500000Y-56990476D01*
X46480952Y-56990476D01*
X46461904Y-56980952D01*
X46452380Y-56971428D01*
X46442857Y-56952380D01*
X46433333Y-56914285D01*
X46433333Y-56866666D01*
X46442857Y-56828571D01*
X46452380Y-56809523D01*
X46461904Y-56800000D01*
X46480952Y-56790476D01*
G04 #@! TO.C,R801*
X45576190Y-57790476D02*
X45509523Y-57695238D01*
X45461904Y-57790476D02*
X45461904Y-57590476D01*
X45538095Y-57590476D01*
X45557142Y-57600000D01*
X45566666Y-57609523D01*
X45576190Y-57628571D01*
X45576190Y-57657142D01*
X45566666Y-57676190D01*
X45557142Y-57685714D01*
X45538095Y-57695238D01*
X45461904Y-57695238D01*
X45690476Y-57676190D02*
X45671428Y-57666666D01*
X45661904Y-57657142D01*
X45652380Y-57638095D01*
X45652380Y-57628571D01*
X45661904Y-57609523D01*
X45671428Y-57600000D01*
X45690476Y-57590476D01*
X45728571Y-57590476D01*
X45747619Y-57600000D01*
X45757142Y-57609523D01*
X45766666Y-57628571D01*
X45766666Y-57638095D01*
X45757142Y-57657142D01*
X45747619Y-57666666D01*
X45728571Y-57676190D01*
X45690476Y-57676190D01*
X45671428Y-57685714D01*
X45661904Y-57695238D01*
X45652380Y-57714285D01*
X45652380Y-57752380D01*
X45661904Y-57771428D01*
X45671428Y-57780952D01*
X45690476Y-57790476D01*
X45728571Y-57790476D01*
X45747619Y-57780952D01*
X45757142Y-57771428D01*
X45766666Y-57752380D01*
X45766666Y-57714285D01*
X45757142Y-57695238D01*
X45747619Y-57685714D01*
X45728571Y-57676190D01*
X45890476Y-57590476D02*
X45909523Y-57590476D01*
X45928571Y-57600000D01*
X45938095Y-57609523D01*
X45947619Y-57628571D01*
X45957142Y-57666666D01*
X45957142Y-57714285D01*
X45947619Y-57752380D01*
X45938095Y-57771428D01*
X45928571Y-57780952D01*
X45909523Y-57790476D01*
X45890476Y-57790476D01*
X45871428Y-57780952D01*
X45861904Y-57771428D01*
X45852380Y-57752380D01*
X45842857Y-57714285D01*
X45842857Y-57666666D01*
X45852380Y-57628571D01*
X45861904Y-57609523D01*
X45871428Y-57600000D01*
X45890476Y-57590476D01*
X46147619Y-57790476D02*
X46033333Y-57790476D01*
X46090476Y-57790476D02*
X46090476Y-57590476D01*
X46071428Y-57619047D01*
X46052380Y-57638095D01*
X46033333Y-57647619D01*
G04 #@! TO.C,R222*
X61290476Y-73823809D02*
X61195238Y-73890476D01*
X61290476Y-73938095D02*
X61090476Y-73938095D01*
X61090476Y-73861904D01*
X61100000Y-73842857D01*
X61109523Y-73833333D01*
X61128571Y-73823809D01*
X61157142Y-73823809D01*
X61176190Y-73833333D01*
X61185714Y-73842857D01*
X61195238Y-73861904D01*
X61195238Y-73938095D01*
X61109523Y-73747619D02*
X61100000Y-73738095D01*
X61090476Y-73719047D01*
X61090476Y-73671428D01*
X61100000Y-73652380D01*
X61109523Y-73642857D01*
X61128571Y-73633333D01*
X61147619Y-73633333D01*
X61176190Y-73642857D01*
X61290476Y-73757142D01*
X61290476Y-73633333D01*
X61109523Y-73557142D02*
X61100000Y-73547619D01*
X61090476Y-73528571D01*
X61090476Y-73480952D01*
X61100000Y-73461904D01*
X61109523Y-73452380D01*
X61128571Y-73442857D01*
X61147619Y-73442857D01*
X61176190Y-73452380D01*
X61290476Y-73566666D01*
X61290476Y-73442857D01*
X61109523Y-73366666D02*
X61100000Y-73357142D01*
X61090476Y-73338095D01*
X61090476Y-73290476D01*
X61100000Y-73271428D01*
X61109523Y-73261904D01*
X61128571Y-73252380D01*
X61147619Y-73252380D01*
X61176190Y-73261904D01*
X61290476Y-73376190D01*
X61290476Y-73252380D01*
G04 #@! TO.C,R223*
X62890476Y-73823809D02*
X62795238Y-73890476D01*
X62890476Y-73938095D02*
X62690476Y-73938095D01*
X62690476Y-73861904D01*
X62700000Y-73842857D01*
X62709523Y-73833333D01*
X62728571Y-73823809D01*
X62757142Y-73823809D01*
X62776190Y-73833333D01*
X62785714Y-73842857D01*
X62795238Y-73861904D01*
X62795238Y-73938095D01*
X62709523Y-73747619D02*
X62700000Y-73738095D01*
X62690476Y-73719047D01*
X62690476Y-73671428D01*
X62700000Y-73652380D01*
X62709523Y-73642857D01*
X62728571Y-73633333D01*
X62747619Y-73633333D01*
X62776190Y-73642857D01*
X62890476Y-73757142D01*
X62890476Y-73633333D01*
X62709523Y-73557142D02*
X62700000Y-73547619D01*
X62690476Y-73528571D01*
X62690476Y-73480952D01*
X62700000Y-73461904D01*
X62709523Y-73452380D01*
X62728571Y-73442857D01*
X62747619Y-73442857D01*
X62776190Y-73452380D01*
X62890476Y-73566666D01*
X62890476Y-73442857D01*
X62690476Y-73376190D02*
X62690476Y-73252380D01*
X62766666Y-73319047D01*
X62766666Y-73290476D01*
X62776190Y-73271428D01*
X62785714Y-73261904D01*
X62804761Y-73252380D01*
X62852380Y-73252380D01*
X62871428Y-73261904D01*
X62880952Y-73271428D01*
X62890476Y-73290476D01*
X62890476Y-73347619D01*
X62880952Y-73366666D01*
X62871428Y-73376190D01*
G04 #@! TO.C,L540*
D11*
X51940476Y-56826190D02*
X51702380Y-56826190D01*
X51702380Y-56326190D01*
X52345238Y-56326190D02*
X52107142Y-56326190D01*
X52083333Y-56564285D01*
X52107142Y-56540476D01*
X52154761Y-56516666D01*
X52273809Y-56516666D01*
X52321428Y-56540476D01*
X52345238Y-56564285D01*
X52369047Y-56611904D01*
X52369047Y-56730952D01*
X52345238Y-56778571D01*
X52321428Y-56802380D01*
X52273809Y-56826190D01*
X52154761Y-56826190D01*
X52107142Y-56802380D01*
X52083333Y-56778571D01*
X52797619Y-56492857D02*
X52797619Y-56826190D01*
X52678571Y-56302380D02*
X52559523Y-56659523D01*
X52869047Y-56659523D01*
X53154761Y-56326190D02*
X53202380Y-56326190D01*
X53250000Y-56350000D01*
X53273809Y-56373809D01*
X53297619Y-56421428D01*
X53321428Y-56516666D01*
X53321428Y-56635714D01*
X53297619Y-56730952D01*
X53273809Y-56778571D01*
X53250000Y-56802380D01*
X53202380Y-56826190D01*
X53154761Y-56826190D01*
X53107142Y-56802380D01*
X53083333Y-56778571D01*
X53059523Y-56730952D01*
X53035714Y-56635714D01*
X53035714Y-56516666D01*
X53059523Y-56421428D01*
X53083333Y-56373809D01*
X53107142Y-56350000D01*
X53154761Y-56326190D01*
G04 #@! TO.C,C405*
D12*
X55776190Y-58321428D02*
X55766666Y-58330952D01*
X55738095Y-58340476D01*
X55719047Y-58340476D01*
X55690476Y-58330952D01*
X55671428Y-58311904D01*
X55661904Y-58292857D01*
X55652380Y-58254761D01*
X55652380Y-58226190D01*
X55661904Y-58188095D01*
X55671428Y-58169047D01*
X55690476Y-58150000D01*
X55719047Y-58140476D01*
X55738095Y-58140476D01*
X55766666Y-58150000D01*
X55776190Y-58159523D01*
X55947619Y-58207142D02*
X55947619Y-58340476D01*
X55900000Y-58130952D02*
X55852380Y-58273809D01*
X55976190Y-58273809D01*
X56090476Y-58140476D02*
X56109523Y-58140476D01*
X56128571Y-58150000D01*
X56138095Y-58159523D01*
X56147619Y-58178571D01*
X56157142Y-58216666D01*
X56157142Y-58264285D01*
X56147619Y-58302380D01*
X56138095Y-58321428D01*
X56128571Y-58330952D01*
X56109523Y-58340476D01*
X56090476Y-58340476D01*
X56071428Y-58330952D01*
X56061904Y-58321428D01*
X56052380Y-58302380D01*
X56042857Y-58264285D01*
X56042857Y-58216666D01*
X56052380Y-58178571D01*
X56061904Y-58159523D01*
X56071428Y-58150000D01*
X56090476Y-58140476D01*
X56338095Y-58140476D02*
X56242857Y-58140476D01*
X56233333Y-58235714D01*
X56242857Y-58226190D01*
X56261904Y-58216666D01*
X56309523Y-58216666D01*
X56328571Y-58226190D01*
X56338095Y-58235714D01*
X56347619Y-58254761D01*
X56347619Y-58302380D01*
X56338095Y-58321428D01*
X56328571Y-58330952D01*
X56309523Y-58340476D01*
X56261904Y-58340476D01*
X56242857Y-58330952D01*
X56233333Y-58321428D01*
G04 #@! TO.C,C530*
X49171428Y-56823809D02*
X49180952Y-56833333D01*
X49190476Y-56861904D01*
X49190476Y-56880952D01*
X49180952Y-56909523D01*
X49161904Y-56928571D01*
X49142857Y-56938095D01*
X49104761Y-56947619D01*
X49076190Y-56947619D01*
X49038095Y-56938095D01*
X49019047Y-56928571D01*
X49000000Y-56909523D01*
X48990476Y-56880952D01*
X48990476Y-56861904D01*
X49000000Y-56833333D01*
X49009523Y-56823809D01*
X48990476Y-56642857D02*
X48990476Y-56738095D01*
X49085714Y-56747619D01*
X49076190Y-56738095D01*
X49066666Y-56719047D01*
X49066666Y-56671428D01*
X49076190Y-56652380D01*
X49085714Y-56642857D01*
X49104761Y-56633333D01*
X49152380Y-56633333D01*
X49171428Y-56642857D01*
X49180952Y-56652380D01*
X49190476Y-56671428D01*
X49190476Y-56719047D01*
X49180952Y-56738095D01*
X49171428Y-56747619D01*
X48990476Y-56566666D02*
X48990476Y-56442857D01*
X49066666Y-56509523D01*
X49066666Y-56480952D01*
X49076190Y-56461904D01*
X49085714Y-56452380D01*
X49104761Y-56442857D01*
X49152380Y-56442857D01*
X49171428Y-56452380D01*
X49180952Y-56461904D01*
X49190476Y-56480952D01*
X49190476Y-56538095D01*
X49180952Y-56557142D01*
X49171428Y-56566666D01*
X48990476Y-56319047D02*
X48990476Y-56300000D01*
X49000000Y-56280952D01*
X49009523Y-56271428D01*
X49028571Y-56261904D01*
X49066666Y-56252380D01*
X49114285Y-56252380D01*
X49152380Y-56261904D01*
X49171428Y-56271428D01*
X49180952Y-56280952D01*
X49190476Y-56300000D01*
X49190476Y-56319047D01*
X49180952Y-56338095D01*
X49171428Y-56347619D01*
X49152380Y-56357142D01*
X49114285Y-56366666D01*
X49066666Y-56366666D01*
X49028571Y-56357142D01*
X49009523Y-56347619D01*
X49000000Y-56338095D01*
X48990476Y-56319047D01*
G04 #@! TO.C,R820*
X60490476Y-73823809D02*
X60395238Y-73890476D01*
X60490476Y-73938095D02*
X60290476Y-73938095D01*
X60290476Y-73861904D01*
X60300000Y-73842857D01*
X60309523Y-73833333D01*
X60328571Y-73823809D01*
X60357142Y-73823809D01*
X60376190Y-73833333D01*
X60385714Y-73842857D01*
X60395238Y-73861904D01*
X60395238Y-73938095D01*
X60376190Y-73709523D02*
X60366666Y-73728571D01*
X60357142Y-73738095D01*
X60338095Y-73747619D01*
X60328571Y-73747619D01*
X60309523Y-73738095D01*
X60300000Y-73728571D01*
X60290476Y-73709523D01*
X60290476Y-73671428D01*
X60300000Y-73652380D01*
X60309523Y-73642857D01*
X60328571Y-73633333D01*
X60338095Y-73633333D01*
X60357142Y-73642857D01*
X60366666Y-73652380D01*
X60376190Y-73671428D01*
X60376190Y-73709523D01*
X60385714Y-73728571D01*
X60395238Y-73738095D01*
X60414285Y-73747619D01*
X60452380Y-73747619D01*
X60471428Y-73738095D01*
X60480952Y-73728571D01*
X60490476Y-73709523D01*
X60490476Y-73671428D01*
X60480952Y-73652380D01*
X60471428Y-73642857D01*
X60452380Y-73633333D01*
X60414285Y-73633333D01*
X60395238Y-73642857D01*
X60385714Y-73652380D01*
X60376190Y-73671428D01*
X60309523Y-73557142D02*
X60300000Y-73547619D01*
X60290476Y-73528571D01*
X60290476Y-73480952D01*
X60300000Y-73461904D01*
X60309523Y-73452380D01*
X60328571Y-73442857D01*
X60347619Y-73442857D01*
X60376190Y-73452380D01*
X60490476Y-73566666D01*
X60490476Y-73442857D01*
X60290476Y-73319047D02*
X60290476Y-73300000D01*
X60300000Y-73280952D01*
X60309523Y-73271428D01*
X60328571Y-73261904D01*
X60366666Y-73252380D01*
X60414285Y-73252380D01*
X60452380Y-73261904D01*
X60471428Y-73271428D01*
X60480952Y-73280952D01*
X60490476Y-73300000D01*
X60490476Y-73319047D01*
X60480952Y-73338095D01*
X60471428Y-73347619D01*
X60452380Y-73357142D01*
X60414285Y-73366666D01*
X60366666Y-73366666D01*
X60328571Y-73357142D01*
X60309523Y-73347619D01*
X60300000Y-73338095D01*
X60290476Y-73319047D01*
G04 #@! TO.C,R821*
X63690476Y-73823809D02*
X63595238Y-73890476D01*
X63690476Y-73938095D02*
X63490476Y-73938095D01*
X63490476Y-73861904D01*
X63500000Y-73842857D01*
X63509523Y-73833333D01*
X63528571Y-73823809D01*
X63557142Y-73823809D01*
X63576190Y-73833333D01*
X63585714Y-73842857D01*
X63595238Y-73861904D01*
X63595238Y-73938095D01*
X63576190Y-73709523D02*
X63566666Y-73728571D01*
X63557142Y-73738095D01*
X63538095Y-73747619D01*
X63528571Y-73747619D01*
X63509523Y-73738095D01*
X63500000Y-73728571D01*
X63490476Y-73709523D01*
X63490476Y-73671428D01*
X63500000Y-73652380D01*
X63509523Y-73642857D01*
X63528571Y-73633333D01*
X63538095Y-73633333D01*
X63557142Y-73642857D01*
X63566666Y-73652380D01*
X63576190Y-73671428D01*
X63576190Y-73709523D01*
X63585714Y-73728571D01*
X63595238Y-73738095D01*
X63614285Y-73747619D01*
X63652380Y-73747619D01*
X63671428Y-73738095D01*
X63680952Y-73728571D01*
X63690476Y-73709523D01*
X63690476Y-73671428D01*
X63680952Y-73652380D01*
X63671428Y-73642857D01*
X63652380Y-73633333D01*
X63614285Y-73633333D01*
X63595238Y-73642857D01*
X63585714Y-73652380D01*
X63576190Y-73671428D01*
X63509523Y-73557142D02*
X63500000Y-73547619D01*
X63490476Y-73528571D01*
X63490476Y-73480952D01*
X63500000Y-73461904D01*
X63509523Y-73452380D01*
X63528571Y-73442857D01*
X63547619Y-73442857D01*
X63576190Y-73452380D01*
X63690476Y-73566666D01*
X63690476Y-73442857D01*
X63690476Y-73252380D02*
X63690476Y-73366666D01*
X63690476Y-73309523D02*
X63490476Y-73309523D01*
X63519047Y-73328571D01*
X63538095Y-73347619D01*
X63547619Y-73366666D01*
G04 #@! TO.C,R840*
X55776190Y-54340476D02*
X55709523Y-54245238D01*
X55661904Y-54340476D02*
X55661904Y-54140476D01*
X55738095Y-54140476D01*
X55757142Y-54150000D01*
X55766666Y-54159523D01*
X55776190Y-54178571D01*
X55776190Y-54207142D01*
X55766666Y-54226190D01*
X55757142Y-54235714D01*
X55738095Y-54245238D01*
X55661904Y-54245238D01*
X55890476Y-54226190D02*
X55871428Y-54216666D01*
X55861904Y-54207142D01*
X55852380Y-54188095D01*
X55852380Y-54178571D01*
X55861904Y-54159523D01*
X55871428Y-54150000D01*
X55890476Y-54140476D01*
X55928571Y-54140476D01*
X55947619Y-54150000D01*
X55957142Y-54159523D01*
X55966666Y-54178571D01*
X55966666Y-54188095D01*
X55957142Y-54207142D01*
X55947619Y-54216666D01*
X55928571Y-54226190D01*
X55890476Y-54226190D01*
X55871428Y-54235714D01*
X55861904Y-54245238D01*
X55852380Y-54264285D01*
X55852380Y-54302380D01*
X55861904Y-54321428D01*
X55871428Y-54330952D01*
X55890476Y-54340476D01*
X55928571Y-54340476D01*
X55947619Y-54330952D01*
X55957142Y-54321428D01*
X55966666Y-54302380D01*
X55966666Y-54264285D01*
X55957142Y-54245238D01*
X55947619Y-54235714D01*
X55928571Y-54226190D01*
X56138095Y-54207142D02*
X56138095Y-54340476D01*
X56090476Y-54130952D02*
X56042857Y-54273809D01*
X56166666Y-54273809D01*
X56280952Y-54140476D02*
X56300000Y-54140476D01*
X56319047Y-54150000D01*
X56328571Y-54159523D01*
X56338095Y-54178571D01*
X56347619Y-54216666D01*
X56347619Y-54264285D01*
X56338095Y-54302380D01*
X56328571Y-54321428D01*
X56319047Y-54330952D01*
X56300000Y-54340476D01*
X56280952Y-54340476D01*
X56261904Y-54330952D01*
X56252380Y-54321428D01*
X56242857Y-54302380D01*
X56233333Y-54264285D01*
X56233333Y-54216666D01*
X56242857Y-54178571D01*
X56252380Y-54159523D01*
X56261904Y-54150000D01*
X56280952Y-54140476D01*
G04 #@! TO.C,R841*
X55776190Y-55340476D02*
X55709523Y-55245238D01*
X55661904Y-55340476D02*
X55661904Y-55140476D01*
X55738095Y-55140476D01*
X55757142Y-55150000D01*
X55766666Y-55159523D01*
X55776190Y-55178571D01*
X55776190Y-55207142D01*
X55766666Y-55226190D01*
X55757142Y-55235714D01*
X55738095Y-55245238D01*
X55661904Y-55245238D01*
X55890476Y-55226190D02*
X55871428Y-55216666D01*
X55861904Y-55207142D01*
X55852380Y-55188095D01*
X55852380Y-55178571D01*
X55861904Y-55159523D01*
X55871428Y-55150000D01*
X55890476Y-55140476D01*
X55928571Y-55140476D01*
X55947619Y-55150000D01*
X55957142Y-55159523D01*
X55966666Y-55178571D01*
X55966666Y-55188095D01*
X55957142Y-55207142D01*
X55947619Y-55216666D01*
X55928571Y-55226190D01*
X55890476Y-55226190D01*
X55871428Y-55235714D01*
X55861904Y-55245238D01*
X55852380Y-55264285D01*
X55852380Y-55302380D01*
X55861904Y-55321428D01*
X55871428Y-55330952D01*
X55890476Y-55340476D01*
X55928571Y-55340476D01*
X55947619Y-55330952D01*
X55957142Y-55321428D01*
X55966666Y-55302380D01*
X55966666Y-55264285D01*
X55957142Y-55245238D01*
X55947619Y-55235714D01*
X55928571Y-55226190D01*
X56138095Y-55207142D02*
X56138095Y-55340476D01*
X56090476Y-55130952D02*
X56042857Y-55273809D01*
X56166666Y-55273809D01*
X56347619Y-55340476D02*
X56233333Y-55340476D01*
X56290476Y-55340476D02*
X56290476Y-55140476D01*
X56271428Y-55169047D01*
X56252380Y-55188095D01*
X56233333Y-55197619D01*
G04 #@! TD*
M02*
