G04 #@! TF.GenerationSoftware,KiCad,Pcbnew,5.0.2-bee76a0~70~ubuntu18.04.1*
G04 #@! TF.CreationDate,2019-05-20T11:18:47+08:00*
G04 #@! TF.ProjectId,require,72657175-6972-4652-9e6b-696361645f70,rev?*
G04 #@! TF.SameCoordinates,Original*
G04 #@! TF.FileFunction,Copper,L3,Inr*
G04 #@! TF.FilePolarity,Positive*
%FSLAX46Y46*%
G04 Gerber Fmt 4.6, Leading zero omitted, Abs format (unit mm)*
G04 Created by KiCad (PCBNEW 5.0.2-bee76a0~70~ubuntu18.04.1) date 2019年05月20日 星期一 11时18分47秒*
%MOMM*%
%LPD*%
G01*
G04 APERTURE LIST*
G04 #@! TA.AperFunction,ViaPad*
%ADD10O,1.587500X1.587500*%
G04 #@! TD*
G04 #@! TA.AperFunction,ViaPad*
%ADD11O,1.400000X2.100000*%
G04 #@! TD*
G04 #@! TA.AperFunction,ViaPad*
%ADD12C,0.400000*%
G04 #@! TD*
G04 #@! TA.AperFunction,ViaPad*
%ADD13C,0.500000*%
G04 #@! TD*
G04 #@! TA.AperFunction,Conductor*
%ADD14C,0.100000*%
G04 #@! TD*
G04 #@! TA.AperFunction,Conductor*
%ADD15C,0.150000*%
G04 #@! TD*
G04 #@! TA.AperFunction,Conductor*
%ADD16C,1.000000*%
G04 #@! TD*
G04 #@! TA.AperFunction,Conductor*
%ADD17C,0.500000*%
G04 #@! TD*
G04 APERTURE END LIST*
D10*
G04 #@! TO.N,/rk3308-io/D2*
G04 #@! TO.C,RP2*
X53610000Y-52300000D03*
G04 #@! TD*
G04 #@! TO.N,/rk3308-io/A0*
G04 #@! TO.C,LP3*
X56150000Y-77700000D03*
G04 #@! TD*
G04 #@! TO.N,/rk3308-io/A1*
G04 #@! TO.C,LP31*
X56150000Y-75160000D03*
G04 #@! TD*
G04 #@! TO.N,/rk3308-io/A2*
G04 #@! TO.C,LP4*
X58690000Y-77700000D03*
G04 #@! TD*
G04 #@! TO.N,/rk3308-io/A3*
G04 #@! TO.C,LP41*
X58690000Y-75160000D03*
G04 #@! TD*
G04 #@! TO.N,/USB_HOST_D2_N*
G04 #@! TO.C,LP9*
X71390000Y-77700000D03*
G04 #@! TD*
G04 #@! TO.N,/USB_HOST_D2_P*
G04 #@! TO.C,LP10*
X73930000Y-77700000D03*
G04 #@! TD*
G04 #@! TO.N,+5V*
G04 #@! TO.C,LP8*
X68850000Y-77700000D03*
G04 #@! TD*
G04 #@! TO.N,GND*
G04 #@! TO.C,LP7*
X66310000Y-77700000D03*
G04 #@! TD*
G04 #@! TO.N,+3V3*
G04 #@! TO.C,LP1*
X40910000Y-77700000D03*
G04 #@! TD*
G04 #@! TO.N,/rk3308-io/D11*
G04 #@! TO.C,RP11*
X76470000Y-52300000D03*
G04 #@! TD*
G04 #@! TO.N,/rk3308-io/D12*
G04 #@! TO.C,RP12*
X79010000Y-52300000D03*
G04 #@! TD*
G04 #@! TO.N,/rk3308-io/D13*
G04 #@! TO.C,RP13*
X81550000Y-52300000D03*
G04 #@! TD*
G04 #@! TO.N,Net-(D820-Pad1)*
G04 #@! TO.C,LP5*
X61230000Y-77700000D03*
G04 #@! TD*
G04 #@! TO.N,Net-(D820-Pad2)*
G04 #@! TO.C,LP6*
X63770000Y-77700000D03*
G04 #@! TD*
G04 #@! TO.N,/rk3308-io/D1*
G04 #@! TO.C,RP1*
X51070000Y-52300000D03*
G04 #@! TD*
G04 #@! TO.N,/rk3308-io/D3*
G04 #@! TO.C,RP3*
X56150000Y-52300000D03*
G04 #@! TD*
G04 #@! TO.N,/rk3308-io/D4*
G04 #@! TO.C,RP4*
X58690000Y-52300000D03*
G04 #@! TD*
G04 #@! TO.N,/rk3308-io/D5*
G04 #@! TO.C,RP5*
X61230000Y-52300000D03*
G04 #@! TD*
G04 #@! TO.N,/rk3308-io/D6*
G04 #@! TO.C,RP6*
X63770000Y-52300000D03*
G04 #@! TD*
G04 #@! TO.N,/rk3308-io/D7*
G04 #@! TO.C,RP7*
X66310000Y-52300000D03*
G04 #@! TD*
G04 #@! TO.N,/rk3308-io/D8*
G04 #@! TO.C,RP8*
X68850000Y-52300000D03*
G04 #@! TD*
G04 #@! TO.N,/rk3308-io/D9*
G04 #@! TO.C,RP9*
X71390000Y-52300000D03*
G04 #@! TD*
G04 #@! TO.N,/rk3308-io/D10*
G04 #@! TO.C,RP10*
X73930000Y-52300000D03*
G04 #@! TD*
G04 #@! TO.N,GND*
G04 #@! TO.C,RP14*
X84090000Y-52300000D03*
G04 #@! TD*
G04 #@! TO.N,GND*
G04 #@! TO.C,LP2*
X43450000Y-77700000D03*
G04 #@! TD*
D11*
G04 #@! TO.N,GND*
G04 #@! TO.C,J800*
X40550000Y-52150000D03*
X48450000Y-52150000D03*
G04 #@! TD*
G04 #@! TO.N,GND*
G04 #@! TO.C,J801*
X84450000Y-77850000D03*
X76550000Y-77850000D03*
G04 #@! TD*
D12*
G04 #@! TO.N,GND*
X81750000Y-57000000D03*
X64750000Y-73750000D03*
X56750000Y-71000000D03*
X56631250Y-68656250D03*
D13*
X44175000Y-56150000D03*
D12*
X52750000Y-62250000D03*
X53250000Y-62249998D03*
X81750000Y-56000000D03*
X59960000Y-74525000D03*
X59960000Y-77065000D03*
X59960000Y-78335000D03*
X64750000Y-73250000D03*
X68250000Y-59150000D03*
X53750000Y-62250000D03*
X83100000Y-63400000D03*
X82300000Y-63400000D03*
X83100000Y-69800000D03*
X83100000Y-71400000D03*
X75900000Y-59400000D03*
X83100000Y-58600000D03*
X75900000Y-63400000D03*
X75900000Y-61799994D03*
X63050000Y-62400000D03*
X59150000Y-64350000D03*
X70200000Y-67600000D03*
X71500000Y-65000000D03*
X69550000Y-65000000D03*
X85900000Y-64200000D03*
X82300000Y-61800000D03*
X57750000Y-59750000D03*
X54750000Y-56750000D03*
X63700000Y-62400000D03*
X60450000Y-66300000D03*
X69550000Y-70200000D03*
X70850000Y-68900000D03*
X73100000Y-70600000D03*
X76700000Y-68200000D03*
X71499998Y-71500000D03*
X83100000Y-67400000D03*
X82300000Y-65000000D03*
X77500000Y-65800000D03*
X83100000Y-68200000D03*
X63050000Y-67600000D03*
X65000000Y-68900000D03*
X68250000Y-65650000D03*
X66300000Y-63050000D03*
X66950000Y-63700000D03*
X65650000Y-63700000D03*
X64350000Y-63700000D03*
X63050000Y-63700000D03*
X59800000Y-64350000D03*
X60450000Y-70200000D03*
X57750000Y-62750000D03*
X57750000Y-58750000D03*
X57750000Y-60750000D03*
X65650000Y-63050000D03*
X54750000Y-60250000D03*
X54750000Y-61250000D03*
X59800000Y-68900000D03*
X85900000Y-70600000D03*
X67600000Y-59150000D03*
X64918750Y-71581250D03*
X76700000Y-62600000D03*
X77500000Y-60200000D03*
X73100000Y-58600000D03*
X73100000Y-60200000D03*
X73100000Y-62600000D03*
X73100000Y-65400000D03*
D13*
X73750000Y-57750000D03*
D12*
X73100000Y-68200000D03*
X85900000Y-65800000D03*
X85900000Y-67000000D03*
X85900000Y-68000000D03*
X85900000Y-69000000D03*
X85900000Y-62600000D03*
X85900000Y-60200000D03*
X85900000Y-59400000D03*
X61100000Y-65650000D03*
X62400000Y-67600000D03*
X66300000Y-63700000D03*
X65000000Y-63700000D03*
X63700000Y-63700000D03*
X64350000Y-63050000D03*
X68250000Y-65000000D03*
X73100000Y-57800000D03*
X56743666Y-64243666D03*
X54743660Y-64250000D03*
X55743684Y-64249999D03*
X68250000Y-68900000D03*
X75900000Y-71400000D03*
X73100000Y-59400000D03*
X79600000Y-63800000D03*
X71500000Y-63050000D03*
X65000000Y-69550000D03*
X68250000Y-70200000D03*
X65650000Y-68900000D03*
X64837500Y-70200000D03*
X75900000Y-68999979D03*
X63700000Y-71500000D03*
X63700000Y-70850000D03*
D13*
X42750000Y-60500000D03*
X46000000Y-63250000D03*
X71400000Y-75100000D03*
D12*
X60450000Y-62400000D03*
X60450000Y-60450000D03*
X53250000Y-60750000D03*
X82300000Y-60200000D03*
X85900000Y-61000000D03*
X85900000Y-72000000D03*
X85900000Y-73000000D03*
X53412490Y-59750000D03*
X70850000Y-58500000D03*
X59150000Y-59150000D03*
X66300000Y-70850000D03*
X73500000Y-73800000D03*
X75900000Y-73800000D03*
X75100000Y-73800000D03*
X74300000Y-73800000D03*
X76700000Y-73800000D03*
X77500000Y-73800000D03*
X78300000Y-73800000D03*
X79100000Y-73800000D03*
X79900000Y-73800000D03*
X80700000Y-73800000D03*
X72700000Y-73800000D03*
X71900000Y-73800000D03*
X71100000Y-73800000D03*
X70300000Y-73800000D03*
X69500000Y-73800000D03*
X68700000Y-73800000D03*
X67900000Y-73800000D03*
X67100000Y-73800000D03*
X66300000Y-73000000D03*
X65500000Y-72200000D03*
X64918750Y-70931250D03*
X75100000Y-75000000D03*
X75900000Y-75000000D03*
X76700000Y-75000000D03*
X74300000Y-75000000D03*
X81800000Y-73400000D03*
X46250000Y-71750000D03*
X47250000Y-71750000D03*
X48250000Y-71750000D03*
X49250000Y-71750000D03*
X50250000Y-71750000D03*
X52250000Y-71750000D03*
X54250000Y-71750000D03*
X53250000Y-71750000D03*
X53250000Y-78750000D03*
X53250000Y-77750000D03*
X53250000Y-75750000D03*
X53250000Y-74750000D03*
X53250000Y-73750000D03*
X53250000Y-72750000D03*
X45250000Y-73200000D03*
X43700000Y-73200000D03*
X44250000Y-72250000D03*
X43250000Y-72500000D03*
X43250000Y-71750000D03*
X45250000Y-72500000D03*
X54250000Y-78750000D03*
X53250000Y-76750000D03*
X54250000Y-74750000D03*
X54250000Y-73750000D03*
X54250000Y-72750000D03*
X54250000Y-75750000D03*
X44750000Y-75250000D03*
X43750000Y-75250000D03*
X51250000Y-71750000D03*
X41500000Y-73000000D03*
X41500000Y-72000000D03*
X54250000Y-76750000D03*
X54250000Y-77750000D03*
X55250000Y-76750000D03*
X55250000Y-78750000D03*
X55250000Y-73750000D03*
X55250000Y-72750000D03*
X51700000Y-70100000D03*
X52200000Y-70100000D03*
X56500000Y-73000000D03*
X45250000Y-71750000D03*
X80100000Y-60200000D03*
D13*
X62000000Y-75250000D03*
D12*
X63943750Y-72231250D03*
X39000000Y-71750000D03*
X39000000Y-72750000D03*
X39000000Y-73750000D03*
X39000000Y-74750000D03*
X39000000Y-75750000D03*
X39000000Y-76750000D03*
X39000000Y-78750000D03*
X39000000Y-77750000D03*
X41000000Y-71750000D03*
X41100000Y-75300000D03*
X41000000Y-76250000D03*
X42250000Y-76750000D03*
X41500000Y-74000000D03*
X42000000Y-74700000D03*
X44250000Y-76250000D03*
X45250000Y-77000000D03*
X45250000Y-78750000D03*
X44250000Y-78750000D03*
X42750000Y-78750000D03*
X40000000Y-78750000D03*
X45250000Y-76000000D03*
D13*
X46000000Y-62500000D03*
D12*
X48750000Y-62000000D03*
X49250000Y-63500000D03*
X50250000Y-64750000D03*
D13*
X50300000Y-55000000D03*
D12*
X49100000Y-55400000D03*
X52250000Y-72750000D03*
X52250000Y-73750000D03*
X52250000Y-74750000D03*
X52250000Y-75750000D03*
X52250000Y-76750000D03*
X52250000Y-77750000D03*
X52250000Y-78750000D03*
D13*
X45750000Y-56000000D03*
X46250000Y-56000000D03*
X79000000Y-76500000D03*
X79500000Y-76500000D03*
D12*
X43000000Y-76000000D03*
X44500000Y-73200000D03*
X45250000Y-78000000D03*
X42250000Y-77750000D03*
X41750000Y-78750000D03*
X39250000Y-62250000D03*
X43250000Y-58250000D03*
X44750000Y-58250000D03*
X67750000Y-76000000D03*
X72000000Y-76500000D03*
X73250000Y-76500000D03*
D13*
X66500000Y-56750000D03*
X66500000Y-56000000D03*
X66500000Y-57500000D03*
D12*
X76100000Y-57200000D03*
X76900000Y-57200000D03*
X77700000Y-57200000D03*
X78500000Y-57200000D03*
X79300000Y-57200000D03*
X80100000Y-57200000D03*
X81750000Y-57750000D03*
X84500000Y-54250000D03*
X84500000Y-55250000D03*
X81500000Y-54500000D03*
X83750000Y-58000000D03*
X60250000Y-55500000D03*
X62000000Y-72250000D03*
X65000000Y-75500000D03*
X52340000Y-51665000D03*
X54880000Y-51665000D03*
X57420000Y-51665000D03*
X59960000Y-51665000D03*
X62500000Y-51665000D03*
X65040000Y-51665000D03*
X67580000Y-51665000D03*
X70120000Y-51665000D03*
X72660000Y-51665000D03*
X75200000Y-51665000D03*
X77740000Y-51665000D03*
X80280000Y-51665000D03*
X82820000Y-51665000D03*
X72660000Y-78335000D03*
X70120000Y-78335000D03*
X62500000Y-78335000D03*
X65040000Y-78335000D03*
X67580000Y-78335000D03*
X57420000Y-78335000D03*
X59960000Y-75795000D03*
X39500000Y-56250000D03*
X39500000Y-54750000D03*
D13*
X43500000Y-60500000D03*
X42000000Y-60500000D03*
X46000000Y-64000000D03*
D12*
X60450000Y-64350000D03*
X66300000Y-66950000D03*
X66950000Y-66300000D03*
X65650000Y-66950000D03*
X68900000Y-64350000D03*
X69550000Y-63700000D03*
X70500000Y-53500000D03*
X58987500Y-73775000D03*
X58337500Y-71662500D03*
G04 #@! TO.N,/ddr/DDR_A1*
X80700000Y-69800000D03*
X68412500Y-71662500D03*
G04 #@! TO.N,/ddr/DDR_A7*
X70850000Y-71500000D03*
X77500000Y-70600000D03*
G04 #@! TO.N,/ddr/DDR_A2*
X78300000Y-69800000D03*
X70200000Y-71500000D03*
G04 #@! TO.N,/ddr/DDR_A11*
X80700000Y-70600000D03*
X67112500Y-71662500D03*
G04 #@! TO.N,/ddr/DDR_A6*
X81500000Y-70600000D03*
X67762500Y-71662500D03*
G04 #@! TO.N,/ddr/DDR_A12*
X80700000Y-69000000D03*
X67600000Y-70200000D03*
G04 #@! TO.N,/ddr/DDR_A3*
X68250000Y-68250000D03*
X76700000Y-69000000D03*
G04 #@! TO.N,/ddr/DDR_A4*
X81500000Y-69800000D03*
X66950000Y-70850000D03*
G04 #@! TO.N,/ddr/DDR_A13*
X65650000Y-69550000D03*
X77500000Y-71400000D03*
G04 #@! TO.N,/ddr/DDR_A9*
X78300000Y-70600000D03*
X66950000Y-68900000D03*
G04 #@! TO.N,/ddr/DDR_A10*
X66300000Y-70200000D03*
X80700004Y-67400000D03*
G04 #@! TO.N,/ddr/DDR_D5*
X71500000Y-67600000D03*
X78300000Y-59400000D03*
G04 #@! TO.N,/ddr/DDR_D3*
X71500000Y-63700000D03*
X81500000Y-58600000D03*
G04 #@! TO.N,/ddr/DDR_CLKN*
X70850000Y-70200000D03*
X81500000Y-65800000D03*
G04 #@! TO.N,/ddr/DDR_D4*
X82300000Y-61000000D03*
X72150000Y-67600000D03*
G04 #@! TO.N,/ddr/DDR_D9*
X69550000Y-67600000D03*
X77500000Y-62600000D03*
G04 #@! TO.N,/ddr/DDR_DQS1P*
X78300000Y-63400000D03*
X70850000Y-66300000D03*
G04 #@! TO.N,/ddr/DDR_D7*
X70850000Y-65000000D03*
X81500000Y-59400000D03*
G04 #@! TO.N,/ddr/DDR_D12*
X70200000Y-65000000D03*
X76700000Y-63400000D03*
G04 #@! TO.N,/ddr/DDR_D14*
X70850000Y-63700000D03*
X81500000Y-62600000D03*
G04 #@! TO.N,/ddr/DDR_CLKP*
X80700000Y-65800000D03*
X70200000Y-70200000D03*
G04 #@! TO.N,/ddr/DDR_D11*
X81500000Y-65000000D03*
X70200000Y-68900000D03*
G04 #@! TO.N,/ddr/DDR_D6*
X69550000Y-68900000D03*
X81500000Y-61800000D03*
G04 #@! TO.N,/ddr/DDR_D13*
X70850000Y-67600000D03*
X78300000Y-61800000D03*
G04 #@! TO.N,/ddr/DDR_DQS1N*
X77500000Y-63400000D03*
X70200000Y-66300000D03*
G04 #@! TO.N,/ddr/DDR_DM1*
X80700000Y-61800000D03*
X70200000Y-63700000D03*
G04 #@! TO.N,/ddr/DDR_RESET*
X76700000Y-70600000D03*
X68900000Y-68900000D03*
G04 #@! TO.N,/ddr/DDR_D8*
X68900000Y-67600000D03*
X80700000Y-65000000D03*
G04 #@! TO.N,/ddr/DDR_D2*
X78300000Y-60200000D03*
X68900000Y-66300000D03*
G04 #@! TO.N,/ddr/DDR_D0*
X76700000Y-60200000D03*
X69550000Y-66300000D03*
G04 #@! TO.N,/ddr/DDR_D10*
X80700000Y-62600000D03*
X69550000Y-64350000D03*
G04 #@! TO.N,/ddr/DDR_ODT0*
X73100000Y-69800000D03*
X68900000Y-70200000D03*
X75900000Y-65800000D03*
G04 #@! TO.N,/ddr/DDR_D1*
X77500000Y-59400000D03*
X68250000Y-66300000D03*
G04 #@! TO.N,/ddr/DDR_D15*
X77500000Y-64200000D03*
X68900000Y-65000000D03*
G04 #@! TO.N,/ddr/DDR_BA2*
X77500000Y-68200000D03*
X67600000Y-68250000D03*
G04 #@! TO.N,/ddr/DDR_BA1*
X81500000Y-69000000D03*
X66950000Y-70200000D03*
G04 #@! TO.N,/ddr/DDR_CASN*
X77500000Y-66600000D03*
X66300000Y-68900000D03*
G04 #@! TO.N,/ddr/DDR_WEN*
X77500000Y-67400000D03*
X66949952Y-68250000D03*
G04 #@! TO.N,/ddr/DDR_CKE0*
X65650000Y-70200000D03*
X80700000Y-66600000D03*
G04 #@! TO.N,VCC_DDR*
X83100000Y-61000000D03*
X83100000Y-64200000D03*
X83100000Y-69000000D03*
X83100000Y-70600000D03*
X75900000Y-62600000D03*
X76700000Y-64200000D03*
X75900000Y-70600000D03*
X75900000Y-68200000D03*
X81500000Y-63400000D03*
X76700000Y-59400000D03*
X67600000Y-66300000D03*
X66950000Y-66950000D03*
X66300000Y-67600000D03*
X65650000Y-68250000D03*
X75899986Y-60200000D03*
X83100000Y-62600000D03*
X76700000Y-61800000D03*
X76700000Y-65800000D03*
X82300000Y-65800000D03*
X65650000Y-67600000D03*
D13*
X75250000Y-57750000D03*
D12*
X83100000Y-60200000D03*
X82300000Y-59400000D03*
D13*
X85250000Y-57500000D03*
X85250000Y-58250000D03*
D12*
X83100000Y-72000000D03*
X83100000Y-73000000D03*
G04 #@! TO.N,/emmc/EMMC_RST*
X65000000Y-61750000D03*
G04 #@! TO.N,Net-(R50-Pad1)*
X82300000Y-67400000D03*
G04 #@! TO.N,/emmc/VDDi*
X57740000Y-58240000D03*
G04 #@! TO.N,/rk3308-io/I2C1_SCL*
X71500000Y-59800000D03*
G04 #@! TO.N,/rk3308-io/I2C1_SDA*
X70850000Y-59800000D03*
G04 #@! TO.N,/rk3308-io/WIFI_WAKE_HOST*
X68900000Y-63050000D03*
X52600000Y-68600000D03*
G04 #@! TO.N,/rk3308-io/WIFI_REG_ON*
X69550000Y-62400000D03*
X52600000Y-69500000D03*
G04 #@! TO.N,/rk3308-io/HOST_WAKE_BT*
X61100000Y-67600000D03*
X46000000Y-69800000D03*
G04 #@! TO.N,/rk3308-io/BT_WAKE_HOST*
X46900000Y-69800000D03*
X61100000Y-66950000D03*
G04 #@! TO.N,/rk3308-io/UART4_TXD*
X61750000Y-66950000D03*
X41200000Y-68600000D03*
G04 #@! TO.N,/rk3308-io/UART4_RXD*
X60450000Y-67600000D03*
X41200000Y-67700000D03*
G04 #@! TO.N,/rk3308-io/UART4_RTS*
X59800000Y-65000000D03*
X41200000Y-69500000D03*
G04 #@! TO.N,/rk3308-io/BT_REG_ON*
X39374990Y-60500000D03*
X59800000Y-67625010D03*
G04 #@! TO.N,/rk3308-io/UART4_CTS*
X59150000Y-65000000D03*
X41200000Y-66800000D03*
G04 #@! TO.N,/rk3308-io/A4*
X60450000Y-70850000D03*
G04 #@! TO.N,/rk3308-io/D1*
X63700000Y-59150000D03*
X55000000Y-54250000D03*
G04 #@! TO.N,/rk3308-io/D2*
X63700000Y-61750000D03*
X51500000Y-54250000D03*
X55000000Y-55250000D03*
G04 #@! TO.N,/rk3308-io/D3*
X62400000Y-60450000D03*
G04 #@! TO.N,/rk3308-io/D4*
X61750000Y-60450000D03*
G04 #@! TO.N,/rk3308-io/D7*
X65650000Y-59150000D03*
G04 #@! TO.N,/rk3308-io/D8*
X65650000Y-61750000D03*
G04 #@! TO.N,/rk3308-io/D9*
X65000000Y-60450000D03*
X67750000Y-53250000D03*
G04 #@! TO.N,/rk3308-io/D10*
X65650000Y-61100000D03*
X68550000Y-53900000D03*
G04 #@! TO.N,/rk3308-io/D11*
X70850000Y-59150000D03*
G04 #@! TO.N,/rk3308-io/D12*
X71500000Y-59150000D03*
G04 #@! TO.N,/rk3308-io/D13*
X70200000Y-60450000D03*
G04 #@! TO.N,/wireless/LPO*
X70200000Y-59150000D03*
X49600004Y-60500000D03*
G04 #@! TO.N,/emmc/EMMC_D7*
X63700000Y-60450000D03*
X54250000Y-58750000D03*
G04 #@! TO.N,/emmc/EMMC_CLK*
X63050000Y-61750000D03*
G04 #@! TO.N,/emmc/EMMC_CMD*
X63050000Y-60450000D03*
X58250000Y-62250000D03*
G04 #@! TO.N,/emmc/EMMC_D6*
X65000000Y-61100000D03*
X57750000Y-60250000D03*
G04 #@! TO.N,/emmc/EMMC_D2*
X64350000Y-58500000D03*
X55250000Y-56750000D03*
G04 #@! TO.N,/emmc/EMMC_D5*
X65000000Y-59800000D03*
G04 #@! TO.N,/emmc/EMMC_D1*
X63050000Y-59150000D03*
X55750000Y-56750000D03*
G04 #@! TO.N,/emmc/EMMC_D4*
X64350000Y-59150000D03*
X56750000Y-56750000D03*
G04 #@! TO.N,/emmc/EMMC_D3*
X65000000Y-59150000D03*
G04 #@! TO.N,/USB_OTG_D_P*
X63050000Y-70850000D03*
X47262135Y-57562564D03*
G04 #@! TO.N,/USB_OTG_D_N*
X63050000Y-71500000D03*
X46837869Y-57986830D03*
D13*
G04 #@! TO.N,+3V3*
X46750000Y-65250000D03*
D12*
X70200000Y-58500000D03*
D13*
X48700000Y-69750000D03*
D12*
X64350000Y-61750000D03*
X54750000Y-58750000D03*
X54750000Y-59750000D03*
X54750000Y-60750000D03*
X62400000Y-69550000D03*
X63050000Y-66300000D03*
X70200000Y-59800000D03*
X61100000Y-64350000D03*
X56243695Y-64249991D03*
X55243673Y-64250000D03*
D13*
X46000000Y-65250000D03*
D12*
X46200000Y-61500000D03*
X68250000Y-63050000D03*
X53250000Y-61250000D03*
D13*
X48700000Y-68750000D03*
X50200000Y-60500000D03*
X49250000Y-58000000D03*
D12*
X57000000Y-55250000D03*
X60250000Y-57000000D03*
G04 #@! TO.N,+1V8*
X61100000Y-68900000D03*
G04 #@! TO.N,+1V8A*
X61750000Y-68900000D03*
G04 #@! TO.N,+1V0L*
X64350000Y-67600000D03*
X65000000Y-67600000D03*
X65000000Y-66950000D03*
X64350000Y-66950000D03*
X63700000Y-66950000D03*
X63700000Y-67600000D03*
D13*
X61200000Y-72600000D03*
G04 #@! TO.N,+1V0C*
X61250000Y-56750000D03*
X61250000Y-57750000D03*
D12*
X66950000Y-63050000D03*
X66300000Y-62400000D03*
X68250014Y-61750000D03*
X67600000Y-61750000D03*
X67600000Y-63050000D03*
X68250000Y-58500000D03*
G04 #@! TO.N,+1V0*
X62400000Y-68900000D03*
D13*
G04 #@! TO.N,+5V*
X42700000Y-56250000D03*
D12*
X40500000Y-58500000D03*
D13*
X79500000Y-54500000D03*
X43200000Y-56250000D03*
X81800000Y-74150000D03*
X82300000Y-74150000D03*
D12*
X44500000Y-62250000D03*
D13*
X68250000Y-54500000D03*
X67000000Y-75500000D03*
D12*
X65650000Y-58500000D03*
G04 #@! TO.N,Net-(C330-Pad1)*
X75900000Y-64200000D03*
X82300000Y-68200000D03*
X79600000Y-62800000D03*
G04 #@! TO.N,Net-(C520-Pad1)*
X45200000Y-69800000D03*
G04 #@! TO.N,Net-(C521-Pad1)*
X47200000Y-67900000D03*
G04 #@! TO.N,Net-(C202-Pad2)*
X67600000Y-58500000D03*
G04 #@! TO.N,Net-(C222-Pad2)*
X62800000Y-72600000D03*
G04 #@! TO.N,Net-(C232-Pad2)*
X82900000Y-57600000D03*
G04 #@! TO.N,/rk3308-io/USB_EXTR*
X61750000Y-69550000D03*
G04 #@! TO.N,/rk3308-io/EMMC_VSEL*
X70200000Y-61750000D03*
G04 #@! TO.N,/emmc/EMMC_D0*
X64350000Y-60450000D03*
X56250000Y-56750000D03*
G04 #@! TO.N,Net-(C110-Pad1)*
X58500000Y-70850000D03*
G04 #@! TO.N,/USB_HOST_D3_P*
X81150000Y-76100000D03*
G04 #@! TO.N,/USB_HOST_D3_N*
X80500000Y-76100000D03*
G04 #@! TD*
D14*
G04 #@! TO.N,/ddr/DDR_A6*
X68200000Y-72100000D02*
X67762500Y-71662500D01*
X75500000Y-70200000D02*
X73600000Y-72100000D01*
X78600000Y-70200000D02*
X75500000Y-70200000D01*
X78800000Y-70600000D02*
X78700000Y-70500000D01*
X78700000Y-70300000D02*
X78600000Y-70200000D01*
X79000000Y-70600000D02*
X78800000Y-70600000D01*
X79500000Y-70500000D02*
X79500000Y-70300000D01*
X73600000Y-72100000D02*
X68200000Y-72100000D01*
X79100000Y-70500000D02*
X79000000Y-70600000D01*
X81600000Y-71000000D02*
X82000000Y-71000000D01*
X81500000Y-70900000D02*
X81600000Y-71000000D01*
X82000000Y-71000000D02*
X82100000Y-70900000D01*
X81500000Y-70600000D02*
X81500000Y-70900000D01*
X80000000Y-70200000D02*
X79900000Y-70300000D01*
X79900000Y-70300000D02*
X79900000Y-70500000D01*
X78700000Y-70500000D02*
X78700000Y-70300000D01*
X79400000Y-70200000D02*
X79200000Y-70200000D01*
X79600000Y-70600000D02*
X79500000Y-70500000D01*
X79800000Y-70600000D02*
X79600000Y-70600000D01*
X79100000Y-70300000D02*
X79100000Y-70500000D01*
X79500000Y-70300000D02*
X79400000Y-70200000D01*
X79900000Y-70500000D02*
X79800000Y-70600000D01*
X79200000Y-70200000D02*
X79100000Y-70300000D01*
X82100000Y-70300000D02*
X82000000Y-70200000D01*
X82000000Y-70200000D02*
X80000000Y-70200000D01*
X82100000Y-70900000D02*
X82100000Y-70300000D01*
G04 #@! TO.N,/ddr/DDR_A4*
X67193750Y-71093750D02*
X66950000Y-70850000D01*
X75300000Y-69600000D02*
X73806250Y-71093750D01*
X75800000Y-69600000D02*
X75300000Y-69600000D01*
X76000000Y-69800000D02*
X75800000Y-69600000D01*
X76300000Y-69700000D02*
X76200000Y-69800000D01*
X76300000Y-69500000D02*
X76300000Y-69700000D01*
X78800000Y-69800000D02*
X78700000Y-69700000D01*
X79800000Y-69800000D02*
X79600000Y-69800000D01*
X79500000Y-69700000D02*
X79500000Y-69500000D01*
X77000000Y-69800000D02*
X76800000Y-69800000D01*
X79200000Y-69400000D02*
X79100000Y-69500000D01*
X78000000Y-69400000D02*
X77900000Y-69500000D01*
X78600000Y-69400000D02*
X78000000Y-69400000D01*
X81200000Y-69400000D02*
X80000000Y-69400000D01*
X79400000Y-69400000D02*
X79200000Y-69400000D01*
X79900000Y-69500000D02*
X79900000Y-69700000D01*
X81500000Y-69800000D02*
X81500000Y-69700000D01*
X77200000Y-69400000D02*
X77100000Y-69500000D01*
X80000000Y-69400000D02*
X79900000Y-69500000D01*
X79500000Y-69500000D02*
X79400000Y-69400000D01*
X79900000Y-69700000D02*
X79800000Y-69800000D01*
X77500000Y-69500000D02*
X77400000Y-69400000D01*
X73806250Y-71093750D02*
X67193750Y-71093750D01*
X76200000Y-69800000D02*
X76000000Y-69800000D01*
X78700000Y-69700000D02*
X78700000Y-69500000D01*
X78700000Y-69500000D02*
X78600000Y-69400000D01*
X79100000Y-69500000D02*
X79100000Y-69700000D01*
X76800000Y-69800000D02*
X76700000Y-69700000D01*
X79100000Y-69700000D02*
X79000000Y-69800000D01*
X77900000Y-69500000D02*
X77900000Y-69700000D01*
X77900000Y-69700000D02*
X77800000Y-69800000D01*
X81500000Y-69700000D02*
X81200000Y-69400000D01*
X77600000Y-69800000D02*
X77500000Y-69700000D01*
X79000000Y-69800000D02*
X78800000Y-69800000D01*
X76600000Y-69400000D02*
X76400000Y-69400000D01*
X77500000Y-69700000D02*
X77500000Y-69500000D01*
X77400000Y-69400000D02*
X77200000Y-69400000D01*
X77100000Y-69500000D02*
X77100000Y-69700000D01*
X76700000Y-69700000D02*
X76700000Y-69500000D01*
X77800000Y-69800000D02*
X77600000Y-69800000D01*
X77100000Y-69700000D02*
X77000000Y-69800000D01*
X79600000Y-69800000D02*
X79500000Y-69700000D01*
X76700000Y-69500000D02*
X76600000Y-69400000D01*
X76400000Y-69400000D02*
X76300000Y-69500000D01*
G04 #@! TO.N,/ddr/DDR_A13*
X77400000Y-72500000D02*
X77500000Y-72400000D01*
X67300000Y-72500000D02*
X77400000Y-72500000D01*
X77500000Y-72400000D02*
X77500000Y-72000000D01*
X65243750Y-70443750D02*
X67300000Y-72500000D01*
X65650000Y-69550000D02*
X65243750Y-69956250D01*
X77500000Y-72000000D02*
X77400000Y-71900000D01*
X65243750Y-69956250D02*
X65243750Y-70443750D01*
X77400000Y-71900000D02*
X76700000Y-71900000D01*
X76700000Y-71900000D02*
X76600000Y-71800000D01*
X76600000Y-71500000D02*
X76700000Y-71400000D01*
X76600000Y-71800000D02*
X76600000Y-71500000D01*
X76700000Y-71400000D02*
X77500000Y-71400000D01*
G04 #@! TO.N,/ddr/DDR_A10*
X80900000Y-67400000D02*
X80700004Y-67400000D01*
X81100000Y-67600000D02*
X80900000Y-67400000D01*
X80900000Y-68200000D02*
X81100000Y-68000000D01*
X80300000Y-68100000D02*
X80400000Y-68200000D01*
X80300000Y-67900000D02*
X80300000Y-68100000D01*
X80200000Y-67800000D02*
X80300000Y-67900000D01*
X79900000Y-67900000D02*
X80000000Y-67800000D01*
X79900000Y-68100000D02*
X79900000Y-67900000D01*
X79600000Y-68200000D02*
X79800000Y-68200000D01*
X79500000Y-68100000D02*
X79600000Y-68200000D01*
X74300000Y-69000000D02*
X75500000Y-67800000D01*
X75500000Y-67800000D02*
X78550000Y-67800000D01*
X78800000Y-68200000D02*
X79000000Y-68200000D01*
X72893750Y-69000000D02*
X74300000Y-69000000D01*
X79100000Y-67900000D02*
X79200000Y-67800000D01*
X78700000Y-68100000D02*
X78800000Y-68200000D01*
X66300000Y-70200000D02*
X66706250Y-69793750D01*
X66706250Y-69793750D02*
X72100000Y-69793750D01*
X80400000Y-68200000D02*
X80900000Y-68200000D01*
X78550000Y-67800000D02*
X78700000Y-67950000D01*
X78700000Y-67950000D02*
X78700000Y-68100000D01*
X79000000Y-68200000D02*
X79100000Y-68100000D01*
X81100000Y-68000000D02*
X81100000Y-67600000D01*
X79800000Y-68200000D02*
X79900000Y-68100000D01*
X79100000Y-68100000D02*
X79100000Y-67900000D01*
X80000000Y-67800000D02*
X80200000Y-67800000D01*
X79400000Y-67800000D02*
X79500000Y-67900000D01*
X79200000Y-67800000D02*
X79400000Y-67800000D01*
X72100000Y-69793750D02*
X72893750Y-69000000D01*
X79500000Y-67900000D02*
X79500000Y-68100000D01*
G04 #@! TO.N,/ddr/DDR_D5*
X73700000Y-66600000D02*
X72500000Y-66600000D01*
X78700000Y-63900000D02*
X77800000Y-64800000D01*
X75500000Y-64800000D02*
X73700000Y-66600000D01*
X77800000Y-64800000D02*
X75500000Y-64800000D01*
X79000000Y-61900000D02*
X78700000Y-62200000D01*
X80000000Y-59500000D02*
X80000000Y-59700000D01*
X72500000Y-66600000D02*
X71500000Y-67600000D01*
X79900000Y-59400000D02*
X80000000Y-59500000D01*
X79400000Y-59800000D02*
X79000000Y-60200000D01*
X78300000Y-59400000D02*
X79900000Y-59400000D01*
X80000000Y-59700000D02*
X79900000Y-59800000D01*
X78700000Y-62200000D02*
X78700000Y-63900000D01*
X79000000Y-60200000D02*
X79000000Y-61900000D01*
X79900000Y-59800000D02*
X79400000Y-59800000D01*
G04 #@! TO.N,/ddr/DDR_D3*
X73900000Y-58300000D02*
X81200000Y-58300000D01*
X73500000Y-58700000D02*
X73900000Y-58300000D01*
X73500000Y-63300000D02*
X73500000Y-58700000D01*
X73300000Y-63500000D02*
X73500000Y-63300000D01*
X71500000Y-63700000D02*
X71700000Y-63500000D01*
X71700000Y-63500000D02*
X73300000Y-63500000D01*
X81500000Y-58600000D02*
X81200000Y-58300000D01*
G04 #@! TO.N,/ddr/DDR_D4*
X78000000Y-65300000D02*
X79200000Y-64100000D01*
X75700000Y-65300000D02*
X78000000Y-65300000D01*
X80900000Y-60700000D02*
X82000000Y-60700000D01*
X73900000Y-67100000D02*
X75700000Y-65300000D01*
X72700000Y-67100000D02*
X73900000Y-67100000D01*
X72150000Y-67600000D02*
X72200000Y-67600000D01*
X72200000Y-67600000D02*
X72700000Y-67100000D01*
X82000000Y-60700000D02*
X82300000Y-61000000D01*
X79200000Y-64100000D02*
X79200000Y-62400000D01*
X79200000Y-62400000D02*
X80900000Y-60700000D01*
G04 #@! TO.N,/ddr/DDR_D7*
X80900000Y-58800000D02*
X81500000Y-59400000D01*
X74900000Y-58800000D02*
X80900000Y-58800000D01*
X74000000Y-63500000D02*
X74000000Y-59700000D01*
X70850000Y-65000000D02*
X70850000Y-64918750D01*
X70850000Y-64918750D02*
X71418750Y-64350000D01*
X71418750Y-64350000D02*
X71950000Y-64350000D01*
X71950000Y-64350000D02*
X72300000Y-64000000D01*
X74000000Y-59700000D02*
X74900000Y-58800000D01*
X72300000Y-64000000D02*
X73500000Y-64000000D01*
X73500000Y-64000000D02*
X74000000Y-63500000D01*
G04 #@! TO.N,/ddr/DDR_D6*
X81100000Y-62200000D02*
X81500000Y-61800000D01*
X80400000Y-62200000D02*
X81100000Y-62200000D01*
X80100000Y-62500000D02*
X80400000Y-62200000D01*
X80100000Y-63900000D02*
X80100000Y-62500000D01*
X77818002Y-66181998D02*
X80100000Y-63900000D01*
X69550000Y-68900000D02*
X70200000Y-68250000D01*
X70200000Y-68250000D02*
X72250000Y-68250000D01*
X72250000Y-68250000D02*
X72900000Y-67600000D01*
X75518002Y-66181998D02*
X77818002Y-66181998D01*
X72900000Y-67600000D02*
X74100000Y-67600000D01*
X74100000Y-67600000D02*
X75518002Y-66181998D01*
G04 #@! TO.N,/ddr/DDR_D2*
X78300000Y-60500000D02*
X78300000Y-60200000D01*
X78200000Y-60600000D02*
X78300000Y-60500000D01*
X77600000Y-60600000D02*
X78200000Y-60600000D01*
X77500000Y-60900000D02*
X77500000Y-60700000D01*
X72300000Y-66100000D02*
X73500000Y-66100000D01*
X77500000Y-60700000D02*
X77600000Y-60600000D01*
X75500000Y-64100000D02*
X75500000Y-62300000D01*
X73500000Y-66100000D02*
X75500000Y-64100000D01*
X77600000Y-61400000D02*
X78200000Y-61400000D01*
X71500000Y-66900000D02*
X72300000Y-66100000D01*
X68900000Y-66300000D02*
X69500000Y-66900000D01*
X69500000Y-66900000D02*
X71500000Y-66900000D01*
X75500000Y-62300000D02*
X75600000Y-62200000D01*
X75600000Y-62200000D02*
X77000000Y-62200000D01*
X77000000Y-62200000D02*
X77500000Y-61700000D01*
X77500000Y-61700000D02*
X77500000Y-61500000D01*
X77600000Y-61000000D02*
X77500000Y-60900000D01*
X77500000Y-61500000D02*
X77600000Y-61400000D01*
X78200000Y-61400000D02*
X78300000Y-61300000D01*
X78300000Y-61300000D02*
X78300000Y-61100000D01*
X78300000Y-61100000D02*
X78200000Y-61000000D01*
X78200000Y-61000000D02*
X77600000Y-61000000D01*
G04 #@! TO.N,/ddr/DDR_D0*
X76700000Y-60500000D02*
X76700000Y-60200000D01*
X76600000Y-60600000D02*
X76700000Y-60500000D01*
X75500000Y-60600000D02*
X76600000Y-60600000D01*
X75400000Y-60500000D02*
X75500000Y-60600000D01*
X75400000Y-60300000D02*
X75400000Y-60500000D01*
X75300000Y-60200000D02*
X75400000Y-60300000D01*
X75100000Y-60200000D02*
X75300000Y-60200000D01*
X72718750Y-65000000D02*
X73900000Y-65000000D01*
X69550000Y-66056250D02*
X69712500Y-65893750D01*
X71825000Y-65893750D02*
X72718750Y-65000000D01*
X69712500Y-65893750D02*
X71825000Y-65893750D01*
X73900000Y-65000000D02*
X75000000Y-63900000D01*
X75000000Y-63900000D02*
X75000000Y-61500000D01*
X69550000Y-66300000D02*
X69550000Y-66056250D01*
X75000000Y-61500000D02*
X75100000Y-61400000D01*
X75100000Y-61400000D02*
X76600000Y-61400000D01*
X76600000Y-61400000D02*
X76700000Y-61300000D01*
X76700000Y-61300000D02*
X76700000Y-61100000D01*
X76700000Y-61100000D02*
X76600000Y-61000000D01*
X75100000Y-61000000D02*
X75000000Y-60900000D01*
X76600000Y-61000000D02*
X75100000Y-61000000D01*
X75000000Y-60900000D02*
X75000000Y-60300000D01*
X75000000Y-60300000D02*
X75100000Y-60200000D01*
G04 #@! TO.N,/ddr/DDR_D1*
X69143750Y-65650000D02*
X68900000Y-65650000D01*
X75500000Y-59800000D02*
X75400000Y-59700000D01*
X75000000Y-59700000D02*
X74900000Y-59800000D01*
X77500000Y-59400000D02*
X77500000Y-59700000D01*
X77400000Y-59800000D02*
X75500000Y-59800000D01*
X68900000Y-65650000D02*
X68250000Y-66300000D01*
X77500000Y-59700000D02*
X77400000Y-59800000D01*
X74600000Y-59800000D02*
X74500000Y-59900000D01*
X74900000Y-59800000D02*
X74600000Y-59800000D01*
X72500000Y-64500000D02*
X71593750Y-65406250D01*
X74500000Y-63700000D02*
X73700000Y-64500000D01*
X73700000Y-64500000D02*
X72500000Y-64500000D01*
X74500000Y-59900000D02*
X74500000Y-63700000D01*
X71593750Y-65406250D02*
X69387500Y-65406250D01*
X69387500Y-65406250D02*
X69143750Y-65650000D01*
X75400000Y-59500000D02*
X75300000Y-59400000D01*
X75400000Y-59700000D02*
X75400000Y-59500000D01*
X75000000Y-59500000D02*
X75100000Y-59400000D01*
X75300000Y-59400000D02*
X75100000Y-59400000D01*
X75000000Y-59500000D02*
X75000000Y-59700000D01*
G04 #@! TO.N,/ddr/DDR_BA1*
X67356250Y-70606250D02*
X66950000Y-70200000D01*
X72312500Y-70606250D02*
X67356250Y-70606250D01*
X77400000Y-68600000D02*
X75500000Y-68600000D01*
X80000000Y-69000000D02*
X79900000Y-68900000D01*
X78400000Y-69000000D02*
X78300000Y-68900000D01*
X80200000Y-69000000D02*
X80000000Y-69000000D01*
X77500000Y-68900000D02*
X77500000Y-68700000D01*
X80300000Y-68700000D02*
X80300000Y-68900000D01*
X77800000Y-69000000D02*
X77600000Y-69000000D01*
X79500000Y-68900000D02*
X79400000Y-69000000D01*
X80400000Y-68600000D02*
X80300000Y-68700000D01*
X79900000Y-68700000D02*
X79800000Y-68600000D01*
X72718750Y-70200000D02*
X72312500Y-70606250D01*
X78300000Y-68900000D02*
X78300000Y-68700000D01*
X80300000Y-68900000D02*
X80200000Y-69000000D01*
X78700000Y-68900000D02*
X78600000Y-69000000D01*
X78300000Y-68700000D02*
X78200000Y-68600000D01*
X79500000Y-68700000D02*
X79500000Y-68900000D01*
X79400000Y-69000000D02*
X79200000Y-69000000D01*
X79200000Y-69000000D02*
X79100000Y-68900000D01*
X77900000Y-68700000D02*
X77900000Y-68900000D01*
X79100000Y-68900000D02*
X79100000Y-68700000D01*
X73900000Y-70200000D02*
X72718750Y-70200000D01*
X78700000Y-68700000D02*
X78700000Y-68900000D01*
X79100000Y-68700000D02*
X79000000Y-68600000D01*
X79000000Y-68600000D02*
X78800000Y-68600000D01*
X75500000Y-68600000D02*
X73900000Y-70200000D01*
X78800000Y-68600000D02*
X78700000Y-68700000D01*
X78600000Y-69000000D02*
X78400000Y-69000000D01*
X79800000Y-68600000D02*
X79600000Y-68600000D01*
X79600000Y-68600000D02*
X79500000Y-68700000D01*
X78200000Y-68600000D02*
X78000000Y-68600000D01*
X79900000Y-68900000D02*
X79900000Y-68700000D01*
X78000000Y-68600000D02*
X77900000Y-68700000D01*
X77900000Y-68900000D02*
X77800000Y-69000000D01*
X77600000Y-69000000D02*
X77500000Y-68900000D01*
X77500000Y-68700000D02*
X77400000Y-68600000D01*
X81500000Y-68700000D02*
X81400000Y-68600000D01*
X81400000Y-68600000D02*
X80400000Y-68600000D01*
X81500000Y-69000000D02*
X81500000Y-68700000D01*
G04 #@! TO.N,/ddr/DDR_CKE0*
X66543750Y-69306250D02*
X65650000Y-70200000D01*
X80700000Y-66600000D02*
X80300000Y-67000000D01*
X80300000Y-67000000D02*
X75500000Y-67000000D01*
X72406250Y-68600000D02*
X71700000Y-69306250D01*
X73900000Y-68600000D02*
X72406250Y-68600000D01*
X71700000Y-69306250D02*
X66543750Y-69306250D01*
X75500000Y-67000000D02*
X73900000Y-68600000D01*
D15*
G04 #@! TO.N,/rk3308-io/WIFI_WAKE_HOST*
X52600000Y-67150000D02*
X52600000Y-68600000D01*
X53450000Y-66300000D02*
X52600000Y-67150000D01*
X59231250Y-66300000D02*
X53450000Y-66300000D01*
X68900000Y-63050000D02*
X67112500Y-64837500D01*
X60693750Y-64837500D02*
X59231250Y-66300000D01*
X67112500Y-64837500D02*
X60693750Y-64837500D01*
G04 #@! TO.N,/rk3308-io/WIFI_REG_ON*
X53000000Y-67250000D02*
X53000000Y-69100000D01*
X69550000Y-63050000D02*
X67512490Y-65087510D01*
X67512490Y-65087510D02*
X60797308Y-65087510D01*
X53000000Y-69100000D02*
X52600000Y-69500000D01*
X60797308Y-65087510D02*
X59284818Y-66600000D01*
X53650000Y-66600000D02*
X53000000Y-67250000D01*
X69550000Y-62400000D02*
X69550000Y-63050000D01*
X59284818Y-66600000D02*
X53650000Y-66600000D01*
G04 #@! TO.N,/rk3308-io/D1*
X63250000Y-57250000D02*
X59750000Y-53750000D01*
X52520000Y-53750000D02*
X51070000Y-52300000D01*
X63700000Y-59150000D02*
X63250000Y-58700000D01*
X63250000Y-58700000D02*
X63250000Y-57250000D01*
X55500000Y-53750000D02*
X55000000Y-54250000D01*
X57000000Y-53750000D02*
X55500000Y-53750000D01*
X59750000Y-53750000D02*
X57000000Y-53750000D01*
X53020000Y-54250000D02*
X52520000Y-53750000D01*
X55000000Y-54250000D02*
X53020000Y-54250000D01*
G04 #@! TO.N,/rk3308-io/D2*
X51500000Y-54532842D02*
X51500000Y-54250000D01*
X63293750Y-61343750D02*
X60031251Y-61343750D01*
X59675001Y-61700000D02*
X52900000Y-61700000D01*
X63700000Y-61750000D02*
X63293750Y-61343750D01*
X60031251Y-61343750D02*
X59675001Y-61700000D01*
X52900000Y-61700000D02*
X51500000Y-60300000D01*
X51500000Y-60300000D02*
X51500000Y-54532842D01*
X52500000Y-55250000D02*
X51500000Y-54250000D01*
X55000000Y-55250000D02*
X52500000Y-55250000D01*
G04 #@! TO.N,/rk3308-io/D7*
X67250000Y-53240000D02*
X66310000Y-52300000D01*
X65650000Y-59150000D02*
X67250000Y-57550000D01*
X67250000Y-57550000D02*
X67250000Y-53240000D01*
G04 #@! TO.N,/rk3308-io/D8*
X69700000Y-59050000D02*
X69700000Y-53150000D01*
X68137500Y-60612500D02*
X69700000Y-59050000D01*
X65650000Y-61750000D02*
X66787500Y-60612500D01*
X69700000Y-53150000D02*
X68850000Y-52300000D01*
X66787500Y-60612500D02*
X68137500Y-60612500D01*
G04 #@! TO.N,/rk3308-io/D9*
X67750000Y-57700000D02*
X67750000Y-53250000D01*
X65000000Y-60450000D02*
X67750000Y-57700000D01*
G04 #@! TO.N,/rk3308-io/D10*
X67762500Y-60287500D02*
X69099999Y-58950001D01*
X66462500Y-60287500D02*
X67762500Y-60287500D01*
X65650000Y-61100000D02*
X66462500Y-60287500D01*
X69099999Y-54449999D02*
X68550000Y-53900000D01*
X69099999Y-54650000D02*
X69099999Y-54449999D01*
X69099999Y-58950001D02*
X69099999Y-54650000D01*
G04 #@! TO.N,/rk3308-io/D11*
X75676251Y-53093749D02*
X76470000Y-52300000D01*
X71337500Y-57432500D02*
X75676251Y-53093749D01*
X70850000Y-59150000D02*
X71337500Y-58662500D01*
X71337500Y-58662500D02*
X71337500Y-57432500D01*
G04 #@! TO.N,/rk3308-io/D12*
X78216251Y-53093749D02*
X79010000Y-52300000D01*
X77685000Y-53625000D02*
X78216251Y-53093749D01*
X75875000Y-53625000D02*
X77685000Y-53625000D01*
X71875001Y-57624999D02*
X75875000Y-53625000D01*
X71500000Y-59150000D02*
X71875001Y-58774999D01*
X71875001Y-58774999D02*
X71875001Y-57624999D01*
G04 #@! TO.N,/rk3308-io/D13*
X80225000Y-53625000D02*
X81550000Y-52300000D01*
X78806250Y-54193750D02*
X79375000Y-53625000D01*
X70399999Y-60649999D02*
X71350001Y-60649999D01*
X70200000Y-60450000D02*
X70399999Y-60649999D01*
X72400000Y-59600000D02*
X72400000Y-57850000D01*
X71350001Y-60649999D02*
X72400000Y-59600000D01*
X72400000Y-57850000D02*
X76056250Y-54193750D01*
X79375000Y-53625000D02*
X80225000Y-53625000D01*
X76056250Y-54193750D02*
X78806250Y-54193750D01*
G04 #@! TO.N,/wireless/LPO*
X68412500Y-60937500D02*
X67112500Y-60937500D01*
X65469999Y-62580001D02*
X64075001Y-62580001D01*
X70200000Y-59150000D02*
X68412500Y-60937500D01*
X67112500Y-60937500D02*
X65469999Y-62580001D01*
X64075001Y-62580001D02*
X63330003Y-63324999D01*
X58730003Y-63324999D02*
X58555002Y-63500000D01*
X60750000Y-63324999D02*
X58730003Y-63324999D01*
X58625001Y-63430001D02*
X58555002Y-63500000D01*
X63330003Y-63324999D02*
X60750000Y-63324999D01*
X49600000Y-61500000D02*
X49600000Y-60500004D01*
X51725001Y-63625001D02*
X49600000Y-61500000D01*
X58555002Y-63500000D02*
X58430001Y-63625001D01*
X49600000Y-60500004D02*
X49600004Y-60500000D01*
X58430001Y-63625001D02*
X51725001Y-63625001D01*
D14*
G04 #@! TO.N,/emmc/EMMC_D7*
X63293750Y-60043750D02*
X59062500Y-60043750D01*
X54700000Y-59200000D02*
X54250000Y-58750000D01*
X63700000Y-60450000D02*
X63293750Y-60043750D01*
X59062500Y-60043750D02*
X58218750Y-59200000D01*
X58218750Y-59200000D02*
X54700000Y-59200000D01*
G04 #@! TO.N,/emmc/EMMC_D6*
X58856250Y-60856250D02*
X58250000Y-60250000D01*
X65000000Y-61100000D02*
X64756250Y-60856250D01*
X64756250Y-60856250D02*
X58856250Y-60856250D01*
X57750000Y-60250000D02*
X58250000Y-60250000D01*
G04 #@! TO.N,/emmc/EMMC_D1*
X55750000Y-56100000D02*
X55750000Y-56750000D01*
X55950000Y-55900000D02*
X55750000Y-56100000D01*
X57300000Y-55900000D02*
X55950000Y-55900000D01*
X60950000Y-59150000D02*
X59100000Y-57300000D01*
X63050000Y-59150000D02*
X60950000Y-59150000D01*
X57700000Y-57300000D02*
X57500000Y-57100000D01*
X59100000Y-57300000D02*
X57700000Y-57300000D01*
X57500000Y-57100000D02*
X57500000Y-56100000D01*
X57500000Y-56100000D02*
X57300000Y-55900000D01*
D15*
G04 #@! TO.N,/USB_OTG_D_P*
X54472488Y-70625000D02*
X50872488Y-70625000D01*
X50175000Y-69927512D02*
X50175000Y-66427512D01*
X50872488Y-70625000D02*
X50175000Y-69927512D01*
X55572488Y-71725000D02*
X54472488Y-70625000D01*
X47975000Y-64227512D02*
X47975000Y-58452207D01*
X50175000Y-66427512D02*
X47975000Y-64227512D01*
X47975000Y-58452207D02*
X47262135Y-57739342D01*
X47262135Y-57739342D02*
X47262135Y-57562564D01*
X61252512Y-71000000D02*
X60027512Y-72225000D01*
X62900000Y-71000000D02*
X61252512Y-71000000D01*
X63050000Y-70850000D02*
X62900000Y-71000000D01*
X60027512Y-72225000D02*
X57472488Y-72225000D01*
X56972488Y-71725000D02*
X55572488Y-71725000D01*
X57472488Y-72225000D02*
X56972488Y-71725000D01*
G04 #@! TO.N,/USB_OTG_D_N*
X55427512Y-72075000D02*
X54327512Y-70975000D01*
X54327512Y-70975000D02*
X50727512Y-70975000D01*
X50727512Y-70975000D02*
X49825000Y-70072488D01*
X47625000Y-58597183D02*
X47014647Y-57986830D01*
X49825000Y-70072488D02*
X49825000Y-66572488D01*
X49825000Y-66572488D02*
X47625000Y-64372488D01*
X47625000Y-64372488D02*
X47625000Y-58597183D01*
X47014647Y-57986830D02*
X46837869Y-57986830D01*
X61397488Y-71350000D02*
X60172488Y-72575000D01*
X62900000Y-71350000D02*
X61397488Y-71350000D01*
X63050000Y-71500000D02*
X62900000Y-71350000D01*
X60172488Y-72575000D02*
X57327512Y-72575000D01*
X57327512Y-72575000D02*
X56827512Y-72075000D01*
X56827512Y-72075000D02*
X55427512Y-72075000D01*
D16*
G04 #@! TO.N,+3V3*
X48700000Y-68750000D02*
X48700000Y-69750000D01*
X40000000Y-76790000D02*
X40910000Y-77700000D01*
X46000000Y-65250000D02*
X40000000Y-65250000D01*
X40000000Y-65250000D02*
X40000000Y-76790000D01*
D17*
X57000000Y-55250000D02*
X58500000Y-55250000D01*
X58500000Y-55250000D02*
X60250000Y-57000000D01*
D16*
X46750000Y-65250000D02*
X46000000Y-65250000D01*
X48700000Y-68750000D02*
X48700000Y-67200000D01*
X48700000Y-67200000D02*
X46750000Y-65250000D01*
D14*
G04 #@! TO.N,/emmc/EMMC_D0*
X56400000Y-58250000D02*
X56250000Y-58100000D01*
X56900000Y-58100000D02*
X56750000Y-58250000D01*
X56250000Y-58100000D02*
X56250000Y-56750000D01*
X63456250Y-59556250D02*
X60556250Y-59556250D01*
X56750000Y-58250000D02*
X56400000Y-58250000D01*
X64350000Y-60450000D02*
X63456250Y-59556250D01*
X60556250Y-59556250D02*
X58800000Y-57800000D01*
X58800000Y-57800000D02*
X57000000Y-57800000D01*
X57000000Y-57800000D02*
X56900000Y-57900000D01*
X56900000Y-57900000D02*
X56900000Y-58100000D01*
G04 #@! TD*
M02*
