G04 #@! TF.GenerationSoftware,KiCad,Pcbnew,5.0.2-bee76a0~70~ubuntu18.04.1*
G04 #@! TF.CreationDate,2019-02-19T22:04:26+08:00*
G04 #@! TF.ProjectId,require,72657175-6972-4652-9e6b-696361645f70,rev?*
G04 #@! TF.SameCoordinates,Original*
G04 #@! TF.FileFunction,Legend,Bot*
G04 #@! TF.FilePolarity,Positive*
%FSLAX46Y46*%
G04 Gerber Fmt 4.6, Leading zero omitted, Abs format (unit mm)*
G04 Created by KiCad (PCBNEW 5.0.2-bee76a0~70~ubuntu18.04.1) date 2019年02月19日 星期二 22时04分26秒*
%MOMM*%
%LPD*%
G01*
G04 APERTURE LIST*
%ADD10C,0.120000*%
%ADD11C,0.200000*%
%ADD12C,0.150000*%
G04 APERTURE END LIST*
D10*
G04 #@! TO.C,U40*
X90890000Y-70400000D02*
X90890000Y-68600000D01*
X94110000Y-68600000D02*
X94110000Y-71050000D01*
G04 #@! TO.C,R2*
X71425000Y-61142500D02*
X70925000Y-61142500D01*
X70925000Y-60082500D02*
X71425000Y-60082500D01*
D11*
G04 #@! TO.C,U994*
X59850000Y-55500000D02*
G75*
G03X59850000Y-55500000I-100000J0D01*
G01*
D12*
X59900000Y-56500000D02*
X59900000Y-58600000D01*
X58750000Y-55350000D02*
X59900000Y-56500000D01*
X57025000Y-55350000D02*
X58750000Y-55350000D01*
X59900000Y-68650000D02*
X59900000Y-65400000D01*
X57025000Y-68650000D02*
X59900000Y-68650000D01*
X48100000Y-55350000D02*
X48100000Y-58600000D01*
X50975000Y-55350000D02*
X48100000Y-55350000D01*
X48100000Y-68650000D02*
X48100000Y-65400000D01*
X50975000Y-68650000D02*
X48100000Y-68650000D01*
X48100000Y-55350000D02*
X48100000Y-58600000D01*
X50975000Y-55350000D02*
X48100000Y-55350000D01*
X48100000Y-55350000D02*
X48100000Y-58600000D01*
X50975000Y-55350000D02*
X48100000Y-55350000D01*
D10*
G04 #@! TO.C,U30*
X96110000Y-59600000D02*
X96110000Y-61400000D01*
X92890000Y-61400000D02*
X92890000Y-58950000D01*
G04 #@! TO.C,Y2*
X58362500Y-74312500D02*
X55062500Y-74312500D01*
X55062500Y-74312500D02*
X55062500Y-70312500D01*
G04 #@! TO.C,FB1*
X63287500Y-67720000D02*
X63787500Y-67720000D01*
X63787500Y-68780000D02*
X63287500Y-68780000D01*
G04 #@! TO.C,FB2*
X62000000Y-68780000D02*
X61500000Y-68780000D01*
X61500000Y-67720000D02*
X62000000Y-67720000D01*
G04 #@! TO.C,C907*
X52505000Y-72075000D02*
X52505000Y-71575000D01*
X53445000Y-71575000D02*
X53445000Y-72075000D01*
G04 #@! TO.C,C33*
X92250000Y-61220000D02*
X91750000Y-61220000D01*
X91750000Y-60280000D02*
X92250000Y-60280000D01*
G04 #@! TO.C,C34*
X90250000Y-62220000D02*
X89750000Y-62220000D01*
X89750000Y-61280000D02*
X90250000Y-61280000D01*
G04 #@! TO.C,C40*
X91700000Y-66780000D02*
X92200000Y-66780000D01*
X92200000Y-67720000D02*
X91700000Y-67720000D01*
G04 #@! TO.C,C43*
X94750000Y-70030000D02*
X95250000Y-70030000D01*
X95250000Y-70970000D02*
X94750000Y-70970000D01*
G04 #@! TO.C,C52*
X85750000Y-58130000D02*
X86250000Y-58130000D01*
X86250000Y-59070000D02*
X85750000Y-59070000D01*
G04 #@! TO.C,C53*
X86250000Y-60670000D02*
X85750000Y-60670000D01*
X85750000Y-59730000D02*
X86250000Y-59730000D01*
G04 #@! TO.C,C54*
X85750000Y-62130000D02*
X86250000Y-62130000D01*
X86250000Y-63070000D02*
X85750000Y-63070000D01*
G04 #@! TO.C,C55*
X85750000Y-63730000D02*
X86250000Y-63730000D01*
X86250000Y-64670000D02*
X85750000Y-64670000D01*
G04 #@! TO.C,C56*
X86250000Y-66270000D02*
X85750000Y-66270000D01*
X85750000Y-65330000D02*
X86250000Y-65330000D01*
G04 #@! TO.C,C57*
X86250000Y-69470000D02*
X85750000Y-69470000D01*
X85750000Y-68530000D02*
X86250000Y-68530000D01*
G04 #@! TO.C,C58*
X85750000Y-70130000D02*
X86250000Y-70130000D01*
X86250000Y-71070000D02*
X85750000Y-71070000D01*
G04 #@! TO.C,C59*
X76250000Y-59070000D02*
X75750000Y-59070000D01*
X75750000Y-58130000D02*
X76250000Y-58130000D01*
G04 #@! TO.C,C60*
X75750000Y-59730000D02*
X76250000Y-59730000D01*
X76250000Y-60670000D02*
X75750000Y-60670000D01*
G04 #@! TO.C,C61*
X76250000Y-63070000D02*
X75750000Y-63070000D01*
X75750000Y-62130000D02*
X76250000Y-62130000D01*
G04 #@! TO.C,C62*
X75750000Y-64930000D02*
X76250000Y-64930000D01*
X76250000Y-65870000D02*
X75750000Y-65870000D01*
G04 #@! TO.C,C63*
X76250000Y-67070000D02*
X75750000Y-67070000D01*
X75750000Y-66130000D02*
X76250000Y-66130000D01*
G04 #@! TO.C,C64*
X75750000Y-68530000D02*
X76250000Y-68530000D01*
X76250000Y-69470000D02*
X75750000Y-69470000D01*
G04 #@! TO.C,C65*
X76250000Y-71070000D02*
X75750000Y-71070000D01*
X75750000Y-70130000D02*
X76250000Y-70130000D01*
G04 #@! TO.C,C66*
X80650000Y-61630000D02*
X81150000Y-61630000D01*
X81150000Y-62570000D02*
X80650000Y-62570000D01*
G04 #@! TO.C,C67*
X75750000Y-63730000D02*
X76250000Y-63730000D01*
X76250000Y-64670000D02*
X75750000Y-64670000D01*
G04 #@! TO.C,C68*
X86250000Y-65470000D02*
X85750000Y-65470000D01*
X85750000Y-64530000D02*
X86250000Y-64530000D01*
G04 #@! TO.C,C71*
X67617500Y-60862500D02*
X67617500Y-60362500D01*
X68557500Y-60362500D02*
X68557500Y-60862500D01*
G04 #@! TO.C,C72*
X67745000Y-60362500D02*
X67745000Y-60862500D01*
X66805000Y-60862500D02*
X66805000Y-60362500D01*
G04 #@! TO.C,C73*
X65992500Y-60862500D02*
X65992500Y-60362500D01*
X66932500Y-60362500D02*
X66932500Y-60862500D01*
G04 #@! TO.C,C74*
X69370000Y-63450000D02*
X69370000Y-63950000D01*
X68430000Y-63950000D02*
X68430000Y-63450000D01*
G04 #@! TO.C,C75*
X64530000Y-62650000D02*
X64530000Y-62150000D01*
X65470000Y-62150000D02*
X65470000Y-62650000D01*
G04 #@! TO.C,C76*
X62000000Y-67420000D02*
X61500000Y-67420000D01*
X61500000Y-66480000D02*
X62000000Y-66480000D01*
G04 #@! TO.C,C77*
X64170000Y-64812500D02*
X64170000Y-65312500D01*
X63230000Y-65312500D02*
X63230000Y-64812500D01*
G04 #@! TO.C,C81*
X66317500Y-65312500D02*
X66317500Y-64812500D01*
X67257500Y-64812500D02*
X67257500Y-65312500D01*
G04 #@! TO.C,C82*
X68070000Y-64812500D02*
X68070000Y-65312500D01*
X67130000Y-65312500D02*
X67130000Y-64812500D01*
G04 #@! TO.C,C84*
X61470000Y-69950000D02*
X61470000Y-70450000D01*
X60530000Y-70450000D02*
X60530000Y-69950000D01*
G04 #@! TO.C,C85*
X61380000Y-70450000D02*
X61380000Y-69950000D01*
X62320000Y-69950000D02*
X62320000Y-70450000D01*
G04 #@! TO.C,C86*
X63287500Y-68592500D02*
X63787500Y-68592500D01*
X63787500Y-69532500D02*
X63287500Y-69532500D01*
G04 #@! TO.C,C87*
X63287500Y-69405000D02*
X63787500Y-69405000D01*
X63787500Y-70345000D02*
X63287500Y-70345000D01*
G04 #@! TO.C,C88*
X63032500Y-73525000D02*
X63032500Y-74025000D01*
X62092500Y-74025000D02*
X62092500Y-73525000D01*
G04 #@! TO.C,C90*
X56462500Y-69405000D02*
X56962500Y-69405000D01*
X56962500Y-70345000D02*
X56462500Y-70345000D01*
G04 #@! TO.C,C91*
X55070000Y-73525000D02*
X55070000Y-74025000D01*
X54130000Y-74025000D02*
X54130000Y-73525000D01*
G04 #@! TO.C,C69*
X85750000Y-67730000D02*
X86250000Y-67730000D01*
X86250000Y-68670000D02*
X85750000Y-68670000D01*
G04 #@! TO.C,R30*
X91750000Y-59220000D02*
X92250000Y-59220000D01*
X92250000Y-60280000D02*
X91750000Y-60280000D01*
G04 #@! TO.C,R32*
X91750000Y-61220000D02*
X92250000Y-61220000D01*
X92250000Y-62280000D02*
X91750000Y-62280000D01*
G04 #@! TO.C,R33*
X92250000Y-63280000D02*
X91750000Y-63280000D01*
X91750000Y-62220000D02*
X92250000Y-62220000D01*
G04 #@! TO.C,R34*
X90250000Y-63280000D02*
X89750000Y-63280000D01*
X89750000Y-62220000D02*
X90250000Y-62220000D01*
G04 #@! TO.C,R35*
X90250000Y-61280000D02*
X89750000Y-61280000D01*
X89750000Y-60220000D02*
X90250000Y-60220000D01*
G04 #@! TO.C,R36*
X89750000Y-59220000D02*
X90250000Y-59220000D01*
X90250000Y-60280000D02*
X89750000Y-60280000D01*
G04 #@! TO.C,R37*
X90250000Y-59280000D02*
X89750000Y-59280000D01*
X89750000Y-58220000D02*
X90250000Y-58220000D01*
G04 #@! TO.C,R41*
X94750000Y-68970000D02*
X95250000Y-68970000D01*
X95250000Y-70030000D02*
X94750000Y-70030000D01*
G04 #@! TO.C,R42*
X94750000Y-67970000D02*
X95250000Y-67970000D01*
X95250000Y-69030000D02*
X94750000Y-69030000D01*
G04 #@! TO.C,R46*
X60407500Y-74025000D02*
X60407500Y-73525000D01*
X61467500Y-73525000D02*
X61467500Y-74025000D01*
G04 #@! TO.C,R47*
X61662500Y-71620000D02*
X62162500Y-71620000D01*
X62162500Y-72680000D02*
X61662500Y-72680000D01*
G04 #@! TO.C,R50*
X86250000Y-67930000D02*
X85750000Y-67930000D01*
X85750000Y-66870000D02*
X86250000Y-66870000D01*
G04 #@! TO.C,R51*
X80650000Y-63270000D02*
X81150000Y-63270000D01*
X81150000Y-64330000D02*
X80650000Y-64330000D01*
G04 #@! TO.C,R52*
X80650000Y-62370000D02*
X81150000Y-62370000D01*
X81150000Y-63430000D02*
X80650000Y-63430000D01*
G04 #@! TO.C,R53*
X83650000Y-66330000D02*
X83150000Y-66330000D01*
X83150000Y-65270000D02*
X83650000Y-65270000D01*
G04 #@! TO.C,R54*
X83650000Y-65530000D02*
X83150000Y-65530000D01*
X83150000Y-64470000D02*
X83650000Y-64470000D01*
G04 #@! TO.C,R1*
X70925000Y-61057500D02*
X71425000Y-61057500D01*
X71425000Y-62117500D02*
X70925000Y-62117500D01*
G04 #@! TO.C,R62*
X70925000Y-62520000D02*
X71425000Y-62520000D01*
X71425000Y-63580000D02*
X70925000Y-63580000D01*
G04 #@! TO.C,R72*
X63787500Y-71217500D02*
X63287500Y-71217500D01*
X63287500Y-70157500D02*
X63787500Y-70157500D01*
G04 #@! TO.C,R91*
X55130000Y-70925000D02*
X55130000Y-71425000D01*
X54070000Y-71425000D02*
X54070000Y-70925000D01*
G04 #@! TO.C,C908*
X51237500Y-71475000D02*
X51237500Y-72175000D01*
X52437500Y-72175000D02*
X52437500Y-71475000D01*
G04 #@! TO.C,C70*
X69662500Y-60962500D02*
X69662500Y-60262500D01*
X68462500Y-60262500D02*
X68462500Y-60962500D01*
G04 #@! TO.C,C78*
X64075000Y-64912500D02*
X64075000Y-65612500D01*
X65275000Y-65612500D02*
X65275000Y-64912500D01*
G04 #@! TO.C,C80*
X65212500Y-64912500D02*
X65212500Y-65612500D01*
X66412500Y-65612500D02*
X66412500Y-64912500D01*
G04 #@! TO.C,R60*
X64230000Y-60525000D02*
X64230000Y-61025000D01*
X63170000Y-61025000D02*
X63170000Y-60525000D01*
G04 #@! TO.C,R69*
X66017500Y-73525000D02*
X66017500Y-74025000D01*
X64957500Y-74025000D02*
X64957500Y-73525000D01*
G04 #@! TO.C,R68*
X64067500Y-73525000D02*
X64067500Y-74025000D01*
X63007500Y-74025000D02*
X63007500Y-73525000D01*
D12*
G04 #@! TO.C,D5*
X65012500Y-74275000D02*
X65012500Y-73275000D01*
X64012500Y-74275000D02*
X64012500Y-73275000D01*
X64012500Y-74275000D02*
X63812500Y-74275000D01*
D10*
G04 #@! TO.C,R63*
X59270000Y-70450000D02*
X59270000Y-69950000D01*
X60330000Y-69950000D02*
X60330000Y-70450000D01*
G04 #@! TO.C,R64*
X60330000Y-71575000D02*
X60330000Y-72075000D01*
X59270000Y-72075000D02*
X59270000Y-71575000D01*
D12*
G04 #@! TO.C,D6*
X60300000Y-74275000D02*
X60300000Y-73275000D01*
X59300000Y-74275000D02*
X59300000Y-73275000D01*
X59300000Y-74275000D02*
X59100000Y-74275000D01*
D10*
G04 #@! TO.C,C25*
X69080000Y-58100000D02*
X69080000Y-57600000D01*
X70020000Y-57600000D02*
X70020000Y-58100000D01*
D12*
G04 #@! TO.C,U8*
X69925000Y-55775000D02*
X69925000Y-55275000D01*
X69925000Y-55275000D02*
X70425000Y-55275000D01*
X69925000Y-59275000D02*
X69925000Y-59775000D01*
X69925000Y-59775000D02*
X70425000Y-59775000D01*
X72425000Y-55775000D02*
X72425000Y-55275000D01*
X72425000Y-55275000D02*
X71925000Y-55275000D01*
X71925000Y-59775000D02*
X72425000Y-59775000D01*
X72425000Y-59775000D02*
X72425000Y-59275000D01*
X70675000Y-54775000D02*
G75*
G03X70675000Y-54775000I-250000J0D01*
G01*
D10*
G04 #@! TO.C,C18*
X92150000Y-66850000D02*
X92850000Y-66850000D01*
X92850000Y-65650000D02*
X92150000Y-65650000D01*
G04 #@! TO.C,C32*
X92600000Y-57100000D02*
X92600000Y-56400000D01*
X91400000Y-56400000D02*
X91400000Y-57100000D01*
G04 #@! TO.C,C332*
X90150000Y-56400000D02*
X90150000Y-57100000D01*
X91350000Y-57100000D02*
X91350000Y-56400000D01*
G04 #@! TO.C,C42*
X95600000Y-72850000D02*
X95600000Y-72150000D01*
X94400000Y-72150000D02*
X94400000Y-72850000D01*
G04 #@! TO.C,C267*
X94850000Y-63150000D02*
X94150000Y-63150000D01*
X94150000Y-64350000D02*
X94850000Y-64350000D01*
G04 #@! TO.C,C200*
X95300000Y-63220000D02*
X94800000Y-63220000D01*
X94800000Y-62280000D02*
X95300000Y-62280000D01*
G04 #@! TO.C,R200*
X92250000Y-59280000D02*
X91750000Y-59280000D01*
X91750000Y-58220000D02*
X92250000Y-58220000D01*
G04 #@! TO.C,C50*
X86350000Y-56400000D02*
X85650000Y-56400000D01*
X85650000Y-57600000D02*
X86350000Y-57600000D01*
G04 #@! TO.C,C51*
X85650000Y-73600000D02*
X86350000Y-73600000D01*
X86350000Y-72400000D02*
X85650000Y-72400000D01*
D12*
G04 #@! TO.C,Q1*
X61350000Y-73275000D02*
X61350000Y-74175000D01*
X62150000Y-73275000D02*
X62150000Y-74175000D01*
X61650000Y-73075000D02*
X61350000Y-73075000D01*
X61350000Y-73075000D02*
X61350000Y-73275000D01*
D10*
G04 #@! TO.C,D400*
X64462500Y-56581250D02*
X66312500Y-56581250D01*
X64462500Y-55381250D02*
X66312500Y-55381250D01*
X66312500Y-55381250D02*
X66312500Y-56581250D01*
G04 #@! TO.C,C500*
X63357500Y-64812500D02*
X63357500Y-65312500D01*
X62417500Y-65312500D02*
X62417500Y-64812500D01*
D12*
G04 #@! TO.C,U500*
X61150000Y-64400000D02*
X61150000Y-65600000D01*
X62350000Y-64400000D02*
X62350000Y-65600000D01*
X61150000Y-64400000D02*
X60750000Y-64400000D01*
D10*
G04 #@! TO.C,C501*
X61500000Y-63230000D02*
X62000000Y-63230000D01*
X62000000Y-64170000D02*
X61500000Y-64170000D01*
G04 #@! TO.C,U40*
D12*
X93428571Y-62589285D02*
X93428571Y-63196428D01*
X93392857Y-63267857D01*
X93357142Y-63303571D01*
X93285714Y-63339285D01*
X93142857Y-63339285D01*
X93071428Y-63303571D01*
X93035714Y-63267857D01*
X93000000Y-63196428D01*
X93000000Y-62589285D01*
X92321428Y-62839285D02*
X92321428Y-63339285D01*
X92500000Y-62553571D02*
X92678571Y-63089285D01*
X92214285Y-63089285D01*
X91785714Y-62589285D02*
X91714285Y-62589285D01*
X91642857Y-62625000D01*
X91607142Y-62660714D01*
X91571428Y-62732142D01*
X91535714Y-62875000D01*
X91535714Y-63053571D01*
X91571428Y-63196428D01*
X91607142Y-63267857D01*
X91642857Y-63303571D01*
X91714285Y-63339285D01*
X91785714Y-63339285D01*
X91857142Y-63303571D01*
X91892857Y-63267857D01*
X91928571Y-63196428D01*
X91964285Y-63053571D01*
X91964285Y-62875000D01*
X91928571Y-62732142D01*
X91892857Y-62660714D01*
X91857142Y-62625000D01*
X91785714Y-62589285D01*
G04 #@! TO.C,L30*
X95444642Y-66839285D02*
X95801785Y-66839285D01*
X95801785Y-66089285D01*
X95266071Y-66089285D02*
X94801785Y-66089285D01*
X95051785Y-66375000D01*
X94944642Y-66375000D01*
X94873214Y-66410714D01*
X94837500Y-66446428D01*
X94801785Y-66517857D01*
X94801785Y-66696428D01*
X94837500Y-66767857D01*
X94873214Y-66803571D01*
X94944642Y-66839285D01*
X95158928Y-66839285D01*
X95230357Y-66803571D01*
X95266071Y-66767857D01*
X94337500Y-66089285D02*
X94266071Y-66089285D01*
X94194642Y-66125000D01*
X94158928Y-66160714D01*
X94123214Y-66232142D01*
X94087500Y-66375000D01*
X94087500Y-66553571D01*
X94123214Y-66696428D01*
X94158928Y-66767857D01*
X94194642Y-66803571D01*
X94266071Y-66839285D01*
X94337500Y-66839285D01*
X94408928Y-66803571D01*
X94444642Y-66767857D01*
X94480357Y-66696428D01*
X94516071Y-66553571D01*
X94516071Y-66375000D01*
X94480357Y-66232142D01*
X94444642Y-66160714D01*
X94408928Y-66125000D01*
X94337500Y-66089285D01*
G04 #@! TO.C,L40*
X92982142Y-64355867D02*
X93339285Y-64355867D01*
X93339285Y-63605867D01*
X92410714Y-63855867D02*
X92410714Y-64355867D01*
X92589285Y-63570153D02*
X92767857Y-64105867D01*
X92303571Y-64105867D01*
X91875000Y-63605867D02*
X91803571Y-63605867D01*
X91732142Y-63641582D01*
X91696428Y-63677296D01*
X91660714Y-63748724D01*
X91625000Y-63891582D01*
X91625000Y-64070153D01*
X91660714Y-64213010D01*
X91696428Y-64284439D01*
X91732142Y-64320153D01*
X91803571Y-64355867D01*
X91875000Y-64355867D01*
X91946428Y-64320153D01*
X91982142Y-64284439D01*
X92017857Y-64213010D01*
X92053571Y-64070153D01*
X92053571Y-63891582D01*
X92017857Y-63748724D01*
X91982142Y-63677296D01*
X91946428Y-63641582D01*
X91875000Y-63605867D01*
G04 #@! TO.C,L2*
X52050000Y-71989285D02*
X52407142Y-71989285D01*
X52407142Y-71239285D01*
X51835714Y-71310714D02*
X51800000Y-71275000D01*
X51728571Y-71239285D01*
X51550000Y-71239285D01*
X51478571Y-71275000D01*
X51442857Y-71310714D01*
X51407142Y-71382142D01*
X51407142Y-71453571D01*
X51442857Y-71560714D01*
X51871428Y-71989285D01*
X51407142Y-71989285D01*
G04 #@! TO.C,R2*
X73200000Y-60951785D02*
X73450000Y-60594642D01*
X73628571Y-60951785D02*
X73628571Y-60201785D01*
X73342857Y-60201785D01*
X73271428Y-60237500D01*
X73235714Y-60273214D01*
X73200000Y-60344642D01*
X73200000Y-60451785D01*
X73235714Y-60523214D01*
X73271428Y-60558928D01*
X73342857Y-60594642D01*
X73628571Y-60594642D01*
X72914285Y-60273214D02*
X72878571Y-60237500D01*
X72807142Y-60201785D01*
X72628571Y-60201785D01*
X72557142Y-60237500D01*
X72521428Y-60273214D01*
X72485714Y-60344642D01*
X72485714Y-60416071D01*
X72521428Y-60523214D01*
X72950000Y-60951785D01*
X72485714Y-60951785D01*
G04 #@! TO.C,U994*
X47285714Y-55589285D02*
X47285714Y-56196428D01*
X47250000Y-56267857D01*
X47214285Y-56303571D01*
X47142857Y-56339285D01*
X47000000Y-56339285D01*
X46928571Y-56303571D01*
X46892857Y-56267857D01*
X46857142Y-56196428D01*
X46857142Y-55589285D01*
X46464285Y-56339285D02*
X46321428Y-56339285D01*
X46250000Y-56303571D01*
X46214285Y-56267857D01*
X46142857Y-56160714D01*
X46107142Y-56017857D01*
X46107142Y-55732142D01*
X46142857Y-55660714D01*
X46178571Y-55625000D01*
X46250000Y-55589285D01*
X46392857Y-55589285D01*
X46464285Y-55625000D01*
X46500000Y-55660714D01*
X46535714Y-55732142D01*
X46535714Y-55910714D01*
X46500000Y-55982142D01*
X46464285Y-56017857D01*
X46392857Y-56053571D01*
X46250000Y-56053571D01*
X46178571Y-56017857D01*
X46142857Y-55982142D01*
X46107142Y-55910714D01*
X45750000Y-56339285D02*
X45607142Y-56339285D01*
X45535714Y-56303571D01*
X45500000Y-56267857D01*
X45428571Y-56160714D01*
X45392857Y-56017857D01*
X45392857Y-55732142D01*
X45428571Y-55660714D01*
X45464285Y-55625000D01*
X45535714Y-55589285D01*
X45678571Y-55589285D01*
X45750000Y-55625000D01*
X45785714Y-55660714D01*
X45821428Y-55732142D01*
X45821428Y-55910714D01*
X45785714Y-55982142D01*
X45750000Y-56017857D01*
X45678571Y-56053571D01*
X45535714Y-56053571D01*
X45464285Y-56017857D01*
X45428571Y-55982142D01*
X45392857Y-55910714D01*
X44750000Y-55839285D02*
X44750000Y-56339285D01*
X44928571Y-55553571D02*
X45107142Y-56089285D01*
X44642857Y-56089285D01*
G04 #@! TO.C,U30*
X95891071Y-67976785D02*
X95891071Y-68583928D01*
X95855357Y-68655357D01*
X95819642Y-68691071D01*
X95748214Y-68726785D01*
X95605357Y-68726785D01*
X95533928Y-68691071D01*
X95498214Y-68655357D01*
X95462500Y-68583928D01*
X95462500Y-67976785D01*
X95176785Y-67976785D02*
X94712500Y-67976785D01*
X94962500Y-68262500D01*
X94855357Y-68262500D01*
X94783928Y-68298214D01*
X94748214Y-68333928D01*
X94712500Y-68405357D01*
X94712500Y-68583928D01*
X94748214Y-68655357D01*
X94783928Y-68691071D01*
X94855357Y-68726785D01*
X95069642Y-68726785D01*
X95141071Y-68691071D01*
X95176785Y-68655357D01*
X94248214Y-67976785D02*
X94176785Y-67976785D01*
X94105357Y-68012500D01*
X94069642Y-68048214D01*
X94033928Y-68119642D01*
X93998214Y-68262500D01*
X93998214Y-68441071D01*
X94033928Y-68583928D01*
X94069642Y-68655357D01*
X94105357Y-68691071D01*
X94176785Y-68726785D01*
X94248214Y-68726785D01*
X94319642Y-68691071D01*
X94355357Y-68655357D01*
X94391071Y-68583928D01*
X94426785Y-68441071D01*
X94426785Y-68262500D01*
X94391071Y-68119642D01*
X94355357Y-68048214D01*
X94319642Y-68012500D01*
X94248214Y-67976785D01*
G04 #@! TO.C,Y2*
X57069642Y-74982142D02*
X57069642Y-75339285D01*
X57319642Y-74589285D02*
X57069642Y-74982142D01*
X56819642Y-74589285D01*
X56605357Y-74660714D02*
X56569642Y-74625000D01*
X56498214Y-74589285D01*
X56319642Y-74589285D01*
X56248214Y-74625000D01*
X56212500Y-74660714D01*
X56176785Y-74732142D01*
X56176785Y-74803571D01*
X56212500Y-74910714D01*
X56641071Y-75339285D01*
X56176785Y-75339285D01*
G04 #@! TO.C,FB1*
X64125000Y-66946428D02*
X64375000Y-66946428D01*
X64375000Y-67339285D02*
X64375000Y-66589285D01*
X64017857Y-66589285D01*
X63482142Y-66946428D02*
X63375000Y-66982142D01*
X63339285Y-67017857D01*
X63303571Y-67089285D01*
X63303571Y-67196428D01*
X63339285Y-67267857D01*
X63375000Y-67303571D01*
X63446428Y-67339285D01*
X63732142Y-67339285D01*
X63732142Y-66589285D01*
X63482142Y-66589285D01*
X63410714Y-66625000D01*
X63375000Y-66660714D01*
X63339285Y-66732142D01*
X63339285Y-66803571D01*
X63375000Y-66875000D01*
X63410714Y-66910714D01*
X63482142Y-66946428D01*
X63732142Y-66946428D01*
X62589285Y-67339285D02*
X63017857Y-67339285D01*
X62803571Y-67339285D02*
X62803571Y-66589285D01*
X62875000Y-66696428D01*
X62946428Y-66767857D01*
X63017857Y-66803571D01*
G04 #@! TO.C,FB2*
X62450000Y-66946428D02*
X62700000Y-66946428D01*
X62700000Y-67339285D02*
X62700000Y-66589285D01*
X62342857Y-66589285D01*
X61807142Y-66946428D02*
X61700000Y-66982142D01*
X61664285Y-67017857D01*
X61628571Y-67089285D01*
X61628571Y-67196428D01*
X61664285Y-67267857D01*
X61700000Y-67303571D01*
X61771428Y-67339285D01*
X62057142Y-67339285D01*
X62057142Y-66589285D01*
X61807142Y-66589285D01*
X61735714Y-66625000D01*
X61700000Y-66660714D01*
X61664285Y-66732142D01*
X61664285Y-66803571D01*
X61700000Y-66875000D01*
X61735714Y-66910714D01*
X61807142Y-66946428D01*
X62057142Y-66946428D01*
X61342857Y-66660714D02*
X61307142Y-66625000D01*
X61235714Y-66589285D01*
X61057142Y-66589285D01*
X60985714Y-66625000D01*
X60950000Y-66660714D01*
X60914285Y-66732142D01*
X60914285Y-66803571D01*
X60950000Y-66910714D01*
X61378571Y-67339285D01*
X60914285Y-67339285D01*
G04 #@! TO.C,C907*
X53242857Y-72985714D02*
X53278571Y-72950000D01*
X53314285Y-72842857D01*
X53314285Y-72771428D01*
X53278571Y-72664285D01*
X53207142Y-72592857D01*
X53135714Y-72557142D01*
X52992857Y-72521428D01*
X52885714Y-72521428D01*
X52742857Y-72557142D01*
X52671428Y-72592857D01*
X52600000Y-72664285D01*
X52564285Y-72771428D01*
X52564285Y-72842857D01*
X52600000Y-72950000D01*
X52635714Y-72985714D01*
X53314285Y-73342857D02*
X53314285Y-73485714D01*
X53278571Y-73557142D01*
X53242857Y-73592857D01*
X53135714Y-73664285D01*
X52992857Y-73700000D01*
X52707142Y-73700000D01*
X52635714Y-73664285D01*
X52600000Y-73628571D01*
X52564285Y-73557142D01*
X52564285Y-73414285D01*
X52600000Y-73342857D01*
X52635714Y-73307142D01*
X52707142Y-73271428D01*
X52885714Y-73271428D01*
X52957142Y-73307142D01*
X52992857Y-73342857D01*
X53028571Y-73414285D01*
X53028571Y-73557142D01*
X52992857Y-73628571D01*
X52957142Y-73664285D01*
X52885714Y-73700000D01*
X52564285Y-74164285D02*
X52564285Y-74235714D01*
X52600000Y-74307142D01*
X52635714Y-74342857D01*
X52707142Y-74378571D01*
X52850000Y-74414285D01*
X53028571Y-74414285D01*
X53171428Y-74378571D01*
X53242857Y-74342857D01*
X53278571Y-74307142D01*
X53314285Y-74235714D01*
X53314285Y-74164285D01*
X53278571Y-74092857D01*
X53242857Y-74057142D01*
X53171428Y-74021428D01*
X53028571Y-73985714D01*
X52850000Y-73985714D01*
X52707142Y-74021428D01*
X52635714Y-74057142D01*
X52600000Y-74092857D01*
X52564285Y-74164285D01*
X52564285Y-74664285D02*
X52564285Y-75164285D01*
X53314285Y-74842857D01*
G04 #@! TO.C,C33*
X89982142Y-61017857D02*
X90017857Y-61053571D01*
X90125000Y-61089285D01*
X90196428Y-61089285D01*
X90303571Y-61053571D01*
X90375000Y-60982142D01*
X90410714Y-60910714D01*
X90446428Y-60767857D01*
X90446428Y-60660714D01*
X90410714Y-60517857D01*
X90375000Y-60446428D01*
X90303571Y-60375000D01*
X90196428Y-60339285D01*
X90125000Y-60339285D01*
X90017857Y-60375000D01*
X89982142Y-60410714D01*
X89732142Y-60339285D02*
X89267857Y-60339285D01*
X89517857Y-60625000D01*
X89410714Y-60625000D01*
X89339285Y-60660714D01*
X89303571Y-60696428D01*
X89267857Y-60767857D01*
X89267857Y-60946428D01*
X89303571Y-61017857D01*
X89339285Y-61053571D01*
X89410714Y-61089285D01*
X89625000Y-61089285D01*
X89696428Y-61053571D01*
X89732142Y-61017857D01*
X89017857Y-60339285D02*
X88553571Y-60339285D01*
X88803571Y-60625000D01*
X88696428Y-60625000D01*
X88625000Y-60660714D01*
X88589285Y-60696428D01*
X88553571Y-60767857D01*
X88553571Y-60946428D01*
X88589285Y-61017857D01*
X88625000Y-61053571D01*
X88696428Y-61089285D01*
X88910714Y-61089285D01*
X88982142Y-61053571D01*
X89017857Y-61017857D01*
G04 #@! TO.C,C34*
X92982142Y-62017857D02*
X93017857Y-62053571D01*
X93125000Y-62089285D01*
X93196428Y-62089285D01*
X93303571Y-62053571D01*
X93375000Y-61982142D01*
X93410714Y-61910714D01*
X93446428Y-61767857D01*
X93446428Y-61660714D01*
X93410714Y-61517857D01*
X93375000Y-61446428D01*
X93303571Y-61375000D01*
X93196428Y-61339285D01*
X93125000Y-61339285D01*
X93017857Y-61375000D01*
X92982142Y-61410714D01*
X92732142Y-61339285D02*
X92267857Y-61339285D01*
X92517857Y-61625000D01*
X92410714Y-61625000D01*
X92339285Y-61660714D01*
X92303571Y-61696428D01*
X92267857Y-61767857D01*
X92267857Y-61946428D01*
X92303571Y-62017857D01*
X92339285Y-62053571D01*
X92410714Y-62089285D01*
X92625000Y-62089285D01*
X92696428Y-62053571D01*
X92732142Y-62017857D01*
X91625000Y-61589285D02*
X91625000Y-62089285D01*
X91803571Y-61303571D02*
X91982142Y-61839285D01*
X91517857Y-61839285D01*
G04 #@! TO.C,C40*
X92432142Y-62517857D02*
X92467857Y-62553571D01*
X92575000Y-62589285D01*
X92646428Y-62589285D01*
X92753571Y-62553571D01*
X92825000Y-62482142D01*
X92860714Y-62410714D01*
X92896428Y-62267857D01*
X92896428Y-62160714D01*
X92860714Y-62017857D01*
X92825000Y-61946428D01*
X92753571Y-61875000D01*
X92646428Y-61839285D01*
X92575000Y-61839285D01*
X92467857Y-61875000D01*
X92432142Y-61910714D01*
X91789285Y-62089285D02*
X91789285Y-62589285D01*
X91967857Y-61803571D02*
X92146428Y-62339285D01*
X91682142Y-62339285D01*
X91253571Y-61839285D02*
X91182142Y-61839285D01*
X91110714Y-61875000D01*
X91075000Y-61910714D01*
X91039285Y-61982142D01*
X91003571Y-62125000D01*
X91003571Y-62303571D01*
X91039285Y-62446428D01*
X91075000Y-62517857D01*
X91110714Y-62553571D01*
X91182142Y-62589285D01*
X91253571Y-62589285D01*
X91325000Y-62553571D01*
X91360714Y-62517857D01*
X91396428Y-62446428D01*
X91432142Y-62303571D01*
X91432142Y-62125000D01*
X91396428Y-61982142D01*
X91360714Y-61910714D01*
X91325000Y-61875000D01*
X91253571Y-61839285D01*
G04 #@! TO.C,C43*
X95482142Y-65767857D02*
X95517857Y-65803571D01*
X95625000Y-65839285D01*
X95696428Y-65839285D01*
X95803571Y-65803571D01*
X95875000Y-65732142D01*
X95910714Y-65660714D01*
X95946428Y-65517857D01*
X95946428Y-65410714D01*
X95910714Y-65267857D01*
X95875000Y-65196428D01*
X95803571Y-65125000D01*
X95696428Y-65089285D01*
X95625000Y-65089285D01*
X95517857Y-65125000D01*
X95482142Y-65160714D01*
X94839285Y-65339285D02*
X94839285Y-65839285D01*
X95017857Y-65053571D02*
X95196428Y-65589285D01*
X94732142Y-65589285D01*
X94517857Y-65089285D02*
X94053571Y-65089285D01*
X94303571Y-65375000D01*
X94196428Y-65375000D01*
X94125000Y-65410714D01*
X94089285Y-65446428D01*
X94053571Y-65517857D01*
X94053571Y-65696428D01*
X94089285Y-65767857D01*
X94125000Y-65803571D01*
X94196428Y-65839285D01*
X94410714Y-65839285D01*
X94482142Y-65803571D01*
X94517857Y-65767857D01*
G04 #@! TO.C,C52*
X83982142Y-58867857D02*
X84017857Y-58903571D01*
X84125000Y-58939285D01*
X84196428Y-58939285D01*
X84303571Y-58903571D01*
X84375000Y-58832142D01*
X84410714Y-58760714D01*
X84446428Y-58617857D01*
X84446428Y-58510714D01*
X84410714Y-58367857D01*
X84375000Y-58296428D01*
X84303571Y-58225000D01*
X84196428Y-58189285D01*
X84125000Y-58189285D01*
X84017857Y-58225000D01*
X83982142Y-58260714D01*
X83303571Y-58189285D02*
X83660714Y-58189285D01*
X83696428Y-58546428D01*
X83660714Y-58510714D01*
X83589285Y-58475000D01*
X83410714Y-58475000D01*
X83339285Y-58510714D01*
X83303571Y-58546428D01*
X83267857Y-58617857D01*
X83267857Y-58796428D01*
X83303571Y-58867857D01*
X83339285Y-58903571D01*
X83410714Y-58939285D01*
X83589285Y-58939285D01*
X83660714Y-58903571D01*
X83696428Y-58867857D01*
X82982142Y-58260714D02*
X82946428Y-58225000D01*
X82875000Y-58189285D01*
X82696428Y-58189285D01*
X82625000Y-58225000D01*
X82589285Y-58260714D01*
X82553571Y-58332142D01*
X82553571Y-58403571D01*
X82589285Y-58510714D01*
X83017857Y-58939285D01*
X82553571Y-58939285D01*
G04 #@! TO.C,C53*
X83982142Y-60467857D02*
X84017857Y-60503571D01*
X84125000Y-60539285D01*
X84196428Y-60539285D01*
X84303571Y-60503571D01*
X84375000Y-60432142D01*
X84410714Y-60360714D01*
X84446428Y-60217857D01*
X84446428Y-60110714D01*
X84410714Y-59967857D01*
X84375000Y-59896428D01*
X84303571Y-59825000D01*
X84196428Y-59789285D01*
X84125000Y-59789285D01*
X84017857Y-59825000D01*
X83982142Y-59860714D01*
X83303571Y-59789285D02*
X83660714Y-59789285D01*
X83696428Y-60146428D01*
X83660714Y-60110714D01*
X83589285Y-60075000D01*
X83410714Y-60075000D01*
X83339285Y-60110714D01*
X83303571Y-60146428D01*
X83267857Y-60217857D01*
X83267857Y-60396428D01*
X83303571Y-60467857D01*
X83339285Y-60503571D01*
X83410714Y-60539285D01*
X83589285Y-60539285D01*
X83660714Y-60503571D01*
X83696428Y-60467857D01*
X83017857Y-59789285D02*
X82553571Y-59789285D01*
X82803571Y-60075000D01*
X82696428Y-60075000D01*
X82625000Y-60110714D01*
X82589285Y-60146428D01*
X82553571Y-60217857D01*
X82553571Y-60396428D01*
X82589285Y-60467857D01*
X82625000Y-60503571D01*
X82696428Y-60539285D01*
X82910714Y-60539285D01*
X82982142Y-60503571D01*
X83017857Y-60467857D01*
G04 #@! TO.C,C54*
X83982142Y-62867857D02*
X84017857Y-62903571D01*
X84125000Y-62939285D01*
X84196428Y-62939285D01*
X84303571Y-62903571D01*
X84375000Y-62832142D01*
X84410714Y-62760714D01*
X84446428Y-62617857D01*
X84446428Y-62510714D01*
X84410714Y-62367857D01*
X84375000Y-62296428D01*
X84303571Y-62225000D01*
X84196428Y-62189285D01*
X84125000Y-62189285D01*
X84017857Y-62225000D01*
X83982142Y-62260714D01*
X83303571Y-62189285D02*
X83660714Y-62189285D01*
X83696428Y-62546428D01*
X83660714Y-62510714D01*
X83589285Y-62475000D01*
X83410714Y-62475000D01*
X83339285Y-62510714D01*
X83303571Y-62546428D01*
X83267857Y-62617857D01*
X83267857Y-62796428D01*
X83303571Y-62867857D01*
X83339285Y-62903571D01*
X83410714Y-62939285D01*
X83589285Y-62939285D01*
X83660714Y-62903571D01*
X83696428Y-62867857D01*
X82625000Y-62439285D02*
X82625000Y-62939285D01*
X82803571Y-62153571D02*
X82982142Y-62689285D01*
X82517857Y-62689285D01*
G04 #@! TO.C,C55*
X83982142Y-64267857D02*
X84017857Y-64303571D01*
X84125000Y-64339285D01*
X84196428Y-64339285D01*
X84303571Y-64303571D01*
X84375000Y-64232142D01*
X84410714Y-64160714D01*
X84446428Y-64017857D01*
X84446428Y-63910714D01*
X84410714Y-63767857D01*
X84375000Y-63696428D01*
X84303571Y-63625000D01*
X84196428Y-63589285D01*
X84125000Y-63589285D01*
X84017857Y-63625000D01*
X83982142Y-63660714D01*
X83303571Y-63589285D02*
X83660714Y-63589285D01*
X83696428Y-63946428D01*
X83660714Y-63910714D01*
X83589285Y-63875000D01*
X83410714Y-63875000D01*
X83339285Y-63910714D01*
X83303571Y-63946428D01*
X83267857Y-64017857D01*
X83267857Y-64196428D01*
X83303571Y-64267857D01*
X83339285Y-64303571D01*
X83410714Y-64339285D01*
X83589285Y-64339285D01*
X83660714Y-64303571D01*
X83696428Y-64267857D01*
X82589285Y-63589285D02*
X82946428Y-63589285D01*
X82982142Y-63946428D01*
X82946428Y-63910714D01*
X82875000Y-63875000D01*
X82696428Y-63875000D01*
X82625000Y-63910714D01*
X82589285Y-63946428D01*
X82553571Y-64017857D01*
X82553571Y-64196428D01*
X82589285Y-64267857D01*
X82625000Y-64303571D01*
X82696428Y-64339285D01*
X82875000Y-64339285D01*
X82946428Y-64303571D01*
X82982142Y-64267857D01*
G04 #@! TO.C,C56*
X81482142Y-65867857D02*
X81517857Y-65903571D01*
X81625000Y-65939285D01*
X81696428Y-65939285D01*
X81803571Y-65903571D01*
X81875000Y-65832142D01*
X81910714Y-65760714D01*
X81946428Y-65617857D01*
X81946428Y-65510714D01*
X81910714Y-65367857D01*
X81875000Y-65296428D01*
X81803571Y-65225000D01*
X81696428Y-65189285D01*
X81625000Y-65189285D01*
X81517857Y-65225000D01*
X81482142Y-65260714D01*
X80803571Y-65189285D02*
X81160714Y-65189285D01*
X81196428Y-65546428D01*
X81160714Y-65510714D01*
X81089285Y-65475000D01*
X80910714Y-65475000D01*
X80839285Y-65510714D01*
X80803571Y-65546428D01*
X80767857Y-65617857D01*
X80767857Y-65796428D01*
X80803571Y-65867857D01*
X80839285Y-65903571D01*
X80910714Y-65939285D01*
X81089285Y-65939285D01*
X81160714Y-65903571D01*
X81196428Y-65867857D01*
X80125000Y-65189285D02*
X80267857Y-65189285D01*
X80339285Y-65225000D01*
X80375000Y-65260714D01*
X80446428Y-65367857D01*
X80482142Y-65510714D01*
X80482142Y-65796428D01*
X80446428Y-65867857D01*
X80410714Y-65903571D01*
X80339285Y-65939285D01*
X80196428Y-65939285D01*
X80125000Y-65903571D01*
X80089285Y-65867857D01*
X80053571Y-65796428D01*
X80053571Y-65617857D01*
X80089285Y-65546428D01*
X80125000Y-65510714D01*
X80196428Y-65475000D01*
X80339285Y-65475000D01*
X80410714Y-65510714D01*
X80446428Y-65546428D01*
X80482142Y-65617857D01*
G04 #@! TO.C,C57*
X83982142Y-69267857D02*
X84017857Y-69303571D01*
X84125000Y-69339285D01*
X84196428Y-69339285D01*
X84303571Y-69303571D01*
X84375000Y-69232142D01*
X84410714Y-69160714D01*
X84446428Y-69017857D01*
X84446428Y-68910714D01*
X84410714Y-68767857D01*
X84375000Y-68696428D01*
X84303571Y-68625000D01*
X84196428Y-68589285D01*
X84125000Y-68589285D01*
X84017857Y-68625000D01*
X83982142Y-68660714D01*
X83303571Y-68589285D02*
X83660714Y-68589285D01*
X83696428Y-68946428D01*
X83660714Y-68910714D01*
X83589285Y-68875000D01*
X83410714Y-68875000D01*
X83339285Y-68910714D01*
X83303571Y-68946428D01*
X83267857Y-69017857D01*
X83267857Y-69196428D01*
X83303571Y-69267857D01*
X83339285Y-69303571D01*
X83410714Y-69339285D01*
X83589285Y-69339285D01*
X83660714Y-69303571D01*
X83696428Y-69267857D01*
X83017857Y-68589285D02*
X82517857Y-68589285D01*
X82839285Y-69339285D01*
G04 #@! TO.C,C58*
X83982142Y-70767857D02*
X84017857Y-70803571D01*
X84125000Y-70839285D01*
X84196428Y-70839285D01*
X84303571Y-70803571D01*
X84375000Y-70732142D01*
X84410714Y-70660714D01*
X84446428Y-70517857D01*
X84446428Y-70410714D01*
X84410714Y-70267857D01*
X84375000Y-70196428D01*
X84303571Y-70125000D01*
X84196428Y-70089285D01*
X84125000Y-70089285D01*
X84017857Y-70125000D01*
X83982142Y-70160714D01*
X83303571Y-70089285D02*
X83660714Y-70089285D01*
X83696428Y-70446428D01*
X83660714Y-70410714D01*
X83589285Y-70375000D01*
X83410714Y-70375000D01*
X83339285Y-70410714D01*
X83303571Y-70446428D01*
X83267857Y-70517857D01*
X83267857Y-70696428D01*
X83303571Y-70767857D01*
X83339285Y-70803571D01*
X83410714Y-70839285D01*
X83589285Y-70839285D01*
X83660714Y-70803571D01*
X83696428Y-70767857D01*
X82839285Y-70410714D02*
X82910714Y-70375000D01*
X82946428Y-70339285D01*
X82982142Y-70267857D01*
X82982142Y-70232142D01*
X82946428Y-70160714D01*
X82910714Y-70125000D01*
X82839285Y-70089285D01*
X82696428Y-70089285D01*
X82625000Y-70125000D01*
X82589285Y-70160714D01*
X82553571Y-70232142D01*
X82553571Y-70267857D01*
X82589285Y-70339285D01*
X82625000Y-70375000D01*
X82696428Y-70410714D01*
X82839285Y-70410714D01*
X82910714Y-70446428D01*
X82946428Y-70482142D01*
X82982142Y-70553571D01*
X82982142Y-70696428D01*
X82946428Y-70767857D01*
X82910714Y-70803571D01*
X82839285Y-70839285D01*
X82696428Y-70839285D01*
X82625000Y-70803571D01*
X82589285Y-70767857D01*
X82553571Y-70696428D01*
X82553571Y-70553571D01*
X82589285Y-70482142D01*
X82625000Y-70446428D01*
X82696428Y-70410714D01*
G04 #@! TO.C,C59*
X73982142Y-58767857D02*
X74017857Y-58803571D01*
X74125000Y-58839285D01*
X74196428Y-58839285D01*
X74303571Y-58803571D01*
X74375000Y-58732142D01*
X74410714Y-58660714D01*
X74446428Y-58517857D01*
X74446428Y-58410714D01*
X74410714Y-58267857D01*
X74375000Y-58196428D01*
X74303571Y-58125000D01*
X74196428Y-58089285D01*
X74125000Y-58089285D01*
X74017857Y-58125000D01*
X73982142Y-58160714D01*
X73303571Y-58089285D02*
X73660714Y-58089285D01*
X73696428Y-58446428D01*
X73660714Y-58410714D01*
X73589285Y-58375000D01*
X73410714Y-58375000D01*
X73339285Y-58410714D01*
X73303571Y-58446428D01*
X73267857Y-58517857D01*
X73267857Y-58696428D01*
X73303571Y-58767857D01*
X73339285Y-58803571D01*
X73410714Y-58839285D01*
X73589285Y-58839285D01*
X73660714Y-58803571D01*
X73696428Y-58767857D01*
X72910714Y-58839285D02*
X72767857Y-58839285D01*
X72696428Y-58803571D01*
X72660714Y-58767857D01*
X72589285Y-58660714D01*
X72553571Y-58517857D01*
X72553571Y-58232142D01*
X72589285Y-58160714D01*
X72625000Y-58125000D01*
X72696428Y-58089285D01*
X72839285Y-58089285D01*
X72910714Y-58125000D01*
X72946428Y-58160714D01*
X72982142Y-58232142D01*
X72982142Y-58410714D01*
X72946428Y-58482142D01*
X72910714Y-58517857D01*
X72839285Y-58553571D01*
X72696428Y-58553571D01*
X72625000Y-58517857D01*
X72589285Y-58482142D01*
X72553571Y-58410714D01*
G04 #@! TO.C,C60*
X73982142Y-60517857D02*
X74017857Y-60553571D01*
X74125000Y-60589285D01*
X74196428Y-60589285D01*
X74303571Y-60553571D01*
X74375000Y-60482142D01*
X74410714Y-60410714D01*
X74446428Y-60267857D01*
X74446428Y-60160714D01*
X74410714Y-60017857D01*
X74375000Y-59946428D01*
X74303571Y-59875000D01*
X74196428Y-59839285D01*
X74125000Y-59839285D01*
X74017857Y-59875000D01*
X73982142Y-59910714D01*
X73339285Y-59839285D02*
X73482142Y-59839285D01*
X73553571Y-59875000D01*
X73589285Y-59910714D01*
X73660714Y-60017857D01*
X73696428Y-60160714D01*
X73696428Y-60446428D01*
X73660714Y-60517857D01*
X73625000Y-60553571D01*
X73553571Y-60589285D01*
X73410714Y-60589285D01*
X73339285Y-60553571D01*
X73303571Y-60517857D01*
X73267857Y-60446428D01*
X73267857Y-60267857D01*
X73303571Y-60196428D01*
X73339285Y-60160714D01*
X73410714Y-60125000D01*
X73553571Y-60125000D01*
X73625000Y-60160714D01*
X73660714Y-60196428D01*
X73696428Y-60267857D01*
X72803571Y-59839285D02*
X72732142Y-59839285D01*
X72660714Y-59875000D01*
X72625000Y-59910714D01*
X72589285Y-59982142D01*
X72553571Y-60125000D01*
X72553571Y-60303571D01*
X72589285Y-60446428D01*
X72625000Y-60517857D01*
X72660714Y-60553571D01*
X72732142Y-60589285D01*
X72803571Y-60589285D01*
X72875000Y-60553571D01*
X72910714Y-60517857D01*
X72946428Y-60446428D01*
X72982142Y-60303571D01*
X72982142Y-60125000D01*
X72946428Y-59982142D01*
X72910714Y-59910714D01*
X72875000Y-59875000D01*
X72803571Y-59839285D01*
G04 #@! TO.C,C61*
X73982142Y-62767857D02*
X74017857Y-62803571D01*
X74125000Y-62839285D01*
X74196428Y-62839285D01*
X74303571Y-62803571D01*
X74375000Y-62732142D01*
X74410714Y-62660714D01*
X74446428Y-62517857D01*
X74446428Y-62410714D01*
X74410714Y-62267857D01*
X74375000Y-62196428D01*
X74303571Y-62125000D01*
X74196428Y-62089285D01*
X74125000Y-62089285D01*
X74017857Y-62125000D01*
X73982142Y-62160714D01*
X73339285Y-62089285D02*
X73482142Y-62089285D01*
X73553571Y-62125000D01*
X73589285Y-62160714D01*
X73660714Y-62267857D01*
X73696428Y-62410714D01*
X73696428Y-62696428D01*
X73660714Y-62767857D01*
X73625000Y-62803571D01*
X73553571Y-62839285D01*
X73410714Y-62839285D01*
X73339285Y-62803571D01*
X73303571Y-62767857D01*
X73267857Y-62696428D01*
X73267857Y-62517857D01*
X73303571Y-62446428D01*
X73339285Y-62410714D01*
X73410714Y-62375000D01*
X73553571Y-62375000D01*
X73625000Y-62410714D01*
X73660714Y-62446428D01*
X73696428Y-62517857D01*
X72553571Y-62839285D02*
X72982142Y-62839285D01*
X72767857Y-62839285D02*
X72767857Y-62089285D01*
X72839285Y-62196428D01*
X72910714Y-62267857D01*
X72982142Y-62303571D01*
G04 #@! TO.C,C62*
X73982142Y-65717857D02*
X74017857Y-65753571D01*
X74125000Y-65789285D01*
X74196428Y-65789285D01*
X74303571Y-65753571D01*
X74375000Y-65682142D01*
X74410714Y-65610714D01*
X74446428Y-65467857D01*
X74446428Y-65360714D01*
X74410714Y-65217857D01*
X74375000Y-65146428D01*
X74303571Y-65075000D01*
X74196428Y-65039285D01*
X74125000Y-65039285D01*
X74017857Y-65075000D01*
X73982142Y-65110714D01*
X73339285Y-65039285D02*
X73482142Y-65039285D01*
X73553571Y-65075000D01*
X73589285Y-65110714D01*
X73660714Y-65217857D01*
X73696428Y-65360714D01*
X73696428Y-65646428D01*
X73660714Y-65717857D01*
X73625000Y-65753571D01*
X73553571Y-65789285D01*
X73410714Y-65789285D01*
X73339285Y-65753571D01*
X73303571Y-65717857D01*
X73267857Y-65646428D01*
X73267857Y-65467857D01*
X73303571Y-65396428D01*
X73339285Y-65360714D01*
X73410714Y-65325000D01*
X73553571Y-65325000D01*
X73625000Y-65360714D01*
X73660714Y-65396428D01*
X73696428Y-65467857D01*
X72982142Y-65110714D02*
X72946428Y-65075000D01*
X72875000Y-65039285D01*
X72696428Y-65039285D01*
X72625000Y-65075000D01*
X72589285Y-65110714D01*
X72553571Y-65182142D01*
X72553571Y-65253571D01*
X72589285Y-65360714D01*
X73017857Y-65789285D01*
X72553571Y-65789285D01*
G04 #@! TO.C,C63*
X73982142Y-66767857D02*
X74017857Y-66803571D01*
X74125000Y-66839285D01*
X74196428Y-66839285D01*
X74303571Y-66803571D01*
X74375000Y-66732142D01*
X74410714Y-66660714D01*
X74446428Y-66517857D01*
X74446428Y-66410714D01*
X74410714Y-66267857D01*
X74375000Y-66196428D01*
X74303571Y-66125000D01*
X74196428Y-66089285D01*
X74125000Y-66089285D01*
X74017857Y-66125000D01*
X73982142Y-66160714D01*
X73339285Y-66089285D02*
X73482142Y-66089285D01*
X73553571Y-66125000D01*
X73589285Y-66160714D01*
X73660714Y-66267857D01*
X73696428Y-66410714D01*
X73696428Y-66696428D01*
X73660714Y-66767857D01*
X73625000Y-66803571D01*
X73553571Y-66839285D01*
X73410714Y-66839285D01*
X73339285Y-66803571D01*
X73303571Y-66767857D01*
X73267857Y-66696428D01*
X73267857Y-66517857D01*
X73303571Y-66446428D01*
X73339285Y-66410714D01*
X73410714Y-66375000D01*
X73553571Y-66375000D01*
X73625000Y-66410714D01*
X73660714Y-66446428D01*
X73696428Y-66517857D01*
X73017857Y-66089285D02*
X72553571Y-66089285D01*
X72803571Y-66375000D01*
X72696428Y-66375000D01*
X72625000Y-66410714D01*
X72589285Y-66446428D01*
X72553571Y-66517857D01*
X72553571Y-66696428D01*
X72589285Y-66767857D01*
X72625000Y-66803571D01*
X72696428Y-66839285D01*
X72910714Y-66839285D01*
X72982142Y-66803571D01*
X73017857Y-66767857D01*
G04 #@! TO.C,C64*
X73732142Y-69517857D02*
X73767857Y-69553571D01*
X73875000Y-69589285D01*
X73946428Y-69589285D01*
X74053571Y-69553571D01*
X74125000Y-69482142D01*
X74160714Y-69410714D01*
X74196428Y-69267857D01*
X74196428Y-69160714D01*
X74160714Y-69017857D01*
X74125000Y-68946428D01*
X74053571Y-68875000D01*
X73946428Y-68839285D01*
X73875000Y-68839285D01*
X73767857Y-68875000D01*
X73732142Y-68910714D01*
X73089285Y-68839285D02*
X73232142Y-68839285D01*
X73303571Y-68875000D01*
X73339285Y-68910714D01*
X73410714Y-69017857D01*
X73446428Y-69160714D01*
X73446428Y-69446428D01*
X73410714Y-69517857D01*
X73375000Y-69553571D01*
X73303571Y-69589285D01*
X73160714Y-69589285D01*
X73089285Y-69553571D01*
X73053571Y-69517857D01*
X73017857Y-69446428D01*
X73017857Y-69267857D01*
X73053571Y-69196428D01*
X73089285Y-69160714D01*
X73160714Y-69125000D01*
X73303571Y-69125000D01*
X73375000Y-69160714D01*
X73410714Y-69196428D01*
X73446428Y-69267857D01*
X72375000Y-69089285D02*
X72375000Y-69589285D01*
X72553571Y-68803571D02*
X72732142Y-69339285D01*
X72267857Y-69339285D01*
G04 #@! TO.C,C65*
X73732142Y-71017857D02*
X73767857Y-71053571D01*
X73875000Y-71089285D01*
X73946428Y-71089285D01*
X74053571Y-71053571D01*
X74125000Y-70982142D01*
X74160714Y-70910714D01*
X74196428Y-70767857D01*
X74196428Y-70660714D01*
X74160714Y-70517857D01*
X74125000Y-70446428D01*
X74053571Y-70375000D01*
X73946428Y-70339285D01*
X73875000Y-70339285D01*
X73767857Y-70375000D01*
X73732142Y-70410714D01*
X73089285Y-70339285D02*
X73232142Y-70339285D01*
X73303571Y-70375000D01*
X73339285Y-70410714D01*
X73410714Y-70517857D01*
X73446428Y-70660714D01*
X73446428Y-70946428D01*
X73410714Y-71017857D01*
X73375000Y-71053571D01*
X73303571Y-71089285D01*
X73160714Y-71089285D01*
X73089285Y-71053571D01*
X73053571Y-71017857D01*
X73017857Y-70946428D01*
X73017857Y-70767857D01*
X73053571Y-70696428D01*
X73089285Y-70660714D01*
X73160714Y-70625000D01*
X73303571Y-70625000D01*
X73375000Y-70660714D01*
X73410714Y-70696428D01*
X73446428Y-70767857D01*
X72339285Y-70339285D02*
X72696428Y-70339285D01*
X72732142Y-70696428D01*
X72696428Y-70660714D01*
X72625000Y-70625000D01*
X72446428Y-70625000D01*
X72375000Y-70660714D01*
X72339285Y-70696428D01*
X72303571Y-70767857D01*
X72303571Y-70946428D01*
X72339285Y-71017857D01*
X72375000Y-71053571D01*
X72446428Y-71089285D01*
X72625000Y-71089285D01*
X72696428Y-71053571D01*
X72732142Y-71017857D01*
G04 #@! TO.C,C66*
X80982142Y-59267857D02*
X81017857Y-59303571D01*
X81125000Y-59339285D01*
X81196428Y-59339285D01*
X81303571Y-59303571D01*
X81375000Y-59232142D01*
X81410714Y-59160714D01*
X81446428Y-59017857D01*
X81446428Y-58910714D01*
X81410714Y-58767857D01*
X81375000Y-58696428D01*
X81303571Y-58625000D01*
X81196428Y-58589285D01*
X81125000Y-58589285D01*
X81017857Y-58625000D01*
X80982142Y-58660714D01*
X80339285Y-58589285D02*
X80482142Y-58589285D01*
X80553571Y-58625000D01*
X80589285Y-58660714D01*
X80660714Y-58767857D01*
X80696428Y-58910714D01*
X80696428Y-59196428D01*
X80660714Y-59267857D01*
X80625000Y-59303571D01*
X80553571Y-59339285D01*
X80410714Y-59339285D01*
X80339285Y-59303571D01*
X80303571Y-59267857D01*
X80267857Y-59196428D01*
X80267857Y-59017857D01*
X80303571Y-58946428D01*
X80339285Y-58910714D01*
X80410714Y-58875000D01*
X80553571Y-58875000D01*
X80625000Y-58910714D01*
X80660714Y-58946428D01*
X80696428Y-59017857D01*
X79625000Y-58589285D02*
X79767857Y-58589285D01*
X79839285Y-58625000D01*
X79875000Y-58660714D01*
X79946428Y-58767857D01*
X79982142Y-58910714D01*
X79982142Y-59196428D01*
X79946428Y-59267857D01*
X79910714Y-59303571D01*
X79839285Y-59339285D01*
X79696428Y-59339285D01*
X79625000Y-59303571D01*
X79589285Y-59267857D01*
X79553571Y-59196428D01*
X79553571Y-59017857D01*
X79589285Y-58946428D01*
X79625000Y-58910714D01*
X79696428Y-58875000D01*
X79839285Y-58875000D01*
X79910714Y-58910714D01*
X79946428Y-58946428D01*
X79982142Y-59017857D01*
G04 #@! TO.C,C67*
X73982142Y-64467857D02*
X74017857Y-64503571D01*
X74125000Y-64539285D01*
X74196428Y-64539285D01*
X74303571Y-64503571D01*
X74375000Y-64432142D01*
X74410714Y-64360714D01*
X74446428Y-64217857D01*
X74446428Y-64110714D01*
X74410714Y-63967857D01*
X74375000Y-63896428D01*
X74303571Y-63825000D01*
X74196428Y-63789285D01*
X74125000Y-63789285D01*
X74017857Y-63825000D01*
X73982142Y-63860714D01*
X73339285Y-63789285D02*
X73482142Y-63789285D01*
X73553571Y-63825000D01*
X73589285Y-63860714D01*
X73660714Y-63967857D01*
X73696428Y-64110714D01*
X73696428Y-64396428D01*
X73660714Y-64467857D01*
X73625000Y-64503571D01*
X73553571Y-64539285D01*
X73410714Y-64539285D01*
X73339285Y-64503571D01*
X73303571Y-64467857D01*
X73267857Y-64396428D01*
X73267857Y-64217857D01*
X73303571Y-64146428D01*
X73339285Y-64110714D01*
X73410714Y-64075000D01*
X73553571Y-64075000D01*
X73625000Y-64110714D01*
X73660714Y-64146428D01*
X73696428Y-64217857D01*
X73017857Y-63789285D02*
X72517857Y-63789285D01*
X72839285Y-64539285D01*
G04 #@! TO.C,C68*
X81482142Y-64867857D02*
X81517857Y-64903571D01*
X81625000Y-64939285D01*
X81696428Y-64939285D01*
X81803571Y-64903571D01*
X81875000Y-64832142D01*
X81910714Y-64760714D01*
X81946428Y-64617857D01*
X81946428Y-64510714D01*
X81910714Y-64367857D01*
X81875000Y-64296428D01*
X81803571Y-64225000D01*
X81696428Y-64189285D01*
X81625000Y-64189285D01*
X81517857Y-64225000D01*
X81482142Y-64260714D01*
X80839285Y-64189285D02*
X80982142Y-64189285D01*
X81053571Y-64225000D01*
X81089285Y-64260714D01*
X81160714Y-64367857D01*
X81196428Y-64510714D01*
X81196428Y-64796428D01*
X81160714Y-64867857D01*
X81125000Y-64903571D01*
X81053571Y-64939285D01*
X80910714Y-64939285D01*
X80839285Y-64903571D01*
X80803571Y-64867857D01*
X80767857Y-64796428D01*
X80767857Y-64617857D01*
X80803571Y-64546428D01*
X80839285Y-64510714D01*
X80910714Y-64475000D01*
X81053571Y-64475000D01*
X81125000Y-64510714D01*
X81160714Y-64546428D01*
X81196428Y-64617857D01*
X80339285Y-64510714D02*
X80410714Y-64475000D01*
X80446428Y-64439285D01*
X80482142Y-64367857D01*
X80482142Y-64332142D01*
X80446428Y-64260714D01*
X80410714Y-64225000D01*
X80339285Y-64189285D01*
X80196428Y-64189285D01*
X80125000Y-64225000D01*
X80089285Y-64260714D01*
X80053571Y-64332142D01*
X80053571Y-64367857D01*
X80089285Y-64439285D01*
X80125000Y-64475000D01*
X80196428Y-64510714D01*
X80339285Y-64510714D01*
X80410714Y-64546428D01*
X80446428Y-64582142D01*
X80482142Y-64653571D01*
X80482142Y-64796428D01*
X80446428Y-64867857D01*
X80410714Y-64903571D01*
X80339285Y-64939285D01*
X80196428Y-64939285D01*
X80125000Y-64903571D01*
X80089285Y-64867857D01*
X80053571Y-64796428D01*
X80053571Y-64653571D01*
X80089285Y-64582142D01*
X80125000Y-64546428D01*
X80196428Y-64510714D01*
G04 #@! TO.C,C71*
X68267857Y-57517857D02*
X68303571Y-57482142D01*
X68339285Y-57375000D01*
X68339285Y-57303571D01*
X68303571Y-57196428D01*
X68232142Y-57125000D01*
X68160714Y-57089285D01*
X68017857Y-57053571D01*
X67910714Y-57053571D01*
X67767857Y-57089285D01*
X67696428Y-57125000D01*
X67625000Y-57196428D01*
X67589285Y-57303571D01*
X67589285Y-57375000D01*
X67625000Y-57482142D01*
X67660714Y-57517857D01*
X67589285Y-57767857D02*
X67589285Y-58267857D01*
X68339285Y-57946428D01*
X68339285Y-58946428D02*
X68339285Y-58517857D01*
X68339285Y-58732142D02*
X67589285Y-58732142D01*
X67696428Y-58660714D01*
X67767857Y-58589285D01*
X67803571Y-58517857D01*
G04 #@! TO.C,C72*
X67267857Y-57517857D02*
X67303571Y-57482142D01*
X67339285Y-57375000D01*
X67339285Y-57303571D01*
X67303571Y-57196428D01*
X67232142Y-57125000D01*
X67160714Y-57089285D01*
X67017857Y-57053571D01*
X66910714Y-57053571D01*
X66767857Y-57089285D01*
X66696428Y-57125000D01*
X66625000Y-57196428D01*
X66589285Y-57303571D01*
X66589285Y-57375000D01*
X66625000Y-57482142D01*
X66660714Y-57517857D01*
X66589285Y-57767857D02*
X66589285Y-58267857D01*
X67339285Y-57946428D01*
X66660714Y-58517857D02*
X66625000Y-58553571D01*
X66589285Y-58625000D01*
X66589285Y-58803571D01*
X66625000Y-58875000D01*
X66660714Y-58910714D01*
X66732142Y-58946428D01*
X66803571Y-58946428D01*
X66910714Y-58910714D01*
X67339285Y-58482142D01*
X67339285Y-58946428D01*
G04 #@! TO.C,C73*
X66267857Y-57517857D02*
X66303571Y-57482142D01*
X66339285Y-57375000D01*
X66339285Y-57303571D01*
X66303571Y-57196428D01*
X66232142Y-57125000D01*
X66160714Y-57089285D01*
X66017857Y-57053571D01*
X65910714Y-57053571D01*
X65767857Y-57089285D01*
X65696428Y-57125000D01*
X65625000Y-57196428D01*
X65589285Y-57303571D01*
X65589285Y-57375000D01*
X65625000Y-57482142D01*
X65660714Y-57517857D01*
X65589285Y-57767857D02*
X65589285Y-58267857D01*
X66339285Y-57946428D01*
X65589285Y-58482142D02*
X65589285Y-58946428D01*
X65875000Y-58696428D01*
X65875000Y-58803571D01*
X65910714Y-58875000D01*
X65946428Y-58910714D01*
X66017857Y-58946428D01*
X66196428Y-58946428D01*
X66267857Y-58910714D01*
X66303571Y-58875000D01*
X66339285Y-58803571D01*
X66339285Y-58589285D01*
X66303571Y-58517857D01*
X66267857Y-58482142D01*
G04 #@! TO.C,C74*
X67867857Y-63017857D02*
X67903571Y-62982142D01*
X67939285Y-62875000D01*
X67939285Y-62803571D01*
X67903571Y-62696428D01*
X67832142Y-62625000D01*
X67760714Y-62589285D01*
X67617857Y-62553571D01*
X67510714Y-62553571D01*
X67367857Y-62589285D01*
X67296428Y-62625000D01*
X67225000Y-62696428D01*
X67189285Y-62803571D01*
X67189285Y-62875000D01*
X67225000Y-62982142D01*
X67260714Y-63017857D01*
X67189285Y-63267857D02*
X67189285Y-63767857D01*
X67939285Y-63446428D01*
X67439285Y-64375000D02*
X67939285Y-64375000D01*
X67153571Y-64196428D02*
X67689285Y-64017857D01*
X67689285Y-64482142D01*
G04 #@! TO.C,C75*
X65267857Y-59517857D02*
X65303571Y-59482142D01*
X65339285Y-59375000D01*
X65339285Y-59303571D01*
X65303571Y-59196428D01*
X65232142Y-59125000D01*
X65160714Y-59089285D01*
X65017857Y-59053571D01*
X64910714Y-59053571D01*
X64767857Y-59089285D01*
X64696428Y-59125000D01*
X64625000Y-59196428D01*
X64589285Y-59303571D01*
X64589285Y-59375000D01*
X64625000Y-59482142D01*
X64660714Y-59517857D01*
X64589285Y-59767857D02*
X64589285Y-60267857D01*
X65339285Y-59946428D01*
X64589285Y-60910714D02*
X64589285Y-60553571D01*
X64946428Y-60517857D01*
X64910714Y-60553571D01*
X64875000Y-60625000D01*
X64875000Y-60803571D01*
X64910714Y-60875000D01*
X64946428Y-60910714D01*
X65017857Y-60946428D01*
X65196428Y-60946428D01*
X65267857Y-60910714D01*
X65303571Y-60875000D01*
X65339285Y-60803571D01*
X65339285Y-60625000D01*
X65303571Y-60553571D01*
X65267857Y-60517857D01*
G04 #@! TO.C,C76*
X59969642Y-68105357D02*
X60005357Y-68141071D01*
X60112500Y-68176785D01*
X60183928Y-68176785D01*
X60291071Y-68141071D01*
X60362500Y-68069642D01*
X60398214Y-67998214D01*
X60433928Y-67855357D01*
X60433928Y-67748214D01*
X60398214Y-67605357D01*
X60362500Y-67533928D01*
X60291071Y-67462500D01*
X60183928Y-67426785D01*
X60112500Y-67426785D01*
X60005357Y-67462500D01*
X59969642Y-67498214D01*
X59719642Y-67426785D02*
X59219642Y-67426785D01*
X59541071Y-68176785D01*
X58612500Y-67426785D02*
X58755357Y-67426785D01*
X58826785Y-67462500D01*
X58862500Y-67498214D01*
X58933928Y-67605357D01*
X58969642Y-67748214D01*
X58969642Y-68033928D01*
X58933928Y-68105357D01*
X58898214Y-68141071D01*
X58826785Y-68176785D01*
X58683928Y-68176785D01*
X58612500Y-68141071D01*
X58576785Y-68105357D01*
X58541071Y-68033928D01*
X58541071Y-67855357D01*
X58576785Y-67783928D01*
X58612500Y-67748214D01*
X58683928Y-67712500D01*
X58826785Y-67712500D01*
X58898214Y-67748214D01*
X58933928Y-67783928D01*
X58969642Y-67855357D01*
G04 #@! TO.C,C77*
X63267857Y-62217857D02*
X63303571Y-62182142D01*
X63339285Y-62075000D01*
X63339285Y-62003571D01*
X63303571Y-61896428D01*
X63232142Y-61825000D01*
X63160714Y-61789285D01*
X63017857Y-61753571D01*
X62910714Y-61753571D01*
X62767857Y-61789285D01*
X62696428Y-61825000D01*
X62625000Y-61896428D01*
X62589285Y-62003571D01*
X62589285Y-62075000D01*
X62625000Y-62182142D01*
X62660714Y-62217857D01*
X62589285Y-62467857D02*
X62589285Y-62967857D01*
X63339285Y-62646428D01*
X62589285Y-63182142D02*
X62589285Y-63682142D01*
X63339285Y-63360714D01*
G04 #@! TO.C,C81*
X67267857Y-62217857D02*
X67303571Y-62182142D01*
X67339285Y-62075000D01*
X67339285Y-62003571D01*
X67303571Y-61896428D01*
X67232142Y-61825000D01*
X67160714Y-61789285D01*
X67017857Y-61753571D01*
X66910714Y-61753571D01*
X66767857Y-61789285D01*
X66696428Y-61825000D01*
X66625000Y-61896428D01*
X66589285Y-62003571D01*
X66589285Y-62075000D01*
X66625000Y-62182142D01*
X66660714Y-62217857D01*
X66910714Y-62646428D02*
X66875000Y-62575000D01*
X66839285Y-62539285D01*
X66767857Y-62503571D01*
X66732142Y-62503571D01*
X66660714Y-62539285D01*
X66625000Y-62575000D01*
X66589285Y-62646428D01*
X66589285Y-62789285D01*
X66625000Y-62860714D01*
X66660714Y-62896428D01*
X66732142Y-62932142D01*
X66767857Y-62932142D01*
X66839285Y-62896428D01*
X66875000Y-62860714D01*
X66910714Y-62789285D01*
X66910714Y-62646428D01*
X66946428Y-62575000D01*
X66982142Y-62539285D01*
X67053571Y-62503571D01*
X67196428Y-62503571D01*
X67267857Y-62539285D01*
X67303571Y-62575000D01*
X67339285Y-62646428D01*
X67339285Y-62789285D01*
X67303571Y-62860714D01*
X67267857Y-62896428D01*
X67196428Y-62932142D01*
X67053571Y-62932142D01*
X66982142Y-62896428D01*
X66946428Y-62860714D01*
X66910714Y-62789285D01*
X67339285Y-63646428D02*
X67339285Y-63217857D01*
X67339285Y-63432142D02*
X66589285Y-63432142D01*
X66696428Y-63360714D01*
X66767857Y-63289285D01*
X66803571Y-63217857D01*
G04 #@! TO.C,C82*
X68267857Y-62217857D02*
X68303571Y-62182142D01*
X68339285Y-62075000D01*
X68339285Y-62003571D01*
X68303571Y-61896428D01*
X68232142Y-61825000D01*
X68160714Y-61789285D01*
X68017857Y-61753571D01*
X67910714Y-61753571D01*
X67767857Y-61789285D01*
X67696428Y-61825000D01*
X67625000Y-61896428D01*
X67589285Y-62003571D01*
X67589285Y-62075000D01*
X67625000Y-62182142D01*
X67660714Y-62217857D01*
X67910714Y-62646428D02*
X67875000Y-62575000D01*
X67839285Y-62539285D01*
X67767857Y-62503571D01*
X67732142Y-62503571D01*
X67660714Y-62539285D01*
X67625000Y-62575000D01*
X67589285Y-62646428D01*
X67589285Y-62789285D01*
X67625000Y-62860714D01*
X67660714Y-62896428D01*
X67732142Y-62932142D01*
X67767857Y-62932142D01*
X67839285Y-62896428D01*
X67875000Y-62860714D01*
X67910714Y-62789285D01*
X67910714Y-62646428D01*
X67946428Y-62575000D01*
X67982142Y-62539285D01*
X68053571Y-62503571D01*
X68196428Y-62503571D01*
X68267857Y-62539285D01*
X68303571Y-62575000D01*
X68339285Y-62646428D01*
X68339285Y-62789285D01*
X68303571Y-62860714D01*
X68267857Y-62896428D01*
X68196428Y-62932142D01*
X68053571Y-62932142D01*
X67982142Y-62896428D01*
X67946428Y-62860714D01*
X67910714Y-62789285D01*
X67660714Y-63217857D02*
X67625000Y-63253571D01*
X67589285Y-63325000D01*
X67589285Y-63503571D01*
X67625000Y-63575000D01*
X67660714Y-63610714D01*
X67732142Y-63646428D01*
X67803571Y-63646428D01*
X67910714Y-63610714D01*
X68339285Y-63182142D01*
X68339285Y-63646428D01*
G04 #@! TO.C,C84*
X68267857Y-68517857D02*
X68303571Y-68482142D01*
X68339285Y-68375000D01*
X68339285Y-68303571D01*
X68303571Y-68196428D01*
X68232142Y-68125000D01*
X68160714Y-68089285D01*
X68017857Y-68053571D01*
X67910714Y-68053571D01*
X67767857Y-68089285D01*
X67696428Y-68125000D01*
X67625000Y-68196428D01*
X67589285Y-68303571D01*
X67589285Y-68375000D01*
X67625000Y-68482142D01*
X67660714Y-68517857D01*
X67910714Y-68946428D02*
X67875000Y-68875000D01*
X67839285Y-68839285D01*
X67767857Y-68803571D01*
X67732142Y-68803571D01*
X67660714Y-68839285D01*
X67625000Y-68875000D01*
X67589285Y-68946428D01*
X67589285Y-69089285D01*
X67625000Y-69160714D01*
X67660714Y-69196428D01*
X67732142Y-69232142D01*
X67767857Y-69232142D01*
X67839285Y-69196428D01*
X67875000Y-69160714D01*
X67910714Y-69089285D01*
X67910714Y-68946428D01*
X67946428Y-68875000D01*
X67982142Y-68839285D01*
X68053571Y-68803571D01*
X68196428Y-68803571D01*
X68267857Y-68839285D01*
X68303571Y-68875000D01*
X68339285Y-68946428D01*
X68339285Y-69089285D01*
X68303571Y-69160714D01*
X68267857Y-69196428D01*
X68196428Y-69232142D01*
X68053571Y-69232142D01*
X67982142Y-69196428D01*
X67946428Y-69160714D01*
X67910714Y-69089285D01*
X67839285Y-69875000D02*
X68339285Y-69875000D01*
X67553571Y-69696428D02*
X68089285Y-69517857D01*
X68089285Y-69982142D01*
G04 #@! TO.C,C85*
X69267857Y-68517857D02*
X69303571Y-68482142D01*
X69339285Y-68375000D01*
X69339285Y-68303571D01*
X69303571Y-68196428D01*
X69232142Y-68125000D01*
X69160714Y-68089285D01*
X69017857Y-68053571D01*
X68910714Y-68053571D01*
X68767857Y-68089285D01*
X68696428Y-68125000D01*
X68625000Y-68196428D01*
X68589285Y-68303571D01*
X68589285Y-68375000D01*
X68625000Y-68482142D01*
X68660714Y-68517857D01*
X68910714Y-68946428D02*
X68875000Y-68875000D01*
X68839285Y-68839285D01*
X68767857Y-68803571D01*
X68732142Y-68803571D01*
X68660714Y-68839285D01*
X68625000Y-68875000D01*
X68589285Y-68946428D01*
X68589285Y-69089285D01*
X68625000Y-69160714D01*
X68660714Y-69196428D01*
X68732142Y-69232142D01*
X68767857Y-69232142D01*
X68839285Y-69196428D01*
X68875000Y-69160714D01*
X68910714Y-69089285D01*
X68910714Y-68946428D01*
X68946428Y-68875000D01*
X68982142Y-68839285D01*
X69053571Y-68803571D01*
X69196428Y-68803571D01*
X69267857Y-68839285D01*
X69303571Y-68875000D01*
X69339285Y-68946428D01*
X69339285Y-69089285D01*
X69303571Y-69160714D01*
X69267857Y-69196428D01*
X69196428Y-69232142D01*
X69053571Y-69232142D01*
X68982142Y-69196428D01*
X68946428Y-69160714D01*
X68910714Y-69089285D01*
X68589285Y-69910714D02*
X68589285Y-69553571D01*
X68946428Y-69517857D01*
X68910714Y-69553571D01*
X68875000Y-69625000D01*
X68875000Y-69803571D01*
X68910714Y-69875000D01*
X68946428Y-69910714D01*
X69017857Y-69946428D01*
X69196428Y-69946428D01*
X69267857Y-69910714D01*
X69303571Y-69875000D01*
X69339285Y-69803571D01*
X69339285Y-69625000D01*
X69303571Y-69553571D01*
X69267857Y-69517857D01*
G04 #@! TO.C,C86*
X70982142Y-67767857D02*
X71017857Y-67803571D01*
X71125000Y-67839285D01*
X71196428Y-67839285D01*
X71303571Y-67803571D01*
X71375000Y-67732142D01*
X71410714Y-67660714D01*
X71446428Y-67517857D01*
X71446428Y-67410714D01*
X71410714Y-67267857D01*
X71375000Y-67196428D01*
X71303571Y-67125000D01*
X71196428Y-67089285D01*
X71125000Y-67089285D01*
X71017857Y-67125000D01*
X70982142Y-67160714D01*
X70553571Y-67410714D02*
X70625000Y-67375000D01*
X70660714Y-67339285D01*
X70696428Y-67267857D01*
X70696428Y-67232142D01*
X70660714Y-67160714D01*
X70625000Y-67125000D01*
X70553571Y-67089285D01*
X70410714Y-67089285D01*
X70339285Y-67125000D01*
X70303571Y-67160714D01*
X70267857Y-67232142D01*
X70267857Y-67267857D01*
X70303571Y-67339285D01*
X70339285Y-67375000D01*
X70410714Y-67410714D01*
X70553571Y-67410714D01*
X70625000Y-67446428D01*
X70660714Y-67482142D01*
X70696428Y-67553571D01*
X70696428Y-67696428D01*
X70660714Y-67767857D01*
X70625000Y-67803571D01*
X70553571Y-67839285D01*
X70410714Y-67839285D01*
X70339285Y-67803571D01*
X70303571Y-67767857D01*
X70267857Y-67696428D01*
X70267857Y-67553571D01*
X70303571Y-67482142D01*
X70339285Y-67446428D01*
X70410714Y-67410714D01*
X69625000Y-67089285D02*
X69767857Y-67089285D01*
X69839285Y-67125000D01*
X69875000Y-67160714D01*
X69946428Y-67267857D01*
X69982142Y-67410714D01*
X69982142Y-67696428D01*
X69946428Y-67767857D01*
X69910714Y-67803571D01*
X69839285Y-67839285D01*
X69696428Y-67839285D01*
X69625000Y-67803571D01*
X69589285Y-67767857D01*
X69553571Y-67696428D01*
X69553571Y-67517857D01*
X69589285Y-67446428D01*
X69625000Y-67410714D01*
X69696428Y-67375000D01*
X69839285Y-67375000D01*
X69910714Y-67410714D01*
X69946428Y-67446428D01*
X69982142Y-67517857D01*
G04 #@! TO.C,C87*
X70982142Y-68767857D02*
X71017857Y-68803571D01*
X71125000Y-68839285D01*
X71196428Y-68839285D01*
X71303571Y-68803571D01*
X71375000Y-68732142D01*
X71410714Y-68660714D01*
X71446428Y-68517857D01*
X71446428Y-68410714D01*
X71410714Y-68267857D01*
X71375000Y-68196428D01*
X71303571Y-68125000D01*
X71196428Y-68089285D01*
X71125000Y-68089285D01*
X71017857Y-68125000D01*
X70982142Y-68160714D01*
X70553571Y-68410714D02*
X70625000Y-68375000D01*
X70660714Y-68339285D01*
X70696428Y-68267857D01*
X70696428Y-68232142D01*
X70660714Y-68160714D01*
X70625000Y-68125000D01*
X70553571Y-68089285D01*
X70410714Y-68089285D01*
X70339285Y-68125000D01*
X70303571Y-68160714D01*
X70267857Y-68232142D01*
X70267857Y-68267857D01*
X70303571Y-68339285D01*
X70339285Y-68375000D01*
X70410714Y-68410714D01*
X70553571Y-68410714D01*
X70625000Y-68446428D01*
X70660714Y-68482142D01*
X70696428Y-68553571D01*
X70696428Y-68696428D01*
X70660714Y-68767857D01*
X70625000Y-68803571D01*
X70553571Y-68839285D01*
X70410714Y-68839285D01*
X70339285Y-68803571D01*
X70303571Y-68767857D01*
X70267857Y-68696428D01*
X70267857Y-68553571D01*
X70303571Y-68482142D01*
X70339285Y-68446428D01*
X70410714Y-68410714D01*
X70017857Y-68089285D02*
X69517857Y-68089285D01*
X69839285Y-68839285D01*
G04 #@! TO.C,C88*
X70030357Y-73517857D02*
X70066071Y-73482142D01*
X70101785Y-73375000D01*
X70101785Y-73303571D01*
X70066071Y-73196428D01*
X69994642Y-73125000D01*
X69923214Y-73089285D01*
X69780357Y-73053571D01*
X69673214Y-73053571D01*
X69530357Y-73089285D01*
X69458928Y-73125000D01*
X69387500Y-73196428D01*
X69351785Y-73303571D01*
X69351785Y-73375000D01*
X69387500Y-73482142D01*
X69423214Y-73517857D01*
X69673214Y-73946428D02*
X69637500Y-73875000D01*
X69601785Y-73839285D01*
X69530357Y-73803571D01*
X69494642Y-73803571D01*
X69423214Y-73839285D01*
X69387500Y-73875000D01*
X69351785Y-73946428D01*
X69351785Y-74089285D01*
X69387500Y-74160714D01*
X69423214Y-74196428D01*
X69494642Y-74232142D01*
X69530357Y-74232142D01*
X69601785Y-74196428D01*
X69637500Y-74160714D01*
X69673214Y-74089285D01*
X69673214Y-73946428D01*
X69708928Y-73875000D01*
X69744642Y-73839285D01*
X69816071Y-73803571D01*
X69958928Y-73803571D01*
X70030357Y-73839285D01*
X70066071Y-73875000D01*
X70101785Y-73946428D01*
X70101785Y-74089285D01*
X70066071Y-74160714D01*
X70030357Y-74196428D01*
X69958928Y-74232142D01*
X69816071Y-74232142D01*
X69744642Y-74196428D01*
X69708928Y-74160714D01*
X69673214Y-74089285D01*
X69673214Y-74660714D02*
X69637500Y-74589285D01*
X69601785Y-74553571D01*
X69530357Y-74517857D01*
X69494642Y-74517857D01*
X69423214Y-74553571D01*
X69387500Y-74589285D01*
X69351785Y-74660714D01*
X69351785Y-74803571D01*
X69387500Y-74875000D01*
X69423214Y-74910714D01*
X69494642Y-74946428D01*
X69530357Y-74946428D01*
X69601785Y-74910714D01*
X69637500Y-74875000D01*
X69673214Y-74803571D01*
X69673214Y-74660714D01*
X69708928Y-74589285D01*
X69744642Y-74553571D01*
X69816071Y-74517857D01*
X69958928Y-74517857D01*
X70030357Y-74553571D01*
X70066071Y-74589285D01*
X70101785Y-74660714D01*
X70101785Y-74803571D01*
X70066071Y-74875000D01*
X70030357Y-74910714D01*
X69958928Y-74946428D01*
X69816071Y-74946428D01*
X69744642Y-74910714D01*
X69708928Y-74875000D01*
X69673214Y-74803571D01*
G04 #@! TO.C,C90*
X54982142Y-69767857D02*
X55017857Y-69803571D01*
X55125000Y-69839285D01*
X55196428Y-69839285D01*
X55303571Y-69803571D01*
X55375000Y-69732142D01*
X55410714Y-69660714D01*
X55446428Y-69517857D01*
X55446428Y-69410714D01*
X55410714Y-69267857D01*
X55375000Y-69196428D01*
X55303571Y-69125000D01*
X55196428Y-69089285D01*
X55125000Y-69089285D01*
X55017857Y-69125000D01*
X54982142Y-69160714D01*
X54625000Y-69839285D02*
X54482142Y-69839285D01*
X54410714Y-69803571D01*
X54375000Y-69767857D01*
X54303571Y-69660714D01*
X54267857Y-69517857D01*
X54267857Y-69232142D01*
X54303571Y-69160714D01*
X54339285Y-69125000D01*
X54410714Y-69089285D01*
X54553571Y-69089285D01*
X54625000Y-69125000D01*
X54660714Y-69160714D01*
X54696428Y-69232142D01*
X54696428Y-69410714D01*
X54660714Y-69482142D01*
X54625000Y-69517857D01*
X54553571Y-69553571D01*
X54410714Y-69553571D01*
X54339285Y-69517857D01*
X54303571Y-69482142D01*
X54267857Y-69410714D01*
X53803571Y-69089285D02*
X53732142Y-69089285D01*
X53660714Y-69125000D01*
X53625000Y-69160714D01*
X53589285Y-69232142D01*
X53553571Y-69375000D01*
X53553571Y-69553571D01*
X53589285Y-69696428D01*
X53625000Y-69767857D01*
X53660714Y-69803571D01*
X53732142Y-69839285D01*
X53803571Y-69839285D01*
X53875000Y-69803571D01*
X53910714Y-69767857D01*
X53946428Y-69696428D01*
X53982142Y-69553571D01*
X53982142Y-69375000D01*
X53946428Y-69232142D01*
X53910714Y-69160714D01*
X53875000Y-69125000D01*
X53803571Y-69089285D01*
G04 #@! TO.C,C91*
X53767857Y-73230357D02*
X53803571Y-73194642D01*
X53839285Y-73087500D01*
X53839285Y-73016071D01*
X53803571Y-72908928D01*
X53732142Y-72837500D01*
X53660714Y-72801785D01*
X53517857Y-72766071D01*
X53410714Y-72766071D01*
X53267857Y-72801785D01*
X53196428Y-72837500D01*
X53125000Y-72908928D01*
X53089285Y-73016071D01*
X53089285Y-73087500D01*
X53125000Y-73194642D01*
X53160714Y-73230357D01*
X53839285Y-73587500D02*
X53839285Y-73730357D01*
X53803571Y-73801785D01*
X53767857Y-73837500D01*
X53660714Y-73908928D01*
X53517857Y-73944642D01*
X53232142Y-73944642D01*
X53160714Y-73908928D01*
X53125000Y-73873214D01*
X53089285Y-73801785D01*
X53089285Y-73658928D01*
X53125000Y-73587500D01*
X53160714Y-73551785D01*
X53232142Y-73516071D01*
X53410714Y-73516071D01*
X53482142Y-73551785D01*
X53517857Y-73587500D01*
X53553571Y-73658928D01*
X53553571Y-73801785D01*
X53517857Y-73873214D01*
X53482142Y-73908928D01*
X53410714Y-73944642D01*
X53839285Y-74658928D02*
X53839285Y-74230357D01*
X53839285Y-74444642D02*
X53089285Y-74444642D01*
X53196428Y-74373214D01*
X53267857Y-74301785D01*
X53303571Y-74230357D01*
G04 #@! TO.C,C69*
X81482142Y-68667857D02*
X81517857Y-68703571D01*
X81625000Y-68739285D01*
X81696428Y-68739285D01*
X81803571Y-68703571D01*
X81875000Y-68632142D01*
X81910714Y-68560714D01*
X81946428Y-68417857D01*
X81946428Y-68310714D01*
X81910714Y-68167857D01*
X81875000Y-68096428D01*
X81803571Y-68025000D01*
X81696428Y-67989285D01*
X81625000Y-67989285D01*
X81517857Y-68025000D01*
X81482142Y-68060714D01*
X80839285Y-67989285D02*
X80982142Y-67989285D01*
X81053571Y-68025000D01*
X81089285Y-68060714D01*
X81160714Y-68167857D01*
X81196428Y-68310714D01*
X81196428Y-68596428D01*
X81160714Y-68667857D01*
X81125000Y-68703571D01*
X81053571Y-68739285D01*
X80910714Y-68739285D01*
X80839285Y-68703571D01*
X80803571Y-68667857D01*
X80767857Y-68596428D01*
X80767857Y-68417857D01*
X80803571Y-68346428D01*
X80839285Y-68310714D01*
X80910714Y-68275000D01*
X81053571Y-68275000D01*
X81125000Y-68310714D01*
X81160714Y-68346428D01*
X81196428Y-68417857D01*
X80410714Y-68739285D02*
X80267857Y-68739285D01*
X80196428Y-68703571D01*
X80160714Y-68667857D01*
X80089285Y-68560714D01*
X80053571Y-68417857D01*
X80053571Y-68132142D01*
X80089285Y-68060714D01*
X80125000Y-68025000D01*
X80196428Y-67989285D01*
X80339285Y-67989285D01*
X80410714Y-68025000D01*
X80446428Y-68060714D01*
X80482142Y-68132142D01*
X80482142Y-68310714D01*
X80446428Y-68382142D01*
X80410714Y-68417857D01*
X80339285Y-68453571D01*
X80196428Y-68453571D01*
X80125000Y-68417857D01*
X80089285Y-68382142D01*
X80053571Y-68310714D01*
G04 #@! TO.C,R30*
X92482142Y-59089285D02*
X92732142Y-58732142D01*
X92910714Y-59089285D02*
X92910714Y-58339285D01*
X92625000Y-58339285D01*
X92553571Y-58375000D01*
X92517857Y-58410714D01*
X92482142Y-58482142D01*
X92482142Y-58589285D01*
X92517857Y-58660714D01*
X92553571Y-58696428D01*
X92625000Y-58732142D01*
X92910714Y-58732142D01*
X92232142Y-58339285D02*
X91767857Y-58339285D01*
X92017857Y-58625000D01*
X91910714Y-58625000D01*
X91839285Y-58660714D01*
X91803571Y-58696428D01*
X91767857Y-58767857D01*
X91767857Y-58946428D01*
X91803571Y-59017857D01*
X91839285Y-59053571D01*
X91910714Y-59089285D01*
X92125000Y-59089285D01*
X92196428Y-59053571D01*
X92232142Y-59017857D01*
X91303571Y-58339285D02*
X91232142Y-58339285D01*
X91160714Y-58375000D01*
X91125000Y-58410714D01*
X91089285Y-58482142D01*
X91053571Y-58625000D01*
X91053571Y-58803571D01*
X91089285Y-58946428D01*
X91125000Y-59017857D01*
X91160714Y-59053571D01*
X91232142Y-59089285D01*
X91303571Y-59089285D01*
X91375000Y-59053571D01*
X91410714Y-59017857D01*
X91446428Y-58946428D01*
X91482142Y-58803571D01*
X91482142Y-58625000D01*
X91446428Y-58482142D01*
X91410714Y-58410714D01*
X91375000Y-58375000D01*
X91303571Y-58339285D01*
G04 #@! TO.C,R32*
X89982142Y-62089285D02*
X90232142Y-61732142D01*
X90410714Y-62089285D02*
X90410714Y-61339285D01*
X90125000Y-61339285D01*
X90053571Y-61375000D01*
X90017857Y-61410714D01*
X89982142Y-61482142D01*
X89982142Y-61589285D01*
X90017857Y-61660714D01*
X90053571Y-61696428D01*
X90125000Y-61732142D01*
X90410714Y-61732142D01*
X89732142Y-61339285D02*
X89267857Y-61339285D01*
X89517857Y-61625000D01*
X89410714Y-61625000D01*
X89339285Y-61660714D01*
X89303571Y-61696428D01*
X89267857Y-61767857D01*
X89267857Y-61946428D01*
X89303571Y-62017857D01*
X89339285Y-62053571D01*
X89410714Y-62089285D01*
X89625000Y-62089285D01*
X89696428Y-62053571D01*
X89732142Y-62017857D01*
X88982142Y-61410714D02*
X88946428Y-61375000D01*
X88875000Y-61339285D01*
X88696428Y-61339285D01*
X88625000Y-61375000D01*
X88589285Y-61410714D01*
X88553571Y-61482142D01*
X88553571Y-61553571D01*
X88589285Y-61660714D01*
X89017857Y-62089285D01*
X88553571Y-62089285D01*
G04 #@! TO.C,R33*
X94982142Y-63089285D02*
X95232142Y-62732142D01*
X95410714Y-63089285D02*
X95410714Y-62339285D01*
X95125000Y-62339285D01*
X95053571Y-62375000D01*
X95017857Y-62410714D01*
X94982142Y-62482142D01*
X94982142Y-62589285D01*
X95017857Y-62660714D01*
X95053571Y-62696428D01*
X95125000Y-62732142D01*
X95410714Y-62732142D01*
X94732142Y-62339285D02*
X94267857Y-62339285D01*
X94517857Y-62625000D01*
X94410714Y-62625000D01*
X94339285Y-62660714D01*
X94303571Y-62696428D01*
X94267857Y-62767857D01*
X94267857Y-62946428D01*
X94303571Y-63017857D01*
X94339285Y-63053571D01*
X94410714Y-63089285D01*
X94625000Y-63089285D01*
X94696428Y-63053571D01*
X94732142Y-63017857D01*
X94017857Y-62339285D02*
X93553571Y-62339285D01*
X93803571Y-62625000D01*
X93696428Y-62625000D01*
X93625000Y-62660714D01*
X93589285Y-62696428D01*
X93553571Y-62767857D01*
X93553571Y-62946428D01*
X93589285Y-63017857D01*
X93625000Y-63053571D01*
X93696428Y-63089285D01*
X93910714Y-63089285D01*
X93982142Y-63053571D01*
X94017857Y-63017857D01*
G04 #@! TO.C,R34*
X92982142Y-63089285D02*
X93232142Y-62732142D01*
X93410714Y-63089285D02*
X93410714Y-62339285D01*
X93125000Y-62339285D01*
X93053571Y-62375000D01*
X93017857Y-62410714D01*
X92982142Y-62482142D01*
X92982142Y-62589285D01*
X93017857Y-62660714D01*
X93053571Y-62696428D01*
X93125000Y-62732142D01*
X93410714Y-62732142D01*
X92732142Y-62339285D02*
X92267857Y-62339285D01*
X92517857Y-62625000D01*
X92410714Y-62625000D01*
X92339285Y-62660714D01*
X92303571Y-62696428D01*
X92267857Y-62767857D01*
X92267857Y-62946428D01*
X92303571Y-63017857D01*
X92339285Y-63053571D01*
X92410714Y-63089285D01*
X92625000Y-63089285D01*
X92696428Y-63053571D01*
X92732142Y-63017857D01*
X91625000Y-62589285D02*
X91625000Y-63089285D01*
X91803571Y-62303571D02*
X91982142Y-62839285D01*
X91517857Y-62839285D01*
G04 #@! TO.C,R35*
X92982142Y-61089285D02*
X93232142Y-60732142D01*
X93410714Y-61089285D02*
X93410714Y-60339285D01*
X93125000Y-60339285D01*
X93053571Y-60375000D01*
X93017857Y-60410714D01*
X92982142Y-60482142D01*
X92982142Y-60589285D01*
X93017857Y-60660714D01*
X93053571Y-60696428D01*
X93125000Y-60732142D01*
X93410714Y-60732142D01*
X92732142Y-60339285D02*
X92267857Y-60339285D01*
X92517857Y-60625000D01*
X92410714Y-60625000D01*
X92339285Y-60660714D01*
X92303571Y-60696428D01*
X92267857Y-60767857D01*
X92267857Y-60946428D01*
X92303571Y-61017857D01*
X92339285Y-61053571D01*
X92410714Y-61089285D01*
X92625000Y-61089285D01*
X92696428Y-61053571D01*
X92732142Y-61017857D01*
X91589285Y-60339285D02*
X91946428Y-60339285D01*
X91982142Y-60696428D01*
X91946428Y-60660714D01*
X91875000Y-60625000D01*
X91696428Y-60625000D01*
X91625000Y-60660714D01*
X91589285Y-60696428D01*
X91553571Y-60767857D01*
X91553571Y-60946428D01*
X91589285Y-61017857D01*
X91625000Y-61053571D01*
X91696428Y-61089285D01*
X91875000Y-61089285D01*
X91946428Y-61053571D01*
X91982142Y-61017857D01*
G04 #@! TO.C,R36*
X92982142Y-60089285D02*
X93232142Y-59732142D01*
X93410714Y-60089285D02*
X93410714Y-59339285D01*
X93125000Y-59339285D01*
X93053571Y-59375000D01*
X93017857Y-59410714D01*
X92982142Y-59482142D01*
X92982142Y-59589285D01*
X93017857Y-59660714D01*
X93053571Y-59696428D01*
X93125000Y-59732142D01*
X93410714Y-59732142D01*
X92732142Y-59339285D02*
X92267857Y-59339285D01*
X92517857Y-59625000D01*
X92410714Y-59625000D01*
X92339285Y-59660714D01*
X92303571Y-59696428D01*
X92267857Y-59767857D01*
X92267857Y-59946428D01*
X92303571Y-60017857D01*
X92339285Y-60053571D01*
X92410714Y-60089285D01*
X92625000Y-60089285D01*
X92696428Y-60053571D01*
X92732142Y-60017857D01*
X91625000Y-59339285D02*
X91767857Y-59339285D01*
X91839285Y-59375000D01*
X91875000Y-59410714D01*
X91946428Y-59517857D01*
X91982142Y-59660714D01*
X91982142Y-59946428D01*
X91946428Y-60017857D01*
X91910714Y-60053571D01*
X91839285Y-60089285D01*
X91696428Y-60089285D01*
X91625000Y-60053571D01*
X91589285Y-60017857D01*
X91553571Y-59946428D01*
X91553571Y-59767857D01*
X91589285Y-59696428D01*
X91625000Y-59660714D01*
X91696428Y-59625000D01*
X91839285Y-59625000D01*
X91910714Y-59660714D01*
X91946428Y-59696428D01*
X91982142Y-59767857D01*
G04 #@! TO.C,R37*
X92982142Y-59089285D02*
X93232142Y-58732142D01*
X93410714Y-59089285D02*
X93410714Y-58339285D01*
X93125000Y-58339285D01*
X93053571Y-58375000D01*
X93017857Y-58410714D01*
X92982142Y-58482142D01*
X92982142Y-58589285D01*
X93017857Y-58660714D01*
X93053571Y-58696428D01*
X93125000Y-58732142D01*
X93410714Y-58732142D01*
X92732142Y-58339285D02*
X92267857Y-58339285D01*
X92517857Y-58625000D01*
X92410714Y-58625000D01*
X92339285Y-58660714D01*
X92303571Y-58696428D01*
X92267857Y-58767857D01*
X92267857Y-58946428D01*
X92303571Y-59017857D01*
X92339285Y-59053571D01*
X92410714Y-59089285D01*
X92625000Y-59089285D01*
X92696428Y-59053571D01*
X92732142Y-59017857D01*
X92017857Y-58339285D02*
X91517857Y-58339285D01*
X91839285Y-59089285D01*
G04 #@! TO.C,R41*
X95482142Y-64839285D02*
X95732142Y-64482142D01*
X95910714Y-64839285D02*
X95910714Y-64089285D01*
X95625000Y-64089285D01*
X95553571Y-64125000D01*
X95517857Y-64160714D01*
X95482142Y-64232142D01*
X95482142Y-64339285D01*
X95517857Y-64410714D01*
X95553571Y-64446428D01*
X95625000Y-64482142D01*
X95910714Y-64482142D01*
X94839285Y-64339285D02*
X94839285Y-64839285D01*
X95017857Y-64053571D02*
X95196428Y-64589285D01*
X94732142Y-64589285D01*
X94053571Y-64839285D02*
X94482142Y-64839285D01*
X94267857Y-64839285D02*
X94267857Y-64089285D01*
X94339285Y-64196428D01*
X94410714Y-64267857D01*
X94482142Y-64303571D01*
G04 #@! TO.C,R42*
X95482142Y-63839285D02*
X95732142Y-63482142D01*
X95910714Y-63839285D02*
X95910714Y-63089285D01*
X95625000Y-63089285D01*
X95553571Y-63125000D01*
X95517857Y-63160714D01*
X95482142Y-63232142D01*
X95482142Y-63339285D01*
X95517857Y-63410714D01*
X95553571Y-63446428D01*
X95625000Y-63482142D01*
X95910714Y-63482142D01*
X94839285Y-63339285D02*
X94839285Y-63839285D01*
X95017857Y-63053571D02*
X95196428Y-63589285D01*
X94732142Y-63589285D01*
X94482142Y-63160714D02*
X94446428Y-63125000D01*
X94375000Y-63089285D01*
X94196428Y-63089285D01*
X94125000Y-63125000D01*
X94089285Y-63160714D01*
X94053571Y-63232142D01*
X94053571Y-63303571D01*
X94089285Y-63410714D01*
X94517857Y-63839285D01*
X94053571Y-63839285D01*
G04 #@! TO.C,R46*
X67776785Y-73292857D02*
X67419642Y-73042857D01*
X67776785Y-72864285D02*
X67026785Y-72864285D01*
X67026785Y-73150000D01*
X67062500Y-73221428D01*
X67098214Y-73257142D01*
X67169642Y-73292857D01*
X67276785Y-73292857D01*
X67348214Y-73257142D01*
X67383928Y-73221428D01*
X67419642Y-73150000D01*
X67419642Y-72864285D01*
X67276785Y-73935714D02*
X67776785Y-73935714D01*
X66991071Y-73757142D02*
X67526785Y-73578571D01*
X67526785Y-74042857D01*
X67026785Y-74650000D02*
X67026785Y-74507142D01*
X67062500Y-74435714D01*
X67098214Y-74400000D01*
X67205357Y-74328571D01*
X67348214Y-74292857D01*
X67633928Y-74292857D01*
X67705357Y-74328571D01*
X67741071Y-74364285D01*
X67776785Y-74435714D01*
X67776785Y-74578571D01*
X67741071Y-74650000D01*
X67705357Y-74685714D01*
X67633928Y-74721428D01*
X67455357Y-74721428D01*
X67383928Y-74685714D01*
X67348214Y-74650000D01*
X67312500Y-74578571D01*
X67312500Y-74435714D01*
X67348214Y-74364285D01*
X67383928Y-74328571D01*
X67455357Y-74292857D01*
G04 #@! TO.C,R47*
X62394642Y-67989285D02*
X62644642Y-67632142D01*
X62823214Y-67989285D02*
X62823214Y-67239285D01*
X62537500Y-67239285D01*
X62466071Y-67275000D01*
X62430357Y-67310714D01*
X62394642Y-67382142D01*
X62394642Y-67489285D01*
X62430357Y-67560714D01*
X62466071Y-67596428D01*
X62537500Y-67632142D01*
X62823214Y-67632142D01*
X61751785Y-67489285D02*
X61751785Y-67989285D01*
X61930357Y-67203571D02*
X62108928Y-67739285D01*
X61644642Y-67739285D01*
X61430357Y-67239285D02*
X60930357Y-67239285D01*
X61251785Y-67989285D01*
G04 #@! TO.C,R50*
X81482142Y-67739285D02*
X81732142Y-67382142D01*
X81910714Y-67739285D02*
X81910714Y-66989285D01*
X81625000Y-66989285D01*
X81553571Y-67025000D01*
X81517857Y-67060714D01*
X81482142Y-67132142D01*
X81482142Y-67239285D01*
X81517857Y-67310714D01*
X81553571Y-67346428D01*
X81625000Y-67382142D01*
X81910714Y-67382142D01*
X80803571Y-66989285D02*
X81160714Y-66989285D01*
X81196428Y-67346428D01*
X81160714Y-67310714D01*
X81089285Y-67275000D01*
X80910714Y-67275000D01*
X80839285Y-67310714D01*
X80803571Y-67346428D01*
X80767857Y-67417857D01*
X80767857Y-67596428D01*
X80803571Y-67667857D01*
X80839285Y-67703571D01*
X80910714Y-67739285D01*
X81089285Y-67739285D01*
X81160714Y-67703571D01*
X81196428Y-67667857D01*
X80303571Y-66989285D02*
X80232142Y-66989285D01*
X80160714Y-67025000D01*
X80125000Y-67060714D01*
X80089285Y-67132142D01*
X80053571Y-67275000D01*
X80053571Y-67453571D01*
X80089285Y-67596428D01*
X80125000Y-67667857D01*
X80160714Y-67703571D01*
X80232142Y-67739285D01*
X80303571Y-67739285D01*
X80375000Y-67703571D01*
X80410714Y-67667857D01*
X80446428Y-67596428D01*
X80482142Y-67453571D01*
X80482142Y-67275000D01*
X80446428Y-67132142D01*
X80410714Y-67060714D01*
X80375000Y-67025000D01*
X80303571Y-66989285D01*
G04 #@! TO.C,R51*
X80982142Y-61339285D02*
X81232142Y-60982142D01*
X81410714Y-61339285D02*
X81410714Y-60589285D01*
X81125000Y-60589285D01*
X81053571Y-60625000D01*
X81017857Y-60660714D01*
X80982142Y-60732142D01*
X80982142Y-60839285D01*
X81017857Y-60910714D01*
X81053571Y-60946428D01*
X81125000Y-60982142D01*
X81410714Y-60982142D01*
X80303571Y-60589285D02*
X80660714Y-60589285D01*
X80696428Y-60946428D01*
X80660714Y-60910714D01*
X80589285Y-60875000D01*
X80410714Y-60875000D01*
X80339285Y-60910714D01*
X80303571Y-60946428D01*
X80267857Y-61017857D01*
X80267857Y-61196428D01*
X80303571Y-61267857D01*
X80339285Y-61303571D01*
X80410714Y-61339285D01*
X80589285Y-61339285D01*
X80660714Y-61303571D01*
X80696428Y-61267857D01*
X79553571Y-61339285D02*
X79982142Y-61339285D01*
X79767857Y-61339285D02*
X79767857Y-60589285D01*
X79839285Y-60696428D01*
X79910714Y-60767857D01*
X79982142Y-60803571D01*
G04 #@! TO.C,R52*
X80982142Y-60339285D02*
X81232142Y-59982142D01*
X81410714Y-60339285D02*
X81410714Y-59589285D01*
X81125000Y-59589285D01*
X81053571Y-59625000D01*
X81017857Y-59660714D01*
X80982142Y-59732142D01*
X80982142Y-59839285D01*
X81017857Y-59910714D01*
X81053571Y-59946428D01*
X81125000Y-59982142D01*
X81410714Y-59982142D01*
X80303571Y-59589285D02*
X80660714Y-59589285D01*
X80696428Y-59946428D01*
X80660714Y-59910714D01*
X80589285Y-59875000D01*
X80410714Y-59875000D01*
X80339285Y-59910714D01*
X80303571Y-59946428D01*
X80267857Y-60017857D01*
X80267857Y-60196428D01*
X80303571Y-60267857D01*
X80339285Y-60303571D01*
X80410714Y-60339285D01*
X80589285Y-60339285D01*
X80660714Y-60303571D01*
X80696428Y-60267857D01*
X79982142Y-59660714D02*
X79946428Y-59625000D01*
X79875000Y-59589285D01*
X79696428Y-59589285D01*
X79625000Y-59625000D01*
X79589285Y-59660714D01*
X79553571Y-59732142D01*
X79553571Y-59803571D01*
X79589285Y-59910714D01*
X80017857Y-60339285D01*
X79553571Y-60339285D01*
G04 #@! TO.C,R53*
X78982142Y-66339285D02*
X79232142Y-65982142D01*
X79410714Y-66339285D02*
X79410714Y-65589285D01*
X79125000Y-65589285D01*
X79053571Y-65625000D01*
X79017857Y-65660714D01*
X78982142Y-65732142D01*
X78982142Y-65839285D01*
X79017857Y-65910714D01*
X79053571Y-65946428D01*
X79125000Y-65982142D01*
X79410714Y-65982142D01*
X78303571Y-65589285D02*
X78660714Y-65589285D01*
X78696428Y-65946428D01*
X78660714Y-65910714D01*
X78589285Y-65875000D01*
X78410714Y-65875000D01*
X78339285Y-65910714D01*
X78303571Y-65946428D01*
X78267857Y-66017857D01*
X78267857Y-66196428D01*
X78303571Y-66267857D01*
X78339285Y-66303571D01*
X78410714Y-66339285D01*
X78589285Y-66339285D01*
X78660714Y-66303571D01*
X78696428Y-66267857D01*
X78017857Y-65589285D02*
X77553571Y-65589285D01*
X77803571Y-65875000D01*
X77696428Y-65875000D01*
X77625000Y-65910714D01*
X77589285Y-65946428D01*
X77553571Y-66017857D01*
X77553571Y-66196428D01*
X77589285Y-66267857D01*
X77625000Y-66303571D01*
X77696428Y-66339285D01*
X77910714Y-66339285D01*
X77982142Y-66303571D01*
X78017857Y-66267857D01*
G04 #@! TO.C,R54*
X78982142Y-65339285D02*
X79232142Y-64982142D01*
X79410714Y-65339285D02*
X79410714Y-64589285D01*
X79125000Y-64589285D01*
X79053571Y-64625000D01*
X79017857Y-64660714D01*
X78982142Y-64732142D01*
X78982142Y-64839285D01*
X79017857Y-64910714D01*
X79053571Y-64946428D01*
X79125000Y-64982142D01*
X79410714Y-64982142D01*
X78303571Y-64589285D02*
X78660714Y-64589285D01*
X78696428Y-64946428D01*
X78660714Y-64910714D01*
X78589285Y-64875000D01*
X78410714Y-64875000D01*
X78339285Y-64910714D01*
X78303571Y-64946428D01*
X78267857Y-65017857D01*
X78267857Y-65196428D01*
X78303571Y-65267857D01*
X78339285Y-65303571D01*
X78410714Y-65339285D01*
X78589285Y-65339285D01*
X78660714Y-65303571D01*
X78696428Y-65267857D01*
X77625000Y-64839285D02*
X77625000Y-65339285D01*
X77803571Y-64553571D02*
X77982142Y-65089285D01*
X77517857Y-65089285D01*
G04 #@! TO.C,R1*
X73200000Y-61926785D02*
X73450000Y-61569642D01*
X73628571Y-61926785D02*
X73628571Y-61176785D01*
X73342857Y-61176785D01*
X73271428Y-61212500D01*
X73235714Y-61248214D01*
X73200000Y-61319642D01*
X73200000Y-61426785D01*
X73235714Y-61498214D01*
X73271428Y-61533928D01*
X73342857Y-61569642D01*
X73628571Y-61569642D01*
X72485714Y-61926785D02*
X72914285Y-61926785D01*
X72700000Y-61926785D02*
X72700000Y-61176785D01*
X72771428Y-61283928D01*
X72842857Y-61355357D01*
X72914285Y-61391071D01*
G04 #@! TO.C,R62*
X71969642Y-62139285D02*
X72219642Y-61782142D01*
X72398214Y-62139285D02*
X72398214Y-61389285D01*
X72112500Y-61389285D01*
X72041071Y-61425000D01*
X72005357Y-61460714D01*
X71969642Y-61532142D01*
X71969642Y-61639285D01*
X72005357Y-61710714D01*
X72041071Y-61746428D01*
X72112500Y-61782142D01*
X72398214Y-61782142D01*
X71326785Y-61389285D02*
X71469642Y-61389285D01*
X71541071Y-61425000D01*
X71576785Y-61460714D01*
X71648214Y-61567857D01*
X71683928Y-61710714D01*
X71683928Y-61996428D01*
X71648214Y-62067857D01*
X71612500Y-62103571D01*
X71541071Y-62139285D01*
X71398214Y-62139285D01*
X71326785Y-62103571D01*
X71291071Y-62067857D01*
X71255357Y-61996428D01*
X71255357Y-61817857D01*
X71291071Y-61746428D01*
X71326785Y-61710714D01*
X71398214Y-61675000D01*
X71541071Y-61675000D01*
X71612500Y-61710714D01*
X71648214Y-61746428D01*
X71683928Y-61817857D01*
X70969642Y-61460714D02*
X70933928Y-61425000D01*
X70862500Y-61389285D01*
X70683928Y-61389285D01*
X70612500Y-61425000D01*
X70576785Y-61460714D01*
X70541071Y-61532142D01*
X70541071Y-61603571D01*
X70576785Y-61710714D01*
X71005357Y-62139285D01*
X70541071Y-62139285D01*
G04 #@! TO.C,R72*
X70982142Y-69839285D02*
X71232142Y-69482142D01*
X71410714Y-69839285D02*
X71410714Y-69089285D01*
X71125000Y-69089285D01*
X71053571Y-69125000D01*
X71017857Y-69160714D01*
X70982142Y-69232142D01*
X70982142Y-69339285D01*
X71017857Y-69410714D01*
X71053571Y-69446428D01*
X71125000Y-69482142D01*
X71410714Y-69482142D01*
X70732142Y-69089285D02*
X70232142Y-69089285D01*
X70553571Y-69839285D01*
X69982142Y-69160714D02*
X69946428Y-69125000D01*
X69875000Y-69089285D01*
X69696428Y-69089285D01*
X69625000Y-69125000D01*
X69589285Y-69160714D01*
X69553571Y-69232142D01*
X69553571Y-69303571D01*
X69589285Y-69410714D01*
X70017857Y-69839285D01*
X69553571Y-69839285D01*
G04 #@! TO.C,R91*
X53839285Y-70705357D02*
X53482142Y-70455357D01*
X53839285Y-70276785D02*
X53089285Y-70276785D01*
X53089285Y-70562500D01*
X53125000Y-70633928D01*
X53160714Y-70669642D01*
X53232142Y-70705357D01*
X53339285Y-70705357D01*
X53410714Y-70669642D01*
X53446428Y-70633928D01*
X53482142Y-70562500D01*
X53482142Y-70276785D01*
X53839285Y-71062500D02*
X53839285Y-71205357D01*
X53803571Y-71276785D01*
X53767857Y-71312500D01*
X53660714Y-71383928D01*
X53517857Y-71419642D01*
X53232142Y-71419642D01*
X53160714Y-71383928D01*
X53125000Y-71348214D01*
X53089285Y-71276785D01*
X53089285Y-71133928D01*
X53125000Y-71062500D01*
X53160714Y-71026785D01*
X53232142Y-70991071D01*
X53410714Y-70991071D01*
X53482142Y-71026785D01*
X53517857Y-71062500D01*
X53553571Y-71133928D01*
X53553571Y-71276785D01*
X53517857Y-71348214D01*
X53482142Y-71383928D01*
X53410714Y-71419642D01*
X53839285Y-72133928D02*
X53839285Y-71705357D01*
X53839285Y-71919642D02*
X53089285Y-71919642D01*
X53196428Y-71848214D01*
X53267857Y-71776785D01*
X53303571Y-71705357D01*
G04 #@! TO.C,C908*
X52105357Y-73485714D02*
X52141071Y-73450000D01*
X52176785Y-73342857D01*
X52176785Y-73271428D01*
X52141071Y-73164285D01*
X52069642Y-73092857D01*
X51998214Y-73057142D01*
X51855357Y-73021428D01*
X51748214Y-73021428D01*
X51605357Y-73057142D01*
X51533928Y-73092857D01*
X51462500Y-73164285D01*
X51426785Y-73271428D01*
X51426785Y-73342857D01*
X51462500Y-73450000D01*
X51498214Y-73485714D01*
X52176785Y-73842857D02*
X52176785Y-73985714D01*
X52141071Y-74057142D01*
X52105357Y-74092857D01*
X51998214Y-74164285D01*
X51855357Y-74200000D01*
X51569642Y-74200000D01*
X51498214Y-74164285D01*
X51462500Y-74128571D01*
X51426785Y-74057142D01*
X51426785Y-73914285D01*
X51462500Y-73842857D01*
X51498214Y-73807142D01*
X51569642Y-73771428D01*
X51748214Y-73771428D01*
X51819642Y-73807142D01*
X51855357Y-73842857D01*
X51891071Y-73914285D01*
X51891071Y-74057142D01*
X51855357Y-74128571D01*
X51819642Y-74164285D01*
X51748214Y-74200000D01*
X51426785Y-74664285D02*
X51426785Y-74735714D01*
X51462500Y-74807142D01*
X51498214Y-74842857D01*
X51569642Y-74878571D01*
X51712500Y-74914285D01*
X51891071Y-74914285D01*
X52033928Y-74878571D01*
X52105357Y-74842857D01*
X52141071Y-74807142D01*
X52176785Y-74735714D01*
X52176785Y-74664285D01*
X52141071Y-74592857D01*
X52105357Y-74557142D01*
X52033928Y-74521428D01*
X51891071Y-74485714D01*
X51712500Y-74485714D01*
X51569642Y-74521428D01*
X51498214Y-74557142D01*
X51462500Y-74592857D01*
X51426785Y-74664285D01*
X51748214Y-75342857D02*
X51712500Y-75271428D01*
X51676785Y-75235714D01*
X51605357Y-75200000D01*
X51569642Y-75200000D01*
X51498214Y-75235714D01*
X51462500Y-75271428D01*
X51426785Y-75342857D01*
X51426785Y-75485714D01*
X51462500Y-75557142D01*
X51498214Y-75592857D01*
X51569642Y-75628571D01*
X51605357Y-75628571D01*
X51676785Y-75592857D01*
X51712500Y-75557142D01*
X51748214Y-75485714D01*
X51748214Y-75342857D01*
X51783928Y-75271428D01*
X51819642Y-75235714D01*
X51891071Y-75200000D01*
X52033928Y-75200000D01*
X52105357Y-75235714D01*
X52141071Y-75271428D01*
X52176785Y-75342857D01*
X52176785Y-75485714D01*
X52141071Y-75557142D01*
X52105357Y-75592857D01*
X52033928Y-75628571D01*
X51891071Y-75628571D01*
X51819642Y-75592857D01*
X51783928Y-75557142D01*
X51748214Y-75485714D01*
G04 #@! TO.C,C70*
X69267857Y-57517857D02*
X69303571Y-57482142D01*
X69339285Y-57375000D01*
X69339285Y-57303571D01*
X69303571Y-57196428D01*
X69232142Y-57125000D01*
X69160714Y-57089285D01*
X69017857Y-57053571D01*
X68910714Y-57053571D01*
X68767857Y-57089285D01*
X68696428Y-57125000D01*
X68625000Y-57196428D01*
X68589285Y-57303571D01*
X68589285Y-57375000D01*
X68625000Y-57482142D01*
X68660714Y-57517857D01*
X68589285Y-57767857D02*
X68589285Y-58267857D01*
X69339285Y-57946428D01*
X68589285Y-58696428D02*
X68589285Y-58767857D01*
X68625000Y-58839285D01*
X68660714Y-58875000D01*
X68732142Y-58910714D01*
X68875000Y-58946428D01*
X69053571Y-58946428D01*
X69196428Y-58910714D01*
X69267857Y-58875000D01*
X69303571Y-58839285D01*
X69339285Y-58767857D01*
X69339285Y-58696428D01*
X69303571Y-58625000D01*
X69267857Y-58589285D01*
X69196428Y-58553571D01*
X69053571Y-58517857D01*
X68875000Y-58517857D01*
X68732142Y-58553571D01*
X68660714Y-58589285D01*
X68625000Y-58625000D01*
X68589285Y-58696428D01*
G04 #@! TO.C,C78*
X64267857Y-62217857D02*
X64303571Y-62182142D01*
X64339285Y-62075000D01*
X64339285Y-62003571D01*
X64303571Y-61896428D01*
X64232142Y-61825000D01*
X64160714Y-61789285D01*
X64017857Y-61753571D01*
X63910714Y-61753571D01*
X63767857Y-61789285D01*
X63696428Y-61825000D01*
X63625000Y-61896428D01*
X63589285Y-62003571D01*
X63589285Y-62075000D01*
X63625000Y-62182142D01*
X63660714Y-62217857D01*
X63589285Y-62467857D02*
X63589285Y-62967857D01*
X64339285Y-62646428D01*
X63910714Y-63360714D02*
X63875000Y-63289285D01*
X63839285Y-63253571D01*
X63767857Y-63217857D01*
X63732142Y-63217857D01*
X63660714Y-63253571D01*
X63625000Y-63289285D01*
X63589285Y-63360714D01*
X63589285Y-63503571D01*
X63625000Y-63575000D01*
X63660714Y-63610714D01*
X63732142Y-63646428D01*
X63767857Y-63646428D01*
X63839285Y-63610714D01*
X63875000Y-63575000D01*
X63910714Y-63503571D01*
X63910714Y-63360714D01*
X63946428Y-63289285D01*
X63982142Y-63253571D01*
X64053571Y-63217857D01*
X64196428Y-63217857D01*
X64267857Y-63253571D01*
X64303571Y-63289285D01*
X64339285Y-63360714D01*
X64339285Y-63503571D01*
X64303571Y-63575000D01*
X64267857Y-63610714D01*
X64196428Y-63646428D01*
X64053571Y-63646428D01*
X63982142Y-63610714D01*
X63946428Y-63575000D01*
X63910714Y-63503571D01*
G04 #@! TO.C,C80*
X66267857Y-62217857D02*
X66303571Y-62182142D01*
X66339285Y-62075000D01*
X66339285Y-62003571D01*
X66303571Y-61896428D01*
X66232142Y-61825000D01*
X66160714Y-61789285D01*
X66017857Y-61753571D01*
X65910714Y-61753571D01*
X65767857Y-61789285D01*
X65696428Y-61825000D01*
X65625000Y-61896428D01*
X65589285Y-62003571D01*
X65589285Y-62075000D01*
X65625000Y-62182142D01*
X65660714Y-62217857D01*
X65910714Y-62646428D02*
X65875000Y-62575000D01*
X65839285Y-62539285D01*
X65767857Y-62503571D01*
X65732142Y-62503571D01*
X65660714Y-62539285D01*
X65625000Y-62575000D01*
X65589285Y-62646428D01*
X65589285Y-62789285D01*
X65625000Y-62860714D01*
X65660714Y-62896428D01*
X65732142Y-62932142D01*
X65767857Y-62932142D01*
X65839285Y-62896428D01*
X65875000Y-62860714D01*
X65910714Y-62789285D01*
X65910714Y-62646428D01*
X65946428Y-62575000D01*
X65982142Y-62539285D01*
X66053571Y-62503571D01*
X66196428Y-62503571D01*
X66267857Y-62539285D01*
X66303571Y-62575000D01*
X66339285Y-62646428D01*
X66339285Y-62789285D01*
X66303571Y-62860714D01*
X66267857Y-62896428D01*
X66196428Y-62932142D01*
X66053571Y-62932142D01*
X65982142Y-62896428D01*
X65946428Y-62860714D01*
X65910714Y-62789285D01*
X65589285Y-63396428D02*
X65589285Y-63467857D01*
X65625000Y-63539285D01*
X65660714Y-63575000D01*
X65732142Y-63610714D01*
X65875000Y-63646428D01*
X66053571Y-63646428D01*
X66196428Y-63610714D01*
X66267857Y-63575000D01*
X66303571Y-63539285D01*
X66339285Y-63467857D01*
X66339285Y-63396428D01*
X66303571Y-63325000D01*
X66267857Y-63289285D01*
X66196428Y-63253571D01*
X66053571Y-63217857D01*
X65875000Y-63217857D01*
X65732142Y-63253571D01*
X65660714Y-63289285D01*
X65625000Y-63325000D01*
X65589285Y-63396428D01*
G04 #@! TO.C,R60*
X63839285Y-58017857D02*
X63482142Y-57767857D01*
X63839285Y-57589285D02*
X63089285Y-57589285D01*
X63089285Y-57875000D01*
X63125000Y-57946428D01*
X63160714Y-57982142D01*
X63232142Y-58017857D01*
X63339285Y-58017857D01*
X63410714Y-57982142D01*
X63446428Y-57946428D01*
X63482142Y-57875000D01*
X63482142Y-57589285D01*
X63089285Y-58660714D02*
X63089285Y-58517857D01*
X63125000Y-58446428D01*
X63160714Y-58410714D01*
X63267857Y-58339285D01*
X63410714Y-58303571D01*
X63696428Y-58303571D01*
X63767857Y-58339285D01*
X63803571Y-58375000D01*
X63839285Y-58446428D01*
X63839285Y-58589285D01*
X63803571Y-58660714D01*
X63767857Y-58696428D01*
X63696428Y-58732142D01*
X63517857Y-58732142D01*
X63446428Y-58696428D01*
X63410714Y-58660714D01*
X63375000Y-58589285D01*
X63375000Y-58446428D01*
X63410714Y-58375000D01*
X63446428Y-58339285D01*
X63517857Y-58303571D01*
X63089285Y-59196428D02*
X63089285Y-59267857D01*
X63125000Y-59339285D01*
X63160714Y-59375000D01*
X63232142Y-59410714D01*
X63375000Y-59446428D01*
X63553571Y-59446428D01*
X63696428Y-59410714D01*
X63767857Y-59375000D01*
X63803571Y-59339285D01*
X63839285Y-59267857D01*
X63839285Y-59196428D01*
X63803571Y-59125000D01*
X63767857Y-59089285D01*
X63696428Y-59053571D01*
X63553571Y-59017857D01*
X63375000Y-59017857D01*
X63232142Y-59053571D01*
X63160714Y-59089285D01*
X63125000Y-59125000D01*
X63089285Y-59196428D01*
G04 #@! TO.C,R69*
X73339285Y-73517857D02*
X72982142Y-73267857D01*
X73339285Y-73089285D02*
X72589285Y-73089285D01*
X72589285Y-73375000D01*
X72625000Y-73446428D01*
X72660714Y-73482142D01*
X72732142Y-73517857D01*
X72839285Y-73517857D01*
X72910714Y-73482142D01*
X72946428Y-73446428D01*
X72982142Y-73375000D01*
X72982142Y-73089285D01*
X72589285Y-74160714D02*
X72589285Y-74017857D01*
X72625000Y-73946428D01*
X72660714Y-73910714D01*
X72767857Y-73839285D01*
X72910714Y-73803571D01*
X73196428Y-73803571D01*
X73267857Y-73839285D01*
X73303571Y-73875000D01*
X73339285Y-73946428D01*
X73339285Y-74089285D01*
X73303571Y-74160714D01*
X73267857Y-74196428D01*
X73196428Y-74232142D01*
X73017857Y-74232142D01*
X72946428Y-74196428D01*
X72910714Y-74160714D01*
X72875000Y-74089285D01*
X72875000Y-73946428D01*
X72910714Y-73875000D01*
X72946428Y-73839285D01*
X73017857Y-73803571D01*
X73339285Y-74589285D02*
X73339285Y-74732142D01*
X73303571Y-74803571D01*
X73267857Y-74839285D01*
X73160714Y-74910714D01*
X73017857Y-74946428D01*
X72732142Y-74946428D01*
X72660714Y-74910714D01*
X72625000Y-74875000D01*
X72589285Y-74803571D01*
X72589285Y-74660714D01*
X72625000Y-74589285D01*
X72660714Y-74553571D01*
X72732142Y-74517857D01*
X72910714Y-74517857D01*
X72982142Y-74553571D01*
X73017857Y-74589285D01*
X73053571Y-74660714D01*
X73053571Y-74803571D01*
X73017857Y-74875000D01*
X72982142Y-74910714D01*
X72910714Y-74946428D01*
G04 #@! TO.C,R68*
X71339285Y-73517857D02*
X70982142Y-73267857D01*
X71339285Y-73089285D02*
X70589285Y-73089285D01*
X70589285Y-73375000D01*
X70625000Y-73446428D01*
X70660714Y-73482142D01*
X70732142Y-73517857D01*
X70839285Y-73517857D01*
X70910714Y-73482142D01*
X70946428Y-73446428D01*
X70982142Y-73375000D01*
X70982142Y-73089285D01*
X70589285Y-74160714D02*
X70589285Y-74017857D01*
X70625000Y-73946428D01*
X70660714Y-73910714D01*
X70767857Y-73839285D01*
X70910714Y-73803571D01*
X71196428Y-73803571D01*
X71267857Y-73839285D01*
X71303571Y-73875000D01*
X71339285Y-73946428D01*
X71339285Y-74089285D01*
X71303571Y-74160714D01*
X71267857Y-74196428D01*
X71196428Y-74232142D01*
X71017857Y-74232142D01*
X70946428Y-74196428D01*
X70910714Y-74160714D01*
X70875000Y-74089285D01*
X70875000Y-73946428D01*
X70910714Y-73875000D01*
X70946428Y-73839285D01*
X71017857Y-73803571D01*
X70910714Y-74660714D02*
X70875000Y-74589285D01*
X70839285Y-74553571D01*
X70767857Y-74517857D01*
X70732142Y-74517857D01*
X70660714Y-74553571D01*
X70625000Y-74589285D01*
X70589285Y-74660714D01*
X70589285Y-74803571D01*
X70625000Y-74875000D01*
X70660714Y-74910714D01*
X70732142Y-74946428D01*
X70767857Y-74946428D01*
X70839285Y-74910714D01*
X70875000Y-74875000D01*
X70910714Y-74803571D01*
X70910714Y-74660714D01*
X70946428Y-74589285D01*
X70982142Y-74553571D01*
X71053571Y-74517857D01*
X71196428Y-74517857D01*
X71267857Y-74553571D01*
X71303571Y-74589285D01*
X71339285Y-74660714D01*
X71339285Y-74803571D01*
X71303571Y-74875000D01*
X71267857Y-74910714D01*
X71196428Y-74946428D01*
X71053571Y-74946428D01*
X70982142Y-74910714D01*
X70946428Y-74875000D01*
X70910714Y-74803571D01*
G04 #@! TO.C,D5*
X72339285Y-73446428D02*
X71589285Y-73446428D01*
X71589285Y-73625000D01*
X71625000Y-73732142D01*
X71696428Y-73803571D01*
X71767857Y-73839285D01*
X71910714Y-73875000D01*
X72017857Y-73875000D01*
X72160714Y-73839285D01*
X72232142Y-73803571D01*
X72303571Y-73732142D01*
X72339285Y-73625000D01*
X72339285Y-73446428D01*
X71589285Y-74553571D02*
X71589285Y-74196428D01*
X71946428Y-74160714D01*
X71910714Y-74196428D01*
X71875000Y-74267857D01*
X71875000Y-74446428D01*
X71910714Y-74517857D01*
X71946428Y-74553571D01*
X72017857Y-74589285D01*
X72196428Y-74589285D01*
X72267857Y-74553571D01*
X72303571Y-74517857D01*
X72339285Y-74446428D01*
X72339285Y-74267857D01*
X72303571Y-74196428D01*
X72267857Y-74160714D01*
G04 #@! TO.C,R63*
X67339285Y-68517857D02*
X66982142Y-68267857D01*
X67339285Y-68089285D02*
X66589285Y-68089285D01*
X66589285Y-68375000D01*
X66625000Y-68446428D01*
X66660714Y-68482142D01*
X66732142Y-68517857D01*
X66839285Y-68517857D01*
X66910714Y-68482142D01*
X66946428Y-68446428D01*
X66982142Y-68375000D01*
X66982142Y-68089285D01*
X66589285Y-69160714D02*
X66589285Y-69017857D01*
X66625000Y-68946428D01*
X66660714Y-68910714D01*
X66767857Y-68839285D01*
X66910714Y-68803571D01*
X67196428Y-68803571D01*
X67267857Y-68839285D01*
X67303571Y-68875000D01*
X67339285Y-68946428D01*
X67339285Y-69089285D01*
X67303571Y-69160714D01*
X67267857Y-69196428D01*
X67196428Y-69232142D01*
X67017857Y-69232142D01*
X66946428Y-69196428D01*
X66910714Y-69160714D01*
X66875000Y-69089285D01*
X66875000Y-68946428D01*
X66910714Y-68875000D01*
X66946428Y-68839285D01*
X67017857Y-68803571D01*
X66589285Y-69482142D02*
X66589285Y-69946428D01*
X66875000Y-69696428D01*
X66875000Y-69803571D01*
X66910714Y-69875000D01*
X66946428Y-69910714D01*
X67017857Y-69946428D01*
X67196428Y-69946428D01*
X67267857Y-69910714D01*
X67303571Y-69875000D01*
X67339285Y-69803571D01*
X67339285Y-69589285D01*
X67303571Y-69517857D01*
X67267857Y-69482142D01*
G04 #@! TO.C,R64*
X67339285Y-71017857D02*
X66982142Y-70767857D01*
X67339285Y-70589285D02*
X66589285Y-70589285D01*
X66589285Y-70875000D01*
X66625000Y-70946428D01*
X66660714Y-70982142D01*
X66732142Y-71017857D01*
X66839285Y-71017857D01*
X66910714Y-70982142D01*
X66946428Y-70946428D01*
X66982142Y-70875000D01*
X66982142Y-70589285D01*
X66589285Y-71660714D02*
X66589285Y-71517857D01*
X66625000Y-71446428D01*
X66660714Y-71410714D01*
X66767857Y-71339285D01*
X66910714Y-71303571D01*
X67196428Y-71303571D01*
X67267857Y-71339285D01*
X67303571Y-71375000D01*
X67339285Y-71446428D01*
X67339285Y-71589285D01*
X67303571Y-71660714D01*
X67267857Y-71696428D01*
X67196428Y-71732142D01*
X67017857Y-71732142D01*
X66946428Y-71696428D01*
X66910714Y-71660714D01*
X66875000Y-71589285D01*
X66875000Y-71446428D01*
X66910714Y-71375000D01*
X66946428Y-71339285D01*
X67017857Y-71303571D01*
X66839285Y-72375000D02*
X67339285Y-72375000D01*
X66553571Y-72196428D02*
X67089285Y-72017857D01*
X67089285Y-72482142D01*
G04 #@! TO.C,D6*
X67551785Y-73446428D02*
X66801785Y-73446428D01*
X66801785Y-73625000D01*
X66837500Y-73732142D01*
X66908928Y-73803571D01*
X66980357Y-73839285D01*
X67123214Y-73875000D01*
X67230357Y-73875000D01*
X67373214Y-73839285D01*
X67444642Y-73803571D01*
X67516071Y-73732142D01*
X67551785Y-73625000D01*
X67551785Y-73446428D01*
X66801785Y-74517857D02*
X66801785Y-74375000D01*
X66837500Y-74303571D01*
X66873214Y-74267857D01*
X66980357Y-74196428D01*
X67123214Y-74160714D01*
X67408928Y-74160714D01*
X67480357Y-74196428D01*
X67516071Y-74232142D01*
X67551785Y-74303571D01*
X67551785Y-74446428D01*
X67516071Y-74517857D01*
X67480357Y-74553571D01*
X67408928Y-74589285D01*
X67230357Y-74589285D01*
X67158928Y-74553571D01*
X67123214Y-74517857D01*
X67087500Y-74446428D01*
X67087500Y-74303571D01*
X67123214Y-74232142D01*
X67158928Y-74196428D01*
X67230357Y-74160714D01*
G04 #@! TO.C,C25*
X63317857Y-57467857D02*
X63353571Y-57432142D01*
X63389285Y-57325000D01*
X63389285Y-57253571D01*
X63353571Y-57146428D01*
X63282142Y-57075000D01*
X63210714Y-57039285D01*
X63067857Y-57003571D01*
X62960714Y-57003571D01*
X62817857Y-57039285D01*
X62746428Y-57075000D01*
X62675000Y-57146428D01*
X62639285Y-57253571D01*
X62639285Y-57325000D01*
X62675000Y-57432142D01*
X62710714Y-57467857D01*
X62710714Y-57753571D02*
X62675000Y-57789285D01*
X62639285Y-57860714D01*
X62639285Y-58039285D01*
X62675000Y-58110714D01*
X62710714Y-58146428D01*
X62782142Y-58182142D01*
X62853571Y-58182142D01*
X62960714Y-58146428D01*
X63389285Y-57717857D01*
X63389285Y-58182142D01*
X62639285Y-58860714D02*
X62639285Y-58503571D01*
X62996428Y-58467857D01*
X62960714Y-58503571D01*
X62925000Y-58575000D01*
X62925000Y-58753571D01*
X62960714Y-58825000D01*
X62996428Y-58860714D01*
X63067857Y-58896428D01*
X63246428Y-58896428D01*
X63317857Y-58860714D01*
X63353571Y-58825000D01*
X63389285Y-58753571D01*
X63389285Y-58575000D01*
X63353571Y-58503571D01*
X63317857Y-58467857D01*
G04 #@! TO.C,U8*
X70664285Y-51453571D02*
X71271428Y-51453571D01*
X71342857Y-51489285D01*
X71378571Y-51525000D01*
X71414285Y-51596428D01*
X71414285Y-51739285D01*
X71378571Y-51810714D01*
X71342857Y-51846428D01*
X71271428Y-51882142D01*
X70664285Y-51882142D01*
X70985714Y-52346428D02*
X70950000Y-52275000D01*
X70914285Y-52239285D01*
X70842857Y-52203571D01*
X70807142Y-52203571D01*
X70735714Y-52239285D01*
X70700000Y-52275000D01*
X70664285Y-52346428D01*
X70664285Y-52489285D01*
X70700000Y-52560714D01*
X70735714Y-52596428D01*
X70807142Y-52632142D01*
X70842857Y-52632142D01*
X70914285Y-52596428D01*
X70950000Y-52560714D01*
X70985714Y-52489285D01*
X70985714Y-52346428D01*
X71021428Y-52275000D01*
X71057142Y-52239285D01*
X71128571Y-52203571D01*
X71271428Y-52203571D01*
X71342857Y-52239285D01*
X71378571Y-52275000D01*
X71414285Y-52346428D01*
X71414285Y-52489285D01*
X71378571Y-52560714D01*
X71342857Y-52596428D01*
X71271428Y-52632142D01*
X71128571Y-52632142D01*
X71057142Y-52596428D01*
X71021428Y-52560714D01*
X70985714Y-52489285D01*
G04 #@! TO.C,C18*
X93142857Y-68107142D02*
X93190476Y-68154761D01*
X93333333Y-68202380D01*
X93428571Y-68202380D01*
X93571428Y-68154761D01*
X93666666Y-68059523D01*
X93714285Y-67964285D01*
X93761904Y-67773809D01*
X93761904Y-67630952D01*
X93714285Y-67440476D01*
X93666666Y-67345238D01*
X93571428Y-67250000D01*
X93428571Y-67202380D01*
X93333333Y-67202380D01*
X93190476Y-67250000D01*
X93142857Y-67297619D01*
X92190476Y-68202380D02*
X92761904Y-68202380D01*
X92476190Y-68202380D02*
X92476190Y-67202380D01*
X92571428Y-67345238D01*
X92666666Y-67440476D01*
X92761904Y-67488095D01*
X91619047Y-67630952D02*
X91714285Y-67583333D01*
X91761904Y-67535714D01*
X91809523Y-67440476D01*
X91809523Y-67392857D01*
X91761904Y-67297619D01*
X91714285Y-67250000D01*
X91619047Y-67202380D01*
X91428571Y-67202380D01*
X91333333Y-67250000D01*
X91285714Y-67297619D01*
X91238095Y-67392857D01*
X91238095Y-67440476D01*
X91285714Y-67535714D01*
X91333333Y-67583333D01*
X91428571Y-67630952D01*
X91619047Y-67630952D01*
X91714285Y-67678571D01*
X91761904Y-67726190D01*
X91809523Y-67821428D01*
X91809523Y-68011904D01*
X91761904Y-68107142D01*
X91714285Y-68154761D01*
X91619047Y-68202380D01*
X91428571Y-68202380D01*
X91333333Y-68154761D01*
X91285714Y-68107142D01*
X91238095Y-68011904D01*
X91238095Y-67821428D01*
X91285714Y-67726190D01*
X91333333Y-67678571D01*
X91428571Y-67630952D01*
G04 #@! TO.C,C32*
X93857142Y-56107142D02*
X93904761Y-56059523D01*
X93952380Y-55916666D01*
X93952380Y-55821428D01*
X93904761Y-55678571D01*
X93809523Y-55583333D01*
X93714285Y-55535714D01*
X93523809Y-55488095D01*
X93380952Y-55488095D01*
X93190476Y-55535714D01*
X93095238Y-55583333D01*
X93000000Y-55678571D01*
X92952380Y-55821428D01*
X92952380Y-55916666D01*
X93000000Y-56059523D01*
X93047619Y-56107142D01*
X92952380Y-56440476D02*
X92952380Y-57059523D01*
X93333333Y-56726190D01*
X93333333Y-56869047D01*
X93380952Y-56964285D01*
X93428571Y-57011904D01*
X93523809Y-57059523D01*
X93761904Y-57059523D01*
X93857142Y-57011904D01*
X93904761Y-56964285D01*
X93952380Y-56869047D01*
X93952380Y-56583333D01*
X93904761Y-56488095D01*
X93857142Y-56440476D01*
X93047619Y-57440476D02*
X93000000Y-57488095D01*
X92952380Y-57583333D01*
X92952380Y-57821428D01*
X93000000Y-57916666D01*
X93047619Y-57964285D01*
X93142857Y-58011904D01*
X93238095Y-58011904D01*
X93380952Y-57964285D01*
X93952380Y-57392857D01*
X93952380Y-58011904D01*
G04 #@! TO.C,C332*
X92607142Y-55630952D02*
X92654761Y-55583333D01*
X92702380Y-55440476D01*
X92702380Y-55345238D01*
X92654761Y-55202380D01*
X92559523Y-55107142D01*
X92464285Y-55059523D01*
X92273809Y-55011904D01*
X92130952Y-55011904D01*
X91940476Y-55059523D01*
X91845238Y-55107142D01*
X91750000Y-55202380D01*
X91702380Y-55345238D01*
X91702380Y-55440476D01*
X91750000Y-55583333D01*
X91797619Y-55630952D01*
X91702380Y-55964285D02*
X91702380Y-56583333D01*
X92083333Y-56250000D01*
X92083333Y-56392857D01*
X92130952Y-56488095D01*
X92178571Y-56535714D01*
X92273809Y-56583333D01*
X92511904Y-56583333D01*
X92607142Y-56535714D01*
X92654761Y-56488095D01*
X92702380Y-56392857D01*
X92702380Y-56107142D01*
X92654761Y-56011904D01*
X92607142Y-55964285D01*
X91702380Y-56916666D02*
X91702380Y-57535714D01*
X92083333Y-57202380D01*
X92083333Y-57345238D01*
X92130952Y-57440476D01*
X92178571Y-57488095D01*
X92273809Y-57535714D01*
X92511904Y-57535714D01*
X92607142Y-57488095D01*
X92654761Y-57440476D01*
X92702380Y-57345238D01*
X92702380Y-57059523D01*
X92654761Y-56964285D01*
X92607142Y-56916666D01*
X91797619Y-57916666D02*
X91750000Y-57964285D01*
X91702380Y-58059523D01*
X91702380Y-58297619D01*
X91750000Y-58392857D01*
X91797619Y-58440476D01*
X91892857Y-58488095D01*
X91988095Y-58488095D01*
X92130952Y-58440476D01*
X92702380Y-57869047D01*
X92702380Y-58488095D01*
G04 #@! TO.C,C42*
X93857142Y-71857142D02*
X93904761Y-71809523D01*
X93952380Y-71666666D01*
X93952380Y-71571428D01*
X93904761Y-71428571D01*
X93809523Y-71333333D01*
X93714285Y-71285714D01*
X93523809Y-71238095D01*
X93380952Y-71238095D01*
X93190476Y-71285714D01*
X93095238Y-71333333D01*
X93000000Y-71428571D01*
X92952380Y-71571428D01*
X92952380Y-71666666D01*
X93000000Y-71809523D01*
X93047619Y-71857142D01*
X93285714Y-72714285D02*
X93952380Y-72714285D01*
X92904761Y-72476190D02*
X93619047Y-72238095D01*
X93619047Y-72857142D01*
X93047619Y-73190476D02*
X93000000Y-73238095D01*
X92952380Y-73333333D01*
X92952380Y-73571428D01*
X93000000Y-73666666D01*
X93047619Y-73714285D01*
X93142857Y-73761904D01*
X93238095Y-73761904D01*
X93380952Y-73714285D01*
X93952380Y-73142857D01*
X93952380Y-73761904D01*
G04 #@! TO.C,C267*
X95619047Y-62607142D02*
X95666666Y-62654761D01*
X95809523Y-62702380D01*
X95904761Y-62702380D01*
X96047619Y-62654761D01*
X96142857Y-62559523D01*
X96190476Y-62464285D01*
X96238095Y-62273809D01*
X96238095Y-62130952D01*
X96190476Y-61940476D01*
X96142857Y-61845238D01*
X96047619Y-61750000D01*
X95904761Y-61702380D01*
X95809523Y-61702380D01*
X95666666Y-61750000D01*
X95619047Y-61797619D01*
X95238095Y-61797619D02*
X95190476Y-61750000D01*
X95095238Y-61702380D01*
X94857142Y-61702380D01*
X94761904Y-61750000D01*
X94714285Y-61797619D01*
X94666666Y-61892857D01*
X94666666Y-61988095D01*
X94714285Y-62130952D01*
X95285714Y-62702380D01*
X94666666Y-62702380D01*
X93809523Y-61702380D02*
X94000000Y-61702380D01*
X94095238Y-61750000D01*
X94142857Y-61797619D01*
X94238095Y-61940476D01*
X94285714Y-62130952D01*
X94285714Y-62511904D01*
X94238095Y-62607142D01*
X94190476Y-62654761D01*
X94095238Y-62702380D01*
X93904761Y-62702380D01*
X93809523Y-62654761D01*
X93761904Y-62607142D01*
X93714285Y-62511904D01*
X93714285Y-62273809D01*
X93761904Y-62178571D01*
X93809523Y-62130952D01*
X93904761Y-62083333D01*
X94095238Y-62083333D01*
X94190476Y-62130952D01*
X94238095Y-62178571D01*
X94285714Y-62273809D01*
X93380952Y-61702380D02*
X92714285Y-61702380D01*
X93142857Y-62702380D01*
G04 #@! TO.C,C200*
X96169047Y-61837142D02*
X96216666Y-61884761D01*
X96359523Y-61932380D01*
X96454761Y-61932380D01*
X96597619Y-61884761D01*
X96692857Y-61789523D01*
X96740476Y-61694285D01*
X96788095Y-61503809D01*
X96788095Y-61360952D01*
X96740476Y-61170476D01*
X96692857Y-61075238D01*
X96597619Y-60980000D01*
X96454761Y-60932380D01*
X96359523Y-60932380D01*
X96216666Y-60980000D01*
X96169047Y-61027619D01*
X95788095Y-61027619D02*
X95740476Y-60980000D01*
X95645238Y-60932380D01*
X95407142Y-60932380D01*
X95311904Y-60980000D01*
X95264285Y-61027619D01*
X95216666Y-61122857D01*
X95216666Y-61218095D01*
X95264285Y-61360952D01*
X95835714Y-61932380D01*
X95216666Y-61932380D01*
X94597619Y-60932380D02*
X94502380Y-60932380D01*
X94407142Y-60980000D01*
X94359523Y-61027619D01*
X94311904Y-61122857D01*
X94264285Y-61313333D01*
X94264285Y-61551428D01*
X94311904Y-61741904D01*
X94359523Y-61837142D01*
X94407142Y-61884761D01*
X94502380Y-61932380D01*
X94597619Y-61932380D01*
X94692857Y-61884761D01*
X94740476Y-61837142D01*
X94788095Y-61741904D01*
X94835714Y-61551428D01*
X94835714Y-61313333D01*
X94788095Y-61122857D01*
X94740476Y-61027619D01*
X94692857Y-60980000D01*
X94597619Y-60932380D01*
X93645238Y-60932380D02*
X93550000Y-60932380D01*
X93454761Y-60980000D01*
X93407142Y-61027619D01*
X93359523Y-61122857D01*
X93311904Y-61313333D01*
X93311904Y-61551428D01*
X93359523Y-61741904D01*
X93407142Y-61837142D01*
X93454761Y-61884761D01*
X93550000Y-61932380D01*
X93645238Y-61932380D01*
X93740476Y-61884761D01*
X93788095Y-61837142D01*
X93835714Y-61741904D01*
X93883333Y-61551428D01*
X93883333Y-61313333D01*
X93835714Y-61122857D01*
X93788095Y-61027619D01*
X93740476Y-60980000D01*
X93645238Y-60932380D01*
G04 #@! TO.C,R200*
X93119047Y-57852380D02*
X93452380Y-57376190D01*
X93690476Y-57852380D02*
X93690476Y-56852380D01*
X93309523Y-56852380D01*
X93214285Y-56900000D01*
X93166666Y-56947619D01*
X93119047Y-57042857D01*
X93119047Y-57185714D01*
X93166666Y-57280952D01*
X93214285Y-57328571D01*
X93309523Y-57376190D01*
X93690476Y-57376190D01*
X92738095Y-56947619D02*
X92690476Y-56900000D01*
X92595238Y-56852380D01*
X92357142Y-56852380D01*
X92261904Y-56900000D01*
X92214285Y-56947619D01*
X92166666Y-57042857D01*
X92166666Y-57138095D01*
X92214285Y-57280952D01*
X92785714Y-57852380D01*
X92166666Y-57852380D01*
X91547619Y-56852380D02*
X91452380Y-56852380D01*
X91357142Y-56900000D01*
X91309523Y-56947619D01*
X91261904Y-57042857D01*
X91214285Y-57233333D01*
X91214285Y-57471428D01*
X91261904Y-57661904D01*
X91309523Y-57757142D01*
X91357142Y-57804761D01*
X91452380Y-57852380D01*
X91547619Y-57852380D01*
X91642857Y-57804761D01*
X91690476Y-57757142D01*
X91738095Y-57661904D01*
X91785714Y-57471428D01*
X91785714Y-57233333D01*
X91738095Y-57042857D01*
X91690476Y-56947619D01*
X91642857Y-56900000D01*
X91547619Y-56852380D01*
X90595238Y-56852380D02*
X90500000Y-56852380D01*
X90404761Y-56900000D01*
X90357142Y-56947619D01*
X90309523Y-57042857D01*
X90261904Y-57233333D01*
X90261904Y-57471428D01*
X90309523Y-57661904D01*
X90357142Y-57757142D01*
X90404761Y-57804761D01*
X90500000Y-57852380D01*
X90595238Y-57852380D01*
X90690476Y-57804761D01*
X90738095Y-57757142D01*
X90785714Y-57661904D01*
X90833333Y-57471428D01*
X90833333Y-57233333D01*
X90785714Y-57042857D01*
X90738095Y-56947619D01*
X90690476Y-56900000D01*
X90595238Y-56852380D01*
G04 #@! TO.C,C50*
X86642857Y-58857142D02*
X86690476Y-58904761D01*
X86833333Y-58952380D01*
X86928571Y-58952380D01*
X87071428Y-58904761D01*
X87166666Y-58809523D01*
X87214285Y-58714285D01*
X87261904Y-58523809D01*
X87261904Y-58380952D01*
X87214285Y-58190476D01*
X87166666Y-58095238D01*
X87071428Y-58000000D01*
X86928571Y-57952380D01*
X86833333Y-57952380D01*
X86690476Y-58000000D01*
X86642857Y-58047619D01*
X85738095Y-57952380D02*
X86214285Y-57952380D01*
X86261904Y-58428571D01*
X86214285Y-58380952D01*
X86119047Y-58333333D01*
X85880952Y-58333333D01*
X85785714Y-58380952D01*
X85738095Y-58428571D01*
X85690476Y-58523809D01*
X85690476Y-58761904D01*
X85738095Y-58857142D01*
X85785714Y-58904761D01*
X85880952Y-58952380D01*
X86119047Y-58952380D01*
X86214285Y-58904761D01*
X86261904Y-58857142D01*
X85071428Y-57952380D02*
X84976190Y-57952380D01*
X84880952Y-58000000D01*
X84833333Y-58047619D01*
X84785714Y-58142857D01*
X84738095Y-58333333D01*
X84738095Y-58571428D01*
X84785714Y-58761904D01*
X84833333Y-58857142D01*
X84880952Y-58904761D01*
X84976190Y-58952380D01*
X85071428Y-58952380D01*
X85166666Y-58904761D01*
X85214285Y-58857142D01*
X85261904Y-58761904D01*
X85309523Y-58571428D01*
X85309523Y-58333333D01*
X85261904Y-58142857D01*
X85214285Y-58047619D01*
X85166666Y-58000000D01*
X85071428Y-57952380D01*
G04 #@! TO.C,C51*
X86642857Y-74857142D02*
X86690476Y-74904761D01*
X86833333Y-74952380D01*
X86928571Y-74952380D01*
X87071428Y-74904761D01*
X87166666Y-74809523D01*
X87214285Y-74714285D01*
X87261904Y-74523809D01*
X87261904Y-74380952D01*
X87214285Y-74190476D01*
X87166666Y-74095238D01*
X87071428Y-74000000D01*
X86928571Y-73952380D01*
X86833333Y-73952380D01*
X86690476Y-74000000D01*
X86642857Y-74047619D01*
X85738095Y-73952380D02*
X86214285Y-73952380D01*
X86261904Y-74428571D01*
X86214285Y-74380952D01*
X86119047Y-74333333D01*
X85880952Y-74333333D01*
X85785714Y-74380952D01*
X85738095Y-74428571D01*
X85690476Y-74523809D01*
X85690476Y-74761904D01*
X85738095Y-74857142D01*
X85785714Y-74904761D01*
X85880952Y-74952380D01*
X86119047Y-74952380D01*
X86214285Y-74904761D01*
X86261904Y-74857142D01*
X84738095Y-74952380D02*
X85309523Y-74952380D01*
X85023809Y-74952380D02*
X85023809Y-73952380D01*
X85119047Y-74095238D01*
X85214285Y-74190476D01*
X85309523Y-74238095D01*
G04 #@! TO.C,Q1*
X59797619Y-73679761D02*
X59750000Y-73584523D01*
X59654761Y-73489285D01*
X59511904Y-73346428D01*
X59464285Y-73251190D01*
X59464285Y-73155952D01*
X59702380Y-73203571D02*
X59654761Y-73108333D01*
X59559523Y-73013095D01*
X59369047Y-72965476D01*
X59035714Y-72965476D01*
X58845238Y-73013095D01*
X58750000Y-73108333D01*
X58702380Y-73203571D01*
X58702380Y-73394047D01*
X58750000Y-73489285D01*
X58845238Y-73584523D01*
X59035714Y-73632142D01*
X59369047Y-73632142D01*
X59559523Y-73584523D01*
X59654761Y-73489285D01*
X59702380Y-73394047D01*
X59702380Y-73203571D01*
X59702380Y-74584523D02*
X59702380Y-74013095D01*
X59702380Y-74298809D02*
X58702380Y-74298809D01*
X58845238Y-74203571D01*
X58940476Y-74108333D01*
X58988095Y-74013095D01*
G04 #@! TO.C,D400*
X66852976Y-55133630D02*
X66852976Y-54133630D01*
X66614880Y-54133630D01*
X66472023Y-54181250D01*
X66376785Y-54276488D01*
X66329166Y-54371726D01*
X66281547Y-54562202D01*
X66281547Y-54705059D01*
X66329166Y-54895535D01*
X66376785Y-54990773D01*
X66472023Y-55086011D01*
X66614880Y-55133630D01*
X66852976Y-55133630D01*
X65424404Y-54466964D02*
X65424404Y-55133630D01*
X65662500Y-54086011D02*
X65900595Y-54800297D01*
X65281547Y-54800297D01*
X64710119Y-54133630D02*
X64614880Y-54133630D01*
X64519642Y-54181250D01*
X64472023Y-54228869D01*
X64424404Y-54324107D01*
X64376785Y-54514583D01*
X64376785Y-54752678D01*
X64424404Y-54943154D01*
X64472023Y-55038392D01*
X64519642Y-55086011D01*
X64614880Y-55133630D01*
X64710119Y-55133630D01*
X64805357Y-55086011D01*
X64852976Y-55038392D01*
X64900595Y-54943154D01*
X64948214Y-54752678D01*
X64948214Y-54514583D01*
X64900595Y-54324107D01*
X64852976Y-54228869D01*
X64805357Y-54181250D01*
X64710119Y-54133630D01*
X63757738Y-54133630D02*
X63662500Y-54133630D01*
X63567261Y-54181250D01*
X63519642Y-54228869D01*
X63472023Y-54324107D01*
X63424404Y-54514583D01*
X63424404Y-54752678D01*
X63472023Y-54943154D01*
X63519642Y-55038392D01*
X63567261Y-55086011D01*
X63662500Y-55133630D01*
X63757738Y-55133630D01*
X63852976Y-55086011D01*
X63900595Y-55038392D01*
X63948214Y-54943154D01*
X63995833Y-54752678D01*
X63995833Y-54514583D01*
X63948214Y-54324107D01*
X63900595Y-54228869D01*
X63852976Y-54181250D01*
X63757738Y-54133630D01*
G04 #@! TO.C,C500*
X64514642Y-63943452D02*
X64562261Y-63895833D01*
X64609880Y-63752976D01*
X64609880Y-63657738D01*
X64562261Y-63514880D01*
X64467023Y-63419642D01*
X64371785Y-63372023D01*
X64181309Y-63324404D01*
X64038452Y-63324404D01*
X63847976Y-63372023D01*
X63752738Y-63419642D01*
X63657500Y-63514880D01*
X63609880Y-63657738D01*
X63609880Y-63752976D01*
X63657500Y-63895833D01*
X63705119Y-63943452D01*
X63609880Y-64848214D02*
X63609880Y-64372023D01*
X64086071Y-64324404D01*
X64038452Y-64372023D01*
X63990833Y-64467261D01*
X63990833Y-64705357D01*
X64038452Y-64800595D01*
X64086071Y-64848214D01*
X64181309Y-64895833D01*
X64419404Y-64895833D01*
X64514642Y-64848214D01*
X64562261Y-64800595D01*
X64609880Y-64705357D01*
X64609880Y-64467261D01*
X64562261Y-64372023D01*
X64514642Y-64324404D01*
X63609880Y-65514880D02*
X63609880Y-65610119D01*
X63657500Y-65705357D01*
X63705119Y-65752976D01*
X63800357Y-65800595D01*
X63990833Y-65848214D01*
X64228928Y-65848214D01*
X64419404Y-65800595D01*
X64514642Y-65752976D01*
X64562261Y-65705357D01*
X64609880Y-65610119D01*
X64609880Y-65514880D01*
X64562261Y-65419642D01*
X64514642Y-65372023D01*
X64419404Y-65324404D01*
X64228928Y-65276785D01*
X63990833Y-65276785D01*
X63800357Y-65324404D01*
X63705119Y-65372023D01*
X63657500Y-65419642D01*
X63609880Y-65514880D01*
X63609880Y-66467261D02*
X63609880Y-66562500D01*
X63657500Y-66657738D01*
X63705119Y-66705357D01*
X63800357Y-66752976D01*
X63990833Y-66800595D01*
X64228928Y-66800595D01*
X64419404Y-66752976D01*
X64514642Y-66705357D01*
X64562261Y-66657738D01*
X64609880Y-66562500D01*
X64609880Y-66467261D01*
X64562261Y-66372023D01*
X64514642Y-66324404D01*
X64419404Y-66276785D01*
X64228928Y-66229166D01*
X63990833Y-66229166D01*
X63800357Y-66276785D01*
X63705119Y-66324404D01*
X63657500Y-66372023D01*
X63609880Y-66467261D01*
G04 #@! TO.C,U500*
X67464285Y-63952380D02*
X67464285Y-64761904D01*
X67416666Y-64857142D01*
X67369047Y-64904761D01*
X67273809Y-64952380D01*
X67083333Y-64952380D01*
X66988095Y-64904761D01*
X66940476Y-64857142D01*
X66892857Y-64761904D01*
X66892857Y-63952380D01*
X65940476Y-63952380D02*
X66416666Y-63952380D01*
X66464285Y-64428571D01*
X66416666Y-64380952D01*
X66321428Y-64333333D01*
X66083333Y-64333333D01*
X65988095Y-64380952D01*
X65940476Y-64428571D01*
X65892857Y-64523809D01*
X65892857Y-64761904D01*
X65940476Y-64857142D01*
X65988095Y-64904761D01*
X66083333Y-64952380D01*
X66321428Y-64952380D01*
X66416666Y-64904761D01*
X66464285Y-64857142D01*
X65273809Y-63952380D02*
X65178571Y-63952380D01*
X65083333Y-64000000D01*
X65035714Y-64047619D01*
X64988095Y-64142857D01*
X64940476Y-64333333D01*
X64940476Y-64571428D01*
X64988095Y-64761904D01*
X65035714Y-64857142D01*
X65083333Y-64904761D01*
X65178571Y-64952380D01*
X65273809Y-64952380D01*
X65369047Y-64904761D01*
X65416666Y-64857142D01*
X65464285Y-64761904D01*
X65511904Y-64571428D01*
X65511904Y-64333333D01*
X65464285Y-64142857D01*
X65416666Y-64047619D01*
X65369047Y-64000000D01*
X65273809Y-63952380D01*
X64321428Y-63952380D02*
X64226190Y-63952380D01*
X64130952Y-64000000D01*
X64083333Y-64047619D01*
X64035714Y-64142857D01*
X63988095Y-64333333D01*
X63988095Y-64571428D01*
X64035714Y-64761904D01*
X64083333Y-64857142D01*
X64130952Y-64904761D01*
X64226190Y-64952380D01*
X64321428Y-64952380D01*
X64416666Y-64904761D01*
X64464285Y-64857142D01*
X64511904Y-64761904D01*
X64559523Y-64571428D01*
X64559523Y-64333333D01*
X64511904Y-64142857D01*
X64464285Y-64047619D01*
X64416666Y-64000000D01*
X64321428Y-63952380D01*
G04 #@! TO.C,C501*
X62869047Y-65327142D02*
X62916666Y-65374761D01*
X63059523Y-65422380D01*
X63154761Y-65422380D01*
X63297619Y-65374761D01*
X63392857Y-65279523D01*
X63440476Y-65184285D01*
X63488095Y-64993809D01*
X63488095Y-64850952D01*
X63440476Y-64660476D01*
X63392857Y-64565238D01*
X63297619Y-64470000D01*
X63154761Y-64422380D01*
X63059523Y-64422380D01*
X62916666Y-64470000D01*
X62869047Y-64517619D01*
X61964285Y-64422380D02*
X62440476Y-64422380D01*
X62488095Y-64898571D01*
X62440476Y-64850952D01*
X62345238Y-64803333D01*
X62107142Y-64803333D01*
X62011904Y-64850952D01*
X61964285Y-64898571D01*
X61916666Y-64993809D01*
X61916666Y-65231904D01*
X61964285Y-65327142D01*
X62011904Y-65374761D01*
X62107142Y-65422380D01*
X62345238Y-65422380D01*
X62440476Y-65374761D01*
X62488095Y-65327142D01*
X61297619Y-64422380D02*
X61202380Y-64422380D01*
X61107142Y-64470000D01*
X61059523Y-64517619D01*
X61011904Y-64612857D01*
X60964285Y-64803333D01*
X60964285Y-65041428D01*
X61011904Y-65231904D01*
X61059523Y-65327142D01*
X61107142Y-65374761D01*
X61202380Y-65422380D01*
X61297619Y-65422380D01*
X61392857Y-65374761D01*
X61440476Y-65327142D01*
X61488095Y-65231904D01*
X61535714Y-65041428D01*
X61535714Y-64803333D01*
X61488095Y-64612857D01*
X61440476Y-64517619D01*
X61392857Y-64470000D01*
X61297619Y-64422380D01*
X60011904Y-65422380D02*
X60583333Y-65422380D01*
X60297619Y-65422380D02*
X60297619Y-64422380D01*
X60392857Y-64565238D01*
X60488095Y-64660476D01*
X60583333Y-64708095D01*
G04 #@! TD*
M02*
