G04 #@! TF.GenerationSoftware,KiCad,Pcbnew,5.0.2-bee76a0~70~ubuntu18.04.1*
G04 #@! TF.CreationDate,2019-05-20T11:18:47+08:00*
G04 #@! TF.ProjectId,require,72657175-6972-4652-9e6b-696361645f70,rev?*
G04 #@! TF.SameCoordinates,Original*
G04 #@! TF.FileFunction,Copper,L4,Inr*
G04 #@! TF.FilePolarity,Positive*
%FSLAX46Y46*%
G04 Gerber Fmt 4.6, Leading zero omitted, Abs format (unit mm)*
G04 Created by KiCad (PCBNEW 5.0.2-bee76a0~70~ubuntu18.04.1) date 2019年05月20日 星期一 11时18分47秒*
%MOMM*%
%LPD*%
G01*
G04 APERTURE LIST*
G04 #@! TA.AperFunction,ViaPad*
%ADD10O,1.587500X1.587500*%
G04 #@! TD*
G04 #@! TA.AperFunction,ViaPad*
%ADD11O,1.400000X2.100000*%
G04 #@! TD*
G04 #@! TA.AperFunction,ViaPad*
%ADD12C,0.400000*%
G04 #@! TD*
G04 #@! TA.AperFunction,ViaPad*
%ADD13C,0.500000*%
G04 #@! TD*
G04 #@! TA.AperFunction,Conductor*
%ADD14C,0.200000*%
G04 #@! TD*
G04 #@! TA.AperFunction,Conductor*
%ADD15C,0.100000*%
G04 #@! TD*
G04 #@! TA.AperFunction,Conductor*
%ADD16C,0.150000*%
G04 #@! TD*
G04 #@! TA.AperFunction,Conductor*
%ADD17C,0.500000*%
G04 #@! TD*
G04 APERTURE END LIST*
D10*
G04 #@! TO.N,/rk3308-io/D2*
G04 #@! TO.C,RP2*
X53610000Y-52300000D03*
G04 #@! TD*
G04 #@! TO.N,/rk3308-io/A0*
G04 #@! TO.C,LP3*
X56150000Y-77700000D03*
G04 #@! TD*
G04 #@! TO.N,/rk3308-io/A1*
G04 #@! TO.C,LP31*
X56150000Y-75160000D03*
G04 #@! TD*
G04 #@! TO.N,/rk3308-io/A2*
G04 #@! TO.C,LP4*
X58690000Y-77700000D03*
G04 #@! TD*
G04 #@! TO.N,/rk3308-io/A3*
G04 #@! TO.C,LP41*
X58690000Y-75160000D03*
G04 #@! TD*
G04 #@! TO.N,/USB_HOST_D2_N*
G04 #@! TO.C,LP9*
X71390000Y-77700000D03*
G04 #@! TD*
G04 #@! TO.N,/USB_HOST_D2_P*
G04 #@! TO.C,LP10*
X73930000Y-77700000D03*
G04 #@! TD*
G04 #@! TO.N,+5V*
G04 #@! TO.C,LP8*
X68850000Y-77700000D03*
G04 #@! TD*
G04 #@! TO.N,GND*
G04 #@! TO.C,LP7*
X66310000Y-77700000D03*
G04 #@! TD*
G04 #@! TO.N,+3V3*
G04 #@! TO.C,LP1*
X40910000Y-77700000D03*
G04 #@! TD*
G04 #@! TO.N,/rk3308-io/D11*
G04 #@! TO.C,RP11*
X76470000Y-52300000D03*
G04 #@! TD*
G04 #@! TO.N,/rk3308-io/D12*
G04 #@! TO.C,RP12*
X79010000Y-52300000D03*
G04 #@! TD*
G04 #@! TO.N,/rk3308-io/D13*
G04 #@! TO.C,RP13*
X81550000Y-52300000D03*
G04 #@! TD*
G04 #@! TO.N,Net-(D820-Pad1)*
G04 #@! TO.C,LP5*
X61230000Y-77700000D03*
G04 #@! TD*
G04 #@! TO.N,Net-(D820-Pad2)*
G04 #@! TO.C,LP6*
X63770000Y-77700000D03*
G04 #@! TD*
G04 #@! TO.N,/rk3308-io/D1*
G04 #@! TO.C,RP1*
X51070000Y-52300000D03*
G04 #@! TD*
G04 #@! TO.N,/rk3308-io/D3*
G04 #@! TO.C,RP3*
X56150000Y-52300000D03*
G04 #@! TD*
G04 #@! TO.N,/rk3308-io/D4*
G04 #@! TO.C,RP4*
X58690000Y-52300000D03*
G04 #@! TD*
G04 #@! TO.N,/rk3308-io/D5*
G04 #@! TO.C,RP5*
X61230000Y-52300000D03*
G04 #@! TD*
G04 #@! TO.N,/rk3308-io/D6*
G04 #@! TO.C,RP6*
X63770000Y-52300000D03*
G04 #@! TD*
G04 #@! TO.N,/rk3308-io/D7*
G04 #@! TO.C,RP7*
X66310000Y-52300000D03*
G04 #@! TD*
G04 #@! TO.N,/rk3308-io/D8*
G04 #@! TO.C,RP8*
X68850000Y-52300000D03*
G04 #@! TD*
G04 #@! TO.N,/rk3308-io/D9*
G04 #@! TO.C,RP9*
X71390000Y-52300000D03*
G04 #@! TD*
G04 #@! TO.N,/rk3308-io/D10*
G04 #@! TO.C,RP10*
X73930000Y-52300000D03*
G04 #@! TD*
G04 #@! TO.N,GND*
G04 #@! TO.C,RP14*
X84090000Y-52300000D03*
G04 #@! TD*
G04 #@! TO.N,GND*
G04 #@! TO.C,LP2*
X43450000Y-77700000D03*
G04 #@! TD*
D11*
G04 #@! TO.N,GND*
G04 #@! TO.C,J800*
X40550000Y-52150000D03*
X48450000Y-52150000D03*
G04 #@! TD*
G04 #@! TO.N,GND*
G04 #@! TO.C,J801*
X84450000Y-77850000D03*
X76550000Y-77850000D03*
G04 #@! TD*
D12*
G04 #@! TO.N,GND*
X81750000Y-57000000D03*
X64750000Y-73750000D03*
X56750000Y-71000000D03*
X56631250Y-68656250D03*
D13*
X44175000Y-56150000D03*
D12*
X52750000Y-62250000D03*
X53250000Y-62249998D03*
X81750000Y-56000000D03*
X59960000Y-74525000D03*
X59960000Y-77065000D03*
X59960000Y-78335000D03*
X64750000Y-73250000D03*
X68250000Y-59150000D03*
X53750000Y-62250000D03*
X83100000Y-63400000D03*
X82300000Y-63400000D03*
X83100000Y-69800000D03*
X83100000Y-71400000D03*
X75900000Y-59400000D03*
X83100000Y-58600000D03*
X75900000Y-63400000D03*
X75900000Y-61799994D03*
X63050000Y-62400000D03*
X59150000Y-64350000D03*
X70200000Y-67600000D03*
X71500000Y-65000000D03*
X69550000Y-65000000D03*
X85900000Y-64200000D03*
X82300000Y-61800000D03*
X57750000Y-59750000D03*
X54750000Y-56750000D03*
X63700000Y-62400000D03*
X60450000Y-66300000D03*
X69550000Y-70200000D03*
X70850000Y-68900000D03*
X73100000Y-70600000D03*
X76700000Y-68200000D03*
X71499998Y-71500000D03*
X83100000Y-67400000D03*
X82300000Y-65000000D03*
X77500000Y-65800000D03*
X83100000Y-68200000D03*
X63050000Y-67600000D03*
X65000000Y-68900000D03*
X68250000Y-65650000D03*
X66300000Y-63050000D03*
X66950000Y-63700000D03*
X65650000Y-63700000D03*
X64350000Y-63700000D03*
X63050000Y-63700000D03*
X59800000Y-64350000D03*
X60450000Y-70200000D03*
X57750000Y-62750000D03*
X57750000Y-58750000D03*
X57750000Y-60750000D03*
X65650000Y-63050000D03*
X54750000Y-60250000D03*
X54750000Y-61250000D03*
X59800000Y-68900000D03*
X85900000Y-70600000D03*
X67600000Y-59150000D03*
X64918750Y-71581250D03*
X76700000Y-62600000D03*
X77500000Y-60200000D03*
X73100000Y-58600000D03*
X73100000Y-60200000D03*
X73100000Y-62600000D03*
X73100000Y-65400000D03*
D13*
X73750000Y-57750000D03*
D12*
X73100000Y-68200000D03*
X85900000Y-65800000D03*
X85900000Y-67000000D03*
X85900000Y-68000000D03*
X85900000Y-69000000D03*
X85900000Y-62600000D03*
X85900000Y-60200000D03*
X85900000Y-59400000D03*
X61100000Y-65650000D03*
X62400000Y-67600000D03*
X66300000Y-63700000D03*
X65000000Y-63700000D03*
X63700000Y-63700000D03*
X64350000Y-63050000D03*
X68250000Y-65000000D03*
X73100000Y-57800000D03*
X56743666Y-64243666D03*
X54743660Y-64250000D03*
X55743684Y-64249999D03*
X68250000Y-68900000D03*
X75900000Y-71400000D03*
X73100000Y-59400000D03*
X79600000Y-63800000D03*
X71500000Y-63050000D03*
X65000000Y-69550000D03*
X68250000Y-70200000D03*
X65650000Y-68900000D03*
X64837500Y-70200000D03*
X75900000Y-68999979D03*
X63700000Y-71500000D03*
X63700000Y-70850000D03*
D13*
X42750000Y-60500000D03*
X46000000Y-63250000D03*
X71400000Y-75100000D03*
D12*
X60450000Y-62400000D03*
X60450000Y-60450000D03*
X53250000Y-60750000D03*
X82300000Y-60200000D03*
X85900000Y-61000000D03*
X85900000Y-72000000D03*
X85900000Y-73000000D03*
X53412490Y-59750000D03*
X70850000Y-58500000D03*
X59150000Y-59150000D03*
X66300000Y-70850000D03*
X73500000Y-73800000D03*
X75900000Y-73800000D03*
X75100000Y-73800000D03*
X74300000Y-73800000D03*
X76700000Y-73800000D03*
X77500000Y-73800000D03*
X78300000Y-73800000D03*
X79100000Y-73800000D03*
X79900000Y-73800000D03*
X80700000Y-73800000D03*
X72700000Y-73800000D03*
X71900000Y-73800000D03*
X71100000Y-73800000D03*
X70300000Y-73800000D03*
X69500000Y-73800000D03*
X68700000Y-73800000D03*
X67900000Y-73800000D03*
X67100000Y-73800000D03*
X66300000Y-73000000D03*
X65500000Y-72200000D03*
X64918750Y-70931250D03*
X75100000Y-75000000D03*
X75900000Y-75000000D03*
X76700000Y-75000000D03*
X74300000Y-75000000D03*
X81800000Y-73400000D03*
X46250000Y-71750000D03*
X47250000Y-71750000D03*
X48250000Y-71750000D03*
X49250000Y-71750000D03*
X50250000Y-71750000D03*
X52250000Y-71750000D03*
X54250000Y-71750000D03*
X53250000Y-71750000D03*
X53250000Y-78750000D03*
X53250000Y-77750000D03*
X53250000Y-75750000D03*
X53250000Y-74750000D03*
X53250000Y-73750000D03*
X53250000Y-72750000D03*
X45250000Y-73200000D03*
X43700000Y-73200000D03*
X44250000Y-72250000D03*
X43250000Y-72500000D03*
X43250000Y-71750000D03*
X45250000Y-72500000D03*
X54250000Y-78750000D03*
X53250000Y-76750000D03*
X54250000Y-74750000D03*
X54250000Y-73750000D03*
X54250000Y-72750000D03*
X54250000Y-75750000D03*
X44750000Y-75250000D03*
X43750000Y-75250000D03*
X51250000Y-71750000D03*
X41500000Y-73000000D03*
X41500000Y-72000000D03*
X54250000Y-76750000D03*
X54250000Y-77750000D03*
X55250000Y-76750000D03*
X55250000Y-78750000D03*
X55250000Y-73750000D03*
X55250000Y-72750000D03*
X51700000Y-70100000D03*
X52200000Y-70100000D03*
X56500000Y-73000000D03*
X45250000Y-71750000D03*
X80100000Y-60200000D03*
D13*
X62000000Y-75250000D03*
D12*
X63943750Y-72231250D03*
X39000000Y-71750000D03*
X39000000Y-72750000D03*
X39000000Y-73750000D03*
X39000000Y-74750000D03*
X39000000Y-75750000D03*
X39000000Y-76750000D03*
X39000000Y-78750000D03*
X39000000Y-77750000D03*
X41000000Y-71750000D03*
X41100000Y-75300000D03*
X41000000Y-76250000D03*
X42250000Y-76750000D03*
X41500000Y-74000000D03*
X42000000Y-74700000D03*
X44250000Y-76250000D03*
X45250000Y-77000000D03*
X45250000Y-78750000D03*
X44250000Y-78750000D03*
X42750000Y-78750000D03*
X40000000Y-78750000D03*
X45250000Y-76000000D03*
D13*
X46000000Y-62500000D03*
D12*
X48750000Y-62000000D03*
X49250000Y-63500000D03*
X50250000Y-64750000D03*
D13*
X50300000Y-55000000D03*
D12*
X49100000Y-55400000D03*
X52250000Y-72750000D03*
X52250000Y-73750000D03*
X52250000Y-74750000D03*
X52250000Y-75750000D03*
X52250000Y-76750000D03*
X52250000Y-77750000D03*
X52250000Y-78750000D03*
D13*
X45750000Y-56000000D03*
X46250000Y-56000000D03*
X79000000Y-76500000D03*
X79500000Y-76500000D03*
D12*
X43000000Y-76000000D03*
X44500000Y-73200000D03*
X45250000Y-78000000D03*
X42250000Y-77750000D03*
X41750000Y-78750000D03*
X39250000Y-62250000D03*
X43250000Y-58250000D03*
X44750000Y-58250000D03*
X67750000Y-76000000D03*
X72000000Y-76500000D03*
X73250000Y-76500000D03*
D13*
X66500000Y-56750000D03*
X66500000Y-56000000D03*
X66500000Y-57500000D03*
D12*
X76100000Y-57200000D03*
X76900000Y-57200000D03*
X77700000Y-57200000D03*
X78500000Y-57200000D03*
X79300000Y-57200000D03*
X80100000Y-57200000D03*
X81750000Y-57750000D03*
X84500000Y-54250000D03*
X84500000Y-55250000D03*
X81500000Y-54500000D03*
X83750000Y-58000000D03*
X60250000Y-55500000D03*
X62000000Y-72250000D03*
X65000000Y-75500000D03*
X52340000Y-51665000D03*
X54880000Y-51665000D03*
X57420000Y-51665000D03*
X59960000Y-51665000D03*
X62500000Y-51665000D03*
X65040000Y-51665000D03*
X67580000Y-51665000D03*
X70120000Y-51665000D03*
X72660000Y-51665000D03*
X75200000Y-51665000D03*
X77740000Y-51665000D03*
X80280000Y-51665000D03*
X82820000Y-51665000D03*
X72660000Y-78335000D03*
X70120000Y-78335000D03*
X62500000Y-78335000D03*
X65040000Y-78335000D03*
X67580000Y-78335000D03*
X57420000Y-78335000D03*
X59960000Y-75795000D03*
X39500000Y-56250000D03*
X39500000Y-54750000D03*
D13*
X43500000Y-60500000D03*
X42000000Y-60500000D03*
X46000000Y-64000000D03*
D12*
X60450000Y-64350000D03*
X66300000Y-66950000D03*
X66950000Y-66300000D03*
X65650000Y-66950000D03*
X68900000Y-64350000D03*
X69550000Y-63700000D03*
X70500000Y-53500000D03*
X58987500Y-73775000D03*
X58337500Y-71662500D03*
G04 #@! TO.N,/ddr/DDR_A1*
X80700000Y-69800000D03*
X68412500Y-71662500D03*
G04 #@! TO.N,/ddr/DDR_A7*
X70850000Y-71500000D03*
X77500000Y-70600000D03*
G04 #@! TO.N,/ddr/DDR_A2*
X78300000Y-69800000D03*
X70200000Y-71500000D03*
G04 #@! TO.N,/ddr/DDR_A11*
X80700000Y-70600000D03*
X67112500Y-71662500D03*
G04 #@! TO.N,/ddr/DDR_A6*
X81500000Y-70600000D03*
X67762500Y-71662500D03*
G04 #@! TO.N,/ddr/DDR_A12*
X80700000Y-69000000D03*
X67600000Y-70200000D03*
G04 #@! TO.N,/ddr/DDR_A3*
X68250000Y-68250000D03*
X76700000Y-69000000D03*
G04 #@! TO.N,/ddr/DDR_A4*
X81500000Y-69800000D03*
X66950000Y-70850000D03*
G04 #@! TO.N,/ddr/DDR_A13*
X65650000Y-69550000D03*
X77500000Y-71400000D03*
G04 #@! TO.N,/ddr/DDR_A9*
X78300000Y-70600000D03*
X66950000Y-68900000D03*
G04 #@! TO.N,/ddr/DDR_A10*
X66300000Y-70200000D03*
X80700004Y-67400000D03*
G04 #@! TO.N,/ddr/DDR_D5*
X71500000Y-67600000D03*
X78300000Y-59400000D03*
G04 #@! TO.N,/ddr/DDR_D3*
X71500000Y-63700000D03*
X81500000Y-58600000D03*
G04 #@! TO.N,/ddr/DDR_CLKN*
X70850000Y-70200000D03*
X81500000Y-65800000D03*
G04 #@! TO.N,/ddr/DDR_D4*
X82300000Y-61000000D03*
X72150000Y-67600000D03*
G04 #@! TO.N,/ddr/DDR_D9*
X69550000Y-67600000D03*
X77500000Y-62600000D03*
G04 #@! TO.N,/ddr/DDR_DQS1P*
X78300000Y-63400000D03*
X70850000Y-66300000D03*
G04 #@! TO.N,/ddr/DDR_D7*
X70850000Y-65000000D03*
X81500000Y-59400000D03*
G04 #@! TO.N,/ddr/DDR_D12*
X70200000Y-65000000D03*
X76700000Y-63400000D03*
G04 #@! TO.N,/ddr/DDR_D14*
X70850000Y-63700000D03*
X81500000Y-62600000D03*
G04 #@! TO.N,/ddr/DDR_CLKP*
X80700000Y-65800000D03*
X70200000Y-70200000D03*
G04 #@! TO.N,/ddr/DDR_D11*
X81500000Y-65000000D03*
X70200000Y-68900000D03*
G04 #@! TO.N,/ddr/DDR_D6*
X69550000Y-68900000D03*
X81500000Y-61800000D03*
G04 #@! TO.N,/ddr/DDR_D13*
X70850000Y-67600000D03*
X78300000Y-61800000D03*
G04 #@! TO.N,/ddr/DDR_DQS1N*
X77500000Y-63400000D03*
X70200000Y-66300000D03*
G04 #@! TO.N,/ddr/DDR_DM1*
X80700000Y-61800000D03*
X70200000Y-63700000D03*
G04 #@! TO.N,/ddr/DDR_RESET*
X76700000Y-70600000D03*
X68900000Y-68900000D03*
G04 #@! TO.N,/ddr/DDR_D8*
X68900000Y-67600000D03*
X80700000Y-65000000D03*
G04 #@! TO.N,/ddr/DDR_D2*
X78300000Y-60200000D03*
X68900000Y-66300000D03*
G04 #@! TO.N,/ddr/DDR_D0*
X76700000Y-60200000D03*
X69550000Y-66300000D03*
G04 #@! TO.N,/ddr/DDR_D10*
X80700000Y-62600000D03*
X69550000Y-64350000D03*
G04 #@! TO.N,/ddr/DDR_ODT0*
X73100000Y-69800000D03*
X68900000Y-70200000D03*
X75900000Y-65800000D03*
G04 #@! TO.N,/ddr/DDR_D1*
X77500000Y-59400000D03*
X68250000Y-66300000D03*
G04 #@! TO.N,/ddr/DDR_D15*
X77500000Y-64200000D03*
X68900000Y-65000000D03*
G04 #@! TO.N,/ddr/DDR_BA2*
X77500000Y-68200000D03*
X67600000Y-68250000D03*
G04 #@! TO.N,/ddr/DDR_BA1*
X81500000Y-69000000D03*
X66950000Y-70200000D03*
G04 #@! TO.N,/ddr/DDR_CASN*
X77500000Y-66600000D03*
X66300000Y-68900000D03*
G04 #@! TO.N,/ddr/DDR_WEN*
X77500000Y-67400000D03*
X66949952Y-68250000D03*
G04 #@! TO.N,/ddr/DDR_CKE0*
X65650000Y-70200000D03*
X80700000Y-66600000D03*
G04 #@! TO.N,VCC_DDR*
X83100000Y-61000000D03*
X83100000Y-64200000D03*
X83100000Y-69000000D03*
X83100000Y-70600000D03*
X75900000Y-62600000D03*
X76700000Y-64200000D03*
X75900000Y-70600000D03*
X75900000Y-68200000D03*
X81500000Y-63400000D03*
X76700000Y-59400000D03*
X67600000Y-66300000D03*
X66950000Y-66950000D03*
X66300000Y-67600000D03*
X65650000Y-68250000D03*
X75899986Y-60200000D03*
X83100000Y-62600000D03*
X76700000Y-61800000D03*
X76700000Y-65800000D03*
X82300000Y-65800000D03*
X65650000Y-67600000D03*
D13*
X75250000Y-57750000D03*
D12*
X83100000Y-60200000D03*
X82300000Y-59400000D03*
D13*
X85250000Y-57500000D03*
X85250000Y-58250000D03*
D12*
X83100000Y-72000000D03*
X83100000Y-73000000D03*
G04 #@! TO.N,/emmc/EMMC_RST*
X65000000Y-61750000D03*
G04 #@! TO.N,Net-(R50-Pad1)*
X82300000Y-67400000D03*
G04 #@! TO.N,/emmc/VDDi*
X57740000Y-58240000D03*
G04 #@! TO.N,/rk3308-io/I2C1_SCL*
X71500000Y-59800000D03*
G04 #@! TO.N,/rk3308-io/I2C1_SDA*
X70850000Y-59800000D03*
G04 #@! TO.N,/rk3308-io/WIFI_WAKE_HOST*
X68900000Y-63050000D03*
X52600000Y-68600000D03*
G04 #@! TO.N,/rk3308-io/WIFI_REG_ON*
X69550000Y-62400000D03*
X52600000Y-69500000D03*
G04 #@! TO.N,/rk3308-io/HOST_WAKE_BT*
X61100000Y-67600000D03*
X46000000Y-69800000D03*
G04 #@! TO.N,/rk3308-io/BT_WAKE_HOST*
X46900000Y-69800000D03*
X61100000Y-66950000D03*
G04 #@! TO.N,/rk3308-io/UART4_TXD*
X61750000Y-66950000D03*
X41200000Y-68600000D03*
G04 #@! TO.N,/rk3308-io/UART4_RXD*
X60450000Y-67600000D03*
X41200000Y-67700000D03*
G04 #@! TO.N,/rk3308-io/UART4_RTS*
X59800000Y-65000000D03*
X41200000Y-69500000D03*
G04 #@! TO.N,/rk3308-io/BT_REG_ON*
X39374990Y-60500000D03*
X59800000Y-67625010D03*
G04 #@! TO.N,/rk3308-io/UART4_CTS*
X59150000Y-65000000D03*
X41200000Y-66800000D03*
G04 #@! TO.N,/rk3308-io/A4*
X60450000Y-70850000D03*
G04 #@! TO.N,/rk3308-io/D1*
X63700000Y-59150000D03*
X55000000Y-54250000D03*
G04 #@! TO.N,/rk3308-io/D2*
X63700000Y-61750000D03*
X51500000Y-54250000D03*
X55000000Y-55250000D03*
G04 #@! TO.N,/rk3308-io/D3*
X62400000Y-60450000D03*
G04 #@! TO.N,/rk3308-io/D4*
X61750000Y-60450000D03*
G04 #@! TO.N,/rk3308-io/D7*
X65650000Y-59150000D03*
G04 #@! TO.N,/rk3308-io/D8*
X65650000Y-61750000D03*
G04 #@! TO.N,/rk3308-io/D9*
X65000000Y-60450000D03*
X67750000Y-53250000D03*
G04 #@! TO.N,/rk3308-io/D10*
X65650000Y-61100000D03*
X68550000Y-53900000D03*
G04 #@! TO.N,/rk3308-io/D11*
X70850000Y-59150000D03*
G04 #@! TO.N,/rk3308-io/D12*
X71500000Y-59150000D03*
G04 #@! TO.N,/rk3308-io/D13*
X70200000Y-60450000D03*
G04 #@! TO.N,/wireless/LPO*
X70200000Y-59150000D03*
X49600004Y-60500000D03*
G04 #@! TO.N,/emmc/EMMC_D7*
X63700000Y-60450000D03*
X54250000Y-58750000D03*
G04 #@! TO.N,/emmc/EMMC_CLK*
X63050000Y-61750000D03*
G04 #@! TO.N,/emmc/EMMC_CMD*
X63050000Y-60450000D03*
X58250000Y-62250000D03*
G04 #@! TO.N,/emmc/EMMC_D6*
X65000000Y-61100000D03*
X57750000Y-60250000D03*
G04 #@! TO.N,/emmc/EMMC_D2*
X64350000Y-58500000D03*
X55250000Y-56750000D03*
G04 #@! TO.N,/emmc/EMMC_D5*
X65000000Y-59800000D03*
G04 #@! TO.N,/emmc/EMMC_D1*
X63050000Y-59150000D03*
X55750000Y-56750000D03*
G04 #@! TO.N,/emmc/EMMC_D4*
X64350000Y-59150000D03*
X56750000Y-56750000D03*
G04 #@! TO.N,/emmc/EMMC_D3*
X65000000Y-59150000D03*
G04 #@! TO.N,/USB_OTG_D_P*
X63050000Y-70850000D03*
X47262135Y-57562564D03*
G04 #@! TO.N,/USB_OTG_D_N*
X63050000Y-71500000D03*
X46837869Y-57986830D03*
D13*
G04 #@! TO.N,+3V3*
X46750000Y-65250000D03*
D12*
X70200000Y-58500000D03*
D13*
X48700000Y-69750000D03*
D12*
X64350000Y-61750000D03*
X54750000Y-58750000D03*
X54750000Y-59750000D03*
X54750000Y-60750000D03*
X62400000Y-69550000D03*
X63050000Y-66300000D03*
X70200000Y-59800000D03*
X61100000Y-64350000D03*
X56243695Y-64249991D03*
X55243673Y-64250000D03*
D13*
X46000000Y-65250000D03*
D12*
X46200000Y-61500000D03*
X68250000Y-63050000D03*
X53250000Y-61250000D03*
D13*
X48700000Y-68750000D03*
X50200000Y-60500000D03*
X49250000Y-58000000D03*
D12*
X57000000Y-55250000D03*
X60250000Y-57000000D03*
G04 #@! TO.N,+1V8*
X61100000Y-68900000D03*
G04 #@! TO.N,+1V8A*
X61750000Y-68900000D03*
G04 #@! TO.N,+1V0L*
X64350000Y-67600000D03*
X65000000Y-67600000D03*
X65000000Y-66950000D03*
X64350000Y-66950000D03*
X63700000Y-66950000D03*
X63700000Y-67600000D03*
D13*
X61200000Y-72600000D03*
G04 #@! TO.N,+1V0C*
X61250000Y-56750000D03*
X61250000Y-57750000D03*
D12*
X66950000Y-63050000D03*
X66300000Y-62400000D03*
X68250014Y-61750000D03*
X67600000Y-61750000D03*
X67600000Y-63050000D03*
X68250000Y-58500000D03*
G04 #@! TO.N,+1V0*
X62400000Y-68900000D03*
D13*
G04 #@! TO.N,+5V*
X42700000Y-56250000D03*
D12*
X40500000Y-58500000D03*
D13*
X79500000Y-54500000D03*
X43200000Y-56250000D03*
X81800000Y-74150000D03*
X82300000Y-74150000D03*
D12*
X44500000Y-62250000D03*
D13*
X68250000Y-54500000D03*
X67000000Y-75500000D03*
D12*
X65650000Y-58500000D03*
G04 #@! TO.N,Net-(C330-Pad1)*
X75900000Y-64200000D03*
X82300000Y-68200000D03*
X79600000Y-62800000D03*
G04 #@! TO.N,Net-(C520-Pad1)*
X45200000Y-69800000D03*
G04 #@! TO.N,Net-(C521-Pad1)*
X47200000Y-67900000D03*
G04 #@! TO.N,Net-(C202-Pad2)*
X67600000Y-58500000D03*
G04 #@! TO.N,Net-(C222-Pad2)*
X62800000Y-72600000D03*
G04 #@! TO.N,Net-(C232-Pad2)*
X82900000Y-57600000D03*
G04 #@! TO.N,/rk3308-io/USB_EXTR*
X61750000Y-69550000D03*
G04 #@! TO.N,/rk3308-io/EMMC_VSEL*
X70200000Y-61750000D03*
G04 #@! TO.N,/emmc/EMMC_D0*
X64350000Y-60450000D03*
X56250000Y-56750000D03*
G04 #@! TO.N,Net-(C110-Pad1)*
X58500000Y-70850000D03*
G04 #@! TO.N,/USB_HOST_D3_P*
X81150000Y-76100000D03*
G04 #@! TO.N,/USB_HOST_D3_N*
X80500000Y-76100000D03*
G04 #@! TD*
D14*
G04 #@! TO.N,GND*
X70606250Y-61912500D02*
X70606250Y-60200000D01*
X68250000Y-65000000D02*
X68900000Y-64350000D01*
X70606250Y-60200000D02*
X73100000Y-60200000D01*
X69956250Y-62562500D02*
X70606250Y-61912500D01*
X69956250Y-63293750D02*
X69956250Y-62562500D01*
X68250000Y-65000000D02*
X68250000Y-65650000D01*
X68900000Y-64350000D02*
X69550000Y-63700000D01*
X69550000Y-63700000D02*
X69956250Y-63293750D01*
D15*
G04 #@! TO.N,/ddr/DDR_A1*
X75000000Y-71900000D02*
X75100000Y-71800000D01*
X72800000Y-71500000D02*
X73000000Y-71500000D01*
X75600000Y-71900000D02*
X78100000Y-71900000D01*
X74800000Y-71900000D02*
X75000000Y-71900000D01*
X75200000Y-71500000D02*
X75400000Y-71500000D01*
X74600000Y-71500000D02*
X74700000Y-71600000D01*
X72700000Y-71600000D02*
X72800000Y-71500000D01*
X74700000Y-71600000D02*
X74700000Y-71800000D01*
X74200000Y-71900000D02*
X74300000Y-71800000D01*
X73900000Y-71600000D02*
X73900000Y-71800000D01*
X75500000Y-71800000D02*
X75600000Y-71900000D01*
X73800000Y-71500000D02*
X73900000Y-71600000D01*
X73500000Y-71600000D02*
X73600000Y-71500000D01*
X73400000Y-71900000D02*
X73500000Y-71800000D01*
X74000000Y-71900000D02*
X74200000Y-71900000D01*
X75100000Y-71800000D02*
X75100000Y-71600000D01*
X73600000Y-71500000D02*
X73800000Y-71500000D01*
X73200000Y-71900000D02*
X73400000Y-71900000D01*
X73100000Y-71800000D02*
X73200000Y-71900000D01*
X74300000Y-71600000D02*
X74400000Y-71500000D01*
X73500000Y-71800000D02*
X73500000Y-71600000D01*
X72600000Y-71900000D02*
X72700000Y-71800000D01*
X72000000Y-71500000D02*
X72200000Y-71500000D01*
X74300000Y-71800000D02*
X74300000Y-71600000D01*
X72300000Y-71800000D02*
X72400000Y-71900000D01*
X73900000Y-71800000D02*
X74000000Y-71900000D01*
X73100000Y-71600000D02*
X73100000Y-71800000D01*
X68412500Y-71662500D02*
X68650000Y-71900000D01*
X71900000Y-71800000D02*
X71900000Y-71600000D01*
X71900000Y-71600000D02*
X72000000Y-71500000D01*
X71800000Y-71900000D02*
X71900000Y-71800000D01*
X74700000Y-71800000D02*
X74800000Y-71900000D01*
X68650000Y-71900000D02*
X71800000Y-71900000D01*
X72200000Y-71500000D02*
X72300000Y-71600000D01*
X74400000Y-71500000D02*
X74600000Y-71500000D01*
X78200000Y-71700000D02*
X78300000Y-71600000D01*
X72300000Y-71600000D02*
X72300000Y-71800000D01*
X72400000Y-71900000D02*
X72600000Y-71900000D01*
X72700000Y-71800000D02*
X72700000Y-71600000D01*
X73000000Y-71500000D02*
X73100000Y-71600000D01*
X75100000Y-71600000D02*
X75200000Y-71500000D01*
X75400000Y-71500000D02*
X75500000Y-71600000D01*
X75500000Y-71600000D02*
X75500000Y-71800000D01*
X78200000Y-71800000D02*
X78100000Y-71900000D01*
X78200000Y-71800000D02*
X78200000Y-71700000D01*
X78300000Y-71600000D02*
X78900000Y-71600000D01*
X78900000Y-71600000D02*
X80700000Y-69800000D01*
G04 #@! TO.N,/ddr/DDR_A11*
X78900000Y-72400000D02*
X80700000Y-70600000D01*
X67768750Y-72400000D02*
X78900000Y-72400000D01*
X67112500Y-71662500D02*
X67112500Y-71743750D01*
X67112500Y-71743750D02*
X67768750Y-72400000D01*
G04 #@! TO.N,/ddr/DDR_A12*
X79500000Y-70200000D02*
X80700000Y-69000000D01*
X78700000Y-71000000D02*
X79100000Y-70600000D01*
X75600000Y-71000000D02*
X78700000Y-71000000D01*
X79300000Y-70200000D02*
X79500000Y-70200000D01*
X75500000Y-70900000D02*
X75600000Y-71000000D01*
X75400000Y-70600000D02*
X75500000Y-70700000D01*
X75100000Y-70700000D02*
X75200000Y-70600000D01*
X75000000Y-71000000D02*
X75100000Y-70900000D01*
X74800000Y-71000000D02*
X75000000Y-71000000D01*
X74700000Y-70900000D02*
X74800000Y-71000000D01*
X74700000Y-70700000D02*
X74700000Y-70900000D01*
X73600000Y-70600000D02*
X73800000Y-70600000D01*
X73500000Y-70900000D02*
X73500000Y-70700000D01*
X73400000Y-71000000D02*
X73500000Y-70900000D01*
X73500000Y-70700000D02*
X73600000Y-70600000D01*
X73900000Y-70900000D02*
X74000000Y-71000000D01*
X79100000Y-70400000D02*
X79300000Y-70200000D01*
X74300000Y-70700000D02*
X74400000Y-70600000D01*
X74600000Y-70600000D02*
X74700000Y-70700000D01*
X79100000Y-70600000D02*
X79100000Y-70400000D01*
X68100000Y-71000000D02*
X73400000Y-71000000D01*
X67600000Y-70200000D02*
X67600000Y-70500000D01*
X67600000Y-70500000D02*
X68100000Y-71000000D01*
X75200000Y-70600000D02*
X75400000Y-70600000D01*
X74200000Y-71000000D02*
X74300000Y-70900000D01*
X73800000Y-70600000D02*
X73900000Y-70700000D01*
X75500000Y-70700000D02*
X75500000Y-70900000D01*
X73900000Y-70700000D02*
X73900000Y-70900000D01*
X74000000Y-71000000D02*
X74200000Y-71000000D01*
X75100000Y-70900000D02*
X75100000Y-70700000D01*
X74300000Y-70900000D02*
X74300000Y-70700000D01*
X74400000Y-70600000D02*
X74600000Y-70600000D01*
G04 #@! TO.N,/ddr/DDR_CLKN*
X75117154Y-70100010D02*
X77082846Y-70100010D01*
X70482846Y-69500010D02*
X71282846Y-69500010D01*
X75117152Y-70100008D02*
X75117156Y-70100008D01*
X81400000Y-65900000D02*
X81500000Y-65800000D01*
X74799990Y-69782846D02*
X75117152Y-70100008D01*
X71282846Y-69500010D02*
X71482846Y-69300010D01*
X71482846Y-69300010D02*
X74617154Y-69300010D01*
X81082846Y-68500010D02*
X81500010Y-68082846D01*
X77082846Y-70100010D02*
X77400008Y-69782848D01*
X70600000Y-70200000D02*
X70550001Y-70150001D01*
X79200010Y-68682846D02*
X79382846Y-68500010D01*
X70550001Y-70031999D02*
X70400010Y-69882008D01*
X75117156Y-70100008D02*
X75117154Y-70100010D01*
X74617154Y-69300010D02*
X74799990Y-69482846D01*
X70850000Y-70200000D02*
X70600000Y-70200000D01*
X70550001Y-70150001D02*
X70550001Y-70031999D01*
X74799990Y-69482846D02*
X74799990Y-69782846D01*
X70400010Y-69882008D02*
X70400010Y-69582846D01*
X70400010Y-69582846D02*
X70482846Y-69500010D01*
X77400008Y-69782848D02*
X77400008Y-69782844D01*
X77400008Y-69782844D02*
X77400010Y-69782846D01*
X77400010Y-69782846D02*
X77400010Y-69482846D01*
X77400010Y-69482846D02*
X77582846Y-69300010D01*
X77582846Y-69300010D02*
X78982846Y-69300010D01*
X78982846Y-69300010D02*
X79200010Y-69082846D01*
X79200010Y-69082846D02*
X79200010Y-68682846D01*
X79382846Y-68500010D02*
X81082846Y-68500010D01*
X81500010Y-66317154D02*
X81400000Y-66217144D01*
X81400000Y-66217144D02*
X81400000Y-65900000D01*
X81500010Y-68082846D02*
X81500010Y-66317154D01*
G04 #@! TO.N,/ddr/DDR_D9*
X76400000Y-66200000D02*
X75900000Y-66700000D01*
X77700000Y-66200000D02*
X76400000Y-66200000D01*
X78800000Y-63100000D02*
X78800000Y-65100000D01*
X78800000Y-65100000D02*
X77700000Y-66200000D01*
X77500000Y-62600000D02*
X78300000Y-62600000D01*
X78300000Y-62600000D02*
X78800000Y-63100000D01*
X75900000Y-66700000D02*
X70450000Y-66700000D01*
X70450000Y-66700000D02*
X69550000Y-67600000D01*
G04 #@! TO.N,/ddr/DDR_DQS1P*
X78200000Y-63300000D02*
X78300000Y-63400000D01*
X78000000Y-63300000D02*
X78200000Y-63300000D01*
X77900000Y-63400000D02*
X78000000Y-63300000D01*
X77900000Y-63517144D02*
X77900000Y-63400000D01*
X78099999Y-63717143D02*
X77900000Y-63517144D01*
X77900000Y-65100000D02*
X78099999Y-64900001D01*
X73700000Y-64600000D02*
X73800000Y-64500000D01*
X73700000Y-66000000D02*
X73700000Y-64600000D01*
X70850000Y-66300000D02*
X70950000Y-66200000D01*
X73800000Y-64500000D02*
X74100000Y-64500000D01*
X78099999Y-64900001D02*
X78099999Y-63717143D01*
X73500000Y-66200000D02*
X73700000Y-66000000D01*
X70950000Y-66200000D02*
X73500000Y-66200000D01*
X74100000Y-64500000D02*
X74200000Y-64600000D01*
X74200000Y-64600000D02*
X74200000Y-66000000D01*
X74200000Y-66000000D02*
X74400000Y-66200000D01*
X74900000Y-66200000D02*
X75100000Y-66000000D01*
X75100000Y-66000000D02*
X75100000Y-65000000D01*
X74400000Y-66200000D02*
X74900000Y-66200000D01*
X75100000Y-65000000D02*
X75200000Y-64900000D01*
X75200000Y-64900000D02*
X75600000Y-64900000D01*
X75600000Y-64900000D02*
X75800000Y-65100000D01*
X75800000Y-65100000D02*
X77900000Y-65100000D01*
G04 #@! TO.N,/ddr/DDR_D12*
X71981250Y-64600000D02*
X70356250Y-64600000D01*
X72312500Y-62587500D02*
X72312500Y-64268750D01*
X73100000Y-61800000D02*
X72312500Y-62587500D01*
X73500000Y-61900000D02*
X73400000Y-61800000D01*
X73500000Y-62500000D02*
X73500000Y-61900000D01*
X73600000Y-62600000D02*
X73500000Y-62500000D01*
X74000000Y-62500000D02*
X73900000Y-62600000D01*
X74000000Y-61900000D02*
X74000000Y-62500000D01*
X74100000Y-61800000D02*
X74000000Y-61900000D01*
X77100000Y-62300000D02*
X77000000Y-62200000D01*
X77100000Y-62900000D02*
X77100000Y-62300000D01*
X77000000Y-63000000D02*
X77100000Y-62900000D01*
X76800000Y-63000000D02*
X77000000Y-63000000D01*
X75400000Y-61800000D02*
X75100000Y-61800000D01*
X73900000Y-62600000D02*
X73600000Y-62600000D01*
X75000000Y-62500000D02*
X74900000Y-62600000D01*
X70200000Y-64756250D02*
X70200000Y-65000000D01*
X74500000Y-62500000D02*
X74500000Y-61900000D01*
X76700000Y-63400000D02*
X76700000Y-63100000D01*
X76700000Y-63100000D02*
X76800000Y-63000000D01*
X77000000Y-62200000D02*
X75600000Y-62200000D01*
X74600000Y-62600000D02*
X74500000Y-62500000D01*
X70356250Y-64600000D02*
X70200000Y-64756250D01*
X74400000Y-61800000D02*
X74100000Y-61800000D01*
X75500000Y-62100000D02*
X75500000Y-61900000D01*
X72312500Y-64268750D02*
X71981250Y-64600000D01*
X75500000Y-61900000D02*
X75400000Y-61800000D01*
X73400000Y-61800000D02*
X73100000Y-61800000D01*
X75100000Y-61800000D02*
X75000000Y-61900000D01*
X74500000Y-61900000D02*
X74400000Y-61800000D01*
X75600000Y-62200000D02*
X75500000Y-62100000D01*
X75000000Y-61900000D02*
X75000000Y-62500000D01*
X74900000Y-62600000D02*
X74600000Y-62600000D01*
G04 #@! TO.N,/ddr/DDR_D14*
X81700000Y-62600000D02*
X81500000Y-62600000D01*
X81800000Y-62300000D02*
X81800000Y-62500000D01*
X80400000Y-62200000D02*
X81700000Y-62200000D01*
X81700000Y-62200000D02*
X81800000Y-62300000D01*
X70850000Y-62968750D02*
X71500000Y-62318750D01*
X72400000Y-61000000D02*
X79200000Y-61000000D01*
X70850000Y-63700000D02*
X70850000Y-62968750D01*
X71500000Y-61900000D02*
X72400000Y-61000000D01*
X81800000Y-62500000D02*
X81700000Y-62600000D01*
X71500000Y-62318750D02*
X71500000Y-61900000D01*
X79200000Y-61000000D02*
X80400000Y-62200000D01*
G04 #@! TO.N,/ddr/DDR_CLKP*
X75200000Y-69900000D02*
X75000000Y-69700000D01*
X77200000Y-69700000D02*
X77000000Y-69900000D01*
X77200000Y-69400000D02*
X77200000Y-69700000D01*
X70400000Y-69300000D02*
X70200000Y-69500000D01*
X77500000Y-69100000D02*
X77200000Y-69400000D01*
X81300000Y-68000000D02*
X81000000Y-68300000D01*
X78900000Y-69100000D02*
X77500000Y-69100000D01*
X80700000Y-65800000D02*
X81000000Y-65800000D01*
X79000000Y-68600000D02*
X79000000Y-69000000D01*
X79300000Y-68300000D02*
X79000000Y-68600000D01*
X81000000Y-68300000D02*
X79300000Y-68300000D01*
X81199990Y-65999990D02*
X81199990Y-66299990D01*
X74700000Y-69100000D02*
X71400000Y-69100000D01*
X71400000Y-69100000D02*
X71200000Y-69300000D01*
X71200000Y-69300000D02*
X70400000Y-69300000D01*
X81000000Y-65800000D02*
X81199990Y-65999990D01*
X81300000Y-66400000D02*
X81300000Y-68000000D01*
X75000000Y-69400000D02*
X74700000Y-69100000D01*
X77000000Y-69900000D02*
X75200000Y-69900000D01*
X79000000Y-69000000D02*
X78900000Y-69100000D01*
X81199990Y-66299990D02*
X81300000Y-66400000D01*
X75000000Y-69700000D02*
X75000000Y-69400000D01*
X70200000Y-69500000D02*
X70200000Y-70200000D01*
G04 #@! TO.N,/ddr/DDR_D11*
X81200000Y-65000000D02*
X81500000Y-65000000D01*
X81100000Y-65300000D02*
X81100000Y-65100000D01*
X81000000Y-65400000D02*
X81100000Y-65300000D01*
X80000000Y-65500000D02*
X80100000Y-65400000D01*
X81100000Y-65100000D02*
X81200000Y-65000000D01*
X80100000Y-65400000D02*
X81000000Y-65400000D01*
X70200000Y-68575000D02*
X70281250Y-68493750D01*
X70200000Y-68900000D02*
X70200000Y-68575000D01*
X80000000Y-66300000D02*
X80000000Y-65500000D01*
X70281250Y-68493750D02*
X71175000Y-68493750D01*
X71175000Y-68493750D02*
X71281250Y-68600000D01*
X77700000Y-68600000D02*
X80000000Y-66300000D01*
X71281250Y-68600000D02*
X77700000Y-68600000D01*
G04 #@! TO.N,/ddr/DDR_D13*
X70850000Y-67356250D02*
X70850000Y-67600000D01*
X76700000Y-67000000D02*
X76500000Y-67200000D01*
X76500000Y-67200000D02*
X71006250Y-67200000D01*
X79200000Y-65500000D02*
X77700000Y-67000000D01*
X71006250Y-67200000D02*
X70850000Y-67356250D01*
X77700000Y-67000000D02*
X76700000Y-67000000D01*
X78300000Y-61800000D02*
X78600000Y-61800000D01*
X78700000Y-61900000D02*
X78600000Y-61800000D01*
X79200000Y-62400000D02*
X79100000Y-62300000D01*
X79200000Y-62400000D02*
X79200000Y-65500000D01*
X78800000Y-62300000D02*
X78700000Y-62200000D01*
X78700000Y-61900000D02*
X78700000Y-62200000D01*
X78800000Y-62300000D02*
X79100000Y-62300000D01*
G04 #@! TO.N,/ddr/DDR_DQS1N*
X77899989Y-63799989D02*
X77500000Y-63400000D01*
X77899989Y-64817155D02*
X77899989Y-63799989D01*
X75117154Y-64699990D02*
X75682846Y-64699990D01*
X74899990Y-64917154D02*
X75117154Y-64699990D01*
X74899990Y-65900010D02*
X74899990Y-64917154D01*
X77817154Y-64899990D02*
X77899989Y-64817155D01*
X70499999Y-66131999D02*
X70681999Y-65949999D01*
X70499999Y-66200001D02*
X70499999Y-66131999D01*
X73717154Y-64299990D02*
X74182846Y-64299990D01*
X75682846Y-64699990D02*
X75882846Y-64899990D01*
X71018001Y-65949999D02*
X71067992Y-65999990D01*
X70200000Y-66300000D02*
X70400000Y-66300000D01*
X70400000Y-66300000D02*
X70499999Y-66200001D01*
X71067992Y-65999990D02*
X73417154Y-65999990D01*
X70681999Y-65949999D02*
X71018001Y-65949999D01*
X74400010Y-65900010D02*
X74500000Y-66000000D01*
X74800000Y-66000000D02*
X74899990Y-65900010D01*
X73417154Y-65999990D02*
X73499990Y-65917154D01*
X73499990Y-65917154D02*
X73499990Y-64517154D01*
X73499990Y-64517154D02*
X73717154Y-64299990D01*
X74182846Y-64299990D02*
X74400010Y-64517154D01*
X74400010Y-64517154D02*
X74400010Y-65900010D01*
X75882846Y-64899990D02*
X77817154Y-64899990D01*
X74500000Y-66000000D02*
X74800000Y-66000000D01*
G04 #@! TO.N,/ddr/DDR_DM1*
X79500000Y-60600000D02*
X80700000Y-61800000D01*
X70443750Y-63456250D02*
X70443750Y-62725000D01*
X70200000Y-63700000D02*
X70443750Y-63456250D01*
X70443750Y-62725000D02*
X71093750Y-62075000D01*
X71800000Y-60600000D02*
X79500000Y-60600000D01*
X71093750Y-62075000D02*
X71093750Y-61306250D01*
X71093750Y-61306250D02*
X71800000Y-60600000D01*
G04 #@! TO.N,/ddr/DDR_D8*
X80500000Y-64800000D02*
X80700000Y-65000000D01*
X80000000Y-64800000D02*
X80500000Y-64800000D01*
X79600000Y-65200000D02*
X80000000Y-64800000D01*
X72762511Y-67799989D02*
X77700011Y-67799989D01*
X68900000Y-67600000D02*
X69300000Y-68000000D01*
X69300000Y-68000000D02*
X72562500Y-68000000D01*
X72562500Y-68000000D02*
X72762511Y-67799989D01*
X77700011Y-67799989D02*
X79600000Y-65900000D01*
X79600000Y-65900000D02*
X79600000Y-65200000D01*
G04 #@! TO.N,/ddr/DDR_D10*
X72800000Y-61400000D02*
X78900000Y-61400000D01*
X80100000Y-62600000D02*
X80700000Y-62600000D01*
X71693750Y-64106250D02*
X71906250Y-63893750D01*
X71906250Y-62293750D02*
X72800000Y-61400000D01*
X71906250Y-63893750D02*
X71906250Y-62293750D01*
X69793750Y-64106250D02*
X71693750Y-64106250D01*
X78900000Y-61400000D02*
X80100000Y-62600000D01*
X69793750Y-64106250D02*
X69550000Y-64350000D01*
G04 #@! TO.N,/ddr/DDR_ODT0*
X72293750Y-70606250D02*
X73100000Y-69800000D01*
X68900000Y-70200000D02*
X69306250Y-70606250D01*
X69306250Y-70606250D02*
X72293750Y-70606250D01*
G04 #@! TO.N,/ddr/DDR_D15*
X74900000Y-63800000D02*
X74600000Y-63800000D01*
X75600000Y-63800000D02*
X75500000Y-63700000D01*
X75000000Y-63700000D02*
X74900000Y-63800000D01*
X77100000Y-63800000D02*
X75600000Y-63800000D01*
X75100000Y-63000000D02*
X75000000Y-63100000D01*
X73400000Y-63200000D02*
X72818750Y-63200000D01*
X75500000Y-63100000D02*
X75400000Y-63000000D01*
X71906250Y-65406250D02*
X69306250Y-65406250D01*
X75500000Y-63700000D02*
X75500000Y-63100000D01*
X75400000Y-63000000D02*
X75100000Y-63000000D01*
X72718750Y-63300000D02*
X72718750Y-64593750D01*
X77500000Y-64200000D02*
X77100000Y-63800000D01*
X74400000Y-63000000D02*
X74100000Y-63000000D01*
X73600000Y-63800000D02*
X73500000Y-63700000D01*
X75000000Y-63100000D02*
X75000000Y-63700000D01*
X73500000Y-63700000D02*
X73500000Y-63300000D01*
X72818750Y-63200000D02*
X72718750Y-63300000D01*
X73500000Y-63300000D02*
X73400000Y-63200000D01*
X74600000Y-63800000D02*
X74500000Y-63700000D01*
X74500000Y-63700000D02*
X74500000Y-63100000D01*
X74100000Y-63000000D02*
X74000000Y-63100000D01*
X74500000Y-63100000D02*
X74400000Y-63000000D01*
X74000000Y-63100000D02*
X74000000Y-63700000D01*
X74000000Y-63700000D02*
X73900000Y-63800000D01*
X73900000Y-63800000D02*
X73600000Y-63800000D01*
X72718750Y-64593750D02*
X71906250Y-65406250D01*
X69306250Y-65406250D02*
X68900000Y-65000000D01*
D16*
G04 #@! TO.N,/rk3308-io/HOST_WAKE_BT*
X47000000Y-68800000D02*
X46000000Y-69800000D01*
X48000000Y-67800000D02*
X47000000Y-68800000D01*
X59200000Y-67800000D02*
X48000000Y-67800000D01*
X59487500Y-68087500D02*
X59200000Y-67800000D01*
X61100000Y-67600000D02*
X60612500Y-68087500D01*
X60612500Y-68087500D02*
X59487500Y-68087500D01*
G04 #@! TO.N,/rk3308-io/BT_WAKE_HOST*
X48509999Y-68199999D02*
X46900000Y-69809998D01*
X61100000Y-66950000D02*
X61506250Y-67356250D01*
X61506250Y-67762500D02*
X60768750Y-68500000D01*
X60768750Y-68500000D02*
X59100000Y-68500000D01*
X59100000Y-68500000D02*
X58799999Y-68199999D01*
X61506250Y-67356250D02*
X61506250Y-67762500D01*
X58799999Y-68199999D02*
X48509999Y-68199999D01*
G04 #@! TO.N,/rk3308-io/UART4_TXD*
X42000000Y-68600000D02*
X41200000Y-68600000D01*
X44000000Y-66600000D02*
X42000000Y-68600000D01*
X61343750Y-66543750D02*
X60856250Y-66543750D01*
X61750000Y-66950000D02*
X61343750Y-66543750D01*
X60856250Y-66543750D02*
X60700000Y-66700000D01*
X60700000Y-66700000D02*
X60200000Y-66700000D01*
X60200000Y-66700000D02*
X60100000Y-66600000D01*
X60100000Y-66600000D02*
X44000000Y-66600000D01*
G04 #@! TO.N,/rk3308-io/UART4_RXD*
X40800000Y-67700000D02*
X41200000Y-67700000D01*
X59850000Y-67000000D02*
X44400000Y-67000000D01*
X40250000Y-68250000D02*
X40800000Y-67700000D01*
X40250000Y-69250000D02*
X40250000Y-68250000D01*
X60450000Y-67600000D02*
X59850000Y-67000000D01*
X44400000Y-67000000D02*
X41400000Y-70000000D01*
X41400000Y-70000000D02*
X41000000Y-70000000D01*
X41000000Y-70000000D02*
X40250000Y-69250000D01*
G04 #@! TO.N,/rk3308-io/UART4_RTS*
X58600000Y-66200000D02*
X59800000Y-65000000D01*
X40800000Y-69100000D02*
X40800000Y-68407998D01*
X41200000Y-69500000D02*
X40800000Y-69100000D01*
X40800000Y-68407998D02*
X41007999Y-68199999D01*
X41007999Y-68199999D02*
X41500001Y-68199999D01*
X41500001Y-68199999D02*
X43500000Y-66200000D01*
X43500000Y-66200000D02*
X58600000Y-66200000D01*
G04 #@! TO.N,/rk3308-io/BT_REG_ON*
X39374990Y-60500000D02*
X39750000Y-60875010D01*
X39750000Y-60875010D02*
X39750000Y-69550000D01*
X39750000Y-69550000D02*
X40700000Y-70500000D01*
X40700000Y-70500000D02*
X41700000Y-70500000D01*
X59574990Y-67400000D02*
X59800000Y-67625010D01*
X41700000Y-70500000D02*
X44800000Y-67400000D01*
X44800000Y-67400000D02*
X59574990Y-67400000D01*
G04 #@! TO.N,/rk3308-io/UART4_CTS*
X42100000Y-66800000D02*
X41200000Y-66800000D01*
X43100000Y-65800000D02*
X42100000Y-66800000D01*
X59150000Y-65000000D02*
X58350000Y-65800000D01*
X58350000Y-65800000D02*
X43100000Y-65800000D01*
G04 #@! TO.N,/rk3308-io/D2*
X53610000Y-53140000D02*
X53610000Y-52300000D01*
X51500000Y-54250000D02*
X52500000Y-54250000D01*
X52500000Y-54250000D02*
X53610000Y-53140000D01*
G04 #@! TO.N,/rk3308-io/D3*
X55356251Y-53093749D02*
X56150000Y-52300000D01*
X53750000Y-54700000D02*
X55356251Y-53093749D01*
X61600000Y-61250000D02*
X57250000Y-61250000D01*
X62400000Y-60450000D02*
X61600000Y-61250000D01*
X57250000Y-61250000D02*
X55250000Y-59250000D01*
X55250000Y-59250000D02*
X55250000Y-58500000D01*
X55250000Y-58500000D02*
X53750000Y-57000000D01*
X53750000Y-57000000D02*
X53750000Y-54700000D01*
G04 #@! TO.N,/rk3308-io/D4*
X61750000Y-60450000D02*
X61300000Y-60000000D01*
X61300000Y-60000000D02*
X58750000Y-60000000D01*
X58750000Y-60000000D02*
X58000000Y-59250000D01*
X56500000Y-59250000D02*
X54250000Y-57000000D01*
X58000000Y-59250000D02*
X56500000Y-59250000D01*
X58690000Y-52300000D02*
X54990000Y-56000000D01*
X54500000Y-56000000D02*
X54250000Y-56250000D01*
X54250000Y-57000000D02*
X54250000Y-56250000D01*
X54990000Y-56000000D02*
X54500000Y-56000000D01*
G04 #@! TO.N,/rk3308-io/D9*
X71390000Y-52300000D02*
X70400000Y-52300000D01*
X68000000Y-53500000D02*
X67750000Y-53250000D01*
X69200000Y-53500000D02*
X68000000Y-53500000D01*
X70400000Y-52300000D02*
X69200000Y-53500000D01*
G04 #@! TO.N,/rk3308-io/D10*
X73930000Y-52300000D02*
X72330000Y-53900000D01*
X72330000Y-53900000D02*
X69182842Y-53900000D01*
X69182842Y-53900000D02*
X68900000Y-53900000D01*
X68900000Y-53900000D02*
X68550000Y-53900000D01*
D15*
G04 #@! TO.N,/emmc/EMMC_CMD*
X61700000Y-61800000D02*
X63050000Y-60450000D01*
X61700000Y-62600000D02*
X61700000Y-61800000D01*
X61600000Y-62700000D02*
X61700000Y-62600000D01*
X61200000Y-62600000D02*
X61300000Y-62700000D01*
X61200000Y-61900000D02*
X61200000Y-62600000D01*
X61100000Y-61800000D02*
X61200000Y-61900000D01*
X61300000Y-62700000D02*
X61600000Y-62700000D01*
X59700000Y-61800000D02*
X61100000Y-61800000D01*
X58250000Y-62250000D02*
X58250000Y-62600000D01*
X59600000Y-61900000D02*
X59700000Y-61800000D01*
X58250000Y-62600000D02*
X58350000Y-62700000D01*
X58350000Y-62700000D02*
X59500000Y-62700000D01*
X59500000Y-62700000D02*
X59600000Y-62600000D01*
X59600000Y-62600000D02*
X59600000Y-61900000D01*
G04 #@! TO.N,/emmc/EMMC_D2*
X55393750Y-56306250D02*
X55250000Y-56450000D01*
X64250000Y-58400000D02*
X59400000Y-58400000D01*
X64350000Y-58500000D02*
X64250000Y-58400000D01*
X55250000Y-56450000D02*
X55250000Y-56750000D01*
X59400000Y-58400000D02*
X58400000Y-57400000D01*
X58400000Y-56500000D02*
X58393750Y-56500000D01*
X58200000Y-56306250D02*
X55393750Y-56306250D01*
X58400000Y-57400000D02*
X58400000Y-56500000D01*
X58393750Y-56500000D02*
X58200000Y-56306250D01*
G04 #@! TO.N,/emmc/EMMC_D4*
X56750000Y-58300000D02*
X56850000Y-58400000D01*
X59049999Y-58799999D02*
X63999999Y-58799999D01*
X57550000Y-57750000D02*
X58000000Y-57750000D01*
X57250000Y-58300000D02*
X57250000Y-58050000D01*
X56750000Y-56750000D02*
X56750000Y-58300000D01*
X56850000Y-58400000D02*
X57150000Y-58400000D01*
X57150000Y-58400000D02*
X57250000Y-58300000D01*
X63999999Y-58799999D02*
X64350000Y-59150000D01*
X58000000Y-57750000D02*
X59049999Y-58799999D01*
X57250000Y-58050000D02*
X57550000Y-57750000D01*
D17*
G04 #@! TO.N,+3V3*
X50200000Y-58950000D02*
X49250000Y-58000000D01*
X50200000Y-60500000D02*
X50200000Y-58950000D01*
G04 #@! TD*
D16*
G04 #@! TO.N,+1V0C*
G36*
X68009257Y-54860297D02*
X68165462Y-54925000D01*
X68334538Y-54925000D01*
X68490743Y-54860297D01*
X68526040Y-54825000D01*
X68925000Y-54825000D01*
X68925000Y-62675000D01*
X68825408Y-62675000D01*
X68687579Y-62732090D01*
X68582090Y-62837579D01*
X68575000Y-62854696D01*
X68567910Y-62837579D01*
X68462421Y-62732090D01*
X68324592Y-62675000D01*
X68175408Y-62675000D01*
X68037579Y-62732090D01*
X67932090Y-62837579D01*
X67875000Y-62975408D01*
X67875000Y-63124592D01*
X67895879Y-63175000D01*
X66654121Y-63175000D01*
X66675000Y-63124592D01*
X66675000Y-62975408D01*
X66617910Y-62837579D01*
X66512421Y-62732090D01*
X66374592Y-62675000D01*
X66225408Y-62675000D01*
X66087579Y-62732090D01*
X66075000Y-62744669D01*
X66075000Y-58750000D01*
X66069291Y-58721299D01*
X66053033Y-58696967D01*
X65997368Y-58641302D01*
X66025000Y-58574592D01*
X66025000Y-58425408D01*
X67225000Y-58425408D01*
X67225000Y-58574592D01*
X67282090Y-58712421D01*
X67387579Y-58817910D01*
X67404696Y-58825000D01*
X67387579Y-58832090D01*
X67282090Y-58937579D01*
X67225000Y-59075408D01*
X67225000Y-59224592D01*
X67282090Y-59362421D01*
X67387579Y-59467910D01*
X67525408Y-59525000D01*
X67674592Y-59525000D01*
X67812421Y-59467910D01*
X67917910Y-59362421D01*
X67925000Y-59345304D01*
X67932090Y-59362421D01*
X68037579Y-59467910D01*
X68175408Y-59525000D01*
X68324592Y-59525000D01*
X68462421Y-59467910D01*
X68567910Y-59362421D01*
X68625000Y-59224592D01*
X68625000Y-59075408D01*
X68567910Y-58937579D01*
X68462421Y-58832090D01*
X68324592Y-58775000D01*
X68175408Y-58775000D01*
X68037579Y-58832090D01*
X67932090Y-58937579D01*
X67925000Y-58954696D01*
X67917910Y-58937579D01*
X67812421Y-58832090D01*
X67795304Y-58825000D01*
X67812421Y-58817910D01*
X67917910Y-58712421D01*
X67975000Y-58574592D01*
X67975000Y-58425408D01*
X67917910Y-58287579D01*
X67812421Y-58182090D01*
X67674592Y-58125000D01*
X67525408Y-58125000D01*
X67387579Y-58182090D01*
X67282090Y-58287579D01*
X67225000Y-58425408D01*
X66025000Y-58425408D01*
X65967910Y-58287579D01*
X65862421Y-58182090D01*
X65724592Y-58125000D01*
X65575408Y-58125000D01*
X65508698Y-58152632D01*
X65303033Y-57946967D01*
X65278701Y-57930709D01*
X65250000Y-57925000D01*
X60825000Y-57925000D01*
X60825000Y-55915462D01*
X66075000Y-55915462D01*
X66075000Y-56084538D01*
X66139703Y-56240743D01*
X66259257Y-56360297D01*
X66294753Y-56375000D01*
X66259257Y-56389703D01*
X66139703Y-56509257D01*
X66075000Y-56665462D01*
X66075000Y-56834538D01*
X66139703Y-56990743D01*
X66259257Y-57110297D01*
X66294753Y-57125000D01*
X66259257Y-57139703D01*
X66139703Y-57259257D01*
X66075000Y-57415462D01*
X66075000Y-57584538D01*
X66139703Y-57740743D01*
X66259257Y-57860297D01*
X66415462Y-57925000D01*
X66584538Y-57925000D01*
X66740743Y-57860297D01*
X66860297Y-57740743D01*
X66925000Y-57584538D01*
X66925000Y-57415462D01*
X66860297Y-57259257D01*
X66740743Y-57139703D01*
X66705247Y-57125000D01*
X66740743Y-57110297D01*
X66860297Y-56990743D01*
X66925000Y-56834538D01*
X66925000Y-56665462D01*
X66860297Y-56509257D01*
X66740743Y-56389703D01*
X66705247Y-56375000D01*
X66740743Y-56360297D01*
X66860297Y-56240743D01*
X66925000Y-56084538D01*
X66925000Y-55915462D01*
X66860297Y-55759257D01*
X66740743Y-55639703D01*
X66584538Y-55575000D01*
X66415462Y-55575000D01*
X66259257Y-55639703D01*
X66139703Y-55759257D01*
X66075000Y-55915462D01*
X60825000Y-55915462D01*
X60825000Y-54825000D01*
X67973960Y-54825000D01*
X68009257Y-54860297D01*
X68009257Y-54860297D01*
G37*
X68009257Y-54860297D02*
X68165462Y-54925000D01*
X68334538Y-54925000D01*
X68490743Y-54860297D01*
X68526040Y-54825000D01*
X68925000Y-54825000D01*
X68925000Y-62675000D01*
X68825408Y-62675000D01*
X68687579Y-62732090D01*
X68582090Y-62837579D01*
X68575000Y-62854696D01*
X68567910Y-62837579D01*
X68462421Y-62732090D01*
X68324592Y-62675000D01*
X68175408Y-62675000D01*
X68037579Y-62732090D01*
X67932090Y-62837579D01*
X67875000Y-62975408D01*
X67875000Y-63124592D01*
X67895879Y-63175000D01*
X66654121Y-63175000D01*
X66675000Y-63124592D01*
X66675000Y-62975408D01*
X66617910Y-62837579D01*
X66512421Y-62732090D01*
X66374592Y-62675000D01*
X66225408Y-62675000D01*
X66087579Y-62732090D01*
X66075000Y-62744669D01*
X66075000Y-58750000D01*
X66069291Y-58721299D01*
X66053033Y-58696967D01*
X65997368Y-58641302D01*
X66025000Y-58574592D01*
X66025000Y-58425408D01*
X67225000Y-58425408D01*
X67225000Y-58574592D01*
X67282090Y-58712421D01*
X67387579Y-58817910D01*
X67404696Y-58825000D01*
X67387579Y-58832090D01*
X67282090Y-58937579D01*
X67225000Y-59075408D01*
X67225000Y-59224592D01*
X67282090Y-59362421D01*
X67387579Y-59467910D01*
X67525408Y-59525000D01*
X67674592Y-59525000D01*
X67812421Y-59467910D01*
X67917910Y-59362421D01*
X67925000Y-59345304D01*
X67932090Y-59362421D01*
X68037579Y-59467910D01*
X68175408Y-59525000D01*
X68324592Y-59525000D01*
X68462421Y-59467910D01*
X68567910Y-59362421D01*
X68625000Y-59224592D01*
X68625000Y-59075408D01*
X68567910Y-58937579D01*
X68462421Y-58832090D01*
X68324592Y-58775000D01*
X68175408Y-58775000D01*
X68037579Y-58832090D01*
X67932090Y-58937579D01*
X67925000Y-58954696D01*
X67917910Y-58937579D01*
X67812421Y-58832090D01*
X67795304Y-58825000D01*
X67812421Y-58817910D01*
X67917910Y-58712421D01*
X67975000Y-58574592D01*
X67975000Y-58425408D01*
X67917910Y-58287579D01*
X67812421Y-58182090D01*
X67674592Y-58125000D01*
X67525408Y-58125000D01*
X67387579Y-58182090D01*
X67282090Y-58287579D01*
X67225000Y-58425408D01*
X66025000Y-58425408D01*
X65967910Y-58287579D01*
X65862421Y-58182090D01*
X65724592Y-58125000D01*
X65575408Y-58125000D01*
X65508698Y-58152632D01*
X65303033Y-57946967D01*
X65278701Y-57930709D01*
X65250000Y-57925000D01*
X60825000Y-57925000D01*
X60825000Y-55915462D01*
X66075000Y-55915462D01*
X66075000Y-56084538D01*
X66139703Y-56240743D01*
X66259257Y-56360297D01*
X66294753Y-56375000D01*
X66259257Y-56389703D01*
X66139703Y-56509257D01*
X66075000Y-56665462D01*
X66075000Y-56834538D01*
X66139703Y-56990743D01*
X66259257Y-57110297D01*
X66294753Y-57125000D01*
X66259257Y-57139703D01*
X66139703Y-57259257D01*
X66075000Y-57415462D01*
X66075000Y-57584538D01*
X66139703Y-57740743D01*
X66259257Y-57860297D01*
X66415462Y-57925000D01*
X66584538Y-57925000D01*
X66740743Y-57860297D01*
X66860297Y-57740743D01*
X66925000Y-57584538D01*
X66925000Y-57415462D01*
X66860297Y-57259257D01*
X66740743Y-57139703D01*
X66705247Y-57125000D01*
X66740743Y-57110297D01*
X66860297Y-56990743D01*
X66925000Y-56834538D01*
X66925000Y-56665462D01*
X66860297Y-56509257D01*
X66740743Y-56389703D01*
X66705247Y-56375000D01*
X66740743Y-56360297D01*
X66860297Y-56240743D01*
X66925000Y-56084538D01*
X66925000Y-55915462D01*
X66860297Y-55759257D01*
X66740743Y-55639703D01*
X66584538Y-55575000D01*
X66415462Y-55575000D01*
X66259257Y-55639703D01*
X66139703Y-55759257D01*
X66075000Y-55915462D01*
X60825000Y-55915462D01*
X60825000Y-54825000D01*
X67973960Y-54825000D01*
X68009257Y-54860297D01*
G04 #@! TO.N,+1V0L*
G36*
X65250000Y-67893934D02*
X64621967Y-68521967D01*
X64605709Y-68546299D01*
X64600000Y-68575000D01*
X64600000Y-69907169D01*
X64519590Y-69987579D01*
X64462500Y-70125408D01*
X64462500Y-70274592D01*
X64519590Y-70412421D01*
X64600000Y-70492831D01*
X64600000Y-70720857D01*
X64543750Y-70856658D01*
X64543750Y-71005842D01*
X64600000Y-71141643D01*
X64600000Y-71370857D01*
X64543750Y-71506658D01*
X64543750Y-71655842D01*
X64600000Y-71791643D01*
X64600000Y-72906235D01*
X64537579Y-72932090D01*
X64432090Y-73037579D01*
X64375000Y-73175408D01*
X64375000Y-73324592D01*
X64429534Y-73456250D01*
X60850000Y-73456250D01*
X60850000Y-72175408D01*
X61625000Y-72175408D01*
X61625000Y-72324592D01*
X61682090Y-72462421D01*
X61787579Y-72567910D01*
X61925408Y-72625000D01*
X62074592Y-72625000D01*
X62212421Y-72567910D01*
X62254923Y-72525408D01*
X62425000Y-72525408D01*
X62425000Y-72674592D01*
X62482090Y-72812421D01*
X62587579Y-72917910D01*
X62725408Y-72975000D01*
X62874592Y-72975000D01*
X63012421Y-72917910D01*
X63117910Y-72812421D01*
X63175000Y-72674592D01*
X63175000Y-72525408D01*
X63117910Y-72387579D01*
X63012421Y-72282090D01*
X62874592Y-72225000D01*
X62725408Y-72225000D01*
X62587579Y-72282090D01*
X62482090Y-72387579D01*
X62425000Y-72525408D01*
X62254923Y-72525408D01*
X62317910Y-72462421D01*
X62375000Y-72324592D01*
X62375000Y-72175408D01*
X62367234Y-72156658D01*
X63568750Y-72156658D01*
X63568750Y-72305842D01*
X63625840Y-72443671D01*
X63731329Y-72549160D01*
X63869158Y-72606250D01*
X64018342Y-72606250D01*
X64156171Y-72549160D01*
X64261660Y-72443671D01*
X64318750Y-72305842D01*
X64318750Y-72156658D01*
X64261660Y-72018829D01*
X64156171Y-71913340D01*
X64018342Y-71856250D01*
X63869158Y-71856250D01*
X63731329Y-71913340D01*
X63625840Y-72018829D01*
X63568750Y-72156658D01*
X62367234Y-72156658D01*
X62317910Y-72037579D01*
X62212421Y-71932090D01*
X62074592Y-71875000D01*
X61925408Y-71875000D01*
X61787579Y-71932090D01*
X61682090Y-72037579D01*
X61625000Y-72175408D01*
X60850000Y-72175408D01*
X60850000Y-71531066D01*
X61605658Y-70775408D01*
X62675000Y-70775408D01*
X62675000Y-70924592D01*
X62732090Y-71062421D01*
X62837579Y-71167910D01*
X62854696Y-71175000D01*
X62837579Y-71182090D01*
X62732090Y-71287579D01*
X62675000Y-71425408D01*
X62675000Y-71574592D01*
X62732090Y-71712421D01*
X62837579Y-71817910D01*
X62975408Y-71875000D01*
X63124592Y-71875000D01*
X63262421Y-71817910D01*
X63367910Y-71712421D01*
X63375000Y-71695304D01*
X63382090Y-71712421D01*
X63487579Y-71817910D01*
X63625408Y-71875000D01*
X63774592Y-71875000D01*
X63912421Y-71817910D01*
X64017910Y-71712421D01*
X64075000Y-71574592D01*
X64075000Y-71425408D01*
X64017910Y-71287579D01*
X63912421Y-71182090D01*
X63895304Y-71175000D01*
X63912421Y-71167910D01*
X64017910Y-71062421D01*
X64075000Y-70924592D01*
X64075000Y-70775408D01*
X64017910Y-70637579D01*
X63912421Y-70532090D01*
X63774592Y-70475000D01*
X63625408Y-70475000D01*
X63487579Y-70532090D01*
X63382090Y-70637579D01*
X63375000Y-70654696D01*
X63367910Y-70637579D01*
X63262421Y-70532090D01*
X63124592Y-70475000D01*
X62975408Y-70475000D01*
X62837579Y-70532090D01*
X62732090Y-70637579D01*
X62675000Y-70775408D01*
X61605658Y-70775408D01*
X62456066Y-69925000D01*
X62474592Y-69925000D01*
X62612421Y-69867910D01*
X62717910Y-69762421D01*
X62775000Y-69624592D01*
X62775000Y-69606066D01*
X62778033Y-69603033D01*
X62794291Y-69578701D01*
X62800000Y-69550000D01*
X62800000Y-68281066D01*
X63106066Y-67975000D01*
X63124592Y-67975000D01*
X63262421Y-67917910D01*
X63367910Y-67812421D01*
X63425000Y-67674592D01*
X63425000Y-67656066D01*
X63428033Y-67653033D01*
X63444291Y-67628701D01*
X63450000Y-67600000D01*
X63450000Y-66618750D01*
X65250000Y-66618750D01*
X65250000Y-67893934D01*
X65250000Y-67893934D01*
G37*
X65250000Y-67893934D02*
X64621967Y-68521967D01*
X64605709Y-68546299D01*
X64600000Y-68575000D01*
X64600000Y-69907169D01*
X64519590Y-69987579D01*
X64462500Y-70125408D01*
X64462500Y-70274592D01*
X64519590Y-70412421D01*
X64600000Y-70492831D01*
X64600000Y-70720857D01*
X64543750Y-70856658D01*
X64543750Y-71005842D01*
X64600000Y-71141643D01*
X64600000Y-71370857D01*
X64543750Y-71506658D01*
X64543750Y-71655842D01*
X64600000Y-71791643D01*
X64600000Y-72906235D01*
X64537579Y-72932090D01*
X64432090Y-73037579D01*
X64375000Y-73175408D01*
X64375000Y-73324592D01*
X64429534Y-73456250D01*
X60850000Y-73456250D01*
X60850000Y-72175408D01*
X61625000Y-72175408D01*
X61625000Y-72324592D01*
X61682090Y-72462421D01*
X61787579Y-72567910D01*
X61925408Y-72625000D01*
X62074592Y-72625000D01*
X62212421Y-72567910D01*
X62254923Y-72525408D01*
X62425000Y-72525408D01*
X62425000Y-72674592D01*
X62482090Y-72812421D01*
X62587579Y-72917910D01*
X62725408Y-72975000D01*
X62874592Y-72975000D01*
X63012421Y-72917910D01*
X63117910Y-72812421D01*
X63175000Y-72674592D01*
X63175000Y-72525408D01*
X63117910Y-72387579D01*
X63012421Y-72282090D01*
X62874592Y-72225000D01*
X62725408Y-72225000D01*
X62587579Y-72282090D01*
X62482090Y-72387579D01*
X62425000Y-72525408D01*
X62254923Y-72525408D01*
X62317910Y-72462421D01*
X62375000Y-72324592D01*
X62375000Y-72175408D01*
X62367234Y-72156658D01*
X63568750Y-72156658D01*
X63568750Y-72305842D01*
X63625840Y-72443671D01*
X63731329Y-72549160D01*
X63869158Y-72606250D01*
X64018342Y-72606250D01*
X64156171Y-72549160D01*
X64261660Y-72443671D01*
X64318750Y-72305842D01*
X64318750Y-72156658D01*
X64261660Y-72018829D01*
X64156171Y-71913340D01*
X64018342Y-71856250D01*
X63869158Y-71856250D01*
X63731329Y-71913340D01*
X63625840Y-72018829D01*
X63568750Y-72156658D01*
X62367234Y-72156658D01*
X62317910Y-72037579D01*
X62212421Y-71932090D01*
X62074592Y-71875000D01*
X61925408Y-71875000D01*
X61787579Y-71932090D01*
X61682090Y-72037579D01*
X61625000Y-72175408D01*
X60850000Y-72175408D01*
X60850000Y-71531066D01*
X61605658Y-70775408D01*
X62675000Y-70775408D01*
X62675000Y-70924592D01*
X62732090Y-71062421D01*
X62837579Y-71167910D01*
X62854696Y-71175000D01*
X62837579Y-71182090D01*
X62732090Y-71287579D01*
X62675000Y-71425408D01*
X62675000Y-71574592D01*
X62732090Y-71712421D01*
X62837579Y-71817910D01*
X62975408Y-71875000D01*
X63124592Y-71875000D01*
X63262421Y-71817910D01*
X63367910Y-71712421D01*
X63375000Y-71695304D01*
X63382090Y-71712421D01*
X63487579Y-71817910D01*
X63625408Y-71875000D01*
X63774592Y-71875000D01*
X63912421Y-71817910D01*
X64017910Y-71712421D01*
X64075000Y-71574592D01*
X64075000Y-71425408D01*
X64017910Y-71287579D01*
X63912421Y-71182090D01*
X63895304Y-71175000D01*
X63912421Y-71167910D01*
X64017910Y-71062421D01*
X64075000Y-70924592D01*
X64075000Y-70775408D01*
X64017910Y-70637579D01*
X63912421Y-70532090D01*
X63774592Y-70475000D01*
X63625408Y-70475000D01*
X63487579Y-70532090D01*
X63382090Y-70637579D01*
X63375000Y-70654696D01*
X63367910Y-70637579D01*
X63262421Y-70532090D01*
X63124592Y-70475000D01*
X62975408Y-70475000D01*
X62837579Y-70532090D01*
X62732090Y-70637579D01*
X62675000Y-70775408D01*
X61605658Y-70775408D01*
X62456066Y-69925000D01*
X62474592Y-69925000D01*
X62612421Y-69867910D01*
X62717910Y-69762421D01*
X62775000Y-69624592D01*
X62775000Y-69606066D01*
X62778033Y-69603033D01*
X62794291Y-69578701D01*
X62800000Y-69550000D01*
X62800000Y-68281066D01*
X63106066Y-67975000D01*
X63124592Y-67975000D01*
X63262421Y-67917910D01*
X63367910Y-67812421D01*
X63425000Y-67674592D01*
X63425000Y-67656066D01*
X63428033Y-67653033D01*
X63444291Y-67628701D01*
X63450000Y-67600000D01*
X63450000Y-66618750D01*
X65250000Y-66618750D01*
X65250000Y-67893934D01*
G04 #@! TD*
M02*
