G04 #@! TF.GenerationSoftware,KiCad,Pcbnew,5.0.2-bee76a0~70~ubuntu18.04.1*
G04 #@! TF.CreationDate,2019-05-20T11:18:47+08:00*
G04 #@! TF.ProjectId,require,72657175-6972-4652-9e6b-696361645f70,rev?*
G04 #@! TF.SameCoordinates,Original*
G04 #@! TF.FileFunction,Profile,NP*
%FSLAX46Y46*%
G04 Gerber Fmt 4.6, Leading zero omitted, Abs format (unit mm)*
G04 Created by KiCad (PCBNEW 5.0.2-bee76a0~70~ubuntu18.04.1) date 2019年05月20日 星期一 11时18分47秒*
%MOMM*%
%LPD*%
G01*
G04 APERTURE LIST*
%ADD10C,0.150000*%
G04 APERTURE END LIST*
D10*
X83825000Y-79300000D02*
X86500000Y-79300000D01*
X77175000Y-79300000D02*
X77675000Y-78800000D01*
X79075000Y-79300000D02*
X78575000Y-78800000D01*
X83825000Y-79300000D02*
X83325000Y-78800000D01*
X81925000Y-79300000D02*
X82425000Y-78800000D01*
X81925000Y-79300000D02*
X79075000Y-79300000D01*
X77675000Y-78800000D02*
X77675000Y-77700000D01*
X82425000Y-77700000D02*
G75*
G02X83325000Y-77700000I450000J0D01*
G01*
X83325000Y-78800000D02*
X83325000Y-77700000D01*
X77675000Y-77700000D02*
G75*
G02X78575000Y-77700000I450000J0D01*
G01*
X78575000Y-78800000D02*
X78575000Y-77700000D01*
X82425000Y-78800000D02*
X82425000Y-77700000D01*
X47325000Y-52300000D02*
G75*
G02X46425000Y-52300000I-450000J0D01*
G01*
X42575000Y-52300000D02*
G75*
G02X41675000Y-52300000I-450000J0D01*
G01*
X47825000Y-50700000D02*
X47325000Y-51200000D01*
X45925000Y-50700000D02*
X46425000Y-51200000D01*
X43075000Y-50700000D02*
X42575000Y-51200000D01*
X41175000Y-50700000D02*
X41675000Y-51200000D01*
X47825000Y-50700000D02*
X86500000Y-50700000D01*
X47325000Y-51200000D02*
X47325000Y-52300000D01*
X46425000Y-51200000D02*
X46425000Y-52300000D01*
X43075000Y-50700000D02*
X45925000Y-50700000D01*
X41675000Y-51200000D02*
X41675000Y-52300000D01*
X42575000Y-51200000D02*
X42575000Y-52300000D01*
X86500000Y-50700000D02*
X86500000Y-79300000D01*
X38500000Y-50700000D02*
X38500000Y-79300000D01*
X38500000Y-79300000D02*
X77175000Y-79300000D01*
X38500000Y-50700000D02*
X41175000Y-50700000D01*
M02*
