G04 #@! TF.GenerationSoftware,KiCad,Pcbnew,5.0.2-bee76a0~70~ubuntu18.04.1*
G04 #@! TF.CreationDate,2019-05-16T13:37:02+08:00*
G04 #@! TF.ProjectId,require,72657175-6972-4652-9e6b-696361645f70,rev?*
G04 #@! TF.SameCoordinates,Original*
G04 #@! TF.FileFunction,Legend,Bot*
G04 #@! TF.FilePolarity,Positive*
%FSLAX46Y46*%
G04 Gerber Fmt 4.6, Leading zero omitted, Abs format (unit mm)*
G04 Created by KiCad (PCBNEW 5.0.2-bee76a0~70~ubuntu18.04.1) date 2019年05月16日 星期四 13时37分02秒*
%MOMM*%
%LPD*%
G01*
G04 APERTURE LIST*
%ADD10C,0.150000*%
%ADD11C,0.200000*%
G04 APERTURE END LIST*
D10*
G04 #@! TO.C,U830*
X70000000Y-54900000D02*
X70300000Y-54600000D01*
X70000000Y-54300000D02*
X70000000Y-54900000D01*
X70300000Y-54600000D02*
X70000000Y-54300000D01*
G04 #@! TO.C,U260*
X62550000Y-65200000D02*
X62350000Y-65400000D01*
X62550000Y-65600000D02*
X62550000Y-65200000D01*
X62350000Y-65400000D02*
X62550000Y-65600000D01*
G04 #@! TO.C,U220*
X65350000Y-72100000D02*
X65550000Y-72300000D01*
X65750000Y-72100000D02*
X65350000Y-72100000D01*
X65550000Y-72300000D02*
X65750000Y-72100000D01*
G04 #@! TO.C,U230*
X81150000Y-57900000D02*
X80950000Y-57700000D01*
X80750000Y-57900000D02*
X81150000Y-57900000D01*
X80950000Y-57700000D02*
X80750000Y-57900000D01*
D11*
G04 #@! TO.C,U400*
X59850000Y-54000000D02*
G75*
G03X59850000Y-54000000I-100000J0D01*
G01*
D10*
X59900000Y-55000000D02*
X59900000Y-57100000D01*
X58750000Y-53850000D02*
X59900000Y-55000000D01*
X57025000Y-53850000D02*
X58750000Y-53850000D01*
X59900000Y-67150000D02*
X59900000Y-63900000D01*
X57025000Y-67150000D02*
X59900000Y-67150000D01*
X48100000Y-53850000D02*
X48100000Y-57100000D01*
X50975000Y-53850000D02*
X48100000Y-53850000D01*
X48100000Y-67150000D02*
X48100000Y-63900000D01*
X50975000Y-67150000D02*
X48100000Y-67150000D01*
X48100000Y-53850000D02*
X48100000Y-57100000D01*
X50975000Y-53850000D02*
X48100000Y-53850000D01*
X48100000Y-53850000D02*
X48100000Y-57100000D01*
X50975000Y-53850000D02*
X48100000Y-53850000D01*
G04 #@! TD*
M02*
